<?xml version="1.0" encoding="utf-8"?>
<!-- Generator: Adobe Illustrator 24.0.0, SVG Export Plug-In . SVG Version: 6.00 Build 0)  -->
<svg version="1.1" id="Layer_1" xmlns="http://www.w3.org/2000/svg" xmlns:xlink="http://www.w3.org/1999/xlink" x="0px" y="0px"
	 viewBox="0 0 312 136" style="enable-background:new 0 0 312 136;" xml:space="preserve">
<g id="i2kTFt.tif">
	<g>
		<path style="fill:#020202;" d="M108.8,47.2c-0.7,0.2-1.4,0.5-2.1-0.1c-0.1,0-0.3,0.1-0.4,0.1c-0.7,0.4-1.4,0.9-2.2,1.3
			c-0.7,0.4-1,0.1-1.1-0.7c-0.2-2.5,1.3-4.4,2.4-6.3c0.3-0.6,1.2-1,1.9-1.3c1.1-0.4,2.2-0.6,3.3-0.9c0.8-0.2,1.5-0.5,2.4-0.4
			c1,0.1,2,0.1,2.9,0.3c0.4,0.1,0.9,0.4,1.2,0.7c0.8,0.7,1.6,1.5,2.3,2.3c0.2,0.2,0.3,0.7,0.4,1c0.1,0.1,0.1,0.3,0.2,0.4
			c0.4,0.7,0.8,1.4,1.3,2.1c0.5,0.7,0.6,1.4,0.6,2.2c0,0.6,0,1.2-0.5,1.7c-0.1,0.1-0.1,0.3-0.1,0.4c0.3,0.8,0.6,1.5,0.9,2.3
			c0.1,0.3,0.2,0.7,0.3,1.1c0.2,0.8,0.5,1.5,1.5,1.5c0,0,0.1,0,0.1,0c0.6,0.8,1.5,0.9,2.3,1.3c0.3,0.2,0.7,0.2,1.1,0.4
			c0.3,0.1,0.6,0.3,0.9,0.5c0.5,0.2,1,0.5,1.6,0.6c0.3,0.1,0.5-0.1,0.6,0.3c0,0.2,0.2,0.4,0.4,0.5c1,0.4,1.7,1.3,2.5,1.9
			c1.2,0.9,2.4,1.7,3.6,2.5c0.2,0.2,0.6,0.1,0.9,0.1c0.4,0,0.9-0.1,1.3,0.1c0.5,0.2,0.6,1.1-0.1,1.7c0.5,0.5,1.2,1,1.6,1.6
			c0.7,0.9,1.2,1.9,1.8,2.8c0.5,0.9,1.1,1.7,1.5,2.6c0.4,1,0.7,2.1,1.1,3.1c0.2,0.6,0.4,1.1,0.7,1.7c0.5,1,1.1,1.9,1.6,2.9
			c0.2,0.4,0.4,0.8,0.6,1.1c0.3,0,0.7-0.1,0.8,0c1.1,0.7,2.4,1.3,3.2,2.5c0.3,0.5,0.9,0.7,1.4,0.7c1,0.1,1.8,0.5,2.2,1.4
			c-0.1,0.1-0.1,0.2-0.2,0.4c-0.3,0.4-0.7,0.5-1.1,0.4c-0.9-0.2-1.7-0.3-2.6-0.5c-0.1,0-0.2-0.1-0.3-0.2c-0.5-0.6-1.1-1.2-1.6-1.8
			c-0.7-0.8-1-0.8-1.7-0.1c-0.2,0.2-0.4,0.3-0.6,0.4c-0.5,0.3-0.9,0.7-1.4,1c0.8,1.1,1.5,2.1,2.7,2.4c0.1,0,0.2,0.1,0.3,0.2
			c0.8,0.8,1.7,0.5,2.7,0.3c-0.2-0.1-0.3-0.2-0.4-0.3c-0.5-0.3-0.5-0.7,0-1c0.3-0.2,0.9-0.3,1.1-0.1c1.1,0.6,2.3,0.7,3.5,0.9
			c0.1,0.4-0.1,0.8-0.6,0.9c-0.3,0.1-0.7,0.1-1,0.3c0.2,0.1,0.4,0.1,0.7,0.2c0.1,0,0.2,0.2,0.3,0.2c-0.1,0.1-0.1,0.2-0.2,0.3
			c-0.5,0.4-1.1,0.2-1.6,0.2c-0.2,0-0.4,0-0.6,0c-0.4-0.2-0.9-0.4-1.3-0.6c-0.1,0-0.2,0.1-0.3,0.1c0.6,0.5,0.1,0.7-0.1,1
			c-1.7-0.3-3.3-0.9-4.7-1.9c-0.9-0.7-1.6-1.4-2.2-2.3c-0.2-0.3-0.6-0.5-0.9-0.7c-0.7-0.4-0.8-0.8-0.6-1.1c-0.9-1.3-1.8-2.5-2.7-3.7
			c-0.4-0.6-0.8-1.2-1.2-1.8c-0.1-0.2-0.1-0.5-0.2-0.8c0-0.1,0-0.2,0-0.2c-0.9-1.3-1.7-2.7-2.6-4c-0.1-0.2-0.4-0.3-0.7-0.4
			c0.5,1.9,0.6,3.7,1.8,5.2c-0.1,0-0.1,0-0.2,0c0.1,0.4,0.2,0.9,0.4,1.3c0.1,0.3,0.3,0.6,0.5,1c0.5,1.3,0.9,2.6,1.3,3.9
			c0.1,0.4,0.3,0.8,0.3,1.2c0.1,0.9,0.2,1.7,0.3,2.6c0.1,0.8,0.3,1.6,0.4,2.4c0.3,1.8,0.5,3.6,0.8,5.5c0.1,0.8,0.4,1.5,0.7,2.2
			c0.4,0.9,0.9,1.8,1.3,2.6c0.2,0.4,0.6,0.7,0.8,1c1.1,1.9,2.2,3.9,3.4,5.8c0.6,1,1.4,1.8,2,2.8c0.4,0.6,0.7,1.2,1,1.8
			c0.1,0.1,0.2,0.3,0.3,0.3c1,0.3,1.6,1.1,2.3,1.7c0.8,0.7,1.7,1.2,2.5,1.8c0.1,0.1,0.4-0.1,0.4-0.2c0.4-1.4,1.3-2.1,2.7-2.3
			c0.3-0.1,0.6-0.6,0.7-0.9c0.5-1.3,1.2-2.4,2.5-3.1c0.4-0.2,0.9-0.2,1.3-0.4c0.2-0.1,0.4-0.3,0.5-0.5c0.3-0.4,0.7-0.8,1-1.2
			c0.4-0.5,0.7-1,1.1-1.6c0.1,0,0.3-0.1,0.6-0.1c0.6-0.1,1.3-0.2,1.9-0.3c0.2,0,0.4-0.1,0.5-0.2c0.5-1,1.4-1.6,2.2-2.3
			c0.6-0.5,1.2-0.9,2-0.9c0.6,0,0.6-0.6,0.7-1c0.1-0.5,0.4-0.8,0.7-1.1c0.5-0.5,0.9-1,1.5-1.4c0.5-0.3,1.1-0.5,1.6-0.8
			c0.1-0.1,0.3-0.2,0.3-0.3c0.5-1.6,1.6-2.7,2.8-3.7c0.9-0.7,1.8-1.4,2.8-1.9c1.2-0.7,2.4-1.3,3.9-0.7c0.3,0.1,0.6,0.1,1,0.1
			c-0.2-1-0.3-2-0.5-3c-0.5-1.6-1-3.3-0.8-5c0.1-0.7-0.2-1.3-0.2-2c0-1.2,0-2.5,0.1-3.7c0.2-2.3,0.3-4.6,0.6-6.9
			c0.2-1.6,0.5-3.1,0.9-4.6c0.6-2.5,1.3-5,2.1-7.5c0.4-1.2,0.7-2.5,1.4-3.6c1.2-1.9,1.7-4.1,2.8-6c0.3-0.4,0.4-0.9,0.8-1.3
			c0.4-0.4,0.5-1,0.7-1.5c0.3-0.6,0.6-1.2,1-1.7c0.6-0.8,1.2-1.5,1.8-2.3c0.2-0.3,0.3-0.6,0.5-0.9c1.4-2.1,3-4,4.9-5.6
			c1-0.8,1.9-1.8,2.8-2.6c0.7-0.6,1.5-1.1,2.2-1.6c1.2-0.9,2.4-1.7,3.5-2.6c0.9-0.7,1.6-1.4,2.5-2c1.4-1,3-1.9,4.7-2.4
			c1.2-0.4,2.5-0.8,3.7-1.2c0.7-0.2,1.4-0.3,2.1-0.6c0.9-0.3,1.8-0.7,2.7-1.1c1.1-0.4,2.2-0.7,3.2-1.1c2-0.8,4.1-1.2,6.3-1.3
			c0.8,0,1.7,0,2.5-0.1c0.7-0.1,1.4-0.2,1.9-0.5c0.8-0.5,1.5-0.2,2.3-0.1c0.4,0,0.7,0.1,1.1,0.1c1.4,0,2.8-0.2,4.2-0.3
			c1.3-0.1,2.6,0.2,3.9,0.4c1.6,0.3,3.1,0.7,4.7,1.1c0.9,0.2,1.8,0.5,2.7,0.5c1.3,0,2.3,0.4,3.4,0.9c0.8,0.3,1.6,0.3,2.3,1
			c0.2,0.2,0.7,0.1,1,0.2c0.2,0.1,0.3,0.2,0.5,0.3c0.2,0.1,0.5,0.2,0.8,0.2l0,0c0.1,0.1,0.2,0.4,0.3,0.4c0.9-0.1,1.3,0.8,2.1,0.9
			c0.4,0,0.7,0.3,1,0.4c0.2,0.1,0.3,0.1,0.5,0.2c1,0.5,2,1.1,3.1,1.6c0.2,0.1,0.5,0.1,0.8,0.1c0.5,0.5,1.1,1.1,1.7,1.6
			c1,0.8,2,1.7,3,2.4c0.4,0.3,0.6,0.6,0.8,1.1c0.1,0.2,0.4,0.2,0.6,0.4c1.2,1.1,2.5,2.1,3.4,3.4c0.5,0.7,1.2,1.3,1.9,1.9
			c0.7,0.8,1.4,1.6,1.9,2.5c0.1,0.2,0.3,0.4,0.4,0.5c0.3,0.4,0.7,0.7,1,1.2c0.8,1.1,1.6,2.3,2.5,3.4c0.6,0.7,1,1.5,1.5,2.3
			c0.5,0.7,0.9,1.5,1.4,2.2c0.6,1,1.2,1.9,1.6,3c0.6,1.3,1.1,2.7,1.5,4.1c0.4,1.3,0.6,2.6,0.9,4c0.2,1.1,0.5,2.2,0.6,3.3
			c0.3,2.6,0.7,5.2,0.9,7.8c0.2,2.5,0.2,4.9,0.2,7.4c0,1.3-0.2,2.6-0.4,3.9c-0.2,1.8-0.4,3.5-0.7,5.3c-0.3,2-0.7,3.9-1.1,5.9
			c-0.2,1-0.7,1.9-1.1,2.8c-0.5,1.3-1,2.6-1.6,3.8c-1.6,3.4-3.4,6.7-5.9,9.6c-1.3,1.5-2.6,3-3.9,4.4c-0.2,0.2-0.5,0.4-0.7,0.6
			c-0.2,0.1-0.3,0.3-0.4,0.5c-0.4,0.5-0.7,1.1-1.2,1.6c-1.2,1.2-2.5,2.4-3.8,3.5c-1.3,1.2-2.7,2.2-4.2,3.1c-0.7,0.4-1.4,1.1-2.1,1.5
			c-1,0.6-2,1.2-3,1.7c-1.5,0.7-3.1,1.3-4.7,2c-0.8,0.4-1.6,0.8-2.5,1.1c-0.1,0-0.2,0-0.3,0.1c-0.1,0-0.2,0-0.2,0.1
			c-0.1,0-0.2,0-0.3,0.1c-0.1,0-0.2,0-0.2,0.1c-0.8,0.2-1.5,0.4-2.3,0.6c0,0.1,0,0.1,0,0.2c0.5,0,1.1,0,1.6,0
			c0.8,0.1,1.7,0.2,2.5,0.2c0.2,0,0.3,0,0.5,0c0.1,0,0.2-0.1,0.2-0.1c0.1,0,0.2,0,0.3,0c0.1,0,0.2,0,0.3,0c0.1,0,0.2,0,0.3,0
			c0.4,0,0.8,0,1.1,0c0.1,0,0.2,0,0.2,0c0.6-0.1,1.1-0.2,1.7-0.2c0.1,0,0.2,0,0.2,0c0.3,0,0.7,0,1,0c0.2,0,0.3,0,0.5,0
			c0.3,0,0.5,0,0.8,0c0.1,0,0.2-0.1,0.3-0.1c0.2,0,0.4,0,0.6-0.1c0.1,0,0.2,0,0.3,0c0.2,0.1,0.3,0.2,0.5,0.2c0.2,0,0.3,0.1,0.5,0.1
			c0.4,0,0.8,0,1.2,0c0.2,0,0.3,0,0.5,0c0.1,0,0.2,0,0.3,0c0.1,0,0.2,0,0.4,0c0.2,0,0.4,0,0.7,0c0.1,0,0.2,0,0.2,0
			c0.1,0,0.2,0,0.2-0.1c0.1,0,0.3,0,0.4,0c1.1-0.1,2.3-0.3,3.4,0c0.2,0,0.4-0.1,0.6-0.1c0.2-0.1,0.5-0.2,0.7-0.2
			c1.1,0,2.1,0,3.2-0.1c0.5,0,0.9-0.2,1.4-0.3c0.5-0.1,1.2,0.3,1.2,0.7c0,0.4-0.5,1.1-1.1,1.1c-1.1,0-2.2,0-3.3,0
			c-2.1,0-4.1,0-6.2,0.1c-2.9,0-5.8,0-8.8,0.1c-1,0-2.1,0.1-3.1,0.1c-1.9,0-3.8,0-5.7,0c-1.8,0-3.6,0.1-5.4,0.2
			c-1.7,0.1-3.3,0.1-5,0.1c-2.8,0.1-5.6,0.1-8.4,0.2c-2.2,0.1-4.4,0.1-6.6,0.2c-1.5,0.1-3.1,0.1-4.6,0.2c-0.2,0-0.5,0-0.7,0
			c-0.9-0.1-1.8-0.2-2.7-0.3c-0.7-0.1-1.3-0.2-2-0.2c-0.1,0-0.3,0-0.4,0c-0.2,0-0.5,0.2-0.7,0.1c-0.8-0.3-1.7-0.4-2.5-0.4
			c-2.5,0-5,0-7.5,0.1c-2.4,0-4.8,0.1-7.2,0.1c-1.6,0-3.2-0.3-4.8-0.3c-1.7-0.1-3.5,0-5.2,0c-1.7,0-3.4,0-5.2,0
			c-0.1,0-0.3-0.1-0.4-0.2c-0.2-0.3-0.4-0.6-0.7-1.1c1.3,0.5,2.5-0.4,3.8,0c1.2,0.4,2.6,0.2,3.8,0.2c0.2,0,0.5-0.1,0.7-0.1
			c0.6,0,1.2,0.1,1.9,0.1c1.4,0,2.9,0.1,4.3,0.1c0.9,0,1.7,0,2.6,0c0.5,0,0.9-0.3,1.4-0.3c1.3,0,2.7,0.2,4,0.3c0.5,0,1-0.1,1.5-0.1
			c0.5,0,1,0,1.5,0c0.3,0,0.7,0,1,0c0.6,0,1.3,0,1.9,0c0.3,0,0.6-0.1,0.9-0.2c0-0.1,0-0.1,0-0.2c-0.7-0.3-1.4-0.6-2.1-1
			c-1.2-0.6-2.4-1.2-3.7-1.8c-1-0.5-2-1-2.9-1.5c-0.3-0.1-0.6-0.3-0.8-0.5c-1.5-1.1-3.2-1.9-4.5-3.2c-1-1-2.2-1.7-3.2-2.6
			c-0.9-0.8-1.7-1.7-2.4-2.6c-1.4-1.9-2.8-4-4.1-6c-1.1-1.6-2.2-3.3-3.3-5c-0.3-0.5-0.5-1.1-0.8-1.6c-0.1-0.2-0.3-0.4-0.4-0.6
			c-0.8,0.6-1.5,1.2-2.3,1.5c-0.8,0.4-1.8,0.6-2.6,0.9c-0.4,0.1-0.7,0.3-1.1,0.3c-1,0.2-2,0.4-2.9,0.4c-0.9,0-1.8-0.4-2.7-0.5
			c-0.2,0-0.5,0.1-0.7,0.2c-0.5,0.2-1,0.3-1.4,0.5c-0.4,0.2-0.8,0.3-1.1,0.6c-0.5,0.4-0.9,0.8-1.4,1.2c-0.3,0.2-0.6,0.3-0.9,0.3
			c-0.5,0.1-0.9,0.1-1.4,0.2c-0.1,0-0.2,0.2-0.3,0.3c-0.5,1.1-1.4,1.7-2.3,2.3c-0.4,0.3-0.9,0.4-1.4,0.7c-0.3,0.2-0.6,0.4-0.8,0.8
			c-0.8,1.5-2.2,2.1-3.6,2.8c-0.4,0.2-0.8,0.4-0.9,0.7c-0.7,1.4-1.8,2.4-3.2,3c-0.3,0.1-0.5,0.2-0.7,0.4c-0.1,0-0.2,0.1-0.2,0.2
			c-0.2,0.4-0.4,0.9-0.5,1.4c0.4,0.1,0.7,0.2,1.1,0.3c0.1,0.3,0.2,0.7,0.2,1c0,0.2-0.1,0.5-0.3,0.7c-0.5,0.5-1.1,0.9-1.5,1.4
			c-1,1-2,2.1-3.1,3.2c-0.5,0.5-1.2,0.9-1.7,1.4c-0.3,0.3-0.6,0.6-0.8,1c-0.6,1.2-1.6,1.7-2.9,1.7c-1.4,0-2.9,0-4.3,0
			c-2.2,0-4.4-0.1-6.6-0.1c-0.7,0-0.9-0.4-0.8-1.1c0.6,0,1.2,0,1.7,0c0-1.4,0.4-2.5,2.1-2.9c1-0.3,2-0.5,2.9-0.9
			c0.6-0.3,1.2-0.7,1.5-1.2c0.3-0.4,0.3-1.2,0.1-1.7c-0.4-1.1-1.2-2-2.3-2.6c-0.3-0.2-0.6-0.4-0.8-0.7c-0.9-0.9-1.9-1.7-2.8-2.6
			c-0.9-0.8-1.7-1.7-2.5-2.5c-0.9-0.8-1.8-1.6-2.6-2.4c-1-1-2-2-2.9-3.2c-1.2-1.7-2-3.5-2.9-5.3c-0.4-0.9-1-1.7-1.4-2.6
			c-0.3-0.6-0.6-1.3-1-1.9c-0.4-0.8-0.9-1.6-1.4-2.3c-0.1-0.1-0.4-0.1-0.5,0c-0.5,0.6-1,1.3-1.4,2c-0.3,0.4-0.5,0.8-0.7,1.2
			c-0.3,0.7-0.5,1.4-0.8,2.2c-0.1,0.3-0.1,0.7-0.3,0.9c-0.3,0.5-0.4,1-0.3,1.6c0.2,1.4,0.4,2.8,0.5,4.3c0.1,1.3,0.2,2.6,0.3,3.9
			c0.2,1.4,0.5,2.8,0.7,4.2c0.1,0.6,0.2,1.1,0.3,1.7c0.1,0.2,0.1,0.5,0.3,0.7c0.5,0.5,0.6,1.3,0.2,1.9c-0.1,0.1-0.2,0.2-0.1,0.3
			c0.4,0.9,0.5,1.8,0.6,2.8c0.1,0.7,0.6,1.3,0.9,2c0.2,0.4,0.6,0.7,0.8,1.1c0.2,0.3,0.6,0.7,0.1,1c-1,0.6-1.3,1.5-1.2,2.6
			c-7.3,0-14.6,0-22,0c0.2-1.4,0.4-2.5,1.5-3.4c0.5-0.4,0.9-1,1.4-1.5c0.1-0.1,0.2-0.2,0.3-0.3c0.8-0.5,1.7-0.9,2.5-1.3
			c1-0.6,2-1.2,3-1.8c0.4-0.2,0.6-0.5,0.1-0.9c-0.1-0.1-0.1-0.3-0.2-0.4c-0.4-2.5-0.9-5-1.3-7.6c-0.1-0.9-0.3-1.7-0.4-2.6
			c-0.1-1.6-0.2-3.3-0.3-4.9c0-0.6-0.1-1.2-0.1-1.8c0-1.1,0.1-2.1,0.2-3.2c0.1-0.7,0.1-1.4,0.3-2c0.2-0.7,0.5-1.3,0.7-2
			c0.4-1.7,0.8-3.5,1.2-5.2c0.3-1.1,0.6-2.3,1-3.4c0.4-1.5,0.9-2.9,1.4-4.4c0.2-0.7,0.4-1.4,0.6-2c0.1-0.3,0.1-0.5-0.2-0.6
			c-0.1,0-0.3-0.1-0.4-0.2c-0.4-0.3-0.4-0.9,0.1-1.1c0.3-0.1,0.5-0.3,0.9-0.5c-0.3-0.8-0.6-1.5-0.8-2.3c-0.2-0.5-0.3-1.1-0.5-1.6
			c-0.4-1.2-0.8-2.3-1.1-3.5c-0.2-0.6-0.3-1.1-0.4-1.7c-0.3-1.1-0.7-2.3-1-3.4c-0.2-0.5-0.5-1-0.8-1.5c-0.1-1-0.3-1.9-0.4-2.9
			c0-0.4,0-0.7,0-1.1c-0.2-0.7-0.5-1.4-0.7-2.1c-0.2-0.5,0.1-1,0.6-1c0.5,0,0.7-0.2,0.9-0.6c0.2-0.4,0.4-0.6,0.9-0.5
			c0.3,0.7,0.7,0.9,1.4,1.2c2.4,0.9,4.6,0.5,6.7-0.7c0.6-0.3,1.2-0.5,1.9-0.8c0,0.1,0.1,0.1,0.1,0.2c-0.6,0.5-1.1,1.1-1.7,1.6
			c-0.4,0.3-0.8,0.5-1.3,0.8c-1.1,0.6-2.3,0.7-3.5,0.6c-1-0.1-2.1-0.4-3.1-0.6c-0.2,0-0.5,0-0.7,0.1c0,0.2,0,0.5,0.1,0.7
			c0.2,0.9,0.4,1.8,0.7,2.7c0.1,0.4,0.2,0.8,0.3,1.2c0.1-0.4,0.3-0.6,0.7-0.4c0.6,0.3,1.3,0.6,1.9,0.7c1.2,0.1,2.4,0,3.5-0.1
			c1-0.1,1.9-0.4,2.9-0.6c0.4-0.1,0.8-0.3,0.7-0.9c0-0.2,0.3-0.6,0.6-0.7c0.3-0.1,0.7,0,1,0.1c0.3,0.1,0.4,0.4,0.7,0.6
			c-0.2,0.6,0.3,0.9,0.7,1.3c1.1,1.2,2.5,2,3.9,3c0.1,0.1,0.5,0.1,0.6,0c1.5-1.2,2.9-2.4,4.1-4c0.1-0.1,0.1-0.5,0.1-0.5
			c-1.1-0.9-2.2-1.8-3.4-2.9c-0.7,0.9-1.3,1.6-1.9,2.3c-0.4,0.5-0.8,1-1.3,1.5c-0.1-0.3-0.2-0.4-0.2-0.5c0.7-1.4,1.3-2.8,2.3-4
			c-0.3-0.8-1.2-1.1-1.8-1.6c-0.2-0.1-0.6-0.3-0.7-0.2c-0.9,0.8-1.7,1.6-2.5,2.4c-0.3,0.4-0.6,0.8-0.9,1.3c-0.3-0.6-0.4-0.8,0.1-1
			c0.2-0.1,0.3-0.3,0.4-0.5c0.2-0.3,0.4-0.6,0.6-0.9c0.5-0.6,1-1.2,1.6-1.9c-1.7-0.6-3.2-1.1-4.8-1.6c-0.4-0.1-0.9,0.1-1.3,0.3
			c-0.4,0.2-0.8,0.5-1.2,0.8c-1.9,1.3-4,1.6-6.2,0.8c-0.7-0.1-1.5-0.4-2.2,0.2c-0.2,0.2-0.5,0.2-0.7,0.2c-0.5,0.1-1,0.1-1.5,0.3
			c-0.2,0-0.4,0.3-0.4,0.4c0.1,1.3,0.2,2.7,0.3,4c0,0.4,0.2,0.8,0.2,1.2c0.3,0.1,0.7,0.2,0.9,0.4c0.2,0.2,0.2,0.8,0.1,0.8
			c-0.7,0.2-1.1,1.1-2,0.9c-1.5-0.1-3.1-0.3-4.6-0.4c-0.7-0.1-1.5-0.2-2.2-0.2c-0.8,0-1.5,0.2-2.3,0.1c-1.4,0-2.9-0.2-4.3-0.2
			c-0.5,0-1-0.1-1.4-0.1c-1.4-0.1-2.9-0.1-4.2-0.2c-0.6,0.8-1.2,1.6-1.8,2.3c-0.2,0.3-0.5,0.5-0.8,0.6c-0.9,0.4-1.9-0.3-1.8-1.4
			c0-0.7,0-1.4,0-2.1c0-0.5-0.5-0.9-1-0.9c-1,0-2,0-3.1,0.1c-0.9,0.1-1.9,0.2-2.8,0.4c-0.8,0.2-1.5,0-2.2-0.3
			c-0.6-0.3-0.9-1.5-0.4-2.2c-0.1-0.1-0.2-0.1-0.3-0.2c-0.5-0.3-0.6-0.7-0.5-1.2c0.1-0.5,0.3-0.8,0.9-0.7c0.1,0,0.3,0,0.4-0.1
			c1.1-0.6,2.4-0.6,3.5-0.9c1.6-0.5,3.3-0.2,4.9-0.4c1.3-0.2,2.6-0.3,3.9-0.4c1.4-0.1,2.8-0.2,4.2-0.3c2.6-0.1,5.3,0,7.9-0.1
			c0.9,0,1.9-0.1,2.8-0.2c1,0,2-0.1,3-0.1c1.4-0.1,2.7-0.2,4.1-0.2c0.6,0,1.2,0.1,1.8,0.1c-0.7-1.7-1.2-3.3-2.2-4.8
			c-0.5,0.2-1,0.4-1.5,0.6c-0.8,0.3-1.5,0-1.8-0.8c-0.4-1.3-0.8-2.6-1.2-3.9c-0.2-0.7-0.1-0.8,0.6-0.9c0.2,0,0.4-0.1,0.7-0.2
			c0.1,0.2,0.3,0.4,0.4,0.6c0.2,0.7,0.2,1.4,0.4,2.1c0.1,0.6,0.3,1.2,0.5,1.9c0.8-0.4,1.5-0.7,2.2-1.1c0.4-0.2,1.4,0,1.4,0.4
			c0.1,0.5,0.4,0.6,0.8,0.5c0.8-0.1,1.5-0.2,2.3-0.1c0.3,0,0.6,0.3,0.8,0.5c0.1,0.1-0.1,0.5-0.3,0.7c-0.3,0.2-0.6,0.3-0.9,0.4
			c-0.4,0.1-0.9,0-1.3,0c-0.4,0-0.5,0.3-0.4,0.7c0,0.2,0.1,0.4,0.2,0.6c0.5,0.7,0.5,2,1.9,1.8c0.1,0,0.1,0,0.2,0.1
			c1.4,0.8,2.7,0.3,3.9-0.4c1.2-0.6,1.3-0.9,0.8-2.1c-0.2-0.6-0.6-1.1-0.8-1.6c-0.5-1.4-0.8-2.9-1.9-4.2c0.4-0.3,0.8-0.6,1.2-0.9
			c0.1,0,0.1-0.1,0.2-0.2c0.2-0.5,0-1.9-0.4-2.3c-0.3-0.3-0.5-0.3-0.9,0c-0.4,0.3-0.8,0.5-1.3,0.7c-0.4,0.2-0.9-0.2-0.8-0.6
			c0.2-0.6-0.2-0.8-0.6-0.9c-0.5,1-1.2,1.4-2,1.1c-0.4-0.1-0.7-0.5-0.9-0.8c-0.3-0.3-0.5-0.4-0.8-0.1c-0.6,0.6-1.3,0.8-2.1,1
			C110,46.6,109.4,46.9,108.8,47.2z M118.4,77.3c0,0,0,0.1,0,0.1c0.3,0.9,0.7,1.7,1,2.6c0.2,0.4,0.5,0.8,0.6,1.2
			c0.2,0.7,0.8,1.1,1.5,1.2c0.9,0.1,1.9,0.2,2.8,0.1c2.3-0.2,4.7,0,7-0.6c0.1,0,0.2,0,0.3,0c0.5-0.1,1-0.2,1.5-0.3
			c0.5-0.1,1-0.3,1.6-0.4c0.6-0.2,1.3-0.3,1.9-0.5c-0.2-0.6-0.4-1.1-0.5-1.7c-0.2-1-0.6-1.8-1-2.6c-0.4-0.8-0.9-1.4-1.1-2.4
			c-0.2-1-1-1.7-1.7-2.4c-1.4,0.5-1.8,0.3-1.9-0.8c-1.4-0.1-2.7,0.4-4,0.8c-0.9,0.2-1.7,0.5-2.6,0.8c-0.2,0.1-0.5,0-0.7,0.1
			c-1.2,0.7-2.4,0.4-3.7,0.5c-0.8,0.1-1.5-0.1-2.4-0.1c0.5,1.2,0.9,2.3,1.3,3.4c0.1,0.3,0.1,0.5,0.2,0.8
			C118.3,77.2,118.3,77.2,118.4,77.3z M249.8,107.5L249.8,107.5c0,0.1,0,0.2-0.1,0.3c-0.2,0.3-0.6,0.6-0.7,0.9
			c-0.4,0.8-0.6,1.6-0.9,2.3c-0.1,0.3-0.4,0.5-0.6,0.8c0.1,0.3,0,0.6-0.4,0.9c-0.3,0.2-0.5,0.7-0.6,1c-0.3,0.7-0.5,1.3-0.7,2
			c-0.4,1.1-0.9,2.1-1.3,3.2c-0.3,0.7-0.5,1.4-0.7,2.1c-0.4,1.2-0.1,1.6,1.1,1.7c1.1,0,2.2,0.4,3.3-0.2c0.5-0.3,0.8-0.5,0.8-1.1
			c0-0.1,0.1-0.3,0.1-0.4c0.1-0.3,0.4-0.5,0.5-0.8c0.2-0.7,0.4-1.4,0.7-2.1c0.2-0.5,0.5-1.1,1-1.3c0.5-0.3,1.3-0.2,1.9-0.2
			c1.4-0.2,2.9-0.3,4.3-0.5c0.8-0.1,0.9-0.1,1.2,0.6c0.4,1.3,0.9,2.6,1.3,4c0.1,0.4,0.4,0.6,0.8,0.5c1-0.4,2.1-0.7,3-1.1
			c1.4-0.6,1.5-1.5,0.6-2.7c-0.1-0.1-0.1-0.3-0.1-0.4c-0.1-0.2-0.1-0.5-0.3-0.7c-0.9-1.4-1.7-2.8-2.2-4.4c-0.1-0.2-0.3-0.4-0.4-0.7
			c-0.2-0.6-0.3-1.2-0.6-1.7c-0.3-0.8-0.7-1.6-1.1-2.3c-0.7-1.4-1.5-2.7-2.3-4.1c-0.4-0.7-0.9-1.4-1.9-1.5c-0.5-0.1-0.9,0-1.4,0
			c-0.9-0.1-1.5,0.2-1.9,1.1c-0.1,0.3-0.2,0.7-0.4,0.7c-0.7,0.2-0.7,0.8-0.9,1.3c-0.2,0.4-0.4,0.7-0.5,1.1c-0.1,0.3-0.1,0.7-0.3,1.1
			c-0.1,0.2-0.4,0.3-0.6,0.5c-0.1,0.1-0.1,0.3-0.1,0.4C249.6,107.5,249.7,107.5,249.8,107.5z M211.5,85.7c1.1-1.1,1.7-2.4,1.7-4
			c0-0.5,0.2-1,0.3-1.5c0.1-0.4,0-0.9,0.1-1.3c0.4-1.6,0.1-3.2-0.1-4.7c0-0.5-0.2-1.2-1-1.3c-0.4-0.1-0.7-0.1-1.1-0.1
			c-1.6-0.2-3.2-0.4-4.8-0.6c-1.1-0.1-1.8,0.5-1.8,1.5c0,0.5,0.1,0.9,0,1.4c-0.1,0.6,0.2,0.9,0.8,1c1.2,0.1,2.3,0.2,3.4,0.3
			c0.8,2.7,0.5,3.6-0.1,5.3c-0.4,1.4-1.9,2.1-3.2,1.6c-0.5-0.2-1.1-0.4-1.6-0.7c-1.1-0.6-1.6-1.6-1.9-2.8c-0.5-1.8-0.4-3.6-0.4-5.3
			c0-2.4,0.2-4.7,1-7c0.4-1.2,1.2-2.1,2.3-2.5c1.2-0.4,2.4-0.2,3.5,0.4c0.5,0.3,1.1,0.6,1.6,0.7c0.2,0.1,0.6,0,0.7-0.1
			c0.8-0.7,1.3-1.6,1.5-2.6c0-0.2-0.1-0.5-0.3-0.6c-0.5-0.7-1.3-1.1-2-1.5c-1.3-0.7-2.7-1.5-4.3-1.2c-0.4,0.1-0.7,0.1-1.1,0.1
			c-1.5,0.1-2.7,0.9-4,1.6c-1.3,0.8-1.7,2.2-2.4,3.4c-0.4,0.7-0.4,1.6-0.5,2.5c-0.2,1.1-0.2,2.3-0.4,3.4c-0.1,0.7-0.2,1.3-0.1,2
			c0,0.6,0.2,1.1,0.3,1.7c0.1,1,0.1,2,0.1,2.9c0,0.3,0.2,0.6,0.2,0.8c-0.1,1.3,0.4,2.4,0.9,3.5c0.6,1.4,1.8,2.5,2.9,3.7
			c0.9,0.9,2.1,1.3,3.2,1.6c1,0.3,2.2,0,3.3,0c0.1,0,0.2-0.1,0.3-0.1c0.5-0.3,1.1-0.7,1.6-1C211,86.5,211.2,86,211.5,85.7z
			 M137.3,82.5c-0.4,0.1-0.6,0.2-0.7,0.2c-1.1,0.3-2.2,0.7-3.3,0.8c-1.3,0.2-2.6,0.3-3.9,0.4c-1,0.1-2,0.2-3.1,0.3
			c-0.9,0-1.8-0.1-2.7-0.1c-1.1,0-2.2,0-3.3,0.1c-0.1,0-0.3,0.1-0.4,0.2c-0.4,1-0.9,2.1-1.3,3.1c-0.3,0.9-0.6,1.8-0.9,2.7
			c-0.4,1.1-0.8,2.2-1.1,3.3c-0.1,0.4-0.1,0.9-0.2,1.4c-0.2,1-0.4,2-0.6,2.9c-0.1,0.4-0.1,0.8-0.3,1.2c-0.4,0.8-0.4,1.6-0.3,2.4
			c0,0.3,0,0.7-0.1,1c-0.2,1-0.4,1.9-0.6,2.9c-0.2,0.7,0.3,1.6-0.5,2.1c0.4,0.8,0.5,1.7,0.4,2.6c-0.1,0.3-0.1,0.6,0,1
			c0,0.3,0.2,0.7,0.2,1c0.1,1,0.2,2,0.3,3c0.1,0.9,0.3,1.8,0.5,2.7c0.2,0.9,0.4,1.7,0.6,2.6c0.1,0.4,0.3,0.9,0.3,1.3
			c0,0.5,0.2,1.1,0.7,1.2c1.2,0.2,2.3,0.5,3.5,0.6c1.2,0.1,2.4,0,3.6-0.1c0.1,0,0.3-0.1,0.3-0.2c0-0.4,0.1-0.8,0-1.1
			c-0.4-2.6-0.8-5.2-1.3-7.8c-0.1-0.6-0.2-1.2-0.3-1.8c-0.2-1.3-0.3-2.6-0.5-3.9c-0.1-0.8-0.4-1.6-0.5-2.4c-0.2-1.4-0.2-2.9,1.1-3.9
			c0.1-0.1,0.1-0.2,0.1-0.3c0.8-1.4,1.6-2.8,2.9-3.9c1.2-1,2.4-2.1,3.8-2.9c1.3-0.8,2.5-1.8,3.3-3.1c0.5-0.8,1.2-1.5,1.6-2.4
			c0.3-0.6,0.5-1.4,0.7-2.1c0.1-0.2,0.2-0.4,0.3-0.4c0.5,0,0.9,0.6,0.8,1.1c-0.1,0.3-0.2,0.5-0.3,0.8c-0.9,1.3-1.8,2.6-2.7,3.9
			c-0.2,0.3-0.4,0.4-0.6,0.7c-0.7,0.7-1.3,1.5-2,2.2c-0.6,0.6-1.3,1-1.9,1.5c0.5,1.3,1,2.4,1.5,3.5c0.2,0.5,0.6,1,0.9,1.4
			c0.1,0.2,0.3,0.2,0.4,0.4c0.6,1.1,1.2,2.2,1.7,3.3c0.6,1.2,1.1,2.4,2.1,3.4c0.8,0.8,1.4,1.8,2.2,2.7c0.8,1,1.9,1.7,2.7,2.7
			c1.5,1.6,3.2,3,4.8,4.4c0.4,0.4,0.9,0.6,1.4,1c0.2,0.2,0.4,0.5,0.6,0.8c0,0-0.1,0.1-0.3,0.2c0.3,0,0.4,0.1,0.6,0
			c0.9-0.3,1.8-0.7,2.7-1c1.1-0.4,1.8-1.3,2.5-2.1c0.3-0.3,0.2-0.7-0.2-0.8c-0.6-0.1-1-0.3-1.3-0.9c-0.6-0.9-1.3-1.7-1.8-2.6
			c-0.8-1.2-1.5-2.5-2.3-3.8c-0.6-1-1.3-2-2-3c-0.3-0.5-0.5-1-0.7-1.4c-0.8-1.3-1.6-2.5-2.4-3.7c-0.6-1-1.3-1.9-1.8-2.9
			c-0.4-0.7-0.7-1.5-0.8-2.3c-0.1-1.4,0-2.8-0.1-4.2c-0.2-1.7-0.5-3.4-0.8-5.1C138.3,85.7,137.8,84.1,137.3,82.5z M228.3,91.4
			c0-0.1,0-0.1,0-0.2c0.9,0,1.9,0.1,2.8,0c1-0.1,1.8-0.8,2.6-1.4c1.5-1.1,2.5-2.4,2.9-4.3c0.1-0.3,0.1-0.6,0.1-0.9
			c0.2-1.6,0.5-3.3,0.6-4.9c0.1-1.2,0-2.4,0.2-3.6c0.4-2.5,0.2-5,0-7.4c-0.1-1.1-0.2-2.1,0.2-3.2c0.2-0.6-0.1-1.2-0.5-1.3
			c-1.4-0.1-2.8-0.1-4.2-0.1c-0.2,0-0.5,0.2-0.5,0.3c-0.2,0.5-0.3,1-0.3,1.5c0,1.1,0.1,2.1,0.1,3.2c0,0.3-0.1,0.6-0.1,0.9
			c0,0.8,0.1,1.6,0,2.4c-0.1,1.2-0.2,2.4-0.3,3.5c-0.1,0.9-0.1,1.8-0.1,2.8c0,0.6-0.1,1.3-0.1,1.9c0,0.8,0.2,1.5,0.3,2.3
			c0.1,1.6-1.2,2.8-2.9,2.6c-0.9-0.1-1.8-0.2-2.6-0.2c-0.8-0.1-1.9-1-1.9-1.7c-0.1-1.3-0.2-2.5-0.3-3.8c-0.1-1.1-0.2-2.1-0.3-3.2
			c-0.1-1.3-0.4-2.6-0.2-3.9c0.1-0.3,0.1-0.7,0.1-1c0-1-0.1-2-0.1-3.1c0-0.7-0.1-1.4-0.2-2.1c0-0.8-0.1-1.6,0.1-2.4
			c0.1-0.5-0.1-0.7-0.4-0.8c-0.9-0.2-1.9-0.4-2.8-0.6c-0.7-0.1-1.1,0.2-1.2,0.9c-0.1,1-0.1,2.1-0.1,3.2c0,1.2,0.1,2.4,0,3.6
			c0,0.7-0.2,1.5-0.2,2.2c0,1.2,0.1,2.4,0.2,3.6c0,0.6,0,1.2,0.1,1.8c0.1,1-0.4,1.9-0.1,3c0.3,0.9,0.3,2,0.5,3
			c0.1,0.3,0.2,0.6,0.3,0.9c0.1,0.7,0.2,1.3,0.8,1.7c0.1,0.1,0.2,0.2,0.3,0.4c0.4,0.6,0.8,1.2,1.3,1.7c0.4,0.4,0.9,0.7,1.3,1.1
			c0.3,0.3,0.6,0.7,1,0.8C226.1,91.1,227.2,91.2,228.3,91.4z M229.5,43.4c0.4-1.8,0.9-3.5,1.3-5.3c0.3-1.1,0.6-2.1,0.9-3.2
			c0.2-1,0.4-2,0.5-3c0.1-0.6-0.2-0.9-0.8-0.7c-0.9,0.2-1.7,0.5-2.6,0.7c-0.1,0-0.3,0.1-0.3,0.2c-0.3,0.7-0.6,1.3-0.9,2
			c-0.1,0.4-0.1,0.8-0.2,1.2c-0.3,1-0.7,2.1-1,3.1c-0.2,0.8-0.2,1.7-0.4,2.5c-0.2,1-0.6,2-0.9,3c-0.1,0.2,0,0.5-0.1,0.7
			c0,0.2-0.1,0.6-0.2,0.7c-0.5,0.1-0.5,0.5-0.6,0.8c-0.3,0.6,0.1,1.3-0.3,1.9c-0.2,0.2-0.2,0.6-0.2,0.9c0,0.7,0.2,1.4-0.3,2.1
			c-0.1,0.1,0,0.2,0,0.4c0,0.1,0,0.2,0,0.3c-0.8,1.3-0.4,2.1,1,2.5c0.1,0,0.2,0.1,0.2,0.1c1.5,0.4,2.5-0.3,2.7-1.9
			c0.1-0.7,0.2-1.5,0.3-2.2c0.2-1.1,0.5-2.1,0.8-3.2c0.8-0.1,1.7-0.2,2.5-0.2c0.8,0,1.5-0.2,2.3,0.3c-0.1,0.4-0.1,0.8-0.2,1.3
			c-0.1,0.8-0.3,1.6-0.4,2.4c-0.1,0.5,0.1,1,0,1.4c-0.4,0.9,0.1,1.8,1.1,1.8c0.7,0,1.5-0.1,2.2-0.1c1,0,1.5-0.4,1.4-1.4
			c0-0.2,0-0.4,0.1-0.6c0.1-0.8,0.3-1.5,0.4-2.3c0.1-1.4,0.2-2.7,0.3-4.1c0.1-0.8,0.2-1.5,0.3-2.3c0.3-1.8,0.5-3.5,0.8-5.3
			c0.1-0.7,0.4-1.5,0.6-2.2c0.4-1.3,0.7-2.6,1.1-3.9c0.3-0.8,0.1-1.4-0.5-1.7c-0.7-0.4-3.1,0.2-3.4,1.2c-0.2,0.7-0.4,1.3-0.4,2
			c0,1-0.3,2-0.5,3c0,0.2-0.2,0.4-0.4,0.7c0.1,0.1,0.4,0.3-0.1,0.5c-0.1,0-0.1,0.4-0.1,0.5c0,0.2,0,0.5,0,0.7
			c-0.1,0.4-0.2,0.8-0.3,1.2c-0.1,0.5-0.3,1.1-0.4,1.6c-0.1,0-0.1,0-0.2,0c0.1,0.2,0.2,0.3,0.3,0.5c-0.2,0.4-0.6,0.7-0.6,1.1
			c0,0.7-0.4,0.7-0.9,0.7c-0.6,0-1.3,0.2-1.9-0.1c-0.1-0.1-0.3,0-0.5,0.1c-0.2,0.2-0.4,0.2-0.7,0.1
			C230.1,43.5,229.7,43.5,229.5,43.4z M295.4,63.7c0,0,0-0.1,0-0.1c-0.2-1.1-0.5-2.2-0.7-3.3c0-0.2-0.3-0.4-0.5-0.4
			c-1,0-2,0-2.9,0.2c-2.4,0.4-4.9,0.9-7.3,1.4c-0.3,0.1-0.5,0-0.8,0.1c-1.4,0.2-2.7,0.5-4.1,0.7c-1.1,0.1-2.3,0.3-3.5,0.2
			c-0.7,0-1.3-0.1-1.9,0.3c0.3,1.5,0.5,2.9,0.8,4.4c0.5,0,1.1,0,1.7,0c0.4,0,0.8-0.2,1.1-0.3c0.8-0.1,1.6,0,2.4-0.1
			c0.8,0,1.5-0.2,2.3-0.2c0.5,0,0.8,0.3,0.7,0.8c0,0.1-0.1,0.3-0.1,0.4c0,1.8,0,3.6,0.1,5.4c0,0.8,0.1,1.7,0.1,2.5
			c0,0.9,0.1,1.8,0.1,2.7c0,2.4,0,4.9,0,7.3c0,1.1,0.8,1.9,2,1.8c0.7-0.1,1.5-0.4,2.2-0.7c0.2-0.1,0.4-0.4,0.4-0.7
			c0.1-0.8,0-1.6,0-2.4c0-1.4,0.1-2.8,0.1-4.3c0-1,0-2-0.1-3c0-0.7-0.2-1.4-0.2-2.2c0-1.6,0.1-3.3,0.2-4.9c0-0.9-0.1-1.7-0.1-2.6
			c0-1,0-1.1,1-1.3c0.4-0.1,0.8-0.1,1.2-0.2c1-0.2,1.9-0.4,2.9-0.6C293.4,64.3,294.4,64,295.4,63.7z M228,110.7
			c-0.1-0.6-0.2-1.1-0.2-1.5c0-0.8,0-1.6,0-2.3c0-0.4,0.3-0.6,0.7-0.6c2.2,0.1,4.5,0.3,6.7,0.3c1.6,0.1,1.6,0,2.1-1.5
			c0.7-2-0.2-3.3-2.2-3.4c-3.8-0.1-7.7-0.3-11.5-0.5c-0.9,0-1.3,0.3-1.3,1.1c0,0.3,0,0.5,0.1,0.8c0.2,1.5,0.5,2.9,0.8,4.4
			c0.2,1.3,0.5,2.7,0.8,4c0.1,0.6,0.3,1.2,0.4,1.8c0.1,1.1,0.3,2.2,1,3.2c0,0.2-0.1,0.4-0.1,0.7c0,0.4,0.2,0.7,0.2,1.1
			c0.1,0.4,0.1,0.9,0.3,1.3c0.3,0.5,0.6,1,1.1,1.2c2.1,0.8,4.4,0.8,6.7,1.1c1.5,0.2,2.9,0.1,4.4,0.1c0.9,0,1.1-0.1,1.2-1
			c0-0.1,0-0.2,0-0.4c0.1-0.5,0.1-1.1,0.2-1.7c-0.9,0-1.6,0-2.4,0c-2.3,0-4.6-0.2-6.8-0.8c-0.5-0.2-1-0.4-1-1
			c-0.1-0.5-0.1-1.1-0.1-1.7c0-0.9,0.2-1,1-1c1.8,0.1,3.5,0.2,5.3,0.2c0.5,0,1.1-0.1,1.6-0.3c0.3-0.1,0.5-0.6,0.7-0.9
			c0.1-0.3,0.1-0.6,0.1-0.9c0-0.9-0.3-1.3-1.2-1.3c-1.5-0.1-3-0.1-4.5-0.2C230.7,110.9,229.4,110.8,228,110.7z M252.5,47.4
			c0.1,0.4,0.1,0.9,0.2,1.4c0.2,1,0.5,2,0.8,3c0,0.2,0,0.5-0.1,0.7c-0.2,0.4,0,0.7,0.4,0.8c1.1,0.4,2,0.1,2.9-0.5
			c0.1-0.1,0.3-0.2,0.3-0.4c0.2-0.9,0.2-1.8,0-2.6c-0.3-1.1-0.6-2.2-0.9-3.4c-0.5-2.2-1-4.3-1.3-6.5c-0.5-3.1-1.3-6.2-2.4-9.1
			c-0.3-0.8-0.8-1.4-1.7-1.5c-1.1-0.1-2.1-0.1-3.2-0.1c-0.5,0-1,0.4-1.5,0.7c-0.6,0.5-0.8,1.1-0.9,1.9c-0.2,1.3-0.4,2.6-0.7,4
			c-0.1,0.5-0.2,1-0.3,1.5c-0.1,0.5-0.3,1.1-0.4,1.6c-0.2,1.2-0.5,2.4-0.7,3.6c-0.2,1.1-0.4,2.1-0.6,3.2c-0.1,0.6-0.2,1.2-0.3,1.9
			c-0.2,1-0.5,2.1-0.7,3.1c-0.5,2.7,0.4,3,2.5,2.8c0.1,0,0.2,0,0.2,0c0.2-0.2,0.4-0.3,0.5-0.5c0.1-0.3,0.1-0.7,0.1-1
			c0.3-1.3,0.6-2.5,0.9-3.8c0.1-0.3,0.2-0.5,0.5-0.5c1.4-0.1,2.7-0.2,4.1-0.3C251,47.4,251.6,47.4,252.5,47.4z M264.7,85.5
			c0-0.7-0.1-1.5-0.1-2.3c-0.1-2.3-0.2-4.7-0.2-7c0-1.3,0-2.7-0.1-4c0-1.7,0-3.4-0.1-5.1c0-0.7,0-1.3-0.1-2c0-0.7,0-1.4-0.1-2.1
			c0-0.4-0.4-0.6-0.8-0.5c-0.6,0-1.2,0.1-1.7,0.2c-0.5,0.1-0.9,0.1-1.4,0.3c-0.5,0.2-0.9,0.4-0.6,1.1c0.2,0.4,0.2,0.9,0.2,1.3
			c0,0.7-0.1,1.4-0.1,2.1c-0.1,1.2-0.2,2.3-0.2,3.5c0,1.9,0,3.9-0.1,5.8c0,0.4-0.2,0.7-0.2,1.1c0.1,1.1,0.2,2.1,0.3,3.2
			c0.1,1.2,0,2.4,0,3.5c0,0.4-0.2,0.8-0.2,1.2c0,0.7,0,1.3,0,2c0,1.1,0.1,2.1,0.2,3.2c0.1,0,0.1,0.1,0.2,0.1c1.1-0.2,2.3,0,3.3-0.6
			c0.1,0,0.2-0.1,0.2,0c0.9,0.4,1.6,0,2.4-0.4c0.4-0.2,0.8-0.3,1.2-0.4c1.1-0.2,2.1-0.3,3.2-0.5c1.3-0.2,2.6-0.5,3.9-0.7
			c0.3-0.1,0.6,0.1,1,0.1c0.6,0,1.2,0,1.7-0.2c0.1,0,0.1-0.7,0.1-1c0-0.2,0-0.3,0-0.5c0-0.7,0-1.3,0-1.9c0-0.2-0.2-0.6-0.3-0.6
			c-0.6,0-1.2-0.6-1.8-0.2c-0.4,0.2-0.7,0.3-1.1,0.1c-0.1-0.1-0.4,0.1-0.6,0.2c-0.5,0.3-1,0.8-1.7,0.6c-0.2-0.1-0.4,0-0.6,0
			c-0.8,0.1-1.6,0.2-2.3,0.3C267.2,85.2,266.1,85.3,264.7,85.5z M261.7,38.5c0.1,0.3,0.2,0.7,0.3,1c0.6,0.9,1.1,1.9,1.3,3
			c0,0.1,0.1,0.1,0.2,0.2c0.2,0.2,0.4,0.4,0.5,0.7c0.2,0.6,0.7,0.5,1.1,0.5c0.2,0,0.5-0.3,0.6-0.5c0.2-0.7,0.3-1.5,0.5-2.3
			c0.1-0.5,0.2-1,0.4-1.5c0.1,0,0.2,0,0.2,0c0.1,0.3,0.3,0.6,0.3,1c0.6,3.3,1.2,6.6,1.8,9.9c0.2,0.9,0.4,1.1,1.2,1
			c0.5-0.1,1-0.1,1.4-0.3c0.2-0.1,0.5-0.3,0.5-0.5c0-1-0.1-2.1-0.3-3.1c-0.2-1.2-0.6-2.3-0.8-3.4c-0.1-0.4-0.1-0.8-0.1-1.3
			c-0.2-1.1-0.4-2.2-0.7-3.2c-0.4-1.7-0.8-3.4-1.3-5.1c-0.4-1.1-1.4-1.6-2.5-1.7c-0.5,0-0.8,0.2-1,0.7c-0.4,0.9-0.9,1.7-1.3,2.5
			c-0.2-0.2-0.6-0.4-0.9-0.7c-0.6-0.6-1.1-1.2-1.7-1.8c-0.1-0.1-0.3-0.2-0.4-0.4c-0.3-0.3-0.5-0.6-0.8-0.8c-0.2-0.2-0.6-0.1-0.8-0.3
			c-0.6-0.4-1.3-0.3-1.8,0c-0.6,0.3-0.4,0.9-0.3,1.4c0.4,2.4,0.8,4.7,1.2,7.1c0.5,2.7,0.9,5.3,1.4,8c0.2,1.3,0.4,2.6,0.6,4
			c0.7-0.1,1.4-0.1,2.1-0.2c0.5,0,0.7-0.3,0.6-0.8c-0.1-0.7-0.2-1.5-0.3-2.2c-0.2-1.4-0.5-2.7-0.7-4.1c-0.1-0.9-0.3-1.9-0.4-2.8
			c-0.2-1.4-0.3-2.8-0.5-4.2C261.4,38.4,261.6,38.4,261.7,38.5z M247.8,92c0.5-0.2,1.2-0.4,1.8-0.6c0.8-0.2,1.2-0.8,1.3-1.6
			c0.1-1.1,0.2-2.2,0.1-3.3c0-1.3-0.1-2.6-0.2-3.9c-0.1-1.8-0.2-3.5-0.2-5.3c0-1.3,0-2.6-0.1-3.8c0-0.7-0.2-1.4-0.1-2
			c0.2-1.3,0.1-2.6,0.1-3.9c0-0.9,0-1.8,0.1-2.7c0.1-0.7-0.1-1-0.8-1c-1,0.1-2,0.1-3,0.2c-0.6,0.1-1,0.4-1.1,1.1
			c-0.2,1.3-0.3,2.6-0.4,3.9c0,0.7,0,1.3,0,2c0,0.7,0.2,1.4,0.2,2.1c0,1.6-0.1,3.2-0.2,4.7c-0.1,1.7,0.3,3.5-0.1,5.2
			c-0.1,0.5,0.1,1,0.1,1.5c0,0.7,0.1,1.4,0.1,2.1c0.1,1,0.2,2,0.3,3.1c0,0.3,0,0.7-0.1,1c-0.3,0.5,0,0.8,0.3,0.9
			C246.6,91.8,247.1,91.9,247.8,92z M271.2,115.4c0.3-0.1,0.7-0.2,1-0.3c0.9-0.2,1.9-1.3,1.8-2.4c0-0.3,0.1-0.7,0.2-1
			c0.2-0.5,0.1-1.1,0.6-1.5c0.1,0,0-0.2,0-0.4c0-0.1,0.1-0.3,0.1-0.4c0.5-0.9,1.5-1.1,2.4-1.3c0.1,0,0.4,0.2,0.4,0.3
			c0,0.6,0,1.2,0.5,1.7c0.1,0.1,0,0.2,0,0.3c0,0.3-0.1,0.9,0,1c0.5,0.2,1.2,0.5,1.6,0.3c0.5-0.2,0.9-0.9,1.3-1.4
			c0.1-0.1,0-0.3,0-0.5c0-0.5-0.1-1-0.1-1.5c0-0.5,0.3-1.1,0.3-1.6c0.1-0.9,0.4-1.6,1-2.2c0.4-0.3,0.7-0.7,1-1.1
			c0.4-0.6,0.7-1.3,0.9-2c0.1-0.5,0.2-1.1,0-1.5c-0.7-1.4-2.1-1.5-3.3-1.5c-1.5,0-3.1,0.4-4.6,0.7c-1.2,0.2-2.4,0.6-3.6,0.9
			c-0.1,0-0.2,0-0.4,0c-0.9-0.1-1.8,0.9-1.6,1.8c0.1,0.3,0.4,0.6,0.4,0.9c0,0.9-0.1,1.9-0.2,2.8c-0.1,0.7-0.5,1.4-0.2,2.2
			c0,0.1,0,0.2-0.1,0.3c-0.1,0.6-0.2,1.2-0.3,1.7c-0.1,0.8,0.3,1.6-0.4,2.3c0,0,0,0.1,0,0.1c0.1,0.6,0.2,1.2,0.3,1.8
			c0,0.2,0,0.3,0,0.5C270.4,115.1,270.6,115.3,271.2,115.4z M210,103.1c0.2,0,0.3-0.1,0.4-0.1c1.4,0.1,2.8,0.2,4.2,0.3
			c0.3,0,0.6,0,0.8-0.5c0.3-0.6,0.3-1.1,0.3-1.7c0-0.7-0.1-1-0.7-1.1c-1.2-0.2-2.3-0.3-3.5-0.5c-1.9-0.3-3.8-0.5-5.7-0.8
			c-0.6-0.1-1.1,0.2-1.1,0.6c0,0.5,0,1,0.1,1.5c0.2,1.1,0.4,2.2,0.6,3.3c0.3,1.2,0.5,2.5,0.8,3.7c0.4,1.3,1,2.4,1.5,3.7
			c0.7,1.7,2.2,2.1,3.8,2.5c0.5,0.1,0.7-0.3,0.5-0.8c-0.1-0.2-0.1-0.4-0.2-0.6c-0.4-1.4-0.4-2.9-1.3-4.3c0.3,0,0.5,0,0.7,0
			c1,0,2,0.1,3,0.1c0.3,0,0.7-0.2,0.8-0.4c0.3-0.7,0.4-1.5,0.6-2.3c-0.4,0-0.6,0-0.9,0c-1.2,0-2.4-0.1-3.5-0.1c-0.7,0-1-0.4-1.1-1
			C210.2,104.2,210.1,103.7,210,103.1z M214.3,42.8C214.3,42.8,214.3,42.8,214.3,42.8c0,1.2,0.1,2.3,0,3.5c-0.1,1.7-1.4,2-2.6,1.5
			c-0.5-0.2-1-0.4-1.5-0.6c-0.8-0.3-1.4,0.1-2,1.2c-0.4,0.7-0.4,0.7,0.5,1.4c0.1,0.1,0.1,0.1,0.2,0.2c0.7,1.1,1.8,1.2,2.9,1.5
			c1,0.3,2,0.3,3-0.1c1-0.4,1.7-1,2.1-1.8c0.9-1.9,0.9-3.9,0.7-5.9c-0.1-1.2-0.2-2.4-0.2-3.6c0-0.8,0.8-1.9,1.5-2
			c0.8-0.1,1.4,0.3,1.8,1.1c0,0.1,0.1,0.2,0.2,0.2c0.5,0,1,0,1.4-0.2c0.4-0.3,0.6-0.9,0.4-1.4c-0.9-1.8-2.6-2.9-4.5-2.3
			c-2.3,0.7-3.7,2-3.8,4.7C214.3,41,214.3,41.9,214.3,42.8z M276.3,38.7c0.4,0,0.7,0.1,1,0.1c0.7,0.1,1.4,0.2,2.1,0.3
			c0.2,0,0.5,0,0.5-0.1c0.1-0.2,0.1-0.5-0.1-0.7c-0.4-0.6-0.8-1.1-1.3-1.6c-0.2-0.2-0.7-0.3-1.1-0.4c-0.2,0-0.4,0-0.6,0
			c-0.8-0.1-1.6-0.4-2.4-0.4c-1.9-0.1-1.9,0-1.7,1.9c0,0.1,0,0.2,0.1,0.3c0.3,1.5,0.7,2.9,0.9,4.4c0.2,1.1,0.4,2.2,0.6,3.4
			c0.2,1.3,0.5,2.6,0.9,3.9c0.4,1.3,1.6,2,2.9,1.6c1-0.3,2.1-0.5,3.1-0.6c0.7-0.1,1-0.4,1-1.1c0-0.6-0.3-1.1-0.1-1.7
			c0.1-0.4-0.2-0.6-0.7-0.5c-0.9,0.2-1.9,0.3-2.8,0.4c-0.8,0-1.2-0.4-1.3-1.2c-0.1-0.4-0.1-0.7-0.2-1.1c-0.2-0.7,0-1,0.8-1
			c0.8,0,1.5,0.1,2.3,0.1c1.5,0,1.6-0.1,1.1-1.5c0-0.1-0.1-0.2-0.1-0.2c0-0.6-0.3-0.7-0.8-0.6c-1,0-2,0-2.9,0
			c-0.4,0-0.7-0.1-0.7-0.5C276.7,40.8,276.5,39.8,276.3,38.7z M129.6,70c-0.3-0.3-0.6-0.5-0.8-0.7c-1-0.9-1.9-1.9-2.8-2.8
			c-0.3-0.3-0.9-0.4-1.2-0.2c-0.3,0.2-0.5,0.3-0.8,0.4c-0.4,0.2-0.8,0.3-1.2,0.4c-0.6,0.2-1.3,0.6-1.9,0.6c-1.9,0.2-3.7-0.1-5.5-1.1
			c0.1,0.6,0.2,1.1,0.3,1.6c0.3,1.1,0.7,2.2,1,3.3c0.2,1,0.3,1.1,1.2,0.7c0.8-0.3,1.6-0.3,2.4-0.3c1.3,0,2.6-0.1,3.8-0.3
			c1.1-0.2,2.2-0.6,3.3-0.9C128,70.6,128.7,70.3,129.6,70z M105.7,60.3c-0.4,0-0.7,0.1-0.9,0.1c-0.5,0-0.9-0.1-1.4-0.1
			c-0.7,0-1.3,0.2-2,0.2c-2.2,0.1-4.5,0.2-6.7,0.2c-0.6,0-0.7,0.3-0.7,0.7c0,0.9-0.3,1.9-0.1,2.8c0.1,0.4,0.2,0.6,0.5,0.6
			c0.6,0,1.1,0,1.7,0c1.1,0.1,2.2,0.2,3.4,0.3c1.4,0.1,2.7,0.1,4.1,0.1c0.7,0,1.4,0.1,2.1,0.1c-0.1-0.6-0.3-1.1-0.2-1.6
			C105.4,62.7,105.6,61.5,105.7,60.3z M134.4,70.5c0.8,0.1,1.7,0.3,2.6,0.5c0.5,0.1,1.2,0.3,1.4,0.7c0.9,1.4,1.7,3,2.6,4.5
			c0.5,0.8,0.9,1.7,1.4,2.5c0.5,0.7,1.1,1.4,1.6,2.1c0.5,0.6,0.9,1.3,1.4,2c0.1,0.1,0.3,0.2,0.4,0.2c0.5-0.2,1-0.5,1.4-0.7
			c-0.4-0.8-0.9-1.4-1.2-2.1c-0.8-1.7-1.8-3.3-2.4-5c-0.9-2.4-2-4.7-3.5-6.8c-0.5-0.7-1.1-1.3-1.7-1.9c-0.7,0.8-1.3,1.5-1.9,2.1
			C135.7,69.2,135,69.9,134.4,70.5z M183.7,102.5c0.5,0,0.9,0.1,1.3,0c1-0.2,2.1-0.4,3.1-0.8c1-0.4,1.8-1.1,2.7-1.7
			c0.3-0.2,0.6-0.4,0.4-0.8c-0.4-0.9-0.7-1.8-1.1-2.7c-0.2-0.4-0.4-0.9-0.7-1c-0.7-0.2-1.5-0.5-2.2-0.1c-0.4,0.2-0.8,0.4-1.2,0.5
			c-1,0.4-2,0.8-2.7,1.7c-0.3,0.4-0.7,0.8-0.9,1.1c0.3,0.7,0.7,1.2,0.9,1.8C183.5,101.2,183.5,101.8,183.7,102.5z M92.2,64.6
			c0-1.3,0.3-2.5-0.1-3.9c-1.7,0.1-3.4,0.3-5.1,0.4c-1.1,0.1-2.2,0.3-3.3,0.4c-0.9,0.1-1.9-0.1-2.8,0.6c0.5,0.3,1,0.5,1.5,0.8
			c-0.1,0.3,0,0.7,0.6,0.8c1.3,0.1,2.6,0.1,3.9,0.1c0.6,0,1.2,0,1.8,0.1c-0.1,0.5-0.2,0.8-0.3,1.2c-0.1,0.4,0,0.7-0.1,1.1
			c-0.2,0.6,0,0.9,0.7,1.2c0.2-0.5,0.4-1,0.7-1.4c0.3-0.5,0.7-1,1.2-1.4c0.2-0.1,0.6,0.1,0.9,0.2C92.1,64.7,92.1,64.6,92.2,64.6z
			 M178.6,102.7c1.1,1.8,1.4,2,3.3,2.7c1.2,0.4,2.5,0.8,3.8,0.6c0.6-0.1,1.2-0.4,1.9-0.5c0.7-0.1,1.3-0.1,1.9-0.4
			c0.8-0.5,1.8-0.9,2.6-1.5c0.3-0.3,0.6-0.8,0.6-1.3c0-0.3-0.3-0.7-0.4-1.1c-0.4,0.2-0.6,0.3-0.9,0.5c-0.6,0.5-1.2,0.9-1.8,1.4
			c-1,0.7-2.2,1.1-3.5,1.2c-1.1,0.1-2.2,0.2-3.2-0.2c-0.3-0.1-0.6-0.3-0.8,0.1c0,0.1-0.3,0-0.4,0c-0.4-0.3-0.9-0.6-1.3-1
			C179.7,102.4,179.4,102.3,178.6,102.7z M110.2,65.6c-0.2-0.5-0.4-1-0.5-1.4c-0.2-1-0.3-2-0.4-3c-0.1-0.9-0.3-1-1.2-0.9
			c-0.2,0-0.4,0-0.6,0c-0.5,0-0.8,0.3-0.7,0.7c0.1,0.8,0.2,1.5,0.4,2.3c0,0.2,0.1,0.4,0,0.5c-0.2,0.6,0.6,1.9,1.2,1.9
			C109,65.7,109.5,65.6,110.2,65.6z M189.3,94.1c0.1,0,0.1-0.1,0.2-0.1c-0.2-0.3-0.3-0.7-0.6-0.9c-0.6-0.6-3.3-0.5-4.1,0.1
			c-0.4,0.3-0.9,0.6-1.3,0.9c-1,0.9-2,1.8-3,2.8c-0.2,0.2-0.2,0.5-0.3,0.7c0.8,0.2,1.2,0,1.6-0.6c0.4-0.5,0.9-1,1.4-1.3
			c0.7-0.4,1.5-0.7,2.2-1.1C186.6,93.9,187.9,93.9,189.3,94.1z M180.6,99.5c0-0.1,0-0.1,0-0.2c-0.2,0.1-0.5,0-0.6,0.2
			c-0.6,0.6-1.4,0.5-2,0.5c-1.2,0.1-2.3,1.3-2,2.5c0,0.2,0,0.3-0.1,0.5c-0.3,0.8-0.1,1.4,0.6,1.9c0.4-0.6,0.5-1.2,0.3-1.9
			c-0.1-0.2-0.2-0.5,0-0.7c0.8-1.2,1.5-1.7,3.2-1.1c0.8,0.3,1.3,0.8,1.8,1.4c0.1,0.1,0.3,0.2,0.4,0.1c0.1,0,0.3-0.2,0.3-0.3
			c0.1-1-0.4-2.2-1.3-2.5C180.9,99.8,180.7,99.6,180.6,99.5z M149.1,122.6c1,1,1.2,1,2.2,0.3c0.4-0.2,0.7-0.5,1.1-0.6
			c0.7-0.3,1.4-0.5,2-0.8c1.2-0.6,1.4-1.2,0.7-2.1c-0.3-0.4-0.8-0.4-1.3,0c-0.9,0.6-1.8,1.2-2.6,1.8
			C150.5,121.7,149.8,122.1,149.1,122.6z M159.3,119c0.4,0.7,0.6,0.9,1,0.7c0.7-0.2,1.5-0.4,2.2-0.7c2.1-0.8,2.3-2.8,2-4.3
			c-0.1-0.3-0.3-0.5-0.4-0.7c-0.1,0-0.1,0-0.2,0.1C163.4,116.8,162.2,118.8,159.3,119z M165.7,115.5c2,0.1,4-1.8,3.5-4.5
			c0-0.2-0.3-0.3-0.5-0.5c-0.1,0.2-0.4,0.4-0.4,0.6c-0.1,1.3-0.6,2.2-1.8,2.7c-0.3,0.1-0.6,0.3-0.9,0.4
			C165.5,114.6,165.6,115.1,165.7,115.5z M164.2,110.9c-1.3-0.1-2,0.4-2.5,1.4c-0.5,1-0.4,2.1-0.3,3.2c0,0.2,0.4,0.4,0.6,0.4
			c0.1,0,0.3-0.2,0.4-0.3c0.2-0.4,0.4-0.9,0.4-1.4C163.1,113.1,163.1,111.9,164.2,110.9z M172.8,106.5c-0.4,1-0.6,1.9-1,2.6
			c-0.4,0.8-1.2,1.3-2.2,1.4c0.1,0.5,0.2,1,0.3,1.5c1.1-0.2,2.4-1.6,2.9-2.5c0.2-0.4,0.3-0.9,0.5-1.2c0.4-0.4,0.3-0.8,0.1-1.2
			C173.3,106.9,173,106.7,172.8,106.5z M166.9,111.8c0.2-0.9,0.4-1.6,0.5-2.4c0.1-0.9,0.6-1.5,1.4-1.9c0.2-0.1,0.2-0.3,0.4-0.5
			c-0.2-0.1-0.5-0.3-0.6-0.2c-0.5,0.3-1,0.6-1.4,0.9c-1,0.8-1.4,2.2-0.8,3.4C166.4,111.3,166.6,111.5,166.9,111.8z M171.4,108.4
			c0.4-2,0.8-4,3.5-4c-0.2-0.3-0.3-0.7-0.5-0.7c-0.6-0.1-1.8,0.2-2.2,0.8c-0.3,0.4-0.6,0.8-0.9,1.2
			C170.5,106.4,170.5,107.5,171.4,108.4z M177.7,104.4c-0.8,1.3-1.4,2.7-3.1,3.1c-0.1,0-0.2,0.4-0.2,0.6c0,0.1,0.3,0.2,0.4,0.2
			c1-0.1,1.8-0.5,2.3-1.4c0.2-0.3,0.3-0.8,0.6-1C178.5,105.4,178.5,104.9,177.7,104.4z M161.5,117.4c-0.2-0.2-0.3-0.3-0.5-0.5
			c-0.3-0.5-0.7-0.6-1.2-0.4c-0.5,0.2-1,0.5-1,1.1c0,0.4,0.1,0.6,0.5,0.6C160.2,118.2,160.9,117.9,161.5,117.4z M157.9,117.4
			c0.5-1.1,1.3-1.8,2.4-1.8c0-0.5-0.1-0.7-0.5-0.6c-0.9,0.2-1.8,0.5-2.4,1.2C156.9,116.7,157.2,117.3,157.9,117.4z M169.5,108.1
			c-0.6,0.1-1,0.4-1.2,1c0,0.1,0,0.4,0.1,0.4c0.4,0.2,1.6-0.1,1.9-0.4C170.1,108.9,169.8,108.5,169.5,108.1z M175.6,105.9
			c-0.5-0.6-1.4-0.7-2.1-0.1C174.6,106.8,174.9,106.9,175.6,105.9z M164.9,111.5c-0.3,0.4-0.6,0.8-0.9,1.1c1,0.5,1.2,0.5,1.6-0.1
			C165.4,112.2,165.2,111.9,164.9,111.5z M135.7,72.7C135.7,72.7,135.7,72.7,135.7,72.7C135.7,72.8,135.8,72.8,135.7,72.7
			C135.8,72.7,135.8,72.7,135.7,72.7C135.8,72.7,135.8,72.7,135.7,72.7z"/>
		<path style="fill:#060606;" d="M53.2,70.3c0,1.4,0,2.8,0,4.2c0,0.7,0,1.4,0.1,2.2c0.1,1.7,0.2,3.4,0,5.1c-0.2,1.5,0,3,0,4.5
			c-0.1,1.6-0.2,3.1-0.3,4.6c0,0.5,0.1,1,0.1,1.5c0,0.6-0.2,1.2-0.3,1.8c0,0.2,0,0.5,0,0.6c0.6,1.1,0.9,2.3,0.3,3.5
			c-0.2,0.4-0.5,0.8-0.8,1.2c-0.1-0.1-0.2-0.1-0.3-0.2c0.2,0.2,0.4,0.4,0.6,0.6c0.8,0.8,1.4,1.8,0.8,2.9c-0.2,0.5-0.7,1-1.2,1.3
			c-0.5,0.4-0.8,0.8-0.6,1.4c0,0.1,0,0.2,0.1,0.4c0.1,0.9,0.3,1,1.2,1c1.3-0.1,2.6-0.1,3.9,0.3c0.5,0.2,0.8,0.4,0.8,0.9
			c0,0.1,0,0.2,0,0.3c0.1,1.2,0.2,1.3,1.4,1.3c0.2,0,0.5-0.3,0.5-0.4c0.1-0.6,0.1-1.1,0-1.7c-0.1-0.6,0.2-0.9,0.6-1.1
			c1.4-0.4,2.9-0.4,4.4-0.1c0.2,0,0.5,0.2,0.7,0.3c1.3,0.5,1.6,0.9,1.5,2.4c0,0.7,0,1.3,0,2c0,1.1-0.5,1.6-1.6,1.8
			c-0.3,0.1-0.7,0.1-1,0.2c-0.9,0.3-0.9,0.5-0.8,1.4c0.1,0.8,0.7,0.7,1.1,0.8c0.2,0.1,0.5,0.1,0.7,0.1c1,0.2,1.2,0.5,1.2,1.5
			c0,0.3,0,0.7,0,1c-0.1,0.9-0.1,1.9-0.3,2.8c-0.1,0.5-0.7,0.9-1.1,1.2c-0.5,0.4-1.1,0.6-1.7,0.9c-0.6,0.3-1.8-0.1-2.2-0.8
			c-0.2-0.5-0.6-0.6-1-0.5c-0.1,0-0.2,0.1-0.3,0c-1.3,0-1.3,0-1.6,1.1c-0.1,0.4-0.3,0.8-0.4,1.2c-0.1,0.9-0.8,1.1-1.5,1.3
			c-1.1,0.3-2.2,0.5-3.2,0.7c0,0-0.1,0-0.1,0c-0.8-0.3-1.1,0.4-1.6,0.8c-0.8,0.8-1.7,1.5-2.6,2.1c-0.5,0.3-1.2,0.4-1.7,0.4
			c-1.3,0-2.7,0.1-4-0.4c-1.5-0.5-2.3-1.7-2.4-3.2c-0.1-1.7-0.1-3.3-0.2-5c0-1.8-0.1-3.7,0-5.5c0-1.3,0.2-2.7,0.3-4
			c0.1-1,0.1-2,0.1-2.9c0-1.1,0-2.3,0-3.4c0-0.9-0.3-1.5-0.9-2c-0.6-0.5-0.7-1.2-0.8-1.8c-0.1-0.8,0.1-1.7,0.2-2.5
			c0.1-0.5,0.3-1,0.3-1.5c0-0.6-0.1-1.2-0.2-1.9c-0.4,0.5-0.8,1-1.2,1.6c-0.5,0.8-1,1.6-1.5,2.3c-1,1.3-2,2.5-3,3.7
			c-0.2,0.3-0.5,0.4-0.7,0.7c-1,1.4-1.9,2.8-3,4.2c-0.6,0.8-1.3,1.6-2.1,2.3c-0.6,0.6-1.4,0.9-2.3,0.8c-0.5-0.1-1.1-0.1-1.6-0.1
			c-1.5,0-2.7-0.6-4-1.3c-0.6-0.3-1.3-0.5-1.9-0.8c-1.2-0.5-2.4-1.1-3.6-1.6c-0.2-0.1-0.4-0.3-0.5-0.4c-0.7-0.8-1.5-1.5-2.1-2.3
			c-1.8-2.4-3.8-4.6-4.2-7.8c-0.1-0.8,0-1.6,0.5-2.3c0.2-0.3,0.3-0.8,0.5-1c0.7-0.9,1.5-1.7,2.3-2.6c0.6-0.7,1.2-1.5,1.9-2.2
			c0.4-0.5,0.9-0.9,1.3-1.4c0.4-0.6,0.8-1.2,1.3-1.8c0.5-0.6,1.2-1.2,1.7-1.8c0.5-0.5,0.8-1.1,1.3-1.6c0.7-0.8,1.5-1.5,2.3-2.3
			c0.3-0.3,0.5-0.7,0.7-1.1c0.3-0.5,0.5-1.1,0.9-1.6c0.7-0.9,1.3-2,2.6-2.4c0.5-0.2,0.9-0.7,1.4-1c0.3-0.2,0.7-0.3,1-0.4
			c1.1-0.2,2.3-0.4,3.4-0.7c0.9-0.2,1.8-0.4,2.7-0.5c2.1-0.4,4.1-0.7,6.2-1.1c0.2,0,0.5-0.3,0.5-0.5c0.3-0.6,0.5-1.2-0.1-1.8
			c-0.1-0.1-0.1-0.3-0.1-0.4c-0.1-1.8,0.1-3.4,1.4-4.7c0.2-0.2,0.4-0.6,0.4-0.9c0.1-0.9,0.1-1.8,0.1-2.8c0-0.8-0.4-1.1-1.2-1.3
			c-1.8-0.5-3.7-0.9-5.4-1.5c-1.7-0.6-3-1.7-3.9-3.2c-0.7-1.1-1.3-2.3-1.8-3.5c-0.5-1.3-0.4-2.6-0.2-4c0.1-0.6,0.1-1.3,0.3-1.8
			c0.4-1,0.8-2,1.4-2.8c0.6-0.9,1.5-1.6,2.3-2.2c0.7-0.5,1.4-0.9,2.2-1.3c0.7-0.4,1.5-0.7,2.3-1c0.4-0.2,0.8-0.2,1.2-0.4
			c0.7-0.2,1.3-0.4,2.1-0.7c-0.6-0.5-1-1.1-1.6-1.5c-0.3-0.3-0.8-0.5-1.2-0.7c-0.2-0.1-0.5-0.4-0.7,0.1c0,0.1-0.6-0.1-1-0.2
			c0-0.1,0-0.2,0.1-0.4c-0.1,0-0.1,0-0.2,0c-0.3,0.5-0.7,0.2-1,0c-0.8-0.4-1.6-0.9-2.3-1.5c-1.5-1.3-3.3-2.2-4-4.2
			c-0.1-0.3-0.4-0.6-0.6-1c-0.1-0.1-0.2-0.2-0.2-0.2c-0.7,0.1-1.4,0.1-2,0.2c-0.3,0.1-0.5,0.5-0.7,0.8c-1,1.1-2.3,1.9-3.7,2.3
			c-1,0.3-2,0.8-3,1.2c-0.8,0.3-1.5,0.6-2.3,0.9c-0.2,0.1-0.5,0.3-0.7,0.4c-1.3,0.5-2.6,1.1-3.9,1.6c-0.6,0.3-1.2,0.6-1.9,0.8
			c-0.3,0.1-0.7,0-1,0c-0.2,0-0.5-0.1-0.7-0.2c-0.2-0.1-0.3-0.1-0.5-0.2c0.1-0.2,0.2-0.4,0.3-0.5c0.1-0.1,0.2-0.2,0.3-0.3
			c-0.8-1.4-0.4-2.9-0.4-4.4c0-3.9-0.1-7.7-0.1-11.6c0-2.3,0-4.7,0.1-7c0-0.8,0.6-1.6,0.9-2.3C9.5,7.3,9.7,7,9.8,6.8
			c0-0.1-0.1-0.3-0.2-0.5C9.8,6.1,10,6,10.2,5.8c0.3,0.4,0.3,0.4,0.6,0c0.1-0.1,0.3-0.2,0.5-0.1c0.9,0.2,1.8,0,2.7-0.4
			c0.5-0.2,1-0.1,1.5-0.2c1.1-0.3,2.1-0.6,3.2-0.9c1-0.2,2-0.5,3-0.6c0.6-0.1,1.1,0.1,1.5,0.7c0.2,0.4,0.5,0.7,1.1,0.5
			c0.7-0.2,1.4-0.1,2.1-0.2c0.8-0.1,1.6-0.2,2.4-0.2c0.7-0.1,1.4-0.1,2.1-0.3c2.2-0.4,4.5-0.1,6.7-0.1c1.4,0,2.9,0.1,4.3,0.2
			c0.6,0.1,1.2,0.3,1.7,0.6c1,0.6,2,1.1,2.8,1.9c1.3,1.2,2.9,1.5,4.5,2c0.9,0.3,1.8,0.4,2.8,0.7c0.6,0.2,1.1,0.4,1.6,0.6
			c1.8,0.7,3.7,1.5,5.5,2.2c0.2,0.1,0.5,0.2,0.7,0.3c1,0.7,2,1.5,3,2.2c0.3,0.2,0.5,0.6,0.9,0.7c0.1,0,0.1,0.3,0.2,0.4
			c0.1,0.2,0.2,0.4,0.4,0.6c-0.1,0.6-0.3,1.2-0.4,1.8c0,0.3-0.1,0.5-0.2,0.8c-0.1,0.4-0.1,0.9,0.1,1.3c0.4,1,0.9,2,1.3,3
			c0.3,0.8,0.7,1.6,0.5,2.5c-0.1,0.5-0.3,1.1-0.7,1.5c-0.5,0.7-1.1,1.3-1.7,2c-0.1,0.1,0,0.4,0,0.6c-0.7,0.3-1.4,0.5-2,0.9
			c-0.7,0.5-1.4,1.1-2.1,1.6c-0.3,0.2-0.6,0.3-0.9,0.6c-0.3,0.3-0.4,0.7-0.6,1.1c-0.1,0.2-0.2,0.4-0.3,0.6c-0.4,0.5-0.3,0.6,0.2,0.8
			c1.5,0.3,2.9,1,4.3,1.8c1.2,0.7,2.2,1.7,3,2.8c0.8,1.1,1.4,2.4,1.9,3.6c0.3,0.9,0.5,1.9,0.5,2.8c0,1.4-0.1,2.9-0.2,4.3
			c-0.1,1.6-1,2.8-1.8,4.1c-0.5,0.8-1.4,1.3-2.1,1.9c-1.1,0.9-2.5,1.3-3.8,1.7c-0.7,0.2-1.4,0.6-2.1,0.9c-0.9,0.3-1.9,0.3-2.8,0.6
			c-0.5,0.2-1,0.6-1.3,1.1c-0.4,0.5-0.1,1.1,0.1,1.7c0.5,1.3,0.9,2.6,0.7,4.1c0,0.3-0.2,0.6-0.4,0.9c-0.3,0.4-0.6,0.8-0.4,1.3
			c0,0.1-0.1,0.2-0.1,0.3C54.2,69.8,53.7,70,53.2,70.3z M51,31c0.2-0.6,0.3-1.2,0.5-1.7c0.3-1,0.6-2.1,0.8-3.1
			c0-0.2-0.1-0.3-0.2-0.5c-0.2,0-0.3-0.1-0.5-0.1c-0.4,0-0.8-0.1-0.7-0.6c-0.3,0-0.7,0.1-0.8,0c-0.2-0.3-0.5-0.2-0.7-0.2
			c-0.3,0-0.7,0.2-1,0c-0.8-0.4-0.9-0.5-1.5,0.2c0,0,0,0-0.1,0c-0.2-0.1-0.4-0.2-0.6-0.3c-0.3,0.3-0.2,0.7,0.3,1.2
			c0.6,0.8,1.3,1.7,1.9,2.5c0.7,1,1.3,2.1,1.9,3.1c0.1,0.1,0.3,0.2,0.5,0.2c0.1,0,0.2-0.2,0.3-0.4C51,31.3,51,31.1,51,31z M43.7,7.5
			C43.3,7.2,43,7,42.6,6.7c-0.3-0.2-0.6-0.2-0.9-0.3c-0.2-0.1-0.4-0.3-0.6-0.3C40.4,6,39.8,6,39.1,5.9c-0.6,0-1.2-0.1-1.8-0.1
			c-1,0-1.9,0-2.9,0c-0.6,0-1.2-0.2-1.7-0.2c-1.4,0.1-2.8,0.4-4.1,0.6c-1.5,0.2-3,0.3-4.5,0.5c-0.2,0-0.4,0.2-0.5,0.4
			C23.3,7.8,23,8.4,23,9c-0.1,1.2-0.1,2.4-0.1,3.6c0,0.3,0.2,0.7,0.1,0.9c-0.3,0.4-0.1,0.6,0,0.9c0,0.2,0.1,0.3,0.1,0.5
			c-0.2,1,0,2,0.1,2.9c0.1,1.3,0.6,2.5,1.3,3.6c0.4,0.6,0.9,1.2,1.1,1.9c0.3,0.9,0.8,0.7,1.4,0.6c0.6-0.1,1.3-0.5,1.9,0
			c0.1,0,0.2,0,0.3,0c0.7-0.3,1,0.3,1.1,0.7c0.4,1.3,1.2,2.4,2.1,3.4c0.6,0.7,1.4,1.1,2,1.7c0.8,0.9,1.9,1.1,3,1.4
			c1.6,0.5,3.4,0.2,4.7,1.5c0.7,0.7,1.6,1.2,2.2,2c0.4,0.4,0.7,0.7,1.3,0.5c1-0.3,2.1-0.1,2.3,1.1c0.1,0.2,0.1,0.5,0.2,0.7
			c0.4,0.5,0,0.8-0.3,1c-0.2,0.2-0.6,0.5-0.6,0.7c0.1,0.5,0.5,0.9,1,1c0.3,0.1,0.8,0,1-0.2c0.8-0.9,1-2,0.5-3.1
			c-0.3-0.6-0.9-1.1-0.6-1.9c0,0-0.1-0.1-0.1-0.2c-0.7-1.6-1.5-3.1-2.6-4.5c-0.3-0.4-0.7-0.8-1-1.3c-0.4-0.5-0.6-1.1-1-1.6
			c-0.5-0.5-0.7-1.1-1.1-1.7c-0.2-0.3-0.4-0.6-0.6-0.7c-1-0.2-1-1.1-1.1-1.7c-0.1-0.5-0.1-0.8-0.4-1.1c-0.3-0.3-0.2-0.8,0.1-0.9
			c0.4-0.2,1-0.3,1.3-0.2c0.5,0.3,1.2,0.3,1.3,1c0,0.1,0.2,0.2,0.3,0.3c0.6,0.3,1.3,0.6,1.9,0.7c1.5,0.2,3,0.3,4.5,0.3
			c1.3,0,2.5-0.1,3.8-0.1c0.3,0,0.6,0.1,1,0.2c-0.3,0.5-0.6,0.9-0.7,1.3c-0.5,1.3-0.9,2.6-1.3,3.9c-0.3,0.9-0.4,1.8-0.6,2.7
			c-0.1,0.5,0.1,1-0.1,1.4c-0.1,0.4,0,1-0.5,1.3c-0.2,0.1-0.4,0.3-0.4,0.4c0.1,0.2,0.2,0.4,0.4,0.5c0.2,0.1,0.5,0,0.8,0
			c0.9,0,1.7-0.1,2.6-0.1c0.4,0,0.8,0.2,1.1,0.3c0.3-0.6,0.6-1.1,0.7-1.5c0.5-1.3,1-2.7,1.5-4c0.5-1.3,1-2.5,1.5-3.8
			c0.5-1.2,1-2.4,1.4-3.7c0.2-0.7,0.4-1.5,0.5-2.3c0.1-0.4,0-0.8,0-1.3c-0.7,0.4-0.7,0.6-0.1,1.1c-0.8,0-1.5,0-2.2,0
			c-0.2,0-0.4-0.2-0.6-0.3c0.1-0.1,0.1-0.3,0.2-0.4c0.9-0.6,1.9-1.3,2.8-1.9c-0.3-0.3-0.6-0.4-1,0c-0.5,0.4-1.1,0.7-1.7,1.1
			c-0.1-0.1-0.3-0.4-0.3-0.4c-0.7,0.3-0.9-0.2-1.4-0.7c0.9-0.6,1.7-1.2,2.5-1.8c-0.3-0.1-0.4-0.2-0.6-0.2c-0.6-0.2-1.2-0.3-1.7-0.6
			c-0.9-0.7-2.1-0.7-2.9-1.4c-0.1-0.1-0.3-0.1-0.4-0.1c-1,0.4-1.6-0.5-2.5-0.6c-0.6,0-1.1-0.3-1.6-0.5c-0.6-0.2-1.2-0.4-1.8-0.6
			c-0.8-0.3-1.5-0.5-2.6-0.9c-0.6-0.5-1.6-1.3-2.6-2c0-0.1,0.1-0.2,0.1-0.3C44,7.4,43.8,7.5,43.7,7.5z M51.5,39.6
			c1,0.2,1.9,0.3,2.9,0.5c1.2,0.2,2.1,0.8,3,1.4c0.6,0.4,1.1,1,1.7,1.5c1,1,1.7,2.2,2.1,3.5c0.6,2.1-0.1,4.1-1.4,5.7
			c-0.9,1-2,2-3.5,2.3c-1.3,0.3-2.6,0.3-4,0.3c-1,0-2,0-2.9,0c-0.8,0-1.6,0.2-2.3,0.2c-1.1-0.1-2.2-0.3-3.3-0.5
			c-1.7-0.3-3.1-1.3-4.3-2.3c-0.8-0.6-1.5-1.4-2-2.5c-0.8-1.6-0.5-3.2-0.2-4.8c0.1-0.5,0.3-0.9,0.6-1.4c0.2-0.3,0.4-0.7,0.7-0.9
			c0.9-0.6,1.8-1,2.6-1.7c0.7-0.6,1.6-0.6,2.3-0.9c0.2-0.1,0.5-0.1,0.5-0.2c0-0.2-0.1-0.4-0.2-0.6c-0.1-0.2-0.4-0.3-0.4-0.4
			c0.2-0.6-0.5-0.8-0.7-1.2c0-0.1-0.3-0.1-0.4-0.2c-1.2-0.2-2.2,0.3-3.2,0.7c-1.3,0.5-2.7,1.1-3.9,1.7c-0.8,0.4-1.6,0.9-2,1.6
			c-0.7,1.1-1.1,2.3-1.5,3.5c-0.2,0.5-0.1,1-0.1,1.5c0,0.9-0.1,1.9,0.1,2.8c0.2,1,0.7,1.9,1.1,2.9c0,0.1,0.1,0.1,0.1,0.2
			c0.7,1,2,1.4,3,2.1c0.5,0.4,1.2,0.5,1.8,0.8c0.2,0.1,0.5,0.2,0.7,0.3c1.1,0.2,2.1,0.3,3.2,0.6c1.3,0.3,2.5,0.8,2.7,2.3
			c0.1,0.8,0.1,1.5,0.2,2.3c0,0.6,0.2,1,0.8,1.2c1.5,0.5,3,0.8,4.5,0.4c0.3-0.1,0.6-0.1,0.9-0.2c0.9-0.1,1.9-0.4,2.4-1.2
			c0.7-1.1,1.7-1.7,2.9-2.2c2.1-0.8,4.1-1.7,6.2-2.6c1.8-0.8,3.2-2.1,3.9-4.1c0.5-1.3,0.7-2.7,0.6-4.1c-0.1-0.9-0.2-1.9-0.4-2.8
			c-0.2-1.3-0.5-2.6-1.3-3.6c-2-2.6-4.8-3.9-8-4.4c-0.4-0.1-0.8,0-1.2-0.1c-1.3-0.2-2.6-0.5-3.9-0.8C52.1,37.7,52.2,38.7,51.5,39.6z
			 M27.2,108.8c0,0,0.1-0.2,0.2-0.3c0.5-0.7,1.1-1.3,1.7-2c0.8-1.1,1.5-2.3,2.3-3.4c0.2-0.2,0.3-0.5,0.5-0.7c0.5-0.6,1-1.2,1.6-1.8
			c0.3-0.3,0.6-0.6,0.8-1c0.4-0.5,0.7-1.1,1-1.6c0.8-1.1,1.7-2.2,2.6-3.4c0.5-0.7,0.8-1.4,1.3-2.1c1.1-1.6,2.3-3.1,3.5-4.6
			c0.5-0.6,0.7-1.4,1.2-2c0.5-0.6,0.7-1.2,0.6-2c-0.5-2.9-1.1-5.8-1.6-8.8c-0.1-0.3-0.2-0.6-0.3-1c-1.2,0.8-2.1,0.9-2.6,0.1
			c-0.3-0.4-0.4-0.9-0.3-1.3c0.1-0.4,0.5-0.7,0.8-1.1c-0.4,0-0.9,0.1-1.3,0.1c-0.5,0-1-0.1-1.4,0c-1.6,0.3-3.2,0.6-4.9,0.8
			c-0.8,0.1-1.5,0.3-2.3,0.7c-0.3,0.1-0.6,0.2-0.9,0.3c-0.8,0.3-1.5,0.4-2.2,0.8c-1.4,0.7-2.2,2-3.2,3.1c-0.4,0.4-0.8,0.8-1,1.4
			c-0.5,1.2-1.6,1.9-2.3,2.9c-0.2,0.3-0.5,0.6-0.7,0.8c-0.4,0.4-0.9,0.8-1.2,1.2c-0.7,0.9-1.3,1.8-2,2.7c-0.5,0.6-1,1.1-1.5,1.8
			c-0.9,1.2-1.8,2.4-2.7,3.6c-0.2,0.3-0.4,0.6-0.6,0.8c-0.6,0.8-1.1,1.6-1.7,2.4c-0.2,0.2-0.2,0.5-0.3,0.8c-0.2,1.4,0.9,2.3,1.4,3.4
			c0.3,0.8,1,1.5,1.6,2.1c0.7,0.9,1.5,1.7,2.3,2.5c0.5,0.5,1.1,1.1,1.8,1.4c1.4,0.7,2.8,1.3,4.2,1.8c1.5,0.6,2.8,1.5,4.5,1.4
			C26.2,108.8,26.7,108.8,27.2,108.8z M50.4,53.4c0-0.1,0-0.1,0-0.2c1.4,0,2.9,0,4.3,0c1.4,0,2.5-0.6,3.2-1.8
			c0.1-0.2,0.3-0.4,0.5-0.6c0.9-1.1,1.1-2.4,0.8-3.8c-0.4-1.7-1.5-2.9-2.8-3.9c-0.4-0.3-0.8-0.6-1.3-0.7c-0.6-0.2-1.3-0.2-2-0.3
			c-1-0.2-2.1-0.5-3.1-0.1c-0.9,0.3-1.9,0.3-2.8,0.1c-1-0.2-2.1-0.5-3.1-0.3c-0.6,0.1-1.2,0.1-1.7,0.4c-1,0.6-1.8,1.4-2.8,2
			c-0.5,0.3-0.6,0.7-0.7,1.1c-0.1,0.5-0.2,0.9-0.2,1.4c0,1.3-0.1,2.6,0.9,3.6c1.2,1.3,2.6,2.3,4.4,2.5
			C46.1,53.1,48.3,53.2,50.4,53.4z M49.9,105.9c0.2-0.6-0.2-0.6-0.6-0.6c-0.2,0-0.3,0-0.5,0c-0.9,0-1.8,0.1-2.7-0.1
			c-0.9-0.1-1.8-0.5-2.8-0.8c-0.5-0.2-0.8,0-0.8,0.5c0,0.8-0.1,1.7-0.1,2.5c-0.1,1.4-0.1,2.7-0.2,4c0,0.2-0.1,0.4-0.1,0.7
			c0,0.8,0.1,1.6,0,2.4c-0.1,1.1-0.1,2.2,0.1,3.3c0.1,0.7,0.1,1.5,0.2,2.2c0,0.7,0,1.4,0,2c0,0.7,0.2,1.3,0.1,2
			c-0.2,1.4,0.1,2.3,1.4,2.9c0.7,0.4,1.5,0.5,2.3,0.6c1.7,0.3,2.8-0.8,3.9-1.8c0.1-0.1,0.1-0.4,0.1-0.6c0-0.6-0.1-1.1,0-1.7
			c0-1.8,0.2-3.6,0.2-5.4c0-1.7-0.1-3.4-0.1-5.1c0-0.7-0.1-1.5-0.1-2.2c0-0.8,0.1-1.5,0.1-2.3C50.1,107.8,50,106.9,49.9,105.9z
			 M52,124.3c0.4-0.1,0.6-0.1,0.8-0.2c0.8-0.1,1.5-0.1,2.3-0.2c0.8-0.1,1-0.4,1.1-1.2c0.1-0.5,0.1-1,0.1-1.4c0-0.2,0.1-0.4,0.3-0.5
			c0.5-0.3,1.1-0.6,1.6-0.7c0.9-0.2,1.8-0.3,2.7-0.4c1.1-0.1,1.4,0,1.8,1c0.2,0.4,0.4,0.4,0.8,0.3c0.6-0.2,1.3-1.4,1.2-2.1
			c-0.1-0.5-0.1-1-0.1-1.6c0-0.3-0.1-0.5-0.5-0.5c-0.6-0.1-1.2-0.1-1.8-0.3c-0.2-0.1-0.5-0.4-0.6-0.6c-0.1-0.6-0.2-1.2-0.3-1.8
			c-0.2-1.1-0.1-1.4,0.9-2c0.7-0.4,1.4-0.6,2.2-0.8c0.4-0.1,0.5-0.3,0.5-0.6c0-0.6,0-1.2-0.1-1.7c-0.1-0.4,0-0.9-0.5-1.2
			c-0.7-0.3-1.5-0.2-2.2,0c-0.5,0.1-0.8,0.5-0.7,1.1c0,0.3,0,0.5,0,0.8c0,1-0.2,1.3-1.2,1.4c-1.1,0.1-2.2,0-3.3,0
			c-0.8-0.1-1.3-0.5-1.3-1.1c0-0.5,0-1,0-1.5c-1.2-0.8-2.5,0-3.9-0.4C51.4,113.6,52.2,118.9,52,124.3z M50.9,93.7
			c0.1-0.8,0.1-1.5,0.2-2.1c0.1-2,0.3-4,0.4-6c0.1-2.7,0.1-5.5,0.1-8.2c0-0.9,0.1-1.8,0.2-2.7c0.1-1.1-0.1-1.2-1.3-1.2
			c-2.2,0.1-4.4,0.4-6.6-0.2c-0.4-0.1-0.6,0.2-0.5,0.6c0.1,0.3,0.2,0.6,0.3,0.9c0.6,2.6,1.1,5.3,1.7,7.9c0.5,2.3,0.3,4.3-1.2,6.2
			c-0.6,0.8-1.1,1.7-1.7,2.5c-0.4,0.5-0.3,1-0.2,1.5c1.5,0.4,2.8,0.8,4.2,1.2C48,94.3,49.5,94.4,50.9,93.7z M54,65.8
			c-0.1-0.5-0.2-1-0.3-1.5c-0.2-0.6-0.8-1-1.5-0.9c-1.3,0.2-2.6,0.4-4,0.4c-1.2,0-2.3-0.2-3.5-0.4c-0.8-0.1-1.5,0-1.9,0.7
			c-0.3,0.5-0.7,1.1-0.8,1.6c-0.2,0.8-0.1,1.6,0.7,2.2c0.6,0.5,1.3,0.6,2.1,0.6c2,0,4.1,0.1,6.1,0.2C52.4,68.8,54,67.3,54,65.8z
			 M47.7,103.9c1.1,0,2-0.3,2.9-0.8c0.6-0.3,1-0.6,1.2-1.2c0.2-0.6-0.3-0.9-0.7-1.3c-0.1-0.1-0.2-0.1-0.2-0.2
			c-0.5-0.5-1-0.6-1.6-0.4c-0.6,0.1-1.2,0-1.7-0.1c-0.9-0.2-1.7-0.4-2.6-0.6c-0.3-0.1-0.6-0.1-0.9-0.3c-0.9-0.5-2.2-0.3-2.7,0.5
			c-0.6,0.9-0.4,2,0.4,2.4c1,0.5,2.1,1.1,3.3,1.3C45.9,103.4,46.8,103.7,47.7,103.9z M49.6,98.2c0.8,0.1,1.5-0.4,2.3-0.9
			c0.1-0.1,0.2-0.3,0.3-0.5c0.2-1-0.6-1.5-1.6-1.3c-1.4,0.3-2.9,0.5-4.2-0.3c-0.9-0.5-1.8-0.8-2.8-0.8c-0.7,0-1.5,0.5-1.7,1.1
			c-0.1,0.5,0.3,1.2,0.9,1.6c0,0,0.1,0,0.1,0.1c1.5,0.4,3,0.9,4.6,1.2C48,98.5,48.7,98.3,49.6,98.2z M16.4,26.5
			c0.8,0,1.4-0.3,1.7-1.1c0.3-0.9,0.5-1.8-0.2-2.6c-0.8-0.8-1.8-0.6-2.3,0.3c-0.2,0.4-0.4,0.9-0.6,1.3
			C14.6,25.7,15.2,26.5,16.4,26.5z M61.1,29.8c0,0,0.1,0.1,0.1,0.1c0.6-0.3,1.2-0.5,1.7-0.9c0.6-0.5,1.1-1,1.6-1.6
			c0.3-0.4,0.7-0.9,0.8-1.3c0.1-0.6-0.1-1.3-0.3-1.9c-0.2-0.5-0.5-0.8-0.8-1.4c-0.9,2-1.6,3.9-2.2,5.8C61.7,29,61.4,29.4,61.1,29.8z
			 M41.6,73.5c0.6-0.4,1.2-0.8,1.7-1.2c0.1-0.1,0.3-0.1,0.4-0.1c1.9,0.7,3.8,0.4,5.7,0.5c0.7,0,1.3,0,2-0.1c0.4-0.1,0.9-0.2,0.8-0.7
			c0-0.1-0.6-0.3-0.9-0.3c-2.3,0-4.6,0.1-6.9-0.1c-1.1-0.1-1.9,0.1-2.8,0.7C41.1,72.7,41.1,73.1,41.6,73.5z M48.5,70.8
			c0,0,0,0.1,0,0.1c1-0.1,1.9-0.1,2.9-0.2c0.2,0,0.4-0.3,0.6-0.4c-0.2-0.1-0.4-0.3-0.6-0.3c-0.3,0-0.7,0-1.1,0
			c-2.1,0-4.2-0.1-6.4-0.2c-0.7,0-1.4-0.2-2.2-0.2c-0.2,0-0.4,0.2-0.6,0.4c0.1,0.1,0.2,0.3,0.4,0.4c0.5,0.2,1.1,0.3,1.7,0.3
			C45,70.8,46.8,70.8,48.5,70.8z M46.8,37.5c0-1.3-0.1-1.5-0.9-1.4C45.9,36.7,46.1,37.3,46.8,37.5z M40.4,72.8
			c-0.4,0.2-0.5,0.6-0.3,0.9c0.2,0.4,0.5,0.6,0.9,0.5C40.8,73.7,40.6,73.2,40.4,72.8z"/>
		<path style="fill:#E4D5B8;" d="M108.8,47.2c0.6-0.3,1.2-0.6,1.8-0.7c0.8-0.2,1.5-0.5,2.1-1c0.3-0.3,0.5-0.2,0.8,0.1
			c0.3,0.3,0.6,0.6,0.9,0.8c0.8,0.3,1.4-0.1,2-1.1c0.4,0.2,0.8,0.3,0.6,0.9c-0.1,0.4,0.4,0.8,0.8,0.6c0.5-0.2,0.9-0.4,1.3-0.7
			c0.3-0.3,0.6-0.3,0.9,0c0.4,0.4,0.6,1.9,0.4,2.3c0,0.1-0.1,0.1-0.2,0.2c-0.4,0.3-0.8,0.6-1.2,0.9c1.1,1.3,1.4,2.8,1.9,4.2
			c0.2,0.6,0.6,1.1,0.8,1.6c0.5,1.3,0.4,1.5-0.8,2.1c-1.2,0.6-2.5,1.2-3.9,0.4c-0.1,0-0.1-0.1-0.2-0.1c-1.4,0.2-1.4-1.1-1.9-1.8
			c-0.1-0.2-0.2-0.4-0.2-0.6c-0.1-0.3,0-0.6,0.4-0.7c0.4,0,0.9,0,1.3,0c0.3-0.1,0.7-0.2,0.9-0.4c0.2-0.1,0.3-0.6,0.3-0.7
			c-0.2-0.3-0.5-0.5-0.8-0.5c-0.8,0-1.5,0-2.3,0.1c-0.4,0-0.7,0-0.8-0.5c-0.1-0.4-1-0.6-1.4-0.4c-0.7,0.3-1.4,0.7-2.2,1.1
			c-0.2-0.7-0.4-1.3-0.5-1.9c-0.2-0.7-0.2-1.4-0.4-2.1c-0.1-0.2-0.2-0.4-0.4-0.6C108.8,48.1,108.8,47.7,108.8,47.2z M112.2,47.8
			c-0.6,0-1.2,0.5-1.2,0.9c0,0.4,0.5,0.6,1.2,0.4c0,0,0.1,0,0.1,0c0.5,0,0.7-0.5,0.8-0.8c0-0.1-0.5-0.3-0.7-0.5
			C112.3,47.8,112.2,47.8,112.2,47.8z"/>
		<path style="fill:#DED0B3;" d="M156.5,87c-1.2-0.2-2.4-0.3-3.5-0.9c-0.3-0.1-0.8,0-1.1,0.1c-0.5,0.2-0.4,0.6,0,1
			c0.1,0.1,0.2,0.1,0.4,0.3c-1,0.3-1.9,0.6-2.7-0.3c-0.1-0.1-0.2-0.2-0.3-0.2c-1.2-0.3-1.9-1.3-2.7-2.4c0.5-0.3,0.9-0.7,1.4-1
			c0.2-0.1,0.4-0.3,0.6-0.4c0.8-0.7,1.1-0.7,1.7,0.1c0.5,0.6,1.1,1.2,1.6,1.8c0.1,0.1,0.2,0.2,0.3,0.2c0.9,0.2,1.7,0.4,2.6,0.5
			c0.4,0.1,0.8,0,1.1-0.4c0.6,0,0.6,0.5,0.7,0.9C156.6,86.6,156.5,86.8,156.5,87z"/>
		<path style="fill:#0B0B0B;" d="M116.7,29.4c0,0.6,0.1,1.1,0.1,1.7c0,0.1-0.3,0.4-0.5,0.4c-0.2,0-0.5-0.2-0.5-0.4
			c-0.1-1.2-0.3-2.5-0.3-3.7c-0.1-1.3-0.1-2.5-0.1-3.8c0-0.7,0-1.5,0-2.2c0-0.5,0.4-0.7,0.8-0.7c0.4,0,0.8,0.2,0.8,0.6
			c0,1.5,0.1,3,0.1,4.5c0,0.6-0.2,1.1-0.2,1.7c0,0.3,0.1,0.7,0.1,1C117,28.9,116.9,29.1,116.7,29.4
			C116.8,29.4,116.8,29.4,116.7,29.4z"/>
		<path style="fill:#0A0A0A;" d="M102.8,22.9c-0.2-0.7,0.5-0.8,0.9-0.9c0.4-0.2,0.6,0.2,0.7,0.6c0.4,1.4,0.8,2.8,1.2,4.2
			c0.3,0.9,0.6,1.9,0.9,2.8c0.1,0.3,0.2,0.7,0.1,0.9c-0.1,0.3-0.5,0.7-0.8,0.8c-0.2,0-0.7-0.4-0.8-0.7c-0.3-1-0.5-2-0.8-3
			c-0.3-1-0.7-2-1-3C103.1,24,103,23.5,102.8,22.9z"/>
		<path style="fill:#0B0B0B;" d="M123.9,31.4c0.2-0.5,0.4-1.1,0.7-1.6c1-1.6,1.7-3.2,2.5-4.9c0.2-0.5,0.6-1.1,0.8-1.6
			c0.2-0.3,1.1-0.5,1.4-0.3c0.3,0.3,0.3,0.6,0.1,0.9c-0.5,0.6-0.8,1.2-1,1.9c-0.1,0.4-0.5,0.8-0.8,1.2c-0.6,1.1-1.2,2.3-1.7,3.4
			c-0.1,0.1-0.1,0.3,0,0.5c0.1,0.9-0.6,1.3-1.4,1.2C124.2,32,123.9,31.9,123.9,31.4z"/>
		<path style="fill:#EBB998;" d="M114.5,59.7c-0.5-0.1-0.7,0.1-0.9,0.5c-0.2,0.4-0.4,0.6-0.9,0.6c-0.5,0-0.7,0.5-0.6,1
			c0.2,0.7,0.5,1.4,0.7,2.1c0.1,0.3,0,0.7,0,1.1c0.1,1,0.2,1.9,0.4,2.9c-0.7,0-1.4,0.1-2.1,0.1c-0.2,0-0.4-0.1-0.7-0.1
			c0.9,0.2,1.3-0.7,2-0.9c0,0,0-0.6-0.1-0.8c-0.2-0.2-0.6-0.3-0.9-0.4c-0.1-0.4-0.2-0.8-0.2-1.2c-0.1-1.3-0.2-2.7-0.3-4
			c0-0.1,0.2-0.4,0.4-0.4c0.5-0.1,1-0.2,1.5-0.3c0.2,0,0.5-0.1,0.7-0.2c0.7-0.7,1.4-0.3,2.2-0.2c-0.2,0-0.3,0-0.5,0.1
			C114.9,59.5,114.7,59.6,114.5,59.7z"/>
		<path style="fill:#0C0C0C;" d="M157.8,107.7c-0.4-0.2-0.8-0.2-0.9-0.4c-0.2-0.2-0.4-0.5-0.3-0.8c0.2-1.1,0.4-2.1,0.6-3.2
			c0.1-0.3,0.3-0.6,0.6-0.8c0.3-0.2,0.8,0.1,0.8,0.4c0,0.6,0,1.2-0.1,1.8C158.2,105.8,158,106.7,157.8,107.7z"/>
		<path style="fill:#0A0A0A;" d="M152.8,103.8c0.9,0,1.4,0.5,1.6,1.3c0.2,0.5,0.4,1.1,0.6,1.5c0.2,0.4,0.3,0.8-0.1,1.1
			c-0.4,0.3-0.8,0.2-1.2-0.1c-0.5-0.5-0.5-1.3-0.8-1.9c-0.2-0.3-0.3-0.7-0.4-1.1c-0.1-0.2-0.3-0.5-0.2-0.6
			C152.4,103.9,152.7,103.8,152.8,103.8z"/>
		<path style="fill:#E4D5B8;" d="M151.7,89.7c0.1-0.3,0.7-0.5,0.1-1c0.1,0,0.2-0.1,0.3-0.1c0.4,0.2,0.9,0.4,1.3,0.6
			C153.1,89.9,152.4,90.1,151.7,89.7z"/>
		<path style="fill:#A3B4D0;" d="M264.7,130.8c-0.5,0-1.1,0-1.6,0c0-0.1,0-0.1,0-0.2c0.8-0.2,1.5-0.4,2.3-0.6
			c-0.4,0.2-0.7,0.3-1.2,0.6C264.5,130.6,264.6,130.7,264.7,130.8z"/>
		<path style="fill:#A3B4D0;" d="M193.5,132.8c0.5,0,1.1,0,1.6,0c0,0.1,0,0.1,0,0.2c-0.5,0-1.1,0-1.6,0
			C193.5,132.9,193.5,132.8,193.5,132.8z"/>
		<path style="fill:#A3B4D0;" d="M273.6,130.6c-0.2,0-0.3,0-0.5,0C273.2,130.6,273.4,130.6,273.6,130.6z"/>
		<path style="fill:#A3B4D0;" d="M278.1,130.8c-0.2,0-0.3,0-0.5,0C277.8,130.8,277.9,130.8,278.1,130.8z"/>
		<path style="fill:#A3B4D0;" d="M267.7,131c-0.2,0-0.3,0-0.5,0C267.4,131,267.6,131,267.7,131z"/>
		<path style="fill:#A3B4D0;" d="M276.5,130.9c-0.2,0-0.3-0.1-0.5-0.1C276.1,130.8,276.3,130.8,276.5,130.9z"/>
		<path style="fill:#A3B4D0;" d="M280.3,130.7c-0.1,0-0.3,0-0.4,0C280,130.7,280.1,130.7,280.3,130.7z"/>
		<path style="fill:#A3B4D0;" d="M278.7,130.8c-0.1,0-0.2,0-0.4,0C278.5,130.8,278.6,130.8,278.7,130.8z"/>
		<path style="fill:#A3B4D0;" d="M266.1,129.8c0.1,0,0.2,0,0.3-0.1C266.3,129.7,266.2,129.7,266.1,129.8z"/>
		<path style="fill:#A3B4D0;" d="M265.6,129.9c0.1,0,0.2,0,0.3-0.1C265.8,129.8,265.7,129.9,265.6,129.9z"/>
		<path style="fill:#A3B4D0;" d="M275.5,130.5c-0.1,0-0.2,0-0.3,0C275.3,130.5,275.4,130.5,275.5,130.5z"/>
		<path style="fill:#A3B4D0;" d="M272,130.6c-0.1,0-0.2,0-0.2,0C271.9,130.6,272,130.6,272,130.6z"/>
		<path style="fill:#A3B4D0;" d="M274.6,130.5c-0.1,0-0.2,0.1-0.3,0.1C274.4,130.6,274.5,130.6,274.6,130.5z"/>
		<path style="fill:#A3B4D0;" d="M268.3,130.9c-0.1,0-0.2,0-0.3,0C268.1,130.9,268.2,130.9,268.3,130.9z"/>
		<path style="fill:#A3B4D0;" d="M268.8,130.9c-0.1,0-0.2,0-0.3,0C268.6,130.9,268.7,130.9,268.8,130.9z"/>
		<path style="fill:#A3B4D0;" d="M270.1,130.8c-0.1,0-0.2,0-0.2,0C270,130.8,270.1,130.8,270.1,130.8z"/>
		<path style="fill:#A3B4D0;" d="M279.6,130.8c-0.1,0-0.2,0-0.2,0C279.5,130.8,279.5,130.8,279.6,130.8z"/>
		<path style="fill:#020202;" d="M270,22.5C270,22.5,270.1,22.5,270,22.5C270.1,22.4,270,22.5,270,22.5C270,22.5,270,22.5,270,22.5z
			"/>
		<path style="fill:#A3B4D0;" d="M137.3,82.5c0.5,1.7,1,3.3,1.3,4.9c0.4,1.7,0.7,3.4,0.8,5.1c0.1,1.4,0,2.8,0.1,4.2
			c0.1,0.8,0.4,1.6,0.8,2.3c0.5,1,1.2,1.9,1.8,2.9c0.8,1.2,1.6,2.5,2.4,3.7c0.3,0.5,0.5,1,0.7,1.4c0.6,1,1.3,2,2,3
			c0.8,1.2,1.5,2.5,2.3,3.8c0.6,0.9,1.3,1.7,1.8,2.6c0.3,0.5,0.7,0.8,1.3,0.9c0.4,0,0.5,0.4,0.2,0.8c-0.7,0.8-1.4,1.7-2.5,2.1
			c-0.9,0.3-1.8,0.7-2.7,1c-0.1,0-0.3,0-0.6,0c0.2-0.2,0.3-0.3,0.3-0.2c-0.2-0.3-0.3-0.6-0.6-0.8c-0.4-0.4-1-0.6-1.4-1
			c-1.6-1.4-3.3-2.8-4.8-4.4c-0.9-0.9-1.9-1.7-2.7-2.7c-0.8-0.9-1.4-1.9-2.2-2.7c-1-1-1.5-2.3-2.1-3.4c-0.6-1.1-1.2-2.2-1.7-3.3
			c-0.1-0.2-0.3-0.3-0.4-0.4c-0.3-0.5-0.6-0.9-0.9-1.4c-0.5-1.1-1-2.2-1.5-3.5c0.6-0.4,1.3-0.9,1.9-1.5c0.7-0.7,1.3-1.4,2-2.2
			c0.2-0.2,0.5-0.4,0.6-0.7c0.9-1.3,1.8-2.6,2.7-3.9c0.1-0.2,0.2-0.5,0.3-0.8c0.1-0.5-0.4-1.1-0.8-1.1c-0.1,0-0.3,0.2-0.3,0.4
			c-0.3,0.7-0.4,1.4-0.7,2.1c-0.5,0.8-1.1,1.6-1.6,2.4c-0.9,1.3-2.1,2.4-3.3,3.1c-1.4,0.9-2.5,1.9-3.8,2.9c-1.3,1-2.1,2.4-2.9,3.9
			c0,0.1-0.1,0.2-0.1,0.3c-1.3,1-1.3,2.5-1.1,3.9c0.1,0.8,0.3,1.6,0.5,2.4c0.2,1.3,0.3,2.6,0.5,3.9c0.1,0.6,0.2,1.2,0.3,1.8
			c0.4,2.6,0.9,5.2,1.3,7.8c0.1,0.4,0,0.7,0,1.1c0,0.1-0.2,0.2-0.3,0.2c-1.2,0.1-2.4,0.2-3.6,0.1c-1.2-0.1-2.3-0.4-3.5-0.6
			c-0.5-0.1-0.8-0.6-0.7-1.2c0-0.4-0.2-0.9-0.3-1.3c-0.2-0.9-0.4-1.7-0.6-2.6c-0.2-0.9-0.4-1.8-0.5-2.7c-0.1-1-0.2-2-0.3-3
			c0-0.3-0.2-0.7-0.2-1c0-0.3,0-0.6,0-1c0.2-0.9,0-1.7-0.4-2.6c0.8-0.6,0.3-1.4,0.5-2.1c0.3-0.9,0.4-1.9,0.6-2.9
			c0.1-0.3,0.1-0.7,0.1-1c-0.1-0.8-0.1-1.6,0.3-2.4c0.2-0.4,0.2-0.8,0.3-1.2c0.2-1,0.4-2,0.6-2.9c0.1-0.5,0.1-1,0.2-1.4
			c0.3-1.1,0.8-2.2,1.1-3.3c0.3-0.9,0.6-1.8,0.9-2.7c0.4-1.1,0.8-2.1,1.3-3.1c0-0.1,0.2-0.2,0.4-0.2c1.1,0,2.2-0.1,3.3-0.1
			c0.9,0,1.8,0.1,2.7,0.1c1,0,2-0.2,3.1-0.3c1.3-0.1,2.6-0.2,3.9-0.4c1.1-0.2,2.2-0.6,3.3-0.8C136.8,82.6,136.9,82.6,137.3,82.5z"/>
		<path style="fill:#FAFAFA;" d="M228.3,91.4c-1.1-0.2-2.3-0.3-3.4-0.6c-0.4-0.1-0.6-0.5-1-0.8c-0.4-0.4-0.9-0.7-1.3-1.1
			c-0.5-0.5-0.9-1.1-1.3-1.7c-0.1-0.1-0.2-0.3-0.3-0.4c-0.7-0.4-0.7-1-0.8-1.7c-0.1-0.3-0.2-0.6-0.3-0.9c-0.2-1-0.1-2-0.5-3
			c-0.3-1,0.1-2,0.1-3c0-0.6,0-1.2-0.1-1.8c-0.1-1.2-0.2-2.4-0.2-3.6c0-0.7,0.2-1.5,0.2-2.2c0-1.2,0-2.4,0-3.6c0-1.1,0-2.1,0.1-3.2
			c0.1-0.7,0.5-1,1.2-0.9c1,0.1,1.9,0.3,2.8,0.6c0.3,0.1,0.5,0.3,0.4,0.8c-0.2,0.8-0.1,1.6-0.1,2.4c0,0.7,0.1,1.4,0.2,2.1
			c0.1,1,0.1,2,0.1,3.1c0,0.3,0,0.7-0.1,1c-0.2,1.3,0.1,2.6,0.2,3.9c0.1,1.1,0.2,2.1,0.3,3.2c0.1,1.3,0.2,2.5,0.3,3.8
			c0.1,0.7,1.2,1.7,1.9,1.7c0.9,0.1,1.8,0.1,2.6,0.2c1.6,0.2,2.9-1,2.9-2.6c0-0.8-0.2-1.5-0.3-2.3c0-0.6,0-1.3,0.1-1.9
			c0-0.9,0.1-1.8,0.1-2.8c0.1-1.2,0.2-2.4,0.3-3.5c0-0.8,0-1.6,0-2.4c0-0.3,0.1-0.6,0.1-0.9c0-1.1-0.1-2.1-0.1-3.2
			c0-0.5,0.1-1,0.3-1.5c0.1-0.2,0.4-0.3,0.5-0.3c1.4,0,2.8,0,4.2,0.1c0.4,0,0.7,0.7,0.5,1.3c-0.4,1-0.2,2.1-0.2,3.2
			c0.1,2.5,0.3,4.9,0,7.4c-0.2,1.2-0.1,2.4-0.2,3.6c-0.2,1.6-0.4,3.3-0.6,4.9c0,0.3-0.1,0.6-0.1,0.9c-0.4,1.8-1.4,3.2-2.9,4.3
			c-0.8,0.6-1.5,1.3-2.6,1.4c-0.9,0.1-1.9,0-2.8,0C228.4,91.3,228.3,91.4,228.3,91.4z"/>
		<path style="fill:#FAFAFA;" d="M210.4,86.2c-0.5,0.3-1.1,0.7-1.6,1c-0.1,0.1-0.2,0.1-0.3,0.1c-1.1,0-2.3,0.3-3.3,0
			c-1.1-0.3-2.3-0.7-3.2-1.6c-1.1-1.1-2.2-2.2-2.9-3.7c-0.5-1.1-1-2.2-0.9-3.5c0-0.3-0.2-0.5-0.2-0.8c-0.1-1,0-2-0.1-2.9
			c0-0.6-0.2-1.1-0.3-1.7c0-0.7,0.1-1.3,0.1-2c0.1-1.1,0.2-2.3,0.4-3.4c0.1-0.8,0.1-1.8,0.5-2.5c0.7-1.2,1.1-2.6,2.4-3.4
			c1.3-0.7,2.5-1.5,4-1.6c0.4,0,0.7-0.1,1.1-0.1c1.6-0.3,2.9,0.4,4.3,1.2c0.8,0.4,1.5,0.8,2,1.5c0.1,0.2,0.3,0.4,0.3,0.6
			c-0.2,1-0.7,1.9-1.5,2.6c-0.2,0.1-0.5,0.2-0.7,0.1c-0.6-0.2-1.1-0.4-1.6-0.7c-1.1-0.7-2.4-0.8-3.5-0.4c-1.1,0.4-1.9,1.3-2.3,2.5
			c-0.8,2.3-1,4.6-1,7c0,1.8,0,3.6,0.4,5.3c0.3,1.2,0.8,2.2,1.9,2.8c0.5,0.3,1,0.5,1.6,0.7c1.4,0.5,2.8-0.2,3.2-1.6
			c0.5-1.7,0.8-2.6,0.1-5.3c-1.1-0.1-2.3-0.2-3.4-0.3c-0.6-0.1-0.9-0.4-0.8-1c0-0.5,0-0.9,0-1.4c0-1,0.8-1.6,1.8-1.5
			c1.6,0.2,3.2,0.4,4.8,0.6c0.4,0,0.7,0.1,1.1,0.1c0.7,0.1,0.9,0.8,1,1.3c0.1,1.6,0.4,3.1,0.1,4.7c-0.1,0.4,0,0.9-0.1,1.3
			c-0.1,0.5-0.3,1-0.3,1.5c0,1.6-0.6,2.9-1.7,4C211,85.5,210.7,85.9,210.4,86.2z"/>
		<path style="fill:#FBFBFB;" d="M249.8,107.5c-0.1,0-0.2,0-0.3,0.1c0-0.1,0-0.3,0.1-0.4c0.2-0.2,0.5-0.3,0.6-0.5
			c0.2-0.3,0.2-0.7,0.3-1.1c0.1-0.4,0.3-0.7,0.5-1.1c0.2-0.5,0.2-1,0.9-1.3c0.2-0.1,0.3-0.5,0.4-0.7c0.3-0.9,1-1.2,1.9-1.1
			c0.5,0,0.9,0,1.4,0c0.9,0.1,1.4,0.8,1.9,1.5c0.8,1.3,1.5,2.7,2.3,4.1c0.4,0.7,0.8,1.5,1.1,2.3c0.2,0.6,0.4,1.2,0.6,1.7
			c0.1,0.2,0.3,0.4,0.4,0.7c0.5,1.6,1.4,3,2.2,4.4c0.1,0.2,0.2,0.5,0.3,0.7c0,0.1,0,0.3,0.1,0.4c0.9,1.2,0.8,2-0.6,2.7
			c-1,0.5-2,0.8-3,1.1c-0.5,0.2-0.7,0-0.8-0.5c-0.4-1.3-0.8-2.6-1.3-4c-0.3-0.8-0.4-0.8-1.2-0.6c-1.4,0.2-2.8,0.4-4.3,0.5
			c-0.6,0.1-1.3,0-1.9,0.2c-0.4,0.2-0.8,0.8-1,1.3c-0.3,0.7-0.4,1.4-0.7,2.1c-0.1,0.3-0.3,0.5-0.5,0.8c-0.1,0.1-0.1,0.2-0.1,0.4
			c0,0.6-0.2,0.8-0.8,1.1c-1.1,0.6-2.2,0.2-3.3,0.2c-1.2,0-1.5-0.5-1.1-1.7c0.2-0.7,0.4-1.4,0.7-2.1c0.4-1.1,0.9-2.1,1.3-3.2
			c0.3-0.7,0.4-1.4,0.7-2c0.2-0.4,0.3-0.8,0.6-1c0.4-0.3,0.5-0.6,0.4-0.9c0.2-0.3,0.5-0.5,0.6-0.8c0.3-0.8,0.6-1.6,0.9-2.3
			c0.2-0.4,0.5-0.6,0.7-0.9C249.8,107.6,249.8,107.5,249.8,107.5C249.8,107.4,249.8,107.5,249.8,107.5
			C249.9,107.4,249.9,107.4,249.8,107.5C249.8,107.4,249.8,107.4,249.8,107.5z M254.4,108.5c-0.1,0.1-0.1,0.1-0.2,0.1
			c-0.5,0.6-0.3,1.5-1.1,2c0,0,0,0.2,0,0.2c0.1,0.3,0.1,0.5-0.2,0.7c-0.2,0.1-0.2,0.5-0.2,0.8c0,0.1,0.3,0.2,0.4,0.2
			c0.9-0.1,1.9-0.2,2.8-0.4c0.1,0,0.3-0.3,0.2-0.4C255.6,110.7,255,109.6,254.4,108.5z"/>
		<path style="fill:#FAFAFA;" d="M229.5,43.4c0.3,0.1,0.6,0.2,0.8,0.3c0.3,0.2,0.5,0.1,0.7-0.1c0.1-0.1,0.4-0.2,0.5-0.1
			c0.6,0.3,1.3,0.2,1.9,0.1c0.5,0,0.9,0,0.9-0.7c0-0.4,0.4-0.7,0.6-1.1c-0.1-0.2-0.2-0.3-0.3-0.5c0.1,0,0.1,0,0.2,0
			c0.1-0.5,0.3-1.1,0.4-1.6c0.1-0.4,0.2-0.8,0.3-1.2c0-0.2,0-0.5,0-0.7c0-0.2,0-0.5,0.1-0.5c0.5-0.2,0.2-0.4,0.1-0.5
			c0.2-0.3,0.4-0.4,0.4-0.7c0.2-1,0.5-2,0.5-3c0-0.7,0.1-1.3,0.4-2c0.3-1,2.7-1.6,3.4-1.2c0.6,0.4,0.8,0.9,0.5,1.7
			c-0.4,1.3-0.8,2.6-1.1,3.9c-0.2,0.7-0.5,1.4-0.6,2.2c-0.3,1.7-0.5,3.5-0.8,5.3c-0.1,0.8-0.3,1.5-0.3,2.3c-0.1,1.4-0.2,2.7-0.3,4.1
			c-0.1,0.8-0.2,1.5-0.4,2.3c0,0.2-0.1,0.4-0.1,0.6c0.1,1-0.4,1.5-1.4,1.4c-0.7,0-1.5,0-2.2,0.1c-1,0-1.5-0.8-1.1-1.8
			c0.2-0.4,0-0.9,0-1.4c0.1-0.8,0.2-1.6,0.4-2.4c0.1-0.4,0.1-0.9,0.2-1.3c-0.7-0.5-1.5-0.3-2.3-0.3c-0.8,0-1.7,0.1-2.5,0.2
			c-0.3,1-0.6,2.1-0.8,3.2c-0.2,0.7-0.2,1.5-0.3,2.2c-0.2,1.5-1.2,2.3-2.7,1.9c-0.1,0-0.2-0.1-0.2-0.1c-1.5-0.4-1.8-1.2-1-2.5
			c0-0.1,0-0.2,0-0.3c0-0.1-0.1-0.3,0-0.4c0.5-0.6,0.3-1.4,0.3-2.1c0-0.3,0-0.7,0.2-0.9c0.4-0.6,0-1.3,0.3-1.9
			c0.1-0.3,0.1-0.7,0.6-0.8c0.1,0,0.2-0.4,0.2-0.7c0-0.2,0-0.5,0.1-0.7c0.3-1,0.7-2,0.9-3c0.2-0.8,0.2-1.7,0.4-2.5
			c0.3-1.1,0.6-2.1,1-3.1c0.1-0.4,0.1-0.8,0.2-1.2c0.3-0.7,0.6-1.4,0.9-2c0.1-0.1,0.2-0.2,0.3-0.2c0.9-0.3,1.7-0.5,2.6-0.7
			c0.6-0.1,0.9,0.1,0.8,0.7c-0.1,1-0.3,2-0.5,3c-0.2,1.1-0.6,2.1-0.9,3.2C230.3,39.8,229.9,41.6,229.5,43.4z"/>
		<path style="fill:#FAFAFA;" d="M295.4,63.7c-1,0.3-1.9,0.7-2.9,0.9c-0.9,0.3-1.9,0.4-2.9,0.6c-0.4,0.1-0.8,0.1-1.2,0.2
			c-1,0.3-1,0.3-1,1.3c0,0.9,0.1,1.7,0.1,2.6c0,1.6-0.1,3.3-0.2,4.9c0,0.7,0.1,1.4,0.2,2.2c0,1,0.1,2,0.1,3c0,1.4-0.1,2.8-0.1,4.3
			c0,0.8,0,1.6,0,2.4c0,0.2-0.2,0.6-0.4,0.7c-0.7,0.3-1.4,0.6-2.2,0.7c-1.1,0.1-2-0.6-2-1.8c0-2.4,0-4.9,0-7.3
			c0-0.9-0.1-1.8-0.1-2.7c0-0.8-0.1-1.7-0.1-2.5c0-1.8,0-3.6-0.1-5.4c0-0.1,0.1-0.3,0.1-0.4c0.1-0.4-0.2-0.8-0.7-0.8
			c-0.8,0.1-1.5,0.2-2.3,0.2c-0.8,0.1-1.6,0-2.4,0.1c-0.4,0-0.8,0.2-1.1,0.3c-0.6,0-1.1,0-1.7,0c-0.3-1.5-0.5-2.9-0.8-4.4
			c0.6-0.4,1.3-0.3,1.9-0.3c1.2,0,2.3-0.1,3.5-0.2c1.4-0.2,2.7-0.5,4.1-0.7c0.3,0,0.5,0,0.8-0.1c2.4-0.5,4.9-1,7.3-1.4
			c1-0.2,1.9-0.2,2.9-0.2c0.2,0,0.4,0.2,0.5,0.4c0.3,1.1,0.5,2.2,0.7,3.3C295.4,63.6,295.4,63.6,295.4,63.7z"/>
		<path style="fill:#FAFAFA;" d="M228,110.7c1.3,0.1,2.7,0.2,4,0.3c1.5,0.1,3,0.1,4.5,0.2c0.9,0.1,1.2,0.4,1.2,1.3
			c0,0.3,0,0.6-0.1,0.9c-0.2,0.4-0.4,0.8-0.7,0.9c-0.5,0.2-1.1,0.3-1.6,0.3c-1.8,0-3.5-0.2-5.3-0.2c-0.9,0-1,0.1-1,1
			c0,0.6,0.1,1.1,0.1,1.7c0.1,0.6,0.5,0.8,1,1c2.2,0.7,4.5,0.9,6.8,0.8c0.8,0,1.5,0,2.4,0c-0.1,0.6-0.1,1.1-0.2,1.7
			c0,0.1,0,0.2,0,0.4c-0.1,0.9-0.3,1.1-1.2,1c-1.5,0-3,0.1-4.4-0.1c-2.2-0.3-4.6-0.3-6.7-1.1c-0.5-0.2-0.8-0.8-1.1-1.2
			c-0.2-0.4-0.2-0.8-0.3-1.3c-0.1-0.4-0.2-0.7-0.2-1.1c0-0.2,0.1-0.4,0.1-0.7c-0.7-0.9-0.9-2-1-3.2c-0.1-0.6-0.3-1.2-0.4-1.8
			c-0.3-1.3-0.5-2.7-0.8-4c-0.3-1.5-0.5-2.9-0.8-4.4c0-0.3-0.1-0.5-0.1-0.8c0-0.9,0.4-1.2,1.3-1.1c3.8,0.2,7.7,0.4,11.5,0.5
			c2,0.1,3,1.4,2.2,3.4c-0.6,1.5-0.6,1.5-2.1,1.5c-2.2-0.1-4.5-0.2-6.7-0.3c-0.4,0-0.7,0.2-0.7,0.6c0,0.8,0,1.6,0,2.3
			C227.9,109.7,227.9,110.1,228,110.7z"/>
		<path style="fill:#FAFAFA;" d="M252.5,47.4c-0.9,0-1.5,0-2.2,0c-1.4,0.1-2.7,0.2-4.1,0.3c-0.3,0-0.4,0.1-0.5,0.5
			c-0.2,1.3-0.6,2.5-0.9,3.8c-0.1,0.3,0,0.7-0.1,1c-0.1,0.2-0.3,0.4-0.5,0.5c0,0-0.2,0-0.2,0c-2.1,0.2-3-0.1-2.5-2.8
			c0.2-1,0.5-2.1,0.7-3.1c0.1-0.6,0.2-1.2,0.3-1.9c0.2-1.1,0.4-2.1,0.6-3.2c0.2-1.2,0.5-2.4,0.7-3.6c0.1-0.6,0.3-1.1,0.4-1.6
			c0.1-0.5,0.2-1,0.3-1.5c0.2-1.3,0.5-2.6,0.7-4c0.1-0.7,0.4-1.4,0.9-1.9c0.4-0.3,1-0.7,1.5-0.7c1.1-0.1,2.1,0,3.2,0.1
			c0.9,0.1,1.4,0.7,1.7,1.5c1.2,2.9,1.9,6,2.4,9.1c0.3,2.2,0.9,4.3,1.3,6.5c0.3,1.1,0.6,2.2,0.9,3.4c0.2,0.9,0.2,1.7,0,2.6
			c0,0.1-0.2,0.3-0.3,0.4c-0.9,0.6-1.9,0.8-2.9,0.5c-0.4-0.1-0.6-0.4-0.4-0.8c0.1-0.2,0.1-0.4,0.1-0.7c-0.2-1-0.5-2-0.8-3
			C252.6,48.3,252.5,47.8,252.5,47.4z M246.4,44.2c0.7,0,1.4,0,2.1,0c0.9-0.1,1.8-0.3,2.6-0.2c0.9,0.1,0.8-0.2,0.5-0.8
			c0-0.1,0-0.2,0-0.2c-0.2-1.5-0.3-3.1-0.6-4.6c-0.3-1.6-0.8-3.3-1.2-4.9c-0.1-0.4-0.5-0.7-0.8-1c-0.2,0.3-0.6,0.7-0.7,1.1
			c-0.3,1.3-0.5,2.6-0.8,3.9c-0.2,1-0.4,2.1-0.6,3.1C246.8,41.8,246.6,43,246.4,44.2z"/>
		<path style="fill:#FAFAFA;" d="M264.7,85.5c1.3-0.2,2.5-0.3,3.6-0.5c0.8-0.1,1.6-0.2,2.3-0.3c0.2,0,0.4,0,0.6,0
			c0.7,0.2,1.1-0.3,1.7-0.6c0.2-0.1,0.5-0.3,0.6-0.2c0.4,0.2,0.7,0.1,1.1-0.1c0.6-0.4,1.2,0.2,1.8,0.2c0.1,0,0.3,0.4,0.3,0.6
			c0,0.6,0,1.3,0,1.9c0,0.2,0,0.3,0,0.5c0,0.4,0,1-0.1,1c-0.6,0.2-1.2,0.2-1.7,0.2c-0.3,0-0.7-0.1-1-0.1c-1.3,0.2-2.6,0.5-3.9,0.7
			c-1.1,0.2-2.2,0.3-3.2,0.5c-0.4,0.1-0.9,0.2-1.2,0.4c-0.8,0.5-1.5,0.9-2.4,0.4c-0.1,0-0.2,0-0.2,0c-1,0.6-2.2,0.5-3.3,0.6
			c-0.1,0-0.1,0-0.2-0.1c-0.1-1.1-0.1-2.1-0.2-3.2c0-0.7-0.1-1.3,0-2c0-0.4,0.2-0.8,0.2-1.2c0-1.2,0.1-2.4,0-3.5
			c0-1.1-0.2-2.1-0.3-3.2c0-0.4,0.1-0.7,0.2-1.1c0-1.9,0-3.9,0.1-5.8c0-1.2,0.1-2.3,0.2-3.5c0-0.7,0.1-1.4,0.1-2.1
			c0-0.4-0.1-0.9-0.2-1.3c-0.3-0.7,0.1-1,0.6-1.1c0.4-0.1,0.9-0.2,1.4-0.3c0.6-0.1,1.2-0.1,1.7-0.2c0.4,0,0.7,0.1,0.8,0.5
			c0.1,0.7,0.1,1.4,0.1,2.1c0,0.7,0.1,1.3,0.1,2c0,1.7,0,3.4,0.1,5.1c0,1.3,0,2.7,0.1,4c0.1,2.3,0.1,4.7,0.2,7
			C264.6,84,264.7,84.8,264.7,85.5z"/>
		<path style="fill:#F9F9F9;" d="M261.7,38.5c-0.1,0-0.3-0.1-0.5-0.1c0.2,1.4,0.3,2.8,0.5,4.2c0.1,0.9,0.2,1.9,0.4,2.8
			c0.2,1.4,0.5,2.7,0.7,4.1c0.1,0.7,0.2,1.5,0.3,2.2c0.1,0.5-0.1,0.7-0.6,0.8c-0.7,0.1-1.4,0.1-2.1,0.2c-0.2-1.4-0.3-2.7-0.6-4
			c-0.4-2.7-0.9-5.3-1.4-8c-0.4-2.4-0.8-4.7-1.2-7.1c-0.1-0.5-0.2-1.1,0.3-1.4c0.6-0.3,1.2-0.4,1.8,0c0.2,0.1,0.6,0.1,0.8,0.3
			c0.3,0.2,0.5,0.5,0.8,0.8c0.1,0.1,0.3,0.2,0.4,0.4c0.6,0.6,1.1,1.3,1.7,1.8c0.3,0.3,0.6,0.5,0.9,0.7c0.5-0.8,0.9-1.7,1.3-2.5
			c0.2-0.5,0.5-0.7,1-0.7c1.2,0.1,2.2,0.6,2.5,1.7c0.5,1.7,0.9,3.4,1.3,5.1c0.3,1.1,0.5,2.2,0.7,3.2c0.1,0.4,0,0.8,0.1,1.3
			c0.3,1.1,0.6,2.3,0.8,3.4c0.2,1,0.2,2.1,0.3,3.1c0,0.2-0.3,0.4-0.5,0.5c-0.5,0.1-0.9,0.2-1.4,0.3c-0.8,0.2-1.1,0-1.2-1
			c-0.6-3.3-1.2-6.6-1.8-9.9c-0.1-0.3-0.2-0.6-0.3-1c-0.1,0-0.2,0-0.2,0c-0.1,0.5-0.3,1-0.4,1.5c-0.2,0.8-0.3,1.5-0.5,2.3
			c-0.1,0.2-0.4,0.6-0.6,0.5c-0.4,0-1,0.1-1.1-0.5c-0.1-0.3-0.3-0.5-0.5-0.7c-0.1-0.1-0.2-0.1-0.2-0.2c-0.2-1.1-0.7-2-1.3-3
			C261.9,39.1,261.8,38.8,261.7,38.5z"/>
		<path style="fill:#F0BD9B;" d="M118.1,76.4c-0.4-1.1-0.8-2.2-1.3-3.4c0.9,0,1.7,0.2,2.4,0.1c1.2-0.1,2.5,0.2,3.7-0.5
			c0.2-0.1,0.5,0,0.7-0.1c0.9-0.2,1.7-0.5,2.6-0.8c1.3-0.4,2.6-0.9,4-0.8c0.1,1.1,0.6,1.3,1.9,0.8c0.7,0.7,1.5,1.3,1.7,2.4
			c0.1,0.9,0.7,1.6,1.1,2.4c0.4,0.8,0.9,1.7,1,2.6c0.1,0.5,0.3,1.1,0.5,1.7c-0.6,0.2-1.3,0.3-1.9,0.5c-0.5,0.1-1,0.3-1.6,0.4
			c-0.5,0.1-1,0.2-1.5,0.3c-0.1,0-0.2,0-0.3,0c-2.3,0.6-4.7,0.4-7,0.6c-0.9,0.1-1.9,0-2.8-0.1c-0.7-0.1-1.2-0.5-1.5-1.2
			c-0.1-0.4-0.4-0.8-0.6-1.2c-0.4-0.9-0.7-1.7-1-2.6c0.2,0.1,0.5,0.1,0.7,0.2c1.1,0.6,2.3,0.5,3.5,0.4c1.7-0.1,3.4-0.6,5-1.3
			c0.5-0.2,1-0.4,1.5-0.5c0.5-0.2,1-0.3,1.5-0.4c0-0.1,0-0.1,0-0.2c-0.2,0-0.4-0.1-0.6-0.1c-0.5,0.1-1.1,0.1-1.6,0.3
			c-1.1,0.2-2.3,0.5-3.4,0.8c-1.4,0.4-2.8,0.6-4.2,0.3C120,76.6,119.1,76.1,118.1,76.4z"/>
		<path style="fill:#FAFAFA;" d="M247.8,92c-0.7-0.1-1.3-0.2-1.7-0.4c-0.4-0.1-0.7-0.4-0.3-0.9c0.2-0.3,0.2-0.6,0.1-1
			c-0.1-1-0.2-2-0.3-3.1c-0.1-0.7-0.1-1.4-0.1-2.1c0-0.5-0.2-1-0.1-1.5c0.4-1.7,0.1-3.5,0.1-5.2c0.1-1.6,0.1-3.2,0.2-4.7
			c0-0.7-0.1-1.4-0.2-2.1c0-0.7-0.1-1.4,0-2c0.1-1.3,0.2-2.6,0.4-3.9c0.1-0.7,0.5-1,1.1-1.1c1-0.1,2-0.2,3-0.2c0.7,0,0.8,0.3,0.8,1
			c-0.1,0.9-0.2,1.8-0.1,2.7c0,1.3,0.1,2.6-0.1,3.9c-0.1,0.6,0,1.3,0.1,2c0,1.3,0,2.6,0.1,3.8c0.1,1.8,0.2,3.5,0.2,5.3
			c0.1,1.3,0.2,2.6,0.2,3.9c0,1.1-0.1,2.2-0.1,3.3c0,0.8-0.5,1.3-1.3,1.6C249,91.6,248.4,91.9,247.8,92z"/>
		<path style="fill:#EFBC9B;" d="M114.5,59.7c0.2-0.1,0.4-0.2,0.6-0.3c0.2-0.1,0.3-0.1,0.5-0.1c2.2,0.8,4.3,0.5,6.2-0.8
			c0.4-0.3,0.7-0.6,1.2-0.8c0.4-0.2,0.9-0.4,1.3-0.3c1.6,0.4,3.1,1,4.8,1.6c-0.6,0.7-1.1,1.3-1.6,1.9c-0.2,0.3-0.4,0.6-0.6,0.9
			c-0.1,0.2-0.3,0.4-0.4,0.5c-0.5,0.2-0.5,0.5-0.1,1c0.3-0.5,0.6-0.9,0.9-1.3c0.8-0.8,1.7-1.6,2.5-2.4c0.1-0.1,0.5,0,0.7,0.2
			c0.7,0.5,1.5,0.8,1.8,1.6c-1.1,1.2-1.6,2.7-2.3,4c0,0.1,0.1,0.2,0.2,0.5c0.5-0.6,0.9-1.1,1.3-1.5c0.6-0.7,1.2-1.5,1.9-2.3
			c1.2,1,2.3,1.9,3.4,2.9c0.1,0.1,0,0.4-0.1,0.5c-1.1,1.6-2.5,2.8-4.1,4c-0.1,0.1-0.5,0.1-0.6,0c-1.3-0.9-2.7-1.8-3.9-3
			c-0.4-0.4-0.9-0.7-0.7-1.3c-0.3-0.2-0.5-0.5-0.7-0.6c-0.3-0.1-0.7-0.2-1-0.1c-0.3,0.1-0.6,0.5-0.6,0.7c0.1,0.6-0.3,0.8-0.7,0.9
			c-0.9,0.2-1.9,0.5-2.9,0.6c-1.2,0.1-2.4,0.2-3.5,0.1c-0.7,0-1.3-0.4-1.9-0.7c-0.4-0.2-0.6,0-0.7,0.4c-0.1-0.4-0.2-0.8-0.3-1.2
			c-0.2-0.9-0.5-1.8-0.7-2.7c-0.1-0.2-0.1-0.5-0.1-0.7c0.2,0,0.5-0.1,0.7-0.1c1,0.2,2.1,0.5,3.1,0.6c1.2,0.1,2.4,0,3.5-0.6
			c0.4-0.2,0.9-0.4,1.3-0.8c0.6-0.5,1.1-1,1.7-1.6c0-0.1-0.1-0.1-0.1-0.2c-0.6,0.3-1.3,0.5-1.9,0.8c-2.2,1.2-4.4,1.5-6.7,0.7
			C115.2,60.6,114.7,60.3,114.5,59.7z"/>
		<path style="fill:#F9F9F9;" d="M271.2,115.4c-0.7-0.1-0.9-0.4-0.7-1c0-0.1,0-0.3,0-0.5c-0.1-0.6-0.2-1.2-0.3-1.8c0,0,0-0.1,0-0.1
			c0.7-0.7,0.3-1.5,0.4-2.3c0-0.6,0.2-1.2,0.3-1.7c0-0.1,0.1-0.2,0.1-0.3c-0.3-0.8,0.1-1.4,0.2-2.2c0.2-0.9,0.2-1.9,0.2-2.8
			c0-0.3-0.3-0.6-0.4-0.9c-0.2-0.9,0.7-1.9,1.6-1.8c0.1,0,0.2,0,0.4,0c1.2-0.3,2.4-0.7,3.6-0.9c1.5-0.3,3.1-0.7,4.6-0.7
			c1.2,0,2.7,0.2,3.3,1.5c0.2,0.4,0.2,1,0,1.5c-0.2,0.7-0.5,1.4-0.9,2c-0.2,0.4-0.6,0.8-1,1.1c-0.6,0.6-1,1.3-1,2.2
			c0,0.5-0.2,1.1-0.3,1.6c0,0.5,0,1,0.1,1.5c0,0.2,0.1,0.4,0,0.5c-0.4,0.5-0.8,1.2-1.3,1.4c-0.4,0.2-1.1-0.1-1.6-0.3
			c-0.1-0.1,0-0.6,0-1c0-0.1,0-0.2,0-0.3c-0.5-0.5-0.5-1.1-0.5-1.7c0-0.1-0.3-0.3-0.4-0.3c-0.9,0.3-1.9,0.4-2.4,1.3
			c-0.1,0.1-0.1,0.3-0.1,0.4c0,0.1,0.1,0.3,0,0.4c-0.5,0.4-0.4,1-0.6,1.5c-0.1,0.3-0.2,0.7-0.2,1c0.1,1.1-0.9,2.2-1.8,2.4
			C271.9,115.2,271.6,115.3,271.2,115.4z M274.6,106.5c0.6-0.2,1-0.4,1.4-0.6c0.5-0.1,1-0.1,1.5-0.2c0.2,0,0.4-0.2,0.6-0.3
			c0.3-0.1,0.6-0.3,0.9-0.4c1.2-0.4,1.9-1.6,1.8-2.8c-0.1-0.7-0.3-0.8-0.9-0.8c-0.7,0.1-1.4,0.2-2.2,0.4c-0.6,0.1-1.3,0.2-1.9,0.4
			c-0.5,0.2-0.8,0.7-0.8,1.2c-0.1,0.6-0.2,1.2-0.3,1.8C274.6,105.6,274.6,106,274.6,106.5z"/>
		<path style="fill:#FAFAFA;" d="M210,103.1c0.1,0.6,0.2,1.1,0.2,1.6c0.1,0.6,0.4,1,1.1,1c1.2,0,2.4,0,3.5,0.1c0.2,0,0.5,0,0.9,0
			c-0.2,0.8-0.4,1.6-0.6,2.3c-0.1,0.2-0.5,0.4-0.8,0.4c-1,0-2-0.1-3-0.1c-0.2,0-0.4,0-0.7,0c0.9,1.4,0.9,2.9,1.3,4.3
			c0.1,0.2,0.1,0.4,0.2,0.6c0.2,0.5,0,0.9-0.5,0.8c-1.6-0.3-3.1-0.7-3.8-2.5c-0.5-1.2-1.1-2.4-1.5-3.7c-0.4-1.2-0.6-2.5-0.8-3.7
			c-0.2-1.1-0.4-2.2-0.6-3.3c-0.1-0.5-0.1-1-0.1-1.5c0-0.4,0.5-0.7,1.1-0.6c1.9,0.3,3.8,0.5,5.7,0.8c1.2,0.2,2.3,0.3,3.5,0.5
			c0.7,0.1,0.8,0.4,0.7,1.1c0,0.6,0,1.1-0.3,1.7c-0.2,0.5-0.5,0.5-0.8,0.5c-1.4-0.1-2.8-0.2-4.2-0.3
			C210.3,103,210.2,103.1,210,103.1z"/>
		<path style="fill:#F9F9F9;" d="M214.3,42.8c0-0.9,0-1.9,0-2.8c0.1-2.7,1.5-4,3.8-4.7c1.9-0.6,3.6,0.5,4.5,2.3
			c0.3,0.6,0,1.1-0.4,1.4c-0.3,0.2-0.9,0.2-1.4,0.2c-0.1,0-0.2-0.1-0.2-0.2c-0.4-0.7-0.9-1.2-1.8-1.1c-0.7,0.1-1.5,1.3-1.5,2
			c0,1.2,0.1,2.4,0.2,3.6c0.2,2,0.2,4.1-0.7,5.9c-0.4,0.8-1.2,1.4-2.1,1.8c-1.1,0.4-2,0.4-3,0.1c-1.1-0.3-2.2-0.4-2.9-1.5
			c0-0.1-0.1-0.1-0.2-0.2c-0.8-0.7-0.8-0.7-0.5-1.4c0.5-1,1.2-1.4,2-1.2c0.5,0.2,1,0.4,1.5,0.6c1.3,0.5,2.6,0.2,2.6-1.5
			C214.4,45.1,214.4,44,214.3,42.8C214.3,42.8,214.3,42.8,214.3,42.8z"/>
		<path style="fill:#F8F8F8;" d="M276.3,38.7c0.2,1.1,0.4,2.1,0.6,3.2c0.1,0.4,0.3,0.5,0.7,0.5c1,0,2,0,2.9,0c0.5,0,0.8,0.1,0.8,0.6
			c0,0.1,0.1,0.2,0.1,0.2c0.5,1.4,0.4,1.5-1.1,1.5c-0.8,0-1.5-0.1-2.3-0.1c-0.8,0-0.9,0.2-0.8,1c0.1,0.3,0.1,0.7,0.2,1.1
			c0.1,0.8,0.5,1.2,1.3,1.2c0.9-0.1,1.9-0.2,2.8-0.4c0.5-0.1,0.8,0.1,0.7,0.5c-0.2,0.6,0.1,1.1,0.1,1.7c0,0.7-0.4,1-1,1.1
			c-1,0.2-2.1,0.3-3.1,0.6c-1.3,0.4-2.5-0.3-2.9-1.6c-0.4-1.3-0.6-2.6-0.9-3.9c-0.2-1.1-0.3-2.3-0.6-3.4c-0.3-1.5-0.6-2.9-0.9-4.4
			c0-0.1,0-0.2-0.1-0.3c-0.2-1.9-0.2-2,1.7-1.9c0.8,0,1.6,0.3,2.4,0.4c0.2,0,0.4,0,0.6,0c0.4,0.1,0.8,0.1,1.1,0.4
			c0.5,0.5,0.9,1.1,1.3,1.6c0.1,0.2,0.1,0.5,0.1,0.7c0,0.1-0.4,0.1-0.5,0.1c-0.7-0.1-1.4-0.2-2.1-0.3
			C277,38.7,276.7,38.7,276.3,38.7z"/>
		<path style="fill:#EFBC9B;" d="M129.6,70c-0.9,0.3-1.6,0.5-2.3,0.7c-1.1,0.3-2.1,0.7-3.3,0.9c-1.3,0.2-2.5,0.3-3.8,0.3
			c-0.8,0-1.7-0.1-2.4,0.3c-1,0.4-1,0.3-1.2-0.7c-0.3-1.1-0.7-2.2-1-3.3c-0.1-0.5-0.2-1-0.3-1.6c1.8,1,3.7,1.2,5.5,1.1
			c0.7-0.1,1.3-0.4,1.9-0.6c0.4-0.1,0.8-0.3,1.2-0.4c0.3-0.1,0.5-0.3,0.8-0.4c0.3-0.2,0.9-0.1,1.2,0.2c0.9,1,1.9,1.9,2.8,2.8
			C129,69.5,129.3,69.7,129.6,70z"/>
		<path style="fill:#FAFAFA;" d="M105.7,60.3c-0.1,1.2-0.2,2.4-0.3,3.6c0,0.5,0.1,1,0.2,1.6c-0.7,0-1.4-0.1-2.1-0.1
			c-1.4,0-2.7-0.1-4.1-0.1C98.3,65.2,97.2,65,96,65c-0.6,0-1.1,0-1.7,0c-0.4,0-0.5-0.2-0.5-0.6c-0.2-1,0.1-1.9,0.1-2.8
			c0-0.5,0.1-0.7,0.7-0.7c2.2,0,4.5-0.1,6.7-0.2c0.7,0,1.3-0.2,2-0.2c0.5,0,0.9,0.1,1.4,0.1C105,60.4,105.3,60.4,105.7,60.3z"/>
		<path style="fill:#F8F8F8;" d="M134.4,70.5c0.6-0.6,1.3-1.3,1.9-2c0.6-0.7,1.2-1.4,1.9-2.1c0.6,0.7,1.2,1.3,1.7,1.9
			c1.5,2.1,2.6,4.4,3.5,6.8c0.7,1.7,1.6,3.3,2.4,5c0.4,0.7,0.8,1.4,1.2,2.1c-0.5,0.2-0.9,0.5-1.4,0.7c-0.1,0-0.3-0.1-0.4-0.2
			c-0.5-0.7-0.9-1.3-1.4-2c-0.5-0.7-1.1-1.3-1.6-2.1c-0.5-0.8-1-1.7-1.4-2.5c-0.8-1.5-1.6-3-2.6-4.5c-0.2-0.4-0.9-0.6-1.4-0.7
			C136.1,70.8,135.2,70.7,134.4,70.5z"/>
		<path style="fill:#FAFAFA;" d="M183.7,102.5c-0.1-0.7-0.2-1.3-0.4-2c-0.2-0.6-0.6-1.1-0.9-1.8c0.3-0.3,0.6-0.6,0.9-1.1
			c0.7-1,1.7-1.4,2.7-1.7c0.4-0.1,0.8-0.3,1.2-0.5c0.8-0.5,1.5-0.2,2.2,0.1c0.3,0.1,0.5,0.6,0.7,1c0.4,0.9,0.7,1.8,1.1,2.7
			c0.2,0.5-0.2,0.7-0.4,0.8c-0.9,0.6-1.8,1.3-2.7,1.7c-1,0.4-2,0.6-3.1,0.8C184.6,102.6,184.2,102.5,183.7,102.5z"/>
		<path style="fill:#E1D2B5;" d="M92.2,64.6c-0.1,0-0.2,0.1-0.2,0.1c-0.3-0.1-0.8-0.3-0.9-0.2c-0.5,0.4-0.9,0.9-1.2,1.4
			c-0.3,0.4-0.5,1-0.7,1.4c-0.7-0.2-0.9-0.6-0.7-1.2c0.1-0.3,0.1-0.7,0.1-1.1c0.1-0.3,0.2-0.7,0.3-1.2c-0.7,0-1.2-0.1-1.8-0.1
			c-1.3,0-2.6-0.1-3.9-0.1c-0.6,0-0.7-0.4-0.6-0.8c-0.5-0.3-1-0.5-1.5-0.8c0.9-0.7,1.9-0.6,2.8-0.6c1.1-0.1,2.2-0.3,3.3-0.4
			c1.7-0.2,3.4-0.3,5.1-0.4C92.5,62.1,92.2,63.3,92.2,64.6z"/>
		<path style="fill:#F4F4F4;" d="M178.6,102.7c0.8-0.5,1.2-0.4,1.8,0.3c0.4,0.4,0.8,0.7,1.3,1c0.1,0.1,0.4,0.1,0.4,0
			c0.3-0.4,0.6-0.2,0.8-0.1c1,0.5,2.1,0.3,3.2,0.2c1.3-0.1,2.5-0.4,3.5-1.2c0.6-0.4,1.2-0.9,1.8-1.4c0.2-0.2,0.5-0.3,0.9-0.5
			c0.2,0.4,0.5,0.8,0.4,1.1c-0.1,0.5-0.3,1-0.6,1.3c-0.8,0.6-1.7,1-2.6,1.5c-0.6,0.4-1.3,0.4-1.9,0.4c-0.6,0.1-1.2,0.4-1.9,0.5
			c-1.3,0.2-2.6-0.1-3.8-0.6C179.9,104.8,179.7,104.5,178.6,102.7z"/>
		<path style="fill:#EBB998;" d="M110.2,65.6c-0.7,0.1-1.3,0.1-1.8,0.1c-0.6,0-1.4-1.2-1.2-1.9c0-0.2,0-0.3,0-0.5
			c-0.1-0.8-0.3-1.5-0.4-2.3c-0.1-0.5,0.2-0.7,0.7-0.7c0.2,0,0.4,0,0.6,0c0.9-0.1,1.1,0,1.2,0.9c0.1,1,0.3,2,0.4,3
			C109.9,64.6,110.1,65,110.2,65.6z"/>
		<path style="fill:#0C0C0C;" d="M118.1,76.4c1-0.3,1.9,0.2,2.8,0.4c1.4,0.4,2.8,0.2,4.2-0.3c1.1-0.3,2.2-0.6,3.4-0.8
			c0.5-0.1,1.1-0.2,1.6-0.3c0.2,0,0.4,0.1,0.6,0.1c0,0.1,0,0.1,0,0.2c-0.5,0.1-1,0.3-1.5,0.4c-0.5,0.2-1.1,0.3-1.5,0.5
			c-1.6,0.7-3.2,1.1-5,1.3c-1.2,0.1-2.4,0.1-3.5-0.4c-0.2-0.1-0.5-0.1-0.7-0.2c0,0,0-0.1,0-0.1c0.1,0,0.1-0.1,0.2-0.1
			c-0.1,0-0.2,0-0.3,0C118.2,76.9,118.2,76.6,118.1,76.4z"/>
		<path style="fill:#F0F0F0;" d="M189.3,94.1c-1.3-0.2-2.7-0.2-3.9,0.5c-0.7,0.4-1.5,0.6-2.2,1.1c-0.5,0.3-1,0.8-1.4,1.3
			c-0.4,0.5-0.9,0.7-1.6,0.6c0.1-0.3,0.2-0.6,0.3-0.7c1-0.9,2-1.9,3-2.8c0.4-0.3,0.9-0.6,1.3-0.9c0.8-0.6,3.5-0.6,4.1-0.1
			c0.3,0.2,0.4,0.6,0.6,0.9C189.4,94.1,189.3,94.1,189.3,94.1z"/>
		<path style="fill:#F4F4F4;" d="M180.6,99.5c0.2,0.1,0.3,0.4,0.5,0.4c0.9,0.3,1.4,1.5,1.3,2.5c0,0.1-0.2,0.2-0.3,0.3
			c-0.1,0-0.3,0-0.4-0.1c-0.5-0.6-1.1-1.1-1.8-1.4c-1.7-0.6-2.4-0.1-3.2,1.1c-0.1,0.2,0,0.5,0,0.7c0.2,0.7,0.1,1.3-0.3,1.9
			c-0.7-0.5-0.9-1.1-0.6-1.9c0.1-0.1,0.1-0.3,0.1-0.5c-0.2-1.3,0.8-2.4,2-2.5c0.7-0.1,1.5,0.1,2-0.5c0.1-0.1,0.4-0.1,0.6-0.2
			C180.6,99.4,180.6,99.4,180.6,99.5z"/>
		<path style="fill:#F4F4F4;" d="M149.1,122.6c0.7-0.5,1.4-0.9,2.1-1.4c0.9-0.6,1.8-1.2,2.6-1.8c0.4-0.3,0.9-0.3,1.3,0
			c0.7,0.8,0.6,1.5-0.7,2.1c-0.7,0.3-1.4,0.5-2,0.8c-0.4,0.2-0.8,0.4-1.1,0.6C150.2,123.7,150,123.6,149.1,122.6z"/>
		<path style="fill:#F0F0F0;" d="M159.3,119c3-0.3,4.1-2.2,4.5-4.9c0.1,0,0.1,0,0.2-0.1c0.1,0.2,0.4,0.4,0.4,0.7
			c0.3,1.5,0.1,3.5-2,4.3c-0.7,0.3-1.5,0.5-2.2,0.7C159.8,119.9,159.6,119.7,159.3,119z"/>
		<path style="fill:#F0F0F0;" d="M165.7,115.5c-0.1-0.4-0.1-0.9-0.2-1.3c0.3-0.1,0.6-0.3,0.9-0.4c1.2-0.5,1.7-1.4,1.8-2.7
			c0-0.2,0.2-0.4,0.4-0.6c0.2,0.2,0.5,0.3,0.5,0.5C169.7,113.7,167.7,115.6,165.7,115.5z"/>
		<path style="fill:#F0F0F0;" d="M164.2,110.9c-1.1,0.9-1.1,2.2-1.3,3.4c-0.1,0.5-0.3,0.9-0.4,1.4c-0.1,0.1-0.3,0.4-0.4,0.3
			c-0.2-0.1-0.6-0.3-0.6-0.4c-0.1-1.1-0.2-2.2,0.3-3.2C162.2,111.3,163,110.8,164.2,110.9z"/>
		<path style="fill:#F0F0F0;" d="M172.8,106.5c0.2,0.2,0.5,0.4,0.6,0.7c0.2,0.4,0.3,0.8-0.1,1.2c-0.3,0.3-0.3,0.8-0.5,1.2
			c-0.5,0.9-1.8,2.2-2.9,2.5c-0.1-0.5-0.2-1-0.3-1.5c1-0.1,1.7-0.5,2.2-1.4C172.2,108.4,172.5,107.5,172.8,106.5z"/>
		<path style="fill:#EBEBEB;" d="M166.9,111.8c-0.2-0.3-0.5-0.4-0.6-0.7c-0.5-1.2-0.2-2.6,0.8-3.4c0.4-0.3,0.9-0.7,1.4-0.9
			c0.1-0.1,0.4,0.1,0.6,0.2c-0.1,0.2-0.2,0.4-0.4,0.5c-0.8,0.4-1.3,1-1.4,1.9C167.3,110.1,167.1,110.9,166.9,111.8z"/>
		<path style="fill:#EBEBEB;" d="M171.4,108.4c-0.8-0.9-0.8-2-0.2-2.7c0.3-0.4,0.6-0.8,0.9-1.2c0.4-0.6,1.6-1,2.2-0.8
			c0.2,0,0.3,0.4,0.5,0.7C172.2,104.5,171.8,106.4,171.4,108.4z"/>
		<path style="fill:#F0F0F0;" d="M177.7,104.4c0.8,0.5,0.8,1,0,1.6c-0.3,0.2-0.4,0.6-0.6,1c-0.5,0.9-1.3,1.3-2.3,1.4
			c-0.1,0-0.4-0.1-0.4-0.2c0-0.2,0.1-0.6,0.2-0.6C176.3,107.2,176.9,105.7,177.7,104.4z"/>
		<path style="fill:#F0F0F0;" d="M161.5,117.4c-0.7,0.5-1.3,0.8-2.2,0.9c-0.5,0-0.6-0.2-0.5-0.6c0.1-0.7,0.5-1,1-1.1
			c0.5-0.2,0.9-0.1,1.2,0.4C161.2,117,161.4,117.2,161.5,117.4z"/>
		<path style="fill:#EBEBEB;" d="M157.9,117.4c-0.7-0.2-1-0.8-0.5-1.3c0.7-0.7,1.5-1,2.4-1.2c0.4-0.1,0.5,0.1,0.5,0.6
			C159.2,115.7,158.4,116.3,157.9,117.4z"/>
		<path style="fill:#EBEBEB;" d="M169.5,108.1c0.3,0.4,0.6,0.7,0.9,1.1c-0.3,0.3-1.6,0.6-1.9,0.4c-0.1-0.1-0.2-0.3-0.1-0.4
			C168.5,108.6,168.9,108.3,169.5,108.1z"/>
		<path style="fill:#EBEBEB;" d="M175.6,105.9c-0.7,0.9-1,0.9-2.1-0.1C174.1,105.2,175,105.3,175.6,105.9z"/>
		<path style="fill:#EBEBEB;" d="M164.9,111.5c0.3,0.4,0.5,0.7,0.8,1c-0.4,0.6-0.7,0.6-1.6,0.1C164.3,112.2,164.6,111.9,164.9,111.5
			z"/>
		<path style="fill:#A3B4D0;" d="M210.4,86.2c0.3-0.3,0.6-0.7,1.1-0.5C211.2,86,211,86.5,210.4,86.2z"/>
		<path style="fill:#F0BD9B;" d="M118.3,77.1c0.1,0,0.2,0,0.3,0c-0.1,0-0.1,0.1-0.2,0.1C118.3,77.2,118.3,77.2,118.3,77.1z"/>
		<path style="fill:#E6D7B9;" d="M43.7,7.5c0.1,0,0.3-0.1,0.5-0.1c0,0.1-0.1,0.2-0.1,0.3c1,0.8,2,1.5,2.6,2c1.1,0.4,1.9,0.7,2.6,0.9
			c0.6,0.2,1.2,0.4,1.8,0.6c0.5,0.2,1.1,0.4,1.6,0.5c0.9,0.1,1.5,1,2.5,0.6c0.1,0,0.3,0,0.4,0.1c0.8,0.7,2,0.7,2.9,1.4
			c0.5,0.3,1.1,0.4,1.7,0.6c0.1,0.1,0.3,0.1,0.6,0.2c-0.9,0.6-1.7,1.2-2.5,1.8c0.5,0.4,0.7,1,1.4,0.7c0,0,0.2,0.2,0.3,0.4
			c0.6-0.4,1.2-0.7,1.7-1.1c0.4-0.4,0.7-0.3,1,0c-1,0.6-1.9,1.3-2.8,1.9c-0.1,0.1-0.1,0.3-0.2,0.4c0.2,0.1,0.4,0.3,0.6,0.3
			c0.7,0,1.4,0,2.2,0c-0.7-0.5-0.6-0.6,0.1-1.1c0,0.5,0.1,0.9,0,1.3c-0.1,0.8-0.3,1.6-0.5,2.3c-0.4,1.2-0.9,2.5-1.4,3.7
			c-0.5,1.3-1,2.5-1.5,3.8c-0.5,1.3-1,2.7-1.5,4c-0.2,0.5-0.4,0.9-0.7,1.5c-0.3-0.1-0.7-0.3-1.1-0.3c-0.9,0-1.7,0-2.6,0.1
			c-0.3,0-0.6,0.1-0.8,0C52.2,34.3,52,34,52,33.8c0-0.1,0.2-0.3,0.4-0.4c0.5-0.3,0.3-0.9,0.5-1.3c0.1-0.4,0-0.9,0.1-1.4
			c0.2-0.9,0.4-1.8,0.6-2.7c0.4-1.3,0.8-2.6,1.3-3.9c0.1-0.4,0.4-0.8,0.7-1.3c-0.4-0.1-0.7-0.2-1-0.2c-1.3,0-2.5,0.2-3.8,0.1
			c-1.5,0-3-0.1-4.5-0.3c-0.7-0.1-1.3-0.5-1.9-0.7c-0.1,0-0.2-0.2-0.3-0.3c-0.1-0.7-0.8-0.8-1.3-1c-0.3-0.2-0.9,0-1.3,0.2
			c-0.3,0.2-0.4,0.6-0.1,0.9c0.3,0.3,0.4,0.7,0.4,1.1c0.1,0.6,0.1,1.5,1.1,1.7c0.2,0,0.4,0.4,0.6,0.7c0.4,0.6,0.6,1.2,1.1,1.7
			c0.4,0.4,0.7,1,1,1.6c0.3,0.4,0.7,0.9,1,1.3c1.1,1.3,1.9,2.9,2.6,4.5c0,0.1,0.1,0.1,0.1,0.2c-0.3,0.8,0.3,1.3,0.6,1.9
			c0.5,1.1,0.2,2.2-0.5,3.1c-0.2,0.2-0.7,0.3-1,0.2c-0.5-0.1-1-0.4-1-1c0-0.2,0.3-0.5,0.6-0.7c0.3-0.3,0.7-0.5,0.3-1
			c-0.1-0.2-0.2-0.5-0.2-0.7c-0.3-1.2-1.3-1.4-2.3-1.1c-0.6,0.2-0.9-0.1-1.3-0.5c-0.7-0.7-1.5-1.3-2.2-2c-1.3-1.3-3.1-1.1-4.7-1.5
			c-1-0.3-2.1-0.5-3-1.4c-0.6-0.6-1.5-1-2-1.7c-0.9-1-1.7-2.1-2.1-3.4c-0.1-0.4-0.4-1-1.1-0.7c-0.1,0-0.2,0.1-0.3,0
			c-0.7-0.5-1.3-0.1-1.9,0c-0.6,0.1-1.1,0.3-1.4-0.6c-0.2-0.7-0.8-1.2-1.1-1.9c-0.6-1.1-1.2-2.3-1.3-3.6c-0.1-1-0.3-1.9-0.1-2.9
			c0-0.1-0.1-0.3-0.1-0.5c-0.1-0.3-0.3-0.6,0-0.9c0.1-0.2-0.1-0.6-0.1-0.9c0-1.2,0-2.4,0.1-3.6c0.1-0.6,0.4-1.2,0.6-1.8
			c0.1-0.2,0.3-0.3,0.5-0.4c1.5-0.2,3-0.3,4.5-0.5c1.4-0.2,2.8-0.5,4.1-0.6c0.6-0.1,1.2,0.1,1.7,0.2c1,0,1.9,0,2.9,0
			c0.6,0,1.2,0,1.8,0.1c0.6,0,1.3,0.1,1.9,0.2c0.2,0,0.4,0.2,0.6,0.3c0.3,0.1,0.6,0.2,0.9,0.3C43,7,43.3,7.2,43.7,7.5z"/>
		<path style="fill:#FAF7D4;" d="M51.5,39.6c0.7-0.9,0.6-2,0.4-3.2c1.4,0.3,2.6,0.6,3.9,0.8c0.4,0.1,0.8,0,1.2,0.1
			c3.2,0.4,5.9,1.8,8,4.4c0.8,1,1.1,2.3,1.3,3.6c0.1,0.9,0.3,1.9,0.4,2.8c0.1,1.4-0.1,2.8-0.6,4.1c-0.7,2-2.1,3.2-3.9,4.1
			c-2,0.9-4.1,1.7-6.2,2.6c-1.2,0.5-2.2,1.1-2.9,2.2c-0.5,0.8-1.5,1-2.4,1.2c-0.3,0-0.6,0.1-0.9,0.2c-1.6,0.4-3.1,0.1-4.5-0.4
			c-0.6-0.2-0.8-0.6-0.8-1.2c0-0.8,0-1.5-0.2-2.3c-0.2-1.5-1.4-2-2.7-2.3c-1-0.3-2.1-0.4-3.2-0.6c-0.3,0-0.5-0.2-0.7-0.3
			c-0.6-0.2-1.3-0.4-1.8-0.8c-1-0.8-2.2-1.1-3-2.1c0-0.1-0.1-0.1-0.1-0.2c-0.4-1-0.9-1.9-1.1-2.9c-0.2-0.9-0.1-1.8-0.1-2.8
			c0-0.5,0-1,0.1-1.5c0.4-1.2,0.9-2.5,1.5-3.5c0.4-0.7,1.3-1.2,2-1.6c1.3-0.7,2.6-1.3,3.9-1.7c1-0.4,2.1-0.8,3.2-0.7
			c0.1,0,0.4,0.1,0.4,0.2c0.2,0.4,0.8,0.6,0.7,1.2c0,0.1,0.3,0.3,0.4,0.4c0.1,0.2,0.2,0.4,0.2,0.6c0,0.1-0.3,0.1-0.5,0.2
			c-0.8,0.3-1.6,0.3-2.3,0.9c-0.8,0.6-1.8,1.1-2.6,1.7c-0.3,0.2-0.5,0.6-0.7,0.9c-0.2,0.4-0.5,0.9-0.6,1.4c-0.3,1.6-0.6,3.2,0.2,4.8
			c0.5,1,1.2,1.8,2,2.5c1.3,1,2.7,2,4.3,2.3c1.1,0.2,2.2,0.4,3.3,0.5c0.8,0.1,1.6-0.1,2.3-0.2c1,0,2,0,2.9,0c1.3,0,2.6,0,4-0.3
			c1.5-0.3,2.6-1.3,3.5-2.3c1.3-1.6,2-3.6,1.4-5.7c-0.4-1.3-1.1-2.5-2.1-3.5c-0.5-0.5-1.1-1.1-1.7-1.5c-0.9-0.7-1.9-1.3-3-1.4
			C53.5,40,52.6,39.8,51.5,39.6z M47.5,60.6c0.8,0,1.4-0.7,1.2-1.3c-0.2-0.5-0.4-1-0.6-1.5c-0.1-0.4-0.6-0.7-1.1-0.6
			c-0.6,0.2-0.3,0.6-0.2,0.9c0,0.1,0.1,0.2,0.2,0.3c0.1,0.6,0.6,1.1,0.3,1.8C47.2,60.3,47.4,60.5,47.5,60.6z M34.3,43.1
			c-1.4,0.2-1.5,1.4-1.8,2.2c-0.2,0.7,0,1.5,0,2.2c0,0.6,0.2,0.7,0.8,0.5C33.3,46.4,33.5,44.8,34.3,43.1z M34.7,46.7
			c0.5,0.2,0.6-0.1,0.8-0.4c0.3-0.8,0.7-1.5,1-2.3c0.1-0.2,0-0.4,0-0.6c-0.2,0-0.4,0-0.5,0.1C34.8,44.4,34.9,45.6,34.7,46.7z"/>
		<path style="fill:#F8F8F8;" d="M27.2,108.8c-0.5,0-1,0-1.4,0c-1.7,0.1-3.1-0.8-4.5-1.4c-1.4-0.6-2.9-1.2-4.2-1.8
			c-0.7-0.3-1.2-0.9-1.8-1.4c-0.8-0.8-1.6-1.6-2.3-2.5c-0.6-0.7-1.3-1.3-1.6-2.1c-0.5-1.1-1.6-2-1.4-3.4c0-0.3,0.1-0.6,0.3-0.8
			c0.5-0.8,1.1-1.6,1.7-2.4c0.2-0.3,0.4-0.6,0.6-0.8c0.9-1.2,1.8-2.4,2.7-3.6c0.5-0.6,1-1.2,1.5-1.8c0.7-0.9,1.3-1.8,2-2.7
			c0.4-0.5,0.8-0.8,1.2-1.2c0.3-0.3,0.5-0.5,0.7-0.8c0.7-1,1.8-1.7,2.3-2.9c0.2-0.5,0.6-0.9,1-1.4c1-1.1,1.8-2.4,3.2-3.1
			c0.7-0.3,1.5-0.5,2.2-0.8c0.3-0.1,0.6-0.1,0.9-0.3c0.7-0.3,1.4-0.6,2.3-0.7c1.6-0.2,3.2-0.6,4.9-0.8c0.5-0.1,1,0,1.4,0
			c0.5,0,0.9-0.1,1.3-0.1c-0.3,0.4-0.7,0.7-0.8,1.1c-0.1,0.4,0.1,1,0.3,1.3c0.5,0.7,1.4,0.7,2.6-0.1c0.1,0.3,0.2,0.6,0.3,1
			c0.5,2.9,1.1,5.8,1.6,8.8c0.1,0.8-0.1,1.4-0.6,2c-0.5,0.6-0.7,1.4-1.2,2c-1.1,1.6-2.3,3.1-3.5,4.6c-0.5,0.6-0.8,1.4-1.3,2.1
			c-0.8,1.1-1.7,2.2-2.6,3.4c-0.4,0.5-0.7,1.1-1,1.6c-0.2,0.4-0.6,0.7-0.8,1c-0.5,0.6-1,1.2-1.6,1.8c-0.2,0.2-0.3,0.4-0.5,0.7
			c-0.8,1.1-1.5,2.3-2.3,3.4c-0.5,0.7-1.1,1.4-1.7,2C27.3,108.6,27.2,108.7,27.2,108.8z M41.7,83.3c0.1-2.5-0.5-4.7-1.2-6.9
			c-0.2-0.8-0.9-1.4-1.8-1.4c-1.1-0.1-2.2-0.1-3.2-0.1c-0.7,0.1-1.4,0.4-2.1,0.2c-0.1,0-0.2,0.1-0.3,0.1c-0.4,0.1-0.8,0.3-1.2,0.3
			c-0.9,0.1-1.8,0.3-2.7,0.6c-0.9,0.3-1.7,0.7-2.3,1.6c-1.4,1.9-3,3.8-4.5,5.6c-1.3,1.5-2.6,2.9-3.9,4.4c-0.4,0.5-0.7,1.1-1.1,1.6
			c-0.5,0.6-1.1,1.1-1.6,1.7c-0.8,1-1.5,2-2.2,3c-0.6,0.8-0.7,1.7-0.3,2.6c0.9,1.9,2,3.6,3.7,4.9c2,1.5,4.1,3,6.5,3.9
			c1.6,0.6,3,0.4,4.2-0.9c0.6-0.6,1.1-1.3,1.6-2.1c0.7-1.1,1.4-2.2,2.2-3.3c0.2-0.3,0.5-0.5,0.7-0.8c0.4-0.6,0.7-1.3,1.1-1.8
			c0.9-1.2,1.8-2.2,2.7-3.4c0.8-1.1,1.5-2.3,2.3-3.4c0.2-0.3,0.4-0.6,0.7-0.9C40.4,87.2,41.9,85.6,41.7,83.3z"/>
		<path style="fill:#FCFCFC;" d="M50.4,53.4c-2.1-0.2-4.2-0.3-6.3-0.5c-1.8-0.2-3.2-1.2-4.4-2.5c-1-1-0.9-2.3-0.9-3.6
			c0-0.5,0.1-1,0.2-1.4c0.1-0.4,0.2-0.8,0.7-1.1c1-0.6,1.8-1.4,2.8-2c0.5-0.3,1.1-0.3,1.7-0.4c1.1-0.3,2.1,0,3.1,0.3
			c0.9,0.2,1.8,0.2,2.8-0.1c1-0.4,2.1-0.1,3.1,0.1c0.7,0.1,1.3,0.1,2,0.3c0.5,0.1,0.9,0.4,1.3,0.7c1.3,1,2.4,2.3,2.8,3.9
			c0.3,1.4,0.1,2.7-0.8,3.8c-0.2,0.2-0.3,0.4-0.5,0.6c-0.8,1.2-1.9,1.7-3.2,1.8c-1.4,0-2.9,0-4.3,0C50.4,53.3,50.4,53.3,50.4,53.4z"
			/>
		<path style="fill:#F8F5D2;" d="M49.9,105.9c0.1,0.9,0.2,1.9,0.3,2.8c0,0.8-0.1,1.5-0.1,2.3c0,0.7,0.1,1.5,0.1,2.2
			c0.1,1.7,0.1,3.4,0.1,5.1c0,1.8-0.1,3.6-0.2,5.4c0,0.6,0,1.1,0,1.7c0,0.2,0,0.5-0.1,0.6c-1.1,1-2.3,2.1-3.9,1.8
			c-0.8-0.1-1.6-0.2-2.3-0.6c-1.2-0.6-1.5-1.5-1.4-2.9c0.1-0.7-0.1-1.3-0.1-2c0-0.7,0-1.4,0-2c0-0.7-0.1-1.5-0.2-2.2
			c-0.1-1.1-0.1-2.2-0.1-3.3c0.1-0.8,0-1.6,0-2.4c0-0.2,0.1-0.4,0.1-0.7c0.1-1.3,0.1-2.7,0.2-4c0-0.8,0.1-1.7,0.1-2.5
			c0-0.6,0.2-0.7,0.8-0.5c0.9,0.3,1.8,0.6,2.8,0.8c0.9,0.1,1.8,0.1,2.7,0.1c0.2,0,0.3,0,0.5,0C49.8,105.3,50.1,105.4,49.9,105.9z
			 M43.7,123.5c-0.1,0-0.1,0-0.2,0c0.2,0.5,0.2,1,0.5,1.4c0.3,0.4,2.7,0.4,3.1,0.1c0.1,0,0.1-0.1,0.2-0.2c0.1-0.3,0.2-0.6,0.1-0.9
			c-0.1-0.3-0.4-0.7-0.9-0.6c-0.9,0.1-1-0.1-1-0.9c0-1.3-0.1-2.6-0.2-3.9c-0.1-1.4-0.2-2.8-0.2-4.2c0-1.3,0.2-2.7,0.3-4
			c0-0.5,0.1-1.1,0.1-1.6c0-0.6-0.4-0.9-0.9-0.9c-0.5,0-0.9,0.2-0.8,0.8c0,0.6,0.1,1.2,0.1,1.8c0,1.8-0.2,3.7-0.2,5.5
			c0,1.6,0,3.2,0,4.8C43.7,121.6,43.7,122.5,43.7,123.5z"/>
		<path style="fill:#F9F5D3;" d="M52,124.3c0.2-5.4-0.5-10.7-0.1-16.2c1.3,0.4,2.7-0.4,3.9,0.4c0,0.5,0,1,0,1.5c0,0.6,0.5,1,1.3,1.1
			c1.1,0.1,2.2,0.1,3.3,0c1-0.1,1.2-0.4,1.2-1.4c0-0.3,0-0.5,0-0.8c-0.1-0.6,0.2-0.9,0.7-1.1c0.7-0.2,1.4-0.3,2.2,0
			c0.6,0.2,0.4,0.8,0.5,1.2c0.1,0.6,0.1,1.1,0.1,1.7c0,0.3-0.1,0.5-0.5,0.6c-0.7,0.2-1.5,0.4-2.2,0.8c-1,0.5-1,0.9-0.9,2
			c0.1,0.6,0.1,1.2,0.3,1.8c0.1,0.2,0.3,0.5,0.6,0.6c0.6,0.2,1.2,0.2,1.8,0.3c0.4,0,0.5,0.2,0.5,0.5c0,0.5,0.1,1,0.1,1.6
			c0.1,0.7-0.6,2-1.2,2.1c-0.4,0.1-0.6,0.1-0.8-0.3c-0.4-1-0.7-1.1-1.8-1c-0.9,0.1-1.8,0.2-2.7,0.4c-0.6,0.1-1.1,0.5-1.6,0.7
			c-0.1,0.1-0.2,0.3-0.3,0.5c-0.1,0.5-0.1,1-0.1,1.4c-0.1,0.8-0.3,1.1-1.1,1.2c-0.8,0.1-1.5,0.1-2.3,0.2
			C52.6,124.2,52.4,124.2,52,124.3z M52.6,117.7c0.7,0.6,2.5,0.7,3.2,0.1c0.1-0.1,0.2-0.3,0.2-0.4c-0.1-0.2-0.3-0.3-0.5-0.4
			c-0.6-0.1-1.3-0.1-1.9-0.1C53,117,52.7,117.2,52.6,117.7z M55.8,114.8c-0.3-0.2-0.6-0.6-0.9-0.6c-0.7-0.1-1.4,0-2.1,0.1
			c-0.1,0-0.2,0.3-0.2,0.5c0,0.1,0.2,0.3,0.3,0.3c0.2,0.1,0.4,0.1,0.6,0.2C54.2,115.6,55.3,115.4,55.8,114.8z M54.7,112.9
			c0.3-0.2,0.5-0.4,0.8-0.5c0.1,0,0.1-0.2,0-0.3c-0.3-0.5-1.6-0.9-2.1-0.7c-0.5,0.2-0.6,0.6-0.2,0.8
			C53.6,112.4,54.1,112.6,54.7,112.9z M54,122c0.3,0,0.6,0,0.8-0.1c0.2-0.1,0.4-0.3,0.4-0.6c0-0.1-0.3-0.4-0.4-0.4
			c-0.4-0.1-0.9-0.1-1.3,0c-0.2,0-0.4,0.2-0.6,0.4c0.2,0.2,0.3,0.5,0.6,0.7C53.6,122,53.8,122,54,122z"/>
		<path style="fill:#F7F4D2;" d="M50.9,93.7c-1.4,0.8-2.9,0.6-4.5,0.2c-1.4-0.3-2.7-0.8-4.2-1.2c0-0.4-0.2-0.9,0.2-1.5
			c0.6-0.8,1.1-1.7,1.7-2.5c1.5-1.9,1.7-3.9,1.2-6.2c-0.6-2.6-1.1-5.3-1.7-7.9c-0.1-0.3-0.2-0.6-0.3-0.9c-0.1-0.4,0.1-0.7,0.5-0.6
			c2.2,0.6,4.4,0.2,6.6,0.2c1.2,0,1.3,0,1.3,1.2c-0.1,0.9-0.1,1.8-0.2,2.7c-0.1,2.7-0.1,5.5-0.1,8.2c-0.1,2-0.2,4-0.4,6
			C51,92.2,51,92.8,50.9,93.7z M49.5,93.1c0.2-0.3,0.3-0.6,0.4-0.9c0.1-0.3,0.3-0.7,0.1-1c-0.7-1.2,0-2.4-0.3-3.6
			c-0.2-0.8,0.2-1.8,0-2.7c0-0.2-0.1-0.3-0.1-0.5c0-0.7,0.1-1.3,0.1-2c0-0.4-0.1-0.9-0.1-1.3c0-1.8,0.1-3.6,0.1-5.3
			c0-0.2,0-0.4-0.1-0.5c-0.2-0.2-0.5-0.5-0.7-0.5c-0.3,0.1-0.7,0.4-0.7,0.6c-0.1,1,0,2,0,3c0,1.1,0,2.2,0,3.2c0,0.2-0.1,0.6,0.1,0.7
			c0.5,0.6,0.3,1.3,0.2,2c-0.1,0.9-0.2,1.8-0.3,2.7c-0.1,1.5,0,2.9-0.1,4.4C48.1,92.6,48.4,93,49.5,93.1z"/>
		<path style="fill:#FAF7D4;" d="M54,65.8c0,1.5-1.5,3-3.1,2.9c-2-0.1-4.1-0.2-6.1-0.2c-0.8,0-1.5-0.2-2.1-0.6
			c-0.7-0.6-0.8-1.4-0.7-2.2c0.1-0.6,0.5-1.1,0.8-1.6c0.4-0.7,1.1-0.8,1.9-0.7c1.2,0.2,2.3,0.4,3.5,0.4c1.3,0,2.7-0.2,4-0.4
			c0.6-0.1,1.3,0.3,1.5,0.9C53.8,64.8,53.8,65.3,54,65.8z"/>
		<path style="fill:#F9F5D3;" d="M47.7,103.9c-0.9-0.2-1.8-0.5-2.8-0.7c-1.2-0.2-2.2-0.8-3.3-1.3c-0.8-0.4-0.9-1.5-0.4-2.4
			c0.5-0.8,1.9-1,2.7-0.5c0.3,0.2,0.6,0.2,0.9,0.3c0.9,0.2,1.7,0.5,2.6,0.6c0.6,0.1,1.2,0.2,1.7,0.1c0.7-0.1,1.2-0.1,1.6,0.4
			c0.1,0.1,0.2,0.1,0.2,0.2c0.4,0.4,0.9,0.7,0.7,1.3c-0.2,0.5-0.6,0.9-1.2,1.2C49.7,103.6,48.8,103.9,47.7,103.9z"/>
		<path style="fill:#F7F4D2;" d="M49.6,98.2c-0.8,0.1-1.5,0.3-2.2,0.2c-1.5-0.3-3.1-0.8-4.6-1.2c0,0-0.1,0-0.1-0.1
			c-0.7-0.4-1.1-1-0.9-1.6c0.1-0.6,1-1.1,1.7-1.1c1,0,1.9,0.3,2.8,0.8c1.3,0.8,2.8,0.6,4.2,0.3c1.1-0.2,1.9,0.3,1.6,1.3
			c0,0.2-0.1,0.4-0.3,0.5C51.1,97.9,50.3,98.3,49.6,98.2z"/>
		<path style="fill:#F8F8F8;" d="M51,31c0,0.1,0,0.3,0,0.4c-0.1,0.1-0.2,0.4-0.3,0.4c-0.2,0-0.4-0.1-0.5-0.2c-0.7-1-1.3-2.1-1.9-3.1
			c-0.6-0.9-1.2-1.7-1.9-2.5c-0.4-0.6-0.5-0.9-0.3-1.2c0.2,0.1,0.4,0.2,0.6,0.3c0,0,0,0,0.1,0c0.6-0.6,0.6-0.6,1.5-0.2
			c0.3,0.1,0.6,0,1,0c0.3,0,0.5-0.2,0.7,0.2c0.1,0.1,0.5,0,0.8,0c0,0.4,0.3,0.6,0.7,0.6c0.2,0,0.3,0.1,0.5,0.1
			c-0.4,1.5-0.8,3-1.1,4.6C50.9,30.4,50.9,30.7,51,31z"/>
		<path style="fill:#F4F4F4;" d="M16.4,26.5c-1.3,0-1.9-0.8-1.5-2c0.2-0.5,0.4-0.9,0.6-1.3c0.5-1,1.6-1.1,2.3-0.3
			c0.7,0.8,0.5,1.7,0.2,2.6C17.8,26.1,17.2,26.5,16.4,26.5z"/>
		<path style="fill:#DED0B3;" d="M61.1,29.8c0.3-0.4,0.6-0.8,0.9-1.2c0.6-1.9,1.3-3.8,2.2-5.8c0.3,0.5,0.6,0.9,0.8,1.4
			c0.2,0.6,0.4,1.3,0.3,1.9c0,0.5-0.4,1-0.8,1.3c-0.5,0.6-1,1.1-1.6,1.6c-0.5,0.4-1.1,0.6-1.7,0.9C61.1,29.9,61.1,29.8,61.1,29.8z"
			/>
		<path style="fill:#EBEBEB;" d="M41.6,73.5c-0.5-0.4-0.5-0.8,0.1-1.2c0.8-0.6,1.7-0.8,2.8-0.7c2.3,0.1,4.6,0,6.9,0.1
			c0.3,0,0.9,0.1,0.9,0.3c0.1,0.5-0.4,0.6-0.8,0.7c-0.7,0.1-1.3,0.2-2,0.1c-1.9-0.1-3.9,0.2-5.7-0.5c-0.1,0-0.3,0-0.4,0.1
			C42.7,72.7,42.2,73.1,41.6,73.5z"/>
		<path style="fill:#EBEBEB;" d="M48.5,70.8c-1.7,0-3.5,0-5.2,0c-0.6,0-1.1-0.2-1.7-0.3c-0.2,0-0.3-0.3-0.4-0.4
			c0.2-0.1,0.4-0.4,0.6-0.4c0.7,0,1.4,0.2,2.2,0.2c2.1,0.1,4.2,0.1,6.4,0.2c0.4,0,0.7-0.1,1.1,0c0.2,0,0.4,0.2,0.6,0.3
			c-0.2,0.1-0.4,0.4-0.6,0.4c-1,0.1-1.9,0.1-2.9,0.2C48.5,70.9,48.5,70.8,48.5,70.8z"/>
		<path style="fill:#DED0B3;" d="M51,31c0-0.3-0.1-0.5,0-0.8c0.4-1.5,0.7-3,1.1-4.6c0.1,0.2,0.2,0.4,0.2,0.5c-0.2,1-0.5,2.1-0.8,3.1
			C51.3,29.8,51.1,30.4,51,31z"/>
		<path style="fill:#DED0B3;" d="M46.8,37.5c-0.7-0.2-0.9-0.7-0.9-1.4C46.7,36,46.8,36.2,46.8,37.5z"/>
		<path style="fill:#E4D5B8;" d="M40.4,72.8c0.2,0.5,0.4,0.9,0.7,1.4c-0.4,0.1-0.7-0.1-0.9-0.5C39.9,73.3,40,73,40.4,72.8z"/>
		<path style="fill:#0C0C0C;" d="M112.2,47.8c0,0,0.1,0,0.1,0c0.3,0.2,0.8,0.4,0.7,0.5c-0.1,0.4-0.2,0.8-0.8,0.8c0,0-0.1,0-0.1,0
			c-0.7,0.1-1.1-0.1-1.2-0.4C111,48.3,111.6,47.8,112.2,47.8z"/>
		<path style="fill:#0C0C0C;" d="M254.4,108.5c0.6,1.1,1.2,2.2,1.8,3.3c0,0.1-0.1,0.4-0.2,0.4c-0.9,0.2-1.8,0.3-2.8,0.4
			c-0.1,0-0.4-0.1-0.4-0.2c0-0.3,0-0.7,0.2-0.8c0.3-0.2,0.3-0.4,0.2-0.7c0-0.1,0-0.2,0-0.2c0.8-0.4,0.6-1.4,1.1-2
			C254.3,108.6,254.3,108.6,254.4,108.5z"/>
		<path style="fill:#020202;" d="M249.8,107.5C249.8,107.4,249.8,107.4,249.8,107.5C249.9,107.4,249.9,107.4,249.8,107.5
			C249.8,107.5,249.8,107.4,249.8,107.5C249.8,107.4,249.8,107.5,249.8,107.5z"/>
		<path style="fill:#060606;" d="M246.4,44.2c0.2-1.2,0.4-2.4,0.6-3.6c0.2-1,0.4-2.1,0.6-3.1c0.2-1.3,0.5-2.6,0.8-3.9
			c0.1-0.4,0.5-0.7,0.7-1.1c0.3,0.3,0.7,0.6,0.8,1c0.5,1.6,0.9,3.2,1.2,4.9c0.3,1.5,0.4,3.1,0.6,4.6c0,0.1,0,0.2,0,0.2
			c0.2,0.6,0.4,0.9-0.5,0.8c-0.9-0.1-1.7,0.2-2.6,0.2C247.8,44.2,247.1,44.2,246.4,44.2z"/>
		<path style="fill:#060606;" d="M274.6,106.5c0-0.5,0.1-0.9,0.1-1.3c0.1-0.6,0.2-1.2,0.3-1.8c0.1-0.6,0.3-1,0.8-1.2
			c0.6-0.2,1.3-0.3,1.9-0.4c0.7-0.1,1.4-0.3,2.2-0.4c0.7-0.1,0.9,0.1,0.9,0.8c0.2,1.2-0.6,2.4-1.8,2.8c-0.3,0.1-0.6,0.3-0.9,0.4
			c-0.2,0.1-0.4,0.2-0.6,0.3c-0.5,0.1-1,0.1-1.5,0.2C275.5,106,275.1,106.2,274.6,106.5z"/>
		<path style="fill:#0C0C0C;" d="M47.5,60.6c0-0.1-0.2-0.3-0.2-0.4c0.3-0.7-0.1-1.2-0.3-1.8c0-0.1-0.1-0.2-0.2-0.3
			c-0.1-0.3-0.4-0.7,0.2-0.9c0.4-0.1,0.9,0.2,1.1,0.6c0.2,0.5,0.4,1,0.6,1.5C48.9,59.9,48.3,60.6,47.5,60.6z"/>
		<path style="fill:#121212;" d="M34.3,43.1c-0.9,1.6-1,3.3-1,5c-0.5,0.2-0.8,0-0.8-0.5c0-0.7-0.2-1.6,0-2.2
			C32.8,44.5,33,43.4,34.3,43.1z"/>
		<path style="fill:#121212;" d="M34.7,46.7c0.2-1.1,0.2-2.3,1.2-3.2c0.1-0.1,0.3-0.1,0.5-0.1c0,0.2,0.1,0.4,0,0.6
			c-0.3,0.8-0.7,1.5-1,2.3C35.3,46.6,35.2,46.9,34.7,46.7z"/>
		<path style="fill:#0C0C0C;" d="M41.7,83.3c0.2,2.4-1.3,4-2.9,5.5c-0.3,0.3-0.5,0.6-0.7,0.9c-0.8,1.1-1.5,2.3-2.3,3.4
			c-0.9,1.2-1.8,2.3-2.7,3.4c-0.4,0.6-0.7,1.2-1.1,1.8c-0.2,0.3-0.5,0.5-0.7,0.8c-0.7,1.1-1.4,2.2-2.2,3.3c-0.5,0.7-1,1.4-1.6,2.1
			c-1.1,1.3-2.6,1.5-4.2,0.9c-2.4-0.9-4.5-2.4-6.5-3.9c-1.7-1.3-2.8-3-3.7-4.9c-0.4-0.8-0.3-1.8,0.3-2.6c0.7-1,1.5-2,2.2-3
			c0.5-0.6,1.1-1.1,1.6-1.7c0.4-0.5,0.7-1.1,1.1-1.6c1.3-1.5,2.6-2.9,3.9-4.4c1.5-1.8,3.1-3.6,4.5-5.6c0.6-0.9,1.3-1.3,2.3-1.6
			c0.9-0.3,1.8-0.5,2.7-0.6c0.4,0,0.8-0.2,1.2-0.3c0.1,0,0.2-0.1,0.3-0.1c0.7,0.2,1.4-0.1,2.1-0.2c1.1-0.1,2.1,0,3.2,0.1
			c0.9,0.1,1.5,0.6,1.8,1.4C41.2,78.6,41.8,80.8,41.7,83.3z M28.7,101.7c0-0.2-0.1-0.5,0-0.7c0.4-0.6,0.9-1.1,1.3-1.7
			c1.2-1.5,2.4-3,3.5-4.5c0.5-0.6,0.9-1.3,1.4-2c0.7-0.8,1.1-1.7,1.7-2.6c0.2-0.3,0.4-0.5,0.6-0.8c0.6-0.9,1.2-1.7,1.8-2.6
			c0.3-0.4,0.5-0.7,0.7-1.1c0.3-0.5,0.8-0.9,0.8-1.6c-0.1-0.8-0.1-1.7-0.1-2.5c0-0.3-0.3-0.6-0.3-0.9c-0.2-1.2-0.4-2.4-0.9-3.6
			c-0.2-0.6-0.6-0.8-1.2-0.8c-2.2,0.3-4.5,0.5-6.7,0.8c-1.7,0.2-3.1,1-4.2,2.4c-2.1,2.5-4.1,5-6.2,7.6c-2,2.4-3.9,4.8-5.9,7.2
			c-0.3,0.4-0.6,0.8-0.4,1.4c1,2.7,2.7,4.8,5.1,6.3c0.9,0.6,1.9,1.1,3,1.5c0.9,0.4,2,0.6,2.9,0.8c0.2,0,0.5-0.1,0.7-0.2
			c0.3-0.3,0.6-0.7,0.9-1C27.6,102.6,28.2,102.1,28.7,101.7z"/>
		<path style="fill:#0A0A0A;" d="M43.7,123.5c0-0.9,0-1.8,0-2.8c0-1.6-0.1-3.2,0-4.8c0-1.8,0.2-3.7,0.2-5.5c0-0.6-0.1-1.2-0.1-1.8
			c0-0.6,0.3-0.8,0.8-0.8c0.5,0,0.9,0.4,0.9,0.9c0,0.5-0.1,1.1-0.1,1.6c-0.1,1.3-0.2,2.7-0.3,4c0,1.4,0.1,2.8,0.2,4.2
			c0.1,1.3,0.1,2.6,0.2,3.9c0,0.7,0.1,0.9,1,0.9c0.5,0,0.7,0.3,0.9,0.6c0.1,0.2,0,0.6-0.1,0.9c0,0.1-0.1,0.1-0.2,0.2
			c-0.4,0.3-2.8,0.3-3.1-0.1c-0.3-0.4-0.4-0.9-0.5-1.4C43.6,123.5,43.6,123.5,43.7,123.5z"/>
		<path style="fill:#0C0C0C;" d="M52.6,117.7c0.1-0.5,0.5-0.7,0.9-0.7c0.6,0,1.3,0,1.9,0.1c0.2,0,0.4,0.2,0.5,0.4
			c0,0.1-0.1,0.3-0.2,0.4C55,118.4,53.3,118.3,52.6,117.7z"/>
		<path style="fill:#121212;" d="M55.8,114.8c-0.5,0.6-1.6,0.8-2.3,0.6c-0.2-0.1-0.4-0.1-0.6-0.2c-0.1-0.1-0.3-0.2-0.3-0.3
			c0-0.2,0.1-0.5,0.2-0.5c0.7-0.1,1.4-0.2,2.1-0.1C55.3,114.2,55.5,114.6,55.8,114.8z"/>
		<path style="fill:#121212;" d="M54.7,112.9c-0.6-0.2-1.1-0.4-1.6-0.7c-0.4-0.2-0.2-0.6,0.2-0.8c0.5-0.2,1.8,0.2,2.1,0.7
			c0,0.1,0.1,0.3,0,0.3C55.2,112.5,55,112.7,54.7,112.9z"/>
		<path style="fill:#121212;" d="M54,122c-0.2,0-0.4,0.1-0.5,0c-0.2-0.2-0.4-0.4-0.6-0.7c0.2-0.1,0.4-0.3,0.6-0.4
			c0.4-0.1,0.9-0.1,1.3,0c0.2,0,0.5,0.3,0.4,0.4c-0.1,0.2-0.2,0.5-0.4,0.6C54.6,122,54.2,121.9,54,122z"/>
		<path style="fill:#0B0B0B;" d="M49.5,93.1c-1.1-0.1-1.4-0.5-1.3-1.6c0.1-1.5,0-2.9,0.1-4.4c0-0.9,0.2-1.8,0.3-2.7
			c0.1-0.7,0.3-1.4-0.2-2c-0.1-0.2-0.1-0.5-0.1-0.7c0-1.1,0-2.2,0-3.2c0-1-0.1-2,0-3c0-0.2,0.4-0.6,0.7-0.6c0.2,0,0.5,0.3,0.7,0.5
			c0.1,0.1,0.1,0.3,0.1,0.5c0,1.8-0.1,3.6-0.1,5.3c0,0.4,0.1,0.9,0.1,1.3c0,0.7-0.1,1.3-0.1,2c0,0.2,0,0.3,0.1,0.5
			c0.2,0.9-0.2,1.9,0,2.7c0.3,1.2-0.4,2.4,0.3,3.6c0.1,0.2,0,0.6-0.1,1C49.8,92.5,49.7,92.8,49.5,93.1z"/>
		<path style="fill:#F9F9F9;" d="M28.7,101.7c-0.5,0.5-1.1,0.9-1.6,1.4c-0.3,0.3-0.6,0.7-0.9,1c-0.2,0.2-0.5,0.3-0.7,0.2
			c-1-0.2-2-0.5-2.9-0.8c-1-0.4-2-0.9-3-1.5c-2.4-1.6-4.1-3.6-5.1-6.3c-0.2-0.5,0.1-1,0.4-1.4c2-2.4,3.9-4.8,5.9-7.2
			c2.1-2.5,4.1-5,6.2-7.6c1.1-1.3,2.4-2.2,4.2-2.4c2.2-0.2,4.5-0.5,6.7-0.8c0.6-0.1,1,0.2,1.2,0.8c0.5,1.2,0.7,2.4,0.9,3.6
			c0,0.3,0.3,0.6,0.3,0.9c0.1,0.8,0.1,1.7,0.1,2.5c0.1,0.7-0.5,1.1-0.8,1.6c-0.2,0.4-0.5,0.8-0.7,1.1c-0.6,0.9-1.2,1.7-1.8,2.6
			c-0.2,0.3-0.4,0.5-0.6,0.8c-0.6,0.9-1,1.8-1.7,2.6c-0.5,0.6-0.9,1.3-1.4,2c-1.1,1.5-2.3,3-3.5,4.5c-0.4,0.6-0.9,1.1-1.3,1.7
			C28.6,101.2,28.7,101.5,28.7,101.7z M26.2,96.4c0.3,0.2,0.5,0.3,0.7,0.4c0.2,0.1,0.6,0.2,0.7,0.1c0.2-0.3,0.4-0.7,0.5-1
			c0-0.2-0.3-0.4-0.6-0.5c-0.5-0.2-1-0.4-1.4-0.6c-0.9-0.5-1.8-1-2.6-1.5c-0.5-0.3-0.7,0-0.9,0.4c-0.2,0.4-0.1,0.7,0.3,0.9
			c0.7,0.4,1.4,0.8,2.2,1.2c-0.2,0.2-0.4,0.4-0.4,0.5c-0.2,0.7-0.6,0.5-1,0.3c-0.7-0.4-1.5-0.9-2.2-1.2c-0.3-0.1-0.6-0.2-0.9-0.1
			c-0.6,0.2-0.6,0.8,0,1.2c1.1,0.7,2.2,1.4,3.3,2c0.6,0.3,1.1,0.7,1.7,0.9c0.3,0.1,0.8,0,1-0.2c0.3-0.3,0.1-0.8-0.3-1
			C25.5,97.5,25.5,97.4,26.2,96.4z M30.6,78.7c0,0,0-0.1,0-0.1c-0.4,0.2-0.9,0.4-1.3,0.7c-0.7,0.6-1.3,1.2-1.9,1.9
			c-1.8,2.1-3.5,4.3-5.2,6.4c-2,2.4-3.9,4.8-5.9,7.2c-0.6,0.7-0.6,0.8,0.2,1.5c0.1-0.2,0.3-0.3,0.4-0.5c0.7-0.9,1.5-1.8,2.2-2.8
			c0.7-1,1.4-2.1,2.2-3.1c0.5-0.7,1-1.4,1.6-2.1c1-1.1,2-2.2,3-3.3c0.5-0.5,1-0.9,1.4-1.4c0.5-0.6,0.9-1.2,1.4-1.9
			c0.2-0.2,0.4-0.5,0.6-0.7C29.7,79.9,30.1,79.3,30.6,78.7z M29.1,94.4c0.8,0,1.8-0.8,1.8-1.5c0-1.6-0.9-2.7-2.2-3.4
			c-0.8-0.4-1.6-0.6-2.5-0.8c-0.3-0.1-0.7,0.1-0.9,0.3c-0.8,0.7-0.9,2.5-0.2,3.3c0.4,0.4,0.8,0.8,1.3,1.1C27.1,94,28,94.4,29.1,94.4
			z M35.8,84.8c-0.2-0.2-0.3-0.6-0.5-0.7c-0.2-0.1-0.5,0.1-0.7,0.2c-0.3,0.1-0.5,0.2-0.8,0.4c0-0.3-0.1-0.6,0-0.9
			c0.1-0.5-0.1-0.7-0.5-0.5c-0.2,0.1-0.5,0.2-0.7,0.3c-0.2,0.1-0.3,0-0.5,0.1c0-0.2-0.1-0.4,0-0.5c0.1-0.2,0.3-0.4,0.4-0.6
			c0.2-0.3,0.2-0.5-0.1-0.7c-0.3-0.2-0.5-0.3-0.8-0.1c-0.3,0.3-0.7,0.6-1,0.9c-0.6,0.6-0.5,1.2,0.2,1.6c0.5,0.3,0.9,0.7,1.4,1
			c0.6,0.4,1.2,0.8,1.9,1.2c0.1,0.1,0.3,0.1,0.4,0C34.9,86.3,35.7,85.3,35.8,84.8z M31.2,86.7C31.2,86.7,31.2,86.7,31.2,86.7
			c0-0.3,0-0.6,0-0.9c-0.1-0.4-0.3-0.7-0.7-0.6c-1,0.2-2.1,0.3-2.8,1.2c-0.2,0.2-0.4,0.6-0.4,0.7c0.1,0.3,0.5,0.6,0.7,0.8
			c0.2,0.2,0.6,0.2,0.8,0.4c0.9,0.6,1.7,1.1,2.6,1.7c0.4,0.3,0.6,0,0.8-0.2c0.2-0.3,0.3-0.6,0-0.8c-0.2-0.2-0.5-0.3-0.7-0.4
			c-0.4-0.2-0.6-0.4-0.5-0.9C31.2,87.3,31.2,87,31.2,86.7z"/>
		<path style="fill:#0A0A0A;" d="M26.2,96.4c-0.7,1-0.7,1.1,0.2,1.6c0.4,0.3,0.5,0.7,0.3,1c-0.2,0.2-0.7,0.3-1,0.2
			c-0.6-0.2-1.2-0.6-1.7-0.9c-1.1-0.7-2.2-1.3-3.3-2c-0.6-0.4-0.6-1,0-1.2c0.3-0.1,0.6,0,0.9,0.1c0.8,0.4,1.5,0.8,2.2,1.2
			c0.4,0.2,0.8,0.4,1-0.3c0-0.2,0.2-0.3,0.4-0.5c-0.7-0.4-1.5-0.9-2.2-1.2c-0.5-0.2-0.5-0.5-0.3-0.9c0.2-0.4,0.4-0.6,0.9-0.4
			c0.9,0.5,1.8,1,2.6,1.5c0.5,0.2,1,0.4,1.4,0.6c0.2,0.1,0.6,0.4,0.6,0.5c0,0.4-0.2,0.7-0.5,1c-0.1,0.1-0.5,0-0.7-0.1
			C26.7,96.8,26.5,96.6,26.2,96.4z"/>
		<path style="fill:#121212;" d="M30.6,78.7c-0.5,0.6-0.9,1.2-1.4,1.8c-0.2,0.2-0.4,0.4-0.6,0.7c-0.5,0.6-0.9,1.3-1.4,1.9
			c-0.4,0.5-0.9,0.9-1.4,1.4c-1,1.1-2,2.2-3,3.3c-0.6,0.7-1.1,1.4-1.6,2.1c-0.7,1-1.4,2.1-2.2,3.1c-0.7,0.9-1.4,1.8-2.2,2.8
			c-0.1,0.2-0.3,0.3-0.4,0.5c-0.7-0.7-0.7-0.8-0.2-1.5c2-2.4,3.9-4.8,5.9-7.2c1.7-2.1,3.5-4.3,5.2-6.4c0.6-0.7,1.2-1.3,1.9-1.9
			c0.3-0.3,0.8-0.4,1.3-0.7C30.5,78.6,30.6,78.6,30.6,78.7z"/>
		<path style="fill:#0A0A0A;" d="M29.1,94.4c-1,0-1.9-0.4-2.7-0.9c-0.5-0.3-0.9-0.7-1.3-1.1c-0.7-0.8-0.6-2.6,0.2-3.3
			c0.2-0.2,0.6-0.3,0.9-0.3c0.8,0.2,1.7,0.4,2.5,0.8c1.3,0.7,2.2,1.8,2.2,3.4C30.9,93.5,29.8,94.4,29.1,94.4z M29.4,92.9
			c0.2-1-0.3-1.6-1.9-2.5c-0.5-0.3-1.4-0.2-1.9,0.3C26.5,92.2,27.8,92.8,29.4,92.9z"/>
		<path style="fill:#0B0B0B;" d="M35.8,84.8c-0.1,0.5-0.9,1.5-1.3,1.6c-0.1,0-0.3,0-0.4,0c-0.6-0.4-1.3-0.8-1.9-1.2
			c-0.5-0.3-0.9-0.7-1.4-1c-0.7-0.5-0.8-1.1-0.2-1.6c0.3-0.3,0.6-0.6,1-0.9c0.3-0.2,0.5-0.1,0.8,0.1c0.3,0.2,0.3,0.4,0.1,0.7
			c-0.1,0.2-0.3,0.4-0.4,0.6c-0.1,0.1,0,0.3,0,0.5c0.2,0,0.3,0,0.5-0.1c0.2-0.1,0.5-0.2,0.7-0.3c0.5-0.1,0.6,0.1,0.5,0.5
			c-0.1,0.3,0,0.6,0,0.9c0.3-0.1,0.5-0.3,0.8-0.4c0.2-0.1,0.6-0.2,0.7-0.2C35.6,84.2,35.7,84.5,35.8,84.8z"/>
		<path style="fill:#0A0A0A;" d="M31.2,86.7c0,0.3,0,0.7-0.1,1c-0.1,0.5,0.1,0.7,0.5,0.9c0.2,0.1,0.5,0.2,0.7,0.4
			c0.3,0.2,0.3,0.5,0,0.8c-0.2,0.3-0.4,0.5-0.8,0.2c-0.9-0.6-1.7-1.2-2.6-1.7c-0.3-0.2-0.6-0.2-0.8-0.4c-0.3-0.2-0.6-0.5-0.7-0.8
			c-0.1-0.1,0.2-0.5,0.4-0.7c0.7-0.9,1.8-0.9,2.8-1.2c0.4-0.1,0.7,0.2,0.7,0.6C31.2,86.1,31.2,86.4,31.2,86.7
			C31.2,86.7,31.2,86.7,31.2,86.7z M28.8,86.8c0.5,0.3,0.8,0.5,1.1,0.7c0.4-0.4,0.5-0.7,0.1-1.1C29.6,86.6,29.3,86.7,28.8,86.8z"/>
		<path style="fill:#F0F0F0;" d="M29.4,92.9c-1.6-0.1-2.9-0.8-3.8-2.2c0.5-0.5,1.4-0.6,1.9-0.3C29.1,91.3,29.6,91.9,29.4,92.9z"/>
		<path style="fill:#EBEBEB;" d="M28.8,86.8c0.5-0.2,0.8-0.3,1.2-0.4c0.5,0.3,0.4,0.7-0.1,1.1C29.6,87.3,29.2,87.1,28.8,86.8z"/>
	</g>
</g>
</svg>
