<?xml version="1.0" encoding="utf-8"?>
<!-- Generator: Adobe Illustrator 24.0.0, SVG Export Plug-In . SVG Version: 6.00 Build 0)  -->
<svg version="1.1" id="Layer_1" xmlns="http://www.w3.org/2000/svg" xmlns:xlink="http://www.w3.org/1999/xlink" x="0px" y="0px"
	 viewBox="0 0 246 234" style="enable-background:new 0 0 246 234;" xml:space="preserve">
<g id="KO8BCa.tif">
	<g>
		<path style="fill:#060505;" d="M18.2,63.2c-1.6,0.3-3.1,0.5-4.6,0c-0.8-0.3-1.8-0.6-2.2-1.6c0.1-0.1,0.2-0.3,0.4-0.5
			c-0.3-0.2-0.5-0.3-0.7-0.5c0.2-0.9,0.1-2.1-0.3-2.7c0.6-1.6,0.5-3.3-0.1-4.8c-0.2-0.6-0.2-1,0.3-1.3c0.2-0.1,0.4-0.3,0.4-0.4
			c0.2-0.9,0.9-1.4,1.7-1.6c0.2-0.1,0.4-0.3,0.6-0.5c0.5-0.4,0.9-0.8,1.4-1.2c0.1-0.1,0.3-0.2,0.4-0.3c0.4-0.9,1.2-1.3,1.9-2
			c0.7-0.7,1.4-1.5,2.2-2.2c1-1,1.9-2,3-3c0.4-0.4,1-0.7,1.4-1.1c0.7-0.6,1.3-1.1,1.9-1.7c1.5-1.5,2.9-3.1,4.8-4.2
			c0.5-0.3,0.9-0.9,1.3-1.4c1-1,2-1.9,3-2.8c0.9-0.9,1.7-1.8,2.6-2.7c0.8-0.8,1.7-1.4,2.5-2.2c0.9-0.9,1.8-1.9,2.7-2.8
			c0.1-0.1,0.1-0.1,0.1-0.2c2-1.3,3.3-3.4,5.3-4.8c0.8-0.6,1.4-1.5,2.1-2.2c1-1,2.1-1.9,3.2-2.8c0.2-0.2,0.5-0.3,0.6-0.5
			c0.7-1.1,1.8-1.9,2.9-2.5c2.1-1.1,4.2-1.9,6.6-0.9C64,7.9,64.6,8,65.2,8c3.4,0.1,6.9,0.1,10.3,0.1c0.9,0,1.7,0.1,2.6,0.1
			c0.2,0,0.5,0,0.7-0.1c0.3,0,0.6-0.1,0.8,0c1.3,0.6,2.6,0.1,4,0c0.2,0,0.4,0,0.6,0c0.9,0,1.7,0.1,2.6,0.2c1.1,0.1,2.3,0.1,3.4,0.2
			c0.7,0,1.5,0,2.2-0.1c2-0.2,4-0.3,6,0c1.5,0.2,3.1,0,4.6,0.1c1,0,1.9,0.1,2.9,0.1c0.4,0,0.7,0,1.1,0c1.7,0,3.4-0.3,5.1-0.1
			c2.1,0.2,4.1,0.2,6.1,0.3c1.2,0.1,2.5,0,3.7,0.1c0.9,0.1,1.7,0.2,2.6,0.2c2,0,4,0.1,6,0.1c1.8,0,3.6,0.1,5.3,0.1
			c0.9,0,1.7,0.2,2.6-0.3c0.1-0.1,0.4,0,0.6,0c0.9,0.1,1.9,0.3,2.8,0.3c1.5,0,3,0,4.5,0.3c0.5,0.1,1.1-0.2,1.9-0.3
			c0.7,0.8,1.5,1.6,2.3,2.4c0.2,0.2,0.3,0.4,0.5,0.5c1.5,1.4,3,2.9,4.4,4.3c1,1,2,2,3,3c1.2,1.2,2.4,2.5,3.7,3.8
			c1.1,1.2,2.3,2.3,3.5,3.4c1.6,1.5,3.1,3,4.7,4.4c0.6,0.5,1.2,1,1.7,1.4c0.3,0.2,0.6,0.5,0.8,0.7c0.4,0.5,0.7,1,1.5,1
			c0.4,0,0.8,0.6,1.1,1c0.9,1.7,2.2,3.1,3.6,4.4c0.4,0.4,0.8,0.7,1.2,1c2.7,2.5,5.2,5.1,7.5,7.9c1.6,1.9,3.4,3.4,5.1,5.1
			c1,1,1.9,2.1,3.4,2.6c0.5,0.2,1,0.8,1.2,1.4c0.7,1.6,0.7,3.1-0.4,4.6c-0.4,0.5-0.7,1-1.1,1.4c-0.3,0.3-0.9,0.4-1.3,0.4
			c-1.8,0.1-3.5,0.1-5.3,0.1c-0.4,0-0.8,0.1-1.4,0.1c0.1,1.4,0.2,2.7,0.3,4c0,1.7,0,3.4,0,5.1c0,1.2,0,2.4,0,3.6
			c0,0.7-0.1,1.4-0.2,2.1c-0.2,1-0.9,1.5-2.1,1.5c-7,0-14.1,0.1-21.1,0.1c-0.8,0-1.6,0.1-2.5,0.1c-0.1-0.5-0.1-0.9-0.2-1.2
			c-0.2-1.1-0.3-2.3-0.4-3.4c0-0.4,0-0.8,0.1-1.2c0.4-1.6-0.1-2.3-1.8-2.3c-1.8,0-3.7,0.1-5.5,0c-1.8,0-3.6-0.1-5.3-0.1
			c-1.3,0-2.5,0.1-3.8,0.2c-0.1,0.2-0.3,0.5-0.2,0.7c0.3,1.7,0.1,3.4,0,5.1c-0.1,1.1,0,2.3,0,3.4c-0.1,2.6-0.2,5.1-0.2,7.7
			c0,2.4,0.1,4.8,0,7.2c0,2.6-0.2,5.2-0.2,7.7c0,2.2,0.1,4.4,0.2,6.7c0,0.9,0.1,1.9,0.1,2.9c4.9,0,9.8,0,14.6,0
			c0.6-1.2,0.5-2.4,0.5-3.6c0-1.8,0-3.5,0.1-5.3c0-0.5,0.4-0.8,0.9-0.8c0.3,0,0.6,0,1,0c7.2,0,14.3,0.1,21.5,0.1c0.4,0,0.9,0,1.4,0
			c0.1-0.1,0.2-0.3,0.3-0.5c0.2-0.4,0.6-0.7,1.1-0.5c0.5,0.1,0.7,0.5,0.7,1c0,1.1,0,2.2,0,3.2c0,1.2,0,2.4,0,3.6
			c0,1.8,0,3.6,0.1,5.5c0.1,1.7,0.2,3.3,0.3,5c0,0.4,0.1,0.7,0.1,1.1c0.1,3.1,0.2,6.1-0.1,9.2c-0.1,0.9,0.1,1.9,0.1,2.9
			c0.1,1.6,0.1,3.1,0.2,4.7c0,0.7-0.2,1.4,0.4,1.9c0.1,0,0.1,0.1,0.1,0.2c0,0.5-1,1.8-1.6,1.9c-0.9,0-1.9,0.3-2.7,0
			c-1.3-0.4-2.7,0.4-4-0.3c-0.8,0.5-1.8-0.3-2.6,0.3c-0.3,0.2-0.9,0.1-1.3,0.1c-14.8,0-29.6,0-44.3,0c-6.6,0-13.3-0.2-19.9-0.2
			c-4.6,0-9.2,0.1-13.8,0.2c-4.1,0-8.2,0-12.3,0c-1.9,0-3.7,0.1-5.6,0.1c-1.3,0-2.5-0.1-3.8-0.1c-3.7-0.1-7.5-0.2-11.2-0.2
			c-5.1,0-10.2,0-15.3,0.1c-0.6,0-1.1,0.1-1.7,0.2c-0.4,0-0.8,0.1-1.2,0.1c-3-0.1-6.1-0.2-9.1-0.2c-4.6-0.1-9.1-0.1-13.7-0.1
			c-0.5,0-1-0.2-1.5-0.2c-0.9,0-1.8-0.1-2.7,0c-1.2,0.1-1.7-0.4-1.4-1.5c0.3-1.1,0.1-2.2,0-3.3c0-0.7-0.2-1.3-0.2-2
			c0.1-1.4,0.1-2.8,0.3-4.3c0.2-1.1-0.1-2.3-0.1-3.4c0-2.2,0-4.5,0-6.7c0-1.7,0.1-3.4-0.1-5c-0.2-2.8-0.2-5.7-0.2-8.5
			c0-6.4,0-12.7,0.1-19.1c0-1.1,0.3-2.2,0.3-3.3c0-2.5-0.1-4.9-0.1-7.4c0-3.1,0.1-6.3,0.1-9.4c0-2,0-4.1,0-6.1
			C18.3,63.6,18.3,63.5,18.2,63.2z M35,117.7L35,117.7c-0.4-0.5-1-0.1-1.5-0.2c-0.2-0.1-0.3-0.3-0.5-0.3c-2.5,0-5.1,0-7.6,0
			c-0.4,0-0.8,0-1.2,0c-1.5,0-3,0-4.5,0c-0.2,3.3,0.1,6.3,0.1,9.4c0.4,0,0.6,0,0.8,0c1.2-0.3,2.3-0.4,3.5-0.3c0.4,0,0.8,0,1.2-0.1
			c0.3,0,0.6,0,0.9,0c1.9-0.1,3.9-0.1,5.8-0.3c1.8-0.2,3.5-0.5,5.1-1.5c1.4-0.6,1.9-1.8,2.3-3.1c0.1-0.3,0-0.8-0.1-1.1
			c-0.5-1-1.1-2-2.4-2.1c-0.3,0-0.7-0.2-1-0.3l0,0C35.6,117.9,35.3,117.8,35,117.7z M93.3,99.8c0.1-0.1,0.3-0.1,0.4-0.2
			c0.9-0.2,1.8-0.5,2.6-0.9c2.8-1.3,5.6-2.4,8.5-3.5c0.5-0.2,1-0.3,1.5-0.3c1.1,0.1,2.3,0.3,3.4,0.4c2.4,0.2,4.4,2.9,3.9,5.4
			c-0.5,2.4-2.1,3.8-4,5c-0.9,0.5-1.9,0.8-2.8,1.3c-1.5,0.8-3,1.6-4.6,2.3c-1,0.5-2,1.1-3,1.5c-2.6,1.1-5.2,2-7.7,3.1
			c-0.3,0.1-0.6,0.4-1,0.6c0.9,0.8,1.2,1.7,1.4,2.6c0.4,1.6,0.5,3.3,1.2,4.8c0.2,0.5,0.1,0.9-0.4,1.2c-1.3,1-2.5,2.1-3.7,3.2
			c-0.9,0.8-1.7,1.7-2.6,2.6c0.2,0.3,0.3,0.5,0.4,0.7c0.4,1.1,0.1,2.4,1.2,3.3c0.2,0.2,0.1,0.8,0.1,1.2c0,0.2,0.1,0.5,0.2,0.7
			c0.8,1.2,0.7,1.9-0.4,2.9c-1.6,1.5-3.1,3-4,5.1c0.2,0,0.3,0.1,0.5,0.1c3.1,0,6.2,0.1,9.3,0c0.9,0,1.7,0,2.6-0.1c0.3,0,0.7,0,1,0.1
			c0.2,0,0.5,0.1,0.7,0.1c1.6,0,3.2,0,4.7,0c1.4,0,2.9,0,4.3,0c0.2,0,0.4-0.1,0.6-0.2c0.3-1.9-1.1-3-2-4.4c-0.3-0.1-0.7-0.1-1.1-0.2
			c-0.4,0.4-0.7,0.8-1.1,1.1c-0.4,0.4-1.4,0.2-1.7-0.2c-0.2-0.4,0-0.7,0.7-1.1c0.4-0.2,0.9-0.3,1.3-0.6c1.1-0.8,2.1-1.6,3.1-2.4
			c0.3-0.3,0.6-0.7,0.7-1.1c0.2-0.8,0.3-1.6,0.4-2.6c-1-0.2-1.8-0.4-2.7-0.5c-1.8-0.2-3.5-0.6-4.9-1.8c-0.1-0.1-0.3-0.2-0.4-0.3
			c-1-1.6-1.6-3.4-1.3-5.3c0.2-1.2,0.4-2.4,1.9-2.7c0.1,0,0.1-0.1,0.2-0.1c1-0.9,2.1-0.9,3.4-0.7c1.7,0.3,3.4,0.4,5.1-0.1
			c0.1-1.8,0.2-3.6,0.3-5.3c-1.2-0.9-2.4-1.2-3.7-1.4c-0.7-0.1-1.3-0.4-1.9-0.7c-0.4-0.2-0.7-0.5-0.5-0.9c0.2-0.4,0.5-0.7,1-0.6
			c0.2,0,0.4,0.2,0.7,0.2c0.5,0.2,1.1,0.5,1.6,0.6c1.1,0.2,2.2,0.4,3.4,0.6c1.8-1.6,3.7-3.3,5.7-5.1c0.1,0.9,0.3,1.6-0.3,2.2
			c-1.1,1.1-2.2,2.2-3.3,3.2c-0.4,0.3-0.5,0.7-0.5,1.1c-0.1,1.3-0.4,2.6,0,3.9c0,0.1,0,0.2,0,0.2c-0.6,0.6-0.2,1.5-0.6,2.3
			c2.2,0.3,4.2,0.6,6.4,0.9c0-0.7,0-1.3,0-1.8c0.1-0.9-0.2-1.8,0.2-2.7c0.2-0.4,0.1-0.9,0-1.3c-0.2-1.2-0.3-2.4,0-3.7
			c0.1-0.6,0-1.2,0-1.8c0-1.2-0.1-2.5-0.1-3.7c0-1.5,0.1-3,0.1-4.5c0-1.1,0-2.1,0-3.2c0-1.8,0.5-3.7,0.1-5.5c0-0.2,0-0.5,0-0.7
			c0-1.7,0-3.3,0-5c0-4.5,0.1-8.9,0.2-13.4c0-1.1,0.1-2.1,0.1-3.2c0-1.5,0.2-2.9-0.2-4.1c-0.9-0.4-1.7-0.6-2.3-1.1
			c-1.1-0.8-2-1.7-3-2.6c-0.8-0.7-1.5-1.5-2.3-2.2c-0.7-0.6-1.2-0.5-1.4,0.5c-0.1,0.8-0.2,1.6-0.3,2.4c-0.5,0.4-1,0.9-1.6,1.2
			c-0.6,0.4-1.2,0.7-1.7,1.1c-0.7,0.5-0.8,0.9-0.3,1.5c0.6,0.7,1.2,1.4,1.8,2c0.6,0.6,1,1.1,0.5,2c-0.3,0.5-0.4,1-0.6,1.5
			c-0.4,0.9-0.9,1.8-1.4,2.9c1.6,0.6,3.1,1.1,4.6,1.6c0.4,0.1,0.8,0.3,0.8,0.8c0,0.4,0.3,0.9-0.2,1.3c-0.4,0.3-0.8,0.2-1.1,0
			c-0.5-0.2-0.9-0.6-1.4-0.8c-1.1-0.6-2.3-1-3.6-1.2c-0.1,0.2-0.1,0.4-0.2,0.6c-0.4,1-0.8,2.1-1.3,3.1c-0.3,0.7-0.7,0.8-1.3,0.4
			c-0.2-0.1-0.4-0.3-0.7-0.5c0.3-0.6,0.5-1.2,0.8-1.7c0.9-1.5,0.9-3.4,2.2-4.8c0.6-0.7,0.9-1.7,1.2-2.6c0.2-0.6,0.5-1.3,0.1-1.9
			c-0.8-1-1.7-2-2.5-3c-0.4-0.5-0.4-0.7,0.2-1.2c1.2-0.8,2.4-1.7,3.6-2.5c0.7-0.4,1-0.9,1.1-1.7c0.1-1,0.4-1.9,0.6-3.1
			c-1.1-0.9-2.3-1.9-3.4-2.9c-1.7-1.6-3.4-3.2-5.1-4.8c-0.8-0.7-1.5-1.4-2.3-2.1c-0.8-0.7-1.5-1.5-2.3-2.2c-0.8-0.7-1.6-1.4-2.3-2.1
			c-1.4-1.3-2.6-2.7-4-4c-1.5-1.4-3-2.8-4.6-4.2c-0.5-0.5-1.2-0.8-1.9-1.2c-0.5,0.7-1,1.3-1.3,1.9c-1.2,1.9-2.4,3.8-3.6,5.6
			c-1,1.4-2.3,2.3-4,2.5c-0.6,0.1-1.2,0.1-1.8,0.1c-1.5,0-2.9-0.2-4.1-1.2c-0.5-0.4-0.9-1-1-1.5c-0.3-1.7-0.4-3.5,0.5-5.1
			c1.1-1.9,2.2-3.7,3.4-5.5c1-1.5,2-3,2.4-4.5c-0.3-0.6-0.6-1-0.9-1.4c-0.5,0.3-0.8,0.4-1,0.6c-1.1,0.9-2.2,1.8-3.2,2.7
			c-0.7,0.6-1.4,0.7-2.1,0.5c-0.6-1.7-2.1-2.5-3.2-3.6c-2.2,1.5-3.7,3.6-5.6,5.5c-0.4-0.4-0.7-0.8-1.2-1.3c0.7-0.6,1.4-1.2,2-1.8
			c0.6-0.6,1.1-1.3,1.8-1.7c1.1-0.6,1.8-1.4,2.3-2.5c0.1-0.3,0.3-0.5,0.5-0.8c0.6,0.3,1.2,0.1,1.6,0.8c0.6,1.3,1.7,2.2,2.8,3.1
			c0.4-0.3,0.7-0.6,1-0.9c0.3-0.3,0.7-0.6,1.1-0.7c0.7-0.3,1.2-0.7,1.6-1.5c-3.4-2.2-5.8-5.4-9-7.9c-0.8,1.3-2.1,2.1-3.2,3
			c-0.7,0.6-1.4,1.2-2,1.8c-1.2,0.9-2.3,1.9-3.5,2.8c0,0-0.1,0-0.1,0.1c-1.2,1.2-2.5,2.4-3.7,3.6c-0.8,0.8-1.6,1.5-2.4,2.3
			c1.4,1.5,2.6,2.9,3.9,4.2c0.5,0.5,0.5,0.9,0.3,1.4c-0.1,0.3-0.3,0.6-0.5,0.8c-0.6,1-1.2,1.9-1.9,2.9c1.5,0.6,3.2,0.5,4.6,1.4
			c-0.2,0.5-0.3,0.9-0.5,1.4c-2.4-0.6-4.8-0.6-7-1.8c0.2-0.4,0.3-0.7,0.5-1c0.7-1,1.5-2,2.3-2.9c0.8-0.9,0.7-1.6-0.4-2.5
			c-0.6-0.5-1.2-1.1-1.8-1.7c-0.3-0.3-0.6-0.5-0.9-0.7c-0.7,0.6-1.6,1.1-2.1,1.8c-0.8,1.1-2.1,1.6-2.9,2.7c-0.4,0.5-0.8,1-1.3,1.3
			c-1.6,1.3-3.2,2.4-4.5,4c-0.6,0.8-1.5,1.5-2.3,2.2c-1.8,1.7-3.6,3.3-5.4,5c-0.2,0.2-0.5,0.4-0.8,0.6c-0.7,0.6-1.6,1.2-2.2,1.9
			c-0.5,0.8-1.2,1.3-1.9,1.9c-0.9,0.7-1.7,1.5-1.4,2.8c0.3,1.7,0,3.5,0,5.2c-0.1,4.3-0.2,8.6-0.2,12.9c-0.1,6.1-0.2,12.2-0.3,18.3
			c-0.1,3.2-0.2,6.4-0.3,9.7c0,1.5,0.1,2.9,0.1,4.4c0.1,3.1,0.1,6.2,0.2,9.5c3.1-0.1,6.2-0.2,9.3-0.2c0.1-0.3,0.2-0.4,0.2-0.6
			c0.2-1.4,0.4-2.8,0.5-4.3c0.1-1,0.1-1-0.8-1.3c-0.3-0.1-0.5-0.1-0.8-0.2c-1.4-0.5-2.8-1-4.1-1.6c-0.4-0.1-0.6-0.5-0.4-0.9
			c0.1-0.2,0.5-0.4,0.7-0.4c0.6,0.1,1.2,0.2,1.8,0.5c1.1,0.4,2.2,0.8,3.4,1c0.9,0.2,1.7,0,2.6-0.1c2.1-0.1,4.1-0.3,6.2-0.4
			c0,0,0.1,0,0.3-0.2c0.1-1.1,0.1-2.4,0.2-3.7c2.1-1,4.2-1.9,6.6-2.3c0.1,0.2,0.1,0.4,0.2,0.6c0.6,1.1,0.6,1.1-0.6,1.3
			c-1.3,0.3-2.7,0.5-3.5,1.4c-0.2,1.5-0.3,2.8-0.5,4.1c-0.7,0.6-1.5,0.8-2.3,0.6c-1.2-0.3-2.4-0.2-3.6,0c-1.4,0.2-2.4,0.9-3,2.2
			c-0.7,1.3-0.6,2.7-0.7,4.2c1.2,0.2,2.3,0.3,3.3,0.5c1.1,0.2,2.2,0.1,3.2,0.9c0.1,0.1,0.4,0.2,0.6,0.2c0.8,0.1,1.3,0.6,1.7,1.2
			c0.7,1,0.8,2.2,0.9,3.4c0.1,1.7-0.4,2.5-1.9,3.3c-1.9,1-3.8,1.6-5.9,1.9c-1.1,0.1-2.1,0.3-3.1,0.4c-0.1,0.6-0.1,1-0.2,1.5
			c-0.3,1.4-0.7,2.8-1.1,4.2c-0.1,0.4-0.1,0.8-0.2,1.1c1,0.2,1.8,0.4,2.7,0.7c1.2,0.3,1.5,0.9,1.4,2.1c-0.1,0.8-0.2,1.7-0.2,2.5
			c0,1.2-0.2,2.4,0.4,3.6c0.4,0,0.8,0.1,1.2,0.1c1.4,0,2.8-0.1,4.2-0.1c1.9,0,3.9,0,5.8-0.1c0.2,0,0.5,0,0.7,0.1
			c0.4,0.3,0.6,0,0.8-0.2c0.7-0.6,0.8-1.4,0.8-2.3c0.1-4.6,0.2-9.1,0.2-13.7c0-3.7,0-7.4,0-11.1c0-1.6-0.1-3.2-0.2-4.7
			c-0.1-1.4,0-1.4,1.5-1.7c0.2,0,0.4,0,0.6,0c2.1,0.1,4.1,0.3,6.2,0.3c1.6,0,3.2-0.1,4.9-0.1c1.7,0,3.3,0.2,5,0.2
			c1.3,0,2.5,0,3.5,0.9c-0.2,0.2-0.4,0.4-0.7,0.6c0.6,1.1,0.2,2.7,1.6,3.4c-0.3,0.8-0.7,1.6-0.7,2.3c-0.1,0.9-0.1,1.8-0.2,2.7
			c-0.2,1.4-0.3,2.8-0.2,4.1c0.1,1.4,0.1,2.7,0.1,4.1c0,2.9,0.2,5.9,0.3,8.8c0,0.8,0.2,1.5,0.2,2.2c0,1.2,0,2.5-0.1,3.7
			c0.3,0,0.4,0.1,0.5,0.1c3.7,0,7.4,0,11.1,0c0.6,0,1.1,0.1,1.8,0.2c0,0,0.2-0.2,0.3-0.3c1.1-1.7,2.2-3.5,3.4-5.2
			c0.7-1,0.7-1.8,0.2-2.9c-0.6-1.5-1.1-3-1.6-4.5c-0.3-0.9-0.1-1.1,0.7-1.7c0.6-0.4,1.2-0.9,1.8-1.4c0.5-0.2,0.6-0.6,0.3-1.2
			c-0.4,0-0.9,0-1.4,0c-0.1,0-0.2,0-0.3,0c0-0.5,0.2-0.7,0.7-0.7l0,0c0.9,0.5,1.8,0.6,2.6,0c0.1-0.2,0.1-0.5,0.3-0.6
			c0.6-0.5,1.2-1,1.8-1.5c0.4-0.3,0.5-0.7,0.4-1.2c-0.3-1.1-0.4-2.3-0.8-3.5c-0.3-1-0.4-2.1-1.3-2.8c-1.5,0.6-2.9,1.2-4.3,1.7
			c-0.6,0.2-1.2,0.5-1.8,0.4c-1.5-0.1-3-0.6-4.2-1.6c-1.4-1.2-2.3-2.9-2.3-4.9c0-0.5,0.3-1.1,0.6-1.6c0.3-0.4,0.7-0.8,1-1.2
			c0.1-0.1,0.1-0.2,0.2-0.2c0,0,0,0,0,0c0.5-0.3,1.1-0.5,1.6-0.8c0-0.2,0-0.5,0-0.7c0,0,0.1,0,0.1-0.1c0.2-0.2,0.5-0.4,0.7-0.6
			c0.1-0.1,0.2-0.2,0.3-0.2c0.9-0.2,1.8-0.4,2.6-0.6c0.1,0,0.1-0.2,0.1-0.3c0,0,0.1-0.1,0.1-0.1c1.7-0.3,3.3-0.8,4.4-2.1
			c0.4,0,0.9,0.2,1,0c0.5-0.7,1.3-0.7,2-0.9c0.3-0.1,0.6-0.3,0.8-0.5C92.5,100.5,92.9,100.1,93.3,99.8
			C93.2,99.8,93.3,99.8,93.3,99.8z M103.4,97.9L103.4,97.9c-0.7,0.2-1.4,0.5-2.2,0.7l0,0c-0.2,0.1-0.5,0.1-0.7,0.2
			c-0.5,0.1-1,0.3-1.5,0.4c-0.6,0.2-1.3,0.5-1.9,0.7c-0.3,0.1-0.7,0.3-1,0.4c-2.2,1-4.3,2-6.4,3c-0.6,0.3-1.1,0.6-1.7,0.9
			c-1.1,0.5-2.3,1.1-3.4,1.5c-1.9,0.7-3.4,1.9-4.9,3.1c-0.6,0.5-1.1,1.1-1.2,2c-0.1,1.3,0.9,3.3,2.2,3.8c1.6,0.5,3.2,0.8,4.8,0.2
			c1.4-0.6,3-0.8,4.2-1.9c0.1-0.1,0.3,0,0.4-0.1c0.8-0.3,1.5-0.6,2.3-0.8c0.5-0.2,1-0.5,1.4-0.7c0.5-0.2,1-0.3,1.4-0.5
			c1.7-0.8,3.5-1.6,5.2-2.4c0.3,0,0.8,0,0.9-0.1c0.3-0.7,1-0.7,1.5-1.1c0.2-0.1,0.5-0.3,0.7-0.4c1.2-0.5,2.3-1,3.2-2
			c0.4-0.2,0.7-0.4,1.1-0.4c1.3,0,1.8-1,2.7-1.6c0.2-0.1,0.2-0.4,0.3-0.6c0.2-0.4,0.3-0.8,0.5-1.2c0.5-1,0.1-2.6-0.6-3.3
			c-0.8-0.8-1.7-0.8-2.7-0.7l0,0c-0.9-0.4-1.8-0.2-2.7,0.2c-0.1,0-0.1,0-0.2,0.1c-0.2,0.1-0.4,0.1-0.5,0.2c-0.1,0-0.1,0-0.2,0.1
			C104,97.6,103.7,97.7,103.4,97.9z M82,32.9c0.1-0.1,0.1-0.3,0.1-0.4c0.2-1.4,0.8-2.4,2-3.1c0.9-0.2,1.8-0.5,2.4-1.2
			c0.8,0,1.7,0.1,2.4-0.4c0.3,0.1,0.6,0.3,0.9,0.3c2.3,0.2,4.5,0.2,6.7-0.4c0.9-0.2,1.7-0.6,2.3-1.4c0.3-0.5,0.3-1,0-1.4
			c-0.9-1.1-2.2-1.8-3.6-1.8c-1.5-0.1-3,0.1-4.5,0.1c-0.4,0-0.9-0.3-1.3-0.3c-1.7,0-3.3,0.1-5,0.2c-0.5,0.1-1,0.2-1.5,0.2
			c-3.2-0.3-5.6,1.1-7.5,3.6c-0.2,0.2-0.5,0.4-0.7,0.6c-0.3,0.3-0.7,0.6-0.9,0.9c-0.7,1.1-1.4,2.2-2.1,3.3c-0.4,0.7-0.9,1.3-1.2,2
			c-0.7,1.8-1.7,3.3-2.6,4.9c-0.7,1.3-0.3,3.5,0.9,4c1.8,0.8,3.7,1.4,5.5,0.2c0.4,0,0.7-0.1,1-0.5c0.4-0.6,0.9-1.2,1.3-1.8
			c1.4-2,2.8-4,4.2-6.1c0.1-0.1,0.1-0.2,0.2-0.3c0-0.1,0.1-0.1,0.1-0.2c0.1-0.2,0.3-0.4,0.4-0.6c0.1,0,0.2-0.1,0.2-0.1
			C81.8,33,81.9,32.9,82,32.9z M117,132.9c-0.3-0.1-0.6-0.2-0.9-0.2c-2-0.7-4.1-0.9-6-1.3c-0.2,0.7-0.3,1.3-0.4,1.8
			c-0.1,0.4-0.2,0.8-0.2,1.2c0,0.7-0.2,1.2-0.9,1.5c-0.5,0.2-0.7,0.6-0.6,1.2c0.1,0.7,0.5,1.2,1,1.7c0.6,0.7,1.2,1.4,1.5,2.3
			c0.2,0.5,0.7,0.9,1,1.3c0.3,0.2,0.5,0.6,0.8,0.6c1.7,0.1,3.3,0,5.1,0c0.1-1.1,0.2-2.1,0.3-3.2c0.1-1.6,0.1-3.3-0.1-4.9
			c-0.1-0.5,0-1-0.1-1.5C117.4,133.1,117.2,133,117,132.9C117,132.9,117,132.9,117,132.9z M114.7,121.7c-0.4,0-0.7-0.1-1.1-0.1
			c-1-0.4-2-0.5-3.1-0.2c-0.3,0.1-0.6,0-0.9-0.1c-0.4-0.1-0.8-0.2-1.1-0.2c-0.6-0.1-1.3-0.1-1.9-0.1c-1.6,0.2-3.2-0.4-4.7,0.8
			c-0.6,0.5-1.1,1-1.2,1.8c-0.3,1.4,0.2,2.6,1,3.7c0.6,0.9,1.4,1.6,2.6,1.7c0.8,0.1,1.7,0.4,2.5,0.6c1.2,0.2,2.5,0.3,3.8,0.4
			c1,0.2,1.9,0.4,2.9,0.6c0.1,0,0.2,0.1,0.3,0.1c1,0,2-0.3,2.7,0.7c0,0.1,0.2,0,0.3,0c0.2,0.1,0.4,0.1,0.8,0.2c0-3.3,0-6.4,0-9.6
			C116.6,122,115.7,121.8,114.7,121.7z M162.8,30.5c-0.6,0.1-1.1,0.3-1.7,0.4c-1.3,0.4-2.6,0.8-3.9,1.2c-0.6,0.2-1.2,0.4-1.8,0.6
			c-1.2,0.5-1.5,1.2-0.9,2.3c0.2,0.4,0.5,0.8,0.8,1c0.6,0.5,1.4,1,1.9,1.6c0.6,0.6,1.2,0.8,1.9,0.7c0.6,0,1.2-0.1,1.8-0.1
			c2.1,0.2,4.1,0,6-1.1c0.6-0.1,1.1-0.1,1.4-0.7c0.3-0.4,0.7-0.4,1.2-0.3c0.9,0.1,1.8,0.1,2.5-0.9c-1.1-1.1-2.2-2.2-3.3-3.3
			c-0.2-0.2-0.4-0.2-0.6-0.3c-0.4,0-0.6-0.2-0.7-0.7c-0.3-0.9-0.7-1.1-1.6-1C164.8,30.2,163.8,30.4,162.8,30.5z M137.8,12.5
			c-0.2,0.2-0.5,0.4-0.7,0.6c-0.2,0.1-0.4,0.3-0.6,0.4c-1.1,1.1-2.2,2.3-3.3,3.4c-0.3,0.3-0.6,0.6-0.9,0.9c-0.3,0.2-0.6,0.5-0.9,0.7
			c-0.9,0.9-1.8,1.8-2.7,2.7c-1.2,1.2-2.5,2.3-3.4,3.8c-0.6,0.9-1,1.9-0.2,2.9c0.3,0.4,0.5,0.9,0.8,1.3c0.8,0.8,1.6,1.4,2.9,0.9
			c0.6-0.3,1.3-0.3,2-0.4c1.2-0.1,2.4-0.5,3.3-1.2c2.1-1.5,4-3.2,5.7-5.1c0.4-0.4,1.1-0.2,1.2-0.9c1-1.1,2.1-2.2,3.1-3.4
			c0.3-0.5,0.7-0.9,1-1.4c1.4-1.1,2.5-2.4,3.6-3.8c0.4-0.4,0.5-1.3,0-1.6c-0.8-0.5-1.5-1.3-2.6-1.4c-2.1-0.1-4.2-0.3-6.3-0.4
			c-0.2,0-0.5,0.1-0.7,0.3c-0.4,0.2-0.7,0.5-1,0.8C138,12,138,12.2,137.8,12.5z M173.4,36.6c-0.6,0.2-1.1,0.3-1.6,0.5
			c-0.6,0.3-1.4,0.4-1.8,1.1c-0.5,1.1-0.6,2.2-0.4,3.3c0.2,1.1-0.1,1.7-1.2,2.1c-0.4,0.2-0.9,0.3-1.4,0.5c0.7,0.9,0.8,2.1,1.9,2.8
			c0.9-0.5,1.9-1,2.9-1.5c0.6-0.3,1.2-0.6,1.9-0.7c0.7-0.2,1.1,0,1.2,0.6c0.2,0.6,0,1-0.7,1.3c-1,0.5-2.1,0.9-3.1,1.4
			c-0.8,0.4-1.6,0.8-2.4,1.3c-0.5-0.3-1-0.4-1.2-0.8c-0.6-0.7-1-1.5-1.6-2.3c-0.3-0.4-0.5-0.8-0.7-1c-1.2,0.1-1.4,1.2-1.9,1.8
			c-0.5,0.6-0.2,1.4,0.1,2.1c-0.4,0.3-0.8,0.7-1.1,0.9c-1.6-0.2-1.9-0.9-1.5-2.5c0.2-0.9,0.6-1.7,1-2.5c0.1-0.2,0.3-0.5,0.5-0.6
			c1.1-0.5,2-1.4,3.3-1.7c0.8-0.2,1.8-0.5,2-1.5c0.2-0.8,0-1.7,0-2.6c-0.3,0-0.5,0-0.6,0c-2.7,0.9-5.6,1.1-8.4,1.2
			c-0.8,0-1.4-0.1-2-0.7c-0.2-0.2-0.5-0.3-0.8-0.5c-1.9-1.3-3.3-2.9-3.4-5.3c0-0.7,0.1-1,0.8-1.3c0.6-0.3,1.2-0.6,2-1
			c-0.9-0.7-1.7-1.3-2.4-2c-0.4-0.3-0.8-0.7-1.3-1c-0.9-0.5-1.8-1.1-2.9-0.6c-0.8,0.4-1.6,0.8-2.4,1.3c-0.5,0.3-0.9,0.7-1.3,1
			c-0.7,0.6-1.4,1.3-2,1.9c-1.4-0.9-2.4-2.9-2.1-4.2c1.1-0.1,1.8,0.5,2.1,1.5c1.4-0.9,2.7-1.8,3.9-2.7c0.7-0.5,1.4-1,2.2-1.4
			c0.9-0.4,1.5-0.2,2.1,0.4c1.4,1.2,2.8,2.3,4.2,3.5c0.4,0.4,0.9,0.7,1.3,1c0.3,0.2,0.7,0.4,1.1,0.4c0.7-0.1,1.4-0.3,2.1-0.5
			c0.8-0.2,1.5-0.4,2.3-0.6c0.8-0.2,1.5-0.4,2.4-0.6c-0.5-0.5-1-0.9-1.4-1.3c-1.4-1.5-2.8-3-4.1-4.4c-0.3-0.3-0.8-0.5-1.1-0.9
			c-0.5-0.7-1-1.4-1.9-1.8c-0.2-0.1-0.4-0.3-0.5-0.5c-0.3-0.8-1-1.2-1.6-1.7c-0.2-0.2-0.5-0.3-0.6-0.6c-0.6-1.1-1.7-1.6-2.7-2.2
			c-0.4,0.3-0.7,0.5-1,0.8c-1.7,1.8-3.4,3.6-5.1,5.5c-0.5,0.6-0.9,1.2-1.5,1.7c-0.7,0.7-1.4,1.2-2.1,1.9c-2.2,2.2-4.3,4.4-7,5.9
			c-1,0.5-2,0.7-3.1,0.9c-0.7,0.1-1.4,0.2-2.1,0.4c-0.9,0.3-1.7,0.2-2.4-0.2c-1.7-1-3-2.4-3.7-4.3c-0.1-0.4-0.1-0.9,0-1.3
			c0.5-1.5,1.2-2.9,2.5-4c0.4-0.3,0.6-0.7,1-1.1c-1.5-0.7-2.9-1.5-4.3-2c-1-0.4-2.1-0.7-3,0.2c-0.7,0.7-1.6,1.3-2,2.2
			c-0.6,1.2-1.5,0.9-2.4,0.9c-0.3,0-0.5-0.3-0.8-0.4c-0.8-0.3-1.5-0.7-2.3-1c-0.7-0.2-1.4,0.1-2,0.6c-0.8,0.8-1.5,1.7-2,2.6
			c-0.3,0.6-0.7,1.1-1.1,1.6c-1.3-0.5-1.5-1-0.9-2c0.1-0.2,0.4-0.4,0.4-0.6c0.3-1.3,1.5-1.9,2.3-2.7c0.4-0.4,0.9-0.8,1.1-1.6
			c0.8,0.1,1.5,0.1,2.1,0.3c1.1,0.3,2.1,0.7,3.2,1.1c0.5,0.2,0.9,0.1,1.2-0.3c0.4-0.6,0.9-1.1,1.4-1.7c0.5-0.5,0.9-1.1,1.4-1.6
			c0.6-0.5,1.4-0.5,2.2-0.3c1.6,0.4,3.2,0.7,4.6,1.6c0.4,0.3,0.9,0.5,1.4,0.7c1.2,0.6,1.6,0.6,2.6-0.5c1.1-1.1,2.1-2.2,3.2-3.2
			c1.6-1.4,2.9-2.9,4.4-4.4c-1.5,0-2.8,0-4.1,0c-1.9,0-3.7-0.1-5.6-0.1c-1.9,0-3.8,0.2-5.8-0.1c-0.5-0.1-0.9-0.1-1.4-0.1
			c-1.1,0-2.1,0.1-3.2,0.1c-2-0.1-4-0.8-6-0.3c-0.2,0-0.4-0.1-0.6-0.1c-1.9-0.1-3.7-0.2-5.6-0.3c-2-0.1-4.1-0.2-6.2-0.3
			c-0.5,0-1.1-0.1-1.5,0c-1.2,0.3-2.3,0.1-3.4,0c-1.6-0.1-3.2-0.1-4.8-0.1c-1,0-2,0.1-3,0.1c-0.4,0-0.9-0.2-1.3-0.2
			c-1.7,0.1-3.5,0.4-5.2-0.1c-0.2,0-0.4,0-0.6,0c-1.3,0.1-2.6,0.1-3.9,0.1c-2.5,0-5,0-7.5-0.1c-0.2,0-0.5,0-0.9,0.1
			c1.7,1.3,3.2,2.5,4.8,3.7c1.4,1,2.7,2.1,4.1,3.1c1.5,1.1,3.1,2.1,4.6,3.2c0.9,0.7,1.8,1.5,3,1.5c0.6,0,1.2,0,1.8,0.1
			c1.7,0.2,3.3,0.1,5-0.1c1.1-0.1,2.1-0.3,3.2,0.3c0.2,0.1,0.6,0.1,0.9,0.1c0.9-0.1,1.7-0.1,2.6-0.2c2.2-0.3,3.5,1.1,4.7,2.6
			c0.7,0.9,0.4,2,0,2.9c-0.6,1.2-1.3,2.3-2.6,2.6c-1.5,0.4-3.1,0.5-4.7,0.7c-0.5,0.1-0.9,0-1.4,0.3c0.5,0.6,1,1.1,1.5,1.6
			c1.4,1.3,2.9,2.6,4.3,3.9c0.5,0.5,0.9,1,1.4,1.5c0.3,0.4,0.6,0.8,1,1.2c2.2,1.9,4.4,3.9,6.6,5.8c1.4,1.2,2.9,2.3,4.2,3.5
			c1.2,1.2,2.7,2,3.6,3.5c0.5,0.9,1.6,1.4,2.5,2c0.2,0.2,0.5,0.3,0.6,0.5c0.5,1.2,1.5,1.7,2.7,1.9c1.3,0.2,2.7,0.2,4,0.2
			c1.8,0,3.6-0.1,5.3,0c1.4,0,2.9,0,4.3,0.3c1.8,0.3,3.7-0.1,5.6,0.3c1.2,0.3,2.5-0.3,3.7-0.2c3.6,0.2,7.2-0.3,10.9-0.1
			c2.3,0.1,4.6-0.1,6.9-0.1c3.9-0.1,7.9-0.1,11.8-0.1c2.1,0,4.1,0,6.2,0c1.4,0,2.8,0,4.1,0.1c0.4,0,0.7,0,1.1-0.1
			c0.6,0,1.2-0.1,1.8-0.1c1.3,0,2.6,0.2,3.9,0.1c0.7,0,1.4-0.2,2.2-0.3c-0.4-0.4-0.7-0.6-1-1c-1.7-2-3.5-4.1-5.2-6.1
			c-0.6-0.6-1.1-1.4-1.7-1.9c-1.4-1.2-2.9-2.3-4-3.9c-0.1-0.1-0.2-0.2-0.3-0.3C177.7,40.8,175.6,38.7,173.4,36.6z M83.3,33
			c0.8,0.9,1.4,1.8,2.2,2.6c1.3,1.3,2.7,2.5,4.1,3.8c1,0.9,2.1,1.9,3.1,2.8c1.6,1.5,3.2,3.1,4.8,4.7c1.3,1.3,2.7,2.6,4.1,3.8
			c1.1,1,2.2,2.1,3.4,3c1.7,1.5,3.5,2.9,5.3,4.3c1,0.8,2.1,1.6,3.1,2.4c0.4,0.3,0.8,0.7,1.2,1.1c0.7,0.7,1.4,1.5,2.6,1.3
			c0.8-0.1,1.8-0.1,2.6,0c2,0.4,4,0.1,6,0.3c1.1,0.1,2.2-0.1,3.3-0.1c1.6,0,3.3,0.1,4.9,0.1c3.4,0,6.8-0.1,10.2-0.1
			c1.8,0,3.7,0.1,5.5,0.1c2.7,0,5.4,0,8,0.1c0.9,0,1.7,0.2,2.6,0.1c2.8-0.1,5.5-0.4,8.3-0.3c2.7,0.1,5.4,0.1,8,0.1
			c1.6,0,3.1-0.2,4.7-0.1c2.8,0.1,5.6-0.4,8.4,0c1.2,0.2,2.4-0.1,3.7-0.2c1.1-0.1,2.2-1,2.5-2.2c0.1-0.3,0.1-0.7-0.1-0.9
			c-0.6-1-1.2-2-2.6-1.9c-0.3,0-0.6,0-1,0c-1.4,0-2.9,0.1-4.2-0.1c-2.1-0.3-4.2-0.1-6.3-0.2c-1.3-0.1-2.5,0-3.8,0
			c-1.4,0-2.8-0.1-4.2-0.2c-1.1,0-2.1-0.2-3.2,0.2c-3.1-0.5-6.2-0.4-9.4-0.3c-3.5,0.1-7.1,0.2-10.6,0.3c-1.8,0.1-3.5,0.1-5.2,0.2
			c-0.8,0-1.7,0.1-2.5,0c-1.6-0.1-3.2-0.2-4.8-0.3c-1.6-0.1-3.3-0.1-4.9-0.1c-1.6-0.1-3.3-0.1-4.9-0.2c-0.7,0-1.4,0-2.1,0
			c-1,0.1-2,0.3-2.9,0.2c-1.5-0.1-3-0.2-4.5-0.3c-0.4,0-0.9-0.2-1.2-0.4c-1.4-0.8-2.2-2.3-3.2-3.4c-0.4-0.4-0.7-0.9-1.1-1.2
			c-0.4-0.4-0.8-0.7-1.2-1.1c-0.7-0.6-1.3-1.2-2-1.7c-1.2-1-2.3-1.9-3.5-2.9c-1.5-1.3-3.1-2.6-4.6-3.9c-1.1-1-2.2-2-3.3-3
			c-1.7-1.6-3.4-3.2-5.1-4.7c-1.7-1.5-3.4-3-5-4.4C86.2,30.4,84.4,31.3,83.3,33z M60.2,15.1c0.7,0.2,1.3,0.5,1.7,0.4
			c0.7-0.3,1.1,0.1,1.5,0.4c1.4,1.3,2.7,2.6,4,3.9c0.2,0.2,0.3,0.4,0.5,0.5c2,1.3,3.7,2.9,5.2,4.7c0.2,0.2,0.5,0.3,0.8,0.5
			c0.7-0.5,1.3-1,1.9-1.6c0.7-0.8,1.8-1.3,2.7-1.9c-0.2-0.3-0.5-0.7-0.7-0.9c-2.8-2.4-5.6-4.7-8.4-7.1c-0.7-0.6-1.5-1.2-2.3-1.7
			c-1.4-0.9-2.5-2.2-4.3-2.6c-2.8-0.6-5.1,0-7.1,2c-0.8,0.7-1.5,1.4-2.3,2.1c-0.9,0.8-1.9,1.6-2.7,2.5c-1.7,1.7-3.4,3.5-5.1,5.2
			c-1.2,1.2-2.5,2.3-3.7,3.5c-0.3,0.3-0.8,0.6-1.1,0.9c-1.6,1.5-3.2,3.1-4.8,4.6c-1,1-2.2,1.8-3,2.9c-1.2,1.5-2.7,2.5-4,3.9
			c-0.7,0.7-1.5,1.2-2.2,1.9c-1.2,1.1-2.3,2.4-3.6,3.4c-1.6,1.2-2.9,2.7-4.1,4.2c-0.7,0.8-1.5,1.5-2.3,2.2c-0.5,0.3-0.9,0.7-1.3,1
			c-0.6,0.4-1.1,0.9-1.3,1.7c0,0.2-0.3,0.4-0.5,0.6c-0.1,0.1-0.3,0.3-0.3,0.4C13,53.1,13,53.7,13,54.3c0,0.8,0.2,1.5,0.1,2.3
			c-0.2,1.2-0.2,2.3,0.4,3.4c0.2,0.4,0.4,0.7,0.7,0.7c0.4,0.1,0.8,0.1,1.2,0c1-0.1,2-0.3,3.1-0.5c0-0.8,0.1-1.6,0-2.3
			c-0.2-1.9-0.1-3.7,1-5.3c0.2-0.3,0.4-0.6,0.7-0.8c1.2-1,2.5-2,3.7-3.1c1-0.9,1.9-1.9,2.9-2.8c1.3-1.2,2.7-2.1,4-3.4
			c2.1-2.1,4.5-3.9,6.5-6.1c1.3-1.4,2.8-2.5,4.1-3.8c1.1-1,2.4-1.7,3.1-3.1c0.1-0.3,0.5-0.6,0.8-0.7c1-0.1,1.3-1,1.9-1.5
			c1.1-0.9,2-2.1,3.2-2.8c1-0.6,1.7-1.4,2.5-2.2c0.7-0.7,1.3-1.4,2-2c0.5-0.4,1-0.8,1.4-1.2c0.6-0.5,1.2-1,1.8-1.5
			c0.2-0.2,0.5-0.2,0.6-0.5C59.1,16.6,59.7,15.8,60.2,15.1z M48.2,110.7c-0.1,1.1-0.2,2.1-0.2,3.2c0,0.6,0.3,1.2,0.3,1.9
			c0,1.7,0,3.3,0,5c0,2.4,0,4.8,0,7.1c0,1.9,0,3.8,0,5.7c0,2.6-0.1,5.2-0.2,7.7c0,0.4,0.1,1,0.3,1c0.5,0.2,1.2,0.1,1.7,0.1
			c0.1,0,0.3-0.4,0.3-0.6c0.1-0.8,0.2-1.6,0.2-2.5c0-1.8,0-3.6,0.1-5.3c0-1,0.1-1.9,0.1-2.9c0-1.7-0.1-3.4-0.1-5.1
			c0-1.8,0-3.6,0-5.4c0-0.4-0.1-0.9-0.1-1.3c0.3-1.8,0.1-3.6,0.1-5.3c0-1.1,0.1-1.3,1.2-1.2c2.8,0,5.7,0.1,8.5,0.2
			c1.1,0,2.3,0.1,3.5,0.1c0,0.5,0.1,0.8,0.1,1.2c0,1.2-0.1,2.3-0.1,3.5c0,4.6,0.1,9.3,0.1,13.9c0,3.1,0,6.2,0.1,9.2
			c0,1.4,0.6,1.9,2,1.5c0.2-0.1,0.5-0.1,0.7-0.2c0-0.3,0.1-0.5,0.1-0.7c-0.1-4.3-0.1-8.5-0.2-12.8c-0.1-4.8-0.1-9.6-0.2-14.4
			c0-0.8,0-1.6-0.1-2.4c-0.2-1-0.5-1.3-1.5-1.4c-1.2-0.1-2.4-0.2-3.6-0.3c-2.2-0.1-4.3-0.1-6.5-0.1C52.6,110.3,50.5,110,48.2,110.7z
			 M26.4,135.4c0.6-2.8,1.2-5.4,1.8-8.1c-0.7,0.1-1.1,0.2-1.6,0.2c-1,0.1-2,0.2-3,0.1c-1.3-0.1-2.5,0.4-3.8,0.6
			c0,0.8-0.1,1.5-0.1,2.2c0,1.2,0.1,2.4-0.1,3.6c-0.3,2.9-0.2,5.7,0.4,8.5c3.4,0,6.8,0,10.2,0c0.5-1.8,0.3-3.5,0.3-5.1
			c0-1.3-0.1-1.4-1.4-1.6c-0.3,0-0.6,0-0.8-0.1C27.8,135.6,27.2,135.5,26.4,135.4z M51.8,128.1C51.8,128.1,51.8,128.1,51.8,128.1
			c0,0.5,0,1,0,1.4c0,3.8-0.1,7.6-0.1,11.4c0,1,0.5,1.6,1.5,1.7c1.3,0.1,1.7-0.2,1.7-1.6c0-2.1,0.1-4.1,0.1-6.2
			c0.1-6.5,0.3-12.9,0.4-19.4c0-1.5,0-1.5-1.4-1.5c-0.4,0-0.8,0-1.2,0c-0.6,0-0.9,0.3-0.9,0.9c0,0.3,0,0.6,0,1
			C51.8,119.9,51.8,124,51.8,128.1z M13.2,62.6c0.1-0.1,0.1-0.2,0.2-0.3c-0.2-0.1-0.4-0.2-0.5-0.4c-0.1,0.1-0.1,0.1-0.2,0.2
			C12.9,62.3,13,62.4,13.2,62.6z"/>
		<path style="fill:#0B0A0A;" d="M201.2,205.9c0.2-0.3,0.4-0.8,0.7-0.9c0.6-0.2,1.3-0.3,1.9-0.3c2.5,0,5,0,7.7,0
			c0.1-0.8,0.2-1.6,0.2-2.3c-0.1-3-0.2-6-0.2-9c-0.1-3.6-0.1-7.3-0.2-10.9c0-1.4,1.2-2.7,2.6-2.7c4.7-0.1,9.3-0.2,14-0.3
			c0,0,0.1,0,0.2,0.1c-0.3,1.2-0.2,2.3-0.1,3.5c0.1,1.5-0.1,3-0.1,4.5c0,0.9,0.2,1.9,0.2,2.8c0,1.4,0,2.7,0,4.1
			c0,1.9-0.3,3.8-0.1,5.7c0.2,1.2,0,2.4,0,3.8c0.6,0.1,1.2,0.3,1.7,0.3c1.7,0,3.5-0.2,5.2-0.2c0.8,0,1.6,0.2,2.3,0.4
			c0.6,0.2,1,1.2,0.8,1.8c-0.4,0.9-0.9,1.6-1.7,2.3c-0.4,0.3-0.7,0.6-1,1c-1.2,1.5-2.2,3.1-3.5,4.5c-1.2,1.3-2.2,2.9-3.3,4.3
			c-0.1,0.1-0.2,0.3-0.3,0.4c-2.2,2.1-3.8,4.7-5.6,7.1c-0.6,0.8-1.2,1.6-1.7,2.3c-1.3-0.2-1.9-0.9-2.3-1.9c-0.2-0.6-0.9-1-1.3-1.5
			c-1-1.1-2.1-2.1-3-3.2c-1.9-2.3-3.8-4.6-5.7-6.9c-2.3-2.7-4.6-5.3-6.8-7.9C201.6,206.4,201.4,206.1,201.2,205.9z M225.7,205.4
			c0.1-0.6,0.1-1.2,0.3-1.4c0.7-0.4,0.5-1,0.6-1.6c0-0.9,0.1-1.8,0-2.6c-0.2-2.8,0.1-5.7-0.1-8.5c-0.1-1.7,0.1-3.3,0.1-5
			c0-1.3-0.1-2.6,0-3.9c0.1-1.3,0-1.5-1.3-1.5c-3.4,0.1-6.7,0.2-10.1,0.3c-1.2,0-1.3,0.2-1.3,1.3c0,1.4,0.1,2.7,0.1,4.1
			c0,6.2,0.1,12.4,0.1,18.6c0,0.9-0.6,1.6-1.6,1.9c-0.1-0.1-0.2-0.1-0.3-0.2c-0.2-0.7-0.7-0.8-1.4-0.8c-1.2,0-2.3,0-3.5,0
			c-0.6,0-1.2,0.1-2,0.2c0.1,0.3,0.2,0.5,0.3,0.6c5.3,5.6,10.2,11.5,16,16.7c0.2-0.2,0.4-0.3,0.6-0.5c1.5-1.8,3.1-3.6,4.6-5.5
			c1.3-1.7,2.6-3.3,3.9-5c0.5-0.7,1-1.3,1.5-1.9c1-1.2,2-2.3,2.9-3.5c0.4-0.4,0.8-0.9,0.7-1.7C232.5,205.5,229.2,205.4,225.7,205.4z
			"/>
		<path style="fill:#090808;" d="M158,111.1c-0.7,0-1.3,0-1.9,0c-2.2,0-4.4,0.1-6.6,0.1c-0.6,0-1-0.2-1.3-0.8
			c-0.7-1-0.6-2.1-0.7-3.2c-0.1-2.7,0-5.4,0-8.1c0-0.9,0.2-1.8,0.2-2.7c0-0.9,0-1.8,0-2.7c0-2.4,0-4.9,0-7.3c0-1.6-0.2-3.2-0.2-4.9
			c0-1.4,0.1-2.8,0.1-4.3c0-0.5,0.3-0.8,0.8-0.8c0.6-0.1,1.1-0.1,1.7-0.1c2.7,0,5.4,0.1,8,0.2c1.2,0,1.4,0.1,1.4,1.4
			c0,0.7,0,1.4,0,2.1c0,1-0.2,1.2-1.3,1.1c-2.8,0-5.6-0.1-8.4-0.1c-1.2,0-1.4,0.2-1,1.5c0.6,0,1.1,0,1.7,0c1,0,1.1,0,1.1,1
			c0,3.4-0.1,6.7-0.1,10.1c0,2.2-0.1,4.5-0.1,6.7c0,0.7,0.3,1.1,0.6,1.6c0.3,0.4,0.5,0.8,0.8,1.3c-1.4,0-2.7,0-4.1,0
			c0,0.5,0,1,0,1.7c0.8,0,1.5,0,2.3,0c2,0,4.1,0,6.1,0c0.8,0,1,0.2,1,1C158.1,107.7,158,109.4,158,111.1z M150.1,99.9
			c0-5.4,0.4-10.6,0.2-15.9c-0.6,0-1.1,0-1.6,0c0,5.3,0,10.5,0,15.8C149.1,99.8,149.5,99.8,150.1,99.9z"/>
		<path style="fill:#0F0E0E;" d="M228.6,111.8c-1.3,0-2.5,0-3.7,0c-3.2,0-6.3,0.1-9.5,0c-1.5,0-2.8,0.3-3.9,1.3
			c-0.1,0.1-0.2,0.1-0.3,0.2c0,0-0.1,0-0.2,0c0-1.8,0-3.5,0-5.4c0.7-0.4,1.6-0.9,2.4-1.4c1.4-0.8,2.8-1.5,4.2-2.2
			c1.1-0.5,2.3-1,3.4-1.5c1.9-0.9,3.9-1.8,5.8-2.8c0.5-0.2,0.9-0.6,0.5-1.3c-5.7,2.2-10.9,5.4-16.3,8.1c-0.1-0.9-0.2-1.9-0.3-2.8
			c0-0.2,0-0.5,0.2-0.7c1.2-1.9,1.6-4,2.2-6c1.5-4.5,2.9-9,4.3-13.6c0.1-0.2,0.2-0.4,0.3-0.7c0.3,0,0.5-0.1,0.8,0
			c1.6,0.1,3.3,0.2,4.9,0.4c0.3,0,0.6,0.1,0.9,0.2c3.3,1.1,4.2,1.7,4.3,5.8c0.2,5.3,0.1,10.7,0.1,16c0,1.6,0,3.2-0.1,4.8
			C228.7,110.7,228.6,111.2,228.6,111.8z M218.5,84.6c-1.8,5.6-3.5,11.1-5.1,16.3c0.4,1.1,0.8,2,1,2.7c4.3-2.1,8.7-4.3,13.1-6.5
			c-0.1-2.4-0.2-4.8-0.2-7.2c0-1.2-0.3-2.3-0.9-3.3c-0.5-0.8-1.1-1.3-2-1.6C222.5,84.5,220.6,84.7,218.5,84.6z M227.4,101.2
			c-0.2,0.1-0.4,0.2-0.7,0.3c-3.1,1.5-6.3,3-9.4,4.5c-0.9,0.4-1.8,0.9-2.7,1.3c-0.4,0.2-0.7,0.4-0.6,0.9c0.1,0.8,0.2,1.6,0.3,2.5
			c4.3,0,8.6,0.1,13-0.1C227.4,107.3,227.4,104.3,227.4,101.2z"/>
		<path style="fill:#100F0E;" d="M211.1,126.2c3.5-2.8,2.2-2.2,6.8-2.3c2.8,0,5.7,0,8.5,0c0.2,0,0.5,0,0.8-0.1
			c0-0.4,0.1-0.9,0.1-1.3c-0.3,0-0.5-0.1-0.6-0.1c-3.6,0-7.2,0-10.8,0c-0.6,0-1.2,0.1-1.7,0.5c-0.8,0.5-1.6,1-2.4,1.4
			c-0.3,0.2-0.6,0.2-0.9,0.4c0-0.3-0.1-0.5-0.1-0.7c0-2.7,0-5.4,0-8.2c0-0.6,0.1-1,0.6-1.4c0.3-0.3,0.6-0.5,0.9-0.8
			c0.7-0.6,1.5-0.9,2.5-0.9c3.8,0.1,7.6,0,11.4,0.1c0.7,0,1.5,0,2.4,0c-0.1,6.3-0.2,12.6-0.3,19c-0.4,0-0.8,0.1-1.2,0.1
			c-3.8-0.1-7.6-0.1-11.4-0.2c-1.3-0.1-2.5,0.1-3.5,1.1c-0.3,0.3-0.7,0.5-1.2,0.9C211.1,131.3,211.1,128.8,211.1,126.2z
			 M214.3,120.8c1.8,0.4,12.1,0.5,13.1,0.2c0-2.2,0-4.4,0-6.6c-0.2-0.1-0.3-0.1-0.3-0.1c-3.8,0-7.7-0.1-11.5-0.1
			c-0.4,0-0.8,0.1-1.3,0.2C214.3,116.5,214.3,118.7,214.3,120.8z M227.4,131.1c0-1.8,0-3.4,0-5c0-0.8-0.2-1-1.1-1
			c-3.6,0-7.1,0-10.7,0.1c-1.4,0-1.4,0.1-1.5,1.6c0,0.1-0.1,0.2-0.1,0.3c0,1.2,0,2.4,0,3.8C218.4,130.9,222.8,131,227.4,131.1z"/>
		<path style="fill:#0D0D0D;" d="M195.2,82.9c0,0.8,0,1.5,0,2.2c0,5,0,9.9,0,14.9c0,0.5,0.2,1.1,0.3,1.6c0.1,0.4,0.3,0.7,0.5,1.2
			c-3.5,0-6.9,0-10.3,0c0,0,0,0-0.1-0.1c-0.7-1.1-1.7-2-2.1-3.2c-0.4-1.2-0.2-2.5-0.2-3.8c0-3.4-0.1-6.7-0.1-10.1c0-0.9,0-1.8,0-2.8
			C187.3,82.9,191.2,82.9,195.2,82.9z M193.9,84.7c-0.4,0-0.7-0.1-1.1-0.1c-1.3,0-2.7-0.1-4-0.1c-1,0-2-0.1-3-0.1
			c-1.1,0-1.3,0.2-1.4,1.4c0,0.4,0,0.8,0,1.2c0.1,3.6,0.2,7.2,0.2,10.8c0,0.2,0,0.5,0,0.7c0.1,0.7,0.4,1,1.1,1
			c1.1,0.1,2.3,0.1,3.4,0.2c0.7,0,1.3,0.1,2,0.1c0.9,0,1.7-0.1,2.6-0.1C193.9,94.6,193.9,89.7,193.9,84.7z"/>
		<path style="fill:#0D0D0D;" d="M184.4,102.9c-3,0.1-5.8,0.2-8.7,0.3c-0.4-0.5-0.8-1.2-1.3-1.8c-1.1-1.2-1.2-2.6-1.2-4.1
			c0-1.5,0.1-2.9,0.1-4.4c0-2.4,0-4.9,0-7.3c0-0.9-0.1-1.7-0.1-2.7c0.4,0,0.6-0.1,0.9-0.1c2.5,0,5-0.1,7.5-0.1
			c0.5,0,0.7,0.2,0.8,0.7c0,0.3,0,0.6,0,1c-0.1,4.6-0.1,9.2-0.3,13.8c0,1.1,0.1,2,0.9,2.8C183.5,101.6,183.9,102.2,184.4,102.9z
			 M181.2,84.1c-0.9,0-1.6,0-2.2,0c-1.2,0-2.4,0-3.6,0c-0.7,0-1,0.3-1.1,1c0,0.3,0,0.6,0,0.8c0,3.7,0,7.3,0.1,11
			c0,0.6,0.1,1.1,0.1,1.7c0.1,0.6,0.4,0.9,0.9,0.9c0.4,0,0.7,0,1.1,0c1.4,0.1,2.8,0.2,4.4,0.3C181,94.5,181.1,89.4,181.2,84.1z"/>
		<path style="fill:#131212;" d="M211.2,166.6c0-0.7,0-1.5,0-2.2c0-2.4,0-4.8,0-7.2c0-0.6,0.2-0.9,0.6-1.3c1.3-1.1,2.7-1.7,4.4-1.6
			c4,0.1,8,0,12.1,0c0.1,4,0.2,7.9,0.3,12c-0.6,0-1.1,0.1-1.7,0.1c-4.6,0-9.3,0-13.9,0C212.4,166.4,211.9,166.5,211.2,166.6z
			 M213.8,165.3c4.5,0,8.8,0,13.3,0c0-0.7,0.2-1.4,0.1-2c-0.4-1.4,0-2.8-0.1-4.2c0-0.8,0.1-1.7,0.1-2.5c0-1-0.2-1.3-1.3-1.3
			c-3.5,0-7,0.1-10.5,0.2c-1.1,0-1.2,0.3-1.3,1.3c-0.1,1.5-0.2,3-0.2,4.5C213.8,162.6,213.8,163.8,213.8,165.3z"/>
		<path style="fill:#0F0E0E;" d="M207,102.8c-3.2,0-6.1,0-9.1,0c-0.5-0.7-1.1-1.5-1.6-2.2c-0.1-0.2-0.2-0.5-0.2-0.8
			c0-5.4,0-10.9,0-16.4c0.4-0.1,0.8-0.3,1.2-0.3c2.9,0,5.7,0,8.6,0c0,0.6,0,1.2,0,1.8c0,5,0,10,0,15c0,0.3,0.1,0.7,0.2,1
			C206.5,101.5,206.7,102.1,207,102.8z M204.8,84.3c-0.7,0-1.4-0.1-2.1-0.1c-1.3,0-2.5,0.1-3.8,0.2c-0.9,0.1-1.4,0.6-1.4,1.3
			c-0.1,4.4-0.1,8.8-0.1,13.1c0,0.8,0.2,1.1,1.1,1.1c1.8,0.1,3.6,0.1,5.4,0.2c0.3,0,0.6,0,1-0.1C204.8,94.8,204.8,89.6,204.8,84.3z"
			/>
		<path style="fill:#0F0E0E;" d="M165.7,103.4c-1.8,0-3.5,0-5.2,0c-0.7-1-1.4-2.1-2-3.2c-0.2-0.4-0.3-0.9-0.3-1.4c0-2.1,0-4.2,0-6.3
			c0-3.1-0.1-6.2-0.1-9.3c0-0.1,0-0.2,0.1-0.4c1.8,0,3.7,0,5.5,0c0.7,0,0.6,0.6,0.7,1.1c0,1.7,0.1,3.4,0.1,5.1c0,3.3,0,6.5-0.1,9.8
			c0,1,0.1,2,0.6,2.9C165.2,102.2,165.4,102.7,165.7,103.4z M163,99.6c0-5.1,0-10.3,0-15.6c-1,0.1-1.9,0.1-2.8,0.2
			c-0.2,0-0.5,0.4-0.6,0.6c-0.1,0.3-0.1,0.7-0.1,1.1c0.1,3.8,0.2,7.6,0.4,11.4c0.1,2.6-0.1,2.6,2.9,2.4
			C162.9,99.7,162.9,99.6,163,99.6z"/>
		<path style="fill:#0F0E0E;" d="M228.4,132.9c0,3.5,0,7,0,10.6c-0.6,0-1.1,0-1.7,0c-3.4,0-6.7,0-10.1,0c-1.8,0-3.5,0-5.1,0.9
			c-0.1,0-0.2,0-0.4-0.1c0-1.5,0-3,0-4.5c0-1.5,0-3.1,0-4.7c0,0,0.1-0.1,0.1-0.1c2.4-1.9,2.4-2,5.5-2c3.4-0.1,6.8,0,10.2,0
			C227.4,132.9,227.9,132.9,228.4,132.9z M226.9,142.4c0-0.4,0.1-0.7,0.1-1c0-1.1,0-2.3,0.1-3.4c0-0.9,0.1-1.7,0.1-2.6
			c0-1.2-0.2-1.3-1.3-1.4c-1.1,0-2.2,0-3.4,0c-2.4,0-4.8,0.1-7.2,0.2c-1.1,0-1.2,0.3-1.3,1.3c-0.1,1.5-0.2,3.1-0.3,4.6
			c0,0.7,0.1,1.5,0.1,2.2C218.3,142.4,222.5,142.4,226.9,142.4z"/>
		<path style="fill:#0F0E0E;" d="M165.2,82.9c2.2,0,4.2,0,6.2,0c0.6,0,0.8,0.2,0.8,0.8c0,0.9,0.1,1.8,0.1,2.8
			c0,4.2,0.1,8.5,0.1,12.7c0,0.9,0.1,1.7,0.7,2.4c0.4,0.5,0.8,1.2,1.3,1.9c-0.5,0-0.8,0-1.2,0c-1.3,0-2.6,0-3.8,0
			c-1.9,0-1.9,0-3-1.6c-0.6-0.9-1-1.9-1-3.1c0-4.9-0.1-9.8-0.2-14.7C165.1,83.6,165.2,83.3,165.2,82.9z M171.1,84.1
			c-1.3,0-2.3,0-3.4,0c-1.1,0-1.3,0.2-1.2,1.3c0,1.9,0.1,3.8,0.1,5.7c0,2.3,0,4.5,0.1,6.8c0,0.3,0,0.6,0,1c0,0.5,0.3,0.8,0.8,0.8
			c1.2,0,2.4,0,3.6,0C171.1,94.4,171.1,89.3,171.1,84.1z"/>
		<path style="fill:#100F0E;" d="M228.1,167.3c0,2.4,0,4.7,0,6.9c0,1.2-0.4,2.4-0.1,3.6c0.1,0.4-0.2,0.7-0.6,0.7c-0.3,0-0.6,0-1,0
			c-4.5,0-8.9,0-13.4,0c-0.6,0-1.1,0.2-1.8,0.3c0-0.3-0.1-0.6-0.1-0.9c0-2.8,0-5.5,0-8.3c0-0.7,0.2-1.1,0.7-1.5c1-0.8,2-1,3.3-1
			c3.8,0.1,7.6,0,11.4,0C227.1,167.3,227.6,167.3,228.1,167.3z M213.9,177.5c4.4,0,8.6,0,12.8,0c0-0.8,0-1.6,0-2.3
			c0.1-1.8,0.2-3.6,0.3-5.3c0-1.1-0.1-1.2-1.2-1.3c-1.3,0-2.6-0.1-4-0.1c-2.3,0-4.6,0-6.8,0c-1.1,0-1.3,0.2-1.3,1.3
			c0,0.5-0.1,1-0.1,1.6C213.4,173.3,213.6,175.4,213.9,177.5z"/>
		<path style="fill:#100F0E;" d="M207.2,83c3.1,0,6,0,9.1,0c-0.1,0.4-0.1,0.7-0.1,1c-1.5,5.3-2.9,10.5-4.4,15.8
			c-0.3,1.2-0.9,2.3-1.6,3.3c-0.7-0.1-1.4-0.1-2.3-0.2c-0.3-1.2-1-2.4-0.9-3.8c0.1-5,0.1-10,0.2-15C207.1,83.7,207.2,83.4,207.2,83z
			 M214.6,84.5c-2.1,0-4.1,0-6.2,0c0.1,5.3,0.2,10.6,0.3,15.8c0.6,0,1.2,0,1.8,0C211.8,95,213.2,89.8,214.6,84.5z"/>
		<path style="fill:#0F0E0E;" d="M159.3,103.4c-1.8,0-3.4,0-5,0c-0.5-0.9-1.1-1.8-1.5-2.7c-0.2-0.4-0.3-0.8-0.3-1.3
			c0-5.1,0-10.1,0.1-15.2c0-0.5,0-1,0-1.6c1.4,0,2.8,0,4.3,0c0,0.5,0.1,0.9,0.1,1.4c0.1,5.1,0.2,10.3,0.3,15.4c0,0.5,0.2,1,0.4,1.4
			C158.2,101.8,158.7,102.5,159.3,103.4z M156.1,99.8c-0.1-5.5-0.2-10.7-0.3-15.8c-1.5-0.6-2.3,0-2.2,1.5c0.1,1.7,0.1,3.4,0.1,5.1
			c0,2.5,0,5,0.1,7.6c0,0.4,0.1,0.9,0.4,1.1C154.6,99.5,155.3,99.6,156.1,99.8z"/>
		<path style="fill:#131212;" d="M211.2,155.1c0-0.3-0.1-0.4-0.1-0.6c0-2.2,0-4.3-0.1-6.5c0-0.6,0.2-1,0.6-1.3
			c0.6-0.4,1.2-0.9,1.9-1.3c0.3-0.2,0.6-0.2,0.9-0.2c3.2,0,6.4,0,9.6,0c1.4,0,2.9,0,4.4,0c0,2.7,0,5.3,0,8c-0.4,0-0.8,0.1-1.2,0.1
			c-3.7-0.1-7.4-0.1-11.1-0.2c-1.6-0.1-2.9,0.2-4,1.3C211.8,154.7,211.5,154.9,211.2,155.1z M214,152.1c4.4,0.1,8.8,0.4,13.3,0.2
			c0-1.6,0-3.1,0-4.6c0-1.2-0.2-1.4-1.4-1.4c-3.4,0-6.7,0-10.1,0c-0.4,0-0.7,0.1-1.1,0.1c-0.5,0.1-0.8,0.4-0.8,0.9
			C214,148.9,214,150.4,214,152.1z"/>
		<path style="fill:#AC9E9A;" d="M7.3,19.9c-0.1-0.2-0.1-0.3-0.1-0.5c0-0.1,0.2-0.1,0.2-0.2c0.1,0.1,0.2,0.2,0.2,0.4
			C7.6,19.7,7.5,19.8,7.3,19.9z"/>
		<path style="fill:#F9D9C4;" d="M86.8,126.6c-0.6,0.5-1.2,0.9-1.8,1.4c-0.8,0.6-1,0.8-0.7,1.7c0.5,1.5,1,3,1.6,4.5
			c0.4,1,0.5,1.9-0.2,2.9c-1.2,1.7-2.3,3.5-3.4,5.2c-0.1,0.2-0.3,0.3-0.3,0.3c-0.7-0.1-1.2-0.2-1.8-0.2c-3.7,0-7.4,0-11.1,0
			c-0.1,0-0.2,0-0.5-0.1c0-1.2,0.1-2.5,0.1-3.7c0-0.7-0.2-1.5-0.2-2.2c-0.1-2.9-0.2-5.9-0.3-8.8c0-1.4,0-2.7-0.1-4.1
			c-0.1-1.4,0-2.8,0.2-4.1c0.1-0.9,0.1-1.8,0.2-2.7c0.1-0.8,0.5-1.6,0.7-2.3c-1.4-0.7-1-2.2-1.6-3.4c0.3-0.2,0.5-0.4,0.7-0.6
			c-1.1-0.9-2.3-0.9-3.5-0.9c-1.7,0-3.3-0.2-5-0.2c-1.6,0-3.3,0.1-4.9,0.1c-2.1-0.1-4.1-0.2-6.2-0.3c-0.2,0-0.4-0.1-0.6,0
			c-1.6,0.3-1.6,0.3-1.5,1.7c0.1,1.6,0.2,3.2,0.2,4.7c0,3.7,0,7.4,0,11.1c-0.1,4.6-0.2,9.1-0.2,13.7c0,0.9-0.1,1.7-0.8,2.3
			c-0.2,0.2-0.4,0.5-0.8,0.2c-0.2-0.1-0.5-0.1-0.7-0.1c-1.9,0.1-3.8,0.1-5.8,0.1c-1.4,0-2.8,0.1-4.2,0.1c-0.4,0-0.8,0-1.2-0.1
			c-0.6-1.2-0.4-2.4-0.4-3.6c0-0.8,0.1-1.7,0.2-2.5c0.1-1.2-0.3-1.8-1.4-2.1c-0.8-0.2-1.7-0.4-2.7-0.7c0-0.4,0.1-0.8,0.2-1.1
			c0.3-1.4,0.7-2.8,1.1-4.2c0.1-0.4,0.1-0.9,0.2-1.5c1-0.1,2-0.3,3.1-0.4c2.1-0.3,4-0.9,5.9-1.9c1.5-0.8,2-1.6,1.9-3.3
			c-0.1-1.2-0.3-2.4-0.9-3.4c-0.4-0.6-0.9-1.1-1.7-1.2c-0.2,0-0.4-0.1-0.6-0.2c-0.9-0.7-2.1-0.7-3.2-0.9c-1.1-0.2-2.2-0.3-3.3-0.5
			c0-1.4,0-2.9,0.7-4.2c0.7-1.2,1.7-1.9,3-2.2c1.2-0.2,2.4-0.4,3.6,0c0.9,0.2,1.6,0,2.3-0.6c0.1-1.3,0.3-2.6,0.5-4.1
			c0.8-0.9,2.2-1.1,3.5-1.4c1.2-0.2,1.3-0.2,0.6-1.3c-0.1-0.2-0.1-0.3-0.2-0.6c-2.3,0.5-4.5,1.3-6.6,2.3c-0.1,1.3-0.1,2.5-0.2,3.7
			c-0.2,0.1-0.2,0.1-0.3,0.2c-2.1,0.2-4.1,0.4-6.2,0.4c-0.9,0-1.7,0.2-2.6,0.1c-1.2-0.2-2.3-0.6-3.4-1c-0.6-0.2-1.2-0.4-1.8-0.5
			c-0.2,0-0.6,0.2-0.7,0.4c-0.2,0.4,0.1,0.7,0.4,0.9c1.4,0.5,2.7,1.1,4.1,1.6c0.3,0.1,0.5,0.1,0.8,0.2c0.8,0.4,0.9,0.4,0.8,1.3
			c-0.2,1.4-0.4,2.8-0.5,4.3c0,0.2-0.1,0.4-0.2,0.6c-3.1,0.1-6.2,0.2-9.3,0.2c-0.1-3.3-0.1-6.4-0.2-9.5c0-1.5-0.1-2.9-0.1-4.4
			c0.1-3.2,0.3-6.4,0.3-9.7c0.1-6.1,0.2-12.2,0.3-18.3c0.1-4.3,0.1-8.6,0.2-12.9c0.1-1.7,0.3-3.5,0-5.2c-0.2-1.3,0.6-2.1,1.4-2.8
			c0.7-0.6,1.3-1.1,1.9-1.9c0.5-0.8,1.4-1.3,2.2-1.9c0.2-0.2,0.5-0.3,0.8-0.6c1.8-1.7,3.6-3.3,5.4-5c0.8-0.7,1.7-1.4,2.3-2.2
			c1.3-1.6,2.9-2.8,4.5-4c0.5-0.4,0.9-0.9,1.3-1.3c0.8-1,2.1-1.6,2.9-2.7c0.5-0.7,1.3-1.2,2.1-1.8c0.3,0.2,0.6,0.5,0.9,0.7
			c0.6,0.6,1.2,1.2,1.8,1.7c1.1,0.9,1.2,1.6,0.4,2.5c-0.8,0.9-1.5,1.9-2.3,2.9c-0.2,0.3-0.3,0.6-0.5,1c2.2,1.3,4.7,1.3,7,1.8
			c0.2-0.5,0.3-0.9,0.5-1.4c-1.4-0.9-3.1-0.8-4.6-1.4c0.7-1,1.3-2,1.9-2.9c0.2-0.3,0.4-0.5,0.5-0.8c0.2-0.5,0.2-0.9-0.3-1.4
			c-1.3-1.3-2.5-2.7-3.9-4.2c0.8-0.8,1.6-1.5,2.4-2.3c1.2-1.2,2.5-2.4,3.7-3.6c0,0,0.1,0,0.1-0.1c1.2-0.9,2.3-1.9,3.5-2.8
			c0.7-0.6,1.4-1.2,2-1.8c1.1-1,2.4-1.7,3.2-3c3.2,2.5,5.6,5.8,9,7.9c-0.4,0.7-0.9,1.2-1.6,1.5c-0.4,0.1-0.7,0.5-1.1,0.7
			c-0.3,0.3-0.7,0.6-1,0.9c-1.1-0.9-2.2-1.8-2.8-3.1c-0.3-0.7-1-0.5-1.6-0.8c-0.2,0.3-0.4,0.5-0.5,0.8c-0.5,1.1-1.2,1.9-2.3,2.5
			c-0.7,0.4-1.2,1.1-1.8,1.7c-0.6,0.6-1.3,1.2-2,1.8c0.5,0.5,0.8,0.9,1.2,1.3c1.9-1.9,3.3-4,5.6-5.5c1.1,1.1,2.6,1.9,3.2,3.6
			c0.8,0.2,1.5,0.1,2.1-0.5c1-0.9,2.1-1.8,3.2-2.7c0.2-0.2,0.5-0.3,1-0.6c0.3,0.4,0.5,0.9,0.9,1.4c-0.4,1.6-1.4,3-2.4,4.5
			c-1.2,1.8-2.3,3.6-3.4,5.5c-0.9,1.6-0.8,3.4-0.5,5.1c0.1,0.6,0.6,1.2,1,1.5c1.2,0.9,2.6,1.2,4.1,1.2c0.6,0,1.2-0.1,1.8-0.1
			c1.7-0.2,3-1.1,4-2.5c1.3-1.8,2.4-3.7,3.6-5.6c0.4-0.6,0.8-1.2,1.3-1.9c0.7,0.4,1.3,0.8,1.9,1.2c1.6,1.4,3.1,2.7,4.6,4.2
			c1.4,1.3,2.7,2.7,4,4c0.7,0.7,1.5,1.4,2.3,2.1c0.8,0.7,1.5,1.5,2.3,2.2c0.7,0.7,1.5,1.4,2.3,2.1c1.7,1.6,3.4,3.2,5.1,4.8
			c1.1,1,2.3,2,3.4,2.9c-0.2,1.1-0.5,2.1-0.6,3.1c-0.1,0.8-0.4,1.3-1.1,1.7c-1.3,0.8-2.4,1.6-3.6,2.5c-0.6,0.4-0.6,0.6-0.2,1.2
			c0.8,1,1.7,2,2.5,3c0.5,0.6,0.2,1.3-0.1,1.9c-0.3,0.9-0.6,1.9-1.2,2.6c-1.3,1.4-1.2,3.3-2.2,4.8c-0.3,0.5-0.6,1.1-0.8,1.7
			c0.3,0.2,0.5,0.4,0.7,0.5c0.7,0.4,1,0.3,1.3-0.4c0.5-1,0.9-2,1.3-3.1c0.1-0.2,0.1-0.4,0.2-0.6c1.3,0.1,2.5,0.6,3.6,1.2
			c0.5,0.2,0.9,0.6,1.4,0.8c0.3,0.2,0.7,0.3,1.1,0c0.5-0.4,0.3-0.9,0.2-1.3c0-0.5-0.3-0.6-0.8-0.8c-1.5-0.5-3-1-4.6-1.6
			c0.5-1.1,1-2,1.4-2.9c0.2-0.5,0.3-1.1,0.6-1.5c0.5-0.9,0-1.4-0.5-2c-0.6-0.6-1.2-1.3-1.8-2c-0.5-0.6-0.5-1,0.3-1.5
			c0.6-0.4,1.2-0.7,1.7-1.1c0.6-0.4,1.1-0.8,1.6-1.2c0.1-0.8,0.1-1.6,0.3-2.4c0.2-0.9,0.7-1.1,1.4-0.5c0.8,0.7,1.5,1.5,2.3,2.2
			c1,0.9,2,1.8,3,2.6c0.6,0.5,1.4,0.7,2.3,1.1c0.4,1.2,0.2,2.7,0.2,4.1c0,1.1,0,2.1-0.1,3.2c-0.1,4.5-0.1,8.9-0.2,13.4
			c0,1.7,0,3.3,0,5c0,0.2,0,0.5,0,0.7c0.4,1.9-0.2,3.7-0.1,5.5c0,1.1,0,2.1,0,3.2c0,1.5-0.1,3-0.1,4.5c0,1.2,0.1,2.5,0.1,3.7
			c0,0.6,0.1,1.2,0,1.8c-0.2,1.2-0.2,2.5,0,3.7c0.1,0.4,0.2,0.9,0,1.3c-0.4,0.9-0.1,1.8-0.2,2.7c0,0.6,0,1.1,0,1.8
			c-2.1-0.3-4.2-0.6-6.4-0.9c0.4-0.8,0-1.7,0.6-2.3c0,0,0-0.2,0-0.2c-0.3-1.3,0-2.6,0-3.9c0-0.5,0.1-0.8,0.5-1.1
			c1.1-1,2.2-2.1,3.3-3.2c0.6-0.6,0.4-1.3,0.3-2.2c-2,1.8-3.9,3.5-5.7,5.1c-1.2-0.2-2.3-0.3-3.4-0.6c-0.6-0.1-1.1-0.4-1.6-0.6
			c-0.2-0.1-0.4-0.2-0.7-0.2c-0.5-0.1-0.9,0.2-1,0.6c-0.2,0.5,0.1,0.8,0.5,0.9c0.6,0.2,1.2,0.6,1.9,0.7c1.3,0.2,2.6,0.4,3.7,1.4
			c-0.1,1.7-0.2,3.5-0.3,5.3c-1.8,0.5-3.5,0.3-5.1,0.1c-1.2-0.2-2.4-0.2-3.4,0.7c-0.1,0.1-0.1,0.1-0.2,0.1c-1.5,0.3-1.7,1.5-1.9,2.7
			c-0.3,1.9,0.3,3.7,1.3,5.3c0.1,0.1,0.3,0.2,0.4,0.3c1.4,1.2,3.2,1.6,4.9,1.8c0.9,0.1,1.7,0.3,2.7,0.5c-0.1,0.9-0.2,1.8-0.4,2.6
			c-0.1,0.4-0.4,0.8-0.7,1.1c-1,0.9-2,1.7-3.1,2.4c-0.4,0.3-0.9,0.4-1.3,0.6c-0.7,0.4-0.9,0.8-0.7,1.1c0.3,0.4,1.3,0.6,1.7,0.2
			c0.4-0.3,0.7-0.8,1.1-1.1c0.5,0.1,0.8,0.2,1.1,0.2c0.9,1.4,2.3,2.5,2,4.4c-0.2,0.1-0.4,0.2-0.6,0.2c-1.4,0-2.9,0-4.3,0
			c-1.6,0-3.2,0-4.7,0c-0.2,0-0.5-0.1-0.7-0.1c-0.3,0-0.7-0.1-1-0.1c-0.9,0.1-1.8,0.1-2.6,0.1c-3.1,0.1-6.2,0-9.3,0
			c-0.1,0-0.3,0-0.5-0.1c0.9-2.1,2.4-3.6,4-5.1c1-1,1.1-1.7,0.4-2.9c-0.1-0.2-0.1-0.4-0.2-0.7c-0.1-0.4,0.1-1-0.1-1.2
			c-1-0.9-0.7-2.2-1.2-3.3c-0.1-0.2-0.2-0.4-0.4-0.7c0.9-0.9,1.7-1.7,2.6-2.6c1.2-1.1,2.4-2.2,3.7-3.2c0.5-0.4,0.6-0.8,0.4-1.2
			c-0.7-1.5-0.8-3.2-1.2-4.8c-0.3-0.9-0.5-1.8-1.4-2.6c0.4-0.2,0.7-0.5,1-0.6c2.6-1,5.2-2,7.7-3.1c1-0.4,2-1,3-1.5
			c1.5-0.8,3-1.6,4.6-2.3c0.9-0.5,1.9-0.8,2.8-1.3c1.9-1.2,3.5-2.6,4-5c0.5-2.4-1.5-5.1-3.9-5.4c-1.1-0.1-2.3-0.3-3.4-0.4
			c-0.5,0-1,0.1-1.5,0.3c-2.8,1.1-5.7,2.3-8.5,3.5c-0.9,0.4-1.7,0.6-2.6,0.9c-0.1,0.1-0.3,0.1-0.4,0.2c0,0-0.1,0-0.1,0
			c-0.3,0.1-0.6,0.3-0.9,0.4c-0.2,0.1-0.3,0.2-0.5,0.3c-0.9,0.5-2,0.4-2.7,1.3c-1-0.1-1.7,0.6-2.6,0.8c-0.2,0-0.4,0.3-0.6,0.4
			c-0.6,0.2-1.1,0.4-1.7,0.6c-1,0.6-2.1,1.1-3.1,1.7c-0.1,0.1-0.2,0.2-0.3,0.2c-0.4,0-0.7,0.2-0.7,0.6c0,0,0,0.1-0.1,0.1
			c-0.6,0.2-1.2,0.8-1.6,1.4c0,0,0,0,0,0c-0.1,0.1-0.1,0.2-0.2,0.2c-0.3,0.4-0.7,0.7-1,1.2c-0.3,0.5-0.6,1.1-0.6,1.6
			c0,2,0.9,3.6,2.3,4.9c1.1,1,2.6,1.5,4.2,1.6c0.6,0.1,1.2-0.2,1.8-0.4c1.4-0.5,2.8-1.1,4.3-1.7c0.9,0.6,1,1.8,1.3,2.8
			c0.3,1.1,0.4,2.3,0.8,3.5c0.2,0.6,0,0.9-0.4,1.2c-0.6,0.5-1.2,1-1.8,1.5c-0.2,0.1-0.2,0.4-0.3,0.6c-0.9,0-1.8,0-2.6,0c0,0,0,0,0,0
			c-0.7-0.2-1.3-0.3-2-0.5c-0.9-0.3-1.7-0.2-2.4,0.4c-1,0.8-1.6,0.7-2.5-0.3c-0.8-0.9-1.6-2-2.4-2.9c-0.2-0.2-0.5-0.3-0.7-0.5
			c-0.2,0.1-0.3,0.1-0.5,0.2c-0.1,0-0.2,0.1-0.2,0.1c-0.6,0-0.6,0.5-0.4,0.8c0.2,0.3,0.6,0.6,0.9,0.9c0.1,0.1,0.2,0.2,0.3,0.4
			c0,0.4,0.2,0.7,0.5,0.8c0.3,0.4,0.5,0.9,0.8,1.3c0.8,1.1,1.4,1.3,2.7,0.8c0.1-0.1,0.3-0.2,0.4-0.1c0.7,0.3,1.2-0.1,1.7-0.5
			c0.4-0.3,0.9-0.6,1.5-0.4c0.5,0.2,1,0.2,1.5,0.3c0.1,0,0.2,0,0.3,0c0.5,0.2,0.9,0.3,1.4,0.5C87,126.2,86.9,126.4,86.8,126.6z
			 M72.6,88.3c1.7,0,3.2,0,4.6,0c3.5,0,7,0,10.5-0.1c0.6,0,1.1,0,1.7-0.1c1.3-0.3,1.8-0.9,1.8-2.2c0-0.8-0.1-1.7-0.1-2.5
			c0-0.3,0-0.6,0-0.9c1-0.1,2-0.1,2.9-0.2c0.5-0.1,1-0.2,1.3-0.5c1.6-1.3,3-2.8,3.4-4.9c0.3-1.7,0.1-3.4-1.7-4.4
			c-0.5-0.3-1.1-0.5-1.5-1c-0.9-1-2.4-1.1-3.2-2.2c0,0,0.1-0.2,0.1-0.4c0-1.3-0.1-2.5-0.1-3.8c0-1-0.1-2.1-0.1-3.1
			c-0.1-1.4-0.1-2.9-0.2-4.3c-0.1-0.8-0.2-1.6,0.7-2.1c-0.9-0.8-0.9-0.8-1.8-0.8c-1.5,0-3,0.2-4.5,0.2c-3.5,0-7.1-0.1-10.6-0.2
			c-0.5,0-1,0-1.4,0c-1.2,0.1-1.7,0.9-1.7,2.1c0,0.2,0.1,0.4,0.1,0.6c0,1.7,0.2,3.4-0.2,5.1c-0.8,0-1.5,0.1-2.1-0.4
			c-0.3-0.2-0.7-0.2-1-0.3c-0.7-0.2-1.4-0.4-2-0.6c-0.4-0.1-0.8-0.3-1.2-0.4c-1-0.1-2.1-0.2-3.2-0.2c-1,0-1.9,0.3-2.6,0.9
			c-1,0.8-1.5,1.8-1.8,3c-0.4,1.9,0.1,3.5,1.4,4.8c1.1,1,2.3,1.8,3.7,2.3c2.8,1.1,5.6,2.3,8.3,3.4c0.3,0.9,0.4,1.7,0.2,2.6
			c-0.1,0.5-0.1,0.9-0.1,1.4c0,1.8,0,3.6,0,5.4C72.4,85.7,72.5,86.9,72.6,88.3z M51.8,86.9c-0.2-1.3-0.5-2.4-0.4-3.5
			c0.1-1.4-0.2-2.9-0.2-4.3c0-1.6-0.2-3.2-0.3-4.7c-0.1-1-0.1-2.1-0.1-3.1c0-1,0.2-2.1,0.1-3.1c-0.1-1-0.2-2-0.2-3
			c0-1.2,0.2-2.4,0.6-3.7c0.7-2.2,1.3-4.5,1.1-6.9c-0.1-1.9-1-3-2.6-3.8c-2.4-1.2-6.1-0.7-8.2,1c-0.1,0.1-0.1,0.1-0.2,0.2
			c-0.6,0.8-1.2,1.5-1.8,2.3c-0.8,1.1-1.9,1.6-3.2,1.3c-1.3-0.3-2.4,0.2-3.6,0.4c-0.3,0.1-0.6,0.3-0.7,0.6c-0.2,0.6-0.5,1.2-0.5,1.8
			c0,1.7,0.2,3.4,0.2,5.1c0,1.3,0.3,2.8-0.7,4c-0.2,0.2-0.3,0.5-0.4,0.7c-0.5,0.8-1.1,1.5-1.2,2.4c0,0.3-0.3,0.5-0.5,0.8
			c-0.1,0.2-0.3,0.4-0.4,0.6c-0.7,1.4-1.3,2.9-2,4.3c-1,2.1-2.1,4.1-3.2,6.1c-0.1,0.2-0.1,0.4-0.1,0.6c-0.1,0.7-0.2,1.3-0.3,2
			c-0.2,1.1-0.1,2.1,0.4,3.1c0.2,0.4,0.4,0.8,0.6,1.1c0.7,1.2,1.5,2.3,2.9,2.9c1.7,0.7,3.1,0.7,4.6-0.4c0.3-0.2,0.5-0.5,0.8-0.5
			c0.9,0.1,1.4-0.5,1.9-1.1c0.7-0.7,1.3-1.5,2-2.1c1.6,0,3.3-0.1,4.9-0.1c3.1-0.1,6.1-0.2,9.2-0.3C51.1,87.7,51.6,87.5,51.8,86.9z"
			/>
		<path style="fill:#F1BE9C;" d="M173.4,36.6c2.2,2.1,4.4,4.1,6.5,6.2c0.1,0.1,0.2,0.2,0.3,0.3c1.1,1.6,2.5,2.7,4,3.9
			c0.6,0.5,1.2,1.3,1.7,1.9c1.7,2,3.5,4.1,5.2,6.1c0.3,0.3,0.6,0.6,1,1c-0.7,0.1-1.5,0.3-2.2,0.3c-1.3,0-2.6-0.1-3.9-0.1
			c-0.6,0-1.2,0-1.8,0.1c-0.4,0-0.7,0.1-1.1,0.1c-1.4,0-2.8,0-4.1-0.1c-2.1,0-4.1,0-6.2,0c-3.9,0-7.9,0.1-11.8,0.1
			c-2.3,0-4.6,0.2-6.9,0.1c-3.6-0.2-7.2,0.3-10.9,0.1c-1.2-0.1-2.5,0.5-3.7,0.2c-1.9-0.4-3.7,0-5.6-0.3c-1.4-0.2-2.8-0.2-4.3-0.3
			c-1.8,0-3.6,0.1-5.3,0c-1.4,0-2.7-0.1-4-0.2c-1.2-0.1-2.2-0.6-2.7-1.9c-0.1-0.2-0.4-0.4-0.6-0.5c-0.8-0.7-1.9-1.2-2.5-2
			c-1-1.5-2.4-2.3-3.6-3.5c-1.3-1.3-2.8-2.3-4.2-3.5c-2.2-1.9-4.4-3.8-6.6-5.8c-0.4-0.3-0.6-0.8-1-1.2c-0.5-0.5-0.9-1.1-1.4-1.5
			c-1.4-1.3-2.9-2.6-4.3-3.9c-0.5-0.5-1-1-1.5-1.6c0.5-0.3,1-0.3,1.4-0.3c1.6-0.2,3.2-0.3,4.7-0.7c1.3-0.3,2-1.4,2.6-2.6
			c0.5-1,0.7-2,0-2.9c-1.2-1.6-2.5-2.9-4.7-2.6c-0.9,0.1-1.7,0.2-2.6,0.2c-0.3,0-0.7,0.1-0.9-0.1c-1-0.6-2.1-0.3-3.2-0.3
			c-1.7,0.2-3.3,0.3-5,0.1c-0.6-0.1-1.2-0.1-1.8-0.1c-1.2-0.1-2.1-0.8-3-1.5c-1.5-1.2-3.1-2.1-4.6-3.2c-1.4-1-2.7-2.1-4.1-3.1
			c-1.5-1.2-3.1-2.4-4.8-3.7c0.4,0,0.6-0.1,0.9-0.1c2.5,0,5,0.1,7.5,0.1c1.3,0,2.6-0.1,3.9-0.1c0.2,0,0.4-0.1,0.6,0
			c1.7,0.4,3.5,0.2,5.2,0.1c0.4,0,0.9,0.2,1.3,0.2c1,0,2-0.1,3-0.1c1.6,0,3.2,0,4.8,0.1c1.2,0.1,2.3,0.2,3.4,0c0.5-0.1,1,0,1.5,0
			c2.1,0.1,4.1,0.2,6.2,0.3c1.9,0.1,3.7,0.2,5.6,0.3c0.2,0,0.4,0.1,0.6,0.1c2-0.5,4,0.2,6,0.3c1.1,0,2.1-0.1,3.2-0.1
			c0.5,0,0.9,0,1.4,0.1c1.9,0.3,3.8,0,5.8,0.1c1.9,0,3.7,0.1,5.6,0.1c1.3,0,2.7,0,4.1,0c-1.5,1.5-2.9,3-4.4,4.4
			c-1.1,1-2.1,2.1-3.2,3.2c-1,1-1.4,1.1-2.6,0.5c-0.5-0.2-0.9-0.4-1.4-0.7c-1.4-0.9-3-1.3-4.6-1.6c-0.8-0.2-1.5-0.2-2.2,0.3
			c-0.5,0.4-0.9,1-1.4,1.6c-0.5,0.5-0.9,1.1-1.4,1.7c-0.3,0.5-0.7,0.5-1.2,0.3c-1-0.4-2.1-0.8-3.2-1.1c-0.7-0.2-1.4-0.2-2.1-0.3
			c-0.2,0.8-0.7,1.1-1.1,1.6c-0.8,0.8-2,1.5-2.3,2.7c-0.1,0.2-0.3,0.4-0.4,0.6c-0.6,1-0.4,1.5,0.9,2c0.3-0.5,0.7-1.1,1.1-1.6
			c0.6-1,1.2-1.9,2-2.6c0.6-0.5,1.2-0.8,2-0.6c0.8,0.3,1.5,0.6,2.3,1c0.3,0.1,0.5,0.4,0.8,0.4c0.9,0.1,1.8,0.3,2.4-0.9
			c0.4-0.9,1.3-1.5,2-2.2c0.9-0.9,2-0.6,3-0.2c1.4,0.6,2.8,1.3,4.3,2c-0.3,0.4-0.6,0.8-1,1.1c-1.3,1-2,2.4-2.5,4
			c-0.1,0.4-0.1,0.9,0,1.3c0.7,1.9,2,3.3,3.7,4.3c0.7,0.4,1.5,0.5,2.4,0.2c0.7-0.2,1.4-0.3,2.1-0.4c1-0.2,2.1-0.4,3.1-0.9
			c2.8-1.5,4.9-3.7,7-5.9c0.7-0.7,1.4-1.2,2.1-1.9c0.5-0.5,1-1.2,1.5-1.7c1.7-1.8,3.4-3.7,5.1-5.5c0.3-0.3,0.6-0.5,1-0.8
			c1,0.7,2.1,1.1,2.7,2.2c0.1,0.2,0.4,0.4,0.6,0.6c0.6,0.5,1.3,0.9,1.6,1.7c0.1,0.2,0.3,0.4,0.5,0.5c0.8,0.4,1.3,1.1,1.9,1.8
			c0.3,0.4,0.7,0.5,1.1,0.9c1.4,1.5,2.8,3,4.1,4.4c0.4,0.4,0.9,0.8,1.4,1.3c-0.8,0.2-1.6,0.4-2.4,0.6c-0.8,0.2-1.5,0.4-2.3,0.6
			c-0.7,0.2-1.4,0.4-2.1,0.5c-0.3,0-0.8-0.2-1.1-0.4c-0.5-0.3-0.9-0.7-1.3-1c-1.4-1.2-2.9-2.3-4.2-3.5c-0.7-0.6-1.2-0.8-2.1-0.4
			c-0.8,0.4-1.5,0.9-2.2,1.4c-1.3,0.9-2.6,1.7-3.9,2.7c-0.3-1.1-1-1.6-2.1-1.5c-0.3,1.3,0.7,3.4,2.1,4.2c0.7-0.6,1.3-1.3,2-1.9
			c0.4-0.4,0.8-0.8,1.3-1c0.8-0.5,1.6-0.9,2.4-1.3c1.1-0.5,2,0,2.9,0.6c0.5,0.3,0.9,0.7,1.3,1c0.8,0.6,1.5,1.2,2.4,2
			c-0.8,0.4-1.4,0.8-2,1c-0.6,0.2-0.8,0.6-0.8,1.3c0.1,2.4,1.5,4,3.4,5.3c0.3,0.2,0.6,0.3,0.8,0.5c0.6,0.5,1.2,0.7,2,0.7
			c2.9-0.1,5.7-0.3,8.4-1.2c0.1,0,0.3,0,0.6,0c0,0.9,0.2,1.8,0,2.6c-0.2,0.9-1.2,1.3-2,1.5c-1.3,0.2-2.1,1.2-3.3,1.7
			c-0.2,0.1-0.4,0.4-0.5,0.6c-0.4,0.8-0.8,1.7-1,2.5c-0.4,1.6-0.1,2.3,1.5,2.5c0.3-0.3,0.7-0.6,1.1-0.9c-0.3-0.7-0.6-1.5-0.1-2.1
			c0.5-0.7,0.7-1.7,1.9-1.8c0.2,0.3,0.5,0.7,0.7,1c0.5,0.8,1,1.6,1.6,2.3c0.3,0.3,0.8,0.5,1.2,0.8c0.8-0.4,1.6-0.9,2.4-1.3
			c1-0.5,2.1-1,3.1-1.4c0.7-0.3,0.9-0.7,0.7-1.3c-0.2-0.5-0.5-0.7-1.2-0.6c-0.6,0.2-1.3,0.4-1.9,0.7c-1,0.5-2,1-2.9,1.5
			c-1.1-0.7-1.3-1.8-1.9-2.8c0.5-0.2,1-0.3,1.4-0.5c1.1-0.4,1.3-0.9,1.2-2.1c-0.2-1.1-0.1-2.3,0.4-3.3c0.3-0.8,1.1-0.8,1.8-1.1
			C172.3,36.9,172.8,36.8,173.4,36.6z M106.5,32.9c-0.1-0.1-0.2-0.1-0.2-0.1c-1.1-0.4-1.3-0.3-1.2,0.8c0.2,1.9,0.6,3.7,1.3,5.4
			c0.5,1.2,1.2,1.5,2.3,0.8c0.9-0.6,1.8-1.2,2.7-1.8c0.4-0.3,0.7-0.3,1.1,0c1.1,0.8,2.1,1.5,3.2,2.3c0.3,0.2,0.7,0.5,0.8,0.9
			c0.4,1.2,1.4,2,2.3,2.9c1.6,1.4,3.4,2.2,5.4,2.5c1.1,0.2,2.2,0.5,3.2,0.8c0.8,0.2,1.5,0.4,2.3,0.6c0.7,0.2,1.4,0.2,2.1,0.4
			c2.9,0.6,5.7,1.3,8.6,1.8c1.4,0.3,2.8,0.3,4.3,0.4c1.7,0.2,3.3,0.1,5-0.1c2-0.2,3.4-2.5,3.5-4c0.1-1-0.3-2-0.9-2.8
			c-0.3-0.4-0.6-0.7-0.8-1.1c-0.5-0.9-1.1-1.6-2.3-1.7c-0.2,0-0.4-0.1-0.7-0.2c-1.4-0.5-2.7-1.2-4.2-1.5c-1.2-0.3-2.5-0.5-3.6-1
			c-0.2-0.1-0.4,0-0.6-0.1c-1-0.2-2-0.4-3-0.7c-1.1-0.3-2.1-0.7-3.2-0.9c-2.1-0.5-4.2-0.4-6.3-1.1c-0.9-0.3-1.8-0.3-2.7-0.4
			c-0.7-0.1-1.4-0.5-2.1-0.5c-1.3,0-2.6-0.1-3.9,0.3c-1.2,0.4-1.8,1.2-2.2,2.3c-0.1,0.5-0.3,0.9-0.4,1.5c-0.4-0.2-0.7-0.4-1-0.6
			c-0.6-0.4-1.1-0.9-1.6-1.4c-1-0.9-1.7-0.9-2.9-0.1c-0.9,0.6-1.9,1.1-2.8,1.6C106.7,36.5,107.1,34.6,106.5,32.9z"/>
		<path style="fill:#FAFBFB;" d="M83.3,33c1.1-1.7,2.9-2.6,5.2-2.7c1.6,1.4,3.3,2.9,5,4.4c1.7,1.5,3.4,3.1,5.1,4.7
			c1.1,1,2.2,2,3.3,3c1.5,1.3,3.1,2.6,4.6,3.9c1.2,1,2.3,1.9,3.5,2.9c0.7,0.6,1.3,1.2,2,1.7c0.4,0.4,0.9,0.7,1.2,1.1
			c0.4,0.4,0.7,0.8,1.1,1.2c1,1.2,1.8,2.6,3.2,3.4c0.4,0.2,0.8,0.4,1.2,0.4c1.5,0.1,3,0.2,4.5,0.3c1,0.1,1.9-0.2,2.9-0.2
			c0.7,0,1.4,0,2.1,0c1.6,0.1,3.3,0.1,4.9,0.2c1.6,0.1,3.3,0.1,4.9,0.1c1.6,0.1,3.2,0.2,4.8,0.3c0.8,0,1.7,0,2.5,0
			c1.8-0.1,3.5-0.1,5.2-0.2c3.5-0.1,7.1-0.3,10.6-0.3c3.1-0.1,6.3-0.2,9.4,0.3c1-0.3,2.1-0.2,3.2-0.2c1.4,0,2.8,0.1,4.2,0.2
			c1.3,0,2.5,0,3.8,0c2.1,0.1,4.2-0.1,6.3,0.2c1.4,0.2,2.8,0.1,4.2,0.1c0.3,0,0.6,0.1,1,0c1.4-0.1,2,1,2.6,1.9
			c0.1,0.2,0.1,0.6,0.1,0.9c-0.3,1.1-1.4,2.1-2.5,2.2c-1.2,0.1-2.5,0.4-3.7,0.2c-2.8-0.4-5.6,0.1-8.4,0c-1.6-0.1-3.1,0.1-4.7,0.1
			c-2.7,0-5.4,0-8-0.1c-2.8-0.1-5.5,0.2-8.3,0.3c-0.9,0-1.7-0.1-2.6-0.1c-2.7,0-5.4-0.1-8-0.1c-1.8,0-3.7-0.1-5.5-0.1
			c-3.4,0-6.8,0.1-10.2,0.1c-1.6,0-3.3-0.1-4.9-0.1c-1.1,0-2.2,0.3-3.3,0.1c-2-0.2-4,0.1-6-0.3c-0.8-0.2-1.8-0.2-2.6,0
			c-1.3,0.2-1.9-0.6-2.6-1.3c-0.4-0.4-0.8-0.8-1.2-1.1c-1-0.8-2.1-1.6-3.1-2.4c-1.8-1.4-3.5-2.8-5.3-4.3c-1.2-1-2.3-2-3.4-3
			c-1.4-1.3-2.7-2.5-4.1-3.8c-1.6-1.5-3.2-3.1-4.8-4.7c-1-1-2-1.9-3.1-2.8c-1.4-1.3-2.8-2.5-4.1-3.8C84.7,34.8,84.1,33.9,83.3,33z"
			/>
		<path style="fill:#FAFBFA;" d="M60.2,15.1c-0.5,0.7-1.1,1.5-1.6,2.3c-0.2,0.3-0.4,0.4-0.6,0.5c-0.7,0.4-1.2,1-1.8,1.5
			c-0.5,0.4-1,0.7-1.4,1.2c-0.7,0.6-1.4,1.3-2,2c-0.8,0.8-1.6,1.5-2.5,2.2c-1.2,0.8-2.1,1.9-3.2,2.8c-0.6,0.5-1,1.4-1.9,1.5
			c-0.3,0-0.7,0.4-0.8,0.7c-0.7,1.4-2,2.1-3.1,3.1c-1.4,1.3-2.8,2.4-4.1,3.8c-2,2.1-4.5,3.9-6.5,6.1c-1.2,1.3-2.7,2.2-4,3.4
			c-1,0.9-1.9,1.9-2.9,2.8c-1.2,1.1-2.4,2-3.7,3.1c-0.3,0.2-0.5,0.5-0.7,0.8c-1,1.6-1.2,3.4-1,5.3c0.1,0.8,0,1.6,0,2.3
			c-1.1,0.2-2.1,0.4-3.1,0.5c-0.4,0.1-0.8,0.1-1.2,0c-0.4-0.1-0.5-0.4-0.7-0.7c-0.6-1.1-0.6-2.2-0.4-3.4c0.1-0.7-0.1-1.5-0.1-2.3
			c0-0.6,0.1-1.3,0.1-1.9c0-0.2,0.2-0.3,0.3-0.4c0.2-0.2,0.5-0.4,0.5-0.6c0.1-0.8,0.7-1.2,1.3-1.7c0.4-0.4,0.9-0.7,1.3-1
			c0.9-0.6,1.6-1.3,2.3-2.2c1.3-1.5,2.5-3,4.1-4.2c1.3-1,2.4-2.3,3.6-3.4c0.7-0.7,1.6-1.2,2.2-1.9c1.3-1.3,2.8-2.4,4-3.9
			c0.8-1.1,2-1.9,3-2.9c1.6-1.5,3.2-3.1,4.8-4.6c0.3-0.3,0.7-0.6,1.1-0.9c1.3-1.1,2.5-2.3,3.7-3.5c1.7-1.7,3.4-3.5,5.1-5.2
			c0.9-0.9,1.8-1.7,2.7-2.5c0.8-0.7,1.6-1.4,2.3-2.1c2-1.9,4.4-2.6,7.1-2c1.8,0.4,2.9,1.7,4.3,2.6c0.8,0.5,1.5,1.1,2.3,1.7
			c2.8,2.3,5.6,4.7,8.4,7.1c0.3,0.2,0.5,0.6,0.7,0.9c-1,0.7-2,1.1-2.7,1.9c-0.6,0.6-1.2,1.1-1.9,1.6c-0.2-0.1-0.6-0.2-0.8-0.5
			c-1.6-1.8-3.3-3.4-5.2-4.7c-0.2-0.1-0.3-0.3-0.5-0.5c-1.3-1.3-2.6-2.6-4-3.9c-0.4-0.3-0.8-0.7-1.5-0.4
			C61.5,15.7,60.9,15.3,60.2,15.1z"/>
		<path style="fill:#F5F5F5;" d="M48.2,110.7c2.3-0.7,4.4-0.4,6.6-0.4c2.2,0,4.3,0.1,6.5,0.1c1.2,0,2.4,0.2,3.6,0.3
			c1,0.1,1.3,0.3,1.5,1.4c0.1,0.8,0.1,1.6,0.1,2.4c0.1,4.8,0.1,9.6,0.2,14.4c0.1,4.3,0.1,8.5,0.2,12.8c0,0.2,0,0.5-0.1,0.7
			c-0.3,0.1-0.5,0.1-0.7,0.2c-1.3,0.3-2-0.1-2-1.5c0-3.1,0-6.2-0.1-9.2c0-4.6-0.1-9.3-0.1-13.9c0-1.2,0.1-2.3,0.1-3.5
			c0-0.3-0.1-0.7-0.1-1.2c-1.2-0.1-2.4-0.1-3.5-0.1c-2.8-0.1-5.7-0.1-8.5-0.2c-1.1,0-1.2,0.2-1.2,1.2c0,1.8,0.2,3.6-0.1,5.3
			c-0.1,0.4,0.1,0.9,0.1,1.3c0,1.8,0,3.6,0,5.4c0,1.7,0.1,3.4,0.1,5.1c0,1-0.1,1.9-0.1,2.9c0,1.8,0,3.6-0.1,5.3
			c0,0.8-0.1,1.7-0.2,2.5c0,0.2-0.2,0.5-0.3,0.6c-0.6,0.1-1.2,0.1-1.7-0.1c-0.2-0.1-0.3-0.7-0.3-1c0-2.6,0.1-5.2,0.2-7.7
			c0-1.9,0-3.8,0-5.7c0-2.4,0-4.8,0-7.1c0-1.7,0.1-3.3,0-5c0-0.6-0.3-1.2-0.3-1.9C48,112.8,48.1,111.8,48.2,110.7z"/>
		<path style="fill:#F7D8C3;" d="M26.4,135.4c0.7,0.1,1.4,0.2,2.1,0.3c0.3,0,0.6,0,0.8,0.1c1.3,0.2,1.4,0.3,1.4,1.6
			c0,1.7,0.1,3.3-0.3,5.1c-3.4,0-6.8,0-10.2,0c-0.6-2.9-0.7-5.7-0.4-8.5c0.1-1.2,0-2.4,0.1-3.6c0-0.7,0.1-1.4,0.1-2.2
			c1.3-0.2,2.5-0.6,3.8-0.6c1,0.1,2,0,3-0.1c0.5,0,0.9-0.1,1.6-0.2C27.7,130,27.1,132.6,26.4,135.4z"/>
		<path style="fill:#F8E4DF;" d="M74.3,42.7c-1.9,1.2-3.8,0.6-5.5-0.2c-1.2-0.6-1.6-2.8-0.9-4c0.9-1.6,1.9-3.2,2.6-4.9
			c0.3-0.7,0.8-1.3,1.2-2c0.7-1.1,1.4-2.2,2.1-3.3c0.2-0.4,0.6-0.6,0.9-0.9c0.1,0.2,0.2,0.4,0.4,0.6c1.6,1.7,3.1,3.3,4.7,4.9
			c0.2,0.3,0.5,0.5,0.7,0.8c-0.5,0.5-1,1-1.4,1.6c-1.5,2.3-3.1,4.6-4.6,6.9C74.5,42.3,74.4,42.5,74.3,42.7z"/>
		<path style="fill:#F7E3DE;" d="M139.8,23.5c-1.7,1.9-3.6,3.6-5.7,5.1c-1,0.7-2.1,1.1-3.3,1.2c-0.7,0.1-1.4,0.1-2,0.4
			c-1.2,0.5-2.1-0.1-2.9-0.9c-0.4-0.3-0.6-0.9-0.8-1.3c-0.7-1-0.3-2,0.2-2.9c0.9-1.4,2.2-2.6,3.4-3.8c0.9-0.9,1.8-1.8,2.7-2.7
			c0.3-0.3,0.6-0.5,0.9-0.7c0.3,0.3,0.5,0.6,0.8,0.8c1,0.7,2.1,1.4,3.1,2.1C137.5,21.7,138.6,22.6,139.8,23.5z"/>
		<path style="fill:#F9E4DF;" d="M37.2,124.7c-1.6,1-3.3,1.3-5.1,1.5c-1.9,0.2-3.8,0.2-5.8,0.3c0-0.6,0.1-1.2,0-1.8
			c-0.3-2.5-0.6-4.9-0.9-7.4c2.5,0,5.1,0,7.6,0c0.2,0,0.3,0.2,0.5,0.3c0.5,0.1,1,0.1,1.5,0.2c0,0,0,0,0,0c0.3,0.1,0.6,0.2,1,0.2
			c0,0,0,0,0,0c0.2,0.2,0.4,0.4,0.6,0.5c2.4,0.8,2.5,3.3,1.3,4.7C37.5,123.6,37.4,124.2,37.2,124.7z"/>
		<path style="fill:#F7E3DE;" d="M92.4,112.1c-0.8,0.3-1.5,0.6-2.3,0.8c-0.1,0-0.3,0-0.4,0.1c-1.2,1.1-2.8,1.3-4.2,1.9
			c-1.6,0.7-3.3,0.4-4.8-0.2c-1.3-0.4-2.3-2.5-2.2-3.8c0.1-0.9,0.6-1.5,1.2-2c1.5-1.2,3-2.4,4.9-3.1c1.2-0.4,2.3-1,3.4-1.5
			c0.3,0.2,0.7,0.3,0.8,0.5C90,107.2,91.2,109.7,92.4,112.1z"/>
		<path style="fill:#F7E3DE;" d="M110.5,130c-1.3-0.1-2.5-0.2-3.8-0.4c-0.8-0.1-1.7-0.4-2.5-0.6c-1.1-0.2-2-0.8-2.6-1.7
			c-0.8-1.1-1.3-2.3-1-3.7c0.2-0.8,0.6-1.3,1.2-1.8c1.5-1.2,3.1-0.7,4.7-0.8c0.6-0.1,1.3,0,1.9,0.1c0.4,0,0.8,0.1,1.1,0.2
			c0.3,0,0.6,0.1,0.9,0.1c1.1-0.3,2.1-0.1,3.1,0.2c-0.2,2.9-1.2,5.6-2,8.3C111.2,130,110.8,130,110.5,130z"/>
		<path style="fill:#EEBC9B;" d="M51.8,128.1c0-4.1,0-8.2,0-12.3c0-0.3,0-0.6,0-1c0.1-0.6,0.4-0.9,0.9-0.9c0.4,0,0.8,0,1.2,0
			c1.4,0,1.5,0,1.4,1.5c-0.1,6.5-0.3,12.9-0.4,19.4c0,2.1-0.1,4.1-0.1,6.2c0,1.3-0.4,1.7-1.7,1.6c-0.9-0.1-1.5-0.7-1.5-1.7
			c0-3.8,0-7.6,0.1-11.4C51.8,129,51.8,128.6,51.8,128.1C51.8,128.1,51.8,128.1,51.8,128.1z"/>
		<path style="fill:#F8E4DF;" d="M89.7,103.4c2.1-1,4.3-2,6.4-3c0.3-0.1,0.7-0.3,1-0.4c0.6-0.1,1,0.2,1.3,0.8c1,2.2,2.1,4.5,3.1,6.7
			c-0.4,0.3-0.7,0.6-1,0.9c-1.7,0.8-3.5,1.6-5.2,2.4c-0.5,0.2-1,0.3-1.4,0.5c-0.2-0.2-0.5-0.4-0.6-0.6c-0.4-0.9-0.8-1.8-1.3-2.7
			c-0.7-1.3-1.4-2.6-2.1-3.8C89.7,104,89.7,103.7,89.7,103.4z"/>
		<path style="fill:#F7D8C3;" d="M111.4,142.2c-0.3-0.4-0.8-0.8-1-1.3c-0.3-0.9-0.8-1.6-1.5-2.3c-0.5-0.5-0.9-1-1-1.7
			c-0.1-0.5,0-1,0.6-1.2c0.7-0.2,1-0.7,0.9-1.5c0-0.4,0.1-0.8,0.2-1.2c0.1-0.6,0.2-1.1,0.4-1.8c2,0.4,4.1,0.6,6,1.3
			c0.3,0.1,0.6,0.2,0.9,0.2c0,0,0,0,0,0c0.1,0.2,0.2,0.4,0.2,0.6c0,1.5-0.1,2.9-0.2,4.4c0,0.7-0.1,1.4,0,2c0.2,1.5-0.4,2.3-2,2.4
			C113.8,142.2,112.6,142.2,111.4,142.2z"/>
		<path style="fill:#F7E3DE;" d="M99,99.3c0.5-0.1,1-0.3,1.5-0.4c0.2-0.1,0.5-0.1,0.7-0.2c0,0,0,0,0,0c0.8,0.1,1.5-0.2,2.1-0.7
			c0,0,0,0,0,0c0.3-0.1,0.6-0.3,0.9-0.4c0-0.1,0.1-0.1,0.2-0.1c0.2-0.1,0.4-0.1,0.5-0.2c0-0.1,0.1-0.1,0.2-0.1
			c0.9-0.1,1.8-0.1,2.7-0.2c0,0,0,0,0,0c0.3,0.1,0.7,0.2,1,0.2c0.9,0.2,1.6,0.8,1.6,1.7c0,0.9,0.2,1.9-0.4,2.8
			c-0.2,0.3-0.3,0.7-0.4,1.1c-1.1,0.4-1.8,1.4-3,1.7c0,0,0,0.3,0,0.4c-0.8,1-2,1.5-3.2,2c-0.3,0.1-0.5,0.3-0.7,0.4
			c-0.3-0.4-0.6-0.7-0.8-1.1C101,103.8,100,101.5,99,99.3z"/>
		<path style="fill:#F7E3DE;" d="M166.9,37.2c-1.9,1.1-3.9,1.2-6,1.1c-0.6,0-1.2,0-1.8,0.1c-0.8,0.1-1.4-0.2-1.9-0.7
			c-0.6-0.6-1.3-1-1.9-1.6c-0.3-0.3-0.6-0.7-0.8-1c-0.6-1.1-0.3-1.8,0.9-2.3c0.6-0.2,1.2-0.4,1.8-0.6c1.3-0.4,2.6-0.8,3.9-1.2
			c0.8,0.8,1.6,1.6,2.4,2.5C164.6,34.6,165.7,35.9,166.9,37.2z"/>
		<path style="fill:#F7E3DE;" d="M84.4,22.8c1.7-0.1,3.3-0.1,5-0.2c0.4,0,0.9,0.3,1.3,0.3c1.5,0,3-0.1,4.5-0.1
			c1.4,0.1,2.7,0.7,3.6,1.8c0.3,0.4,0.3,0.9,0,1.4c-0.5,0.8-1.4,1.2-2.3,1.4c-2.2,0.6-4.4,0.6-6.7,0.4c-0.3,0-0.6-0.2-0.9-0.3
			c-0.3-0.2-0.7-0.4-1-0.6c-1.1-1.1-2.2-2.3-3.2-3.5C84.6,23.3,84.5,23.1,84.4,22.8z"/>
		<path style="fill:#F8E4DF;" d="M86.6,28.1c-0.6,0.7-1.5,1.1-2.4,1.2c-0.2-0.1-0.4-0.2-0.5-0.1c-1.5,0.6-2.2,1.7-2.4,3.3
			c-0.8-0.9-1.6-1.7-2.5-2.6c-1.1-1.1-2.2-2.2-3.3-3.2c1.9-2.4,4.3-3.9,7.5-3.6c0.2,0.3,0.5,0.7,0.7,1c1.1,1.2,2.2,2.3,3.4,3.5
			C86.8,27.9,86.7,28,86.6,28.1z"/>
		<path style="fill:#F7E3DE;" d="M144.1,19.2c-1,1.1-2.1,2.2-3.1,3.4c-0.3-0.2-0.6-0.3-0.9-0.5c-2.1-1.4-4.1-2.9-6.2-4.3
			c-0.3-0.2-0.5-0.5-0.7-0.8c1.1-1.1,2.2-2.3,3.3-3.4c0.2-0.2,0.4-0.3,0.6-0.4c0.1,0.2,0.2,0.3,0.4,0.5c2,1.6,4.1,3.3,6.1,4.9
			C143.8,18.6,143.9,18.9,144.1,19.2z"/>
		<path style="fill:#F7E3DE;" d="M137.8,12.5c0.1-0.2,0.2-0.5,0.4-0.7c0.3-0.3,0.6-0.6,1-0.8c0.2-0.1,0.5-0.3,0.7-0.3
			c2.1,0.1,4.2,0.2,6.3,0.4c1,0.1,1.8,0.9,2.6,1.4c0.4,0.3,0.3,1.1,0,1.6c-1.1,1.4-2.3,2.7-3.6,3.8c-0.3-0.2-0.7-0.3-1-0.5
			c-1-0.7-1.9-1.5-2.9-2.3C140.1,14.2,139,13.3,137.8,12.5z"/>
		<path style="fill:#F7E3DE;" d="M25.4,126.4c-0.4,0-0.8,0.1-1.2,0.1c-1.2-0.1-2.4-0.1-3.5,0.3c-0.2,0.1-0.5,0-0.8,0
			c-0.1-3.1-0.3-6.2-0.1-9.4c1.5,0,3,0,4.5,0c0.3,2,0.8,4.1,0.8,6.2C25,124.4,25.2,125.4,25.4,126.4z"/>
		<path style="fill:#F7E3DE;" d="M162.8,30.5c1-0.2,2-0.3,2.9-0.5c0.9-0.2,1.3,0.1,1.6,1c0.1,0.4,0.3,0.6,0.7,0.7
			c0.2,0,0.5,0.1,0.6,0.3c1.1,1.1,2.2,2.2,3.3,3.3c-0.7,1-1.6,1-2.5,0.9c-0.5-0.1-0.9,0-1.2,0.3c-0.2-0.1-0.5-0.1-0.6-0.3
			c-1.3-1.4-2.6-2.9-3.9-4.3C163.4,31.4,163.1,31,162.8,30.5z"/>
		<path style="fill:#F7E3DE;" d="M116.8,131.4c-0.1,0-0.3,0-0.3,0c-0.7-1-1.7-0.7-2.7-0.7c-0.1,0-0.2,0-0.3-0.1
			c-0.8-0.4-0.5-1.1-0.3-1.7c0.9-2.2,1.3-4.6,1.8-6.9c0.6,0.1,1.2,0.2,1.9,0.3C116.8,125.5,116.8,128.4,116.8,131.4z"/>
		<path style="fill:#1F1916;" d="M76,120.9c0.2,0.2,0.5,0.3,0.7,0.5c0.8,1,1.6,2,2.4,2.9c0.8,0.9,1.5,1,2.5,0.3
			c0.8-0.6,1.6-0.7,2.4-0.4c0.7,0.2,1.3,0.4,2,0.5c-0.5,0-0.7,0.2-0.7,0.7c-0.5-0.1-1-0.1-1.5-0.3c-0.6-0.2-1.1,0.1-1.5,0.4
			c-0.5,0.4-1,0.8-1.7,0.5c-0.1,0-0.3,0.1-0.4,0.1c-1.3,0.5-2,0.3-2.7-0.8c-0.3-0.4-0.5-0.8-0.8-1.3c0.2-0.4,0-0.7-0.5-0.8
			c-0.1-0.1-0.2-0.2-0.3-0.4c0.3-0.5-0.1-0.8-0.3-1.1c-0.1-0.2-0.2-0.4-0.2-0.6c0.1,0,0.2-0.1,0.2-0.1C75.7,121,75.8,121,76,120.9z"
			/>
		<path style="fill:#AC9E9A;" d="M133.2,16.9c0.2,0.3,0.4,0.6,0.7,0.8c2,1.5,4.1,2.9,6.2,4.3c0.3,0.2,0.6,0.3,0.9,0.5
			c-0.1,0.7-0.8,0.6-1.2,0.9c-1.2-0.9-2.3-1.8-3.5-2.7c-1-0.7-2.1-1.4-3.1-2.1c-0.3-0.2-0.6-0.5-0.8-0.8
			C132.6,17.6,132.9,17.3,133.2,16.9z"/>
		<path style="fill:#AC9E9A;" d="M99,99.3c1,2.3,2,4.5,3.1,6.8c0.2,0.4,0.5,0.8,0.8,1.1c-0.5,0.4-1.2,0.3-1.5,1.1
			c0,0.1-0.6,0.1-0.9,0.1c0.3-0.3,0.6-0.6,1-0.9c-1-2.3-2.1-4.5-3.1-6.7c-0.3-0.6-0.6-0.9-1.3-0.8C97.7,99.8,98.4,99.5,99,99.3z"/>
		<path style="fill:#AC9E9A;" d="M114.9,122.1c-0.5,2.3-0.9,4.7-1.8,6.9c-0.2,0.6-0.5,1.2,0.3,1.7c-1-0.2-1.9-0.4-2.9-0.6
			c0.3,0,0.7,0,1.1-0.1c0.9-2.7,1.9-5.4,2-8.3c0.4,0,0.7,0.1,1.1,0.1C114.8,121.8,114.8,122,114.9,122.1z"/>
		<path style="fill:#AC9E9A;" d="M137.8,12.5c1.1,0.8,2.3,1.7,3.4,2.5c1,0.7,1.9,1.6,2.9,2.3c0.3,0.2,0.7,0.3,1,0.5
			c-0.3,0.5-0.7,0.9-1,1.4c-0.2-0.2-0.3-0.5-0.5-0.7c-2-1.6-4.1-3.3-6.1-4.9c-0.1-0.1-0.2-0.3-0.4-0.5
			C137.4,12.9,137.6,12.7,137.8,12.5z"/>
		<path style="fill:#AC9E9A;" d="M89.7,103.4c0.1,0.3,0.1,0.6,0.2,0.8c0.7,1.3,1.4,2.6,2.1,3.8c0.5,0.9,0.8,1.8,1.3,2.7
			c0.1,0.2,0.4,0.4,0.6,0.6c-0.5,0.2-1,0.5-1.4,0.7c-1.2-2.4-2.4-4.9-3.6-7.3c-0.1-0.2-0.5-0.3-0.8-0.5
			C88.5,104,89.1,103.7,89.7,103.4z"/>
		<path style="fill:#AC9E9A;" d="M75.5,26.6c1.1,1.1,2.2,2.1,3.3,3.2c0.8,0.8,1.7,1.7,2.5,2.6c0.1,0.3,0.2,0.5,0.3,0.8
			c-0.1,0.2-0.3,0.4-0.4,0.6c-0.2-0.1-0.4-0.2-0.6-0.2c-0.2-0.3-0.4-0.6-0.7-0.8c-1.6-1.6-3.1-3.3-4.7-4.9c-0.2-0.2-0.3-0.4-0.4-0.6
			C75,27,75.2,26.8,75.5,26.6z"/>
		<path style="fill:#AC9E9A;" d="M25.4,126.4c-0.2-1-0.4-2-0.4-2.9c0-2.1-0.4-4.1-0.8-6.2c0.4,0,0.8,0,1.2,0
			c0.3,2.5,0.6,4.9,0.9,7.4c0.1,0.6,0,1.2,0,1.8C26,126.4,25.7,126.4,25.4,126.4z"/>
		<path style="fill:#AC9E9A;" d="M162.8,30.5c0.3,0.5,0.6,0.9,0.9,1.3c1.3,1.5,2.6,2.9,3.9,4.3c0.1,0.2,0.4,0.2,0.6,0.3
			c-0.3,0.5-0.9,0.6-1.4,0.7c-1.1-1.3-2.3-2.5-3.4-3.8c-0.8-0.8-1.6-1.7-2.4-2.5C161.7,30.8,162.2,30.6,162.8,30.5z"/>
		<path style="fill:#E9EDE8;" d="M114.9,122.1c-0.1-0.1-0.1-0.2-0.2-0.4c0.9,0.1,1.9,0.3,2.8,0.4c0,3.2,0,6.3,0,9.6
			c-0.4-0.1-0.6-0.2-0.8-0.2c0-3,0-6,0-9C116.1,122.3,115.5,122.2,114.9,122.1z"/>
		<path style="fill:#F7E3DE;" d="M111.4,142.2c1.2,0,2.5,0,3.7,0c1.6,0,2.2-0.8,2-2.4c-0.1-0.7,0-1.3,0-2c0-1.5,0.1-2.9,0.2-4.4
			c0-0.2-0.1-0.4-0.2-0.6c0.2,0.1,0.4,0.2,0.5,0.4c0.1,0.5,0,1,0.1,1.5c0.2,1.6,0.3,3.3,0.1,4.9c-0.1,1.1-0.2,2.1-0.3,3.2
			c-1.8,0-3.5,0-5.1,0C111.9,142.8,111.6,142.4,111.4,142.2z"/>
		<path style="fill:#AC9E9A;" d="M86.6,28.1c0.1-0.1,0.2-0.2,0.5-0.4c-1.1-1.2-2.3-2.4-3.4-3.5c-0.3-0.3-0.5-0.7-0.7-1
			c0.5-0.1,1-0.2,1.5-0.2c0.1,0.2,0.2,0.5,0.4,0.7c1.1,1.2,2.1,2.3,3.2,3.5c0.3,0.3,0.6,0.4,1,0.6C88.2,28.2,87.4,28,86.6,28.1z"/>
		<path style="fill:#E9EDE8;" d="M106.7,104.8c0-0.1,0-0.4,0-0.4c1.2-0.2,1.9-1.3,3-1.7c0.1-0.4,0.2-0.8,0.4-1.1
			c0.6-0.9,0.5-1.8,0.4-2.8c0-0.9-0.7-1.5-1.6-1.7c-0.3-0.1-0.7-0.2-1-0.2c1-0.1,1.9-0.1,2.7,0.7c0.7,0.7,1.1,2.4,0.6,3.3
			c-0.2,0.4-0.3,0.8-0.5,1.2c-0.1,0.2-0.2,0.5-0.3,0.6c-0.9,0.5-1.4,1.6-2.7,1.6C107.4,104.3,107.1,104.6,106.7,104.8z"/>
		<path style="fill:#F7E3DE;" d="M80.5,33.6c0.2,0.1,0.4,0.2,0.6,0.2c0,0.1-0.1,0.1-0.1,0.2c-0.1,0.1-0.1,0.2-0.2,0.3
			c-1.4,2-2.8,4-4.2,6.1c-0.4,0.6-0.9,1.2-1.3,1.8c-0.3,0.4-0.6,0.5-1,0.5c0.1-0.2,0.1-0.5,0.3-0.6c1.5-2.3,3-4.6,4.6-6.9
			C79.5,34.6,80.1,34.1,80.5,33.6z"/>
		<path style="fill:#AC9E9A;" d="M81,105.3c1-0.6,2.1-1.1,3.1-1.7c0.8,0.5,1.2-0.1,1.7-0.6c0.2-0.1,0.4-0.4,0.6-0.4
			c0.9-0.2,1.6-0.9,2.6-0.8c0.7-0.8,1.8-0.8,2.7-1.3c0.1,0.1,0.2,0.1,0.3,0.2c0,0,0.1,0.1,0.1,0.1c-0.3,0.2-0.5,0.4-0.8,0.5
			c-0.7,0.2-1.5,0.2-2,0.9c-0.1,0.1-0.6,0-1,0c-1.1,1.3-2.7,1.9-4.4,2.1c-0.1-0.1-0.1-0.1-0.2-0.2c0,0.1,0,0.2,0.1,0.3
			c0,0.1-0.1,0.3-0.1,0.3C82.8,104.9,81.9,105.1,81,105.3z"/>
		<path style="fill:#E9EDE8;" d="M37.2,124.7c0.2-0.5,0.4-1.1,0.7-1.5c1.2-1.5,1.1-3.9-1.3-4.7c-0.2-0.1-0.4-0.3-0.6-0.5
			c0.3,0.1,0.7,0.3,1,0.3c1.3,0.2,1.9,1.1,2.4,2.1c0.2,0.3,0.2,0.8,0.1,1.1C39.1,122.9,38.5,124.1,37.2,124.7z"/>
		<path style="fill:#E9EDE8;" d="M81.5,33.3c-0.1-0.3-0.2-0.5-0.3-0.8c0.2-1.5,1-2.7,2.4-3.3c0.1,0,0.3,0.1,0.5,0.1
			c-1.2,0.7-1.9,1.7-2,3.1c0,0.2-0.1,0.3-0.1,0.4c-0.1,0.1-0.1,0.2-0.2,0.3C81.7,33.2,81.6,33.2,81.5,33.3z"/>
		<path style="fill:#AC9E9A;" d="M78.4,107.6c0.4-0.7,0.9-1.2,1.6-1.4c0,0.2,0,0.4,0,0.7C79.4,107.1,78.9,107.4,78.4,107.6z"/>
		<path style="fill:#E9EDE8;" d="M107.9,96.9c-0.9,0.1-1.8,0.1-2.7,0.2C106,96.7,106.9,96.5,107.9,96.9z"/>
		<path style="fill:#1F1916;" d="M86.1,124.7c0.9,0,1.8,0,2.6,0C87.8,125.3,86.9,125.2,86.1,124.7z"/>
		<path style="fill:#1F1916;" d="M86.8,126.6c0.1-0.2,0.2-0.4,0.3-0.7c-0.5-0.2-1-0.4-1.4-0.5c0.5,0,1,0,1.4,0
			C87.4,126.1,87.3,126.4,86.8,126.6z"/>
		<path style="fill:#E9EDE8;" d="M103.3,97.9c-0.6,0.6-1.3,0.8-2.1,0.7C101.9,98.3,102.6,98.1,103.3,97.9z"/>
		<path style="fill:#AC9E9A;" d="M92.3,100.2c0.3-0.1,0.6-0.3,0.9-0.4c-0.4,0.4-0.7,0.7-1.1,1.1c0,0-0.1-0.1-0.1-0.1
			C92.1,100.5,92.2,100.4,92.3,100.2z"/>
		<path style="fill:#1F1916;" d="M13.2,62.6c-0.2-0.1-0.3-0.3-0.5-0.4c0.1-0.1,0.1-0.1,0.2-0.2c0.2,0.1,0.4,0.2,0.5,0.4
			C13.3,62.4,13.3,62.5,13.2,62.6z"/>
		<path style="fill:#E9EDE8;" d="M35,117.7c-0.5-0.1-1-0.1-1.5-0.2C34,117.6,34.6,117.2,35,117.7z"/>
		<path style="fill:#AC9E9A;" d="M80,106.1c0.1-0.4,0.3-0.6,0.7-0.6C80.5,105.7,80.3,105.9,80,106.1z"/>
		<path style="fill:#E9EDE8;" d="M104.3,97.4c-0.3,0.1-0.6,0.3-0.9,0.4C103.7,97.7,104,97.6,104.3,97.4z"/>
		<path style="fill:#E9EDE8;" d="M36,118c-0.3-0.1-0.6-0.2-1-0.2C35.3,117.8,35.6,117.9,36,118z"/>
		<path style="fill:#F7E3DE;" d="M117,132.9c-0.3-0.1-0.6-0.2-0.9-0.2C116.3,132.7,116.7,132.8,117,132.9z"/>
		<path style="fill:#E9EDE8;" d="M101.2,98.6c-0.2,0.1-0.5,0.1-0.7,0.2C100.7,98.7,100.9,98.7,101.2,98.6z"/>
		<path style="fill:#AC9E9A;" d="M93.3,99.8c0.1-0.1,0.3-0.1,0.4-0.2C93.6,99.6,93.4,99.7,93.3,99.8z"/>
		<path style="fill:#E9EDE8;" d="M105,97.2c-0.2,0.1-0.4,0.1-0.5,0.2C104.6,97.3,104.8,97.2,105,97.2z"/>
		<path style="fill:#AC9E9A;" d="M78.2,107.9c0.1-0.1,0.1-0.2,0.2-0.2C78.3,107.8,78.2,107.8,78.2,107.9z"/>
		<path style="fill:#AC9E9A;" d="M80.8,34.3c0.1-0.1,0.1-0.2,0.2-0.3C80.9,34.1,80.9,34.2,80.8,34.3z"/>
		<path style="fill:#AC9E9A;" d="M81.7,33.1c0.1-0.1,0.1-0.2,0.2-0.3C81.9,32.9,81.8,33,81.7,33.1z"/>
		<path style="fill:#F2F7F1;" d="M225.7,205.4c3.5,0.1,6.8,0.1,10.1,0.1c0,0.8-0.4,1.3-0.7,1.7c-1,1.2-2,2.3-2.9,3.5
			c-0.5,0.6-1,1.3-1.5,1.9c-1.3,1.7-2.6,3.4-3.9,5c-1.5,1.9-3,3.7-4.6,5.5c-0.1,0.2-0.3,0.3-0.6,0.5c-5.7-5.2-10.7-11.1-16-16.7
			c-0.1-0.1-0.2-0.3-0.3-0.6c0.7-0.1,1.4-0.2,2-0.2c1.2,0,2.3,0.1,3.5,0c0.7,0,1.2,0.1,1.4,0.8c0,0.1,0.2,0.1,0.3,0.2
			c1-0.3,1.6-1,1.6-1.9c0-6.2-0.1-12.4-0.1-18.6c0-1.4-0.1-2.7-0.1-4.1c0-1.1,0.1-1.3,1.3-1.3c3.4-0.1,6.7-0.2,10.1-0.3
			c1.3,0,1.4,0.1,1.3,1.5c-0.1,1.3,0,2.6,0,3.9c0,1.7-0.2,3.4-0.1,5c0.2,2.8-0.1,5.7,0.1,8.5c0,0.9,0,1.8,0,2.6
			c0,0.6,0.1,1.2-0.6,1.6C225.8,204.1,225.8,204.7,225.7,205.4z"/>
		<path style="fill:#E9EDE8;" d="M150.1,99.9c-0.6,0-0.9-0.1-1.4-0.1c0-5.3,0-10.5,0-15.8c0.5,0,1,0,1.6,0
			C150.5,89.2,150.1,94.5,150.1,99.9z"/>
		<path style="fill:#F1F6F0;" d="M218.5,84.6c2,0,4-0.2,5.9,0.4c0.9,0.3,1.5,0.8,2,1.6c0.6,1,0.9,2.1,0.9,3.3c0,2.4,0.1,4.9,0.2,7.2
			c-4.4,2.2-8.7,4.3-13.1,6.5c-0.3-0.7-0.6-1.6-1-2.7C215,95.8,216.7,90.3,218.5,84.6z"/>
		<path style="fill:#EFF5F0;" d="M227.4,101.2c0,3.1,0,6.1,0,9.2c-4.4,0.2-8.7,0.1-13,0.1c-0.1-0.9-0.2-1.7-0.3-2.5
			c-0.1-0.5,0.2-0.7,0.6-0.9c0.9-0.4,1.8-0.8,2.7-1.3c3.1-1.5,6.3-3,9.4-4.5C227,101.4,227.2,101.3,227.4,101.2z"/>
		<path style="fill:#EEF4EE;" d="M214.3,120.8c0-2.1,0-4.3,0-6.5c0.4-0.1,0.8-0.2,1.3-0.2c3.8,0,7.7,0.1,11.5,0.1
			c0.1,0,0.1,0.1,0.3,0.1c0,2.2,0,4.4,0,6.6C226.4,121.3,216.1,121.1,214.3,120.8z"/>
		<path style="fill:#EFF5F0;" d="M227.4,131.1c-4.5-0.1-9-0.2-13.4-0.3c0-1.3,0-2.6,0-3.8c0-0.1,0.1-0.2,0.1-0.3
			c0.1-1.5,0.1-1.6,1.5-1.6c3.6-0.1,7.1-0.1,10.7-0.1c0.9,0,1.1,0.2,1.1,1C227.4,127.7,227.4,129.3,227.4,131.1z"/>
		<path style="fill:#F0F5EF;" d="M193.9,84.7c0,5,0,9.9,0,15c-0.9,0-1.8,0.1-2.6,0.1c-0.7,0-1.3-0.1-2-0.1c-1.1-0.1-2.3-0.1-3.4-0.2
			c-0.7,0-1-0.3-1.1-1c0-0.2,0-0.5,0-0.7c-0.1-3.6-0.2-7.2-0.2-10.8c0-0.4,0-0.8,0-1.2c0.1-1.2,0.2-1.4,1.4-1.4c1,0,2,0.1,3,0.1
			c1.3,0,2.7,0.1,4,0.1C193.2,84.5,193.5,84.6,193.9,84.7z"/>
		<path style="fill:#EEF4EE;" d="M181.2,84.1c-0.1,5.3-0.2,10.4-0.3,15.7c-1.5-0.1-2.9-0.2-4.4-0.3c-0.4,0-0.7,0-1.1,0
			c-0.6,0-0.9-0.3-0.9-0.9c-0.1-0.6-0.1-1.1-0.1-1.7c0-3.7,0-7.3-0.1-11c0-0.3,0-0.6,0-0.8c0.1-0.7,0.3-1,1.1-1c1.2,0,2.4,0,3.6,0
			C179.7,84.1,180.4,84.1,181.2,84.1z"/>
		<path style="fill:#F1F6F0;" d="M213.8,165.3c0-1.4,0-2.7,0-3.9c0-1.5,0.2-3,0.2-4.5c0-1,0.2-1.3,1.3-1.3c3.5-0.1,7-0.2,10.5-0.2
			c1.1,0,1.3,0.2,1.3,1.3c0,0.8-0.1,1.7-0.1,2.5c0,1.4-0.3,2.8,0.1,4.2c0.2,0.6,0,1.3-0.1,2C222.7,165.3,218.4,165.3,213.8,165.3z"
			/>
		<path style="fill:#EEF4EE;" d="M204.8,84.3c0,5.3,0,10.5,0,15.9c-0.4,0-0.7,0.1-1,0.1c-1.8-0.1-3.6-0.1-5.4-0.2
			c-0.8,0-1.1-0.3-1.1-1.1c0-4.4,0.1-8.8,0.1-13.1c0-0.7,0.5-1.2,1.4-1.3c1.3-0.2,2.5-0.2,3.8-0.2C203.4,84.2,204.1,84.2,204.8,84.3
			z"/>
		<path style="fill:#EEF4EE;" d="M163,99.6c-0.1,0.1-0.1,0.1-0.1,0.1c-3,0.2-2.8,0.2-2.9-2.4c-0.2-3.8-0.3-7.6-0.4-11.4
			c0-0.4-0.1-0.7,0.1-1.1c0.1-0.3,0.4-0.6,0.6-0.6c0.9-0.1,1.8-0.2,2.8-0.2C163,89.3,163,94.4,163,99.6z"/>
		<path style="fill:#F0F5EF;" d="M226.9,142.4c-4.4,0-8.6,0-13,0c0-0.8-0.1-1.5-0.1-2.2c0.1-1.5,0.2-3.1,0.3-4.6
			c0.1-1,0.2-1.3,1.3-1.3c2.4-0.1,4.8-0.1,7.2-0.2c1.1,0,2.2,0,3.4,0c1.1,0,1.3,0.2,1.3,1.4c0,0.9-0.1,1.7-0.1,2.6
			c0,1.1,0,2.3-0.1,3.4C227,141.7,226.9,142,226.9,142.4z"/>
		<path style="fill:#ECF1EB;" d="M171.1,84.1c0,5.2,0,10.3,0,15.6c-1.2,0-2.4,0-3.6,0c-0.5,0-0.7-0.3-0.8-0.8c0-0.3,0-0.6,0-1
			c0-2.3,0-4.5-0.1-6.8c0-1.9-0.1-3.8-0.1-5.7c0-1.1,0.2-1.2,1.2-1.3C168.8,84.1,169.8,84.1,171.1,84.1z"/>
		<path style="fill:#EFF5F0;" d="M213.9,177.5c-0.3-2.1-0.4-4.1-0.4-6.2c0-0.5,0.1-1,0.1-1.6c0.1-1.2,0.2-1.3,1.3-1.3
			c2.3,0,4.6,0,6.8,0c1.3,0,2.6,0.1,4,0.1c1.1,0,1.3,0.2,1.2,1.3c-0.1,1.8-0.2,3.6-0.3,5.3c0,0.7,0,1.5,0,2.3
			C222.4,177.5,218.2,177.5,213.9,177.5z"/>
		<path style="fill:#EFF5F0;" d="M214.6,84.5c-1.4,5.3-2.8,10.5-4.2,15.8c-0.6,0-1.2,0-1.8,0c-0.1-5.3-0.2-10.5-0.3-15.8
			C210.5,84.5,212.5,84.5,214.6,84.5z"/>
		<path style="fill:#E9EDE8;" d="M156.1,99.8c-0.8-0.2-1.5-0.3-2-0.6c-0.2-0.1-0.4-0.7-0.4-1.1c0-2.5,0-5-0.1-7.6
			c0-1.7-0.1-3.4-0.1-5.1c-0.1-1.5,0.8-2.1,2.2-1.5C155.8,89.2,156,94.4,156.1,99.8z"/>
		<path style="fill:#F1F6F0;" d="M214,152.1c0-1.7,0-3.2,0-4.8c0-0.5,0.3-0.8,0.8-0.9c0.4,0,0.7-0.1,1.1-0.1c3.4,0,6.7,0,10.1,0
			c1.3,0,1.4,0.1,1.4,1.4c0,1.5,0,3,0,4.6C222.8,152.5,218.4,152.2,214,152.1z"/>
		<path style="fill:#070605;" d="M72.6,88.3c-0.1-1.4-0.2-2.6-0.2-3.8c0-1.8,0-3.6,0-5.4c0-0.5,0-1,0.1-1.4c0.1-0.9,0.1-1.7-0.2-2.6
			c-2.8-1.1-5.5-2.3-8.3-3.4c-1.4-0.6-2.7-1.3-3.7-2.3c-1.3-1.3-1.9-2.9-1.4-4.8c0.3-1.2,0.8-2.2,1.8-3c0.8-0.6,1.7-0.9,2.6-0.9
			c1.1,0,2.1,0.1,3.2,0.2c0.4,0,0.8,0.2,1.2,0.4c0.7,0.2,1.4,0.4,2,0.6c0.3,0.1,0.7,0.1,1,0.3c0.6,0.5,1.3,0.4,2.1,0.4
			c0.4-1.7,0.2-3.4,0.2-5.1c0-0.2-0.1-0.4-0.1-0.6c-0.1-1.2,0.5-1.9,1.7-2.1c0.5-0.1,1-0.1,1.4,0c3.5,0.1,7.1,0.1,10.6,0.2
			c1.5,0,3-0.1,4.5-0.2c0.9,0,0.9,0,1.8,0.8c-0.9,0.5-0.8,1.3-0.7,2.1c0.1,1.4,0.2,2.9,0.2,4.3c0.1,1,0.1,2.1,0.1,3.1
			c0,1.3,0.1,2.5,0.1,3.8c0,0.2-0.1,0.4-0.1,0.4c0.8,1.2,2.3,1.2,3.2,2.2c0.4,0.4,1,0.7,1.5,1c1.7,1,2,2.7,1.7,4.4
			c-0.4,2.1-1.7,3.6-3.4,4.9c-0.4,0.3-0.9,0.4-1.3,0.5c-0.9,0.1-1.9,0.2-2.9,0.2c0,0.3,0,0.6,0,0.9c0,0.8,0.1,1.7,0.1,2.5
			c0,1.3-0.5,2-1.8,2.2c-0.5,0.1-1.1,0.1-1.7,0.1c-3.5,0-7,0.1-10.5,0.1C75.8,88.3,74.3,88.3,72.6,88.3z M87,69.3
			C87,69.3,87,69.3,87,69.3c-0.6-0.2-1.1-0.5-1.7-0.7c-0.3-0.2-0.6-0.3-1-0.5c-1.9-0.6-3.9-1.3-5.8-1.9c-0.8-0.3-1.7-0.5-2.5-0.8
			c-0.6-0.2-1.1-0.4-1.7-0.6c-1.4-0.5-2.7-0.9-4.1-1.4c-0.8-0.3-1.7-0.5-2.5-0.6c-1.1-0.2-2.2-0.1-3.3-0.3c-1-0.2-1.8,0-2.6,0.4
			c-1.1,0.5-1.9,1.5-2,2.6c-0.1,1.4,0.4,2.7,1.9,3.4c0.6,0.3,1.3,0.7,1.9,1c2,1.3,4.3,2,6.4,3c0.7,0.2,1.5,0.5,2.2,0.7
			c0.6,0.2,1.3,0.3,1.8,0.6c0.8,0.6,1.7,1,2.6,1.2c0.4,0.1,0.8,0.4,1.1,0.6c0.2,0.1,0.4,0.3,0.6,0.3c0.9,0.2,1.8,0.4,2.7,0.6
			c0.4,0.2,0.8,0.4,1.2,0.6c1,0.5,2,1,3,1.4c0.1,0.1,0.3,0.1,0.5,0.1c1.5,0,2.7,0.8,4,1.3c1.4,0.6,2.9,0.6,4.3,0
			c1.6-0.2,3.5-3.1,3.5-4.6c0-0.2,0-0.4-0.1-0.6c-0.4-1.1-1.1-2.1-2.1-2.6c-1.1-0.6-2.3-1-3.5-1.5c-0.7-0.3-1.4-0.7-2.1-1
			c-0.6-0.3-1.3-0.4-1.9-0.6l0,0C87.5,69.5,87.3,69.4,87,69.3z M74.4,76c-0.5,3.5-0.2,7-0.2,10.3c0.6,0,1-0.1,1.4-0.1
			c0.5,0,1,0.1,1.5,0.1c0.4,0,0.8-0.2,1-0.5c0.3-0.5,0.7-1.1,0.7-1.7c0-2-0.1-3.9-0.2-5.9c0-0.5-0.2-0.7-0.6-0.9
			c-0.9-0.3-1.8-0.8-2.7-1.1C75,76.2,74.7,76.1,74.4,76z M78.4,64.7c0-1.3,0-2.6,0-3.9c0-0.9,0-1.8-0.1-2.7
			c-0.1-0.8-0.7-1.2-1.5-1.2c-0.7,0-1.4,0.1-2.1,0.1c-0.7,2.1-0.3,4.2-0.2,6.2C75.8,63.8,77.1,64.2,78.4,64.7z"/>
		<path style="fill:#080606;" d="M51.8,86.9c-0.2,0.5-0.8,0.8-1.5,0.8c-3.1,0.1-6.1,0.2-9.2,0.3c-1.6,0-3.2,0.1-4.9,0.1
			c-0.6,0.7-1.3,1.4-2,2.1c-0.5,0.5-1,1.1-1.9,1.1c-0.3,0-0.5,0.3-0.8,0.5c-1.5,1-2.9,1.1-4.6,0.4c-1.4-0.6-2.1-1.7-2.9-2.9
			c-0.2-0.4-0.4-0.8-0.6-1.1c-0.5-1-0.6-2-0.4-3.1c0.1-0.7,0.2-1.3,0.3-2c0-0.2,0.1-0.4,0.1-0.6c1-2,2.1-4.1,3.2-6.1
			c0.7-1.4,1.3-2.9,2-4.3c0.1-0.2,0.3-0.4,0.4-0.6c0.2-0.3,0.5-0.5,0.5-0.8c0.1-1,0.7-1.7,1.2-2.4c0.2-0.2,0.3-0.5,0.4-0.7
			c1-1.2,0.7-2.6,0.7-4c0-1.7-0.2-3.4-0.2-5.1c0-0.6,0.2-1.2,0.5-1.8c0.1-0.3,0.4-0.5,0.7-0.6c1.2-0.2,2.3-0.7,3.6-0.4
			c1.3,0.3,2.4-0.2,3.2-1.3c0.6-0.8,1.2-1.6,1.8-2.3c0-0.1,0.1-0.1,0.2-0.2c2-1.7,5.8-2.2,8.2-1c1.5,0.8,2.4,1.9,2.6,3.8
			c0.2,2.4-0.4,4.7-1.1,6.9c-0.4,1.2-0.5,2.4-0.6,3.7c0,1,0.1,2,0.2,3c0.1,1-0.1,2-0.1,3.1c0,1,0.1,2.1,0.1,3.1
			c0.1,1.6,0.4,3.2,0.3,4.7c0,1.4,0.3,2.8,0.2,4.3C51.3,84.5,51.6,85.6,51.8,86.9z M42.9,52.6c-0.1,0.1-0.2,0.3-0.3,0.4
			c-0.4,0.3-0.8,0.6-1,0.9c-0.6,0.8-1.1,1.7-1.7,2.5c-1,1.4-1.9,2.8-2.9,4.1c-0.2,0.3-0.4,0.7-0.5,1c-0.2,0.5-0.5,1-0.7,1.4
			c-1.3,1.5-2.2,3.2-3,5c-0.2,0.4-0.4,0.7-0.5,1.1c-0.5,1.2-1.5,2.1-1.5,3.5c-0.1,0.4-0.3,0.8-0.4,1.2c-0.7,0.3-0.7,1-1,1.5
			c-0.7,1.2-1.5,2.3-1.9,3.6c-0.1,0.4-0.4,0.8-0.5,1.2c-0.5,1.2-1.1,2.5-1.5,3.8c-0.3,1.1-0.6,2.3-0.1,3.4c0.6,1.4,1.4,2.6,2.5,3.6
			c0.7,0.6,1.4,0.7,2.2,0.3c0.5-0.3,1-0.6,1.4-0.9c0.4-0.2,0.8-0.4,1.1-0.7c0.3-0.2,0.7-0.4,0.9-0.7c0.5-0.6,0.8-1.6,1.5-2
			c0.8-0.5,1.1-1.2,1.6-1.8c0.3-0.4,0.4-0.8,0.7-1.2c1-1.7,2-3.5,3-5.2c0.2-0.3,0.4-0.6,0.7-0.9c0.1-0.1,0.1-0.1,0.1-0.2
			c0-0.1,0.1-0.2,0.1-0.3c0.5-1,1.1-2,1.6-3c0.6-1.2,1.3-2.3,2-3.5c0.5-0.8,1.3-1.4,1.5-2.4c0.5-0.2,0.5-0.8,0.7-1.2
			c0.7-0.6,0.7-1.6,1.4-2.3c0.6-0.6,0.6-1.8,0.9-2.7c0-0.1,0.1-0.2,0.1-0.3c-0.1-1,0.4-1.9,0.9-2.8c0.9-1.6,0.6-3.4,0.2-5.2
			c-0.2-0.9-0.7-1.3-1.5-1.3l0,0c-0.4-0.1-0.8-0.3-1.2-0.4l0,0c-0.9-0.5-2.3-0.5-3.6,0l0,0c-0.2,0.1-0.3,0.2-0.5,0.3l0,0
			C43.2,52.4,43.1,52.5,42.9,52.6L42.9,52.6z M33.3,60.3c0,0.5-0.1,1.2-0.1,1.8c0,0.2,0.2,0.6,0.3,0.7c0.3,0,0.6-0.1,0.8-0.2
			c0.1-0.1,0.2-0.3,0.3-0.4c0.5-0.9,1-1.7,1.4-2.6c0.2-0.4,0.4-0.9,0.6-1.3c0.1-0.4,0.1-0.8-0.3-0.9c-0.9-0.2-1.8-0.3-2.7,0.1
			c-0.4,0.2-0.6,0.6-0.5,1.1C33.2,59,33.2,59.6,33.3,60.3z"/>
		<path style="fill:#AC9E9A;" d="M75.3,121.1c0.1,0.2,0.1,0.4,0.2,0.6c0.2,0.3,0.6,0.6,0.3,1.1c-0.3-0.3-0.7-0.5-0.9-0.9
			C74.7,121.6,74.6,121.2,75.3,121.1z"/>
		<path style="fill:#1F1916;" d="M85.8,103c-0.4,0.5-0.8,1.1-1.7,0.6C84.7,103.4,85.3,103.2,85.8,103z"/>
		<path style="fill:#AC9E9A;" d="M76.2,123.2c0.6,0.1,0.7,0.3,0.5,0.8C76.3,123.9,76.1,123.6,76.2,123.2z"/>
		<path style="fill:#060505;" d="M92.3,100.2c-0.1,0.2-0.2,0.3-0.3,0.5c-0.1-0.1-0.2-0.1-0.3-0.2C92,100.4,92.1,100.3,92.3,100.2z"
			/>
		<path style="fill:#AC9E9A;" d="M76,120.9c-0.2,0.1-0.3,0.1-0.5,0.2C75.7,121,75.8,121,76,120.9z"/>
		<path style="fill:#0E0A09;" d="M106.5,32.9c0.7,1.7,0.2,3.6,1.5,5.2c0.9-0.5,1.9-1,2.8-1.6c1.1-0.7,1.9-0.8,2.9,0.1
			c0.5,0.5,1.1,0.9,1.6,1.4c0.3,0.2,0.6,0.4,1,0.6c0.1-0.5,0.3-1,0.4-1.5c0.4-1.1,0.9-1.9,2.2-2.3c1.3-0.4,2.6-0.3,3.9-0.3
			c0.7,0,1.4,0.4,2.1,0.5c0.9,0.2,1.8,0.2,2.7,0.4c2.1,0.6,4.2,0.6,6.3,1.1c1.1,0.3,2.1,0.6,3.2,0.9c1,0.3,2,0.5,3,0.7
			c0.2,0,0.4,0,0.6,0.1c1.2,0.5,2.4,0.7,3.6,1c1.4,0.3,2.8,1,4.2,1.5c0.2,0.1,0.4,0.2,0.7,0.2c1.2,0,1.8,0.7,2.3,1.7
			c0.2,0.4,0.5,0.7,0.8,1.1c0.6,0.8,1,1.8,0.9,2.8c-0.1,1.5-1.5,3.8-3.5,4c-1.7,0.2-3.3,0.3-5,0.1c-1.4-0.2-2.9-0.2-4.3-0.4
			c-2.9-0.5-5.7-1.2-8.6-1.8c-0.7-0.1-1.4-0.2-2.1-0.4c-0.8-0.2-1.5-0.4-2.3-0.6c-1.1-0.3-2.1-0.6-3.2-0.8c-2.1-0.3-3.9-1-5.4-2.5
			c-0.9-0.8-1.9-1.6-2.3-2.9c-0.1-0.3-0.5-0.6-0.8-0.9c-1-0.8-2.1-1.5-3.2-2.3c-0.4-0.3-0.7-0.2-1.1,0c-0.9,0.6-1.8,1.2-2.7,1.8
			c-1.1,0.7-1.8,0.4-2.3-0.8c-0.7-1.7-1.1-3.6-1.3-5.4c-0.1-1.1,0.1-1.3,1.2-0.8C106.3,32.9,106.4,32.9,106.5,32.9z M147.9,43
			L147.9,43c-0.3-0.5-0.7-0.5-1.2-0.6c-0.3-0.1-0.6-0.4-1-0.6c-0.4-0.2,0.6-0.2,0.1-0.5c-0.3-0.2-0.6-0.5-1.1-0.3
			c-1.5-0.4-3-0.8-4.5-1.2c-0.7-0.2-1.4-0.3-2.1-0.5c-0.6-0.3-1.3-0.4-1.9-0.6c-1.4-0.4-2.9-0.6-4.4-0.8c-0.4-0.1-0.8-0.1-1.2-0.2
			c-0.3-0.1-0.5-0.1-0.8-0.2c-1.6-0.3-3.2-0.6-4.8-0.8c-1.2-0.2-2.5-0.4-3.7-0.5c-1.4-0.1-2.8,0.8-3.1,1.9c-0.1,0.6-0.2,1.2-0.2,1.8
			c-0.1,1,0.3,1.9,1.2,2.4c0.4,0.2,0.8,0.5,1.1,0.9c0.8,0.9,1.8,1.2,2.9,1.5c1.5,0.3,3.1,0.7,4.6,1.1c0.6,0.2,1.2,0.3,1.8,0.5
			c0.5,0.1,1,0.1,1.5,0.2c1,0.3,2.1,0.6,3.1,0.8c1.3,0.3,2.5,0.4,3.8,0.7c0.4,0.1,0.8,0.2,1.2,0.3l0.1,0c0.3,0,0.6,0.1,1,0.1
			c0.4,0.1,0.8,0.2,1.3,0.3c1.6,0.2,3.2,0.3,4.8,0.4c0.8,0.1,1.6,0.4,2.3-0.2c0.3-0.1,0.6-0.2,0.9-0.3c0.9-0.2,1-1.2,1.5-1.8
			c0.2-0.2-0.1-0.9-0.2-1.3c0-0.2-0.1-0.4-0.2-0.7c-0.1-0.1-0.1-0.2-0.2-0.2c-0.1-0.1-0.1-0.2-0.2-0.3
			C149.7,43.6,148.9,43.2,147.9,43z"/>
		<path style="fill:#060505;" d="M83.8,104.4c0-0.1,0-0.2-0.1-0.3c0.1,0.1,0.1,0.1,0.2,0.2C83.9,104.3,83.9,104.4,83.8,104.4z"/>
		<path style="fill:#F9E4DF;" d="M94,80.5c-1.4,0.6-2.8,0.5-4.3,0c-1.3-0.5-2.6-1.3-4-1.3c-0.2,0-0.3-0.1-0.5-0.1c-1-0.5-2-1-3-1.4
			c0.2-0.7,0.5-1.4,0.7-2.1c0.8-2.2,1.6-4.3,2.4-6.5c0.5,0.1,1.1,0.2,1.6,0.2c0,0,0,0,0,0c0.2,0.1,0.5,0.2,0.7,0.2c0,0,0,0,0,0
			c1.3,1,2.9,1.6,4.5,2.1c1.3,0.4,2.5,1,3.4,2.1c0.9,1,1.3,2.2,0.7,3.4c-0.4,0.8-1,1.4-1.5,2.2C94.6,79.7,94.3,80.1,94,80.5z"/>
		<path style="fill:#F8E4DF;" d="M70,72.9c-2.1-1-4.4-1.7-6.4-3c-0.6-0.4-1.2-0.7-1.9-1c-1.5-0.7-2-2.1-1.9-3.4
			c0.1-1.1,0.9-2.1,2-2.6c0.8-0.4,1.7-0.6,2.6-0.4c1.1,0.3,2.2,0.2,3.3,0.3c0.9,0.1,1.7,0.4,2.5,0.6c1.4,0.4,2.7,0.9,4.1,1.4
			c0,0.4,0,0.7-0.1,1.1c-0.8,2.4-1.7,4.9-3.2,7.1C70.7,72.9,70.3,72.9,70,72.9z"/>
		<path style="fill:#F8E4DF;" d="M76,65.4c0.8,0.3,1.7,0.5,2.5,0.8c2,0.6,3.9,1.3,5.8,1.9c-1.1,3-2.2,5.9-3.3,8.9
			c-0.9-0.2-1.8-0.3-2.7-0.6c-0.2-0.1-0.4-0.2-0.6-0.3c-0.4-0.2-0.7-0.5-1.1-0.6c-0.9-0.3-1.8-0.6-2.6-1.2c-0.5-0.4-1.2-0.4-1.8-0.6
			c1.3-2.4,2.5-4.9,3.3-7.5C75.5,65.8,75.8,65.7,76,65.4z"/>
		<path style="fill:#EEBC9B;" d="M74.4,76c0.3,0.1,0.6,0.1,0.9,0.3c0.9,0.4,1.8,0.8,2.7,1.1c0.5,0.2,0.6,0.4,0.6,0.9
			c0.1,2,0.2,3.9,0.2,5.9c0,0.6-0.3,1.2-0.7,1.7c-0.2,0.3-0.7,0.4-1,0.5c-0.5,0.1-1-0.1-1.5-0.1c-0.4,0-0.8,0-1.4,0.1
			C74.1,83,73.8,79.6,74.4,76z"/>
		<path style="fill:#EEBC9B;" d="M78.4,64.7c-1.4-0.5-2.6-1-3.9-1.4c-0.1-2-0.5-4.2,0.2-6.2c0.7,0,1.4-0.1,2.1-0.1
			c0.8,0,1.4,0.4,1.5,1.2c0.1,0.9,0.1,1.8,0.1,2.7C78.4,62.1,78.4,63.4,78.4,64.7z"/>
		<path style="fill:#AC9E9A;" d="M81,77c1.1-3,2.2-5.9,3.3-8.9c0.3,0.2,0.6,0.3,1,0.5c0,0.1,0,0.3,0,0.4c-0.8,2.2-1.6,4.3-2.4,6.5
			c-0.3,0.7-0.5,1.4-0.7,2.1C81.8,77.4,81.4,77.2,81,77z"/>
		<path style="fill:#AC9E9A;" d="M76,65.4c-0.2,0.2-0.5,0.4-0.6,0.7c-0.8,2.6-2,5.1-3.3,7.5c-0.7-0.2-1.5-0.5-2.2-0.7
			c0.4,0,0.7,0,1-0.1c1.5-2.2,2.4-4.6,3.2-7.1c0.1-0.3,0.1-0.7,0.1-1.1C74.9,65,75.4,65.2,76,65.4z"/>
		<path style="fill:#E9EDE8;" d="M94,80.5c0.3-0.4,0.6-0.8,0.9-1.2c0.5-0.7,1.1-1.4,1.5-2.2c0.6-1.3,0.3-2.4-0.7-3.4
			c-0.9-1-2.1-1.6-3.4-2.1c-1.6-0.5-3.2-1.1-4.5-2.1c0.6,0.2,1.3,0.4,1.9,0.6c0.7,0.3,1.4,0.7,2.1,1c1.2,0.5,2.4,0.9,3.5,1.5
			c1.1,0.6,1.7,1.5,2.1,2.6c0.1,0.2,0.1,0.4,0.1,0.6C97.4,77.5,95.6,80.3,94,80.5z"/>
		<path style="fill:#E9EDE8;" d="M85.4,69.1c0-0.1,0-0.3,0-0.4c0.6,0.2,1.1,0.5,1.7,0.7C86.5,69.2,85.9,69.2,85.4,69.1z"/>
		<path style="fill:#E9EDE8;" d="M87.7,69.6c-0.2-0.1-0.5-0.2-0.7-0.2C87.3,69.4,87.5,69.5,87.7,69.6z"/>
		<path style="fill:#F9E4DF;" d="M40.1,78.7c-1,1.7-2,3.5-3,5.2c-0.2,0.4-0.4,0.9-0.7,1.2c-0.5,0.6-0.8,1.4-1.6,1.8
			c-0.6,0.4-1,1.3-1.5,2c-0.2,0.3-0.6,0.5-0.9,0.7c-0.4,0.2-0.7,0.4-1.1,0.7c-0.5,0.3-0.9,0.6-1.4,0.9c-0.8,0.4-1.6,0.3-2.2-0.3
			c-1.1-1-2-2.2-2.5-3.6C24.7,86.2,25,85,25.3,84c0.4-1.3,1-2.5,1.5-3.8c0.2-0.4,0.4-0.8,0.5-1.2c0.4-1.3,1.2-2.5,1.9-3.6
			c0.3-0.5,0.3-1.3,1-1.5c1.3,0.6,2.6,1.1,3.9,1.8C36.1,76.6,38.1,77.6,40.1,78.7z"/>
		<path style="fill:#F9E4DF;" d="M36.4,61.6c0.2-0.3,0.3-0.7,0.5-1c1-1.4,1.9-2.8,2.9-4.1c0.6-0.8,1.1-1.7,1.7-2.5
			c0.3-0.4,0.7-0.6,1-0.9c0.1-0.1,0.2-0.3,0.3-0.4c0,0,0.1-0.1,0.1-0.1c0.1-0.1,0.3-0.2,0.4-0.3c0,0,0,0,0,0
			c0.2-0.1,0.3-0.2,0.5-0.3c0,0,0,0,0,0c1.2,0,2.4,0,3.6,0c0,0,0,0,0,0c0.3,0.6,0.7,0.5,1.2,0.4c0,0,0,0,0,0c0.5,1,0.9,2,1,3.1
			c0.1,1.1,0,2.2-0.5,3.2c-0.3,0.5-0.6,1-0.7,1.5c-0.2,0.7-0.1,1.5-0.3,2.2c-0.2,0.8-0.4,1.8-0.9,2.4c-0.5,0.6-0.8,1.2-1,2
			c-2.9-1.4-5.9-2.9-8.8-4.3C37,62.4,36.4,62.2,36.4,61.6z"/>
		<path style="fill:#F9E4DF;" d="M30.6,72.7c0-1.4,1-2.4,1.5-3.5c0.2-0.4,0.4-0.7,0.5-1.1c0.8-1.8,1.7-3.5,3-5
			c1.7,0.8,3.3,1.7,5,2.5c1.6,0.8,3.1,1.6,4.6,2.4c-0.1,0.4-0.1,1-0.4,1.3c-1.2,1.4-2.1,2.9-2.8,4.6c-0.4,1-1.1,1.9-1.6,2.9
			c-0.1,0.2-0.4,0.4-0.6,0.6c-0.3-0.2-0.6-0.3-1-0.5C36.1,75.4,33.3,74,30.6,72.7z"/>
		<path style="fill:#AC9E9A;" d="M45.3,67.9c-1.5-0.8-3.1-1.6-4.6-2.4c-1.7-0.8-3.3-1.7-5-2.5c0.2-0.5,0.5-1,0.7-1.4
			c0,0.6,0.6,0.8,1,1c2.9,1.4,5.9,2.9,8.8,4.3c0.2,0.1,0.3,0.2,0.5,0.2c-0.2,0.4-0.2,1-0.7,1.2C45.8,68.2,45.5,68.1,45.3,67.9z"/>
		<path style="fill:#EEBC9B;" d="M33.3,60.3c-0.1-0.7-0.1-1.2-0.1-1.8c0-0.5,0.1-0.9,0.5-1.1c0.9-0.4,1.8-0.3,2.7-0.1
			c0.4,0.1,0.5,0.5,0.3,0.9c-0.2,0.4-0.4,0.9-0.6,1.3c-0.5,0.9-0.9,1.7-1.4,2.6c-0.1,0.1-0.1,0.3-0.3,0.4c-0.3,0.1-0.6,0.3-0.8,0.2
			c-0.2,0-0.3-0.4-0.3-0.7C33.2,61.4,33.2,60.8,33.3,60.3z"/>
		<path style="fill:#AC9E9A;" d="M30.6,72.7c2.8,1.4,5.5,2.7,8.3,4.1c0.3,0.2,0.6,0.3,1,0.5c0.3,0.2,0.6,0.4,1,0.6
			c-0.2,0.3-0.4,0.6-0.7,0.9c-2-1-4-2.1-6.1-3.1c-1.3-0.6-2.6-1.2-3.9-1.8C30.3,73.4,30.4,73.1,30.6,72.7z"/>
		<path style="fill:#E9EDE8;" d="M46.8,67.2c-0.2-0.1-0.3-0.2-0.5-0.2c0.2-0.7,0.5-1.3,1-2c0.5-0.6,0.7-1.6,0.9-2.4
			c0.2-0.7,0.1-1.5,0.3-2.2c0.1-0.5,0.5-1,0.7-1.5c0.5-1,0.6-2,0.5-3.2c-0.1-1.2-0.4-2.1-1-3.1c0.9,0,1.3,0.4,1.5,1.3
			c0.4,1.8,0.7,3.5-0.2,5.2c-0.5,0.9-0.9,1.8-0.9,2.8c0,0.1,0,0.2-0.1,0.3c-0.3,0.9-0.3,2-0.9,2.7C47.5,65.5,47.5,66.5,46.8,67.2z"
			/>
		<path style="fill:#F7E3DE;" d="M40.8,77.8c-0.3-0.2-0.6-0.4-1-0.6c0.2-0.2,0.5-0.3,0.6-0.6c0.6-0.9,1.2-1.9,1.6-2.9
			c0.7-1.7,1.6-3.2,2.8-4.6c0.3-0.3,0.3-0.9,0.4-1.3c0.2,0.2,0.5,0.3,0.7,0.5c-0.2,1-1,1.6-1.5,2.4c-0.7,1.1-1.3,2.3-2,3.5
			c-0.6,1-1.1,2-1.6,3c0,0.1-0.1,0.2-0.1,0.3C40.9,77.6,40.8,77.7,40.8,77.8z"/>
		<path style="fill:#E9EDE8;" d="M47.4,52c-1.2,0-2.4,0-3.6,0C45.1,51.5,46.6,51.5,47.4,52z"/>
		<path style="fill:#E9EDE8;" d="M48.7,52.5c-0.5,0-1,0.1-1.2-0.4C47.9,52.2,48.3,52.4,48.7,52.5z"/>
		<path style="fill:#E9EDE8;" d="M43.8,52c-0.2,0.1-0.3,0.2-0.5,0.3C43.5,52.2,43.7,52.1,43.8,52z"/>
		<path style="fill:#E9EDE8;" d="M43.4,52.3c-0.1,0.1-0.3,0.2-0.4,0.3C43.1,52.5,43.2,52.4,43.4,52.3z"/>
		<path style="fill:#E9EDE8;" d="M42.9,52.6c-0.1,0.1-0.2,0.3-0.3,0.4C42.7,52.9,42.8,52.7,42.9,52.6z"/>
		<path style="fill:#AC9E9A;" d="M40.9,77.6c0-0.1,0.1-0.2,0.1-0.3C40.9,77.3,40.9,77.4,40.9,77.6z"/>
		<path style="fill:#F7E3DE;" d="M129.7,46.3c-0.6-0.2-1.2-0.4-1.8-0.5c-1.5-0.4-3-0.8-4.6-1.1c-1.1-0.2-2.1-0.6-2.9-1.5
			c-0.3-0.3-0.7-0.6-1.1-0.9c-0.9-0.6-1.3-1.4-1.2-2.4c0-0.6,0.1-1.2,0.2-1.8c0.3-1.2,1.7-2.1,3.1-1.9c1.3,0.1,2.5,0.3,3.7,0.5
			c1.6,0.2,3.2,0.5,4.8,0.8c0.3,0,0.5,0.1,0.8,0.2c-0.1,0.4-0.2,0.8-0.2,1.2c-0.1,1.6-0.2,3.2-0.3,4.7
			C130.1,44.5,129.8,45.4,129.7,46.3z"/>
		<path style="fill:#F8E4DF;" d="M140.3,39.8c1.5,0.4,3,0.8,4.5,1.2c0.2,0.4,0.3,0.9,0.6,1.1c0.8,0.4,1.6,0.6,2.5,0.8c0,0,0,0,0,0
			c0.4,0.8,1.3,0.8,1.9,1.2c0.1,0.2,0,0.5,0.2,0.7c0.6,1,0.4,1.9-0.2,2.7c-0.3,0.5-0.8,0.9-1.2,1.3c-0.7,0.5-1.5,0.2-2.3,0.2
			c-1.6-0.2-3.2-0.3-4.8-0.4c-0.4,0-0.8-0.2-1.3-0.3c-0.3,0-0.6-0.1-1-0.1c0,0-0.1,0-0.1,0c0.1-2.8,0.3-5.5,0.4-8.3
			C139.9,39.9,140.1,39.8,140.3,39.8z"/>
		<path style="fill:#F8E4DF;" d="M138.1,47.9c-1.3-0.2-2.6-0.4-3.8-0.7c-1-0.2-2.1-0.5-3.1-0.8c0.1-1.6,0.2-3.2,0.3-4.7
			c0.1-1.3,0.3-2.6,0.4-3.9c1.5,0.3,3,0.4,4.4,0.8c0.6,0.2,1.3,0.3,1.9,0.6c0.1,0.6,0.3,1.2,0.2,1.8
			C138.3,43.4,138.2,45.7,138.1,47.9z"/>
		<path style="fill:#AC9E9A;" d="M138.1,47.9c0.1-2.3,0.2-4.5,0.3-6.8c0-0.6-0.2-1.2-0.2-1.8c0.7,0.2,1.4,0.3,2.1,0.5
			c-0.2,0-0.4,0.1-0.6,0.1c-0.1,2.8-0.3,5.6-0.4,8.3C138.9,48.1,138.5,48,138.1,47.9z"/>
		<path style="fill:#AC9E9A;" d="M131.8,37.9c-0.1,1.3-0.3,2.6-0.4,3.9c-0.1,1.6-0.2,3.2-0.3,4.7c-0.5-0.1-1-0.1-1.5-0.2
			c0.2-0.9,0.4-1.8,0.5-2.7c0.1-1.6,0.2-3.2,0.3-4.7c0-0.4,0.1-0.8,0.2-1.2C131.1,37.7,131.5,37.8,131.8,37.9z"/>
		<path style="fill:#F7D8C3;" d="M148.6,48.9c0.4-0.4,0.8-0.8,1.2-1.3c0.6-0.9,0.8-1.8,0.2-2.7c-0.1-0.2-0.1-0.5-0.2-0.7
			c0.2,0.1,0.4,0.1,0.5,0.2c0.1,0.1,0.1,0.2,0.2,0.3c0.1,0.1,0.1,0.2,0.2,0.2c0.1,0.2,0.1,0.4,0.2,0.7c0.1,0.4,0.4,1.1,0.2,1.3
			c-0.5,0.6-0.6,1.6-1.5,1.8C149.2,48.7,148.9,48.8,148.6,48.9z"/>
		<path style="fill:#E9EDE8;" d="M147.9,42.9c-0.8-0.3-1.7-0.5-2.5-0.8c-0.3-0.2-0.4-0.7-0.6-1.1c0.4-0.2,0.7,0.1,1.1,0.3
			c0.5,0.3-0.5,0.2-0.1,0.5c0.3,0.2,0.6,0.4,1,0.6C147.2,42.4,147.7,42.4,147.9,42.9z"/>
		<path style="fill:#E9EDE8;" d="M150.4,44.4c-0.2-0.1-0.4-0.1-0.5-0.2c-0.7-0.4-1.5-0.4-1.9-1.2C148.9,43.2,149.7,43.6,150.4,44.4z
			"/>
		<path style="fill:#AC9E9A;" d="M139.3,48.3c0.3,0,0.6,0.1,1,0.1C139.9,48.3,139.6,48.3,139.3,48.3z"/>
		<path style="fill:#E9EDE8;" d="M150.7,44.9c-0.1-0.1-0.1-0.2-0.2-0.2C150.6,44.7,150.7,44.8,150.7,44.9z"/>
	</g>
</g>
</svg>
