<?xml version="1.0" encoding="utf-8"?>
<!-- Generator: Adobe Illustrator 24.0.0, SVG Export Plug-In . SVG Version: 6.00 Build 0)  -->
<svg version="1.1" id="Layer_1" xmlns="http://www.w3.org/2000/svg" xmlns:xlink="http://www.w3.org/1999/xlink" x="0px" y="0px"
	 viewBox="0 0 302 212" style="enable-background:new 0 0 302 212;" xml:space="preserve">
<g id="gdaX2F.tif">
	<g>
		<path style="fill:#060505;" d="M65.1,84.5c0-0.1,0-0.1,0.1-0.2c0.4-0.1,0.9-0.2,1.3-0.2c0.6,0,1.1,0.1,1.7,0.1c10,0,20.1,0,30.1,0
			c0.3,0,0.6,0,0.8,0c0.1,0,0.2-0.3,0.4-0.4c0.1-0.2,0.1-0.3,0.2-0.5c0.3-0.2,0.3-0.4,0-0.5c0-0.2-0.1-0.3-0.1-0.5
			c0.3-1.8,0.6-3.6,0.8-5.5c0-0.2-0.3-0.3-0.4-0.5c0-0.2,0-0.5,0-0.7c0.2-0.9,1-1.7,0.6-2.8c-0.2,0-0.3-0.1-0.5-0.1
			c-2.5,0-4.9,0-7.4,0c-0.2,0-0.4,0.1-0.7,0.2c-0.6,0-1.3,0-1.9,0c-0.4-0.1-0.8-0.2-1.1-0.2c-0.6,0-1.3,0.1-1.9,0.1
			c-1.7,0-3.4,0-5.2,0.1c-0.4,0-0.8,0.1-1.1,0.2c-0.7,0-1.4,0-2.2,0c-0.1-0.1-0.2-0.2-0.3-0.2c-2.2,0-4.3,0.1-6.5,0.2
			c-0.1-0.2-0.2-0.4-0.3-0.7c1,0,2,0,3,0c0.3,0,0.7-0.2,1-0.2c0,0,0,0,0,0c0.4,0,0.8,0,1.2,0c3.8-0.1,7.6-0.2,11.4-0.2
			c3.3,0,6.7,0,10-0.1c1,0,2-0.1,3-0.2c0.3,0,0.5-0.3,0.8-0.5c0,0,0,0,0,0c0.2-0.2,0.3-0.5,0.5-0.7c0,0,0,0,0,0
			c0.1-0.1,0.2-0.2,0.2-0.2c0,0,0,0,0,0c0.4-0.2,0.8-0.4,0.7-0.9c0-0.1,0-0.2,0-0.3c0.2-0.6,0.5-1.1,0.7-1.7
			c0.2-0.2,0.3-0.3,0.5-0.5c0.1-0.2,0.2-0.3,0.2-0.5c0.1-0.1,0.2-0.2,0.2-0.2c0.1-0.1,0.2-0.2,0.2-0.2c0.1-0.1,0.2-0.2,0.2-0.2
			c0.1-0.1,0.2-0.2,0.2-0.2c0,0,0.1-0.1,0.1-0.1c0,0-0.1,0.1-0.1,0.1c-0.1,0.1-0.2,0.2-0.2,0.2c-0.1,0.1-0.2,0.2-0.2,0.2
			c-0.1,0.1-0.2,0.2-0.2,0.2c-0.1,0.1-0.2,0.2-0.2,0.2c-0.1,0.2-0.2,0.3-0.2,0.5c-0.2,0.2-0.3,0.3-0.5,0.5c-0.1,0-0.3,0.1-0.4,0.1
			c0.1-0.3,0.1-0.5,0.1-0.7c0.4-0.5,0.7-1.1,1.1-1.5c1-1.1,2-2.1,3.1-3.4c-0.5,0-0.9,0-1.3,0c-4.5,0-9.1,0.1-13.6,0.1
			c-0.7,0-1.5-0.3-2.2-0.3c-1,0-2.1,0-3.1,0c-1.4,0-2.7,0-4.1,0c-0.4,0-1.1,0.2-1.1-0.5c0-0.7,0.7-0.6,1.1-0.6
			c1.2,0,2.4-0.1,3.6-0.1c2.6,0,5.3,0,7.9,0.1c0.6,0,1.3,0,1.9,0c2.4,0,4.8,0,7.1,0c1.2,0,2.4-0.1,3.6,0c1.8,0.2,3.7-0.7,5-1.6
			c0.9-0.6,1.8-1.1,2.8-1.2c0.3,0,0.6-0.2,0.9-0.3c0.8-0.3,1.7-0.6,2.4-0.9c0.5-0.2,1.1-0.5,1.5-0.9c0.8-0.9,1.4-1.8,2.2-2.8
			c0.1-0.1,0.1-0.2,0.2-0.3c0.9-0.4,1.3-1.2,1.9-1.9c1.1-1.1,2.4-2.1,3.8-2.7c2.3-1,4.6-1.9,7-2.9c2.5-1,5.2-1.4,7.9-1.7
			c2.2-0.2,4.4-0.4,6.6-0.4c1.9,0,3.7,0.3,5.6,0.6c1.5,0.3,2.9,0.9,4.3,1.4c1.2,0.4,2.3,1,3.3,1.9c1.1,0.9,1.9,2.1,2.7,3.3
			c1.3,1.8,2.6,3.7,3.8,5.5c2.5,0,4.7-0.4,7-0.8c2.2-0.3,4.5-0.3,6.5,0.8c1,0.5,1.8,1.4,2.6,2.2c0.7,0.7,1.4,1.4,1.9,2.2
			c0.5,0.7,0.8,1.5,1.2,2.3c0.2,0.4,0.2,0.8,0.4,1.3c0.4,0,0.8,0,1.2,0c3.5,0,6.9-0.1,10.4-0.1c3.9-0.1,7.9-0.1,11.8-0.2
			c1.6,0,3.2-0.1,4.8-0.2c0.5,0,1,0,1.4,0.2c0.2,0,0.4,0.4,0.4,0.5c0,0.2-0.3,0.4-0.4,0.4c-0.3,0.1-0.7,0.1-1.1,0.1
			c-8.9,0.1-17.7,0.3-26.6,0.4c-0.4,0-0.9,0-1.4,0c0.2,1.4,0.4,2.8,0.7,4.1c0.2,0.7,0.2,1.4,0.2,2.2c-0.1,1.1-0.3,2.3,0.5,3.3
			c13.1,0.3,26.2,0.1,39.3,0.3c0.1,0.8-0.2,1.1-0.9,1.1c-1.1,0-2.2,0-3.2,0c-8.1,0-16.2,0-24.3,0c-2.1,0-4.1-0.1-6.2-0.1
			c-0.3,0-0.6,0.1-0.9,0.2c1.3,0.6,2.4,1.4,3.3,2.5c0.5,0.6,0.9,1.2,1.3,1.8c0.4,0.7,0.7,1.5,1.1,2.2c0.6,1.1,0.9,2.3,1,3.5
			c0.1,0.8,0.3,1,1.1,1c1.2,0,2.5-0.2,3.7-0.2c6.6-0.1,13.3-0.1,19.9-0.2c3.1-0.1,6.2-0.2,9.2-0.3c0.7,0,1.4,0,1.6,1.1
			c-0.4,0.1-0.8,0.1-1.3,0.1c-3.2,0-6.3,0.1-9.5,0.1c-8.1,0.1-16.1,0.3-24.2,0.4c-0.2,0-0.3,0-0.6,0.1c0.1,1.5-0.3,2.9,0,4.4
			c0.2,1.2,0.5,2.3,0.7,3.5c0.1,0.3,0.1,0.7,0.1,1.1c0,0.8,0.2,1,0.9,1c3,0,6,0,9-0.1c2.8,0,5.5,0,8.3-0.1c4.4,0,8.8-0.1,13.2-0.1
			c0.5,0,1-0.1,1.6-0.1c0.4,0,0.8,0,0.8,0.5c0,0.5-0.3,0.6-0.7,0.7c-0.3,0.1-0.6,0.1-1,0.1c-3,0-5.9-0.2-8.9-0.1
			c-6.3,0.1-12.6,0.2-18.8,0.3c-1.3,0-2.6,0-4.1,0c-0.1,0.8-0.3,1.6-0.4,2.5c-0.1,0.7-0.1,1.5,0.1,2.2c0.2,0.9,0,2-0.1,3
			c-0.1,0.6,0.1,1.4-0.7,1.8c-0.1,0-0.1,0.1-0.1,0.2c-0.2,1.2-0.4,2.4-0.7,3.8c8.9-0.1,17.8-0.3,26.6-0.4c8.8-0.1,17.7-0.4,26.6-0.4
			c-0.4,0.8-0.9,1.1-1.7,1.1c-5.3,0.1-10.6,0.2-15.9,0.3c-2.6,0-5.2,0.1-7.8,0.1c-9,0.1-18,0.3-27,0.4c-0.3,0-0.6,0-1.1,0.1
			c-0.4,3.4-0.8,6.8-1.2,10.1c9.5-0.1,18.9-0.2,28.3-0.4c9.4-0.1,18.8-0.3,28.3-0.4c-0.3,0.9-0.8,1.1-1.6,1.1
			c-5.4,0.1-10.9,0.2-16.3,0.3c-2.2,0-4.5,0.1-6.7,0.1c-10.5,0.1-21.1,0.3-31.6,0.4c-0.1,0-0.2,0-0.2,0c-0.6,0.9-1.1,1.7-1.6,2.6
			c-0.3,0.4-0.6,0.7-0.9,1.1c-0.3,0.3-0.5,0.7-0.8,1c-0.6,0.5-1.4,0.9-2,1.4c-1.1,0.9-2.1,1.9-3.1,2.8c-1.3,0.6-2.7,1.1-4,1.7
			c0,0.1,0,0.1,0.1,0.2c12-0.1,23.9-0.2,35.9-0.4c12-0.2,23.9-0.6,35.9-0.5c-0.3,0.8-0.8,1-1.5,1c-5.4,0.1-10.9,0.2-16.3,0.3
			c-6.5,0.1-13,0.1-19.5,0.2c-6.8,0.1-13.6,0.2-20.4,0.3c-5.2,0.1-10.4,0.1-15.6,0.1c-1.2,0-2.3,0.2-3.3,0.9
			c-0.5,0.4-1.2,0.5-1.7,0.7c-0.1,0.1-0.2,0.1-0.2,0.2c0,0,0,0,0,0c-0.1,0-0.2,0-0.4,0c-1.6,0.4-3.3,0.4-4.9,0.3
			c-0.4,0-0.7,0.1-0.6,0.5c0.1,0.5,0.3,0.9,0.4,1.3c0.1,0.5,0.2,0.9,0.2,1.4c0.1,0.8,0.5,1.9,1,2.7c0.1,0.1,0.1,0.4,0.1,0.6
			c0.1,0.5,0.2,1.1,0.3,1.6c0.1,0.1,0.1,0.2,0.2,0.2c0.2,0.3,0.4,0.7,0.5,1c0,0.1,0.1,0.1,0.1,0.2c0,0.1,0.1,0.2,0.1,0.2
			c0.3,0.7,0.6,1.3,1.4,1.5c0,0,0,0,0,0c0.1,0.1,0.2,0.1,0.3,0.2c0,0,0,0,0,0c0.1,0.1,0.3,0.2,0.4,0.3l0.1,0c0,0,0,0.1,0,0.1
			c0.1,0.1,0.2,0.1,0.2,0.2c0.2,0.1,0.4,0.2,0.6,0.4c1.1,0.7,1.9,1.5,3.3,1.8c1.4,0.3,2.7,1,4.1,1.5c0.9,0.3,1.8,0.5,2.8,0.6
			c2.3,0.4,4.6,1,6.8,1.6c1.6,0.4,3.1,1.1,4.5,2c0.3,0.2,0.6,0.3,0.9,0.4c0.5,0.2,1,0.4,1.5,0.6c0.5,0.3,0.9,0.5,1.4,0.8
			c0.6,0.4,1.1,1,1.9,0.9c0.5,0.2,1,0.3,1.5,0.5c1.8,0.9,3.5,1.8,5.3,2.6c0.2,0.1,0.5,0.2,0.7,0.4c1.6,1.2,3.3,2.1,5,3.1
			c1.3,0.8,2.4,1.7,3.7,2.6c0.7,0.4,1.4,0.8,2.2,1.2c0.7,0.4,1.5,0.8,2.2,1.2c1.1,0.6,2.3,1.3,3.4,2c1.1,0.7,2.2,1.5,3.3,2.3
			c0.6,0.5,1.4,0.8,1.7,1.6c0.2,0.5,0.5,1.1,0.8,1.6c2.1,4,3.6,8.2,4.5,12.6c0.3,1.6,0.3,3.3,0.4,5c0,1.3-1,1.9-2.3,1.5
			c-0.2-1.6-0.3-3.2-0.5-4.8c-0.2-1.3-0.3-2.7-0.6-4c-0.2-1.2-0.7-2.3-1-3.4c-1.3-4.2-3.5-7.6-7.4-9.8c-3.1-1.8-6.3-3.7-9.4-5.5
			c-2.2-1.3-4.3-2.7-6.5-3.9c-2-1.1-4-2.2-6-3.1c-3.5-1.6-7-3.4-10.6-4.7c-1.9-0.7-3.6-1.5-5.6-1.9c-1.7-0.4-3.5-0.8-5.2-1.1
			c-0.5-0.5-1.2-0.6-2-0.8c0.1,0.5,0.3,0.9,0.3,1.3c0.1,0.4,0.1,0.9,0,1.3c-0.2,1.3-0.4,2.1-2,2.6c-1.6,0.4-3,0.3-4.2-0.7
			c-0.8-0.7-1.6-1.6-1.4-2.8c0.3-1.5,0.8-2.9,2.1-3.9c0.2-0.2,0.3-0.5,0.5-0.7c-0.1-0.2-0.2-0.4-0.4-0.5c-0.6-0.3-1.3-0.5-1.9-0.9
			c-0.9-0.6-1.7-0.6-2.6-0.1c-0.3,0.2-0.6,0.6-0.9,0.7c-1.8,0.6-3.1,2-4.8,2.8c-0.9,0.4-1.6,1.2-2.5,1.6c-0.8,0.4-1.8,0.5-2.7,0.7
			c-1.3,0.3-2.7,0.7-4,1.1c-0.1,0-0.1,0.1-0.2,0.1c-0.5,0-1.1,0.1-1.6,0.1c-0.2,0-0.3,0-0.5,0c0,0,0,0,0,0c-0.4,0.1-0.8,0.2-1.2,0.2
			c0,0,0,0,0,0c-0.7,0.1-1.4,0.2-2.1,0.2c-0.2,0-0.5,0-0.7,0c-0.2-0.1-0.4-0.2-0.5-0.2c-1.4-0.1-2.9-0.2-4.3-0.2
			c-1.2,0-2.4,0.1-3.6-0.1c-4.1-0.7-8.1-1.6-12-3.1c-0.7-0.3-1.4-0.5-2.1-0.7c-0.2-0.1-0.4-0.2-0.7-0.4c-0.4-0.3-0.7-0.7-1.1-1
			c-1.5-0.9-2.9-1.9-4.1-3.2c-0.2-0.2-0.4-0.4-0.6-0.6c-0.9-0.7-1.9-0.4-2.4,0.6c-0.1,0.3-0.2,0.6-0.3,1.1c0.6,0.4,1.1,0.9,1.7,1.3
			c0.1,0.4,0.3,0.8,0.4,1.2c-0.4,0.7-0.9,1.5-1.3,2.2c0.4,0,0.7-0.2,1-0.2c0.4-0.1,1-0.3,1.2-0.1c1.5,1.2,2.6,2.7,3.1,4.5
			c0,0,0,0.1,0,0.1c0,0.5,0.1,1,0,1.4c-0.1,0.5-0.3,0.9-0.5,1.4c0.5,0,0.9,0,1.3,0c1.3,0.1,2.6,0.4,3.3,1.6c0.5,0.9,0.9,1.9,1.2,2.9
			c0.4,1.3-0.1,2.6-0.9,3.6c-0.6,0.8-1.6,1.2-2.7,1.3c-0.6,0.1-1.3,0-1.9,0c-1.3,0-2.6-0.2-3.5-1.3c-0.1-0.1-0.3-0.2-0.4-0.3
			c-1.1-0.6-1.5-1.6-1.1-2.8c0.3-0.9,0.6-1.7,0.9-2.5c-1.1-0.5-2.2-0.8-3.2-1.4c-1-0.6-1.8-1.4-2.6-2c0.2-1.8,0.9-3.2,2.4-4.5
			c-1.5-0.2-2.7-0.4-3.9-0.6c-0.7-0.9-1.7-1.4-2.1-2.5c-1.2,0.4-2.3,0.8-3.4,1.3c-0.4,0.2-0.7,0.7-1,0.9c-1.7,0.9-3.4,1.9-5.2,2.7
			c-4.5,2.1-8.8,4.5-13,7c-1,0.6-2,1.2-3,1.8c-2.3,1.4-4.6,2.8-7,4c-1.4,0.7-2.7,1.3-4,2.1c-0.8,0.4-1.5,0.9-2.2,1.4
			c-0.6,0.4-1.1,0.9-1.7,1.2c-2,1.1-3.8,2.6-5.3,4.3c-0.2,0.2-0.3,0.3-0.4,0.5c-1.1,2.2-2.3,4.4-3.3,6.6c-1.3,3.1-2.4,6.3-2.7,9.8
			c-0.1,0.7-0.2,1.3-0.3,2c-0.3,0.2-0.5,0.4-0.8,0.5c-0.9,0.2-1.5-0.2-1.5-1.1c0-0.8-0.1-1.5,0.1-2.3c0.2-1.2,0.2-2.4,0.8-3.6
			c0.5-1.1,0.7-2.3,1.1-3.5c1.1-3.7,2.9-7,5.2-10c1.1-1.5,2.6-2.5,4.1-3.5c3-2.1,6.2-4,9.2-6c1.5-1,3-2.1,4.6-3
			c0.6-0.4,1.4-0.6,2.1-0.9c1.2-0.6,2.4-1.3,3.6-1.9c0.3-0.2,0.6-0.4,0.9-0.5c3.8-2.1,7.6-4.2,11.5-6.2c2.1-1.1,4.2-2.1,6.3-3.1
			c0.9-0.4,1.7-0.9,2.6-1.4c0.1-0.1,0.3-0.1,0.3-0.2c0.1-1.1,1.1-1,1.8-1.3c1.2-0.5,2.5-0.8,3.7-1.2c0.3-0.1,0.5-0.3,0.8-0.5
			c1-0.6,2-1.2,3.1-1.8c1.4-0.7,2.6-1.8,4.1-2.9c-0.5-0.1-0.7-0.2-0.9-0.2c-3.6,0-7.3,0-10.9,0c-6.6,0.1-13.1,0.2-19.7,0.2
			c-2.5,0-5,0-7.5,0c-7,0-14,0.1-21,0.1c-3.4,0-6.7,0-10.1,0c-0.6,0-1.1,0.1-1.7,0.1c-0.8,0.1-0.8,0.1-1.3-0.9
			c0.4-0.1,0.8,0.2,1.2-0.2c0.1-0.1,0.4-0.1,0.7-0.1c1.9,0,3.9-0.1,5.8-0.1c2.1,0,4.2,0.1,6.3,0.2c1.9,0,3.8-0.2,5.7-0.2
			c4.8,0,9.7,0.1,14.5,0.1c2.2,0,4.5-0.2,6.7-0.2c3.9,0,7.8,0,11.7,0c6.4,0,12.9,0,19.3,0c0.4,0,0.8-0.1,1.2-0.1
			c-0.3-2.5-0.6-4.9-0.9-7.3c-1,0.2-1.9,0.3-2.9,0.5c-2.3,0.4-4.7,0.5-7,0.3c-1.3-0.1-2.5-0.6-3.7-1.3c-1-0.6-2-1.2-2.9-1.8
			c-0.5-0.3-1-0.7-1.3-1.2c-0.4-0.5-0.8-0.6-1.3-0.6c-1.2,0-2.3,0.1-3.5,0.1c-6.1,0-12.2,0-18.2,0c-4.2,0-8.4,0-12.6,0
			c-6.9,0.1-13.7,0.2-20.6,0.2c-1.8,0-3.5-0.1-5.3-0.1c-0.7,0-1.1-0.2-1.4-0.9c0.3-0.1,0.6-0.1,0.9-0.2c2.6,0,5.3,0,7.9,0
			c5.9,0,11.7,0,17.6,0c6.5,0,13,0,19.4,0c4.9,0,9.7-0.1,14.6-0.2c0.3,0,0.6,0,1-0.1c-0.3-1.1-0.6-2.1-0.8-3.1
			c-0.1-0.4-0.2-0.9-0.1-1.4c0.1-1,0.4-2,0.5-3c0.2-1.8-1.4-3.2-3.2-3.1c-0.8,0.1-1.6,0-2.4,0c-8.3,0-16.6,0-24.9,0
			c-6.7,0-13.3,0.2-20,0.2c-2.1,0-4.2-0.1-6.2-0.1c-0.7,0-1-0.4-1.4-1c0.5,0,0.8-0.1,1.2-0.1c1.4,0,2.8-0.1,4.2-0.1
			c2.4,0,4.7,0.1,7.1,0.1c1.4,0,2.7-0.1,4.1-0.1c5.4,0,10.8,0.1,16.2,0.1c4.1,0,8.1-0.1,12.2-0.2c3.1,0,6.1,0,9.2,0
			c0.2,0,0.4,0,0.8,0c-0.9-1.2-1.3-2.4-1.6-3.7c-0.3-1.4-0.8-2.9,0.1-4.3c0.3-0.5,0.1-1.3,0.1-2c-1.1-0.1-2.2-0.1-3.2-0.2
			c-6.7,0-13.4,0-20,0c-6.8,0-13.6,0.2-20.4,0.2c-2.2,0-4.5-0.1-6.7-0.1c-0.7,0-1.1-0.3-1.4-1c0.3,0,0.5-0.1,0.8-0.1
			c2.2,0,4.4-0.1,6.6-0.1c3.8,0,7.6,0,11.4,0c7.8,0,15.6,0,23.4,0c2.9,0,5.8,0,8.6,0c0.9,0,1.7-0.2,2.6-0.3c0.5-0.1,0.9-0.3,1-0.9
			c0.1-0.6-0.3-0.9-0.7-1.1c-0.9-0.5-1.8-1-2.5-1.6c-0.6-0.5-1.1-1.2-1.5-1.9c-0.5-0.9-0.9-1.8-1.2-2.7c-0.2-0.7-0.2-1.4-0.3-2.2
			c0-0.9,0-1.7,0-2.7c-1.4,0-2.7,0-4,0c-7.6,0.1-15.3,0.1-22.9,0.2c-0.8,0-1.7,0.1-2.5,0.1c-0.5,0-1-0.1-1-1c0.5,0,0.9-0.1,1.4-0.1
			c6.4-0.1,12.7-0.1,19.1-0.2c3.1,0,6.2-0.1,9.2-0.1c1.2,0,1.2-0.1,1.3-1.2c0.1-1,0.2-2,0.4-2.9c0.2-0.7,0.6-1.4,1-2.1
			c-0.9-1.1-1-2.4-0.5-3.8c-0.6,0-1.2,0-1.7,0c-4.6,0-9.1,0.1-13.7,0.1c-5.4,0-10.9,0-16.3-0.1c-0.4,0-0.8-0.1-1.2-0.1
			C65.1,84.8,65.1,84.6,65.1,84.5z M112.6,60.3c0.1-0.1,0.2-0.2,0.2-0.2c0,0,0.1-0.1,0.1-0.1c0,0-0.1,0.1-0.1,0.1
			C112.8,60.1,112.7,60.2,112.6,60.3C112.6,60.3,112.6,60.3,112.6,60.3C112.6,60.4,112.6,60.3,112.6,60.3z M106.4,64.6
			c0,0.1-0.1,0.2-0.1,0.3C106.3,64.8,106.3,64.7,106.4,64.6c0,0,0-0.1,0.1-0.1C106.4,64.5,106.4,64.6,106.4,64.6z M145.9,106.5
			C145.9,106.5,145.9,106.6,145.9,106.5c-0.1,0.3-0.1,0.5-0.2,0.8c-0.1,0.4-0.2,0.8-0.3,1.2c-0.1,0.1-0.1,0.2-0.2,0.3
			c-0.2,0.5-0.3,0.9-0.5,1.4c-1.1,1.5-2.4,2.6-4,3.5c-0.1,0.1-0.3,0.1-0.4,0.3c-0.2,0.7-0.8,0.8-1.3,1.1c-1,0.6-2.1,0.8-3.2,0.9
			c-0.8,0.1-1.7,0-2.5-0.1c-1-0.2-2.1-0.5-3.1-0.8c-0.4-0.1-0.9-0.6-1.3-0.5c-0.7,0.1-1-0.3-1.4-0.6c-0.3-0.2-0.6-0.4-0.9-0.6
			c-1.2-0.8-2.4-1.6-3.3-2.8c-1-1.2-1.5-2.6-1.7-4.1c-0.1-0.9,0-1.9,0-2.9c-0.3,0.1-0.5,0.1-0.6,0.1c-1,0.6-2.1,0.7-3.3,0.7
			c-1.3,0.1-2.1-0.5-2.8-1.5c-0.5-0.6-0.7-0.7-1.4-0.3c-0.6,0.4-1.2,0.9-1.8,1.3c-0.4,0.3-0.7,0.6-0.9,1.1c-0.7,1.3-1.1,2.6-0.7,4.1
			c0.2,0.6,0.5,1.1,0.8,1.7c0.1,0.2,0.4,0.4,0.5,0.6c0.7,1.3,1.6,2.5,2.8,3.2c0.2,0.7,0.4,1.2,0.5,1.8c-0.5,0.3-1,0.5-1.4,0.9
			c-1.6,1.6-1.8,4.4,0.2,6.1c0.7,0.6,1.6,1.1,2.5,1.3c0.9,0.2,2,0.3,2.9-0.4c0.2-0.2,0.3-0.5,0.5-0.7c-0.3-0.2-0.5-0.4-0.8-0.5
			c-0.9-0.3-1.8-0.4-2.6-0.7c-1.1-0.4-1.9-1.8-1.5-2.7c0.4-0.8,0.9-1.6,1.9-1.8c0.5,0.4,1.1,0.8,1.6,1.3c0.8,0.7,1.6,1.4,2.6,1.6
			c1.2,0.2,1.8,0.9,2.1,2c0.1,0.4,0.3,0.8,0.3,1.1c0.1,1.1,0.6,2,1.3,2.9c1.5,2.2,2.7,4.4,4.1,6.6c0.4,0.6,0.9,1.2,1.4,1.8
			c1.2,1.4,2.9,2.3,4.1,3.7c0.8,1,2,1.8,3,2.7c1.5,1.3,3.1,2.2,5,2.7c1,0.3,2.1,0.5,3.1,0.7c0.7,0.1,1.5,0.3,2.2,0.3
			c1.6-0.2,3.2-0.5,4.8-0.5c0.2,0,0.4-0.1,0.6-0.2c0.9-0.5,1.5-0.2,2.4,0.5c-0.6,0.3-1.1,0.6-1.6,0.8c-0.8,0.3-1.6,0.6-2.4,0.7
			c-1.5,0.3-3.1,0.4-4.6,0.7c-1.6,0.2-3.2-0.2-4.8-0.3c-0.8-0.1-1.5-0.3-2.3-0.7c-0.4-0.2-0.8-0.4-1.2-0.6c-1.7-0.9-3.6-1.5-4.9-3.1
			c-1-1.1-2.2-2.1-3.3-3.1c-0.8-0.8-1.9-1.3-2.3-2.5c0-0.1-0.3-0.1-0.6-0.2c0.1,0.7,0.1,1.3,0.1,1.9c0.2,2.1,0.8,4.2,0.6,6.3
			c0,0.5,0,1,0,1.4c0.1,1.1,0,2.1-1,2.9c0.3,0.2,0.6,0.4,0.9,0.6c0.3,0.2,0.6,0.3,0.9,0.5c3.2,2.4,6.8,3.8,10.6,5
			c0.5,0.1,0.9,0.6,1.4,0.6c1.8,0.1,3.5,1.4,5.4,0.6c0.1,0,0.2,0,0.2,0c1.6,0.6,3.3,0.1,4.9,0.1c1.9,0,3.7-0.5,5.6-0.6
			c1.5-0.1,2.9-0.5,4.3-0.9c1.3-0.3,2.5-0.8,3.7-1.2c0.8-0.3,1.6-0.6,2.3-1c1.7-1,3.3-2.1,5-3c0.7-0.4,1.3-0.7,1.4-1.4
			c-0.5-0.9-1-1.8-1.3-2.7c-0.2-0.4-0.2-1-0.1-1.4c0.2-0.9,0-1.7-0.1-2.5c-0.1-0.7-0.3-1.4-0.5-2.1c-0.4,0.2-0.7,0.4-1.1,0.5
			c-0.4,0.2-0.8,0.3-1.2,0.4c-1.2,0.5-2.1,0.2-2.8-1c-0.4-0.8-0.1-1.6,0.8-1.7c1-0.1,1.6-0.8,2.4-1.3c0.8-0.5,1.4-1.5,2.4-1.8
			c0.3-0.1,0.4-0.4,0.7-0.7c0.3-0.3,0.6-0.6,0.9-0.9c0.2-0.2,0.5-0.4,0.7-0.6c0.9-1,1.8-2,2.7-3c0.3-0.3,0.6-0.8,0.6-1.2
			c0.1-0.6,0.4-0.9,0.7-1.4c0.5-0.8,0.9-1.6,1.3-2.4c0.3-0.7,0.4-1.5,0.8-2.2c0.7-1.3,1.3-2.6,1.4-4.1c0.1-0.4,0.1-0.9,0.2-1.3
			c0.2-0.6,0.4-1.2,0.8-1.7c0.2-0.3,0.8-0.3,1.2-0.4c0.8-0.2,1.6-0.4,2.4-0.5c2.1-0.3,3.1-1.8,3.5-3.6c0.4-2,0.2-4-0.7-6
			c-0.7-1.5-2-2.1-3.5-2.3c-0.6-0.1-1.3,0.1-1.8-0.5c-0.1-0.2-0.6-0.1-0.9-0.1c-0.6,0-1.2,0.1-1.8,0.1c-0.5,0-1,0.1-1.5,0.1
			c-0.6,0.1-1.2,0.2-1.7,0.3c-0.4,0.1-0.8,0-1.1,0.2c-0.2,0.1-0.2,0.6-0.2,0.9c-0.1,0.5-0.2,1-0.3,1.5c-0.4,1.7-0.9,3.4-1.8,4.9
			c-0.7,1.2-1.7,2.1-2.1,3.4c0,0.1-0.2,0.2-0.4,0.3c-0.6,0.6-1.5,0.6-1.9,1.4c-0.1,0.1-0.4,0.1-0.6,0.2c-0.4,0.1-0.9,0.2-1.3,0.4
			c-0.7,0.4-1.5,0.3-2.2,0.3c-0.4,0-0.8,0-1.2-0.1c-0.8-0.1-1.6-0.1-2.3-0.4c-0.9-0.4-1.8-1-2.6-1.7c-1.7-1.5-3.3-3-4.9-4.5
			c-0.3-0.3-0.5-0.7-0.6-1c-0.2-2.2-0.7-4.4-0.2-6.6c0.2-1.1-0.2-1.6-1.1-1.7c-2.3-0.3-4.6,0.3-7,0.7c0.5,1.5,0.3,2.9,0,4.3
			c0,0.1-0.1,0.2-0.1,0.2c0,0.2,0,0.3-0.1,0.5C146,106.4,146,106.5,145.9,106.5z M170.4,88.5c-0.1-0.1-0.2-0.1-0.3-0.2
			c-0.5-0.2-1-0.4-1.6-0.6c-1.2-0.5-2.6-1-3.1-2.4c0-0.1-0.2-0.2-0.2-0.3c-1.3-1.6-2.5-3.2-3-5.3c-0.2-1-0.6-2-0.6-3
			c-0.1-1.5-0.9-2.8-1.4-4.3c-0.4,0.3-0.7,0.4-1,0.7c-0.6,0.6-1.1,1.1-1.6,1.7c-1.4,1.6-3.1,2.9-4.8,4.2c-0.7,0.6-1.5,1.1-2.3,1.4
			c-1.7,0.5-3.3,1.3-5.1,1.5c-2.8,0.3-5.6,1-8.3,1.6c-0.4,0.9-0.7,1.6-1.1,2.3c-0.9,1.5-1.8,3-2.8,4.6c-0.3,0.4-0.5,0.9-0.7,1.4
			c-0.1,0.2,0,0.5,0,0.7c0.2,0,0.3,0,0.4,0c0.1,0,0.2,0,0.2-0.1c0.8-1,1.8-0.7,2.8-0.4c0.7,0.2,1.5,0.4,2.2,0.5
			c0.9,0.2,1.8,0.4,2.7,0.7c1.4,0.4,2.3,1.4,3.2,2.5c0.5,0.6,1,1.2,1.1,2.1c0,0.1,0,0.2,0.1,0.3c0.3,0.8,0.6,0.9,1.4,0.7
			c0.3-0.1,0.7-0.2,1-0.2c0.9-0.1,1.8-0.1,2.7-0.2c1-0.1,2-0.2,3.1,0c1.2,0.2,2.5,0.4,3.3-0.9c0-0.1,0.1-0.1,0.2-0.2
			c1.1-0.8,2.2-1.7,2.3-3.4c1.4-0.3,2.7-0.6,4.1-0.9c0.5-0.1,1.1-0.2,1.5,0c1.7,0.5,3.3,1.1,5,1.7c0.5,0.2,1,0.3,1.5,0.5
			c1.1,0.4,2.2,0.6,3,1.6c0.2,0.2,0.4,0.4,0.6,0.6c0.8,0.6,1.4,1.3,1.4,2.4c0,0.4,0.2,0.8,0.4,1.3c2.2-0.1,4.3-0.3,6.7-0.4
			c-1.1-1.4-2.8-2-3.4-3.7c-0.5-1.5-1.7-2.7-1.6-4.3c-1.8-0.9-3.5-1.8-5.2-2.7c0-0.3-0.1-0.5-0.1-0.9c-0.5,0.1-0.9,0.2-1.3,0.3l0,0
			C171.5,88.3,170.9,88.7,170.4,88.5L170.4,88.5z M116.4,58.6c-0.9,0-1.8,0-2.5,0.7c0,0.1,0,0.2,0.1,0.2
			C114.8,59.2,115.6,58.9,116.4,58.6c0.3-0.1,0.5-0.2,0.8-0.3c-0.1-0.1-0.1-0.2-0.2-0.2C116.9,58.2,116.6,58.4,116.4,58.6z
			 M124.8,104.2c0.1,0.7,0,1.5,0.2,2.1c0.4,1.1,0.9,2.2,1.6,3c0.8,0.9,2,1.6,3,2.4c0.1,0,0.1,0.1,0.2,0.1c1.2,0.3,2.3,0.5,3.5,0.9
			c2.1,0.7,3.9-0.2,5.6-1.1c0.4-0.2,0.8-0.7,1.1-1c0.5-0.5,1-0.9,1.4-1.4c1.1-1.4,1.5-3.2,1.9-4.8c0.1-0.2,0-0.5,0-0.7
			c-0.1-0.7-0.2-1.4-0.2-2.1c-0.1-1.1-0.5-2.1-1.2-2.9c-0.2-0.2-0.4-0.6-0.5-0.9c-0.2-0.7-1.8-2-2.5-1.9c-0.6,0.1-1-0.2-1.5-0.3
			c-0.8-0.2-1.4-0.9-2.3-0.8c-1.7,0.2-3.3,0.4-4.8,1.2c-1.5,0.8-2.9,1.8-3.8,3.2C125.4,100.6,124.8,102.3,124.8,104.2z M173.8,102.9
			c0.1-1.6-0.3-3.1-1.3-4.3c-0.3-0.4-0.8-0.7-1.2-0.9c-1.4-0.6-2.8-1-4.3-1.6c-1.4-0.5-2.8-0.7-4.4-0.1c-1.3,0.5-2.4,1.2-3.1,2.4
			c-0.3,0.6-0.5,1.3-0.9,1.8c-1,1.1-1.4,2.4-1.4,3.9c0,2.4,0.5,4.5,2.7,6c0.4,0.3,0.7,0.7,1,1c0.1,0.1,0.2,0.4,0.4,0.4
			c0.9,0.4,1.9,0.9,2.8,1.2c0.6,0.2,1.3,0.4,1.9,0.7c0.8,0.4,1.5,0.2,2.3-0.2c1.3-0.6,2.2-1.7,3.1-2.8c0.9-1.1,1.5-2.4,1.8-3.8
			C173.4,105.5,173.8,104.2,173.8,102.9z M127.1,166c-0.4,0.7-0.8,1.2-1,1.7c-0.3,0.7-0.7,1.5-0.5,2.1c0.2,0.6,1,1.2,1.7,1.5
			c0.9,0.5,1.9,0.3,2.9,0.1c0.8-0.2,1-1,1.4-1.5c0.6-0.9,0.6-1.6-0.2-2.4c-0.3-0.4-0.5-0.8-0.9-1.3C129,165.5,129,165.5,127.1,166z
			 M182.8,123.6c0.8,0.3,1.6,0.6,2.4,0.8c1.9,0.4,3.5-0.6,3.8-2.3c0-0.2,0.1-0.4,0.2-0.6c0.5-1.7,0.4-3.4-0.3-5.1
			c-0.1-0.3-0.3-0.6-0.5-0.8c-0.1-0.1-0.5-0.3-0.6-0.2c-0.2,0.1-0.5,0.4-0.5,0.6c-0.1,0.4-0.1,0.9,0,1.3c0.4,1.4,0.4,2.9,0.1,4.3
			c-0.1,0.6-0.8,1.4-1.4,1.3c-0.6-0.1-1.3-0.4-1.9-0.7c-0.2-0.1-0.3-0.6-0.4-0.9C182.7,121.3,182.7,121.3,182.8,123.6z M125,158.5
			c-0.3,0.2-0.7,0.5-1.1,0.2c-0.2-0.1-0.6-0.1-0.9,0c-1,0.3-1.2,1.3-1.6,2.1c-0.6,1.2-0.5,1.8,0.5,2.5c0.5,0.4,1.2,0.6,1.8,0.8
			c0.9,0.2,1.6-0.1,1.8-1C126,161.5,126.4,159.9,125,158.5z M138.3,59c0.1-0.3,0.2-0.7,0.4-1c0.5-0.6,1-1.1,1.6-1.6
			c0.3-0.2,0.7-0.3,1.1-0.5c0.3-0.2,0.8-0.3,0.7-0.8c-0.1-0.5-0.5-0.5-1-0.4c-0.7,0.2-1.5,0.2-2.2,0.5c-2.7,1.2-3.6,3.9-2.1,6.3
			c0.3,0,0.5-0.1,0.8-0.1c1.4-0.3,1.6-0.9,0.9-2.1C138.5,59.3,138.4,59.2,138.3,59z M118.9,76.4c1.5,0.3,1.5,0.3,2.4-0.6
			c-0.7-1.2,0.2-2.2,0.4-3.3c1-0.7,1.8-1.6,3.4-1.7c-0.5-0.4-0.7-0.7-1-0.8c-1.4-0.4-2.7-0.1-3.7,1c-0.6,0.8-1,1.8-1.6,2.7
			C118.4,74.6,119,75.4,118.9,76.4z M177.4,64.9c-1.3-1.2-2.4-1.5-3.6-0.9c-0.3-0.1-0.7-0.3-1-0.3c-1.6-0.2-2.9,0.5-4,1.6
			c-0.7,0.7-0.7,0.7,0.2,1.6c0.7-0.3,1.4-0.6,2.1-0.9c0.3-0.1,0.6-0.3,1-0.4c1-0.1,2,0.2,2.9,0.4c0.1,0,0.1,0.1,0.2,0.1
			c1,0.6,1.3,0.6,1.9-0.5C177.2,65.5,177.3,65.2,177.4,64.9z M172.7,73.3c-0.7,0.7-0.3,1.4-0.1,2.1c0.6,1.9,3.1,3.5,5,3.3
			c0.9-0.1,0.9-0.1,0.9-1.2c-0.5-0.3-0.9-0.7-1.4-0.9c-0.7-0.2-1.2-0.3-1.5-1.1c-0.3-0.6-0.8-1.2-0.5-1.9
			C174.4,72.8,173.5,73,172.7,73.3z M115,93.3c0-0.1,0-0.2,0-0.2c-0.4-1.5-0.1-2.8,1.4-3.6c0.4-0.2,0.8-0.5,0.6-1
			c-0.2-0.3-0.6-0.5-1-0.6c-0.1-0.1-0.4,0-0.6,0.1c-0.4,0.1-0.9,0.3-1.3,0.5c-0.5,0.2-1,0.5-1.2,1.1c-0.2,0.9-0.5,1.8-0.7,2.7
			c-0.2,1,0.1,1.6,1,2c0.3,0.1,0.6,0.2,0.9,0.2C114.4,94,114.7,93.7,115,93.3z M143.6,68.8c-1-0.9-1.3-0.9-2.2-0.1
			c-0.2,0.2-0.4,0.3-0.6,0.4c-1,0.8-2.3,1-3.5,1.4c-0.8,0.3-1.5,0.8-2.3,1.3c-0.4,0.3-0.3,0.9,0.2,0.9c0.8,0.1,1.6,0.1,2.4-0.1
			c1.2-0.4,2.4-1,3.6-1.5c0.5-0.2,1.1-0.5,1.5-0.9C143.1,69.9,143.3,69.3,143.6,68.8z M188.6,88.3c-0.2-0.6-0.6-0.8-1.1-0.9
			c-0.4-0.1-0.8-0.1-1.2-0.2c-1.3-0.2-1.6-0.5-1.7-1.9c0-0.3-0.2-0.6-0.4-0.7c-0.5-0.3-1-0.3-1.5,0.1c-0.5,0.4-0.9,0.9-0.7,1.6
			c0.2,0.9,0.7,1.5,1.5,2c1.4,0.9,2.9,1.1,4.5,0.5C188.1,88.7,188.3,88.5,188.6,88.3z M122.2,154.5c0-1.5-1.1-2.3-2.4-1.7
			c-0.8,0.4-1.6,0.9-2.3,1.4c-0.4,0.3-0.8,0.6-0.6,1.2c0.2,0.4,0.5,1,1,1.1c1.3,0.6,3.4-0.2,4.2-1.5
			C122.2,154.8,122.2,154.6,122.2,154.5z M149.5,54.6c0.6,0.9,0.6,0.8,1.3,1c1,0.3,2,0.5,2.7,1.4c0.3,0.4,0.9,0.6,1.5,0.6
			c0.8,0.1,0.9-0.3,0.8-1.1c-0.1-0.4-0.3-0.6-0.5-0.8c-0.9-0.7-2-1.1-3-1.6C151.2,53.6,150.4,54,149.5,54.6z M181.8,160
			c1.1-0.6,1.3-0.8,1.3-1.4c-0.1-0.8-0.1-1.7-0.9-2.3c-0.8-0.7-1.4-0.6-1.8,0.3C179.6,158.2,180.1,159.2,181.8,160z M191.9,86.8
			c1.5,0.2,1.5,0.2,2.2-0.8c-0.7-2.1-1.3-2.3-3-0.9C191.4,85.6,191.7,86.2,191.9,86.8z M126.8,161.8c-0.1,0.2-0.2,0.2-0.2,0.3
			c0,0.1,0.1,0.1,0.2,0.2c0.1-0.1,0.2-0.2,0.2-0.3C127,162.1,126.9,162,126.8,161.8z"/>
		<path style="fill:#F3C09E;" d="M158.7,159.3c0.5,0,1.1-0.1,1.6-0.1c0.1,0,0.1-0.1,0.2-0.1c1.3-0.4,2.7-0.7,4-1.1
			c0.9-0.2,1.9-0.3,2.7-0.7c0.9-0.4,1.6-1.1,2.5-1.6c1.6-0.9,2.9-2.3,4.8-2.8c0.3-0.1,0.6-0.5,0.9-0.7c0.7,0.2,1.3,0.4,2,0.7
			c0.9,0.5,1.9,0.8,3,0.7c-0.2,0.2-0.3,0.6-0.5,0.7c-1.3,1-1.8,2.4-2.1,3.9c-0.3,1.1,0.5,2.1,1.4,2.8c1.2,1.1,2.7,1.2,4.2,0.7
			c1.7-0.5,1.8-1.2,2-2.6c0.1-0.4,0-0.9,0-1.3c-0.1-0.4-0.2-0.7-0.3-1.3c0.8,0.2,1.5,0.3,2,0.8c-0.1,0.3-0.1,0.6-0.2,0.8
			c-1.1,1.7-0.5,3.3,1.3,4c3,1.1,6,2.2,8.9,3.4c0.9,0.3,1.7,0.7,2.5,1.1c3,1.4,5.6,3.7,8.7,4.9c1,0.4,1.8,1,2.7,1.4
			c4.9,2.3,9.6,4.9,14.3,7.5c1.3,0.7,2.7,1.5,3.6,2.7c1.1,1.5,2.2,3.1,3.3,4.7c0.6,0.9,0.9,1.9,0.9,3c0,0.3,0,0.6,0,0.8
			c0.1,1.6,0.4,3.2,0.4,4.9c0,1.2,0,2.4,0.5,3.5c-1,0-2.1,0-3.1,0.1c-2.9,0.1-5.8,0.1-8.7,0.2c-0.2,0-0.5,0-0.6,0.1
			c-0.8,0.6-1.7,0.4-2.5,0.4c-4.2,0-8.3,0-12.5,0c-0.4,0-0.7,0-1.1,0c0,0,0,0.1-0.1,0.1c0.3,0.2,0.6,0.3,0.9,0.5
			c0,0.1-0.1,0.2-0.1,0.2c-4.1,0-8.3-0.1-12.4-0.1c-4.8,0-9.5,0-14.3,0c-0.7,0-1.3,0-1.9-0.4c-0.6-0.3-1.4-0.3-2.1-0.3
			c-4,0-8.1,0.2-12.1,0.2c-13.3,0-26.5-0.2-39.8-0.2c-8.3,0-16.7,0.1-25,0.2c-7.7,0.1-15.5,0.1-23.2,0.2c-2.1,0-4.1,0.1-6.2,0.2
			c-0.4,0-0.9,0-1.3,0c0.3-0.8,0.7-1.6,0.9-2.4c0.2-1,0.4-2.1,0.5-3.2c0.6-4.5,2.8-8.3,5.9-11.5c1.2-1.3,2.7-2.2,4.1-3.2
			c2.2-1.6,4.3-3.2,6.8-4.3c2.3-1.1,4.5-2.5,6.8-3.8c3.8-2.3,7.6-4.6,11.4-7c1.4-0.9,2.8-1.8,4.3-2.5c2.1-1,4.2-1.8,6.4-2.7
			c0.9-0.4,1.5-0.9,1.6-1.9c0.1-0.4,0.2-0.7,0.3-1c1.2,0.2,2.4,0.4,3.9,0.6c-1.5,1.2-2.2,2.6-2.4,4.5c0.8,0.7,1.6,1.5,2.6,2
			c1,0.6,2.1,0.9,3.2,1.4c-0.3,0.7-0.6,1.6-0.9,2.5c-0.4,1.2,0.1,2.2,1.1,2.8c0.1,0.1,0.3,0.1,0.4,0.3c0.9,1.1,2.2,1.3,3.5,1.3
			c0.6,0,1.3,0.1,1.9,0c1.1-0.1,2.1-0.5,2.7-1.3c0.8-1,1.2-2.3,0.9-3.6c-0.3-1-0.7-2-1.2-2.9c-0.7-1.3-1.9-1.6-3.3-1.6
			c-0.4,0-0.8,0-1.3,0c0.2-0.5,0.4-1,0.5-1.4c0.1-0.5,0-1,0-1.4c0,0,0-0.1,0-0.1c-0.5-1.9-1.6-3.3-3.1-4.5c-0.2-0.2-0.8,0-1.2,0.1
			c-0.3,0.1-0.6,0.3-1,0.2c0.4-0.7,0.9-1.5,1.3-2.2c0.3,0.1,0.6,0.2,0.8,0.4c2.9,2.2,5.9,4,9.5,4.9c2.2,0.6,4.4,1.3,6.7,1.8
			c2.5,0.6,5.1,0.9,7.7,0.8c0.4,0,0.8,0,1.2,0.1c0.8,0.1,1.7,0.2,2.5,0.2c1.1,0,1.7-0.8,1.8-1.8c0-0.2,0.1-0.5,0.1-0.7
			c0.5-0.1,0.9-0.2,1.3-0.3c0.3-0.1,0.6-0.2,0.9-0.3c0,0,0,0,0,0c0.4-0.1,0.8-0.2,1.2-0.2c0,0,0,0,0,0
			C158.3,159.3,158.5,159.3,158.7,159.3z M144.3,172.1c-0.1,0.1-0.3,0.1-0.4,0.2c-0.1,0.1-0.2,0.2-0.3,0.3c-0.4,0.3-0.7,0.6-1.1,0.9
			c-0.1,0.4-0.3,0.7-0.4,1.1c-0.1,0.1-0.1,0.1-0.2,0.2c-0.1,0.2-0.2,0.4-0.3,0.6l-0.1,0l0,0.1c-0.1,0.1-0.1,0.2-0.2,0.3
			c-0.2,0-0.3,0-0.5,0c0-0.1,0-0.3,0-0.4c0.2-0.3,0.6-0.6,0-0.9c0-0.1,0-0.3-0.1-0.4c-0.1-0.1-0.2-0.3-0.2-0.4
			c-0.2-0.3-0.3-0.6-0.5-0.8c-1.2-0.9-2.6-1.2-4-1.1c-1.2,0-2.4,0.6-3.1,1.8c-0.4,0.7-0.7,1.5-1.2,2.1c-0.7,0.9-0.4,1.9-0.3,2.9
			c0.1,0.5,0.4,1.2,0.8,1.5c0.8,0.6,1.8,1.1,2.7,1.6c0-0.1,0-0.2,0-0.3c0.6-0.2,1.1-0.3,1.7-0.5c0.5-0.2,1.2-0.4,1.5-0.8
			c0.9-1,1.8-2,2.3-3.2c0.2-0.1,0.4-0.2,0.6-0.2c0.1,0.3,0.2,0.6,0.3,1c0.1,0.2,0.2,0.4,0.2,0.6c0.4,0.7,0.8,1.4,1.6,1.8
			c2.1,1,4.2,1.4,6.3,0c0.2-0.1,0.3-0.3,0.5-0.3c0.7-0.1,1.1-0.5,1.3-1.3c0.2-0.6,0.7-1.2,0.8-1.8c0.1-0.4-0.2-0.8-0.3-1.2
			c-0.3-0.7-0.6-1.4-0.8-2.1c-0.1-0.5-0.4-0.7-0.8-0.7c-0.1-0.1-0.2-0.1-0.3-0.2l-0.1,0c-0.7-0.1-1.4-0.3-2.1-0.4
			c-0.1,0-0.2-0.1-0.3-0.1c-0.6-0.2-1.1-0.3-1.7,0c-0.1,0-0.1,0.1-0.2,0.1C145.2,171.8,144.8,172,144.3,172.1
			C144.3,172.1,144.3,172.1,144.3,172.1z M163.5,176.2c0.4,0.3,0.8,0.6,1.2,0.9c2,1.5,4,1.6,6,0.2c0.7-0.5,1-1.2,1.6-1.8
			c0.8-0.9,1-1.9,0.8-3c-0.1-0.5,0-1,0-1.6c0.3,0.2,0.5,0.2,0.6,0.3c1,0.9,2.3,1.1,3.5,1.2c1.1,0.1,2.1-0.5,2.5-1.3
			c0.4-0.7,0.9-1.3,1.2-2c0.2-0.5,0.4-0.9,0.5-1.4c0.1-1.1,0.3-2.1-0.3-3.3c-0.7-1.2-1.3-2.2-2.6-2.7c-0.5-0.2-1-0.4-1.4-0.5
			c-1.3-0.5-2.5-0.2-3.5,0.9c-1.1,1.1-0.9,2.6-1.4,3.9c-0.4,1.2-0.7,1.5-1.8,1.1c-0.5-0.2-1-0.2-1.5,0.1c-0.7,0.3-1.5,0.5-2.3,0.6
			c-1.3,0.2-2.6,0.7-3,2.3c-0.2,1-0.7,2-1.1,3.1c-0.3-0.1-0.7,0-1-0.2c-1.5-0.8-3-1-4.6-0.7c-1.2,0.2-2,0.7-2.6,1.7
			c-0.5,0.8-0.9,1.7-1.3,2.5c-0.4,0.8-0.3,1.4,0.6,1.9c0.4,0.2,0.7,0.4,0.9,0.9c0.1,0.2,0.2,0.4,0.4,0.5c1.1,0.5,2,1.3,3.4,1.4
			c1.4,0.1,2.5-0.3,3.4-1.3C162.7,178.9,163.1,177.5,163.5,176.2z"/>
		<path style="fill:#F4D0B8;" d="M116.7,158c-0.1,0.3-0.2,0.7-0.3,1c-0.2,1-0.8,1.5-1.6,1.9c-2.1,0.9-4.3,1.7-6.4,2.7
			c-1.5,0.7-2.9,1.7-4.3,2.5c-3.8,2.3-7.6,4.7-11.4,7c-2.2,1.3-4.4,2.7-6.8,3.8c-2.5,1.1-4.6,2.8-6.8,4.3c-1.4,1-2.9,2-4.1,3.2
			c-3.1,3.2-5.3,7-5.9,11.5c-0.1,1.1-0.3,2.1-0.5,3.2c-0.2,0.8-0.6,1.6-0.9,2.4c-1.2,0-2.4,0.1-3.6,0c-0.8-0.1-1.5-0.5-2.2-0.7
			c0.1-0.7,0.2-1.3,0.3-2c0.3-3.4,1.4-6.6,2.7-9.8c1-2.3,2.2-4.4,3.3-6.6c0.1-0.2,0.3-0.4,0.4-0.5c1.6-1.7,3.3-3.2,5.3-4.3
			c0.6-0.4,1.1-0.9,1.7-1.2c0.7-0.5,1.5-1,2.2-1.4c1.3-0.7,2.7-1.4,4-2.1c2.4-1.2,4.7-2.6,7-4c1-0.6,2-1.2,3-1.8
			c4.3-2.5,8.6-4.9,13-7c1.8-0.8,3.5-1.8,5.2-2.7c0.4-0.2,0.6-0.7,1-0.9c1.1-0.5,2.2-0.8,3.4-1.3C115,156.7,116.1,157.2,116.7,158z"
			/>
		<path style="fill:#F4D0B8;" d="M234,200.3c-0.5-1.1-0.4-2.3-0.5-3.5c-0.1-1.6-0.3-3.2-0.4-4.9c0-0.3,0-0.6,0-0.8
			c0-1.1-0.3-2.1-0.9-3c-1.1-1.6-2.2-3.2-3.3-4.7c-0.9-1.3-2.3-2-3.6-2.7c-4.7-2.6-9.4-5.2-14.3-7.5c-0.9-0.4-1.8-1.1-2.7-1.4
			c-3.1-1.2-5.7-3.5-8.7-4.9c-0.8-0.4-1.6-0.8-2.5-1.1c-3-1.1-6-2.3-8.9-3.4c-1.9-0.7-2.4-2.3-1.3-4c0.1-0.2,0.2-0.5,0.2-0.8
			c1.8,0.2,3.5,0.7,5.2,1.1c2,0.4,3.8,1.3,5.6,1.9c3.6,1.3,7.1,3.1,10.6,4.7c2.1,0.9,4.1,2,6,3.1c2.2,1.2,4.3,2.6,6.5,3.9
			c3.1,1.9,6.2,3.7,9.4,5.5c3.9,2.2,6.1,5.6,7.4,9.8c0.3,1.1,0.8,2.3,1,3.4c0.3,1.3,0.4,2.7,0.6,4c0.2,1.6,0.3,3.2,0.5,4.8
			c-0.6,0.4-1.2,0.6-2,0.6C236.6,200.2,235.3,200.3,234,200.3z"/>
		<path style="fill:#070707;" d="M152,9.7c1,0,2,0,3.1,0c0,6.2,0,12.3,0,18.6c0.4-0.3,0.6-0.4,0.8-0.6c1.2-0.9,2.3-1.9,3.5-2.8
			c0.8-0.6,1.6-0.5,2.2,0.2c0.6,0.6,0.5,1.6-0.2,2.3c-0.4,0.4-0.8,0.7-1.2,1c-2,1.4-3.7,3.1-5.4,4.9c-0.9,1-1.9,1.2-2.7,0.2
			c-1.1-1.3-2.6-2-3.8-3c-1-0.9-2.2-1.8-3.2-2.6c-0.3-0.2-0.5-0.5-0.8-0.8c-0.4-0.6-0.3-1.5,0.2-2c0.5-0.5,1.2-0.6,1.9-0.2
			c0.4,0.2,0.8,0.6,1.1,0.9c1.4,1.1,2.7,2.2,4.3,3.5c0-0.6,0.1-0.9,0.1-1.2C151.8,21.9,151.9,15.9,152,9.7z"/>
		<path style="fill:#1A1716;" d="M178.8,150.2c-0.8-0.2-1.1-0.8-1.4-1.5c0.1,0.1,0.3,0.2,0.2,0.2c0.6-0.2,1-0.4,1.5-0.4
			c5.6-0.1,11.3-0.2,16.9-0.3c4.5-0.1,9-0.2,13.5-0.3c5.3-0.1,10.5,0,15.8-0.1c2.9,0,5.8-0.1,8.7-0.2c3-0.1,5.9-0.1,8.9-0.2
			c2,0,3.9,0,5.9,0c0.6,0,1.2,0.2,1.9,0.4c-0.2,0.3-0.3,0.7-0.4,0.9c-1.3,0-2.4-0.1-3.5-0.1c-3,0-6,0.1-9,0.2
			c-4.5,0.1-9,0.1-13.6,0.2c-4.1,0-8.2,0.1-12.3,0.1c-6.6,0.1-13.3,0.2-19.9,0.3c-4,0.1-8,0.1-12,0.1c-0.4,0-0.9,0-1.3,0
			C178.7,149.9,178.8,150.1,178.8,150.2z"/>
		<path style="fill:#1E1A1A;" d="M93.1,158c-0.9,0.6-1.9,1-3,0.9c-1.5-0.1-3,0.1-4.5,0.1c-7.4,0-14.8,0-22.2,0.1c-0.7,0-1.4-0.1-2,0
			c-0.8,0.1-1.2-0.3-1.6-1C61.1,157.7,91.1,157.6,93.1,158z"/>
		<path style="fill:#1A1616;" d="M212.7,160.3c4-0.1,8-0.1,12-0.2c1.8,0,3.7,0.1,5.5,0.1c2,0,4-0.2,6-0.2c1.5,0,3.1,0,4.7,0.1
			c0.8,0,1.7,0,2.6,0c-0.2,0.4-0.4,0.7-0.5,1c-2.2,0.1-4.3,0.2-6.5,0.3c-8.6,0.1-17.2,0.2-25.8,0.3c-1,0-1.9,0-2.8-0.5
			c0,0-0.1,0-0.1,0c-0.1-0.1-0.2-0.2-0.2-0.3C209.3,160.6,211,160.4,212.7,160.3z"/>
		<path style="fill:#322E2D;" d="M99.4,83.8c-0.1,0.1-0.2,0.4-0.4,0.4c-0.3,0.1-0.6,0-0.8,0c-10,0-20.1,0-30.1,0
			c-0.6,0-1.1-0.1-1.7-0.1c-0.4,0-0.9,0.1-1.3,0.2c0.2-0.5,0.6-0.5,1-0.4c4.5,0.1,8.9,0.2,13.4,0.2c5.4,0,10.9,0,16.3-0.1
			C97,83.9,98.2,83.9,99.4,83.8z"/>
		<path style="fill:#EAEBEB;" d="M191,133.9c1-0.9,2-1.9,3.1-2.8c0.6-0.5,1.4-0.9,2-1.4c0.3-0.3,0.6-0.7,0.8-1
			c0.3-0.4,0.6-0.7,0.9-1.1c0.4,1.1-0.3,1.8-0.9,2.5c-1,1.1-2,2.1-3.1,3.1C193,133.9,192,133.9,191,133.9z"/>
		<path style="fill:#DADDDD;" d="M207.9,161c0.9,0.5,1.8,0.5,2.8,0.5c8.6-0.1,17.2-0.2,25.8-0.3c2.2,0,4.3-0.2,6.5-0.3
			c-0.2,0.1-0.4,0.3-0.6,0.3c-2.5,0.1-5,0.2-7.5,0.2c-2.8,0-5.5,0-8.3,0c-5.5,0.1-10.9,0.1-16.4,0.2c-0.3,0-0.7,0.1-1,0.2
			c-0.5-0.2-1-0.3-1.5-0.5C207.9,161.5,208,161.3,207.9,161z"/>
		<path style="fill:#322E2D;" d="M101.8,71.3c-0.3,0.2-0.5,0.4-0.8,0.5c-1,0.1-2,0.2-3,0.2c-3.3,0-6.7,0-10,0.1
			c-3.8,0-7.6,0.1-11.4,0.2c-0.4,0-0.8,0-1.2,0c0.5-0.1,1-0.2,1.5-0.2c3,0,6,0,9-0.1c4.2-0.1,8.4-0.2,12.7-0.3c0.6,0,1.3,0,1.9-0.1
			c0.2,0,0.5-0.2,0.7-0.3C101.4,71.3,101.6,71.3,101.8,71.3z"/>
		<path style="fill:#1E1A1A;" d="M174.8,140.9c-0.1-0.4-0.3-0.9-0.4-1.3c-0.1-0.4,0.2-0.6,0.6-0.5c1.6,0.1,3.3,0.2,4.9-0.3
			c0.1,0,0.2,0,0.4,0c-0.6,0.2-1.2,0.3-1.8,0.5c-1.2,0.4-2.3,0.8-3.4,1.3C174.9,140.6,174.8,140.8,174.8,140.9z"/>
		<path style="fill:#322E2D;" d="M92,73c0.2-0.1,0.4-0.2,0.7-0.2c2.5,0,4.9,0,7.4,0c0.2,0,0.3,0.1,0.5,0.1c0.4,1.1-0.3,1.9-0.6,2.8
			c-0.4-0.5-0.5-1,0.1-1.6c0.2-0.2,0.3-0.6,0.6-1.1c-1.4,0-2.7,0-3.9,0C95.1,73,93.6,73,92,73z"/>
		<path style="fill:#322E2D;" d="M99.9,76.4c0.1,0.2,0.4,0.4,0.4,0.5c-0.2,1.8-0.5,3.6-0.8,5.5c-0.5-0.5-0.3-1.1-0.2-1.7
			c0.1-1.3,0.2-2.5,0.4-3.8C99.7,76.7,99.8,76.5,99.9,76.4z"/>
		<path style="fill:#322E2D;" d="M80.7,73.2c0.4-0.1,0.8-0.2,1.1-0.2c1.7,0,3.4,0,5.2-0.1c0.6,0,1.3-0.1,1.9-0.1
			c0.4,0,0.8,0.1,1.1,0.2c-1.1,0.1-2.2,0.1-3.3,0.2C84.7,73.2,82.7,73.2,80.7,73.2z"/>
		<path style="fill:#322E2D;" d="M71.7,73.2c2.2-0.1,4.3-0.1,6.5-0.2c0.1,0,0.2,0.1,0.3,0.2c-2.1,0.1-4.2,0.1-6.3,0.2
			C72.1,73.4,71.9,73.3,71.7,73.2z"/>
		<path style="fill:#F2CFB7;" d="M212.7,160.3c-1.7,0.1-3.4,0.2-5.1,0.3c0.1,0.1,0.1,0.2,0.2,0.3c-0.3-0.1-0.7-0.2-1.2-0.3
			c0.3-0.2,0.4-0.3,0.5-0.3C208.9,160.3,210.8,160.3,212.7,160.3z"/>
		<path style="fill:#322E2D;" d="M75.4,72.3c-0.3,0.1-0.7,0.2-1,0.2c-1,0-2,0-3,0c0-0.5,0.4-0.3,0.6-0.3
			C73.2,72.2,74.3,72.2,75.4,72.3z"/>
		<path style="fill:#322E2D;" d="M103.7,66.9c0,0.2-0.1,0.4-0.1,0.7c0.2-0.1,0.3-0.1,0.4-0.1c0,0,0,0,0,0c-0.2,0.6-0.5,1.1-0.7,1.7
			c-0.1,0-0.3,0-0.4,0C102.7,68.3,103.1,67.5,103.7,66.9z"/>
		<path style="fill:#1E1A1A;" d="M102.8,69.2c0.1,0,0.3,0,0.4,0c0,0.1,0,0.2,0,0.3c-0.2,0.3-0.5,0.6-0.7,0.9c0,0,0,0,0,0
			c-0.1,0.1-0.2,0.2-0.2,0.2c0,0,0,0,0,0c-0.5,0-0.5,0.4-0.5,0.7c0,0,0,0,0,0c-0.2,0-0.4,0-0.6,0c0.2-0.8,0.6-1.4,1.3-1.9
			C102.6,69.3,102.7,69.2,102.8,69.2L102.8,69.2z"/>
		<path style="fill:#DADDDD;" d="M205.6,160.6c-0.5-0.3-0.9-0.5-1.4-0.8c0.3-0.1,0.5-0.3,0.8-0.4c0.3,0.2,0.7,0.4,1.1,0.6
			C205.9,160.2,205.8,160.4,205.6,160.6z"/>
		<path style="fill:#322E2D;" d="M99.6,82.8c0.3,0.2,0.3,0.4,0,0.5C99.6,83.2,99.6,83,99.6,82.8z"/>
		<path style="fill:#1A1716;" d="M179.5,150.7c-0.1-0.1-0.3-0.2-0.4-0.3C179.2,150.6,179.3,150.7,179.5,150.7z"/>
		<path style="fill:#322E2D;" d="M65.1,84.5c0,0.2,0,0.3,0,0.5C64.7,84.8,64.8,84.6,65.1,84.5z"/>
		<path style="fill:#1A1716;" d="M179.8,151c-0.1-0.1-0.2-0.1-0.2-0.2C179.6,150.8,179.7,150.9,179.8,151z"/>
		<path style="fill:#1A1716;" d="M179.1,150.5c-0.1-0.1-0.2-0.1-0.3-0.2C178.9,150.3,179,150.4,179.1,150.5z"/>
		<path style="fill:#1A1716;" d="M177.3,148.6c0-0.1-0.1-0.1-0.1-0.2C177.2,148.4,177.2,148.5,177.3,148.6z"/>
		<path style="fill:#1A1716;" d="M176.6,147.4c-0.1-0.1-0.1-0.2-0.2-0.2C176.5,147.2,176.5,147.3,176.6,147.4z"/>
		<path style="fill:#1E1A1A;" d="M180.3,138.7c0.1-0.1,0.2-0.1,0.2-0.2C180.4,138.6,180.3,138.6,180.3,138.7z"/>
		<path style="fill:#322E2D;" d="M102.8,69.2c-0.1,0.1-0.2,0.1-0.3,0.2C102.6,69.3,102.7,69.2,102.8,69.2z"/>
		<path style="fill:#F9D9C5;" d="M146.1,106.3c0-0.2,0-0.3,0.1-0.5c0-0.1,0.1-0.2,0.1-0.2c0.4-1.4,0.5-2.8,0-4.3
			c2.4-0.3,4.7-0.9,7-0.7c0.9,0.1,1.3,0.6,1.1,1.7c-0.4,2.2,0,4.4,0.2,6.6c0,0.4,0.3,0.8,0.6,1c1.6,1.5,3.2,3.1,4.9,4.5
			c0.8,0.7,1.6,1.3,2.6,1.7c0.7,0.3,1.5,0.3,2.3,0.4c0.4,0,0.8,0,1.2,0.1c0.8,0.1,1.5,0.1,2.2-0.3c0.4-0.2,0.8-0.3,1.3-0.4
			c0.2-0.1,0.5-0.1,0.6-0.2c0.4-0.8,1.4-0.9,1.9-1.4c0.1-0.1,0.3-0.2,0.4-0.3c0.5-1.3,1.4-2.3,2.1-3.4c0.9-1.5,1.3-3.2,1.8-4.9
			c0.1-0.5,0.2-1,0.3-1.5c0.1-0.3,0-0.8,0.2-0.9c0.3-0.2,0.7-0.2,1.1-0.2c0.6-0.1,1.2-0.2,1.7-0.3c0.5-0.1,1-0.1,1.5-0.1
			c0.6,0,1.2-0.1,1.8-0.1c0.3,0,0.8-0.1,0.9,0.1c0.5,0.6,1.2,0.4,1.8,0.5c1.5,0.2,2.8,0.8,3.5,2.3c0.9,1.9,1.1,4,0.7,6
			c-0.3,1.8-1.3,3.3-3.5,3.6c-0.8,0.1-1.6,0.3-2.4,0.5c-0.4,0.1-1,0.1-1.2,0.4c-0.4,0.5-0.6,1.1-0.8,1.7c-0.1,0.4-0.1,0.9-0.2,1.3
			c-0.2,1.5-0.7,2.8-1.4,4.1c-0.4,0.7-0.5,1.5-0.8,2.2c-0.4,0.8-0.8,1.6-1.3,2.4c-0.3,0.4-0.6,0.8-0.7,1.4c-0.1,0.4-0.3,0.9-0.6,1.2
			c-0.9,1-1.8,2-2.7,3c-0.2,0.2-0.5,0.4-0.7,0.6c-0.3,0.3-0.6,0.6-0.9,0.9c-0.2,0.2-0.4,0.6-0.7,0.7c-1,0.3-1.6,1.3-2.4,1.8
			c-0.8,0.5-1.4,1.2-2.4,1.3c-0.9,0.1-1.3,0.9-0.8,1.7c0.6,1.2,1.5,1.5,2.8,1c0.4-0.2,0.8-0.3,1.2-0.4c0.4-0.2,0.8-0.4,1.1-0.5
			c0.2,0.7,0.4,1.4,0.5,2.1c0.1,0.8,0.3,1.6,0.1,2.5c-0.1,0.4-0.1,1,0.1,1.4c0.4,0.9,0.9,1.7,1.3,2.7c-0.2,0.7-0.7,1-1.4,1.4
			c-1.7,0.9-3.3,2-5,3c-0.7,0.4-1.5,0.7-2.3,1c-1.2,0.4-2.5,0.9-3.7,1.2c-1.4,0.4-2.8,0.8-4.3,0.9c-1.9,0.1-3.7,0.6-5.6,0.6
			c-1.6,0-3.3,0.5-4.9-0.1c-0.1,0-0.2-0.1-0.2,0c-1.9,0.8-3.6-0.5-5.4-0.6c-0.5,0-0.9-0.5-1.4-0.6c-3.8-1.2-7.4-2.6-10.6-5
			c-0.3-0.2-0.6-0.4-0.9-0.5c-0.3-0.2-0.5-0.4-0.9-0.6c1.1-0.8,1.1-1.8,1-2.9c0-0.5,0-1,0-1.4c0.2-2.1-0.5-4.2-0.6-6.3
			c0-0.6-0.1-1.2-0.1-1.9c0.3,0.1,0.6,0.1,0.6,0.2c0.5,1.1,1.5,1.7,2.3,2.5c1.1,1,2.3,2,3.3,3.1c1.4,1.5,3.2,2.2,4.9,3.1
			c0.4,0.2,0.8,0.4,1.2,0.6c0.7,0.4,1.4,0.6,2.3,0.7c1.6,0.1,3.1,0.6,4.8,0.3c1.5-0.2,3.1-0.4,4.6-0.7c0.8-0.1,1.6-0.4,2.4-0.7
			c0.5-0.2,0.9-0.5,1.6-0.8c-0.9-0.7-1.6-1-2.4-0.5c-0.2,0.1-0.4,0.2-0.6,0.2c-1.6,0-3.2,0.3-4.8,0.5c-0.7,0.1-1.5-0.1-2.2-0.3
			c-1-0.2-2.1-0.5-3.1-0.7c-1.9-0.5-3.5-1.5-5-2.7c-1-0.9-2.2-1.7-3-2.7c-1.2-1.4-2.8-2.3-4.1-3.7c-0.5-0.6-1-1.1-1.4-1.8
			c-1.4-2.2-2.7-4.5-4.1-6.6c-0.6-0.9-1.1-1.8-1.3-2.9c0-0.4-0.2-0.8-0.3-1.1c-0.3-1.1-0.8-1.8-2.1-2c-1.1-0.1-1.9-0.8-2.6-1.6
			c-0.5-0.5-1-0.8-1.6-1.3c-0.3-0.9-1.1-1.1-1.8-1.6c-0.2-0.6-0.3-1.1-0.5-1.8c-1.2-0.7-2.1-1.8-2.8-3.2c-0.1-0.2-0.4-0.4-0.5-0.6
			c-0.3-0.6-0.6-1.1-0.8-1.7c-0.4-1.5,0-2.8,0.7-4.1c0.2-0.4,0.5-0.8,0.9-1.1c0.6-0.4,1.2-0.9,1.8-1.3c0.7-0.4,0.9-0.3,1.4,0.3
			c0.7,0.9,1.5,1.5,2.8,1.5c1.2-0.1,2.3-0.2,3.3-0.7c0.1-0.1,0.3-0.1,0.6-0.1c0,1-0.1,2,0,2.9c0.2,1.5,0.7,2.9,1.7,4.1
			c1,1.2,2.1,2,3.3,2.8c0.3,0.2,0.6,0.4,0.9,0.6c0.4,0.3,0.7,0.7,1.4,0.6c0.4-0.1,0.8,0.4,1.3,0.5c1,0.3,2,0.6,3.1,0.8
			c0.8,0.1,1.7,0.2,2.5,0.1c1.1-0.1,2.2-0.3,3.2-0.9c0.5-0.3,1.1-0.4,1.3-1.1c0-0.1,0.2-0.2,0.4-0.3c1.6-0.9,2.9-2.1,4-3.5
			c0.1,0,0.3,0,0.4,0c-0.2,0.6-0.5,1.2-0.7,1.9c-0.3,0.9-0.5,1.9-0.8,2.8c-0.2,0.7-0.5,1.3-0.7,2c-0.1,0.5-0.1,1-0.1,1.5
			c-0.1,0.5,0,0.9,0.5,1.2c0.6,0.4,1.2,0.7,1.9,0.8c1.2,0.3,2.3,0.9,3.5,0.7c0.6-0.1,1.2-0.1,1.8-0.1c1.7-0.1,2.3-1.2,1.5-2.6
			c-0.7,0.2-1.6,0.1-2.2,0.5c-0.7,0.6-1.3,0.1-1.9,0.1c-0.7,0-1.2-0.5-1.6-1.1c-0.5-0.7-0.1-1.5-0.2-2.2c-0.1-0.5,0.2-1.1,0.4-1.7
			c0.1-0.4,0.5-0.8,0.5-1.3c0.2-0.9,0.6-1.8,1-2.6c0.5-0.9,1.1-2,0.5-3c-1-0.7-1.8-0.6-2.5,0.1c-0.1,0-0.2,0-0.3,0
			c0-0.2,0-0.5,0-0.7c0,0,0,0,0,0C146,106.5,146,106.4,146.1,106.3z M155.1,127.9c-0.4-0.1-0.6-0.1-0.9-0.2
			c-0.8-0.1-1.6-0.2-2.5-0.2c-0.5,0-1-0.2-1.4-0.1c-1.5,0.2-2.8-0.2-4.2-0.4c-1.4-0.2-2.8,0-4.2,0.2c-0.8,0.1-1.7,0.5-2.1,1.4
			c0.3,1.1,1,1.2,2.2,1.1c1.5,0,3-0.3,4.4,0c2.1,0.4,4.2-0.1,6.3,0.1c0.4,0,0.9,0,1.3-0.1c0.3-0.1,0.6-0.2,0.7-0.5
			C154.9,128.9,154.9,128.4,155.1,127.9z M153,132.3c-1.8,0-3.6,0-5.4,0.2c-0.5,0.1-0.9,0.3-0.9,0.8c0,0.5,0.5,0.7,0.9,0.7
			c1.4,0.1,2.8,0.1,4.2,0.2C153.2,134.2,153.4,133.8,153,132.3z"/>
		<path style="fill:#F8D9C4;" d="M173.1,89.7c1.7,0.9,3.4,1.8,5.2,2.7c-0.1,1.6,1.1,2.9,1.6,4.3c0.6,1.7,2.3,2.2,3.4,3.7
			c-2.4,0.1-4.6,0.3-6.7,0.4c-0.2-0.5-0.4-0.9-0.4-1.3c0-1.1-0.6-1.8-1.4-2.4c-0.2-0.2-0.5-0.3-0.6-0.6c-0.8-1-1.9-1.2-3-1.6
			c-0.5-0.2-1-0.3-1.5-0.5c-1.7-0.6-3.3-1.2-5-1.7c-0.5-0.1-1-0.1-1.5,0c-1.4,0.3-2.7,0.6-4.1,0.9c-0.1,1.6-1.1,2.6-2.3,3.4
			c-0.1,0-0.1,0.1-0.2,0.2c-0.8,1.3-2.1,1.1-3.3,0.9c-1-0.2-2-0.1-3.1,0c-0.9,0.1-1.8,0.1-2.7,0.2c-0.4,0-0.7,0.2-1,0.2
			c-0.8,0.2-1.1,0.1-1.4-0.7c0-0.1-0.1-0.2-0.1-0.3c-0.1-0.8-0.6-1.4-1.1-2.1c-0.9-1.1-1.8-2.1-3.2-2.5c-0.9-0.2-1.8-0.4-2.7-0.7
			c-0.7-0.2-1.5-0.3-2.2-0.5c-1-0.3-2-0.6-2.8,0.4c0,0.1-0.1,0.1-0.2,0.1c-0.1,0-0.2,0-0.4,0c0-0.2-0.1-0.5,0-0.7
			c0.2-0.5,0.5-0.9,0.7-1.4c0.9-1.5,1.9-3,2.8-4.6c0.4-0.7,0.7-1.4,1.1-2.3c2.7-0.5,5.4-1.2,8.3-1.6c1.8-0.2,3.4-1,5.1-1.5
			c0.8-0.2,1.6-0.8,2.3-1.4c1.7-1.3,3.4-2.6,4.8-4.2c0.5-0.6,1.1-1.2,1.6-1.7c0.2-0.2,0.6-0.4,1-0.7c0.5,1.5,1.2,2.8,1.4,4.3
			c0.1,1,0.4,2,0.6,3c0.4,2.1,1.7,3.7,3,5.3c0.1,0.1,0.2,0.2,0.2,0.3c0.6,1.4,1.9,1.8,3.1,2.4c0.5,0.2,1,0.4,1.6,0.6
			c0.1,0.1,0.2,0.1,0.3,0.2c0,0,0.1,0,0,0c0.4,0.2,0.8,0.3,1.1,0.5c0,0,0,0,0,0C172.1,89.3,172.6,89.5,173.1,89.7z"/>
		<path style="fill:#F6F7F7;" d="M124.8,104.2c0-1.9,0.6-3.6,1.7-5.1c0.9-1.4,2.3-2.4,3.8-3.2c1.5-0.8,3.2-1,4.8-1.2
			c0.9-0.1,1.6,0.5,2.3,0.8c0.5,0.1,0.9,0.4,1.5,0.3c0.7-0.1,2.3,1.2,2.5,1.9c0.1,0.3,0.3,0.6,0.5,0.9c0.7,0.8,1.2,1.8,1.2,2.9
			c0,0.7,0.2,1.4,0.2,2.1c0,0.2,0.1,0.5,0,0.7c-0.4,1.7-0.7,3.4-1.9,4.8c-0.4,0.5-1,0.9-1.4,1.4c-0.4,0.3-0.7,0.8-1.1,1
			c-1.7,1-3.5,1.8-5.6,1.1c-1.1-0.4-2.3-0.6-3.5-0.9c-0.1,0-0.2-0.1-0.2-0.1c-1-0.8-2.2-1.5-3-2.4c-0.7-0.8-1.2-1.9-1.6-3
			C124.8,105.7,124.8,104.9,124.8,104.2z M133.6,106.6c1.9-0.1,3.8,0,5.6-0.8c1.3-0.5,1.9-2.2,1-3.3c-0.6-0.7-1.2-1.5-1.8-2.2
			c-0.5-0.6-0.9-1.3-1.9-0.9c-0.2,0.1-0.4-0.2-0.7-0.2c-0.3-0.1-0.6-0.1-0.8-0.1c-2.4,0.3-4.8,0.7-7.2,0.8c-0.7,0-1,0.3-1.2,0.9
			c-0.3,1.2-0.3,2.4-0.1,3.6c0.1,0.6,0.5,1.1,1.1,1.4c1.6,0.7,3.1,1.2,4.9,0.9C132.9,106.7,133.2,106.7,133.6,106.6z"/>
		<path style="fill:#F7F8F7;" d="M173.8,102.9c0.1,1.3-0.3,2.5-0.7,3.8c-0.4,1.4-0.9,2.7-1.8,3.8c-0.9,1.1-1.8,2.1-3.1,2.8
			c-0.7,0.4-1.5,0.6-2.3,0.2c-0.6-0.3-1.3-0.4-1.9-0.7c-0.9-0.4-1.9-0.8-2.8-1.2c-0.2-0.1-0.2-0.3-0.4-0.4c-0.3-0.3-0.6-0.7-1-1
			c-2.2-1.4-2.7-3.5-2.7-6c0-1.5,0.4-2.8,1.4-3.9c0.4-0.5,0.6-1.2,0.9-1.8c0.7-1.2,1.8-1.9,3.1-2.4c1.5-0.6,2.9-0.4,4.4,0.1
			c1.4,0.5,2.9,1,4.3,1.6c0.5,0.2,0.9,0.5,1.2,0.9C173.4,99.9,173.8,101.3,173.8,102.9z M171.5,105.5c0-1.2,0-2.1,0-3
			c0-0.8-0.4-1.2-1-1.5c-0.4-0.2-0.8-0.5-1.3-0.6c-0.9-0.2-1.9-0.5-2.8-0.5c-1,0-2,0.3-2.9,0.4c-1.5,0.3-2.9,0.7-4.1,1.5
			c-1,0.7-1,2.2,0,2.9c0.4,0.3,0.8,0.6,1.2,0.7c1,0.3,2,0.5,3,0.8c0.5,0.1,1,0.3,1.6,0.2c1-0.2,2.1-0.1,3.1-0.4
			C169.4,105.8,170.4,105.7,171.5,105.5z"/>
		<path style="fill:#F2CFB7;" d="M156,159.9c-0.4,0.1-0.8,0.2-1.3,0.3c0,0.2-0.1,0.4-0.1,0.7c-0.1,1.1-0.7,1.8-1.8,1.8
			c-0.8,0-1.7-0.1-2.5-0.2c-0.4,0-0.8-0.1-1.2-0.1c-2.6,0.1-5.2-0.2-7.7-0.8c-2.2-0.5-4.4-1.2-6.7-1.8c-3.5-1-6.6-2.8-9.5-4.9
			c-0.2-0.2-0.6-0.3-0.8-0.4c-0.1-0.4-0.3-0.8-0.4-1.2c-0.3-0.6-0.7-1.3-1-2c0.4-0.2,0.8-0.4,1.2-0.7c-0.1,0.2-0.2,0.3-0.3,0.5
			c0.5,0.2,1,0.4,1.4,0.7c1.2,0.8,2.5,1.7,3.7,2.5c0.5,0.3,1.2,0.5,1.8,0.7c0.2,0.1,0.4,0.2,0.7,0.4c0.4,0.3,0.7,0.6,1.1,0.8
			c1.2,0.5,2.5,0.9,3.7,1.6c0.8,0.5,1.7,0.7,2.6,1c1.1,0.3,2.2,0.6,3.3,0.9c1.5,0.3,3,0.9,4.6,0.6c1.1-0.2,2.2-0.1,3.3-0.2
			c1.3,0,2.6,0,3.9-0.5c0.2,0,0.5,0,0.7,0C155.2,159.8,155.6,159.9,156,159.9z"/>
		<path style="fill:#F5F6F6;" d="M127.1,166c1.8-0.5,1.8-0.5,3.4,0.1c0.3,0.5,0.6,1,0.9,1.3c0.7,0.8,0.8,1.5,0.2,2.4
			c-0.4,0.6-0.6,1.3-1.4,1.5c-1,0.3-2,0.4-2.9-0.1c-0.7-0.4-1.5-0.9-1.7-1.5c-0.2-0.6,0.2-1.4,0.5-2.1
			C126.3,167.1,126.7,166.7,127.1,166z"/>
		<path style="fill:#F5F6F6;" d="M114.9,116.4c0.7,0.4,1.5,0.7,1.8,1.6c-1,0.1-1.6,0.9-1.9,1.8c-0.4,0.9,0.4,2.3,1.5,2.7
			c0.9,0.3,1.8,0.5,2.6,0.7c0.3,0.1,0.5,0.3,0.8,0.5c-0.2,0.2-0.3,0.5-0.5,0.7c-0.9,0.7-1.9,0.6-2.9,0.4c-0.9-0.2-1.8-0.7-2.5-1.3
			c-2-1.7-1.9-4.5-0.2-6.1C113.9,116.9,114.4,116.7,114.9,116.4z"/>
		<path style="fill:#EEEFEF;" d="M182.8,123.6c-0.1-2.4-0.1-2.4,0.9-2.4c0.1,0.3,0.2,0.8,0.4,0.9c0.6,0.3,1.2,0.6,1.9,0.7
			c0.6,0.1,1.3-0.6,1.4-1.3c0.2-1.4,0.3-2.9-0.1-4.3c-0.1-0.4-0.1-0.9,0-1.3c0-0.2,0.3-0.5,0.5-0.6c0.2-0.1,0.5,0.1,0.6,0.2
			c0.2,0.2,0.4,0.5,0.5,0.8c0.6,1.7,0.8,3.4,0.3,5.1c-0.1,0.2-0.2,0.4-0.2,0.6c-0.3,1.7-1.8,2.7-3.8,2.3
			C184.4,124.3,183.6,123.9,182.8,123.6z"/>
		<path style="fill:#F2F3F3;" d="M125,158.5c1.4,1.4,1,3,0.6,4.6c-0.2,0.9-0.9,1.2-1.8,1c-0.6-0.2-1.3-0.4-1.8-0.8
			c-1-0.8-1.1-1.3-0.5-2.5c0.4-0.8,0.5-1.8,1.6-2.1c0.3-0.1,0.7-0.2,0.9,0C124.4,159,124.7,158.7,125,158.5z"/>
		<path style="fill:#494E4B;" d="M154.1,159.8c-1.2,0.6-2.6,0.5-3.9,0.5c-1.1,0-2.2,0-3.3,0.2c-1.6,0.2-3.1-0.3-4.6-0.6
			c-1.1-0.2-2.2-0.5-3.3-0.9c-0.9-0.3-1.8-0.5-2.6-1c-1.2-0.7-2.4-1.1-3.7-1.6c-0.4-0.2-0.8-0.5-1.1-0.8c0.7,0.2,1.4,0.5,2.1,0.7
			c3.9,1.4,7.9,2.4,12,3.1c1.2,0.2,2.4,0,3.6,0.1c1.4,0.1,2.9,0.1,4.3,0.2C153.8,159.6,153.9,159.7,154.1,159.8z"/>
		<path style="fill:#F1F1F1;" d="M138.3,59c0.1,0.2,0.1,0.3,0.2,0.4c0.7,1.2,0.5,1.7-0.9,2.1c-0.3,0.1-0.5,0.1-0.8,0.1
			c-1.5-2.5-0.6-5.2,2.1-6.3c0.7-0.3,1.5-0.3,2.2-0.5c0.4-0.1,0.8,0,1,0.4c0.2,0.5-0.3,0.7-0.7,0.8c-0.3,0.2-0.8,0.2-1.1,0.5
			c-0.6,0.5-1.1,1-1.6,1.6C138.5,58.3,138.5,58.7,138.3,59z"/>
		<path style="fill:#ECEDED;" d="M118.9,76.4c0.1-0.9-0.5-1.8,0-2.7c0.5-0.9,0.9-1.9,1.6-2.7c0.9-1.2,2.3-1.4,3.7-1
			c0.3,0.1,0.5,0.4,1,0.8c-1.6,0.1-2.5,1.1-3.4,1.7c-0.2,1.1-1.1,2.2-0.4,3.3C120.4,76.7,120.4,76.7,118.9,76.4z"/>
		<path style="fill:#EEF0F0;" d="M177.4,64.9c-0.1,0.3-0.2,0.6-0.3,0.8c-0.6,1-0.9,1.1-1.9,0.5c-0.1,0-0.1-0.1-0.2-0.1
			c-1-0.2-1.9-0.5-2.9-0.4c-0.3,0-0.6,0.2-1,0.4c-0.7,0.3-1.4,0.6-2.1,0.9c-0.8-0.8-0.8-0.9-0.2-1.6c1.1-1.1,2.4-1.8,4-1.6
			c0.3,0,0.7,0.2,1,0.3C175.1,63.5,176.1,63.7,177.4,64.9z"/>
		<path style="fill:#F2F3F3;" d="M172.7,73.3c0.8-0.3,1.7-0.5,2.4,0.4c-0.3,0.7,0.2,1.2,0.5,1.9c0.3,0.8,0.9,0.9,1.5,1.1
			c0.5,0.1,0.9,0.6,1.4,0.9c0,1.1,0,1.1-0.9,1.2c-2,0.2-4.4-1.4-5-3.3C172.4,74.7,172,74,172.7,73.3z"/>
		<path style="fill:#F1F1F1;" d="M115,93.3c-0.3,0.4-0.6,0.7-0.9,1.1c-0.3-0.1-0.6-0.1-0.9-0.2c-0.9-0.4-1.2-1-1-2
			c0.2-0.9,0.5-1.8,0.7-2.7c0.2-0.6,0.7-0.9,1.2-1.1c0.4-0.2,0.9-0.3,1.3-0.5c0.2-0.1,0.4-0.2,0.6-0.1c0.3,0.1,0.8,0.3,1,0.6
			c0.3,0.5-0.2,0.8-0.6,1c-1.5,0.8-1.7,2.1-1.4,3.6C115,93.1,115,93.2,115,93.3z"/>
		<path style="fill:#ECEDED;" d="M143.6,68.8c-0.3,0.5-0.5,1-0.8,1.4c-0.4,0.4-1,0.7-1.5,0.9c-1.2,0.5-2.3,1.1-3.6,1.5
			c-0.7,0.2-1.6,0.2-2.4,0.1c-0.5,0-0.6-0.6-0.2-0.9c0.7-0.5,1.5-1,2.3-1.3c1.2-0.4,2.5-0.6,3.5-1.4c0.2-0.1,0.4-0.3,0.6-0.4
			C142.3,68,142.5,68,143.6,68.8z"/>
		<path style="fill:#EEF0F0;" d="M188.6,88.3c-0.2,0.2-0.4,0.4-0.7,0.5c-1.6,0.5-3,0.3-4.5-0.5c-0.8-0.5-1.3-1.1-1.5-2
			c-0.2-0.7,0.2-1.2,0.7-1.6c0.5-0.4,1-0.4,1.5-0.1c0.2,0.1,0.4,0.5,0.4,0.7c0.1,1.3,0.4,1.7,1.7,1.9c0.4,0.1,0.8,0.1,1.2,0.2
			C187.9,87.5,188.4,87.7,188.6,88.3z"/>
		<path style="fill:#F1F1F1;" d="M122.2,154.5c0,0.1,0,0.3-0.1,0.4c-0.8,1.3-2.9,2.1-4.2,1.5c-0.4-0.2-0.8-0.7-1-1.1
			c-0.2-0.5,0.2-0.9,0.6-1.2c0.8-0.5,1.5-1,2.3-1.4C121.1,152.1,122.3,153,122.2,154.5z"/>
		<path style="fill:#EAEBEB;" d="M149.5,54.6c0.9-0.6,1.7-1,2.8-0.4c1,0.5,2.1,0.8,3,1.6c0.3,0.2,0.5,0.4,0.5,0.8
			c0.1,0.8-0.1,1.2-0.8,1.1c-0.5-0.1-1.2-0.3-1.5-0.6c-0.7-1-1.7-1.1-2.7-1.4C150.1,55.4,150.1,55.5,149.5,54.6z"/>
		<path style="fill:#ECEDED;" d="M181.8,160c-1.7-0.8-2.2-1.8-1.5-3.4c0.4-0.9,1.1-1,1.8-0.3c0.8,0.7,0.8,1.5,0.9,2.3
			C183.1,159.2,182.9,159.3,181.8,160z"/>
		<path style="fill:#494E4B;" d="M130.9,155.2c-0.6-0.2-1.3-0.4-1.8-0.7c-1.3-0.8-2.5-1.7-3.7-2.5c-0.4-0.3-0.9-0.5-1.4-0.7
			c0.1-0.2,0.2-0.3,0.3-0.5c-0.4,0.2-0.8,0.4-1.2,0.7c0.4,0.7,0.7,1.4,1,2c-0.6-0.4-1.1-0.9-1.7-1.3c0.1-0.5,0.2-0.8,0.3-1.1
			c0.5-1,1.5-1.3,2.4-0.6c0.2,0.2,0.4,0.4,0.6,0.6c1.2,1.3,2.5,2.4,4.1,3.2C130.2,154.4,130.5,154.8,130.9,155.2z"/>
		<path style="fill:#EAEBEB;" d="M191.9,86.8c-0.3-0.6-0.5-1.2-0.8-1.7c1.7-1.4,2.3-1.2,3,0.9C193.4,87,193.4,87,191.9,86.8z"/>
		<path style="fill:#DADDDD;" d="M180.3,153.6c-1.1,0.1-2-0.3-3-0.7c-0.6-0.3-1.3-0.5-2-0.7c0.9-0.5,1.7-0.5,2.6,0.1
			c0.6,0.4,1.3,0.6,1.9,0.9C180.1,153.2,180.2,153.5,180.3,153.6z"/>
		<path style="fill:#F3C09E;" d="M145.2,110.2c-0.1,0-0.3,0-0.4,0c0.2-0.5,0.3-0.9,0.5-1.4c0.1-0.1,0.1-0.2,0.2-0.3
			c0.1-0.4,0.2-0.8,0.3-1.2c0.1,0,0.1,0,0.2,0c0.1,0,0.2,0,0.3,0C145.9,108.3,145.5,109.2,145.2,110.2z"/>
		<path style="fill:#1E1A1A;" d="M116.5,58.6c-0.8,0.3-1.7,0.6-2.5,0.9c0-0.1,0-0.2-0.1-0.2C114.6,58.6,115.5,58.6,116.5,58.6
			L116.5,58.6z"/>
		<path style="fill:#1E1A1A;" d="M173.1,89.7c-0.5-0.2-1-0.4-1.4-0.6c0.4-0.1,0.8-0.2,1.3-0.3C173,89.2,173,89.4,173.1,89.7z"/>
		<path style="fill:#494E4B;" d="M156,159.9c-0.4,0-0.8-0.1-1.2-0.1c0.7-0.1,1.4-0.2,2.1-0.2C156.6,159.7,156.3,159.8,156,159.9z"/>
		<path style="fill:#322E2D;" d="M171.6,89.1c-0.4-0.2-0.8-0.3-1.1-0.5C170.9,88.7,171.5,88.3,171.6,89.1z"/>
		<path style="fill:#322E2D;" d="M102.5,70.4c0.2-0.3,0.5-0.6,0.7-0.9C103.4,70,102.9,70.2,102.5,70.4z"/>
		<path style="fill:#322E2D;" d="M126.8,161.8c0.1,0.1,0.2,0.2,0.2,0.3c0,0.1-0.1,0.2-0.2,0.3c-0.1-0.1-0.2-0.1-0.2-0.2
			C126.6,162.1,126.7,162,126.8,161.8z"/>
		<path style="fill:#494E4B;" d="M158.1,159.3c-0.4,0.1-0.8,0.2-1.2,0.2C157.4,159.5,157.8,159.4,158.1,159.3z"/>
		<path style="fill:#1E1A1A;" d="M116.4,58.6c0.2-0.2,0.4-0.4,0.6-0.5c0.1,0.1,0.1,0.2,0.2,0.2C117,58.4,116.7,58.5,116.4,58.6
			C116.5,58.6,116.4,58.6,116.4,58.6z"/>
		<path style="fill:#322E2D;" d="M101.8,71.3c0-0.3,0-0.7,0.5-0.7C102.1,70.8,102,71.1,101.8,71.3z"/>
		<path style="fill:#322E2D;" d="M145.9,107.3c-0.1,0-0.1,0-0.2,0c0.1-0.3,0.1-0.5,0.2-0.8C145.9,106.8,145.9,107.1,145.9,107.3z"/>
		<path style="fill:#322E2D;" d="M104.4,67c-0.2,0.2-0.3,0.3-0.5,0.5c0,0,0,0,0,0C104.1,67.3,104.3,67.2,104.4,67L104.4,67z"/>
		<path style="fill:#322E2D;" d="M106.4,64.6c0,0.1-0.1,0.2-0.1,0.3C106.3,64.8,106.3,64.7,106.4,64.6L106.4,64.6z"/>
		<path style="fill:#322E2D;" d="M104.5,67c0.1-0.2,0.2-0.3,0.2-0.5l0,0C104.6,66.7,104.5,66.8,104.5,67C104.4,67,104.5,67,104.5,67
			z"/>
		<path style="fill:#494E4B;" d="M158.7,159.3c-0.2,0-0.3,0-0.5,0C158.3,159.3,158.5,159.3,158.7,159.3z"/>
		<path style="fill:#1E1A1A;" d="M112.9,60.1c-0.1,0.1-0.2,0.2-0.2,0.2l0,0C112.7,60.2,112.8,60.1,112.9,60.1
			C112.8,60,112.9,60.1,112.9,60.1z"/>
		<path style="fill:#1E1A1A;" d="M112.8,60c0,0,0.1-0.1,0.1-0.1C112.9,60,112.9,60,112.8,60C112.9,60.1,112.8,60,112.8,60z"/>
		<path style="fill:#1E1A1A;" d="M112.6,60.3C112.6,60.3,112.6,60.4,112.6,60.3C112.6,60.3,112.6,60.3,112.6,60.3
			C112.6,60.3,112.6,60.3,112.6,60.3z"/>
		<path style="fill:#494E4B;" d="M160.5,159.1c-0.1,0-0.1,0.1-0.2,0.1C160.4,159.2,160.5,159.1,160.5,159.1z"/>
		<path style="fill:#322E2D;" d="M106.4,64.6c0,0,0-0.1,0.1-0.1C106.4,64.5,106.4,64.6,106.4,64.6C106.4,64.6,106.4,64.6,106.4,64.6
			z"/>
		<path style="fill:#322E2D;" d="M105.6,65.6c0,0,0.1-0.1,0.1-0.1C105.7,65.5,105.7,65.5,105.6,65.6
			C105.7,65.6,105.6,65.6,105.6,65.6z"/>
		<path style="fill:#322E2D;" d="M105.4,65.8c0.1-0.1,0.2-0.2,0.2-0.2c0,0,0,0,0,0C105.6,65.6,105.5,65.7,105.4,65.8
			C105.4,65.8,105.4,65.8,105.4,65.8z"/>
		<path style="fill:#322E2D;" d="M105.2,66c0.1-0.1,0.2-0.2,0.2-0.2c0,0,0,0,0,0C105.3,65.9,105.3,66,105.2,66
			C105.2,66,105.2,66,105.2,66z"/>
		<path style="fill:#322E2D;" d="M104.9,66.3c0.1-0.1,0.2-0.2,0.2-0.2c0,0,0,0,0,0C105.1,66.1,105,66.2,104.9,66.3
			C104.9,66.3,104.9,66.3,104.9,66.3z"/>
		<path style="fill:#322E2D;" d="M104.7,66.5c0.1-0.1,0.2-0.2,0.2-0.2c0,0,0,0,0,0C104.9,66.4,104.8,66.4,104.7,66.5
			C104.7,66.5,104.7,66.5,104.7,66.5z"/>
		<path style="fill:#322E2D;" d="M102.3,70.6c0.1-0.1,0.2-0.2,0.2-0.2C102.5,70.4,102.4,70.5,102.3,70.6z"/>
		<path style="fill:#322E2D;" d="M146.1,106.3c0,0.1-0.1,0.1-0.1,0.2C146,106.5,146,106.4,146.1,106.3z"/>
		<path style="fill:#322E2D;" d="M146.2,105.6c0,0.1-0.1,0.2-0.1,0.2C146.1,105.8,146.2,105.7,146.2,105.6z"/>
		<path style="fill:#322E2D;" d="M170.4,88.5c-0.1-0.1-0.2-0.1-0.3-0.2C170.2,88.4,170.3,88.5,170.4,88.5z"/>
		<path style="fill:#322E2D;" d="M145.4,108.5c-0.1,0.1-0.1,0.2-0.2,0.3C145.3,108.7,145.4,108.6,145.4,108.5z"/>
		<path style="fill:#0C0A09;" d="M163.5,176.2c-0.3,1.4-0.7,2.7-1.7,3.8c-0.9,1-1.9,1.5-3.4,1.3c-1.3-0.1-2.3-0.8-3.4-1.4
			c-0.2-0.1-0.3-0.3-0.4-0.5c-0.1-0.5-0.5-0.7-0.9-0.9c-0.9-0.5-1-1-0.6-1.9c0.4-0.9,0.8-1.7,1.3-2.5c0.6-1,1.4-1.5,2.6-1.7
			c1.6-0.3,3.1-0.1,4.6,0.7c0.3,0.2,0.7,0.2,1,0.2c0.4-1.1,0.8-2.1,1.1-3.1c0.4-1.6,1.7-2.1,3-2.3c0.8-0.1,1.6-0.3,2.3-0.6
			c0.5-0.2,0.9-0.3,1.5-0.1c1.2,0.4,1.4,0.1,1.8-1.1c0.5-1.3,0.3-2.8,1.4-3.9c1-1,2.1-1.4,3.5-0.9c0.5,0.2,1,0.4,1.4,0.5
			c1.3,0.5,2,1.5,2.6,2.7c0.6,1.1,0.4,2.2,0.3,3.3c-0.1,0.5-0.3,1-0.5,1.4c-0.3,0.7-0.8,1.3-1.2,2c-0.5,0.8-1.5,1.3-2.5,1.3
			c-1.3-0.1-2.5-0.4-3.5-1.2c-0.1-0.1-0.3-0.1-0.6-0.3c0,0.6-0.1,1.1,0,1.6c0.2,1.1-0.1,2.1-0.8,3c-0.5,0.6-0.9,1.3-1.6,1.8
			c-2,1.4-4,1.3-6-0.2C164.3,176.8,163.9,176.5,163.5,176.2z M171,172.3c0.1-0.9,0.1-1.7-0.8-2.1c-1.1-0.6-2.2-0.5-3.2-0.2
			c-0.8,0.3-1,1.1-1.2,1.8c-0.1,0.5-0.3,1-0.3,1.5c0,0.4,0.1,0.8,0.2,1.2c0.4,1.1,1.3,1.5,2.4,1.7c0.5,0.1,2-0.4,2.1-0.7
			C170.5,174.4,171.3,173.5,171,172.3z M174.5,166.7c0,0.1,0,0.3-0.1,0.5c-0.1,1.2,0.7,2,1.3,2.8c0.3,0.5,2.3,0.1,2.7-0.5
			c0.7-1.1,1.2-2.2,1.3-3.5c0.1-0.8-0.3-1.4-0.9-1.8c-0.7-0.6-1.6-0.6-2.5-0.8c-0.6-0.1-1,0.1-1.2,0.6
			C174.9,164.8,174.4,165.6,174.5,166.7z M161.3,176c-0.3-0.3-0.7-0.7-1-1c-0.8-0.6-1.6-1.3-2.6-0.9c-0.8,0.3-1.5,1.1-1.7,2
			c-0.2,1.2,0.6,2.3,1.9,2.7c1,0.3,1.9-0.1,2.4-1.1C160.7,177.2,161,176.6,161.3,176z"/>
		<path style="fill:#0C0A09;" d="M145.7,171.7c0.1,0,0.1-0.1,0.2-0.1c0.6,0,1.1,0,1.7,0c0.1,0,0.2,0.1,0.3,0.1
			c0.6,0.7,1.4,0.3,2.1,0.4c0,0,0.1,0,0.1,0c0.1,0.1,0.2,0.1,0.3,0.2c0.4,0.1,0.7,0.3,0.8,0.7c0.2,0.7,0.6,1.4,0.8,2.1
			c0.2,0.4,0.4,0.9,0.3,1.2c-0.2,0.6-0.6,1.2-0.8,1.8c-0.2,0.7-0.6,1.1-1.3,1.3c-0.2,0-0.3,0.2-0.5,0.3c-2.1,1.4-4.2,1-6.3,0
			c-0.8-0.4-1.2-1.1-1.6-1.8c-0.1-0.2-0.2-0.4-0.2-0.6c-0.1-0.3-0.2-0.6-0.3-1c0-0.2,0.1-0.4,0.1-0.7c0.1-0.1,0.1-0.2,0.2-0.3
			c0,0,0-0.1,0-0.1c0.1-0.2,0.2-0.4,0.3-0.6c0.1,0,0.1-0.1,0.2-0.2c0.1-0.4,0.3-0.7,0.4-1.1c0.9,0,0.9,0,1.1-0.9
			c0.1-0.1,0.2-0.2,0.3-0.3c0.1-0.1,0.3-0.1,0.4-0.2c0,0,0.1,0,0.1,0C144.8,172,145.4,172.2,145.7,171.7z M144.3,175.9
			c-0.1,1.1,0.4,2,1.4,2.3c1.2,0.3,2.3,0.4,3.5-0.4c0.7-0.5,0.8-1.1,0.8-1.7c0.1-0.7-0.2-1.4-0.8-1.7c-0.9-0.4-1.8-0.6-2.7-0.9
			c-0.2,0-0.4,0-0.6,0.1C145.1,174.3,144.2,174.8,144.3,175.9z"/>
		<path style="fill:#100D0C;" d="M140.7,176.6c-0.5,1.3-1.4,2.3-2.3,3.2c-0.4,0.4-1,0.6-1.5,0.8c-0.5,0.2-1.1,0.3-1.7,0.5
			c0,0.1,0,0.2,0,0.3c-0.9-0.5-1.9-0.9-2.7-1.6c-0.4-0.3-0.8-1-0.8-1.5c-0.1-1-0.3-2,0.3-2.9c0.5-0.7,0.8-1.4,1.2-2.1
			c0.7-1.2,1.8-1.7,3.1-1.8c1.4-0.1,2.8,0.2,4,1.1c0.2,0.2,0.3,0.5,0.5,0.8c0.1,0.1,0.2,0.3,0.2,0.4c0,0.1,0,0.3,0.1,0.4
			c0,0.3,0,0.6,0,0.9c0,0.1,0,0.3,0,0.4C140.8,176,140.7,176.3,140.7,176.6z M132.6,177.1c0.7,0.7,1.1,1.2,1.6,1.7
			c0.5,0.5,1.3,0.7,1.9,0.3c0.7-0.4,1.3-0.9,1.9-1.5c0.2-0.2,0.1-0.7,0.2-1c0-0.2,0.2-0.3,0.3-0.5c0.2-0.3,0.3-0.6,0.4-0.9
			c-0.3-0.2-0.6-0.3-0.8-0.5c-0.2-0.2-0.3-0.4-0.5-0.7c-0.5-0.7-0.8-0.7-1.6-0.4c-1.4,0.6-2.3,1.7-2.5,3.2
			C133.3,176.9,133.1,177,132.6,177.1z"/>
		<path style="fill:#100D0C;" d="M150,172.1c-0.7-0.1-1.5,0.3-2.1-0.4C148.6,171.8,149.3,172,150,172.1z"/>
		<path style="fill:#322E2D;" d="M140.7,176.6c0.1-0.3,0.2-0.6,0.3-0.9c0.2,0,0.3,0,0.5,0c0,0.2-0.1,0.4-0.1,0.7
			C141.1,176.4,140.9,176.5,140.7,176.6z"/>
		<path style="fill:#100D0C;" d="M145.7,171.7c-0.3,0.6-0.9,0.4-1.4,0.4C144.8,172,145.2,171.8,145.7,171.7z"/>
		<path style="fill:#100D0C;" d="M143.6,172.6c-0.2,0.9-0.2,0.9-1.1,0.9C142.9,173.2,143.2,172.9,143.6,172.6z"/>
		<path style="fill:#100D0C;" d="M147.6,171.6c-0.6,0-1.1,0-1.7,0C146.5,171.2,147.1,171.4,147.6,171.6z"/>
		<path style="fill:#322E2D;" d="M141,175.3c0-0.3,0-0.6,0-0.9C141.5,174.7,141.2,175,141,175.3z"/>
		<path style="fill:#322E2D;" d="M141.6,177.3c0.1,0.2,0.2,0.4,0.2,0.6C141.7,177.7,141.6,177.5,141.6,177.3z"/>
		<path style="fill:#100D0C;" d="M144.3,172.1c-0.1,0.1-0.3,0.1-0.4,0.2C144,172.3,144.1,172.2,144.3,172.1z"/>
		<path style="fill:#322E2D;" d="M140.9,174c-0.1-0.1-0.2-0.3-0.2-0.4C140.7,173.7,140.8,173.8,140.9,174z"/>
		<path style="fill:#100D0C;" d="M150.3,172.3c-0.1-0.1-0.2-0.1-0.3-0.2C150.1,172.2,150.2,172.2,150.3,172.3z"/>
		<path style="fill:#100D0C;" d="M142.1,174.5c0,0.1-0.1,0.1-0.2,0.2C142,174.6,142.1,174.6,142.1,174.5z"/>
		<polygon style="fill:#100D0C;" points="141.6,175.3 141.6,175.4 141.6,175.3 		"/>
		<path style="fill:#0B0908;" d="M145.2,110.2c0.4-1,0.7-1.9,1.1-2.9c0.7-0.7,1.5-0.8,2.5-0.1c0.6,1,0,2-0.5,3
			c-0.4,0.9-0.8,1.7-1,2.6c-0.1,0.4-0.4,0.8-0.5,1.3c-0.2,0.6-0.5,1.2-0.4,1.7c0.1,0.7-0.3,1.5,0.2,2.2c0.4,0.6,0.9,1.1,1.6,1.1
			c0.6,0,1.2,0.5,1.9-0.1c0.5-0.4,1.4-0.4,2.2-0.5c0.8,1.5,0.2,2.5-1.5,2.6c-0.6,0-1.2,0.1-1.8,0.1c-1.3,0.2-2.4-0.4-3.5-0.7
			c-0.7-0.2-1.3-0.4-1.9-0.8c-0.5-0.3-0.5-0.7-0.5-1.2c0.1-0.5,0-1,0.1-1.5c0.2-0.7,0.4-1.3,0.7-2c0.3-0.9,0.5-1.9,0.8-2.8
			C144.7,111.4,145,110.8,145.2,110.2z"/>
		<path style="fill:#0B0908;" d="M155.1,127.9c-0.2,0.5-0.2,0.9-0.4,1.3c-0.1,0.2-0.5,0.4-0.7,0.5c-0.4,0.1-0.9,0.1-1.3,0.1
			c-2.1-0.2-4.2,0.2-6.3-0.1c-1.4-0.3-2.9,0-4.4,0c-1.2,0-1.9-0.1-2.2-1.1c0.4-0.9,1.2-1.3,2.1-1.4c1.4-0.1,2.8-0.4,4.2-0.2
			c1.4,0.2,2.8,0.6,4.2,0.4c0.5-0.1,0.9,0.1,1.4,0.1c0.8,0.1,1.6,0.2,2.5,0.2C154.4,127.8,154.7,127.9,155.1,127.9z"/>
		<path style="fill:#100D0C;" d="M153,132.3c0.4,1.5,0.2,1.9-1.1,1.9c-1.4,0-2.8-0.1-4.2-0.2c-0.5,0-0.9-0.2-0.9-0.7
			c0-0.5,0.4-0.7,0.9-0.8C149.4,132.2,151.2,132.3,153,132.3z"/>
		<path style="fill:#0E0D0D;" d="M133.6,106.6c-0.4,0-0.7,0-1.1,0.1c-1.7,0.3-3.3-0.2-4.9-0.9c-0.7-0.3-1-0.8-1.1-1.4
			c-0.2-1.2-0.2-2.4,0.1-3.6c0.2-0.6,0.5-0.9,1.2-0.9c2.4-0.1,4.8-0.5,7.2-0.8c0.3,0,0.5,0.1,0.8,0.1c0.2,0.1,0.5,0.3,0.7,0.2
			c1-0.4,1.4,0.3,1.9,0.9c0.6,0.7,1.2,1.5,1.8,2.2c0.9,1.1,0.3,2.7-1,3.3C137.4,106.6,135.5,106.5,133.6,106.6z M132.3,101.7
			c-0.4,0-0.6-0.1-0.8-0.1c-0.8,0.1-1.6,0.2-2.5,0.4c-1.2,0.2-1.5,0.8-1.1,1.9c0.7,0.2,1.2,0.5,1.8,0.7c0.9,0.3,1.7,0.6,2.7,0.1
			C131.5,103.7,132.2,102.8,132.3,101.7z M133.2,102c1.6,0.2,1,1.8,1.7,2.5c1.3,0.1,2.5,0,3.3-1.1
			C136.7,101.5,135.1,101.3,133.2,102z"/>
		<path style="fill:#0E0D0D;" d="M171.5,105.5c-1.1,0.2-2.2,0.3-3.2,0.6c-1,0.3-2.1,0.2-3.1,0.4c-0.6,0.1-1.1,0-1.6-0.2
			c-1-0.2-2-0.5-3-0.8c-0.4-0.1-0.9-0.4-1.2-0.7c-1-0.7-1-2.2,0-2.9c1.2-0.8,2.6-1.3,4.1-1.5c1-0.2,2-0.4,2.9-0.4
			c0.9,0,1.9,0.3,2.8,0.5c0.5,0.1,0.9,0.3,1.3,0.6c0.6,0.3,1,0.7,1,1.5C171.5,103.4,171.5,104.3,171.5,105.5z M170,103.4
			c-0.6-0.1-1.1-0.3-1.5-0.7c-0.2-0.2-0.6-0.2-0.9-0.3c-0.4-0.1-0.9-0.1-1.3-0.2c-0.5,0.9,0.1,1.6,0.4,2.3
			C167.9,104.4,169,104.2,170,103.4z M164.2,102.7c-0.1-0.1-0.1-0.1-0.2-0.2c-1,0.5-2.3,0.4-3.4,1.3c0.9,0.2,1.6,0.4,2.3,0.5
			c1.1,0.2,1.2,0.1,1.2-1C164.1,103.1,164.1,102.9,164.2,102.7z"/>
		<path style="fill:#F5F6F6;" d="M171,172.3c0.3,1.3-0.5,2.2-0.9,3.2c-0.1,0.4-1.6,0.8-2.1,0.7c-1.1-0.2-2-0.5-2.4-1.7
			c-0.1-0.4-0.2-0.8-0.2-1.2c0-0.5,0.1-1,0.3-1.5c0.2-0.7,0.4-1.6,1.2-1.8c1.1-0.4,2.2-0.4,3.2,0.2
			C171.1,170.6,171.1,171.4,171,172.3z"/>
		<path style="fill:#F6F7F7;" d="M174.5,166.7c-0.1-1.1,0.4-1.9,0.8-2.8c0.2-0.5,0.6-0.7,1.2-0.6c0.9,0.2,1.7,0.2,2.5,0.8
			c0.6,0.5,0.9,1.1,0.9,1.8c-0.1,1.3-0.7,2.4-1.3,3.5c-0.4,0.7-2.4,1-2.7,0.5c-0.6-0.9-1.4-1.7-1.3-2.8
			C174.4,167,174.5,166.9,174.5,166.7z"/>
		<path style="fill:#F2F3F3;" d="M161.3,176c-0.3,0.6-0.6,1.2-0.9,1.9c-0.5,1-1.4,1.4-2.4,1.1c-1.3-0.4-2.1-1.6-1.9-2.7
			c0.2-1,0.8-1.7,1.7-2c1-0.4,1.8,0.3,2.6,0.9C160.6,175.3,161,175.7,161.3,176z"/>
		<path style="fill:#F2F3F3;" d="M144.3,175.9c-0.1-1.2,0.8-1.7,1.7-2.2c0.2-0.1,0.4-0.2,0.6-0.1c0.9,0.3,1.8,0.5,2.7,0.9
			c0.7,0.3,0.9,1,0.8,1.7c-0.1,0.6-0.1,1.2-0.8,1.7c-1.2,0.8-2.3,0.8-3.5,0.4C144.7,178,144.2,177.1,144.3,175.9z"/>
		<path style="fill:#F2F3F3;" d="M132.6,177.1c0.5-0.1,0.7-0.2,1-0.3c0.2-1.5,1.1-2.5,2.5-3.2c0.8-0.4,1.1-0.3,1.6,0.4
			c0.2,0.2,0.3,0.5,0.5,0.7c0.2,0.2,0.4,0.3,0.8,0.5c-0.2,0.3-0.3,0.6-0.4,0.9c-0.1,0.2-0.3,0.3-0.3,0.5c-0.1,0.3,0,0.8-0.2,1
			c-0.6,0.6-1.2,1.1-1.9,1.5c-0.6,0.4-1.4,0.2-1.9-0.3C133.7,178.3,133.2,177.8,132.6,177.1z"/>
		<path style="fill:#EAEBEB;" d="M132.3,101.7c-0.1,1.1-0.8,2,0.2,2.9c-1,0.5-1.8,0.2-2.7-0.1c-0.6-0.2-1.2-0.4-1.8-0.7
			c-0.5-1.1-0.1-1.7,1.1-1.9c0.8-0.1,1.6-0.3,2.5-0.4C131.7,101.6,132,101.7,132.3,101.7z"/>
		<path style="fill:#EAEBEB;" d="M133.2,102c1.8-0.6,3.4-0.5,5,1.4c-0.9,1.1-2.1,1.2-3.3,1.1C134.2,103.7,134.8,102.2,133.2,102z"/>
		<path style="fill:#DADDDD;" d="M170,103.4c-0.9,0.8-2,1-3.2,1.1c-0.3-0.7-0.9-1.4-0.4-2.3c0.4,0.1,0.9,0.1,1.3,0.2
			c0.3,0.1,0.7,0.1,0.9,0.3C168.9,103.1,169.4,103.2,170,103.4z"/>
		<path style="fill:#DADDDD;" d="M164.2,102.7c0,0.2-0.1,0.4-0.1,0.7c-0.1,1.1-0.2,1.2-1.2,1c-0.7-0.2-1.3-0.3-2.3-0.5
			c1.2-0.9,2.4-0.8,3.4-1.3C164,102.6,164.1,102.6,164.2,102.7z"/>
	</g>
</g>
</svg>
