<?xml version="1.0" encoding="utf-8"?>
<!-- Generator: Adobe Illustrator 24.0.0, SVG Export Plug-In . SVG Version: 6.00 Build 0)  -->
<svg version="1.1" id="Layer_1" xmlns="http://www.w3.org/2000/svg" xmlns:xlink="http://www.w3.org/1999/xlink" x="0px" y="0px"
	 viewBox="0 0 238 164" style="enable-background:new 0 0 238 164;" xml:space="preserve">
<path style="fill:#060606;" d="M23,40.8c0.5-0.1,0.9-0.2,1.4-0.3c0.4,0.2,0.3,0.4-0.1,0.5c-0.8,0.3-1.7,0.6-2.5,0.8
	c-1.4,0.4-2.9,0.9-4.3,1.3c-1,0.3-1.9,0.6-2.9,0.9c-2.8,0.6-5.5,1.2-8.3,1.9c-0.2,0-0.3,0.2-0.6,0.4c1.1,0,2.1,0,3,0
	c1.8,0,3.6,0.1,5.4,0c1.4,0,2.8-0.2,4.2-0.2c3.3-0.2,6.7,0.1,10.1-0.5c1.8-0.3,3.6-0.2,5.4-0.2c3.1-0.1,6.2-0.1,9.3-0.3
	c1.5-0.1,3-0.2,4.5-0.1c2.1,0.1,4.1,0,6.2,0c2.9,0,5.9-0.1,8.8-0.1c0.8,0,1.5-0.1,2.3-0.2c0.5-4.8,0.1-9.5,0-14.4
	c-1.4,0.4-2.7,0.8-4,1.2c-0.8,0.3-1.6,0.6-2.5,0.8c-2.3,0.5-4.5,1-6.8,1.5c-3.8,0.8-7.5,1.7-11.2,2.9c-0.5,0.2-0.9,0.4-1.4,0.5
	c-1.6,0.4-3.1,0.8-4.7,1.2c-2.3,0.6-4.5,1.3-6.7,2c-0.9,0.2-1.7,0.5-2.6,0.7c-0.3,0.1-0.7,0.2-0.7-0.4c1-0.3,2-0.4,2.9-0.9
	c1.2-0.7,2.4-1,3.7-1.3c2-0.6,4-0.9,6-1.5c2.3-0.6,4.6-1.4,6.9-2.1c0.7-0.2,1.4-0.4,2.1-0.6c2.2-0.5,4.5-1,6.7-1.5
	c1.5-0.3,3.1-0.6,4.6-1c1.1-0.3,2.1-0.6,3.2-0.9c1.5-0.4,2.9-0.8,4.4-1.2c0.4-1.7,0.4-3.4,0.4-5.1c0-2.2,0.1-4.4,0.2-6.7
	c0-0.8,0-1.6,0-2.4c-0.1-1.7-0.1-3.5-0.2-5.2c0-0.8,0.3-1.1,1.1-1.2c0.1,0,0.2,0,0.3,0c1.7,0.4,3.4,0,5.1,0.1
	C74,9,76.3,9.2,78.6,9.3c3.3,0.1,6.5,0.2,9.8,0.4c2,0.1,4,0.1,6.1,0.1c3,0,6-0.2,9-0.2c3,0,6.1-0.1,9.1-0.1c0.9,0,1.7-0.1,2.6,0
	c2.1,0.2,4.1-0.3,6.1-0.1c1.6,0.1,3.2-0.3,4.8-0.1c1.6,0.2,3.2,0,4.8,0.2c3.6,0.3,7.2,0.3,10.8,0.1c3.2-0.2,6.4,0.2,9.5,0.1
	c1.2-0.1,2.4-0.2,3.5-0.1c1.9,0,3.8,0.2,5.7,0.1c3.8-0.2,7.6-0.3,11.3-0.1c3.1,0.2,6.3-0.1,9.4,0.1c1.1,0.1,2.2-0.1,3.3-0.2
	c1.7,0,3.4-0.2,5.1,0.1c1.8,0.3,3.7,0.3,5.5,0.2c1.6-0.1,3.3-0.2,4.9,0c2.6,0.2,5.1,0,7.7,0c4.4,0,8.9,0,13.3,0
	c1.3,0,2.5,0.1,3.8,0.1c0.2,0,0.6,0.1,0.7-0.1c0.5-0.6,1.1-0.2,1.7-0.3c1.1,1.4,2.1,2.7,3.1,4c0.7,0.9,1.5,1.8,2.4,2.6
	c0.5,0.5,0.6,1.1,0.6,1.8c0,7.7,0,15.3,0,23c0,7.9,0,15.8,0,23.6c0,13.5,0.1,27.1-0.2,40.6c-0.2,9-0.1,18.1-0.2,27.1
	c-0.1,7.5,0,14.9,0.1,22.4c0,0.4,0,0.8,0,1.4c-0.3,0-0.6,0.1-0.9,0.1c-14.6,0-29.2,0-43.7,0c-5.5,0-10.9,0-16.4,0
	c-15.3,0-30.6,0-45.9,0c-17.9,0-35.9,0-53.8,0c-0.9,0-1.7-0.2-2.4-0.9c-1.8-1.7-3.6-3.5-5.1-5.5c-0.4-0.5-0.6-1-0.6-1.7
	c0.1-2.7,0.2-5.4,0.3-8.2c0-0.9,0-1.8,0-2.6c0.1-6.8,0.2-13.5,0.3-20.3c0-4.4,0-8.8,0.1-13.3c0-2.2,0.2-4.5,0.2-6.7
	c0-2.6-0.2-5.1-0.3-7.7c0-0.6,0-1.2,0-1.7c0.1-2.5,0.2-5,0.3-7.4c0.1-1.6,0.2-3.2,0.2-4.8c0-1.5-0.1-3.1-0.1-4.6
	c0-2.2,0.1-4.4,0.2-6.7c0-0.8,0-1.6-0.1-2.4c-0.4-3-0.3-6-0.1-9c0.1-1-0.1-2.1-0.1-3.3c-0.6,0-1.1,0-1.6,0
	c-15.3,0.3-30.7,0.5-46,0.8c-2.7,0-5.4,0.1-8.1,0.2c-0.5,0-0.9-0.1-1.4-0.5c-1.1-0.9-2.2-1.7-3.3-2.5c-0.8-0.6-0.7-1.2,0.1-1.6
	c0.6-0.3,1.2-0.5,1.8-0.7c2.3-0.6,4.5-1.1,6.8-1.7c2.1-0.6,4.3-1.3,6.4-1.9c0.4-0.1,0.9-0.2,1.3-0.3C22,41.3,22.5,41,23,40.8z
	 M65.5,148c0.9,0.1,1.6,0.2,2.3,0.2c5.8,0.1,11.5,0.2,17.3,0.2c6.1,0,12.3,0,18.4,0c3.9,0,7.8-0.1,11.8-0.1c3.4,0,6.8,0.2,10.2,0.2
	c3.8,0,7.7-0.2,11.5-0.1c3.3,0.1,6.6-0.1,10,0c4.7,0.2,9.5,0,14.2,0c4.1,0,8.1,0,12.2,0c5.2,0,10.3,0,15.5,0.1c2.7,0,5.5-0.1,8.2,0
	c5.4,0.1,10.8,0.2,16.3,0.2c3.1,0,6.3-0.3,9.4-0.4c0.7,0,1.3-0.2,2.1-0.3c0.1-0.9,0.4-1.7,0.4-2.6c0-4.9,0-9.9,0-14.8
	c0-4.9,0.1-9.8,0.2-14.7c0.1-6.1,0.2-12.3,0.2-18.4c0.1-10.7,0.3-21.4,0.4-32c0-3.2,0-6.4,0-9.6c0-2-0.1-4,0-6
	c0-1.6,0.2-3.1,0.1-4.7c-0.2-1.9-0.2-3.7,0-5.6c0-0.7,0-1.4,0-2.2c0-2.4-0.3-4.9-0.2-7.3c0.1-1.4-0.1-2.9,0-4.3
	c0.1-1.5,0.3-3,0.1-4.5c-0.2-1.8-0.1-3.6-0.2-5.4c0-1.5,0-3,0-4.4c-0.1-0.1-0.2-0.1-0.2-0.1c-2.3-0.1-4.5-0.2-6.8-0.2
	c-4.1,0-8.1,0-12.2,0.1c-3.3,0.1-6.5-0.2-9.7,0c-1.9,0.1-3.8,0-5.6,0c-0.4,0-0.8,0-1.2,0c-1.4-0.1-2.9-0.3-4.3-0.3
	c-3,0-6,0.1-8.9,0.2c-2,0.1-4.1,0.2-6.1-0.2c-0.2,0-0.4,0-0.6,0c-0.7,0-1.4,0.1-2.2,0.1c-2,0-4-0.1-5.9-0.1c-1.4,0-2.9,0.4-4.3,0.2
	c-1.7-0.2-3.4-0.1-5-0.1c-2.4,0-4.8,0.2-7.2-0.2c-0.2,0-0.4,0-0.6,0c-1,0.1-2.1,0.2-3.1,0.2c-2.5,0-4.9,0-7.4,0c-1,0-2,0.2-3,0
	c-2.4-0.5-4.9-0.3-7.3-0.3c-2-0.1-4,0.1-5.9,0.1c-0.5,0-0.9,0-1.4,0c-2.7,0-5.4,0.1-8.2,0.1c-2.4,0-4.9-0.2-7.3,0
	C99.4,11,97.4,11,95.3,11c-3.1,0-6.1-0.1-9.2-0.1c-2.5-0.1-5.1-0.2-7.6-0.3c-3.8-0.2-7.7-0.3-11.5-0.4c-0.2,0-0.4,0.1-0.7,0.1
	c-0.1,1.2-0.2,2.4-0.2,3.6c0,2.9,0,5.8,0,8.7c0,1.1,0.1,2.1,0.2,3.2c0,0.6,0,1.2,0.1,1.8c-0.8,0.6-0.5,1.5-0.5,2.2
	c-0.1,1.2,0,2.4,0,3.6c0,0.7,0,1.4,0,2.2c0,0.8,0,1.7,0,2.5c0,0.9-0.1,1.8,0,2.8c0,4.3,0.1,8.7,0.1,13c0,3,0,5.9,0.1,8.9
	c0.1,3.4,0.2,6.8,0.2,10.2c0,1.4-0.1,2.8-0.1,4.2c0,1.5,0,3-0.1,4.6c-0.1,1.7-0.2,3.4-0.3,5c0,2.1,0.1,4.3,0.1,6.4
	c0,1.4,0,2.9,0,4.3c0,3.8,0.1,7.6,0,11.4c0,6.1-0.1,12.2-0.2,18.3c0,3.3,0,6.5-0.1,9.8c0,2.6-0.1,5.2-0.1,7.8
	C65.5,145.8,65.5,146.9,65.5,148z"/>
<path style="fill:#F1F6F0;" d="M24.4,40.5c0,0.6,0.4,0.5,0.7,0.4c0.9-0.2,1.7-0.4,2.6-0.7c2.2-0.6,4.5-1.3,6.7-2
	c1.5-0.4,3.1-0.8,4.7-1.2c0.5-0.1,0.9-0.3,1.4-0.5c3.7-1.2,7.4-2.1,11.2-2.9c2.3-0.5,4.5-1,6.8-1.5c0.8-0.2,1.7-0.6,2.5-0.8
	c1.3-0.4,2.5-0.8,4-1.2c0.1,4.9,0.5,9.6,0,14.4c-0.8,0.1-1.5,0.1-2.3,0.2c-2.9,0.1-5.9,0.1-8.8,0.1c-2.1,0-4.1,0.1-6.2,0
	c-1.5-0.1-3,0.1-4.5,0.1c-3.1,0.2-6.2,0.2-9.3,0.3c-1.8,0.1-3.6-0.1-5.4,0.2c-3.3,0.6-6.7,0.3-10.1,0.5c-1.4,0.1-2.8,0.2-4.2,0.2
	c-1.8,0-3.6,0-5.4,0c-0.9,0-1.8,0-3,0c0.3-0.2,0.5-0.4,0.6-0.4c2.8-0.6,5.5-1.2,8.3-1.9c1-0.2,1.9-0.6,2.9-0.9
	c1.4-0.4,2.9-0.9,4.3-1.3c0.8-0.3,1.7-0.5,2.5-0.8C24.7,40.9,24.8,40.7,24.4,40.5C24.4,40.5,24.4,40.5,24.4,40.5z"/>
<path style="fill:#F7F7F7;" d="M65.5,148c0-1.2,0-2.2,0-3.3c0-2.6,0.1-5.2,0.1-7.8c0-3.3,0.1-6.5,0.1-9.8c0.1-6.1,0.1-12.2,0.2-18.3
	c0-3.8,0-7.6,0-11.4c0-1.4,0-2.9,0-4.3c0-2.1-0.1-4.3-0.1-6.4c0-1.7,0.2-3.4,0.3-5c0.1-1.5,0-3,0.1-4.6c0-1.4,0.2-2.8,0.1-4.2
	c-0.1-3.4-0.2-6.8-0.2-10.2c-0.1-3-0.1-5.9-0.1-8.9c0-4.3-0.1-8.7-0.1-13c0-0.9,0-1.8,0-2.8c0-0.8,0-1.7,0-2.5c0-0.7,0-1.4,0-2.2
	c0-1.2-0.1-2.4,0-3.6c0.1-0.7-0.3-1.6,0.5-2.2c0-0.6,0-1.2-0.1-1.8c-0.1-1.1-0.2-2.1-0.2-3.2c0-2.9,0-5.8,0-8.7
	c0-1.2,0.2-2.3,0.2-3.6c0.2,0,0.4-0.1,0.7-0.1c3.8,0.1,7.7,0.3,11.5,0.4c2.5,0.1,5.1,0.3,7.6,0.3c3.1,0.1,6.1,0.1,9.2,0.1
	c2.1,0,4.1,0,6.2-0.2c2.5-0.2,4.9,0,7.3,0c2.7,0,5.4-0.1,8.2-0.1c0.5,0,0.9,0,1.4,0c2,0,4-0.2,5.9-0.1c2.4,0.1,4.9-0.1,7.3,0.3
	c1,0.2,2,0,3,0c2.5,0,4.9,0,7.4,0c1,0,2.1-0.1,3.1-0.2c0.2,0,0.4,0,0.6,0c2.4,0.4,4.8,0.1,7.2,0.2c1.7,0,3.3-0.2,5,0.1
	c1.4,0.2,2.9-0.2,4.3-0.2c2,0,4,0.1,5.9,0.1c0.7,0,1.4-0.1,2.2-0.1c0.2,0,0.4-0.1,0.6,0c2,0.4,4,0.3,6.1,0.2c3-0.1,6-0.2,8.9-0.2
	c1.4,0,2.9,0.2,4.3,0.3c0.4,0,0.8,0,1.2,0c1.9,0,3.8,0.1,5.6,0c3.3-0.2,6.5,0.2,9.7,0c4.1-0.2,8.1-0.1,12.2-0.1
	c2.3,0,4.5,0.1,6.8,0.2c0.1,0,0.1,0.1,0.2,0.1c0,1.5,0,2.9,0,4.4c0,1.8,0,3.6,0.2,5.4c0.2,1.5,0,3-0.1,4.5c-0.1,1.4,0.1,2.9,0,4.3
	c-0.1,2.5,0.2,4.9,0.2,7.3c0,0.7,0,1.4,0,2.2c-0.1,1.9-0.1,3.7,0,5.6c0.1,1.5-0.1,3.1-0.1,4.7c0,2,0,4,0,6c0,3.2,0,6.4,0,9.6
	c-0.1,10.7-0.3,21.4-0.4,32c-0.1,6.1-0.2,12.3-0.2,18.4c-0.1,4.9-0.1,9.8-0.2,14.7c0,4.9,0,9.9,0,14.8c0,0.8-0.2,1.6-0.4,2.6
	c-0.8,0.1-1.5,0.3-2.1,0.3c-3.1,0.2-6.3,0.4-9.4,0.4c-5.4,0-10.8,0-16.3-0.2c-2.7-0.1-5.5,0-8.2,0c-5.2-0.1-10.3-0.1-15.5-0.1
	c-4.1,0-8.1,0-12.2,0c-4.7-0.1-9.5,0.2-14.2,0c-3.3-0.1-6.6,0.1-10,0c-3.8-0.1-7.7,0.1-11.5,0.1c-3.4,0-6.8-0.2-10.2-0.2
	c-3.9,0-7.8,0.1-11.8,0.1c-6.1,0-12.3,0.1-18.4,0c-5.8,0-11.5-0.1-17.3-0.2C67.1,148.3,66.4,148.1,65.5,148z M69.7,12.5
	c-0.1,1-0.3,1.6-0.3,2.2c0,1.4,0.2,2.8,0.2,4.2c0.1,3.6,0.1,7.2,0.1,10.7c0,2.2-0.1,4.4-0.1,6.6c0,4.1-0.1,8.3,0,12.4
	c0.1,5-0.3,9.9,0,14.9c0.2,3.4,0.2,6.9,0.3,10.3c0,0.2,0,0.3,0,0.5c-0.1,3.1-0.1,6.3-0.2,9.4c0,1.1,0.1,2.1,0.2,3.2
	c0,2.5,0,5.1,0,7.6c0,5.4-0.1,10.8-0.2,16.2c0,4-0.1,8-0.1,12c0,4.2,0.1,8.5,0.1,12.7c0,2.8,0,5.7,0,8.5c0,0.5,0.1,1,0.2,1.5
	c1.9,0,3.7,0,5.4,0c8.2,0,16.4,0,24.6,0c5.5,0,11.1,0,16.6-0.1c2.5,0,5.1-0.1,7.6-0.1c0.4,0,0.8,0.1,1.3,0.1c1.9,0,3.7-0.1,5.6-0.1
	c1.1,0,2.2,0,3.3,0c1.6,0,3.2,0,4.8,0c1.6,0,3.3,0.1,4.9,0c1.8,0,3.6-0.1,5.4-0.1c2.8,0,5.6,0.1,8.4,0.1c2.1,0,4.3-0.1,6.4-0.1
	c2.9,0,5.8,0.1,8.6,0.1c4.5,0,9,0,13.6,0c1.6,0,3.2,0.1,4.8,0.1c2.7,0,5.4-0.1,8.2-0.1c2.2,0,4.4,0,6.6,0c4.9,0.1,9.8-0.2,14.7,0.2
	c0.6,0.1,1.2-0.1,1.6-0.6c0-0.8,0-1.6,0-2.4c0-1.6,0.1-3.3,0-4.9c0-1.3-0.1-2.6,0.3-3.9c0.1-0.4,0.2-0.8,0.2-1.2
	c0-2.3,0-4.5,0.1-6.8c0-3.2,0.1-6.5,0.1-9.7c-0.1-5.1-0.2-10.1,0.1-15.2c0.1-1.7,0-3.4,0-5.1c0-10.1,0.1-20.1,0.1-30.2
	c0-2.6,0-5.2,0.1-7.8c0-2.7,0.3-5.4,0.1-8c-0.2-2.1,0.3-4.2-0.1-6.3c0-0.2,0.1-0.4,0.1-0.7c0.1-0.3,0.2-0.6,0.2-0.9
	c0-2.6,0.1-5.1,0.1-7.7c0-2.6-0.1-5.3-0.1-7.9c0-2.6,0.1-5.2,0.1-7.8c0-1.1,0-2.1,0-3.2c0-1.5-1.5-2.6-2.9-2.1
	c-0.2,0.1-0.5,0.1-0.8,0.1c-1.9,0-3.8,0.1-5.7,0.1c-0.9,0-1.8,0.1-2.6,0.1c-1.8,0-3.6-0.1-5.4-0.1c-2.3,0-4.6,0.1-6.9-0.1
	c-2.1-0.1-4.1,0.2-6.2,0.2c-1,0-1.9,0-2.9-0.1c-1.2-0.1-2.4-0.3-3.6-0.3c-1.6,0-3.1,0.2-4.7,0.2c-1.5,0-3-0.1-4.5-0.1
	c-3.1,0-6.1-0.1-9.2-0.1c-2.6,0-5.1,0.1-7.7,0.1c-1.6,0-3.3,0-4.9,0c-1,0-1.9,0-2.9,0c-1.3,0-2.6,0.2-3.9,0.2
	c-1.5,0-3.1-0.1-4.6-0.2c-1.1,0-2.1,0.2-3.2,0.2c-1.9,0-3.9-0.1-5.8-0.1c-1.3,0-2.6,0-3.9,0c-2.6-0.1-5.2-0.2-7.8-0.2
	c-1.1,0-2.1,0.1-3.2,0.1c-4.5,0-9,0.1-13.4,0.1c-3.4,0-6.7-0.1-10.1-0.1c-1.6,0-3.2-0.3-4.8,0c-1,0.2-2,0.1-3,0
	c-2.4-0.1-4.7-0.3-7.1-0.2c-1.4,0.1-2.7-0.2-4.1,0c-1.3,0.1-2.6-0.1-3.9-0.1c-0.8,0-1.6-0.1-2.3,0.2C71,13,70.5,13.2,69.7,12.5z"/>
<path style="fill:#141414;" d="M69.7,12.5c0.8,0.7,1.3,0.5,1.9,0.3c0.7-0.2,1.5-0.2,2.3-0.2c1.3,0,2.6,0.3,3.9,0.1
	c1.4-0.1,2.7,0.1,4.1,0c2.4-0.1,4.7,0.2,7.1,0.2c1,0,2,0.1,3,0c1.6-0.3,3.2,0,4.8,0c3.4,0,6.7,0.1,10.1,0.1c4.5,0,9,0,13.4-0.1
	c1.1,0,2.1-0.2,3.2-0.1c2.6,0,5.2,0.2,7.8,0.2c1.3,0,2.6,0,3.9,0c1.9,0,3.9,0.1,5.8,0.1c1.1,0,2.1-0.2,3.2-0.2
	c1.5,0,3.1,0.1,4.6,0.2c1.3,0,2.6-0.1,3.9-0.2c1,0,1.9,0,2.9,0c1.6,0,3.3,0,4.9,0c2.6,0,5.1-0.1,7.7-0.1c3.1,0,6.1,0,9.2,0.1
	c1.5,0,3,0.1,4.5,0.1c1.6,0,3.1-0.2,4.7-0.2c1.2,0,2.4,0.2,3.6,0.3c1,0.1,1.9,0.1,2.9,0.1c2.1,0,4.1-0.3,6.2-0.2
	c2.3,0.1,4.6,0,6.9,0.1c1.8,0,3.6,0.1,5.4,0.1c0.9,0,1.8,0,2.6-0.1c1.9,0,3.8-0.1,5.7-0.1c0.3,0,0.5,0,0.8-0.1
	c1.4-0.4,2.9,0.7,2.9,2.1c0,1.1,0,2.1,0,3.2c0,2.6-0.1,5.2-0.1,7.8c0,2.6,0.1,5.3,0.1,7.9c0,2.6,0,5.1-0.1,7.7
	c0,0.3-0.1,0.6-0.2,0.9c0,0.2-0.2,0.5-0.1,0.7c0.3,2.1-0.1,4.2,0.1,6.3c0.2,2.7-0.1,5.4-0.1,8c0,2.6-0.1,5.2-0.1,7.8
	c-0.1,10.1-0.1,20.1-0.1,30.2c0,1.7,0.1,3.4,0,5.1c-0.3,5.1-0.2,10.1-0.1,15.2c0.1,3.2,0,6.5-0.1,9.7c0,2.3,0,4.5-0.1,6.8
	c0,0.4,0,0.8-0.2,1.2c-0.4,1.3-0.4,2.6-0.3,3.9c0.1,1.6,0,3.3,0,4.9c0,0.8,0,1.6,0,2.4c-0.3,0.6-0.9,0.7-1.6,0.6
	c-4.9-0.4-9.8-0.1-14.7-0.2c-2.2,0-4.4,0-6.6,0c-2.7,0-5.4,0.1-8.2,0.1c-1.6,0-3.2-0.1-4.8-0.1c-4.5,0-9,0-13.6,0
	c-2.9,0-5.8-0.1-8.6-0.1c-2.1,0-4.3,0.1-6.4,0.1c-2.8,0-5.6-0.1-8.4-0.1c-1.8,0-3.6,0.1-5.4,0.1c-1.6,0-3.3,0-4.9,0
	c-1.6,0-3.2,0-4.8,0c-1.1,0-2.2,0-3.3,0c-1.9,0-3.7,0.1-5.6,0.1c-0.4,0-0.8-0.1-1.3-0.1c-2.5,0-5.1,0.1-7.6,0.1
	c-5.5,0-11.1,0.1-16.6,0.1c-8.2,0-16.4,0-24.6,0c-1.8,0-3.5,0-5.4,0c-0.1-0.6-0.2-1-0.2-1.5c0-2.8,0-5.7,0-8.5
	c0-4.2-0.1-8.5-0.1-12.7c0-4,0.1-8,0.1-12c0.1-5.4,0.1-10.8,0.2-16.2c0-2.5,0-5.1,0-7.6c0-1.1-0.2-2.1-0.2-3.2
	c0-3.1,0.1-6.3,0.2-9.4c0-0.2,0-0.3,0-0.5c-0.1-3.4,0-6.9-0.3-10.3c-0.3-5,0.1-9.9,0-14.9c-0.1-4.1,0-8.3,0-12.4
	c0-2.2,0.1-4.4,0.1-6.6c0-3.6-0.1-7.2-0.1-10.7c0-1.4-0.2-2.8-0.2-4.2C69.4,14.1,69.6,13.5,69.7,12.5z M70.5,13.8
	c0,0.2-0.1,0.6-0.1,1c0,2.2,0.1,4.4,0.1,6.7c0,2.4,0,4.9,0,7.3c0,1.2,0.1,2.4,0.1,3.6c0,3.1-0.1,6.2-0.2,9.3c0,2.6,0,5.2,0,7.7
	c0,3.3,0.1,6.7,0.1,10c0,3.1,0,6.2,0,9.3c0,4,0.1,8,0.1,12c0,1.1-0.1,2.2-0.1,3.3c0.1,1.9,0.2,3.8,0.2,5.7c0,3.5-0.1,6.9-0.1,10.4
	c0,6.5-0.1,13-0.1,19.5c0,3.1,0,6.2,0,9.2c0,1.9,0.2,3.8,0.2,5.8c0,3.2-0.1,6.4-0.1,9.6c0,0.2,0.1,0.4,0.1,0.6c4,0,7.9,0,11.8,0
	c8.1,0,16.1-0.1,24.2-0.1c9.6,0,19.2,0,28.8,0c3.6,0,7.3-0.2,10.9-0.2c3.1,0,6.3,0.1,9.4,0.1c2,0,4.1-0.1,6.1-0.1c2,0,4,0.2,6,0.2
	c1.9,0,3.8-0.2,5.8-0.2c3.5,0,7-0.1,10.6,0.1c2.6,0.2,5.2,0.1,7.7,0.1c2.8,0,5.5-0.2,8.3-0.2c3.9,0,7.8,0,11.7,0
	c2.6,0,5.1-0.1,7.7-0.1c0.6,0,0.9-0.2,0.9-0.8c0-0.3,0.1-0.6,0.1-0.9c0.1-2.1,0.1-4.2,0.1-6.3c0-0.8,0.4-1.5,0.4-2.2
	c0.1-2.1,0.2-4.2,0.3-6.3c0.1-4.6,0.1-9.2,0.1-13.8c0.1-6.1,0.2-12.3,0.2-18.4c0.1-16.6,0.2-33.3,0.2-49.9c0-4.7,0.2-9.3,0.4-14
	c0.1-3.2,0.1-6.4,0.1-9.7c0-2,0-4.1-0.1-6.1c0-1.1-0.3-1.3-1.3-1.2c-0.3,0-0.6,0.1-0.9,0.1c-3.5-0.4-7.1-0.3-10.6-0.3
	c-1.3,0-2.7-0.3-3.9,0.2c-0.2,0.1-0.6,0-0.7-0.2c-0.3-0.3-0.5-0.2-0.8-0.2c-1.6,0-3.3,0.4-4.9-0.1c-0.1,0-0.3,0-0.3,0
	c-0.3,0.6-0.8,0.3-1.2,0.3c-0.8,0-1.7-0.1-2.5-0.1c-1.2,0-2.4,0-3.6-0.1c-1.2-0.1-2.4,0.5-3.6-0.2c0,0-0.2,0-0.2,0.1
	c-0.5,0.6-1.1,0.2-1.6-0.1c-0.4-0.3-0.8-0.2-1.1,0c-0.4,0.4-0.7,0.4-1.2,0.1c-0.3-0.2-0.7-0.4-1,0c-0.1,0.1-0.4,0-0.6,0
	c-1.4,0.1-2.8-0.4-4.1,0.2c-0.2,0.1-0.7,0.1-0.8,0c-0.4-0.6-0.9-0.3-1.4-0.3c-0.9,0.1-1.7,0.1-2.6,0.1c-0.9,0-1.8-0.4-2.6,0.2
	c-0.1,0-0.2,0-0.2,0c-1.2-0.3-2.4,0.4-3.6-0.3c-0.1,0-0.2,0-0.3,0.1c-0.5,0.4-0.9,0.2-1.4-0.1c-0.5-0.3-1-0.4-1.4,0.1
	c-0.3,0.3-0.7,0.2-1,0c-0.2-0.1-0.7-0.3-0.8-0.2c-0.4,0.3-0.7,0.1-1,0c-0.4,0-0.9,0-1.4,0c-1.1,0-2.2-0.1-3.3-0.1
	c-0.1,0-0.3,0-0.4,0.1c-0.3,0.1-0.6,0.3-0.9,0.3c-1.2,0-2.4-0.1-3.7-0.1c-1.7-0.1-3.5-0.2-5.2-0.3c-0.1,0-0.2,0-0.3,0.1
	c-0.3,0.4-0.7,0.3-1,0.3c-2.2-0.1-4.5,0-6.7-0.2c-1.3-0.1-2.6,0.5-4-0.1c-0.6-0.2-1.4,0-2,0.1c-0.7,0.1-1.4-0.4-2,0.2
	c-0.1,0.1-0.4,0-0.5-0.1c-0.4-0.2-0.7-0.2-1.2,0c-0.3,0.1-0.8,0-1.2,0c-0.2,0-0.5-0.2-0.6-0.1c-0.5,0.4-1,0.2-1.5-0.1
	c-0.5-0.3-0.8-0.2-1.3,0c-0.2,0.1-0.5,0.3-0.7,0.3c-0.6-0.2-1.1-0.7-1.7,0c-0.6-0.6-1.4,0.3-2.1-0.2c-0.2-0.2-0.7,0.1-1.1,0.1
	c-0.3,0-0.7-0.1-1-0.1c-1.2-0.1-2.3,0.2-3.5-0.1c-0.3-0.1-0.7,0.1-1.1,0.1c-0.2,0-0.4,0.1-0.6,0.1c-1.5,0-3-0.1-4.6-0.2
	c-1,0-2,0.1-3,0.1c-1.4,0-2.7-0.1-4.1-0.1c-2.1,0-4.2,0-6.3,0c-0.8,0-1.5,0-2.3,0c-1.9,0-3.8,0-5.7-0.1c-0.6,0-1.1-0.2-1.7-0.2
	c-1,0-2,0.1-2.9,0.1c-1.1,0-2.2-0.1-3.3-0.2c-0.9-0.1-1.8-0.1-2.7-0.1c-0.8,0-1.6,0.2-2.5,0c0,0-0.1,0-0.1,0
	C72,13.8,71.3,13.8,70.5,13.8z"/>
<path style="fill:#F4F9F3;" d="M70.5,13.8c0.8,0,1.5,0,2.2,0c0,0,0.1,0,0.1,0c0.8,0.2,1.7-0.1,2.5,0c0.9,0.1,1.8,0,2.7,0.1
	c1.1,0.1,2.2,0.2,3.3,0.2c1,0,2-0.1,2.9-0.1c0.6,0,1.1,0.1,1.7,0.2c1.9,0,3.8,0.1,5.7,0.1c0.8,0,1.5,0,2.3,0c2.1,0,4.2,0,6.3,0
	c1.4,0,2.7,0.1,4.1,0.1c1,0,2-0.1,3-0.1c1.5,0,3,0.1,4.6,0.2c0.2,0,0.4-0.1,0.6-0.1c0.4-0.1,0.8-0.2,1.1-0.1c1.2,0.3,2.3,0,3.5,0.1
	c0.3,0,0.7,0.1,1,0.1c0.4,0,0.9-0.3,1.1-0.1c0.7,0.5,1.5-0.4,2.1,0.2c0.6-0.7,1.2-0.1,1.7,0c0.2,0.1,0.5-0.1,0.7-0.3
	c0.4-0.2,0.8-0.3,1.3,0c0.5,0.3,0.9,0.5,1.5,0.1c0.1-0.1,0.4,0.1,0.6,0.1c0.4,0,0.9,0.2,1.2,0c0.4-0.2,0.8-0.1,1.2,0
	c0.2,0.1,0.4,0.2,0.5,0.1c0.6-0.6,1.3-0.1,2-0.2c0.7-0.1,1.5-0.4,2-0.1c1.4,0.6,2.7,0,4,0.1c2.2,0.2,4.5,0.1,6.7,0.2
	c0.4,0,0.8,0.2,1-0.3c0-0.1,0.2-0.1,0.3-0.1c1.7,0.1,3.5,0.2,5.2,0.3c1.2,0.1,2.4,0.1,3.7,0.1c0.3,0,0.6-0.2,0.9-0.3
	c0.1,0,0.3-0.1,0.4-0.1c1.1,0,2.2,0.1,3.3,0.1c0.5,0,0.9-0.1,1.4,0c0.3,0,0.6,0.3,1,0c0.1-0.1,0.6,0,0.8,0.2c0.4,0.2,0.7,0.3,1,0
	c0.5-0.5,0.9-0.4,1.4-0.1c0.4,0.3,0.9,0.5,1.4,0.1c0.1-0.1,0.2-0.1,0.3-0.1c1.2,0.7,2.4,0,3.6,0.3c0.1,0,0.2,0,0.2,0
	c0.8-0.6,1.8-0.2,2.6-0.2c0.9,0,1.8-0.1,2.6-0.1c0.5,0,1-0.3,1.4,0.3c0.1,0.1,0.5,0.1,0.8,0c1.4-0.6,2.8-0.2,4.1-0.2
	c0.2,0,0.5,0.1,0.6,0c0.4-0.4,0.8-0.2,1,0c0.5,0.3,0.8,0.3,1.2-0.1c0.3-0.3,0.7-0.3,1.1,0c0.5,0.3,1,0.7,1.6,0.1
	c0,0,0.2-0.1,0.2-0.1c1.2,0.7,2.4,0,3.6,0.2c1.2,0.1,2.4,0,3.6,0.1c0.8,0,1.7,0.1,2.5,0.1c0.4,0,0.9,0.3,1.2-0.3
	c0-0.1,0.2-0.1,0.3,0c1.6,0.4,3.2,0,4.9,0.1c0.3,0,0.5-0.1,0.8,0.2c0.1,0.2,0.5,0.2,0.7,0.2c1.3-0.5,2.6-0.2,3.9-0.2
	c3.5,0,7.1-0.1,10.6,0.3c0.3,0,0.6-0.1,0.9-0.1c1.1-0.1,1.3,0.1,1.3,1.2c0,2,0.1,4.1,0.1,6.1c0,3.2,0,6.4-0.1,9.7
	c-0.2,4.7-0.4,9.3-0.4,14c-0.1,16.6-0.1,33.3-0.2,49.9c0,6.1-0.2,12.3-0.2,18.4c-0.1,4.6-0.1,9.2-0.1,13.8c0,2.1-0.1,4.2-0.3,6.3
	c0,0.7-0.4,1.4-0.4,2.2c0,2.1-0.1,4.2-0.1,6.3c0,0.3-0.1,0.6-0.1,0.9c-0.1,0.6-0.4,0.8-0.9,0.8c-2.6,0-5.1,0.1-7.7,0.1
	c-3.9,0-7.8,0-11.7,0c-2.8,0-5.5,0.1-8.3,0.2c-2.6,0-5.2,0.1-7.7-0.1c-3.5-0.3-7.1-0.1-10.6-0.1c-1.9,0-3.8,0.2-5.8,0.2
	c-2,0-4-0.2-6-0.2c-2,0-4.1,0.1-6.1,0.1c-3.1,0-6.3-0.1-9.4-0.1c-3.6,0-7.3,0.2-10.9,0.2c-9.6,0-19.2,0-28.8,0
	c-8.1,0-16.1,0.1-24.2,0.1c-3.9,0-7.8,0-11.8,0c0-0.2-0.1-0.4-0.1-0.6c0-3.2,0.1-6.4,0.1-9.6c0-1.9-0.2-3.8-0.2-5.8
	c0-3.1,0-6.2,0-9.2c0-6.5,0-13,0.1-19.5c0-3.5,0.1-6.9,0.1-10.4c0-1.9-0.2-3.8-0.2-5.7c0-1.1,0.1-2.2,0.1-3.3c0-4-0.1-8-0.1-12
	c0-3.1,0-6.2,0-9.3c0-3.3,0-6.7-0.1-10c0-2.6,0-5.2,0-7.7c0-3.1,0.1-6.2,0.2-9.3c0-1.2-0.1-2.4-0.1-3.6c0-2.4,0-4.9,0-7.3
	c0-2.2-0.1-4.4-0.1-6.7C70.4,14.4,70.5,14.1,70.5,13.8z"/>
</svg>
