<?xml version="1.0" encoding="utf-8"?>
<!-- Generator: Adobe Illustrator 24.0.0, SVG Export Plug-In . SVG Version: 6.00 Build 0)  -->
<svg version="1.1" id="Layer_1" xmlns="http://www.w3.org/2000/svg" xmlns:xlink="http://www.w3.org/1999/xlink" x="0px" y="0px"
	 viewBox="0 0 203 240" style="enable-background:new 0 0 203 240;" xml:space="preserve">
<path style="fill:#060606;" d="M46.5,216.2c-0.1-0.5-0.2-0.9-0.3-1.4c0.3-0.4,0.6-0.3,0.7,0.1c0.4,0.8,0.8,1.7,1.1,2.5
	c0.6,1.4,1.1,2.9,1.7,4.3c0.4,1,0.8,1.9,1.1,2.9c0.9,2.8,1.6,5.5,2.5,8.3c0.1,0.2,0.3,0.3,0.6,0.6c0-1.1,0-2.1,0-3
	c0-1.8,0.1-3.6,0-5.4c0-1.4-0.2-2.8-0.3-4.2c-0.3-3.3,0.2-6.7-0.6-10.1c-0.4-1.8-0.2-3.6-0.3-5.4c-0.1-3.1-0.2-6.2-0.5-9.3
	c-0.1-1.5-0.3-3-0.2-4.5c0.1-2.1,0-4.1,0-6.2c-0.1-2.9-0.1-5.9-0.2-8.8c0-0.8-0.1-1.5-0.2-2.3c-6.3-0.5-12.6-0.1-19.1,0
	c0.6,1.4,1,2.7,1.6,4c0.3,0.8,0.9,1.6,1.1,2.5c0.7,2.3,1.4,4.5,2,6.8c1.1,3.8,2.2,7.5,3.8,11.2c0.2,0.5,0.5,0.9,0.6,1.4
	c0.5,1.6,1,3.1,1.6,4.7c0.8,2.3,1.7,4.5,2.6,6.7c0.3,0.9,0.6,1.7,0.9,2.6c0.1,0.3,0.3,0.7-0.5,0.7c-0.4-1-0.6-2-1.3-2.9
	c-0.9-1.2-1.3-2.4-1.7-3.7c-0.7-2-1.2-4-1.9-6c-0.9-2.3-1.9-4.6-2.8-6.9c-0.3-0.7-0.5-1.4-0.7-2.1c-0.7-2.2-1.4-4.5-2-6.7
	c-0.5-1.5-0.8-3.1-1.3-4.6c-0.4-1.1-0.8-2.1-1.3-3.2c-0.6-1.5-1.1-2.9-1.6-4.4c-2.3-0.4-4.5-0.4-6.8-0.4c-2.9,0-5.9-0.1-8.8-0.2
	c-1.1,0-2.1,0-3.2,0c-2.3,0.1-4.6,0.1-6.9,0.2c-1.1,0-1.4-0.3-1.6-1.1c0-0.1,0-0.2,0-0.3c0.5-1.7,0-3.4,0.1-5.1
	c0.2-2.3,0.4-4.6,0.5-6.9c0.2-3.3,0.3-6.5,0.5-9.8c0.2-2,0.2-4,0.1-6.1c-0.1-3-0.2-6-0.3-9c-0.1-3-0.1-6.1-0.1-9.1
	c0-0.9-0.1-1.7,0-2.6c0.3-2.1-0.4-4.1-0.2-6.1c0.1-1.6-0.4-3.2-0.1-4.8c0.2-1.6,0-3.2,0.2-4.8c0.4-3.6,0.4-7.2,0.1-10.8
	C5,94.4,5.5,91.2,5.3,88c-0.1-1.2-0.2-2.4-0.2-3.5c0-1.9,0.3-3.8,0.1-5.7C4.9,75,4.9,71.2,5.2,67.4c0.2-3.1-0.1-6.3,0.1-9.4
	c0.1-1.1-0.2-2.2-0.2-3.3c0-1.7-0.3-3.4,0.1-5.1c0.4-1.8,0.3-3.7,0.2-5.5c-0.1-1.6-0.2-3.3-0.1-4.9c0.2-2.6,0-5.1,0-7.7
	c0-4.4,0-8.9,0.1-13.3c0-1.3,0.1-2.5,0.1-3.8c0-0.2,0.1-0.6-0.1-0.7c-0.8-0.5-0.3-1.1-0.4-1.7C6.8,11,8.6,10,10.4,8.9
	c1.2-0.7,2.4-1.5,3.5-2.4c0.7-0.5,1.4-0.6,2.3-0.6c10.1,0,20.3,0,30.4,0c10.4,0,20.9,0,31.3,0c17.9,0,35.8-0.1,53.7,0.2
	c12,0.2,23.9,0.1,35.8,0.2c9.9,0.1,19.7,0,29.6-0.1c0.6,0,1.1,0,1.8,0c0,0.3,0.1,0.6,0.1,0.9c0,14.6,0,29.2,0,43.7
	c0,5.5,0,10.9,0,16.4c0,15.3,0,30.6,0,45.9c0,17.9,0,35.9,0,53.8c0,0.9-0.2,1.7-1.1,2.4c-2.3,1.8-4.6,3.6-7.3,5.1
	c-0.7,0.4-1.4,0.6-2.2,0.6c-3.6-0.1-7.2-0.2-10.8-0.3c-1.2,0-2.3,0-3.5,0c-9-0.1-17.9-0.2-26.9-0.3c-5.9,0-11.7,0-17.6-0.1
	c-2.9,0-5.9-0.2-8.8-0.2c-3.4,0-6.8,0.2-10.2,0.3c-0.8,0-1.5,0-2.3,0c-3.3-0.1-6.6-0.2-9.9-0.3c-2.1-0.1-4.2-0.2-6.4-0.2
	c-2,0-4,0.1-6.1,0.1c-2.9,0-5.9-0.1-8.8-0.2c-1.1,0-2.1,0-3.2,0.1c-4,0.4-7.9,0.3-11.9,0.1c-1.4-0.1-2.8,0.1-4.3,0.1
	c0,0.6,0,1.1,0,1.6c0.3,15.3,0.7,30.7,1,46c0.1,2.7,0.1,5.4,0.2,8.1c0,0.5-0.2,0.9-0.6,1.4c-1.2,1.1-2.2,2.2-3.4,3.3
	c-0.8,0.8-1.5,0.7-2.1-0.1c-0.4-0.6-0.7-1.2-0.9-1.8c-0.8-2.3-1.5-4.5-2.3-6.8c-0.8-2.1-1.7-4.3-2.5-6.4c-0.2-0.4-0.2-0.9-0.4-1.3
	C47.3,217.2,46.9,216.7,46.5,216.2z M188.5,173.7c0.1-0.9,0.3-1.6,0.3-2.3c0.1-5.8,0.2-11.5,0.3-17.3c0-6.1,0-12.3-0.1-18.4
	c0-3.9-0.2-7.8-0.2-11.8c0-3.4,0.2-6.8,0.2-10.2c0-3.8-0.3-7.7-0.1-11.5c0.1-3.3-0.1-6.6,0-10c0.2-4.7-0.1-9.5,0-14.2
	c0.1-4.1,0-8.1,0-12.2c0-5.2,0-10.3,0.1-15.5c0.1-2.7-0.1-5.5,0-8.2c0.2-5.4,0.2-10.8,0.2-16.3c0-3.1-0.3-6.3-0.5-9.4
	c0-0.7-0.3-1.3-0.4-2.1c-1.2-0.1-2.3-0.4-3.4-0.4c-6.5,0-13.1,0-19.6,0c-6.5,0-13-0.1-19.5-0.2c-8.1-0.1-16.3-0.2-24.4-0.2
	C107.3,13.3,93.1,13.1,79,13c-4.2,0-8.4,0-12.7,0c-2.6,0-5.3,0.1-7.9,0c-2.1,0-4.2-0.2-6.2-0.1c-2.5,0.2-5,0.2-7.4,0
	c-0.9,0-1.9,0-2.9,0c-3.2,0-6.5,0.3-9.7,0.2c-1.9-0.1-3.8,0.1-5.8,0c-2-0.1-4-0.3-6-0.1c-2.4,0.2-4.8,0.1-7.1,0.2c-2,0-3.9,0-5.8,0
	c-0.1,0.1-0.2,0.2-0.2,0.2C7.2,15.7,7,18,7,20.2c0,4.1,0,8.1,0.2,12.2c0.2,3.3-0.3,6.5-0.1,9.7c0.1,1.9,0.1,3.8,0.1,5.6
	c0,0.4,0,0.8-0.1,1.2c-0.1,1.4-0.4,2.9-0.4,4.3c0,3,0.2,6,0.3,8.9c0.1,2,0.2,4.1-0.3,6.1c0,0.2,0,0.4,0,0.6c0.1,0.7,0.1,1.4,0.1,2.2
	c0,2-0.1,4-0.1,5.9c0,1.4,0.5,2.9,0.2,4.3c-0.3,1.7-0.1,3.4-0.1,5c0,2.4,0.3,4.8-0.2,7.2c0,0.2-0.1,0.4,0,0.6c0.1,1,0.3,2.1,0.3,3.1
	c0,2.5,0,4.9,0,7.4c0,1,0.3,2,0,3c-0.6,2.4-0.4,4.9-0.5,7.3c-0.1,2,0.1,4,0.2,5.9c0,0.5,0,0.9,0,1.4c0,2.7,0.1,5.4,0.1,8.2
	c0,2.4-0.2,4.9,0,7.3c0.2,2.1,0.2,4.1,0.2,6.2c0,3.1-0.1,6.1-0.2,9.2c-0.1,2.5-0.3,5.1-0.4,7.6c-0.2,3.8-0.4,7.7-0.6,11.5
	c0,0.2,0.1,0.4,0.1,0.7c1.6,0.1,3.2,0.2,4.7,0.2c3.9,0,7.7,0,11.6,0c1.4,0,2.8-0.1,4.2-0.2c0.8,0,1.6,0,2.4-0.1
	c0.8,0.8,1.9,0.5,2.9,0.5c1.6,0.1,3.1,0,4.7,0c1,0,1.9,0,2.9,0c1.1,0,2.2,0,3.3,0c1.2,0,2.4,0.1,3.7,0c5.7,0,11.5-0.1,17.2-0.1
	c3.9,0,7.8,0,11.7-0.1c4.5-0.1,9-0.2,13.5-0.2c1.9,0,3.7,0.1,5.6,0.1c2,0,4,0,6,0.1c2.2,0.1,4.4,0.2,6.7,0.3c2.8,0,5.6-0.1,8.5-0.1
	c1.9,0,3.8,0,5.8,0c5,0,10.1-0.1,15.1,0c8.1,0,16.2,0.1,24.3,0.2c4.3,0,8.7,0,13,0.1c3.5,0,6.9,0.1,10.4,0.1
	C185.6,173.7,187,173.7,188.5,173.7z"/>
<path style="fill:#F1F6F0;" d="M46.2,214.8c0.8,0,0.6-0.4,0.5-0.7c-0.3-0.9-0.6-1.7-0.9-2.6c-0.9-2.2-1.8-4.5-2.6-6.7
	c-0.6-1.5-1-3.1-1.6-4.7c-0.2-0.5-0.4-0.9-0.6-1.4c-1.6-3.7-2.7-7.4-3.8-11.2c-0.6-2.3-1.3-4.5-2-6.8c-0.3-0.8-0.8-1.7-1.1-2.5
	c-0.5-1.3-1-2.5-1.6-4c6.5-0.1,12.7-0.5,19.1,0c0.1,0.8,0.2,1.5,0.2,2.3c0.1,2.9,0.1,5.9,0.2,8.8c0,2.1,0.1,4.1,0,6.2
	c-0.1,1.5,0.1,3,0.2,4.5c0.3,3.1,0.3,6.2,0.5,9.3c0.1,1.8-0.1,3.6,0.3,5.4c0.8,3.3,0.4,6.7,0.6,10.1c0.1,1.4,0.3,2.8,0.3,4.2
	c0,1.8,0,3.6,0,5.4c0,0.9,0,1.8,0,3c-0.3-0.3-0.5-0.5-0.6-0.6c-0.8-2.8-1.6-5.5-2.5-8.3c-0.3-1-0.8-1.9-1.1-2.9
	c-0.6-1.4-1.1-2.9-1.7-4.3c-0.3-0.8-0.7-1.7-1.1-2.5C46.8,214.6,46.5,214.4,46.2,214.8C46.2,214.8,46.2,214.8,46.2,214.8z"/>
<path style="fill:#F7F7F7;" d="M188.5,173.7c-1.5,0-3,0-4.4,0c-3.5,0-6.9-0.1-10.4-0.1c-4.3,0-8.7-0.1-13-0.1
	c-8.1-0.1-16.2-0.1-24.3-0.2c-5,0-10.1,0-15.1,0c-1.9,0-3.8,0-5.8,0c-2.8,0-5.6,0.1-8.5,0.1c-2.2,0-4.4-0.2-6.7-0.3
	c-2-0.1-4,0-6-0.1c-1.9,0-3.7-0.2-5.6-0.1c-4.5,0.1-9,0.2-13.5,0.2c-3.9,0.1-7.8,0.1-11.7,0.1c-5.7,0-11.5,0.1-17.2,0.1
	c-1.2,0-2.4,0-3.7,0c-1.1,0-2.2,0-3.3,0c-1,0-1.9,0-2.9,0c-1.6,0-3.1,0.1-4.7,0c-1-0.1-2.2,0.3-2.9-0.5c-0.8,0-1.6,0-2.4,0.1
	c-1.4,0.1-2.8,0.2-4.2,0.2c-3.9,0-7.7,0-11.6,0c-1.6,0-3.1-0.2-4.7-0.2c0-0.2-0.1-0.4-0.1-0.7c0.2-3.8,0.4-7.7,0.6-11.5
	c0.1-2.5,0.3-5.1,0.4-7.6c0.1-3.1,0.2-6.1,0.2-9.2c0-2.1,0-4.1-0.2-6.2c-0.2-2.5,0-4.9,0-7.3c0-2.7-0.1-5.4-0.1-8.2
	c0-0.5,0-0.9,0-1.4c-0.1-2-0.3-4-0.2-5.9c0.1-2.4-0.1-4.9,0.5-7.3c0.2-1,0-2,0-3c0-2.5,0-4.9,0-7.4c0-1-0.2-2.1-0.3-3.1
	c0-0.2,0-0.4,0-0.6c0.5-2.4,0.2-4.8,0.2-7.2c0-1.7-0.2-3.3,0.1-5c0.3-1.4-0.2-2.9-0.2-4.3c0-2,0.1-4,0.1-5.9c0-0.7-0.1-1.4-0.1-2.2
	c0-0.2-0.1-0.4,0-0.6c0.5-2,0.4-4,0.3-6.1c-0.2-3-0.3-6-0.3-8.9c0-1.4,0.3-2.9,0.4-4.3c0-0.4,0.1-0.8,0.1-1.2c0-1.9,0.1-3.8-0.1-5.6
	c-0.2-3.3,0.2-6.5,0.1-9.7C6.9,28.4,7,24.3,7,20.2c0-2.3,0.2-4.5,0.3-6.8c0-0.1,0.1-0.1,0.2-0.2c1.9,0,3.9,0,5.8,0
	c2.4,0,4.8,0,7.1-0.2c2-0.2,4,0,6,0.1c1.9,0.1,3.8-0.1,5.8,0c3.3,0.1,6.5-0.2,9.7-0.2c1,0,1.9,0,2.9,0c2.5,0.1,4.9,0.1,7.4,0
	c2-0.1,4.1,0.1,6.2,0.1c2.6,0,5.3,0,7.9,0c4.2,0,8.4,0,12.7,0c14.1,0.1,28.3,0.3,42.4,0.4c8.1,0.1,16.3,0.2,24.4,0.2
	c6.5,0.1,13,0.1,19.5,0.2c6.5,0,13.1,0,19.6,0c1.1,0,2.2,0.2,3.4,0.4c0.2,0.8,0.4,1.5,0.4,2.1c0.2,3.1,0.5,6.3,0.5,9.4
	c0,5.4,0,10.8-0.2,16.3c-0.1,2.7,0.1,5.5,0,8.2c-0.1,5.2-0.1,10.3-0.1,15.5c0,4.1,0.1,8.1,0,12.2c-0.1,4.7,0.2,9.5,0,14.2
	c-0.2,3.3,0.1,6.6,0,10c-0.2,3.8,0.1,7.7,0.1,11.5c0,3.4-0.2,6.8-0.2,10.2c0,3.9,0.1,7.8,0.2,11.8c0,6.1,0.1,12.3,0.1,18.4
	c0,5.8-0.1,11.5-0.3,17.3C188.8,172.1,188.7,172.8,188.5,173.7z M9.2,169.5c1.3,0.1,2.1,0.3,2.9,0.3c1.9,0,3.7-0.2,5.6-0.2
	c4.7-0.1,9.5-0.1,14.2-0.1c2.9,0,5.9,0.1,8.8,0.1c5.5,0,11,0.1,16.5,0c6.6-0.1,13.1,0.3,19.7,0c4.5-0.2,9.1-0.2,13.7-0.3
	c0.2,0,0.4,0,0.6,0c4.1,0.1,8.3,0.1,12.4,0.2c1.4,0,2.8-0.1,4.3-0.2c3.3,0,6.7,0,10,0c7.2,0,14.3,0.1,21.5,0.2
	c5.3,0,10.6,0.1,15.9,0.1c5.6,0,11.2-0.1,16.8-0.1c3.8,0,7.5,0,11.3,0c0.6,0,1.3-0.1,2-0.2c0-1.9,0-3.7,0-5.4c0-8.2,0-16.4,0-24.6
	c0-5.5-0.1-11.1-0.1-16.6c0-2.5-0.1-5.1-0.1-7.6c0-0.4,0.1-0.8,0.1-1.3c0-1.9-0.1-3.7-0.1-5.6c0-1.1,0-2.2,0-3.3c0-1.6,0-3.2,0-4.8
	c0-1.6,0.1-3.3,0-4.9c0-1.8-0.2-3.6-0.2-5.4c0-2.8,0.2-5.6,0.2-8.4c0-2.1-0.2-4.3-0.2-6.4c0-2.9,0.1-5.8,0.1-8.6c0-4.5,0-9,0-13.6
	c0-1.6,0.1-3.2,0.1-4.8c0-2.7-0.1-5.4-0.1-8.2c0-2.2,0-4.4,0-6.6c0.1-4.9-0.3-9.8,0.3-14.7c0.1-0.6-0.1-1.2-0.8-1.6
	c-1.1,0-2.2,0-3.2,0c-2.2,0-4.3-0.1-6.5,0c-1.7,0-3.4,0.1-5.1-0.3c-0.5-0.1-1.1-0.2-1.6-0.2c-3,0-6,0-9-0.1c-4.3,0-8.5-0.1-12.8-0.1
	c-6.7,0.1-13.4,0.2-20.1-0.1c-2.2-0.1-4.5,0-6.7,0c-13.3,0-26.6-0.1-40-0.1c-3.5,0-6.9,0-10.4-0.1c-3.6,0-7.1-0.3-10.7-0.1
	c-2.8,0.2-5.5-0.3-8.3,0.1c-0.3,0-0.6-0.1-0.9-0.1c-0.4-0.1-0.8-0.2-1.2-0.2c-3.4,0-6.8-0.1-10.2-0.1c-3.5,0-7,0.1-10.5,0.1
	c-3.4,0-6.9-0.1-10.3-0.1c-1.4,0-2.8,0-4.3,0c-2,0-3.4,1.5-2.8,2.9c0.1,0.2,0.2,0.5,0.2,0.8c0.1,1.9,0.1,3.8,0.1,5.7
	c0,0.9,0.1,1.8,0.1,2.6c0,1.8-0.1,3.6-0.2,5.4c0,2.3,0.1,4.6-0.1,6.9c-0.2,2.1,0.3,4.1,0.2,6.2c0,1-0.1,1.9-0.1,2.9
	c-0.1,1.2-0.4,2.4-0.4,3.6c0,1.6,0.2,3.1,0.3,4.7c0,1.5-0.1,3-0.1,4.5c0,3.1-0.1,6.1-0.1,9.2c0,2.6,0.1,5.1,0.1,7.7
	c0,1.6,0,3.3,0,4.9c0,1,0,1.9,0,2.9c0.1,1.3,0.2,2.6,0.2,3.9c0,1.5-0.2,3.1-0.2,4.6c0,1.1,0.2,2.1,0.2,3.2c0,1.9-0.1,3.9-0.2,5.8
	c0,1.3,0,2.6-0.1,3.9c-0.1,2.6-0.2,5.2-0.3,7.8c0,1.1,0.2,2.1,0.2,3.2c0,4.5,0.1,9,0.1,13.4c0,3.4-0.1,6.7-0.1,10.1
	c0,1.6-0.4,3.2,0,4.8c0.2,1,0.1,2,0,3c-0.1,2.4-0.4,4.7-0.3,7.1c0.1,1.4-0.2,2.7-0.1,4.1c0.2,1.3-0.1,2.6-0.2,3.9
	c0,0.8-0.1,1.6,0.2,2.3C9.8,168.3,10.1,168.8,9.2,169.5z"/>
<path style="fill:#141414;" d="M9.2,169.5c0.9-0.8,0.7-1.3,0.4-1.9c-0.3-0.7-0.2-1.5-0.2-2.3c0-1.3,0.4-2.6,0.2-3.9
	c-0.2-1.4,0.1-2.7,0.1-4.1c-0.1-2.4,0.2-4.7,0.3-7.1c0-1,0.2-2,0-3c-0.4-1.6,0-3.2,0-4.8c0-3.4,0.1-6.7,0.1-10.1c0-4.5,0-9-0.1-13.4
	c0-1.1-0.2-2.1-0.2-3.2c0.1-2.6,0.2-5.2,0.3-7.8c0-1.3,0-2.6,0.1-3.9c0.1-1.9,0.2-3.9,0.2-5.8c0-1.1-0.2-2.1-0.2-3.2
	c0-1.5,0.2-3.1,0.2-4.6c0-1.3-0.2-2.6-0.2-3.9c0-1,0-1.9,0-2.9c0-1.6,0-3.3,0-4.9c0-2.6-0.1-5.1-0.1-7.7c0-3.1,0.1-6.1,0.1-9.2
	c0-1.5,0.1-3,0.1-4.5c0-1.6-0.3-3.1-0.3-4.7c0-1.2,0.3-2.4,0.4-3.6c0.1-1,0.1-1.9,0.1-2.9c0-2.1-0.4-4.1-0.2-6.2
	c0.2-2.3,0-4.6,0.1-6.9c0-1.8,0.1-3.6,0.2-5.4c0-0.9-0.1-1.8-0.1-2.6c0-1.9-0.1-3.8-0.1-5.7c0-0.3-0.1-0.5-0.2-0.8
	c-0.6-1.4,0.9-2.9,2.8-2.9c1.4,0,2.8,0,4.3,0c3.4,0,6.9,0.1,10.3,0.1c3.5,0,7-0.1,10.5-0.1c3.4,0,6.8,0,10.2,0.1
	c0.4,0,0.8,0.1,1.2,0.2c0.3,0,0.6,0.2,0.9,0.1c2.8-0.3,5.5,0.1,8.3-0.1c3.5-0.2,7.1,0.1,10.7,0.1c3.5,0,6.9,0.1,10.4,0.1
	c13.3,0.1,26.6,0.1,40,0.1c2.2,0,4.5-0.1,6.7,0c6.7,0.3,13.4,0.2,20.1,0.1c4.3-0.1,8.5,0,12.8,0.1c3,0,6,0,9,0.1
	c0.6,0,1.1,0,1.6,0.2c1.7,0.4,3.4,0.4,5.1,0.3c2.2-0.1,4.3,0,6.5,0c1.1,0,2.1,0,3.2,0c0.8,0.3,0.9,0.9,0.8,1.6
	c-0.6,4.9-0.2,9.8-0.3,14.7c0,2.2,0,4.4,0,6.6c0,2.7,0.1,5.4,0.1,8.2c0,1.6-0.1,3.2-0.1,4.8c0,4.5,0,9,0,13.6c0,2.9-0.1,5.8-0.1,8.6
	c0,2.1,0.2,4.3,0.2,6.4c0,2.8-0.2,5.6-0.2,8.4c0,1.8,0.2,3.6,0.2,5.4c0,1.6,0,3.3,0,4.9c0,1.6,0,3.2,0,4.8c0,1.1-0.1,2.2,0,3.3
	c0,1.9,0.1,3.7,0.1,5.6c0,0.4-0.1,0.8-0.1,1.3c0,2.5,0.1,5.1,0.1,7.6c0,5.5,0.1,11.1,0.1,16.6c0,8.2,0,16.4,0,24.6
	c0,1.8,0,3.5,0,5.4c-0.8,0.1-1.4,0.2-2,0.2c-3.8,0-7.5,0-11.3,0c-5.6,0-11.2,0.1-16.8,0.1c-5.3,0-10.6-0.1-15.9-0.1
	c-7.2-0.1-14.3-0.1-21.5-0.2c-3.3,0-6.7,0-10,0c-1.4,0-2.8,0.2-4.3,0.2c-4.1,0-8.3-0.1-12.4-0.2c-0.2,0-0.4,0-0.6,0
	c-4.6,0.1-9.1,0-13.7,0.3c-6.6,0.3-13.1-0.1-19.7,0c-5.5,0.1-11,0-16.5,0c-2.9,0-5.9-0.1-8.8-0.1c-4.7,0-9.5,0.1-14.2,0.1
	c-1.9,0-3.7,0.2-5.6,0.2C11.3,169.8,10.4,169.6,9.2,169.5z M10.9,168.7c0.3,0,0.8,0.1,1.3,0.1c2.9,0,5.9-0.1,8.8-0.1
	c3.2,0,6.5,0,9.7,0c1.6,0,3.1-0.1,4.7-0.1c4.1,0,8.2,0.1,12.3,0.2c3.4,0,6.8,0,10.2,0c4.4,0,8.8-0.1,13.3-0.1c4.1,0,8.2,0,12.3,0
	c5.3,0,10.6-0.1,15.8-0.1c1.5,0,2.9,0.1,4.4,0.1c2.5-0.1,5.1-0.2,7.6-0.2c4.6,0,9.1,0.1,13.7,0.1c8.6,0,17.2,0.1,25.7,0.1
	c4.1,0,8.1,0,12.2,0c2.5,0,5.1-0.2,7.6-0.2c4.2,0,8.4,0.1,12.7,0.1c0.3,0,0.6-0.1,0.8-0.1c0-4,0-7.9,0-11.8
	c-0.1-8.1-0.2-16.1-0.2-24.2c0-9.6,0-19.2,0-28.8c0-3.6-0.2-7.3-0.3-10.9c0-3.1,0.2-6.3,0.2-9.4c0-2-0.2-4.1-0.2-6.1
	c0-2,0.2-4,0.2-6c0-1.9-0.2-3.8-0.2-5.8c0-3.5-0.2-7,0.2-10.6c0.3-2.6,0.1-5.2,0.1-7.7c0-2.8-0.2-5.5-0.2-8.3c0-3.9,0-7.8,0-11.7
	c0-2.6-0.1-5.1-0.2-7.7c0-0.6-0.3-0.9-1-0.9c-0.4,0-0.8-0.1-1.2-0.1c-2.8-0.1-5.6-0.1-8.4-0.1c-1,0-1.9-0.4-2.9-0.4
	c-2.8-0.1-5.6-0.2-8.3-0.3c-6.1-0.1-12.2-0.1-18.3-0.1c-8.1-0.1-16.2-0.2-24.4-0.2c-22-0.1-44.1-0.2-66.1-0.2
	c-6.2,0-12.4-0.2-18.5-0.4c-4.3-0.1-8.5-0.1-12.8-0.1c-2.7,0-5.4,0-8.1,0.1c-1.4,0-1.7,0.3-1.6,1.3c0,0.3,0.2,0.6,0.1,0.9
	c-0.5,3.5-0.4,7.1-0.4,10.6c0,1.3-0.4,2.7,0.3,3.9c0.1,0.2,0,0.6-0.2,0.7c-0.4,0.3-0.3,0.5-0.3,0.8c0,1.6,0.5,3.3-0.1,4.9
	c0,0.1,0,0.3,0.1,0.3c0.8,0.3,0.4,0.8,0.4,1.2c0,0.8-0.1,1.7-0.2,2.5c0,1.2,0,2.4-0.1,3.6c-0.1,1.2,0.7,2.4-0.2,3.6
	c0,0,0,0.2,0.1,0.2c0.8,0.5,0.3,1.1-0.1,1.6c-0.4,0.4-0.3,0.8,0,1.1c0.5,0.4,0.5,0.7,0.1,1.2c-0.3,0.3-0.5,0.7,0,1
	c0.1,0.1,0,0.4,0,0.6c0.1,1.4-0.5,2.8,0.3,4.1c0.1,0.2,0.1,0.7,0,0.8c-0.8,0.4-0.4,0.9-0.4,1.4c0.1,0.9,0.1,1.7,0.2,2.6
	c0,0.9-0.6,1.8,0.2,2.6c0,0.1,0,0.2,0,0.2c-0.4,1.2,0.5,2.4-0.4,3.6c-0.1,0.1,0,0.2,0.1,0.3c0.6,0.5,0.3,0.9-0.1,1.4
	c-0.4,0.5-0.5,1,0.1,1.4c0.4,0.3,0.3,0.7,0,1c-0.2,0.2-0.4,0.7-0.2,0.8c0.4,0.4,0.1,0.7,0,1c-0.1,0.4,0,0.9,0,1.4
	c0,1.1-0.1,2.2-0.1,3.3c0,0.1,0,0.3,0.1,0.4c0.1,0.3,0.4,0.6,0.4,0.9c0,1.2-0.1,2.4-0.2,3.7c-0.1,1.7-0.2,3.5-0.4,5.2
	c0,0.1,0.1,0.2,0.2,0.3c0.6,0.3,0.4,0.7,0.4,1c-0.1,2.2,0,4.5-0.3,6.7c-0.2,1.3,0.6,2.6-0.2,4c-0.3,0.6,0,1.4,0.1,2
	c0.1,0.7-0.6,1.4,0.2,2c0.1,0.1,0,0.4-0.1,0.5c-0.3,0.4-0.3,0.7-0.1,1.2c0.2,0.3,0,0.8,0,1.2c0,0.2-0.2,0.5-0.1,0.6
	c0.5,0.5,0.3,1-0.1,1.5c-0.4,0.5-0.3,0.8,0,1.3c0.2,0.2,0.4,0.5,0.3,0.7c-0.2,0.6-0.9,1.1-0.1,1.7c-0.8,0.6,0.4,1.4-0.3,2.1
	c-0.2,0.2,0.1,0.7,0.1,1.1c0,0.3-0.1,0.7-0.1,1c-0.1,1.2,0.2,2.3-0.1,3.5c-0.1,0.3,0.1,0.7,0.2,1.1c0,0.2,0.2,0.4,0.1,0.6
	c-0.1,1.5-0.2,3-0.2,4.6c0,1,0.1,2,0.1,3c0,1.4-0.2,2.7-0.2,4.1c0,2.1,0,4.2,0,6.3c0,0.8,0.1,1.5,0,2.3c0,1.9-0.1,3.8-0.1,5.7
	c0,0.6-0.2,1.1-0.2,1.7c0,1,0.2,2,0.2,2.9c0,1.1-0.1,2.2-0.2,3.3c-0.1,0.9-0.1,1.8-0.1,2.7c-0.1,0.8,0.3,1.6,0,2.5c0,0,0,0.1,0,0.1
	C10.9,167.2,10.9,167.9,10.9,168.7z"/>
<path style="fill:#F4F9F3;" d="M10.9,168.7c0-0.8,0-1.5,0-2.2c0,0,0-0.1,0-0.1c0.3-0.8-0.1-1.7,0-2.5c0.1-0.9,0.1-1.8,0.1-2.7
	c0.1-1.1,0.2-2.2,0.2-3.3c0-1-0.2-2-0.2-2.9c0-0.6,0.2-1.1,0.2-1.7c0.1-1.9,0.1-3.8,0.1-5.7c0-0.8,0-1.5,0-2.3c0-2.1,0-4.2,0-6.3
	c0-1.4,0.2-2.7,0.2-4.1c0-1-0.1-2-0.1-3c0-1.5,0.1-3,0.2-4.6c0-0.2-0.1-0.4-0.1-0.6c-0.1-0.4-0.3-0.8-0.2-1.1c0.3-1.2,0-2.3,0.1-3.5
	c0-0.3,0.1-0.7,0.1-1c0-0.4-0.4-0.9-0.1-1.1c0.7-0.7-0.5-1.5,0.3-2.1c-0.9-0.6-0.2-1.2,0.1-1.7c0.1-0.2-0.2-0.5-0.3-0.7
	c-0.3-0.4-0.4-0.8,0-1.3c0.4-0.5,0.6-0.9,0.1-1.5c-0.1-0.1,0.1-0.4,0.1-0.6c0-0.4,0.2-0.9,0-1.2c-0.3-0.4-0.2-0.8,0.1-1.2
	c0.1-0.2,0.2-0.4,0.1-0.5c-0.8-0.6-0.1-1.3-0.2-2c-0.1-0.7-0.5-1.5-0.1-2c0.8-1.4,0-2.7,0.2-4c0.3-2.2,0.2-4.5,0.3-6.7
	c0-0.4,0.2-0.8-0.4-1c-0.1,0-0.2-0.2-0.2-0.3c0.1-1.7,0.3-3.5,0.4-5.2c0.1-1.2,0.1-2.4,0.2-3.7c0-0.3-0.3-0.6-0.4-0.9
	c-0.1-0.1-0.1-0.3-0.1-0.4c0-1.1,0.1-2.2,0.1-3.3c0-0.5-0.1-0.9,0-1.4c0-0.3,0.4-0.6,0-1c-0.2-0.1,0-0.6,0.2-0.8
	c0.3-0.4,0.4-0.7,0-1c-0.6-0.5-0.5-0.9-0.1-1.4c0.4-0.4,0.6-0.9,0.1-1.4c-0.1-0.1-0.2-0.2-0.1-0.3c0.9-1.2,0-2.4,0.4-3.6
	c0-0.1,0-0.2,0-0.2c-0.8-0.8-0.2-1.8-0.2-2.6c0-0.9-0.1-1.8-0.2-2.6c0-0.5-0.4-1,0.4-1.4c0.2-0.1,0.2-0.5,0-0.8
	c-0.8-1.4-0.2-2.8-0.3-4.1c0-0.2,0.1-0.5,0-0.6c-0.5-0.4-0.2-0.8,0-1c0.4-0.5,0.4-0.8-0.1-1.2c-0.4-0.3-0.4-0.7,0-1.1
	c0.4-0.5,0.9-1,0.1-1.6c-0.1,0-0.1-0.2-0.1-0.2c0.9-1.2,0.1-2.4,0.2-3.6c0.1-1.2,0.1-2.4,0.1-3.6c0-0.8,0.1-1.7,0.2-2.5
	c0-0.4,0.4-0.9-0.4-1.2c-0.1,0-0.1-0.2-0.1-0.3c0.6-1.6,0-3.2,0.1-4.9c0-0.3-0.1-0.5,0.3-0.8c0.2-0.1,0.3-0.5,0.2-0.7
	c-0.7-1.3-0.3-2.6-0.3-3.9c0-3.5-0.1-7.1,0.4-10.6c0-0.3-0.1-0.6-0.1-0.9c-0.1-1.1,0.2-1.3,1.6-1.3c2.7,0,5.4-0.1,8.1-0.1
	c4.3,0,8.5,0,12.8,0.1c6.2,0.2,12.4,0.4,18.5,0.4c22,0.1,44.1,0.1,66.1,0.2c8.1,0,16.3,0.2,24.4,0.2c6.1,0.1,12.2,0.1,18.3,0.1
	c2.8,0,5.6,0.1,8.3,0.3c1,0,1.9,0.4,2.9,0.4c2.8,0,5.6,0.1,8.4,0.1c0.4,0,0.8,0.1,1.2,0.1c0.8,0.1,1,0.4,1,0.9
	c0,2.6,0.2,5.1,0.2,7.7c0,3.9,0,7.8,0,11.7c0,2.8,0.2,5.5,0.2,8.3c0,2.6,0.2,5.2-0.1,7.7c-0.4,3.5-0.2,7.1-0.2,10.6
	c0,1.9,0.2,3.8,0.2,5.8c0,2-0.2,4-0.2,6c0,2,0.2,4.1,0.2,6.1c0,3.1-0.2,6.3-0.2,9.4c0,3.6,0.2,7.3,0.3,10.9c0,9.6,0,19.2,0,28.8
	c0,8.1,0.1,16.1,0.2,24.2c0,3.9,0,7.8,0,11.8c-0.2,0-0.5,0.1-0.8,0.1c-4.2,0-8.4-0.1-12.7-0.1c-2.5,0-5.1,0.2-7.6,0.2
	c-4.1,0-8.1,0-12.2,0c-8.6,0-17.2,0-25.7-0.1c-4.6,0-9.1-0.1-13.7-0.1c-2.5,0-5.1,0.2-7.6,0.2c-1.5,0-2.9-0.1-4.4-0.1
	c-5.3,0-10.6,0.1-15.8,0.1c-4.1,0-8.2,0-12.3,0c-4.4,0-8.8,0-13.3,0.1c-3.4,0-6.8,0-10.2,0c-4.1,0-8.2-0.1-12.3-0.2
	c-1.6,0-3.1,0.1-4.7,0.1c-3.2,0-6.5,0-9.7,0c-2.9,0-5.9,0.1-8.8,0.1C11.7,168.9,11.2,168.8,10.9,168.7z"/>
</svg>
