<?xml version="1.0" encoding="utf-8"?>
<!-- Generator: Adobe Illustrator 24.0.0, SVG Export Plug-In . SVG Version: 6.00 Build 0)  -->
<svg version="1.1" id="Layer_1" xmlns="http://www.w3.org/2000/svg" xmlns:xlink="http://www.w3.org/1999/xlink" x="0px" y="0px"
	 viewBox="0 0 358 210" style="enable-background:new 0 0 358 210;" xml:space="preserve">
<g id="panell_11_pic">
	<g>
		<path style="fill:#D9EFF8;" d="M337.7,184.2c-1.4,1.3-3.1,2-4.9,2.4c-1.6,0.4-3.2,0.7-4.8,1.1c-0.2,0-0.4,0.1-0.6,0.1
			c-1.9,0.1-3.7,0.2-5.6,0.2c-3.3,0-6.7,0-10,0c-4,0-7.9,0-11.9,0.3c-3.7,0.3-7.4,0.1-11.2,0.2c-7.5,0.1-15,0.2-22.4,0.2
			c-0.8,0-1.6,0.2-2.4,0.2c-1,0-2,0-3,0c-1.1,0-2.2,0-3.3,0c-1,0-2,0-3,0c-1.2,0-2.3,0-3.5,0c-1,0-2,0-3,0c-2.6,0-5.2-0.1-7.8,0.1
			c-2.7,0.2-5.3,0.1-7.9,0.2c-3.2,0-6.3,0-9.5,0c-1.4,0-2.8,0.1-4.2,0.1c-2,0-4.1-0.1-6.1-0.1c-0.3,0-0.5,0-0.8,0
			c-2.5,0-4.9-0.1-7.4,0c-7,0.4-14.1,0.1-21.1,0.2c-2.5,0-5,0.2-7.4,0.5c-1.2,0.1-2.4,0.5-3.6,0.4c-0.5,0-0.9,0.3-1.4,0.4
			c-1.2,0.3-2.4,0.5-3.6,0.7c-1,0.2-1.9,0.4-2.9,0.8c-1.5,0.6-3.2,0.7-4.8,1.1c-1.1,0.3-2.2,0.3-3.3,0.3c-2.9,0-5.7,0-8.6,0
			c-1.3,0-2.6-0.4-3.8-0.1c-1.6,0.3-3.1-0.5-4.7-0.3c-0.3,0-0.6-0.1-0.9-0.2c-1.2-0.3-2.4-0.4-3.6-0.3c-0.5,0-1.1-0.2-1.6-0.2
			c-1.3,0.1-2.6-0.2-4-0.1c-1.1,0.1-2.3-0.2-3.4-0.2c-1.5,0-3,0-4.5,0c-1.2,0-2.4,0-3.6,0.1c-1.9,0-3.7,0.3-5.5,1
			c-1.7,0.7-3.6,1.1-5.3,1.7c-1.5,0.5-3.1,0.9-4.6,1.6c-1.7,0.8-3.6,1.1-5.4,1.4c-1.8,0.3-3.7,0.7-5.5,0.8s-3.6,0-5.4,0
			c-0.4,0-0.8-0.1-1.1-0.1c-1.9-0.2-3.9-0.3-5.8-0.5c-0.6-0.1-1.2-0.4-1.7-0.6c-2.4-1-4.8-2-7.2-3c-0.3-0.1-0.7-0.2-1-0.2
			c-2,0-4.1-0.2-6.1,0c-2.8,0.3-5.7,0.1-8.5,0.2c-1,0-1.8-0.3-2.5-0.9c-1.1-0.8-2.2-1.6-3.7-1.6s-2.9-0.2-4.4,0
			c-1.1,0.1-2.2-0.1-3.4-0.1c-0.2,0-0.5,0-0.7,0c-0.1,0-0.3,0.1-0.4,0.1c-1.1-0.1-2.3,0-3.4,0c-0.5,0-1,0-1.4,0
			c-1.2,0.1-2.5,0-3.7-0.1c-0.1,0-0.2-0.1-0.3-0.1c-1.2,0.5-2.4-0.2-3.6,0c-1.7,0.2-3-0.6-3.9-1.9c-0.5-0.7-1-0.9-1.7-0.8
			c-2.3,0.1-4.7,0.1-7,0.3c-2.1,0.1-4.7-1.5-5-4.3c-0.1-0.7,0.2-1.4,0.3-2.1c0.1-0.4,0.3-0.7,0.4-1.1c1.1,0.3,2.1,0,3.1-0.3
			c0.4-0.1,0.7,0,1.2,0.1c1.4,0.5,2.9,1,4.4,0.2c0.1-0.1,0.3,0,0.4,0c0.9,0.1,1.9,0.2,2.8,0.2c1,0,2-0.4,2.9,0.5
			c0.2,0.2,0.7,0.1,1.1,0s0.7-0.4,1-0.6c-0.4-1-1.1-0.8-1.7-0.7c-0.3-0.3-0.6-0.6-0.9-0.9c-0.4,0.1-0.8,0.3-1.1,0.3
			c-0.9,0.1-1.8,0.2-2.7,0.3c-0.2,0-0.4-0.1-0.6-0.3c-0.8-0.8-1.1-0.9-1.7-0.1c-0.6,0.8-1.2,0.8-2,0.6c-0.4-0.1-0.9-0.2-1.1-0.2
			c-0.5-0.5-0.7-0.8-1.1-1c-0.2-0.1-0.7,0-0.8,0.1c-0.3,0.9-1.1,0.6-1.7,0.7c0.1-0.8,0.2-1.5,0.3-2.3c0-0.2,0.2-0.5,0.1-0.7
			c-0.4-1.2,0.2-1.9,1.1-2.5c0.1-0.1,0.2-0.3,0.3-0.4c1,0,2-0.1,3-0.1c0.8,0,1.5-0.2,2.3-0.2c1.9,0,3.8,0.2,5.7,0.1
			c2.6-0.2,5.1-0.1,7.7,0.1c2.9,0.2,5.9,0.2,8.8,0.2c3,0,6-0.3,8.9-0.4c0.5,0,1.1,0,1.6-0.1c1.5-0.2,2.9-0.4,4.4-0.6
			c1-0.2,1.8,0.2,2.4,1c1.2,1.3,2.6,2.2,4.3,2.5c2.4,0.5,4.7,1,7.2,0.9c2.1,0,4.3,0.2,6.4,0.1c1.5-0.1,2.7,0.4,3.9,1.2
			c0.9,0.6,1.9,1.2,2.8,1.8c2.5,1.4,5,3,7.8,4c1.9,0.7,3.5,0.2,5-1c1.7-1.3,3.2-3.1,5.1-4.2c0.5-0.3,0.9-0.8,1.4-1.2
			c1.2-0.9,2.4-1.8,3.6-2.6c1.6-1.2,3.3-2,5.5-2c3.1,0,6.3-0.3,9.4-0.4c0.8,0,1.6-0.2,2.4-0.2c2,0,3.9,0.5,5.9,0.3
			c1.4-0.1,2.7,0.1,4.1,0.1c3-0.1,6,0.4,9-0.2c0.1,0,0.1,0.1,0.2,0.1c1.9,0.1,3.7,0.2,5.6,0.1c2.6-0.2,5.2-0.1,7.8,0.1
			c3,0.2,6,0.2,8.9,0.2c2,0,4-0.2,6-0.3c2.1-0.1,4.2-0.3,6.3-0.4c0.7-0.1,1.3-0.3,2-0.3c1.3,0,2.5,0.1,3.8,0.1c0.7,0,1.4,0,2.1,0.1
			c2,0.2,4-0.1,5.9,0c2.9,0.2,5.8,0,8.8,0c0.9,0,1.8,0.1,2.6,0c1.6-0.1,3.3-0.2,4.9,0.1c0.2,0,0.4,0,0.6,0c1.1,0,2.2,0,3.3,0
			c0.6,0,1.3-0.2,1.9-0.2c1.5,0,2.9,0.2,4.4,0.2c2.2,0,4.4-0.2,6.6-0.3c0.8,0,1.7-0.1,2.5-0.2c1.1,0,2.2-0.1,3.3-0.1
			c0.2,0,0.4,0,0.7,0c1.4,0.1,2.8,0.2,4.2,0.1c1.9-0.1,3.8-0.4,5.8-0.2c0.7,0.1,1.4-0.1,2-0.1c1.2,0.1,2.3,0.3,3.5,0.4
			c2.2,0.1,4.3,0.1,6.5,0.1c2,0,4-0.2,6.1-0.3c2.2-0.1,4.4-0.3,6.6-0.5c0.2,0,0.5-0.1,0.7-0.1c1.1-0.2,2.1-0.5,3.2,0.1
			c0.2,0.1,0.4,0.1,0.6,0.1c1.5-0.1,3.1-0.1,4.6,0c0.6,0,1.3-0.1,1.9-0.1c0.3,0,0.6,0,0.9,0c0.6,0,1.1,0.1,1.7,0.1
			c2.8,0,5.6,0,8.4,0c1.3,0,2.6-0.1,3.9-0.2c0.9,0,1.9-0.2,2.7,0c1.5,0.3,2.9,0.1,4.3,0.1c0.9,0,1.8-0.2,2.6-0.1
			c2.1,0.2,4.1,0.2,6.1,0c0.8-0.1,1.7-0.2,2.5-0.1c3.6,0.2,7.1,0.4,10.7,0.5c0.6,0,1.2-0.1,1.8-0.1c1.9,0,3.8,0,5.7-0.1
			c1.8-0.1,3.6-0.2,5.4-0.3c0.5,0,1.1-0.3,1.6-0.2c2.3,0.1,4.7,0.5,7,0.4c0.3,0,0.6,0.1,0.9,0c2.1-0.1,4.2-0.3,6.2-0.4
			c0.6,2.1-0.5,4.2-2.7,4.7c-2,0.5-3.3,1.8-4.4,3.4c-0.8,1.1-1.4,2.4-2.6,3.1c-0.2,0-0.6,0.1-0.7-0.1c-0.6-0.7-1.2-0.3-1.7,0.1
			c-1,0.7-2.1,0.7-3.2,0.2c-0.4-0.2-0.8-0.3-0.9-0.4c-1,0.4-1.9,1-2.7,1c-0.9,0.1-1.8-0.4-2.7-0.6c0,0.2-0.1,0.3,0,0.4
			c0.3,1.2,1.7,1.9,2.9,1.6c0.7-0.2,1.4-0.5,2-0.8c0.4-0.2,0.8-0.3,1.2-0.1c1.2,0.7,2.4,0.5,3.7,0.1
			C337,184.3,337.4,184.3,337.7,184.2z M252.6,178c-0.2-0.2-0.4-0.6-1-0.3c0.4,0.3,0.7,0.5,1,0.8c0.8,1.1,1.6,1.4,2.6,0.7
			c1.1-0.7,2.2-0.7,3.3-0.2c0.9,0.4,1.9,0.6,2.9,0.2c0.5-0.2,1-0.1,1.5,0.2c1.4,0.7,2.7,0.6,4-0.2c0.3-0.2,0.6-0.2,1,0
			c0.8,0.5,1.6,0.3,2.5,0.2c0.4,0,0.7-0.4,1.1-0.6c-0.2-0.3-0.4-0.6-0.6-0.9c-0.3,0.1-0.6,0.2-0.9,0.2c-0.7,0.2-1.3,0.1-1.8-0.3
			c-1-0.7-1-0.7-1.8,0.2s-2.5,0.9-3.4,0.1c-0.4-0.4-0.7-0.6-1.3-0.2c-0.1,0.1-0.3,0.1-0.5,0.2c-1.1,0.4-2.2,0-3.2-0.4
			c-0.4-0.2-0.9-0.4-1.3-0.1c-0.7,0.7-1.6,0.5-2.4,0.9c-0.2,0.1-0.5,0-0.8-0.1C253.2,178.2,252.9,178.1,252.6,178z M167,177.9
			c-0.3-0.2-0.5-0.4-0.8-0.5c0,0.1-0.1,0.1-0.1,0.2c0.2,0.2,0.4,0.4,0.7,0.6c0.1,0.1,0.2,0.2,0.2,0.2c1.2,1.2,1.5,1.3,3.1,0.5
			c0.6-0.3,1.2-0.5,1.9-0.4c0.4,0.1,0.7,0.2,1.1,0.4c1,0.4,2,0.6,3,0.2c0.5-0.2,1-0.1,1.4,0.2c1.3,0.7,2.6,0.6,3.8-0.1
			c0.5-0.3,0.8-0.3,1.3-0.1c1.2,0.4,2.3,0.4,3.3-0.6c-0.2-0.3-0.4-0.6-0.6-0.8c-0.2,0-0.4,0-0.5,0.1c-0.9,0.4-1.7,0.3-2.5-0.3
			c-0.6-0.5-0.9-0.4-1.4,0.3c-0.4,0.6-1.1,0.7-1.7,0.8c-0.7,0-1.4,0.1-1.8-0.6c-0.3-0.4-0.7-0.5-1.2-0.2c-0.1,0.1-0.3,0.1-0.5,0.2
			c-1.1,0.4-2.2,0-3.2-0.4c-0.4-0.1-1.1-0.3-1.2-0.2c-0.5,0.8-1.4,0.5-2.1,0.9c-0.5,0.3-0.9,0.2-1.4,0
			C167.6,178.1,167.3,178,167,177.9z M75.6,186.6c-0.2-0.7-0.7-1-1.3-0.9c-0.3,0-0.5,0-0.8,0c-0.8,0.1-1.4,0-1.9-0.7
			c-0.3-0.4-1.1-0.5-1.5-0.2c-0.8,0.8-1.6,0.6-2.5,0.2c-0.8-0.4-0.9-0.3-1.5,0.5c-0.1,0.2-0.3,0.4-0.5,0.5c-1.2,0.2-2.3,0.1-3.3-0.5
			c-0.8-0.5-1.3-0.3-1.9,0.2c-0.5,0.5-1.2,0.7-1.8,0.8s-1.1,0-1.5-0.6c-0.2-0.3-0.5-0.5-0.7-0.7c-0.8,0.3-1.5,0.6-2.2,0.8
			c-0.9,0.3-1.3-0.7-1.9-0.9c-0.6,0.8-0.6,1.2,0.1,1.8c0.9,0.8,1.9,0.7,2.9,0.4c0.5-0.1,0.9-0.1,1.3,0.1c1.3,0.6,2.6,0.8,3.9-0.1
			c0.6-0.4,1.2-0.5,1.8-0.2c0.4,0.2,1,0.4,1.4,0.4c0.8,0,1.6,0.1,2.2-0.2c0.7-0.4,1.3-0.5,2.1-0.4c0.5,0,1,0.2,1.4,0.1
			c0.8-0.3,1.5,0,2.2,0.1c0.5,0.1,1,0.1,1.5,0.1c0.4,0,0.9-0.1,1.3,0C75,187.3,75.3,187,75.6,186.6z M37.8,186.1c-0.3,0-0.3,0-0.4,0
			c-1.2,0.5-2.3,0.7-3.5-0.2c-0.3-0.2-0.7-0.2-1,0.1c-0.9,0.9-2.2,0.9-3.1,0c-0.7-0.6-0.9-0.6-1.6-0.1c-1.4,1-2.9,1.5-4.6,0.5
			c-0.3-0.2-0.7-0.3-1-0.4c0,0.1-0.1,0.2-0.1,0.2c0.5,0.9,1.1,1.6,2.3,1.7c1.1,0.1,2.1,0.1,3-0.6c0.6-0.4,1.1-0.5,1.7-0.1
			c0.2,0.1,0.5,0.2,0.7,0.3c0.8,0.3,1.7,0.5,2.5,0.1c0.7-0.3,1.4-0.3,2.2-0.2c0.7,0.1,1.4,0.1,2.2,0.1c0.4,0,0.7,0,1.1,0.3
			c0.4,0.4,1,0.4,1.5,0.2c0.4-0.1,0.7-0.2,0.7-0.6c-0.1-0.2-0.5-0.6-0.7-0.5C38.6,187.1,38,186.9,37.8,186.1z M138.3,179.8
			c0,0.7,0.1,1,0.6,1.2c1.4,0.7,2.7,0.9,4.2,0.4c0.3-0.1,0.6-0.2,0.9-0.1c1.3,0.5,2.6,0.4,3.9,0.2c0.6-0.1,1.2-0.2,1.9,0.2
			c0.4,0.3,1,0.2,1.4,0.3c1.4,0.3,2.7,0,4.1-0.2c0.2,0,0.5-0.2,0.7-0.3c-0.2-1-0.2-1-1.1-1.3c-0.6,1-1.7,0.8-2.7,0.8
			c-0.7,0-1.5,0-2-0.8c-0.1-0.2-0.8-0.5-1-0.3c-1,0.7-2.1,0.5-3.2,0.5c-0.4,0-0.8-0.1-1.2-0.3c-0.5-0.2-1-0.4-1.6-0.6
			c-0.1,0.8-0.7,0.9-1.2,0.9c-0.9,0-1.8,0-2.6-0.4C139,180,138.7,179.9,138.3,179.8z M223.9,179.9c0,0.6,0,0.9,0.5,1.2
			c1.4,0.7,2.8,0.9,4.3,0.4c0.3-0.1,0.6-0.1,0.9-0.1c1.1,0.4,2.2,0.4,3.3,0.2c0.9-0.1,1.7-0.1,2.7,0.2c1.9,0.7,3.8,0.3,5.6-0.1
			c0.1,0,0.2-0.2,0.4-0.4c-0.3-0.4-0.5-0.7-0.8-1c-0.1-0.1-0.6-0.1-0.7,0c-0.8,0.9-1.8,0.6-2.8,0.6c-0.6,0-1.3-0.1-1.7-0.8
			c-0.2-0.2-0.8-0.5-1.1-0.3c-1.2,0.6-2.4,0.4-3.6,0.4c-0.3,0-0.5-0.1-0.8-0.2c-0.5-0.2-1-0.4-1.5-0.6c-0.2,0.9-0.7,0.9-1.3,0.9
			c-0.9,0-1.7-0.1-2.5-0.4C224.6,180,224.2,180,223.9,179.9z M125.6,182.6c0,0,0.1-0.2,0.3-0.3c0.3-0.3,0.3-0.7,0-1
			c-0.2-0.3-0.5-0.5-1-0.3c-1.2,0.5-2.5,0.2-3.7-0.2c-0.7-0.2-1.3-0.7-1.7,0.3c0,0.1-0.2,0.1-0.3,0.2c-1.3,0.3-2.6,0.4-3.7-0.6
			c-0.1-0.1-0.2-0.2-0.4-0.3c-0.5-0.2-0.9-0.4-1.2,0.3c-0.1,0.1-0.2,0.3-0.4,0.4c-1.1,0.3-2.2,0.6-3.3,0c-0.3-0.2-0.8-0.1-1.2-0.1
			c0,0.9,0.4,1.3,1,1.5c0.8,0.2,1.6,0.4,2.5,0c1.3-0.6,2.7-0.9,4.1,0.1c0.6,0.4,1.5,0.4,2.2,0.1c1.1-0.4,2.3-0.7,3.5-0.1
			c0.3,0.1,0.6,0,0.9,0.1C123.9,182.5,124.6,182.5,125.6,182.6z M311.3,178.2c0,0.6,0,0.9,0.5,1.2c1.4,0.7,2.8,0.9,4.3,0.4
			c0.3-0.1,0.6-0.2,0.9-0.1c1.1,0.4,2.2,0.4,3.3,0.2c0.9-0.1,1.7-0.1,2.7,0.2c1.9,0.7,3.8,0.3,5.6-0.1c0.1,0,0.2-0.2,0.5-0.4
			c-0.3-0.3-0.5-0.7-0.8-1c-0.1-0.1-0.6-0.1-0.7,0c-0.8,0.9-1.8,0.6-2.8,0.6c-0.6,0-1.3-0.1-1.7-0.8c-0.2-0.3-0.8-0.5-1.1-0.3
			c-0.8,0.5-1.8,0.3-2.7,0.5c-0.7,0.1-1.4,0-2-0.4c-0.3-0.2-0.8-0.2-1.2-0.4c-0.2,0.7-0.7,0.8-1.4,0.9c-0.9,0-1.7-0.1-2.5-0.4
			C312,178.4,311.7,178.3,311.3,178.2z M298.6,181c0,0,0.1-0.1,0.2-0.2c0.4-0.3,0.5-0.7,0.2-1.1c-0.3-0.4-0.6-0.5-1.2-0.3
			c-1.1,0.4-2.2,0.2-3.2-0.2c-0.8-0.2-1.5-0.9-2.1,0.3h-0.1c-1.2,0.2-2.4,0.6-3.5-0.4c-0.2-0.2-0.4-0.3-0.7-0.5
			c-0.7-0.4-0.8-0.4-1.3,0.3c-0.1,0.1-0.3,0.3-0.4,0.3c-1.1,0.3-2.2,0.6-3.3,0c-0.3-0.2-0.8-0.1-1.2-0.1c0.1,0.9,0.5,1.3,1.2,1.5
			c0.8,0.2,1.5,0.3,2.2,0c1.4-0.5,2.7-0.9,4.1,0c0.7,0.5,1.6,0.4,2.5,0.1c1.1-0.4,2.1-0.6,3.2-0.1c0.3,0.1,0.6,0.1,0.9,0.1
			C296.9,180.8,297.6,180.9,298.6,181z M211.2,182.6c0,0,0.1-0.2,0.2-0.3c0.3-0.3,0.2-0.7,0-0.9s-0.6-0.5-0.9-0.4
			c-1.5,0.5-2.9,0.2-4.3-0.4c-0.4-0.2-0.8-0.2-1,0.2s-0.5,0.4-0.9,0.5c-1.3,0.4-2.4,0.1-3.4-0.7c-0.1-0.1-0.3-0.2-0.4-0.2
			c-0.5-0.3-0.9-0.3-1.1,0.3c-0.1,0.2-0.2,0.3-0.4,0.4c-1.1,0.3-2.2,0.6-3.3,0.1c-0.4-0.2-0.9-0.3-1.3,0c0.1,0.8,0.5,1.2,1.2,1.4
			c0.8,0.2,1.5,0.3,2.2,0c1.4-0.5,2.7-0.9,4.1,0c0.7,0.4,1.6,0.4,2.3,0.1c1.1-0.4,2.2-0.7,3.3-0.1c0.2,0.1,0.5,0.1,0.7,0.1
			C209.3,182.5,210.1,182.5,211.2,182.6z M99.2,186.5c-0.1,1,0,1.2,0.8,1.5c1,0.4,2,0.5,3,0.3c0.8-0.2,1.5-0.1,2.2,0.1
			c0.8,0.2,1.7,0.4,2.5-0.2c0.2-0.1,0.5,0,0.7,0c1.7,0.7,3.2,0.2,4.8-0.4c0.3-0.1,0.5-0.4,0.8-0.6c-0.4-0.4-0.8-0.6-1-0.8
			c-1.6,0.6-3.1,1-4.6,0c-0.5-0.3-0.9-0.4-1.3,0.1s-1,0.5-1.6,0.4c-0.4-0.1-0.8-0.2-1.2-0.4c-0.5-0.2-0.9-0.3-1.4,0
			c-0.9,0.5-1.8,0.6-2.8,0.1C99.9,186.6,99.6,186.6,99.2,186.5z M178.2,184.7c-0.1,1,0,1.2,0.8,1.5c1,0.4,2.1,0.5,3.2,0.3
			c0.7-0.1,1.3-0.1,2,0.1c0.9,0.2,1.8,0.5,2.6-0.1c0.2-0.1,0.5-0.1,0.7,0c1.7,0.7,3.2,0.2,4.8-0.4c0.3-0.1,0.5-0.3,0.8-0.6
			c-0.4-0.3-0.8-0.6-1-0.8c-1.7,0.5-3.2,1-4.7-0.1c-0.4-0.3-0.9-0.3-1.2,0.2c-0.4,0.5-1,0.5-1.6,0.4c-0.4-0.1-0.8-0.2-1.2-0.4
			c-0.5-0.2-0.9-0.3-1.4,0c-0.9,0.5-1.8,0.6-2.8,0.1C179,184.7,178.6,184.7,178.2,184.7z M272.2,184.9c-0.2,1-0.1,1.2,0.7,1.5
			c1,0.4,2,0.5,3,0.3c0.8-0.1,1.5-0.1,2.2,0.1c0.8,0.2,1.7,0.4,2.5-0.1c0.2-0.1,0.5-0.1,0.7,0c1.7,0.7,3.3,0.2,4.9-0.4
			c0.2-0.1,0.4-0.4,0.7-0.6c-0.4-0.3-0.8-0.6-1.1-0.8c-1.5,0.8-3.2,0.8-4.6,0c-0.5-0.3-0.9-0.3-1.2,0.1c-0.5,0.6-1,0.5-1.7,0.4
			c-0.4-0.1-0.7-0.2-1.1-0.4c-0.5-0.2-0.9-0.3-1.4,0c-0.8,0.5-1.8,0.6-2.8,0.1C272.9,185,272.5,185,272.2,184.9z M239.5,184.9
			c0,0.2-0.1,0.3,0,0.4c0.3,1.2,1.7,1.9,2.9,1.6c0.7-0.2,1.4-0.6,2.1-0.9c0.3-0.1,0.7-0.2,0.9-0.1c1.3,0.7,2.6,0.6,3.9,0.1
			c0.3-0.1,0.7-0.2,1-0.1c1.2,0.4,2.5,0.2,3.8,0.2c0.5,0,1-0.2,1.5-0.4c-0.6-1.2-0.9-1.3-2-0.9c-1,0.3-2.1,0.2-3-0.2
			c-0.7-0.4-1-0.2-1.5,0.1c-1.1,0.7-2.2,0.8-3.4,0.2c-0.3-0.2-0.7-0.3-0.8-0.4c-1,0.4-1.9,1-2.7,1
			C241.3,185.6,240.4,185.2,239.5,184.9z M133.8,185c-0.1,0.1-0.2,0.1-0.3,0.1c-1.5,1.1-2.6,1-3.8-0.3c-0.3-0.3-0.6-0.5-0.9-0.2
			c-0.9,0.7-2.1,0.6-3.2,0.9c-1,0.3-2,0.4-3-0.1c-0.3-0.1-0.6-0.1-1-0.1c0.7,1.3,0.7,1.3,2.3,1.9c1.3-0.4,2.4-0.7,3.6-1
			c0.6-0.2,1.2-0.1,1.8,0.2c1.1,0.7,2.3,0.8,3.5,0.3c0.2-0.1,0.4-0.1,0.6-0.2c2.3,1.1,3.6,1,4.1-0.4c-0.5-0.1-1-0.3-1.6-0.3
			c-0.7,0-1.4,0.2-1.8-0.6C134.3,185,133.9,185,133.8,185z M153.9,184.9c0.2,1.5,1.6,2.4,3,1.9c0.7-0.2,1.4-0.5,2-0.8
			c0.4-0.2,0.7-0.3,1.1-0.1c1.2,0.7,2.5,0.6,3.8,0.1c0.4-0.2,0.9-0.1,1.3-0.1c1.3,0.1,2.7,0.1,4,0.1c0.3,0,0.6-0.2,0.9-0.3
			c-0.4-1.2-0.8-1.4-1.7-1c-1.1,0.4-2.2,0.3-3.1-0.1c-0.7-0.3-1.1-0.2-1.6,0.1c-1,0.7-2.1,0.7-3.3,0.2c-0.4-0.2-0.8-0.3-1.1-0.5
			c0,0.1,0,0.2,0,0.2c-0.8,0.3-1.7,0.9-2.5,0.9C155.8,185.6,154.9,185.2,153.9,184.9z M223.3,186.1c-0.6-0.1-1-0.3-1.5-0.3
			s-1,0-1.5,0c0-0.1,0.1-0.1,0.1-0.2c-0.4-0.2-0.8-0.5-1.1-0.7c-0.7,0.7-1.5,0.9-2.4,0.9c-1.1,0-1.5-0.8-2.3-1.5
			c-1,1-2.4,0.8-3.6,1.2c-1.3,0.4-2.6-0.1-4-0.2c0.3,0.5,0.5,0.8,0.7,1.1c0.5,0.7,1.4,0.8,2,0.7c0.9-0.1,1.8-0.6,2.7-0.8
			c0.8-0.2,1.6-0.5,2.5,0.1c1.1,0.7,2.3,0.7,3.5,0.3c0.4-0.1,0.7-0.3,1.1,0c0.7,0.5,1.6,0.5,2.4,0.5
			C222.7,187.2,223,186.9,223.3,186.1z M302.3,182.8c-2.5,1.1-5,1.7-7.8,0.8c0.3,0.6,0.5,0.9,0.7,1.2c0.5,0.7,1.3,0.8,2,0.8
			c0.9-0.1,1.7-0.5,2.6-0.8s1.8-0.5,2.7,0.1c1.1,0.7,2.3,0.7,3.5,0.2c0.4-0.2,0.7-0.2,1.1,0.1c0.7,0.5,1.5,0.4,2.3,0.4
			c0.7,0,1.1-0.3,1.3-1.1c-0.6-0.1-1.1-0.3-1.6-0.3c-0.7,0-1.3,0.1-1.8-0.6c-0.1-0.1-0.4-0.2-0.7-0.2c-0.6,0.6-1.4,0.8-2.3,0.8
			C303.4,184.2,302.9,183.4,302.3,182.8z M36.1,180.6c-0.4,0.4-0.5,0.7,0,1c1.4,0.8,2.9,1,4.4,0.3c0.4-0.2,0.7-0.2,1.1-0.1
			c1.1,0.1,2.1,0.4,3.2,0.2c1-0.1,2-0.1,3,0s2,0,3-0.1c0.3,0,0.5,0,0.8,0c0.1-0.1,0.1-0.3,0.2-0.4c0.3-0.4,0.2-0.7-0.1-0.9
			s-0.8-0.5-1.2-0.2c-1.1,1-2.2,0.7-3.4,0.2c-0.4-0.2-1-0.3-1.3-0.1c-1.6,0.9-3.2,0.6-4.7-0.2c-0.4-0.2-0.8-0.3-1.1,0.2
			c-0.3,0.6-0.9,0.8-1.6,0.7C37.7,181,36.9,180.8,36.1,180.6z"/>
		<path style="fill:#FEFAD6;" d="M35.4,173.5c0.1-1-0.4-1.4-1.3-1.7c-1.8-0.6-3-1.8-3.1-3.9c0-0.1,0-0.2-0.1-0.3
			c-0.6-2.1-1.2-4.2-1.9-6.2c-0.6-1.8-1.3-3.5-2-5.2c-0.3-0.8-0.5-1.7-0.8-2.5c-0.4-1.4-0.9-2.8-1.3-4.3c-0.5-1.9-0.9-3.8-1.4-5.8
			c-0.3-1.2-0.6-2.4-0.8-3.7c-0.2-1.1-0.3-2.1-0.3-3.2c-0.1-1.6,0-3.2,0-4.8c0-2,0.1-4,0.3-6c0.1-1.1,0.5-2.2,0.8-3.3
			c0.2-0.8,0.6-1.6,0.9-2.3c0.9-2.1,2.2-3.9,3.7-5.6c0.7-0.8,1-1.9,1.3-2.9c0.7-1.9,1.3-3.9,2-5.9c0.4-1.1,0.7-2.2,1.1-3.2
			c0.5-1.2,1-2.3,1.5-3.4c0.5-1,0.9-2,1.4-3s1-2,1.6-3.1c0.4-0.7,0.7-1.4,1.1-2c0.7-1,1.3-2,2.1-2.9c1.5-1.7,3.1-3.4,4.8-5
			c1-1,2.4-1.1,3.9-0.9c1.5-1.7,3.1-3.5,3.9-5.8c1.1-2.8,0.8-5.7,0.4-8.5c-0.1-0.7-0.7-1.3-1.1-1.9c-1.2-2-2.7-3.7-3.3-6
			c-0.1-0.5-0.3-0.9-0.6-1.4c-1.1-1.9-1.6-4-1.7-6.1c0-0.6-0.2-1.1-0.2-1.7c0.1-2.5,0.2-4.9,1.7-7.1c1.5-2.3,3.2-4.3,4.9-6.5
			c1.6-2.1,2.9-4.3,3.8-6.8c0.2-0.6,0.3-1.2,0.4-1.8c0.2-1.9,0.3-3.9,0.5-5.8c0.1-0.9,0.3-1.8,0.5-2.7c0.2-1,0.6-2,0.8-3
			c0.5-2.3,1.9-3.5,4.1-4c1.7-0.4,3.4-0.7,5.1-1c1.2-0.2,2.3-0.3,3.5-0.5c1.6-0.3,3.2-0.1,4.8,0c1.5,0.1,3,0.5,4.4,0.9
			c1.5,0.4,3.2,0.7,4.3,2c0.2,0.2,0.6,0.3,0.9,0.5c0.4,0.2,0.7,0.4,1,0.7c0.6,0.7,1.3,1.4,1.8,2.2c0.8,1.4,1.7,2.7,2,4.3
			c0.2,1,0.7,2,1.1,3c0.2,0.6,0.4,1.3,0.7,1.9c0.5,1,1.1,1.9,1.7,2.8c1.1,1.7,2.1,3.5,2.8,5.5c0.3,1,0.8,1.9,1.2,2.8
			c1.5,2.9,2.4,5.9,2.9,9c0.2,1.3,0.4,2.6,0.4,4c0,2.9-1.1,5.3-3,7.4c-1.1,1.2-2.4,2.3-3.6,3.4c-0.6,0.6-1,1.2-1,2.1
			c-0.1,1.8-0.4,3.6-0.6,5.3c-0.1,0.8-0.2,1.6-0.2,2.4c-0.1,2-0.2,4-0.2,6c0,0.4,0.2,0.9,0.2,1.4c0,1-0.2,2-0.2,2.9
			c1.1,2.1,2.2,4.2,3.3,6.3c0.8,1.5,1.7,3.1,2.6,4.6c0.3,0.5,0.6,0.9,0.9,1.3c0.9,1.5,2.4,2.1,4,2.7c1.9,0.7,3.9,1.1,5.8,1.6
			c1.4,0.4,2.8,0.6,4.1,1.3c1,0.6,2.2,0.9,3.3,1.4c0.7,0.3,1.4,0.7,2.1,1c1.8,0.8,3.5,1.7,5.3,2.5c1.8,0.9,3.5,1.8,5.3,2.8
			c1.1,0.6,2.1,1.4,3.2,2c1.2,0.6,2.1,1.4,3,2.2c1.3,1.2,2.5,2.5,3.4,4.1c0.6,1.2,1.1,2.4,1.5,3.6c0.4,1.1,0.6,2.2,0.7,3.3
			c0.2,1.5,0.3,3.1,0.2,4.6c-0.1,1.5-0.3,3-0.5,4.5c-0.4,2-0.8,4-1.3,6c-0.3,1.3-0.8,2.5-1.3,3.8c-0.3,1-0.6,2-1,2.9
			c-0.5,1.3-1,2.6-1.6,3.8c-1.1,2.1-2,4.2-2.5,6.5c-0.5,2.1-1.1,4.1-1.7,6.2c-0.9,3.2-2.4,6.2-3.9,9.1c-0.4,0.8-1,1.5-1.5,2.3
			c-0.4,0-0.7,0-1.1,0c-1.5-0.1-3.1-0.3-4.6-0.3c-1.3,0-2.7,0.1-4,0.2c-0.3,0-0.6,0-0.8,0.2c-0.4,0.5-0.9,0.4-1.4,0.4
			s-1.1,0.1-1.6,0.1c-0.3,0-0.7,0-1,0c0.2-0.3,0.4-0.5,0.7-0.6c1.8-0.8,3.7-1.4,5.3-2.6c1.1-0.7,2-1.5,2.5-2.8
			c0.2-0.6,0.5-1.2,0.9-1.6c0.7-0.7,1-1.5,1.3-2.4c0.1-0.3,0.2-0.7,0.3-1c1.3-2.6,1.7-5.5,2.2-8.3c0.3-1.6,0.8-3.2,1.7-4.6
			c0.8-1.3,1.7-2.6,2.4-4c0.6-1.2,1.1-2.4,1.5-3.6c0.5-1.3,0.9-2.7,1.4-4c0.3-0.7,0.5-1.4,0.3-2.2c-0.1-0.7-0.1-1.4-0.1-2.1
			c0-1.8-0.1-3.7-0.5-5.5c-0.6-2.1-1.4-4-2.6-5.9c-0.3-0.4-0.6-0.9-1.1-1.2c-1.9-1.2-3.6-2.8-5.6-3.8c-1-0.5-1.9-1.1-3-1.3
			c-0.3-0.1-0.5-0.2-0.7-0.3c-1-0.5-1.8-1.3-2.6-2c-2-1.9-4.5-2.9-6.9-4.3c-2.9-1.7-6-3.1-9-4.6c-0.4-0.2-0.8-0.7-1-1.2
			c-0.8-1.9-1.4-3.8-2.3-5.7c-0.8-1.6-1.8-3-3.1-4.2c-0.6-0.6-1.3-1.1-2-1.6C91,91.4,90,91,89,90.5c-0.2-0.1-0.3-0.3-0.4-0.5
			c-0.3-0.7-0.7-1.4-0.9-2.1c-0.2-1-0.8-1.9-1.5-2.5c-0.6-0.6-0.7-1.2-0.9-1.9c-0.1-0.2,0-0.4,0-0.7c0-0.4,0-0.9,0-1.3
			c-0.2-1-0.5-1.9-0.6-2.9c-0.3-3.3-0.5-6.7-0.7-10c-0.1-0.9-0.3-1.7-0.4-2.6c0-0.1,0-0.2,0-0.3c0-0.6,0-1.3-0.1-1.9
			c-0.1-1.1-0.3-2.3-0.1-3.4c0.1-0.7,0-1.3-0.2-1.9c0-0.1,0-0.1,0-0.3c0.5-0.2,1.1-0.5,1.7-0.7c1.1-0.5,2.4-0.7,3.2-1.8
			c0.1-0.1,0.3-0.2,0.4-0.2c0.7,0,1.1-0.4,1.6-0.8c0.6-0.5,1.4-0.9,2.1-1.4c0.3-0.2,0.6-0.6,0.9-0.9c0.5-0.5,0.8-1.1,1.3-1.5
			c1.4-1.1,1.7-3.1,0.5-4.4c-0.8-0.9-1.5-1.9-2.4-2.7s-1.4-1.9-2.5-2.5c-0.6-0.4-1.3-0.8-1.7-1.3c-0.6-0.9-1.6-1.3-2.5-1.8
			c-0.1-0.1-0.3,0-0.3-0.1c-0.2-0.3-0.4-0.6-0.4-0.9c0.2-0.6,0-1.1-0.2-1.5c-0.7-1.1-1.6-1.9-3-2.1c-1-0.4-1.9-0.5-2.9-0.6
			c0.2-0.9,0.4-1.8,0.6-2.7c0.4-0.2,0.8-0.4,1.1-0.6c0.2-0.1,0.4-0.3,0.4-0.5c0.1-1,0.3-2.1-0.7-2.8c0-0.3,0-0.6,0-0.9
			c0-0.7-0.1-1.5,0.5-2.1c0.1-0.1,0.1-0.6-0.1-0.7c-0.3-0.3-0.7-0.4-1-0.6c-0.1-0.2-0.2-0.3-0.3-0.5c-0.7-1.4-1.7-2-3.3-1.6
			c-0.2,0-0.5-0.1-0.7-0.2c-0.6-0.3-1.3-0.7-1.9-1c-0.9-0.3-1.7-0.1-2.5,0.4c-1.2,0.7-1.8,2-2.8,2.9c-0.8,0.7-1.1,1.7-1.3,2.8
			c-0.1,0.4-0.1,0.8,0,1.1c0.1,0.4-0.1,0.6-0.3,0.9c-0.7,0.8-0.6,2,0.3,2.6c0.2,0.2,0.5,0.3,0.7,0.4c0.6,0.2,0.9,0.5,0.9,1.2
			c0.1,1.3,0.4,2.5,1.4,3.4c-0.1,0.2-0.2,0.4-0.3,0.6c-0.3-0.2-0.7-0.3-0.8,0.2c-0.1,0.5-0.5,0.7-0.9,0.9c-0.6,0.3-1.2,0.8-1.9,1.1
			c-0.3,0.2-0.6,0.5-0.9,0.5c-1.6,0.3-2.7,1.5-4,2.4c-0.7,0.5-1.4,1.1-2.1,1.5c-2.2,1.3-4.2,2.9-6.2,4.5c-1.2,1-1.3,1.3-0.9,2.8
			c0.1,0.4,0.4,0.7,0.6,1.1c1,1.8,2.2,3.5,3.8,4.8c0.6,0.5,1.2,1.1,1.8,1.6c0.2,0.1,0.4,0.3,0.6,0.3c0.4,0.1,0.8,0.2,1.2,0.4
			c1.3,0.5,2.7,1.1,4.2,1.7c0,0.2,0.1,0.6,0.1,1.1c-0.1,1.5-0.1,3-0.2,4.6c-0.1,2.3-0.3,4.5-0.4,6.8c-0.1,2.6-0.2,5.2,0,7.8
			c0.2,2.6-0.6,3.1-2.5,3.6c-0.7,0.2-1.4,0.5-2.1,0.8c-0.8,0.4-1.5,0.9-2,1.7c-0.1,0.2-0.2,0.6-0.2,0.8c0,0.3,0.2,0.6,0.3,0.9
			c-0.2,0.1-0.4,0.2-0.6,0.3c-0.3-0.2-0.5-0.3-0.7-0.4c-0.5,0.3-1,0.7-1.5,0.8c-1.5,0.4-2.4,1.6-3.1,2.9c-0.8,1.4-1.4,2.8-2.1,4.1
			c-0.4,0.7-0.9,1.5-1.2,2.2c-0.3,0.8-0.7,1.3-1.5,1.6c-0.6,0.2-1.2,0.6-1.9,0.9c-0.2,0.1-0.5,0.2-0.7,0.4c-1.1,1.5-2,3-2.5,4.8
			c-0.3,1.1-0.7,2.2-1.2,3.3c-0.5,1.3-1.5,2.1-2.3,3.1c-0.9,1.1-2.1,1.9-2.5,3.4c0,0.1-0.1,0.1-0.1,0.2c-0.6,1.1-1.2,2.2-1.7,3.4
			c-0.1,0.2-0.2,0.4-0.2,0.5c0.3,0.8-0.2,1.4-0.2,2.1c-0.1,0.6,0,1.2,0,1.8c0.5,0,0.9,0.1,1.2,0.1c0,0.2-0.1,0.4-0.1,0.6
			c-0.5-0.2-0.7,0.1-0.7,0.5c0,0.5,0,0.9,0,1.4c0,0.4,0.1,0.8,0,1.2c-0.1,0.7-0.2,1.5-0.3,2.2c-0.1,0.5,0.1,0.9,0.1,1.4
			c-0.1,1.2,0,2.5,0.1,3.8c0.1,1.1,0.3,2.2,0.2,3.3c-0.1,0.8,0,1.6,0.1,2.4c0,0.4,0.1,0.7,0.1,1.1c0,0.3-0.1,0.5-0.1,0.8
			c0.1,0.9,0.3,1.9,0.5,2.8c0.2,1,0.3,2,1.2,2.7s1.7,1.5,2.3,2.5c0.1,0.2,0.1,0.4,0.2,0.6c0.8,1.1,1.5,2.3,2.3,3.4
			c1.6,2.2,3.2,4.4,5.2,6.2c0.7,0.6,1.3,1.4,1.9,2.1c0.4,0.4,0.8,0.7,1.2,1l0,0c0.1,0.1,0.1,0.2,0.2,0.3l0,0
			c0.1,0.1,0.2,0.3,0.3,0.4c0.8,1.3,1.6,2.7,2.4,4c1,1.6,1.8,3.5,3.2,4.8c0,0,0,0.1,0.1,0.3c-0.5,0.1-1.1,0.1-1.6,0.2
			c-0.5,0.1-1.1,0-1.6,0.2c-1.6,0.6-3.3,0.5-5,0.6c-1.3,0.1-2.7,0-4,0.2c-1.7,0.3-3.2-0.2-4.9-0.1C37.1,173.6,36.2,173.5,35.4,173.5
			z"/>
		<path style="fill:#0C0C0C;" d="M35.4,173.5c0.9,0,1.7,0.1,2.6,0.1c1.6-0.1,3.2,0.4,4.9,0.1c1.3-0.2,2.7-0.1,4-0.2
			c1.7-0.1,3.3,0,5-0.6c0.5-0.2,1.1-0.1,1.6-0.2c0.5-0.1,1-0.1,1.6-0.2c0-0.2,0-0.3-0.1-0.3c-1.5-1.3-2.2-3.1-3.2-4.8
			c-0.8-1.3-1.6-2.7-2.4-4c-0.1-0.1-0.2-0.3-0.3-0.4l0,0c-0.1-0.1-0.1-0.2-0.2-0.3l0,0c-0.7-1.1-1.4-2.3-2.2-3.3s-1.6-2-2.5-2.9
			c-0.4-0.4-0.5-1-1-1.5c-1-1.1-1.7-2.4-3-3.3c-0.1,0-0.1-0.1-0.1-0.2c-0.5-0.7-1.1-1.3-1.6-2c-0.1-0.1-0.3-0.2-0.5-0.2
			c-0.6-1-1.3-1.8-2.3-2.5c-0.9-0.6-1-1.7-1.2-2.7c-0.2-0.9-0.3-1.9-0.5-2.8c0-0.3,0.1-0.5,0.1-0.8c0-0.4-0.1-0.7-0.1-1.1
			c0-0.8-0.1-1.6-0.1-2.4c0.1-1.1-0.1-2.2-0.2-3.3c-0.1-1.3-0.2-2.5-0.1-3.8c0.1-0.5-0.1-1-0.1-1.4c0.1-0.7,0.2-1.5,0.3-2.2
			c0-0.4,0-0.8,0-1.2c0-0.5,0-0.9,0-1.4c0-0.4,0.2-0.6,0.7-0.5c0,1.9,0,3.7,0,5.6c0,1.6,0,3.3,0,4.9c0.1,1.4,0.4,2.8,0.4,4.2
			c0,1.7,0.1,3.4,0.6,5c0.2,0.8,0.4,1.7,0.8,2.4c0.6,0.9,1.4,1.6,2.2,2.5c0.5,0.6,1.1,1.1,1.6,1.7c0.3,0.3,0.5,0.8,0.8,1.1
			c1.2,1.3,2.5,2.4,3.7,3.7c1,1.1,1.8,2.2,2.6,3.4c0.7,1,1.4,2,2.1,3.1c0.8,1.3,1.4,2.6,2.2,3.8c1,1.6,2,3.1,3.1,4.6
			c0.7,1,1.7,1.8,2.6,2.6c0.3,0.3,0.7,0.4,1.1,0.5c1,0.2,2,0.3,2.9,0.3c2.4,0,4.9,0.1,7.3,0c1.2,0,2.4-0.3,3.6-0.1
			c1.1,0.2,2.3,0,3.4-0.1c0.6,0,1.1-0.2,1.7-0.2c0.8,0,1.6,0.1,2.4,0.1c1,0,2,0,2.9,0c1.3,0,2.7,0.3,4,0.1c1.4-0.2,2.8,0.3,4.2-0.1
			c0.1,0,0.3-0.1,0.5,0c1.1,0.4,2.2,0.2,3.3,0.1c1.7-0.1,3.3-0.3,5,0c0.6,0.1,1.3,0.1,1.9-0.1c0.9-0.3,1.8-0.2,2.7-0.3
			c1.5-0.1,3.1-0.1,4.6-0.3c0.4,0,0.8-0.3,1.2-0.5c0.5-0.2,0.9-0.5,1.4-0.7c1-0.4,2-0.7,2.9-1.1c1.6-0.7,3.1-1.4,4.1-3
			c0.2-0.3,0.5-0.7,0.7-1c0.3-0.5,0.4-1,0.7-1.4c0.9-1.2,1.3-2.6,1.8-4c0.4-1.2,0.8-2.4,1.1-3.7c0.4-1.6,0.5-3.3,0.8-5
			c0.3-1.3,0.8-2.6,1.5-3.7c0.8-1.1,1.5-2.2,2.2-3.3c0.3-0.4,0.5-0.9,0.7-1.3c0.6-1.4,1.2-2.8,1.6-4.3c0.7-2,1.2-4,0.8-6.2
			c-0.1-0.8-0.3-1.7-0.3-2.5c0-2-0.5-3.9-1.6-5.7c-0.3-0.6-0.9-1-1.3-1.5c-1-1.2-2-2.4-3.4-3.2c-0.8-0.4-1.5-0.9-2.3-1.3
			c-1.4-0.8-3-1.4-4.6-1.6c-0.2,0-0.6-0.2-0.7-0.3c-0.5-1.4-1.7-2.1-2.7-2.9c-1.2-0.9-2.6-1.6-4-2.3c-3-1.6-5.9-3.2-8.9-4.7
			c-1-0.5-2.2-0.9-3.3-1.3c-0.6-0.2-1.3-0.3-1.9-0.5c-0.2-0.1-0.5-0.3-0.5-0.5s0.2-0.6,0.4-0.7c0.3-0.1,0.7-0.1,1-0.1
			c0.4,0,0.7,0,1.2,0c-0.7-1.8-1.3-3.5-1.9-5.2c-0.8-2.2-2.2-3.9-4.3-4.9c-0.3-0.2-0.7-0.3-1-0.5c-0.7-0.5-1.5-0.8-1.8-1.7
			c-0.1-0.3-0.4-0.5-0.6-0.7c-0.2,0.6-0.3,1.1-0.7,1.4c-0.8,0.6-1.7,0.8-2.7,0.5c-0.9-0.3-1.7-0.6-2.6-1c-0.6-0.3-1.3-0.7-1.8-1.2
			c-0.9-0.9-1.7-1.9-2.7-2.8c-1.3-1.2-2.2-2.7-2.5-4.5c0-0.2,0.1-0.3,0-0.5c-0.2-1.9-0.4-3.8-0.7-5.7c-0.1-0.9-0.2-1.9-0.3-2.8
			c0-1.2-0.6-4.3-1-5.1c-0.1,0.4-0.1,0.7-0.1,0.9c0,0.4,0.2,0.8,0.1,1.1c-0.2,1-0.2,2.1,0,3.1c0,0.1-0.1,0.2-0.1,0.3
			c-0.1,1.8-0.2,3.6-0.3,5.4c0,1.2,0,2.3,0,3.5c-0.2,0.6-0.3,1.1,0.1,1.6c0.2,0.3,0.2,0.7,0.2,1c0,1.4-0.6,2.3-1.9,1.9
			c-0.2-0.1-0.4,0.1-0.6,0.1c-0.5,0.1-0.9,0.4-1.4,0.4c-2.8,0.3-5.6,0.6-8.4,0.9c-1.1,0.1-2.1,0.2-2.9-0.8c-0.1-0.2-0.4-0.2-0.6-0.4
			c0.4-0.5,0.2-0.8-0.4-1c-0.1-0.3-0.2-0.6-0.3-0.9c0-0.3,0-0.6,0.2-0.8c0.5-0.8,1.2-1.4,2-1.7c0.7-0.3,1.4-0.6,2.1-0.8
			c1.9-0.6,2.7-1,2.5-3.6s-0.1-5.2,0-7.8c0.1-2.3,0.3-4.5,0.4-6.8c0.1-1.5,0.2-3,0.2-4.6c0-0.4-0.1-0.8-0.1-1.1
			c-1.5-0.6-2.8-1.1-4.2-1.7c-0.4-0.1-0.8-0.2-1.2-0.4c-0.2-0.1-0.4-0.2-0.6-0.3c0.2-0.2-0.4-0.7-1-1.2c-1.6-1.3-2.8-3-3.8-4.8
			c-0.2-0.4-0.5-0.7-0.6-1.1c-0.4-1.4-0.3-1.8,0.9-2.8c2-1.6,4-3.3,6.2-4.5c0.8-0.4,1.4-1.1,2.1-1.5c1.3-0.8,2.4-2,4-2.4
			c0.3-0.1,0.6-0.4,0.9-0.5c0.6-0.4,1.2-0.8,1.9-1.1c0.4-0.2,0.8-0.4,0.9-0.9s0.5-0.4,0.8-0.2c0.5,0.5,1,1.1,1.6,1.4
			c0.9,0.5,2,0.7,3,1c0.2,0.1,0.5,0.1,0.7,0c0.9-0.2,1.9-0.3,2.6-1c0-0.5,0-1.1,0-1.6c0.1-1.3,0.3-2.7,0.3-4c0-1.1-0.1-1.1,0.9-1.5
			c0.2-0.1,0.4-0.1,0.6-0.1c0.5-0.2,0.7-0.8,0.6-1.5c-0.2-0.7-0.4-0.8-1-0.8c-1.4,0-2.6-0.9-2.8-2.3c-0.2-1.1-0.4-2.2-0.5-3.3
			c-0.3-0.1-0.6-0.1-0.8-0.2c0,0.9-0.4,1.5-1.1,1.9c-0.5,0.3-1,0.4-1,1.2c0,0.2-0.3,0.5-0.5,0.5c-0.8,0.3-1.6,0.7-2.3-0.1
			c-0.2,0.1-0.4,0.1-0.5,0.2s-0.3,0.1-0.4,0.2c-0.5,0.3-0.5,0.6-0.1,1c0.3,0.3,0.5,0.6,0.3,1c-0.1,0.2-0.6,0.2-0.9,0.3
			c-0.1,0-0.2,0-0.4,0c0,1.1,0.8,1.3,1.5,1.4c0.2,0.5,0.3,0.9,0.4,1.3c0.2,0.6,0.5,1.2,0.5,1.8c0,0.7,0.4,0.9,0.9,1.2
			c0.3,0.2,0.7,0.4,1.1,0.4c0.5,0.1,0.7,0.5,0.9,1c-0.2,0.1-0.3,0.2-0.4,0.2c-1,0.4-1.8-0.1-2.6-0.5c-1-0.9-1.3-2.2-1.4-3.4
			c-0.1-0.7-0.3-1-0.9-1.2c-0.3-0.1-0.5-0.2-0.7-0.4c-0.9-0.6-1-1.8-0.3-2.6c0.2-0.3,0.4-0.5,0.3-0.9s0-0.8,0-1.1
			c0.2-1,0.4-2,1.3-2.8c1-0.9,1.6-2.2,2.8-2.9c0.8-0.5,1.6-0.7,2.5-0.4c0.7,0.3,1.3,0.6,1.9,1c0.2,0.1,0.5,0.3,0.7,0.2
			c1.5-0.3,2.6,0.2,3.3,1.6c0.1,0.2,0.2,0.3,0.3,0.5c0.1,0.4,0.4,1,0.2,1.3C79.8,24,80,25,79.8,25.8c0.3,0.2,0.6,0.3,0.8,0.5
			c1,0.7,0.8,1.8,0.7,2.8c0,0.2-0.2,0.4-0.4,0.5c-0.3,0.2-0.7,0.4-1.1,0.6c-0.2,0.9-0.4,1.8-0.6,2.7c1,0.1,1.9,0.1,2.8,0.3
			c1.3,0.2,2.3,1,3,2.1c0.3,0.4,0.5,0.9,0.2,1.5c-0.1,0.2,0.2,0.6,0.4,0.9c0,0.1,0.2,0.1,0.3,0.1c0.9,0.5,1.8,0.9,2.5,1.8
			c0.4,0.6,1.1,1,1.7,1.3c1.1,0.6,1.6,1.7,2.5,2.5s1.6,1.8,2.4,2.7c1.2,1.4,0.9,3.3-0.5,4.4c-0.5,0.4-0.9,1-1.3,1.5
			c-0.3,0.3-0.6,0.6-0.9,0.9c-0.7,0.5-1.4,0.9-2.1,1.4c-0.5,0.4-0.9,0.8-1.6,0.8c-0.1,0-0.3,0.1-0.4,0.2c-0.8,1.1-2,1.4-3.2,1.8
			c-0.6,0.2-1.1,0.5-1.7,0.7c0,0.2-0.1,0.3,0,0.3c0.2,0.6,0.4,1.1,0.2,1.9c-0.2,1.1,0,2.3,0.1,3.4c0,0.6,0,1.3,0.1,1.9
			c0,0.1,0,0.2,0,0.3c0.1,0.9,0.4,1.7,0.4,2.6c0.3,3.3,0.4,6.7,0.7,10c0.1,1,0.4,1.9,0.6,2.9c0.1,0.4,0,0.9,0,1.3
			c0,0.2-0.1,0.5,0,0.7c0.3,0.6,0.3,1.3,0.9,1.9c0.7,0.7,1.3,1.5,1.5,2.5c0.2,0.7,0.5,1.4,0.9,2.1c0.1,0.2,0.2,0.4,0.4,0.5
			C90,90.6,91,91,92,91.5c0.7,0.4,1.3,1,2,1.6c1.3,1.2,2.3,2.6,3.1,4.2c0.9,1.9,1.5,3.8,2.3,5.7c0.2,0.5,0.6,1,1,1.2
			c3,1.6,6,3,9,4.6c2.3,1.3,4.9,2.3,6.9,4.3c0.8,0.8,1.6,1.6,2.6,2c0.2,0.1,0.5,0.3,0.7,0.3c1.1,0.3,2,0.8,3,1.3
			c2,1,3.7,2.6,5.6,3.8c0.4,0.3,0.8,0.7,1.1,1.2c1.1,1.8,2,3.8,2.6,5.9c0.5,1.8,0.5,3.6,0.5,5.5c0,0.7,0,1.4,0.1,2.1
			c0.1,0.8-0.1,1.5-0.3,2.2c-0.5,1.3-0.9,2.7-1.4,4c-0.5,1.2-0.9,2.5-1.5,3.6c-0.7,1.4-1.6,2.7-2.4,4c-0.9,1.4-1.4,3-1.7,4.6
			c-0.5,2.8-0.9,5.7-2.2,8.3c-0.2,0.3-0.2,0.7-0.3,1c-0.2,0.9-0.5,1.7-1.3,2.4c-0.4,0.4-0.7,1-0.9,1.6c-0.5,1.2-1.4,2-2.5,2.8
			c-1.7,1.1-3.5,1.8-5.3,2.6c-0.2,0.1-0.4,0.3-0.7,0.6c0.3,0,0.7,0,1,0c0.5,0,1.1-0.1,1.6-0.1s1,0.2,1.4-0.4
			c0.1-0.2,0.5-0.2,0.8-0.2c1.3-0.1,2.7-0.2,4-0.2c1.5,0,3.1,0.2,4.6,0.3c0.4,0,0.7,0,1.1,0c2.2,0.4,4.3,0.2,6.5,0.1
			c1.8-0.1,3.5,0.1,5.3,0.1c0.7,0,1.4-0.1,2.1,0c0.8,0,1.6,0.1,2.4,0.1c0.1,0,0.2,0,0.2,0c2.8-0.1,5.5-0.2,8.3-0.4
			c0.1,0,0.2-0.1,0.3,0c2.9,0.5,5.8,0.3,8.7,0.4c1.7,0.1,3.3,0.1,5,0.2c1.1,0.1,2.2,0,3.3-0.1c1.9-0.1,3.7-0.2,5.6-0.4
			c0.8-0.1,1.6-0.4,2.5-0.5c2.3-0.1,4.5-0.4,6.8-0.1c2.6,0.3,5.2,0.1,7.8,0.1c1.6,0,3.2,0.3,4.7,0c1.7-0.3,3.3,0.3,5-0.2
			c1-0.3,2.2,0,3.3,0c1.6,0.1,3.2,0.2,4.7,0.2c1,0,1.9-0.1,2.9-0.1c0.5,0,0.9,0.1,1.4,0.1c0.2,0,0.3,0.1,0.5,0.1
			c1.4-0.5,2.8,0.2,4.2,0s2.7-0.2,4.1-0.3c1.7-0.1,3.3-0.3,5-0.3c1.3,0,2.6,0.2,3.9,0.2c2.8,0,5.5-0.2,8.3-0.3
			c0.1,0,0.3-0.1,0.4-0.1c2.5,0.6,5,0.2,7.4,0.4c2,0.1,4,0.2,5.9,0.2c1.1,0,2.3,0,3.4-0.1c1.4-0.1,2.8-0.3,4.2-0.4
			c0.4,0,0.8,0,1.2,0c0.5-0.1,1-0.2,1.4-0.3c0.7-0.1,1.3-0.2,2-0.3c0.3,0,0.7-0.1,1-0.1c0.8-0.1,1.6-0.3,2.4-0.2
			c1.2,0.1,2.4,0.3,3.6,0.4c0.6,0.1,1.2,0.1,1.8,0.1c1.7,0,3.4-0.2,5.1-0.1c1.3,0.1,2.6-0.2,3.9-0.2c1.5,0.1,3,0.1,4.5,0.1
			c0.3,0,0.6,0,0.9-0.1c0.2,0,0.5-0.2,0.7-0.1c1.3,0.3,2.6,0,4,0c1.1,0,2.1,0.2,3.2,0.2s2.3,0,3.4,0c0.5,0,1.1,0.1,1.6,0.1
			c0.3,0,0.5,0,0.8,0s0.7-0.2,1-0.1c2.2,0.5,4.3-0.2,6.5,0c0.9,0.1,1.9,0.1,2.8,0.1c3.1,0.1,6.2-0.1,9.2,0.2
			c4.1,0.4,8.1-0.3,12.2-0.2c2.2,0,4.4,0,6.5,0c1.4,0,2.7-0.1,4.1-0.1c1.2,0,2.4-0.1,3.6-0.1c0.7,0,0.7,0.1,0.8,1.1
			c-2.1,0.1-4.2,0.3-6.2,0.4c-0.3,0-0.6,0-0.9,0c-2.4,0.1-4.7-0.3-7-0.4c-0.5,0-1,0.2-1.6,0.2c-1.8,0.1-3.6,0.2-5.4,0.3
			c-1.9,0.1-3.8,0.1-5.7,0.1c-0.6,0-1.2,0.2-1.8,0.1c-3.6-0.2-7.1-0.4-10.7-0.5c-0.8,0-1.7,0-2.5,0.1c-2,0.2-4.1,0.2-6.1,0
			c-0.9-0.1-1.7,0.2-2.6,0.1c-1.4,0-2.9,0.2-4.3-0.1c-0.9-0.2-1.8-0.1-2.7,0c-1.3,0-2.6,0.2-3.9,0.2c-2.8,0-5.6,0-8.4,0
			c-0.6,0-1.1-0.1-1.7-0.1c-0.3,0-0.6,0-0.9,0c-0.7,0-1.3,0.2-1.9,0.1c-1.6-0.1-3.1-0.1-4.6,0c-0.2,0-0.4,0-0.6-0.1
			c-1.1-0.6-2.1-0.3-3.2-0.1c-0.2,0-0.5,0.1-0.7,0.1c-2.2,0.2-4.4,0.3-6.6,0.5c-2,0.1-4,0.3-6.1,0.3c-2.2,0-4.3,0-6.5-0.1
			c-1.2,0-2.3-0.3-3.5-0.4c-0.7,0-1.4,0.1-2,0.1c-1.9-0.2-3.9,0.1-5.8,0.2c-1.4,0-2.8-0.1-4.2-0.1c-0.2,0-0.4,0-0.7,0
			c-1.1,0-2.2,0-3.3,0.1c-0.8,0-1.7,0.1-2.5,0.2c-2.2,0.1-4.4,0.3-6.6,0.3c-1.4,0-2.9-0.1-4.4-0.2c-0.6,0-1.3,0.2-1.9,0.2
			c-1.1,0-2.2,0-3.3,0c-0.2,0-0.4,0-0.6,0c-1.6-0.3-3.2-0.2-4.9-0.1c-0.9,0.1-1.8,0-2.6,0c-2.9,0-5.8,0.2-8.8,0c-2-0.1-4,0.2-5.9,0
			c-0.7-0.1-1.4,0-2.1-0.1c-1.3,0-2.5-0.2-3.8-0.1c-0.7,0-1.3,0.3-2,0.3c-2.1,0.2-4.2,0.3-6.3,0.4c-2,0.1-4,0.3-6,0.3
			c-3,0-6,0-8.9-0.2c-2.6-0.2-5.2-0.2-7.8-0.1c-1.9,0.1-3.7-0.1-5.6-0.1c-0.1,0-0.2-0.1-0.2-0.1c-3,0.6-6,0.1-9,0.2
			c-1.4,0-2.8-0.2-4.1-0.1c-2,0.2-3.9-0.4-5.9-0.3c-0.8,0-1.6,0.2-2.4,0.2c-3.1,0.2-6.3,0.5-9.4,0.4c-2.2,0-3.8,0.8-5.5,2
			c-1.2,0.9-2.4,1.7-3.6,2.6c-0.5,0.4-0.9,0.9-1.4,1.2c-1.9,1.2-3.3,2.9-5.1,4.2c-1.5,1.2-3.1,1.7-5,1c-2.8-1-5.3-2.5-7.8-4
			c-1-0.6-1.9-1.2-2.8-1.8c-1.2-0.7-2.4-1.2-3.9-1.2c-2.1,0.1-4.3-0.2-6.4-0.1c-2.4,0.1-4.8-0.4-7.2-0.9c-1.7-0.3-3.1-1.2-4.3-2.5
			c-0.6-0.7-1.4-1.1-2.4-1c-1.5,0.2-2.9,0.4-4.4,0.6c-0.5,0.1-1.1,0-1.6,0.1c-3,0.2-6,0.4-8.9,0.4s-5.9,0-8.8-0.2
			c-2.6-0.2-5.1-0.2-7.7-0.1c-1.9,0.1-3.8-0.1-5.7-0.1c-0.8,0-1.5,0.1-2.3,0.2c-1,0.1-2,0.1-3,0.1c-0.3,0-0.5-0.1-0.8-0.2
			c0-0.4,0-0.8,0-1.3c1.1,0,2.2,0,3.4,0c0.4,0,0.8-0.1,1.1-0.1c0.7,0,1.4,0.1,2,0.1c0.1,0,0.2,0,0.2,0c2.8-0.1,5.6-0.3,8.4-0.4
			c0.4,0,0.8,0.2,1.2,0.2c2.1,0.1,4.1,0.1,6.2,0.1C35.1,173.6,35.2,173.5,35.4,173.5z M83.8,52.3c-0.6-0.1-1.2,0.4-1.8-0.2
			c-0.2-0.4-0.3-0.8-0.4-1c0.2-0.5,0.4-1,0.4-1.3c-0.1-1.1-0.2-2.1-0.4-3.2c-0.3-0.1-0.5-0.4-0.8-0.4c-1.5-0.3-2.5-1.2-3.3-2.4
			c-0.4-0.5-0.9-0.6-1.5-0.8c-0.3-0.1-0.7-0.1-1-0.1c0-0.1,0-0.3,0-0.4c0.6-0.1,1.2,0.1,1.7-0.5c0-1.1,0-2.2,0-3.5
			c-0.4,0.1-0.8,0.1-1.1,0.2c-0.7,0.3-1.4,0.3-2.1,0c-0.2-0.1-0.3-0.2-0.5-0.2c-1.3-0.3-2.5-0.9-3.5-1.8c-0.1,0-0.2,0-0.3,0
			c0.1,0.7,0.1,0.7-0.3,1.2c-0.3,0.4-0.6,0.7-0.8,1.1c-0.4,0.7-0.7,1.5-0.7,2.3c0.5,0.2,1,0.2,1.3,0.4c0.4,0.4,0.8,0.4,1.3,0.4
			s1,0,1.5,0.1c-0.1,0.1-0.2,0.2-0.3,0.3c-1.4,0.4-2.8,0-4.2-0.3c-0.2,1.3,0.1,2.5,0.6,3.8c1,0.2,2.1,0.4,3.2,0.7
			c-0.1,0.2-0.1,0.3-0.2,0.5c-1.5-0.2-3-0.4-4.6-0.7c0,0.4-0.1,0.8-0.1,1.3c0,1.6,0.1,3.1,0.1,4.7c0,1,0,1,1,1.4
			c0.8,0.3,1.1,0.8,0.9,1.7c0,0.2,0,0.4-0.1,0.5c1.7-0.1,3.3-0.1,4.9-0.2c0,0.1,0,0.2,0,0.2c-1.5,0.8-3.3,0.4-4.9,0.7
			c0.1,1.3,0.1,1.3-1.1,2c4.8,1.1,9.7,1,14.6,0.1c-0.3-0.3-0.7-0.4-1.1-0.6c-0.3-0.1-1.7-1.5-1.7-1.8c0-0.2,0-0.4,0-0.6
			c0-0.1,0.1-0.3,0-0.4c-0.3-1.1-0.3-1.1,0.7-1.6c0.7-0.3,1.3-0.6,2-0.8c0.7-0.1,1.5-0.6,2.1,0.3C83,53.8,82.7,54.2,82,54
			c-0.8-0.2-1.5,0.2-2.2,0.7c0.4,0.5,1.2-0.2,1.4,0.7c-0.2,0.2-0.5,0.4-0.8,0.6c0.5,0,1,0.1,1.4,0.1c0.1,0.1,0.1,0.3,0.2,0.4
			c-0.4,0.3-0.8,0.5-1.2,0.8c1.9,0.3,3-1,4.6-1.6c-0.1-0.3-0.2-0.6-0.3-0.9c-0.3-0.6-0.6-1.2-1-1.8C84.4,52.7,84.1,52.5,83.8,52.3z
			 M71.1,81.6c0.4-4.8,0.7-9.4,1.1-13.9c1-0.5,1.8-0.4,2.7,0.1c0.8,5.2,1.6,10.4,2.5,15.7c2-0.4,3.9-0.5,5.7-1.1
			c-0.6-7.1-1.1-14-1.7-21.1c-0.6,0-1.1,0-1.5,0c-2.8-0.1-5.5-0.1-8.3-0.2c-1.5-0.1-3.1-0.2-4.5-0.9c-0.1-0.1-0.3-0.1-0.6-0.1
			c-0.4,7.2-0.7,14.2-1.1,21.4C67.4,81.9,69.2,81.5,71.1,81.6z M59.5,174c0.1,0.2,0.2,0.4,0.3,0.6c0.4,0.3,0.8,0.7,1.3,1
			c1.4,0.9,3,1.3,4.7,1.3c3.5,0,7,0,10.5,0c1,0,1.9,0.2,2.8,0.7c1,0.6,2,1.1,3,1.7c1.7,1,3.4,2.2,5.2,3.1c1.1,0.6,2.4,0.9,3.5,1.5
			c1.2,0.7,2.1,0.4,3.1-0.3c1.1-0.8,2.1-1.7,3.1-2.5c2-1.6,4-3.3,6.1-4.9c0.7-0.5,1.3-1.2,2.2-1.3c0.1,0,0.2-0.3,0.3-0.4
			c0-0.1-0.2-0.3-0.3-0.3c-0.2-0.1-0.5-0.1-0.7-0.1c-1.5,0-3.1,0-4.6-0.1c-1,0-1.9-0.2-2.9-0.2c-2.1,0.1-4.2,0.4-6.3,0.2
			c-0.8-0.1-1.5-0.2-2.3-0.1c-1.7,0-3.5,0.2-5.2,0.2c-0.5,0-1.1-0.3-1.6-0.2c-2.1,0-4.1,0.1-6.2,0.2c-3,0-5.9,0.1-8.9,0.1
			c-0.7,0-1.5-0.3-2.2-0.2c-1.6,0.2-3.1,0.3-4.7-0.1C59.8,173.9,59.7,174,59.5,174z M87.5,54.5c1.4-0.8,2.6-1.5,3.7-2.6
			c0.8-0.8,1.5-1.6,2.1-2.6c0.5-0.8,0.6-0.8,0-1.5c-0.9-1.1-1.8-2.2-2.7-3.2c-0.1-0.2-0.4-0.3-0.5-0.4c-1,0.7-2,1.4-3,2.1
			c0.6,0.8,1.1,1.4,2.3,1c0.7-0.2,1.1,0.4,0.9,1.3c-1.9,0.3-3,1.9-4.5,2.9C86.3,52.6,86.9,53.5,87.5,54.5z M57.9,44.1
			c-0.6,0.5-1.3,0.9-1.9,1.4c-0.7,0.5-1.3,1-2,1.6c-0.4,0.3-0.5,0.8-0.3,1.2c0.8,1.3,1.4,2.9,2.5,4c0.9,0.9,1.8,1.8,3.1,2.2
			c0.4-0.5,0.9-1.1,1.3-1.6c-0.4-0.8-0.9-1.5-1.2-2.3s-0.7-1.5-1.6-1.6c0-1.2,0.1-1.4,1.2-1.5c0.4,0,0.7-0.1,1.1-0.2
			C59.3,46.3,58.6,45.2,57.9,44.1z M82.7,38.4c-0.3,0.9-0.6,1.9-0.9,2.8c-0.1,0.2,0,0.5,0.2,0.6c0.6,0.8,1.1,1.7,2.1,2.1
			c0.4,0.2,0.8,0.5,1.1,0.7c0.4,0.4,0.9,0.5,1.3,0.1c0.8-0.6,1.6-1.3,2.5-2c-1.1-0.9-2.1-1.8-3-2.6C85.1,39.4,84.2,38.6,82.7,38.4z
			 M60,49c0.4,0.8,0.8,1.6,1.3,2.5c0.3,0.6,1.1,1,1.6,0.8c0.8-0.3,1.7-0.5,1.8-1.5c0.1-0.9,0.2-1.8,0.2-2.5
			c-0.6-0.7-1.1-1.2-1.6-1.8c-0.7,0.2-0.7,0.8-0.8,1.4c-0.3,0.1-0.7,0.4-1,0.3C60.7,47.9,60.4,48.5,60,49z M79.9,36.8
			c-1.4,1.1-2,2.5-1.8,4.2c0.2,2.1,1.8,3.3,3.2,3.7c0.2-0.7-0.3-1-0.8-1.4c-0.6-0.4-0.7-0.7-0.3-1.2c0.3-0.3,0.3-0.7,0.3-1
			c0.1-0.5,0.2-1,0.4-1.6c0.2-0.6,0.4-1.2,0.6-1.9C81,37.3,80.5,37.1,79.9,36.8z M65.3,56.2c0.1-0.7,1.1-0.3,1-1.1
			c-0.6,0-1.2-0.1-1.9-0.1c0-0.7,0-1.4,0-2c-2,0.8-3.2,1.1-3.9,2.7c0.2,0.2,0.5,0.4,0.8,0.5c0.5,0.2,1,0.4,1.5,0.5
			c0.9,0.2,1.9,0.3,2.8,0.4c0.2,0,0.4-0.2,0.8-0.4C65.9,56.4,65.6,56.3,65.3,56.2z M61.9,46.3c0.8-0.4,1.1-0.9,0.9-1.7
			c-0.3-0.9-0.2-1.9-0.2-2.8c0-0.2,0-0.5-0.1-0.9c-1,0.8-1.9,1.4-2.8,2.1C60,44.3,60.5,45.5,61.9,46.3z M84.1,51.3
			c0.6-0.7,0.6-0.7,0.5-1.1c0-1-0.1-1.9-0.1-2.9s-0.6-1.6-1.6-2.1C83.3,47.3,83.7,49.2,84.1,51.3z M64.7,44.1
			c0.1-0.4,0.1-0.6,0.1-0.7c0.1-1.2,0-2.4,0.9-3.3c0.1-0.1,0-0.4-0.1-0.6c-1,0-1.3,0.7-1.4,1.4C64.2,41.8,63.8,42.9,64.7,44.1z
			 M80.6,34.4c0.9,0.6,1.6,1.3,2.7,1.5C82.6,35,81.9,34.2,80.6,34.4z M85.9,49.9c0.4-0.3,0.6-0.5,1-0.7c-0.4-0.3-0.6-0.5-1.1-0.8
			C85.9,48.9,85.9,49.3,85.9,49.9z M86.3,89.5c-0.6,0.2-1,0.3-1.1,0.9C86.1,90.5,86.1,90.5,86.3,89.5z"/>
		<path style="fill:#050505;" d="M41,22.8c-1.3-0.2-2.4-0.3-3.5-0.4c-2.2-0.3-4.3-0.5-6.5-0.8c-1-0.1-2-0.4-3-0.5
			c-2-0.2-3.9-0.4-5.9-0.6c-0.2,0-0.5,0-0.7-0.1c-1.9-0.7-3.8-0.8-5.7-1c-1.2-0.2-1.3-0.2-1.2-1.5c0-0.8,0.1-1.6,0.1-2.4
			c0.1-0.9,0.3-1,1.1-1c2.2,0.1,4.3,0.7,6.4,1c1.1,0.2,2.3,0.2,3.4,0.3c1.3,0.1,2.6,0.3,4,0.5c1,0.2,2,0.6,3,0.6
			c1.8-0.1,3.5,0.5,5.3,0.7c0.5,0.1,1,0,1.5-0.1c0.5,0,0.9,0.1,1.3,0.4c0.6,0.4,0.9,0.9,0.8,1.7c-0.1,0.6,0,1.3-0.1,2
			C41.3,22,41.1,22.3,41,22.8z"/>
		<path style="fill:#060606;" d="M14.4,59.8c2.6-0.9,5-1.2,7.5-1.2c0.6,0,1.2-0.1,1.8-0.3c2.8-0.8,5.7-0.9,8.5-1.4
			c1.6-0.3,3.3-0.8,4.9-1.2c0.6-0.2,1.2,0,1.8,0.1c0.2,0,0.4,0.3,0.4,0.5c0,1.4,0.2,2.9-0.1,4.3c-1.3,0.2-2.4,0.4-3.6,0.6
			c-0.6,0.1-1.2,0.4-1.9,0.5c-1.3,0.2-2.6,0.3-3.9,0.5c-0.8,0.1-1.6,0.3-2.4,0.4c-1.5,0.3-3.1,0.6-4.6,0.8c-1.2,0.2-2.5,0.2-3.8,0.3
			c-1.1,0.1-2.1,0.3-3,0.9c-0.7,0.6-1.5,0.2-1.6-0.7C14.4,62.6,14.4,61.2,14.4,59.8z"/>
		<path style="fill:#050505;" d="M38.8,40.4c-1.1,0.1-1.9,0.2-2.8,0.3c-1.3,0.1-2.6,0.2-3.9,0.3c-0.6,0-1.2,0.1-1.8,0.1
			c-1.7,0.1-3.3,0.3-5,0.3c-1.4,0-2.9-0.1-4.3-0.2c-1,0-2-0.1-3.1-0.1c-0.3,0-0.6,0.2-0.9,0.2c-0.6,0.1-1.3,0.3-2-0.2
			c0-1.2,0-2.4,0-3.6c0-0.6,0.3-0.9,0.8-0.9c0.9-0.2,1.8-0.4,2.7-0.4c2.3,0,4.6,0.2,6.9,0.3c0.8,0,1.5-0.1,2.3-0.1
			c1.3-0.1,2.7-0.2,4-0.4c1.9-0.2,3.8-0.4,5.7-0.7c1.1-0.1,1.5,0.2,1.5,1.3C38.8,37.8,38.8,39,38.8,40.4z"/>
		<path style="fill:#050505;" d="M113.1,58.2c0-0.6,0-1.2,0-1.8c0-0.5,0.3-0.7,0.8-0.7c1.7,0.1,3.4,0.1,5.1,0.3
			c1.5,0.2,2.9,0.3,4.4,0.3c0.8,0,1.7,0,2.5,0.1c1.9,0.2,3.8,0.4,5.7,0.6c0.4,0,0.8,0.1,1.1,0.1c1-0.1,2.1-0.1,3.1-0.2
			c0.7-0.1,1.3,0.4,1.3,1.1c0,1.1,0.1,2.2,0,3.2c0,1-0.4,1.2-1.4,1c-0.6-0.1-1.3-0.2-1.9-0.2c-1.3-0.1-2.5-0.2-3.8-0.3
			c-1.5-0.1-3-0.3-4.6-0.5c-0.6-0.1-1.3,0-2-0.1c-2.5-0.2-5-0.4-7.6-0.6c-0.7,0-1.4,0-2.1,0c-0.6,0-0.8-0.3-0.8-0.9c0-0.5,0-1,0-1.5
			C113.1,58.2,113.1,58.2,113.1,58.2z"/>
		<path style="fill:#060606;" d="M112.5,22.8c0-1.8,0-3.3,0-4.9c1-0.2,1.7-0.5,2.6-0.6c2-0.2,4.1-0.3,6.2-0.6
			c1.5-0.2,2.9-0.6,4.4-0.9c1.1-0.2,2.2-0.3,3.2-0.6c1.4-0.3,2.7-0.7,4-1.1c0.8-0.2,1.5,0,2.2,0.3c0.2,0.1,0.4,0.4,0.4,0.7
			c0,1,0,2.1,0,3.1c0,0.6-0.4,0.8-0.9,0.9c-2.2,0.3-4.4,0.6-6.7,1c-1.5,0.3-3.1,0.6-4.6,0.9c-1.2,0.2-2.5,0.4-3.7,0.5
			c-1.6,0-3.2,0.4-4.7,0.8C114.1,22.5,113.4,22.7,112.5,22.8z"/>
		<path style="fill:#0F1011;" d="M11.4,180.8c0.6-0.1,1.4,0.2,1.7-0.7c0.1-0.1,0.6-0.3,0.8-0.1c0.4,0.2,0.6,0.6,1.1,1
			c0.2,0,0.6,0.1,1.1,0.2c0.8,0.1,1.4,0.1,2-0.6c0.6-0.8,0.9-0.7,1.7,0.1c0.1,0.1,0.4,0.3,0.6,0.3c0.9-0.1,1.8-0.1,2.7-0.3
			c0.4,0,0.7-0.2,1.1-0.3c0.3,0.3,0.6,0.6,0.9,0.9c0.7-0.2,1.4-0.3,1.7,0.7c-0.3,0.2-0.7,0.5-1,0.6s-0.9,0.2-1.1,0
			c-0.9-0.9-1.9-0.5-2.9-0.5c-0.9,0-1.9-0.1-2.8-0.2c-0.1,0-0.3,0-0.4,0c-1.5,0.8-3,0.3-4.4-0.2c-0.4-0.1-0.8-0.2-1.2-0.1
			c-1,0.3-2.1,0.6-3.1,0.3c-0.6-0.3-1-0.7-1.4-1.3c0.5-0.4,0.8-0.2,1.2,0C10.2,181,10.7,181.1,11.4,180.8z"/>
		<path style="fill:#111313;" d="M337.7,184.2c-0.4,0.1-0.8,0.1-1.1,0.2c-1.2,0.5-2.5,0.6-3.7-0.1c-0.4-0.2-0.8-0.2-1.2,0.1
			c-0.6,0.3-1.3,0.6-2,0.8c-1.2,0.4-2.6-0.4-2.9-1.6c0-0.1,0-0.2,0-0.4c0.9,0.2,1.8,0.6,2.7,0.6c0.9-0.1,1.7-0.6,2.7-1
			c0.1,0.1,0.5,0.2,0.9,0.4c1.1,0.5,2.1,0.5,3.2-0.2c0.6-0.4,1.1-0.7,1.7-0.1c0.1,0.1,0.4,0.1,0.7,0.1
			C338.7,183.7,338.2,184,337.7,184.2z"/>
		<path style="fill:#0F1011;" d="M75.6,186.6c-0.3,0.4-0.6,0.7-1.2,0.5c-0.4-0.1-0.8,0-1.3,0s-1,0-1.5-0.1c-0.7-0.1-1.4-0.4-2.2-0.1
			c-0.4,0.1-0.9,0-1.4-0.1c-0.7-0.1-1.4,0-2.1,0.4c-0.6,0.3-1.5,0.2-2.2,0.2c-0.5,0-1-0.2-1.4-0.4c-0.7-0.3-1.3-0.2-1.8,0.2
			c-1.3,0.9-2.6,0.7-3.9,0.1c-0.5-0.2-0.8-0.2-1.3-0.1c-1,0.3-2,0.4-2.9-0.4c-0.7-0.6-0.7-1-0.1-1.8c0.7,0.3,1.1,1.2,1.9,0.9
			c0.7-0.2,1.3-0.5,2.2-0.8c0.1,0.1,0.5,0.4,0.7,0.7c0.4,0.6,0.9,0.7,1.5,0.6c0.7-0.1,1.3-0.3,1.8-0.8s1.1-0.7,1.9-0.2
			c1,0.6,2.2,0.7,3.3,0.5c0.2,0,0.4-0.3,0.5-0.5c0.6-0.8,0.6-0.9,1.5-0.5s1.7,0.6,2.5-0.2c0.4-0.3,1.1-0.2,1.5,0.2
			c0.5,0.7,1.2,0.8,1.9,0.7c0.3,0,0.5,0,0.8,0C75,185.6,75.4,185.8,75.6,186.6z"/>
		<path style="fill:#111313;" d="M167,177.9c0.3,0.1,0.6,0.1,0.9,0.3c0.5,0.2,1,0.3,1.4,0c0.6-0.4,1.5-0.1,2.1-0.9
			c0.1-0.1,0.8,0,1.2,0.2c1.1,0.4,2.1,0.8,3.2,0.4c0.2-0.1,0.4-0.1,0.5-0.2c0.5-0.3,0.9-0.2,1.2,0.2c0.5,0.7,1.2,0.7,1.8,0.6
			c0.6,0,1.2-0.1,1.7-0.8s0.8-0.7,1.4-0.3c0.8,0.6,1.6,0.7,2.5,0.3c0.1-0.1,0.3,0,0.5-0.1c0.2,0.2,0.4,0.5,0.6,0.8
			c-1,0.9-2.2,1-3.3,0.6c-0.5-0.2-0.9-0.2-1.3,0.1c-1.2,0.7-2.5,0.8-3.8,0.1c-0.5-0.3-1-0.4-1.4-0.2c-1.1,0.4-2,0.1-3-0.2
			c-0.4-0.1-0.7-0.3-1.1-0.4c-0.7-0.1-1.3,0.1-1.9,0.4c-1.6,0.7-1.9,0.7-3.1-0.5c-0.1-0.1-0.2-0.2-0.2-0.2
			C166.8,178.1,166.9,178,167,177.9z"/>
		<path style="fill:#111313;" d="M252.6,178c0.3,0.1,0.6,0.2,1,0.3c0.3,0.1,0.6,0.2,0.8,0.1c0.8-0.4,1.7-0.2,2.4-0.9
			c0.3-0.4,0.8-0.1,1.3,0.1c1,0.4,2.1,0.8,3.2,0.4c0.2-0.1,0.4-0.1,0.5-0.2c0.5-0.4,0.9-0.2,1.3,0.2c0.8,0.9,2.5,0.8,3.4-0.1
			c0.8-0.9,0.8-0.9,1.8-0.2c0.6,0.4,1.2,0.5,1.8,0.3c0.3-0.1,0.6-0.2,0.9-0.2c0.2,0.3,0.4,0.5,0.6,0.9c-0.4,0.2-0.7,0.6-1.1,0.6
			c-0.8,0.1-1.7,0.3-2.5-0.2c-0.3-0.2-0.6-0.2-1,0c-1.3,0.8-2.6,1-4,0.2c-0.5-0.3-1-0.4-1.5-0.2c-1,0.4-2,0.1-2.9-0.2
			c-1.2-0.5-2.2-0.5-3.3,0.2c-1,0.6-1.9,0.3-2.6-0.7C252.5,178.3,252.6,178.1,252.6,178z"/>
		<path style="fill:#111313;" d="M37.8,186.1c0.2,0.8,0.8,1,1.6,1c0.2,0,0.7,0.3,0.7,0.5c0.1,0.4-0.3,0.5-0.7,0.6
			c-0.6,0.1-1.1,0.2-1.5-0.2c-0.3-0.3-0.6-0.3-1.1-0.3c-0.7,0.1-1.4,0-2.2-0.1s-1.5-0.1-2.2,0.2c-0.8,0.4-1.6,0.2-2.5-0.1
			c-0.2-0.1-0.5-0.2-0.7-0.3c-0.6-0.4-1.1-0.3-1.7,0.1c-0.9,0.7-1.9,0.7-3,0.6c-1.2-0.1-1.8-0.8-2.3-1.7c0-0.1,0.1-0.2,0.1-0.2
			c0.3,0.1,0.7,0.2,1,0.4c1.7,0.9,3.2,0.5,4.6-0.5c0.7-0.5,1-0.5,1.6,0.1c0.9,0.9,2.2,0.9,3.1,0c0.3-0.3,0.7-0.4,1-0.1
			c1.1,0.8,2.3,0.7,3.5,0.2C37.4,186,37.5,186.1,37.8,186.1z"/>
		<path style="fill:#0F1011;" d="M138.3,179.8c0.4,0.1,0.7,0.1,1,0.2c0.8,0.4,1.7,0.5,2.6,0.4c0.6,0,1.1-0.1,1.2-0.9
			c0.6,0.2,1.1,0.4,1.6,0.6c0.4,0.1,0.8,0.3,1.2,0.3c1.1-0.1,2.2,0.2,3.2-0.5c0.2-0.1,0.9,0.1,1,0.3c0.5,0.8,1.3,0.8,2,0.8
			c1,0,2,0.1,2.7-0.8c0.9,0.3,0.9,0.3,1.1,1.3c-0.2,0.1-0.4,0.3-0.7,0.3c-1.4,0.2-2.7,0.5-4.1,0.2c-0.5-0.1-1.1,0-1.4-0.3
			c-0.6-0.4-1.2-0.3-1.9-0.2c-1.3,0.2-2.6,0.3-3.9-0.2c-0.2-0.1-0.6,0-0.9,0.1c-1.5,0.4-2.8,0.2-4.2-0.4
			C138.4,180.8,138.3,180.5,138.3,179.8z"/>
		<path style="fill:#0F1011;" d="M223.9,179.9c0.4,0.1,0.7,0.1,1,0.2c0.8,0.3,1.6,0.4,2.5,0.4c0.6,0,1.2-0.1,1.3-0.9
			c0.6,0.2,1.1,0.4,1.5,0.6c0.2,0.1,0.5,0.2,0.8,0.2c1.2,0,2.4,0.1,3.6-0.4c0.3-0.1,0.9,0.1,1.1,0.3c0.4,0.7,1,0.8,1.7,0.8
			c1,0,2,0.2,2.8-0.6c0.1-0.1,0.6-0.1,0.7,0c0.3,0.2,0.5,0.6,0.8,1c-0.2,0.2-0.3,0.3-0.4,0.4c-1.9,0.4-3.8,0.8-5.6,0.1
			c-0.9-0.3-1.7-0.3-2.7-0.2c-1.1,0.2-2.2,0.1-3.3-0.2c-0.3-0.1-0.6,0-0.9,0.1c-1.5,0.5-2.9,0.2-4.3-0.4
			C223.9,180.8,223.8,180.5,223.9,179.9z"/>
		<path style="fill:#101112;" d="M125.6,182.6c-1-0.1-1.7-0.1-2.4-0.2c-0.3,0-0.7,0.1-0.9-0.1c-1.2-0.5-2.3-0.3-3.5,0.1
			c-0.8,0.3-1.6,0.4-2.2-0.1c-1.4-0.9-2.8-0.6-4.1-0.1c-0.9,0.4-1.6,0.2-2.5,0c-0.7-0.2-1-0.6-1-1.5c0.4,0,0.9,0,1.2,0.1
			c1.1,0.5,2.2,0.3,3.3,0c0.2-0.1,0.4-0.2,0.4-0.4c0.3-0.7,0.7-0.5,1.2-0.3c0.1,0.1,0.3,0.2,0.4,0.3c1.1,1.1,2.4,1,3.7,0.6
			c0.1,0,0.2-0.1,0.3-0.2c0.4-1,1-0.6,1.7-0.3c1.2,0.4,2.4,0.7,3.7,0.2c0.5-0.2,0.8,0,1,0.3c0.3,0.3,0.3,0.7,0,1
			C125.7,182.4,125.6,182.5,125.6,182.6z"/>
		<path style="fill:#0F1011;" d="M311.3,178.2c0.4,0.1,0.7,0.1,1,0.2c0.8,0.3,1.6,0.4,2.5,0.4c0.6,0,1.1-0.1,1.4-0.9
			c0.5,0.1,0.9,0.1,1.2,0.4c0.6,0.4,1.3,0.5,2,0.4c0.9-0.1,1.8,0.1,2.7-0.5c0.2-0.1,0.9,0.1,1.1,0.3c0.4,0.7,1,0.8,1.7,0.8
			c1,0,2,0.2,2.8-0.6c0.1-0.1,0.6-0.1,0.7,0c0.3,0.2,0.5,0.6,0.8,1c-0.2,0.2-0.3,0.3-0.5,0.4c-1.9,0.4-3.8,0.8-5.6,0.1
			c-0.9-0.3-1.7-0.3-2.7-0.2c-1.1,0.1-2.2,0.1-3.3-0.2c-0.3-0.1-0.6,0-0.9,0.1c-1.5,0.5-2.9,0.2-4.3-0.4
			C311.3,179.2,311.3,178.8,311.3,178.2z"/>
		<path style="fill:#0F1011;" d="M298.6,181c-0.9-0.1-1.7-0.1-2.4-0.2c-0.3,0-0.6,0-0.9-0.1c-1.1-0.5-2.2-0.3-3.2,0.1
			c-0.8,0.3-1.7,0.4-2.5-0.1c-1.4-0.9-2.8-0.5-4.1,0c-0.8,0.3-1.5,0.2-2.2,0s-1.1-0.6-1.2-1.5c0.4,0,0.9-0.1,1.2,0.1
			c1.1,0.6,2.2,0.3,3.3,0c0.2,0,0.3-0.2,0.4-0.3c0.5-0.6,0.6-0.7,1.3-0.3c0.2,0.1,0.4,0.3,0.7,0.5c1.1,0.9,2.3,0.6,3.5,0.4h0.1
			c0.5-1.2,1.3-0.5,2.1-0.3c1.1,0.3,2.2,0.5,3.2,0.2c0.6-0.2,0.9-0.1,1.2,0.3c0.3,0.4,0.2,0.8-0.2,1.1
			C298.7,180.9,298.6,181,298.6,181z"/>
		<path style="fill:#0F1011;" d="M211.2,182.6c-1.1-0.1-1.9-0.1-2.8-0.2c-0.2,0-0.5,0-0.7-0.1c-1.1-0.5-2.2-0.3-3.3,0.1
			c-0.8,0.3-1.7,0.4-2.3-0.1c-1.4-0.9-2.8-0.6-4.1,0c-0.8,0.3-1.5,0.2-2.2,0s-1.1-0.6-1.2-1.4c0.4-0.3,0.8-0.3,1.3,0
			c1.1,0.5,2.2,0.3,3.3-0.1c0.2,0,0.3-0.2,0.4-0.4c0.3-0.6,0.7-0.5,1.1-0.3c0.1,0.1,0.3,0.1,0.4,0.2c1,0.9,2.1,1.1,3.4,0.7
			c0.4-0.1,0.7-0.2,0.9-0.5c0.2-0.4,0.6-0.4,1-0.2c1.4,0.6,2.8,0.9,4.3,0.4c0.2-0.1,0.7,0.2,0.9,0.4s0.3,0.6,0,0.9
			C211.3,182.4,211.2,182.6,211.2,182.6z"/>
		<path style="fill:#0F1011;" d="M99.2,186.5c0.4,0.1,0.8,0.1,1.1,0.2c1,0.5,1.9,0.4,2.8-0.1c0.5-0.3,0.9-0.3,1.4,0
			c0.4,0.2,0.8,0.3,1.2,0.4c0.6,0.2,1.1,0.2,1.6-0.4c0.4-0.5,0.9-0.4,1.3-0.1c1.5,1,3,0.6,4.6,0c0.3,0.2,0.6,0.5,1,0.8
			c-0.3,0.2-0.5,0.5-0.8,0.6c-1.6,0.5-3.1,1-4.8,0.4c-0.2-0.1-0.6-0.2-0.7,0c-0.8,0.6-1.7,0.4-2.5,0.2s-1.5-0.3-2.2-0.1
			c-1,0.2-2.1,0.1-3-0.3C99.2,187.7,99.1,187.5,99.2,186.5z"/>
		<path style="fill:#0F1011;" d="M178.2,184.7c0.4,0.1,0.8,0.1,1.1,0.2c1,0.5,1.9,0.4,2.8-0.1c0.5-0.3,0.9-0.3,1.4,0
			c0.4,0.2,0.8,0.3,1.2,0.4c0.6,0.2,1.1,0.2,1.6-0.4c0.3-0.4,0.8-0.5,1.2-0.2c1.5,1.1,3,0.6,4.7,0.1c0.2,0.2,0.6,0.5,1,0.8
			c-0.3,0.2-0.5,0.5-0.8,0.6c-1.6,0.5-3.1,1-4.8,0.4c-0.2-0.1-0.6-0.2-0.7,0c-0.9,0.6-1.8,0.4-2.6,0.1c-0.7-0.2-1.3-0.3-2-0.1
			c-1.1,0.2-2.1,0.1-3.2-0.3C178.2,185.9,178.1,185.6,178.2,184.7z"/>
		<path style="fill:#0F1011;" d="M272.2,184.9c0.4,0.1,0.8,0.1,1.1,0.2c1,0.5,1.9,0.4,2.8-0.1c0.5-0.3,0.9-0.2,1.4,0
			c0.3,0.2,0.7,0.3,1.1,0.4c0.6,0.2,1.2,0.2,1.7-0.4c0.3-0.4,0.8-0.4,1.2-0.1c1.4,0.8,3.1,0.8,4.6,0c0.3,0.2,0.6,0.5,1.1,0.8
			c-0.3,0.2-0.4,0.5-0.7,0.6c-1.6,0.6-3.2,1.1-4.9,0.4c-0.2-0.1-0.6-0.1-0.7,0c-0.8,0.6-1.7,0.4-2.5,0.1c-0.8-0.2-1.5-0.2-2.2-0.1
			c-1,0.2-2.1,0.1-3-0.3C272.1,186.1,272,185.9,272.2,184.9z"/>
		<path style="fill:#101112;" d="M239.5,184.9c0.9,0.2,1.8,0.6,2.7,0.6c0.9-0.1,1.7-0.6,2.7-1c0.1,0,0.5,0.2,0.8,0.4
			c1.2,0.6,2.3,0.6,3.4-0.2c0.5-0.3,0.9-0.4,1.5-0.1c0.9,0.5,2,0.5,3,0.2c1.1-0.3,1.3-0.3,2,0.9c-0.5,0.1-1,0.4-1.5,0.4
			c-1.3,0-2.5,0.2-3.8-0.2c-0.3-0.1-0.7,0-1,0.1c-1.3,0.5-2.6,0.6-3.9-0.1c-0.2-0.1-0.7,0-0.9,0.1c-0.7,0.3-1.4,0.6-2.1,0.9
			c-1.2,0.4-2.6-0.4-2.9-1.6C239.4,185.2,239.4,185.1,239.5,184.9z"/>
		<path style="fill:#101112;" d="M133.8,185c0.2,0.1,0.5,0.1,0.6,0.2c0.4,0.8,1.1,0.6,1.8,0.6c0.5,0,1,0.2,1.6,0.3
			c-0.5,1.4-1.8,1.5-4.1,0.4c-0.2,0.1-0.4,0.1-0.6,0.2c-1.2,0.5-2.4,0.4-3.5-0.3c-0.6-0.4-1.2-0.4-1.8-0.2c-1.2,0.3-2.3,0.7-3.6,1
			c-1.7-0.6-1.7-0.6-2.3-1.9c0.4,0,0.7,0,1,0.1c1,0.5,2,0.3,3,0.1c1.1-0.3,2.2-0.2,3.2-0.9c0.3-0.3,0.6,0,0.9,0.2
			c1.2,1.3,2.3,1.3,3.8,0.3C133.6,185.1,133.6,185,133.8,185z"/>
		<path style="fill:#0F1011;" d="M153.9,184.9c1,0.2,1.8,0.7,2.7,0.6c0.9-0.1,1.7-0.6,2.5-0.9c0-0.1,0-0.2,0-0.2
			c0.4,0.2,0.8,0.3,1.1,0.5c1.1,0.5,2.2,0.5,3.3-0.2c0.5-0.4,0.9-0.4,1.6-0.1c0.9,0.4,2.1,0.6,3.1,0.1c0.9-0.4,1.3-0.2,1.7,1
			c-0.3,0.1-0.6,0.3-0.9,0.3c-1.3,0-2.7,0-4-0.1c-0.5,0-0.9-0.1-1.3,0.1c-1.3,0.6-2.5,0.6-3.8-0.1c-0.4-0.2-0.7-0.2-1.1,0.1
			c-0.6,0.3-1.3,0.6-2,0.8C155.5,187.3,154.2,186.4,153.9,184.9z"/>
		<path style="fill:#101112;" d="M223.3,186.1c-0.3,0.7-0.6,1.1-1.3,1.1c-0.9,0-1.7,0.1-2.4-0.5c-0.4-0.3-0.7-0.1-1.1,0
			c-1.2,0.4-2.5,0.5-3.5-0.3c-0.9-0.6-1.7-0.3-2.5-0.1c-0.9,0.2-1.8,0.7-2.7,0.8c-0.7,0.1-1.5,0-2-0.7c-0.2-0.3-0.4-0.6-0.7-1.1
			c1.4,0.1,2.7,0.7,4,0.2c1.2-0.4,2.6-0.2,3.6-1.2c0.8,0.6,1.2,1.5,2.3,1.5c0.9,0,1.7-0.2,2.4-0.9c0.4,0.2,0.8,0.5,1.1,0.7
			c0,0.1-0.1,0.1-0.1,0.2c0.5,0,1,0,1.5,0C222.3,185.9,222.7,186,223.3,186.1z"/>
		<path style="fill:#101112;" d="M302.3,182.8c0.6,0.6,1.1,1.4,2.1,1.4c0.9,0,1.6-0.2,2.3-0.8c0.2,0.1,0.6,0.1,0.7,0.2
			c0.4,0.8,1.1,0.6,1.8,0.6c0.5,0,1,0.2,1.6,0.3c-0.2,0.8-0.6,1.1-1.3,1.1c-0.8,0-1.6,0.1-2.3-0.4c-0.3-0.2-0.7-0.2-1.1-0.1
			c-1.2,0.5-2.4,0.5-3.5-0.2c-0.9-0.7-1.8-0.4-2.7-0.1c-0.9,0.3-1.7,0.7-2.6,0.8c-0.7,0-1.5,0-2-0.8c-0.2-0.3-0.4-0.6-0.7-1.2
			C297.3,184.5,299.7,183.9,302.3,182.8z"/>
		<path style="fill:#141414;" d="M36.1,180.6c0.8,0.2,1.5,0.4,2.3,0.5c0.6,0.1,1.2-0.1,1.6-0.7c0.3-0.5,0.6-0.4,1.1-0.2
			c1.5,0.8,3.1,1.1,4.7,0.2c0.3-0.2,0.9,0,1.3,0.1c1.2,0.5,2.3,0.8,3.4-0.2c0.4-0.4,0.8-0.1,1.2,0.2c0.3,0.2,0.4,0.5,0.1,0.9
			c-0.1,0.1-0.1,0.3-0.2,0.4c-0.3,0-0.5,0-0.8,0c-1,0-2,0.1-3,0.1c-1-0.1-2-0.1-3,0s-2.1-0.1-3.2-0.2c-0.4-0.1-0.7-0.1-1.1,0.1
			c-1.5,0.8-2.9,0.5-4.4-0.3C35.6,181.3,35.7,181,36.1,180.6z"/>
		<path style="fill:#46372D;" d="M252.6,178c0,0.2,0,0.3,0,0.5c-0.3-0.2-0.6-0.5-1-0.8C252.1,177.4,252.3,177.7,252.6,178z"/>
		<path style="fill:#46372D;" d="M167,177.9c-0.1,0.1-0.2,0.2-0.3,0.3c-0.2-0.2-0.4-0.4-0.7-0.6c0-0.1,0.1-0.1,0.1-0.2
			C166.4,177.6,166.7,177.8,167,177.9z"/>
		<path style="fill:#FDFDFD;" d="M57.1,87c0.5,0.1,0.8,0.4,0.4,1c0.2,0.1,0.5,0.2,0.6,0.4c0.8,1,1.7,1,2.9,0.8
			c2.8-0.4,5.6-0.6,8.4-0.9c0.5-0.1,0.9-0.3,1.4-0.4c0.2-0.1,0.4-0.2,0.6-0.1c1.3,0.4,1.9-0.5,1.9-1.9c0-0.3,0-0.7-0.2-1
			c-0.4-0.6-0.3-1.1-0.1-1.6c0.7-0.1,1.5-0.2,2.2-0.2c0.3,1.8,1.1,3.3,2.5,4.5c1,0.9,1.7,1.9,2.7,2.8c0.5,0.5,1.2,0.9,1.8,1.2
			c0.8,0.4,1.7,0.7,2.6,1c1,0.3,1.9,0.1,2.7-0.5c0.3-0.3,0.4-0.8,0.7-1.4c0.2,0.2,0.5,0.4,0.6,0.7c0.3,0.9,1.1,1.3,1.8,1.7
			c0.3,0.2,0.7,0.4,1,0.5c2.1,1,3.5,2.7,4.3,4.9c0.6,1.7,1.2,3.4,1.9,5.2c-0.5,0-0.8,0-1.2,0c-0.3,0-0.7,0-1,0.1
			c-0.2,0.1-0.4,0.4-0.4,0.7c0,0.2,0.3,0.4,0.5,0.5c0.6,0.2,1.3,0.3,1.9,0.5c1.1,0.4,2.3,0.8,3.3,1.3c3,1.5,6,3.1,8.9,4.7
			c1.3,0.7,2.7,1.4,4,2.3c1.1,0.8,2.2,1.5,2.7,2.9c0.1,0.2,0.4,0.3,0.7,0.3c1.7,0.2,3.2,0.8,4.6,1.6c0.8,0.4,1.5,0.9,2.3,1.3
			c1.4,0.8,2.4,1.9,3.4,3.2c0.4,0.5,1,1,1.3,1.5c1,1.7,1.5,3.6,1.6,5.7c0,0.8,0.2,1.7,0.3,2.5c0.3,2.1-0.2,4.2-0.8,6.2
			c-0.5,1.5-1.1,2.9-1.6,4.3c-0.2,0.5-0.4,0.9-0.7,1.3c-0.7,1.1-1.5,2.2-2.2,3.3c-0.8,1.1-1.3,2.4-1.5,3.7c-0.3,1.7-0.5,3.3-0.8,5
			c-0.3,1.3-0.7,2.5-1.1,3.7c-0.2,0.1-0.5,0.2-0.7,0.4c-1,1-1.8,2.1-2.3,3.4c-0.3,0.8-0.2,1.8-0.3,2.7c-1,1.6-2.5,2.3-4.1,3
			c-0.9,0.4-1.9,0.7-2.9,1.1c-0.5,0.2-0.9,0.5-1.4,0.7c-0.4,0.2-0.8,0.5-1.2,0.5c-1.5,0.1-3.1,0.2-4.6,0.3c-0.9,0-1.8,0-2.7,0.3
			c-0.6,0.2-1.3,0.2-1.9,0.1c-1.7-0.3-3.3-0.1-5,0c-1.1,0-2.2,0.3-3.3-0.1c-0.1,0-0.3,0-0.5,0c-1.4,0.4-2.8-0.1-4.2,0.1
			c-1.3,0.2-2.7-0.1-4-0.1c-1,0-2,0-2.9,0c-0.8,0-1.6-0.1-2.4-0.1c-0.6,0-1.1,0.1-1.7,0.2c-1.1,0.1-2.3,0.3-3.4,0.1
			c-1.3-0.2-2.4,0-3.6,0.1c-2.4,0.1-4.9,0-7.3,0c-1,0-2-0.2-2.9-0.3c-0.4-0.1-0.8-0.2-1.1-0.5c-0.9-0.8-1.8-1.7-2.6-2.6
			c-1.1-1.5-2.1-3-3.1-4.6c-0.8-1.2-1.4-2.6-2.2-3.8c-0.7-1.1-1.3-2.1-2.1-3.1c-0.8-1.2-1.7-2.3-2.6-3.4c-1.2-1.3-2.5-2.5-3.7-3.7
			c-0.3-0.3-0.5-0.8-0.8-1.1c-0.5-0.6-1.1-1.2-1.6-1.7c-0.7-0.8-1.6-1.5-2.2-2.5c-0.5-0.7-0.6-1.6-0.8-2.4c-0.4-1.6-0.6-3.3-0.6-5
			c0-1.4-0.3-2.8-0.4-4.2c-0.1-1.6,0-3.3,0-4.9c0-1.9,0-3.7,0-5.6c0-0.2,0.1-0.4,0.1-0.6s-0.7-2.9-0.7-3c0.7-1.3,1.1-0.7,1.7-2
			c0.5-1.1,1-2.5,1.4-3.6c0.2-0.6,1.4-0.3,1.3-0.9c0.4-0.4,0.8-0.8,1.2-1.2c0.5-0.5,1.1-1,1.5-1.7c0.5-0.7,0.6-1.5,0.9-2.3
			c0.5-1.2,1-2.3,1.4-3.5c0.5-1.9,1.6-3.3,3.3-4.2c0.7-0.4,1.5-0.7,1.9-1.2c0.7-0.8,1.2-1.8,1.6-2.8c0.8-2,1.8-3.9,2.9-5.7
			c0.1-0.2,0.3-0.4,0.5-0.6c0.9-0.6,1.8-1.2,2.7-1.8c0.4-0.2,0.5-0.4,0.3-0.8C56.7,87.2,56.9,87.1,57.1,87z M88,142.4
			c0.2-0.1,0.5-0.2,0.7-0.3c-0.2-1.1-0.2-1.1-1.2-1.3c-0.9-0.2-1.8-0.1-2.6,0.4c1,1,0.6,2.2,0.7,3.1c-0.2,0.5-0.9,0.2-0.8,0.8
			c1.2,0,2.5-0.1,3.7-0.1c0.4,0,0.7-0.3,1.2-0.5c-0.3-0.5-0.1-1.3-1-1.3c-0.5,1.2-0.6,1.2-2.1,0.8c0-0.2,0-0.5,0-0.8
			c0.3-0.1,0.6-0.1,0.9-0.3c0.1-0.1,0.2-0.3,0.2-0.4C87.8,142.6,87.9,142.5,88,142.4z M111.9,119.6c0.6,0.1,1-0.2,1.2-0.8
			c0.2-0.6,0-1-0.4-1.4c-1.7-1.4-3.3-2.8-5-4.2c-0.7-0.6-1.3-1.2-1.9-1.8c-0.9-0.8-1.3-0.7-2.1,0.2c-0.4,0-1-0.2-1.2,0.4
			c-0.3,0.6,0.2,0.9,0.5,1.2c0.4,0.5,1,0.9,1.4,1.3c1.2,1.2,2.4,2.4,3.5,3.6c0.5,0.5,1.1,1,1.6,1.6s1,0.9,1.7,0.9
			C111.4,120.2,111.6,119.9,111.9,119.6z M80.7,108.8c-0.1-0.1-0.3-0.2-0.4-0.2c-0.7,0-1.6,0.4-1.3,1.1c0.4,0.8,0.8,1.5,1.2,2.3
			c0,0.6-0.1,1.2,0,1.8c0.2,0.9,0,1.6-0.6,2.3c-0.3,0.3-0.4,0.6-0.7,0.9c-0.9,0.8-0.6,1.9-0.6,2.9c0,0.5,0.5,0.8,1,0.8
			s0.6-0.4,0.7-0.8c0.1-0.1,0.1-0.3,0.1-0.4c0.2,0.1,0.4,0.2,0.5,0.4c0.3,0.4,0.7,0.6,1.2,0.5c0.8-0.2,1.6,0,2.5,0
			c1.1,0,1.9-1,1.2-1.9c-0.6-0.8-0.9-1.4-0.6-2.4c0-0.1-0.1-0.1-0.1-0.2c-0.2-1.2-0.3-2.3-0.5-3.5c-0.2-1.1-0.4-2.2-0.7-3.4
			c-0.2-0.9-1.1-1.3-2-0.8C81.3,108.5,81,108.7,80.7,108.8z M88.5,105.3c-0.3-0.3-0.5-0.7-0.9-0.4c-0.2,0.2-0.5,0.6-0.4,0.8
			c0.4,0.9,0.5,1.8,0.9,2.6c0.8,1.7,1.9,3.1,4,3.5c1.6,0.3,1.7,0.4,1.4,2c-0.4,2,0.2,3.8,1.2,5.6c0.6,1,1.3,1.2,2.3,1
			c0.4,0.1,0.8,0.3,1.2,0.3c0.9,0,1.2-0.3,1.3-1.2c0.1-0.8-0.4-1.2-0.9-1.6c-1-0.9-1.1-2.1-1.1-3.3c0-0.9,0.2-1.7,0.1-2.6
			c0-0.5-0.2-1-0.6-1.3c-0.4-0.4-1-0.5-1.5-0.7c-0.7-0.2-1.4-0.5-1.8-1.1c-0.8-1-1.5-2-2.2-3C90.2,104.4,89.9,104.3,88.5,105.3z
			 M53.5,122.1c0.1,0.1,0.3,0.2,0.4,0.2c1.1,0.9,2.1,0.7,2.6-0.6c0.3-0.6,0.5-1.2,0.7-1.8c0.3-1.1,0.5-2.1,0.2-3.3
			c-0.2-0.8-0.2-1.7,0.2-2.5c0.6-1.1,1-2.1,1.5-3.2c0.4-0.9,0.9-1.9,1.3-2.8c0.4-1.1-0.1-1.9-1.3-2c-0.3,0-0.5,0-0.8,0.1
			c-0.8-0.2-1.2-0.1-1.5,0.5c-0.3,0.5-0.5,1.1-0.8,1.6c-0.4,0.8-0.7,1.6-1,2.4c-0.1,0.2-0.1,0.5-0.2,0.6c-0.9,0.8-0.9,2-1.5,2.9
			c-0.3,0.6-0.4,1.2-0.2,1.9c0.3,0.9,0.2,1.7-0.1,2.6c-0.3,0.7-0.5,1.4-0.8,2.2c-0.3,0.8-0.2,0.9,0.6,1.2
			C53.1,122,53.3,122,53.5,122.1z M62.4,122.4c0,0.4,0.2,0.6,0.6,0.7c0.8,0.1,1.4-0.2,1.7-1.2c0.4-1.3,1-2.6,1.8-3.7
			c1-1.2,2.1-2.4,3.4-3.4s1.4-2.1,1.1-3.4c-0.5-2.5-1-4.9-1-7.5c0-0.2,0-0.5,0-0.7c-0.2-0.9-0.7-1.2-2.1-1.1
			c-0.2-0.1-0.4-0.4-0.5-0.3c-0.3,0.1-0.6,0.3-0.7,0.5c-0.2,0.5-0.3,1-0.3,1.4c0,0.8,0.2,1.7,0.2,2.5c-0.1,1.3,0.1,2.6,0.4,3.9
			c0.1,0.7,0.2,1.4-0.3,2.1c-0.9,1.3-1.8,2.5-2.7,3.8c-1,1.5-2.6,2.7-2.5,4.8c0,0.1-0.1,0.1-0.1,0.2C61,122,61.2,122.3,62.4,122.4z
			 M43.6,120.9c0.9,1.2,1.9,1.1,2.5-0.1c1.2-2.2,2.3-4.5,3.5-6.7c0.8-1.5,0.8-3.1,0.5-4.7c-0.1-0.5,0-0.9,0.4-1.2
			c0.4-0.3,0.8-0.5,1.1-0.9c1.7-1.8,3.4-3.6,5-5.5c0.8-0.9,0.4-1.8-0.8-2.1c-0.1-0.3-0.3-0.6-0.4-0.9c-1,0.2-1,0.3-1.4,0.9
			c-0.6,0.9-1.2,1.9-1.9,2.7c-1.2,1.3-2.6,2.5-4.2,3.4c-0.5,0.3-1,0.5-1.3,0.9s-0.6,0.9-0.6,1.4c0,0.8,0.3,1.6,0.3,2.3
			c0,0.9-0.1,1.8-0.3,2.7c-0.3,0.9-1,1.8-1.4,2.7c-0.7,1.4-1.4,2.8-2.2,4.3C42.6,120.6,43.1,120.8,43.6,120.9z M88.7,151.8
			c0.4,0.7,0.8,1.4,1.3,2.2c0.4-0.2,0.7-0.4,1-0.6c-0.4-0.6-0.8-1.2-1.1-1.6c0.3-0.7,1.4-1,0.9-2c-0.7-0.3-1.4-0.8-2.2-0.8
			c-0.8,0-1.7-0.2-2.5,0.6c0.4,0.2,0.7,0.4,1.1,0.6c-0.1,1.1,0.3,2.4-0.8,3.3c0.6,0.7,1,0.7,1.9,0.2
			C88.3,153.1,87.5,152.3,88.7,151.8z M72.9,162.4c0.4,0.2,0.7,0.4,1,0.4c0.8-0.1,1.7-0.3,2.4-0.6c1.2-0.5,1.4-1.5,0.5-2.4
			c0,0-0.1-0.1-0.1-0.2c0.7-1,0.6-1.3-0.5-1.6c-0.7-0.2-1.4-0.3-2.1-0.4c-0.3,0-0.6,0.1-0.8,0.2C73.3,159.4,74,160.8,72.9,162.4z
			 M110.4,136.4c0-0.5,0-1-0.1-1.5c-0.2-0.8-0.1-1.6,0.4-2.2c-0.9-0.6-1.4-0.6-2.1,0.2c0.8,0.4,0.6,1.2,0.6,2
			c-0.7-0.8-1.3-1.4-1.9-2.1c-0.2-0.2-0.5-0.3-0.8-0.2c-0.1,0-0.3,0.4-0.3,0.6c0,0.8,0,1.6,0,2.4c-0.4,0.2-0.7,0.4-1,0.6
			c0.6,0.5,1.7,0.6,2.1,0.1c0.1-0.1,0.1-0.3,0.1-0.5c0-0.3,0-0.7,0.1-1.3c0.6,0.7,1.1,1.2,1.4,1.7S109.7,136.8,110.4,136.4z
			 M79.6,158.3c0,0.6,0,1.2,0.1,1.8c0.1,1.5,0.6,2,2,2.1c1.8,0.1,2.5-0.5,2.4-2.3c-0.1-0.8-0.1-1.4,0.7-1.8
			c-1.2-0.8-1.5-0.8-2.3,0.1c0.2,0.5,0.5,0.9,0.6,1.3c0.1,0.5,0,1-0.1,1.5c0,0.1-0.2,0.3-0.3,0.3c-0.7,0.3-1.9-0.3-1.9-1.1
			c-0.1-1-0.5-2,0.6-2.8c-1.2-0.5-2.3-0.3-2.3,0.4C79.2,158,79.5,158.2,79.6,158.3z M94.5,160.5c0.6-0.1,1.2-0.2,1.8-0.3
			c0.1-0.6-0.2-0.6-0.6-0.7c-0.4,0-0.7,0-1.2,0c0-0.4,0-0.7-0.1-1c0.5-0.1,0.8-0.1,1.1,0.3c0.2,0.4,0.7,0.4,1,0.1
			c0.4-0.3,0.2-0.6,0.1-0.9c-0.1-0.2-0.2-0.3-0.3-0.5c-0.8-0.1-1.5-0.1-2.2-0.2c-0.5,0-1.1,0-1.5,0.4c-0.1,0.1,0,0.2-0.1,0.4
			c0.3,0.1,0.6,0.3,1,0.4c0,0.9,0,1.7,0,2.5c-0.3,0.3-0.5,0.4-0.7,0.6c0.1,0.1,0.1,0.2,0.2,0.2c1,0.1,2.1,0.2,3.2,0.3
			c0.5,0,1-0.5,0.9-0.9s-0.5-0.5-1.1-0.4c-0.2,0-0.4,0.2-0.5,0.2C95,161.2,94.6,161.2,94.5,160.5z M67.3,161.2
			c0.5-0.4,1.1-0.3,1.5,0.1c0.6,0.6-0.2,0.9-0.4,1.3c1,0.4,1.3,0.4,1.9-0.1c-0.4-1.4-0.8-2.8-1.2-4.2c-0.2-0.6-0.5-0.8-1.1-0.7
			c-0.4,0.1-0.7,0.1-0.9,0.2c-0.2,1-0.4,1.8-0.5,2.5c-0.1,0.9-0.6,1.5-1.3,1.9c0.3,0.6,0.7,0.4,1,0.4
			C67.8,162.6,67.9,162.5,67.3,161.2z M81.5,153.1c-0.1-0.4-0.2-0.8-0.3-1.1c0.4-0.4,1.3,0,1.1-1c-0.3,0-0.6-0.1-0.9-0.1
			c0-0.4,0-0.4,1.1-0.2c0.2-0.1,0.5-0.2,0.8-0.3c-0.1-0.4-0.1-0.7-0.1-0.9c-0.8-0.3-3.2-0.1-3.8,0.3c1.5,1.1,1.2,2.3,0.4,4
			c1.3,0.3,2.7,0.3,3.9-0.1c0-0.3,0.1-0.7,0.1-1c0-0.2-0.3-0.5-0.5-0.5c-0.3-0.1-0.6,0-0.6,0.4c0,0.2-0.1,0.3-0.1,0.6
			C82.2,153.1,81.9,153.1,81.5,153.1z M78.9,132.9c0.6,0.1,1.1,0,1.5,0.2c0.4,0.1,0.5,0.8,1.1,0.5c0.2-0.5,0.2-1.1-0.4-1.2
			c-1.1-0.2-2.3-0.3-3.3,0.2c0,0-0.1,0.1-0.1,0.3c0.8,0.4,0.5,1.2,0.5,1.8c0.1,0.7,0.3,1.4-0.7,1.8c0.9,0.5,2.2,0.7,3.1,0.5
			c0.8-0.2,1.2-1,0.9-1.7c-0.1-0.2-0.3-0.3-0.5-0.3c-0.1,0-0.3,0.2-0.4,0.4s-0.1,0.5-0.1,0.8c-1.1,0.4-1.2,0.4-1.2-1.2
			c0.4-0.1,0.7-0.3,1.1-0.4c0-1-0.7-0.4-1.1-0.5C79.1,133.5,79,133.3,78.9,132.9z M51.9,133.9c0.1,0.3,0.2,0.7,0.2,1.1
			c0,0.8,0.1,1.6-0.8,2c0,0,0,0.1,0,0.2c1.2,0.6,3.1,0.3,3.9-0.7c0.8-0.9,0.2-3.4-1.2-3.5c-0.4,0-0.8-0.2-1.2-0.2
			c-0.6,0.1-1.3-0.2-1.9,0.5C51.3,133.5,51.6,133.7,51.9,133.9z M98.5,148.7c-1.2,0.1-2.2,0.1-3.2,0.2c-0.5,0.1-1,0.2-1.4,0.5
			c-0.2,0.1-0.3,0.5-0.3,0.7s0.2,0.4,0.4,0.5c0.3,0.1,0.6-0.1,0.6-0.5c0.1-0.7,0.6-0.3,1-0.4c0,0.9,0,1.8,0,2.7
			c-0.3,0.3-1,0.2-1,0.8c0.7,0.5,1.5,0.3,2.2,0.4c0.2,0,0.5-0.2,0.6-0.4s-0.2-0.4-0.3-0.6c-0.1-0.3-0.3-0.5-0.4-0.8
			c-0.1-0.6-0.1-1.2-0.2-1.8c0.4-0.2,0.8-0.3,1,0.2c0.1,0.2,0.4,0.4,0.5,0.3c0.2-0.1,0.4-0.3,0.5-0.6
			C98.6,149.6,98.5,149.2,98.5,148.7z M69.2,141.6c0.8,0.6,0.9,0.6,1,1.5c0.1,0.4,0.2,0.9,0.1,1.3c-0.1,0.4-0.3,0.8-0.5,1.3
			c0.7,0.1,1.4,0.4,1.9-0.3c-0.2-0.4-0.3-0.7-0.5-1.1c0.4-0.1,0.7-0.2,1-0.4c0.1,0.4,0.2,0.7,0.3,1c0.1,0.4,0.2,0.7,0.7,0.6
			c0.4-0.1,0.4-0.4,0.3-0.8c-0.2-0.6-0.4-1.3,0.1-2c0.3-0.4,0.1-0.8-0.4-1.1c-1-0.6-2-0.5-3-0.4C69.7,141.1,69.5,141.4,69.2,141.6z
			 M74.3,134.9c0.7-0.7,0.7-1,0.3-1.4c-0.9-1-2.5-1.1-3.6-0.4c0.8,1,0.7,2.1,0.6,3.2c-0.5,0.3-0.5,0.3-0.7,0.7c0.7,0,1.3,0,2.1,0
			c-0.1-0.7-0.2-1.2-0.3-1.7c0.9-0.1,1.3,0.4,1.2,2.1c0.4-0.1,0.8-0.1,1.3-0.2C74.8,136.3,74.5,135.6,74.3,134.9z M95.1,141.7
			c0.7,0.1,1.3-0.2,1.7,0.4c0.1,0.1,0.5,0.1,0.6,0c0.2-0.3,0.3-0.6,0.2-0.9c0-0.1-0.4-0.3-0.6-0.3c-0.8,0-1.7,0-2.5,0
			c-0.4,0-0.7,0.2-1.1,0.3c0,0.1,0,0.1,0,0.2c0.3,0.1,0.5,0.2,0.8,0.3c0.2,1,0.3,2-0.4,3c0.3,0.1,0.6,0.3,0.8,0.3
			c0.4,0,0.9-0.1,1.3-0.2c0.2-0.1,0.2-0.4,0.3-0.6c0-0.1,0-0.3,0-0.4c0.6-0.4,0.3-0.8,0.2-1.4c-0.5,0-0.9,0-1.3,0
			C95.2,142.3,95.1,142.1,95.1,141.7z M68.1,149.8c-1.3,0-1.9,0.7-1.8,1.9c0,0.5,0.2,0.9,0.3,1.3c0.1,0.5,0.4,0.7,0.9,0.8
			s1,0.1,1.5,0.1c0.7,0,1-0.4,1.1-1.1c0-0.3,0.1-0.6,0.1-0.9C70.2,150.4,69.6,149.8,68.1,149.8z M72.2,149.7c0,0.1,0,0.2-0.1,0.3
			c1.1,0.4,1.4,1.3,1.8,2.3c0.2,0.4,0.3,0.9,0.5,1.3c0.1,0.2,0.5,0.6,0.6,0.5c0.3-0.1,0.8-0.4,0.8-0.7c0.2-1.3,0.7-2.5,1.5-3.5
			c-0.6-0.5-0.6-0.5-1.9,0.1c0.6,0.8,0,1.4-0.3,2c-0.4-0.7-0.7-1.3-1-2c0.1-0.1,0.2-0.3,0.4-0.7C73.4,149.5,72.8,149.6,72.2,149.7z
			 M64.4,145.2c-0.7-0.3-1.3-0.3-1.5-1s-0.2-1.4,0.2-2c0.5-0.6,1.1-0.6,1.8-0.3c0.1,0.1,0.4-0.1,0.5-0.2c0.1-0.1-0.1-0.3-0.2-0.5
			c-0.1-0.1-0.2-0.1-0.3-0.2c-0.9-0.3-2.3,0.2-2.7,1c-0.9,1.8-0.4,3.3,1.7,3.8c0.5,0.1,1-0.1,1.3-0.5c0.3-0.5,0.6-1,0.4-1.6
			c-0.1-0.1-0.2-0.3-0.3-0.3c-0.5-0.3-1.5-0.1-2,0.3c0.2,0.9,1,0.1,1.5,0.6C64.8,144.6,64.6,144.9,64.4,145.2z M106.2,149
			c-1.3-0.5-1.5-0.4-2.1,0.4c-0.2,0.3-0.5,0.4-0.7,0.6c-0.5-0.3-0.9-0.5-1.2-0.7c-0.8-0.6-0.9-0.7-1.8-0.1c0.7,0.5,1.4,1.1,2.2,1.6
			c0.4,0.2,0.4,0.6,0.5,1c0.2,0.7-0.5,0.9-0.7,1.4c1.2,0.6,1.9,0.2,1.9-1c0-0.2,0-0.4,0-0.6c-0.2-1.1,0.3-1.7,1.3-2.1
			C105.7,149.5,105.8,149.3,106.2,149z M62,153.8c-0.5-0.5-1-0.9-0.8-1.6c0.5-0.2,1-0.4,1.5-0.7c0.2-0.2,0.5-0.6,0.5-0.8
			c-0.2-0.7-0.4-1.3-1.2-1.5c-0.9-0.2-1.7-0.2-2.7,0.5c1,0.2,1.1,0.7,1,1.4c-0.1,1,0,1.9-0.6,2.8C60.9,154.3,61.1,154.3,62,153.8z
			 M87.1,161c0.1,0.1,0.2,0.3,0.3,0.4c0.8,0.8,2.2,0.7,2.8-0.1c0.6-0.7,0.3-1.7-0.7-2.4c-0.3-0.2-0.5-0.4-0.9-0.6
			c0.6-0.4,1.5,0.3,1.7-0.6c-1.3-0.8-2.4-0.5-3,1c0.3,0.2,0.7,0.4,1,0.6c0.3,0.2,0.6,0.4,0.9,0.7c0.2,0.3,0.4,0.7,0,0.9
			c-0.2,0.1-0.6,0.1-0.8,0c-0.1,0-0.2-0.1-0.3-0.2C87.8,160.4,87.4,160.5,87.1,161z M104.2,133.8c-0.1-1.1-0.4-1.5-1.4-1.7
			c-0.7-0.2-1.9,0.3-2.1,0.9c-0.3,0.9-0.2,1.8,0.2,2.6c0.1,0.2,0.3,0.3,0.5,0.4c1.1,0.4,2.2,0.4,2.5-1.3
			C104.1,134.4,104.1,134.1,104.2,133.8z M64.8,133.5c0,1.2,0,2.4,0,3.5c1,0.1,1,0.1,1-1.6c0.4,0,0.8,0,1.1-0.1
			c0.4-0.2,0.8-0.5,1-0.8c0.1-0.3-0.2-0.8-0.4-1.1c-0.2-0.2-0.5-0.5-0.7-0.5c-0.9-0.1-1.8-0.1-2.7-0.1c-0.1,0-0.1,0.2-0.2,0.3
			C64.2,133.3,64.4,133.4,64.8,133.5z M93.3,132.6c-0.6-0.7-1.2-0.8-2.1-0.3c-0.7,0.4-0.8,0.9-0.3,1.5c0.3,0.4,0.7,0.7,1.1,1.1
			c0.1,0.2,0.1,0.4,0.2,0.7c-0.8,0.1-1.4-0.8-2,0c0.3,0.3,0.6,0.5,0.9,0.7c0.8,0.5,1.4,0.3,2-0.5c0.4-0.6,0.3-1.1-0.3-1.7
			c-0.3-0.3-0.6-0.7-1-1C92.3,132.6,93,133.3,93.3,132.6z M98.2,131.9c-0.7,0-1.6-0.6-2.1,0.5c0.9,0.4,0.6,1.2,0.7,1.8
			c0.1,0.7-0.1,1.4-0.7,2c0.5,0.1,0.8,0.2,1.1,0.3c0.7,0.2,0.9,0,0.8-0.8C97.7,134.4,97.3,133.2,98.2,131.9z M77.7,141.7
			c0.4,0.3,0.7,0.4,1.1,0.7c0,0.9-0.1,1.9-0.1,2.9c0.5,0,1,0.1,1.5,0.1c0.2,0,0.4-0.3,0.4-0.4c0-0.2-0.1-0.5-0.3-0.6
			c-0.1-0.1-0.4-0.1-0.6-0.1c0-0.6-0.1-1.1-0.1-1.6s0.9-0.6,0.4-1.3C79.3,141.1,78.5,141.1,77.7,141.7z M86,133.4
			c0.4-0.3,0.6-0.4,1-0.7c-0.3-0.1-0.4-0.2-0.6-0.2c-0.6,0-1.2,0.1-1.5,0.7c-0.3,0.6,0.3,0.9,0.6,1.2c0.3,0.3,0.6,0.6,0.9,0.9
			c-0.3,0.1-0.5,0.1-0.7,0s-0.3-0.2-0.5-0.2s-0.5,0.2-0.7,0.3c0.1,0.2,0.2,0.5,0.3,0.5c0.6,0.2,1.2,0.3,1.8,0.3c0.5,0,0.8-0.6,0.6-1
			c-0.1-0.3-0.3-0.7-0.6-1C86.6,134,86.3,133.7,86,133.4z M59.6,143.6c-0.3-0.5-0.5-0.8-1.1-0.6c-0.5,0.2-1.1,0.1-1.7,0.2
			c-0.5,0-1,0-1.5,0c-0.3,0-0.7,0.2-0.6,0.7c0.1,0.4,0.4,0.4,0.7,0.4c1.1-0.1,2.2-0.2,3.3-0.3C59,144,59.3,143.8,59.6,143.6z
			 M101.7,142.1c0.4,1.1,1.1,1,1.7,1c1,0,2-0.1,3.1-0.1c0.4,0,0.7-0.1,0.6-0.5c0-0.2-0.5-0.4-0.7-0.3c-0.7,0.2-1.3,0.1-2,0
			C103.6,142.2,102.7,142.2,101.7,142.1z"/>
		<path style="fill:#E0D2B5;" d="M70,34.5c0.8,0.4,1.6,0.9,2.6,0.5c0.1-0.1,0.3-0.1,0.4-0.2c-0.2-0.5-0.3-0.9-0.9-1
			c-0.4-0.1-0.7-0.3-1.1-0.4c-0.5-0.2-0.9-0.5-0.9-1.2c0-0.6-0.4-1.2-0.5-1.8c-0.1-0.4-0.3-0.8-0.4-1.3c-0.7-0.2-1.5-0.4-1.5-1.4
			c0.1,0,0.3,0,0.4,0c0.3-0.1,0.7-0.1,0.9-0.3c0.2-0.3,0-0.7-0.3-1c-0.4-0.4-0.4-0.7,0.1-1c0.1-0.1,0.3-0.1,0.4-0.2s0.3-0.1,0.5-0.2
			c0.7,0.8,1.5,0.4,2.3,0.1c0.2-0.1,0.6-0.4,0.5-0.5c-0.1-0.8,0.5-1,1-1.2c0.7-0.4,1.2-1,1.1-1.9c0.3,0.1,0.5,0.1,0.8,0.2
			c0.2,1.1,0.3,2.2,0.5,3.3c0.2,1.4,1.4,2.3,2.8,2.3c0.7,0,0.9,0.1,1,0.8c0.2,0.7,0,1.2-0.6,1.5c-0.2,0.1-0.4,0.1-0.6,0.1
			c-1,0.4-0.9,0.4-0.9,1.5c0,1.3-0.2,2.7-0.3,4c0,0.5,0,1.1,0,1.6c-0.7,0.7-1.7,0.8-2.6,1c-0.2,0-0.5,0-0.7,0c-1-0.3-2.1-0.6-3-1
			c-0.6-0.3-1-0.9-1.6-1.4C69.8,34.9,69.9,34.7,70,34.5z M71.7,30.9c-0.1,1-0.1,1,0.4,1.2c1,0.5,2,0.4,2.8-0.4c0.3-0.3,0.5-0.6,0-1
			C73.9,31,72.9,31.7,71.7,30.9z M72.7,27.5c-0.7,0.8-1,1.5-1.2,2.5c0.5,0.1,1,0.7,1.4,0.1c0.1-0.1-0.1-0.5-0.2-0.8
			C72.6,28.7,73.2,28.3,72.7,27.5z M75.2,26.4c-0.4,0.1-0.9,0.1-1.2,0.2c-0.2,0.1-0.4,0.5-0.3,0.7c0,0.2,0.4,0.5,0.6,0.5
			C75,28,75.3,27.6,75.2,26.4z M71,26.2c-0.4,0.9-0.3,1.3,0.1,1.5c0.4,0.1,0.8-0.2,0.8-0.6C72.1,26.3,71.6,26.3,71,26.2z"/>
		<path style="fill:#0F0F0E;" d="M56.5,87.3c0.3,0.4,0.1,0.5-0.3,0.8c-0.9,0.5-1.8,1.1-2.7,1.8c-0.2,0.1-0.4,0.4-0.5,0.6
			c-1.1,1.8-2.1,3.7-2.9,5.7c-0.4,1-0.9,1.9-1.6,2.8c-0.5,0.6-1.3,0.9-1.9,1.2c-1.7,0.9-2.7,2.4-3.3,4.2c-0.4,1.2-0.9,2.4-1.4,3.5
			c-0.3,0.8-0.5,1.6-0.9,2.3c-0.4,0.7-1,1.1-1.5,1.7c-0.4,0.4-0.8,0.8-1.2,1.2c-1.3,1.3-2.1,2.9-2.8,4.5c-0.2,0.6-0.3,1.2-0.6,1.7
			c-0.6,0.9-0.5,1.9-0.3,2.9c0,0.2-0.1,0.3-0.1,0.5c-0.4,0-0.8-0.1-1.2-0.1c0-0.6,0-1.3,0-1.8c0.1-0.7,0.5-1.4,0.2-2.1
			c0-0.1,0.1-0.4,0.2-0.5c0.6-1.1,1.2-2.2,1.7-3.4c0-0.1,0.1-0.1,0.1-0.2c0.3-1.5,1.6-2.3,2.5-3.4c0.8-1,1.7-1.8,2.3-3.1
			c0.5-1.1,0.9-2.2,1.2-3.3c0.5-1.8,1.4-3.4,2.5-4.8c0.2-0.2,0.4-0.3,0.7-0.4c0.6-0.3,1.2-0.7,1.9-0.9c0.8-0.3,1.2-0.8,1.5-1.6
			c0.3-0.8,0.8-1.5,1.2-2.2c0.7-1.4,1.4-2.8,2.1-4.1c0.7-1.3,1.6-2.4,3.1-2.9c0.5-0.1,0.9-0.5,1.5-0.8C56,87,56.3,87.2,56.5,87.3z"
			/>
		<path style="fill:#F1F6F0;" d="M37.9,149.3c0.2,0.1,0.4,0.1,0.5,0.2c0.6,0.6,1.1,1.3,1.6,2c0,0.1,0.1,0.2,0.1,0.2
			c1.2,0.9,2,2.2,3,3.3c0.4,0.5,0.6,1,1,1.5c0.9,1,1.7,1.9,2.5,2.9c0.8,1.1,1.4,2.2,2.2,3.3c-0.4-0.3-0.8-0.7-1.2-1
			c-0.7-0.7-1.2-1.5-1.9-2.1c-2-1.8-3.6-4.1-5.2-6.2c-0.8-1.1-1.6-2.3-2.3-3.4C38,149.8,38,149.5,37.9,149.3z"/>
		<path style="fill:#EDEDED;" d="M80.4,26.3c-0.3-0.1-0.5-0.3-0.8-0.5c0.3-0.9,0-1.8,0.5-2.6c0.2-0.3-0.2-0.8-0.2-1.3
			c0.3,0.2,0.7,0.4,1,0.6c0.1,0.1,0.2,0.6,0.1,0.7c-0.7,0.6-0.5,1.4-0.5,2.1C80.4,25.7,80.4,26,80.4,26.3z"/>
		<path style="fill:#F1F6F0;" d="M49,163c0.1,0.1,0.2,0.3,0.3,0.4C49.2,163.3,49.1,163.1,49,163z"/>
		<path style="fill:#F1F6F0;" d="M48.8,162.7c0.1,0.1,0.1,0.2,0.2,0.3C48.9,162.9,48.8,162.8,48.8,162.7z"/>
		<path style="fill:#C0CBE0;" d="M71.1,81.6c-1.9-0.1-3.8,0.3-5.7-0.1c0.4-7.1,0.7-14.2,1.1-21.4c0.2,0,0.4,0,0.6,0.1
			c1.4,0.7,2.9,0.9,4.5,0.9c2.8,0.1,5.5,0.2,8.3,0.2c0.5,0,0.9,0,1.5,0c0.6,7,1.1,14,1.7,21.1c-1.8,0.5-3.7,0.7-5.7,1.1
			c-0.8-5.3-1.7-10.5-2.5-15.7c-0.8-0.6-1.7-0.6-2.7-0.1C71.8,72.2,71.5,76.8,71.1,81.6z"/>
		<path style="fill:#EEBB9A;" d="M70.9,46.7c-1.1-0.2-2.2-0.5-3.2-0.7c-0.5-1.3-0.8-2.5-0.6-3.8c1.4,0.3,2.8,0.7,4.2,0.3
			c0.3,0.4,0.6,0.5,1.1,0.1c-0.2-0.1-0.3-0.2-0.4-0.3s-0.3-0.1-0.4-0.1c-0.5,0-1-0.1-1.5-0.1s-0.9,0-1.3-0.4
			c-0.3-0.3-0.8-0.3-1.3-0.4c0-0.8,0.3-1.6,0.7-2.3c0.2-0.4,0.5-0.7,0.8-1.1c0.4-0.5,0.4-0.5,0.3-1.2c0.1,0,0.3-0.1,0.3,0
			c1,0.9,2.2,1.5,3.5,1.8c0.2,0,0.4,0.1,0.5,0.2c0.7,0.4,1.4,0.4,2.1,0c0.3-0.1,0.7-0.1,1.1-0.2c0,1.3,0,2.4,0,3.5
			c-0.4,0.6-1.1,0.4-1.7,0.5c-0.5,0-0.9,0-1.4,0c0.4,0.6,0.9,0.4,1.4,0.4c0.3,0,0.7,0,1,0.1c0.5,0.1,1.1,0.2,1.5,0.8
			c0.8,1.2,1.8,2.1,3.3,2.4c0.3,0.1,0.5,0.3,0.8,0.4c0.1,1.1,0.3,2.1,0.4,3.2c0,0.4-0.2,0.8-0.4,1.3c0.1,0.2,0.2,0.6,0.4,1
			c-0.2,0.3-0.3,0.6-0.5,0.8c-0.7,0.3-1.3,0.5-2,0.8c-1,0.5-1,0.5-0.7,1.6c0,0.1,0,0.3,0,0.4c0,0.2-0.1,0.4,0,0.6
			c0,0.3,1.4,1.7,1.7,1.8c0.4,0.1,0.7,0.3,1.1,0.6c-4.9,0.9-9.8,1-14.6-0.1c1.2-0.7,1.2-0.7,1.1-2c1.6-0.4,3.4,0.1,4.9-0.7
			c0-0.1,0-0.2,0-0.2c-1.6,0.1-3.2,0.1-4.9,0.2c0-0.1,0-0.3,0.1-0.5c0.2-0.9-0.1-1.4-0.9-1.7c-1-0.4-0.9-0.4-1-1.4
			c0-1.6-0.1-3.1-0.1-4.7c0-0.4,0-0.8,0.1-1.3c1.6,0.2,3.1,0.5,4.6,0.7c1-0.1,2-0.2,3.2-0.3C72.8,46.5,72.8,46.5,70.9,46.7z
			 M73.5,51.3c-0.3-0.1-0.5-0.2-0.8-0.2s-0.7,0.1-1,0c-1.2-0.1-2.4-0.2-3.6-0.3c-0.6,0-1.1,0.1-1.5,0.8c2.4,0,4.6,0.4,6.9,0.2
			c0.9,0,1.8,0,2.7-0.1c0.1,0,0.2-0.3,0.4-0.5C75.4,51.2,74.4,51.2,73.5,51.3z M76.7,51.6c1.2,0.6,3.8,0.4,4.6-0.2
			c-0.4-1-0.5-1-1.3-0.5c-0.3,0.2-0.8,0.3-1.2,0.3C78.1,51.2,77.4,51.3,76.7,51.6z M77.2,47.5c-0.6-0.6-0.8-0.6-1.6-0.2
			C76.2,47.3,76.7,47.4,77.2,47.5z M74.8,46.9c-0.3,0-0.6,0-1.1,0C74.2,47.3,74.5,47.6,74.8,46.9z"/>
		<path style="fill:#E6F3F8;" d="M59.5,174c0.2-0.1,0.3-0.2,0.4-0.2c1.6,0.4,3.1,0.3,4.7,0.1c0.7-0.1,1.4,0.2,2.2,0.2
			c3,0,5.9,0,8.9-0.1c2.1,0,4.1-0.1,6.2-0.2c0.5,0,1.1,0.3,1.6,0.2c1.7,0,3.5-0.2,5.2-0.2c0.8,0,1.5,0.1,2.3,0.1
			c2.1,0.2,4.2-0.1,6.3-0.2c0.9-0.1,1.9,0.1,2.9,0.2c1.5,0.1,3.1,0.1,4.6,0.1c0.2,0,0.5,0,0.7,0.1c0.1,0,0.3,0.2,0.3,0.3
			c0,0.2-0.2,0.4-0.3,0.4c-1,0.1-1.6,0.8-2.2,1.3c-2.1,1.6-4.1,3.3-6.1,4.9c-1,0.8-2.1,1.7-3.1,2.5c-0.9,0.7-1.9,1-3.1,0.3
			c-1.1-0.7-2.4-0.9-3.5-1.5c-1.8-1-3.4-2.1-5.2-3.1c-1-0.6-2-1.1-3-1.7c-0.9-0.5-1.8-0.7-2.8-0.7c-3.5,0-7,0-10.5,0
			c-1.7,0-3.3-0.4-4.7-1.3c-0.5-0.3-0.9-0.6-1.3-1C59.7,174.5,59.7,174.3,59.5,174z"/>
		<path style="fill:#F7F7F7;" d="M87.5,54.5c-0.6-1-1.1-1.9-1.7-3c1.6-1,2.6-2.5,4.5-2.9c0.2-0.9-0.2-1.6-0.9-1.3
			c-1.2,0.4-1.7-0.3-2.3-1c1-0.7,2-1.4,3-2.1c0.2,0.1,0.4,0.2,0.5,0.4c0.9,1.1,1.8,2.2,2.7,3.2c0.6,0.7,0.5,0.7,0,1.5
			c-0.6,0.9-1.3,1.8-2.1,2.6C90.1,53,88.9,53.8,87.5,54.5z"/>
		<path style="fill:#F7F7F7;" d="M57.9,44.1c0.7,1.1,1.4,2.2,2.2,3.4c-0.4,0.1-0.8,0.2-1.1,0.2c-1.1,0.1-1.2,0.2-1.2,1.5
			c0.9,0.1,1.2,0.8,1.6,1.6c0.3,0.8,0.7,1.5,1.2,2.3c-0.4,0.5-0.8,1-1.3,1.6c-1.3-0.4-2.2-1.3-3.1-2.2c-1.1-1.2-1.7-2.7-2.5-4
			c-0.3-0.5-0.1-0.9,0.3-1.2c0.6-0.6,1.3-1.1,2-1.6C56.6,45,57.3,44.6,57.9,44.1z"/>
		<path style="fill:#F7F7F7;" d="M82.7,38.4c1.5,0.2,2.4,1,3.2,1.8c0.9,0.9,2,1.7,3,2.6c-0.9,0.7-1.7,1.3-2.5,2
			c-0.5,0.4-0.9,0.2-1.3-0.1c-0.3-0.3-0.7-0.6-1.1-0.7c-1-0.4-1.4-1.3-2.1-2.1c-0.1-0.2-0.2-0.5-0.2-0.6
			C82.1,40.3,82.4,39.3,82.7,38.4z"/>
		<path style="fill:#F7F7F7;" d="M60,49c0.4-0.5,0.7-1.1,1.5-0.8c0.3,0.1,0.6-0.2,1-0.3c0.1-0.6,0.1-1.2,0.8-1.4
			c0.5,0.6,1,1.1,1.6,1.8c-0.1,0.7-0.1,1.6-0.2,2.5c-0.1,1-1,1.2-1.8,1.5c-0.5,0.2-1.2-0.3-1.6-0.8C60.9,50.7,60.4,49.8,60,49z"/>
		<path style="fill:#F6F3D6;" d="M75.3,82.9c-0.7,0.1-1.5,0.2-2.2,0.2c0-1.2-0.1-2.4,0-3.5c0.1-1.8,0.2-3.6,0.3-5.4
			c0-0.1,0-0.2,0.1-0.3c0.3,0,0.6,0,0.9,0c0.1,0.9,0.2,1.9,0.3,2.8c0.2,1.9,0.4,3.8,0.7,5.7C75.4,82.6,75.3,82.8,75.3,82.9z"/>
		<path style="fill:#F1F6F0;" d="M79.9,36.8c0.5,0.3,1,0.5,1.6,0.8c-0.2,0.7-0.4,1.3-0.6,1.9c-0.1,0.5-0.3,1-0.4,1.6
			c-0.1,0.4,0,0.7-0.3,1c-0.4,0.4-0.3,0.7,0.3,1.2c0.5,0.4,1,0.7,0.8,1.4c-1.3-0.4-2.9-1.6-3.2-3.7C78,39.2,78.5,37.8,79.9,36.8z"/>
		<path style="fill:#DBCDB1;" d="M65.3,56.2c0.3,0.1,0.6,0.3,1.1,0.5C66,56.8,65.8,57,65.6,57c-0.9-0.1-1.9-0.2-2.8-0.4
			c-0.5-0.1-1-0.3-1.5-0.5c-0.3-0.1-0.5-0.4-0.8-0.5c0.7-1.5,1.9-1.8,3.9-2.7c0,0.7,0,1.3,0,2c0.7,0,1.3,0.1,1.9,0.1
			C66.3,55.9,65.4,55.5,65.3,56.2z"/>
		<path style="fill:#DBCDB1;" d="M81.5,53c0.2-0.3,0.3-0.6,0.5-0.8c0.6,0.5,1.2,0.1,1.8,0.2c-0.1,1.8,0.2,2.2,1.7,2.5
			c0.1,0.3,0.2,0.5,0.3,0.9c-1.5,0.6-2.7,1.9-4.6,1.6c0.4-0.3,0.8-0.5,1.2-0.8c-0.1-0.1-0.1-0.3-0.2-0.4c-0.4,0-0.9-0.1-1.4-0.1
			c0.3-0.2,0.5-0.4,0.8-0.6c-0.2-0.9-1-0.3-1.4-0.7c0.7-0.4,1.3-0.9,2.2-0.7c0.7,0.2,1-0.2,1.3-0.6C83,52.4,82.2,52.9,81.5,53z"/>
		<path style="fill:#EEBB9A;" d="M61.9,46.3c-1.4-0.7-1.8-1.9-2.2-3.2c0.9-0.7,1.8-1.4,2.8-2.1c0,0.4,0.1,0.6,0.1,0.9
			c-0.1,1-0.2,1.9,0.2,2.8C63,45.3,62.6,45.9,61.9,46.3z"/>
		<path style="fill:#F6F3D6;" d="M118.5,166.9c0.1-0.9,0-1.9,0.3-2.7c0.4-1.3,1.3-2.4,2.3-3.4c0.2-0.2,0.5-0.2,0.7-0.4
			c-0.5,1.4-0.9,2.8-1.8,4c-0.3,0.4-0.5,1-0.7,1.4C119,166.2,118.7,166.6,118.5,166.9z"/>
		<path style="fill:#EDEDED;" d="M84.1,51.3c-0.4-2.1-0.8-4-1.2-6.1c1.1,0.5,1.6,1.1,1.6,2.1s0.1,1.9,0.1,2.9
			C84.7,50.6,84.7,50.6,84.1,51.3z"/>
		<path style="fill:#D1D1D1;" d="M64.7,44.1c-0.9-1.2-0.5-2.3-0.4-3.3c0.1-0.7,0.3-1.4,1.4-1.4c0,0.2,0.2,0.5,0.1,0.6
			c-0.9,1-0.8,2.2-0.9,3.3C64.8,43.5,64.8,43.7,64.7,44.1z"/>
		<path style="fill:#D1D1D1;" d="M74.3,73.9c-0.3,0-0.6,0-0.9,0c-0.3-1-0.2-2.1,0-3.1c0.1-0.4-0.1-0.8-0.1-1.1c0-0.2,0-0.4,0.1-0.9
			C73.8,69.6,74.3,72.7,74.3,73.9z"/>
		<path style="fill:#D1D1D1;" d="M80.6,34.4c1.3-0.2,2,0.6,2.7,1.5C82.2,35.7,81.5,35,80.6,34.4z"/>
		<path style="fill:#EDEDED;" d="M85.5,54.8c-1.5-0.2-1.8-0.6-1.7-2.5c0.2,0.2,0.5,0.4,0.7,0.7C84.9,53.6,85.2,54.2,85.5,54.8z"/>
		<path style="fill:#46372D;" d="M70.9,46.7c1.9-0.2,1.9-0.2,3,0.2c-1.2,0.1-2.2,0.2-3.2,0.3C70.8,47,70.8,46.8,70.9,46.7z"/>
		<path style="fill:#D1D1D1;" d="M85.9,49.9c0-0.6-0.1-1-0.1-1.5c0.4,0.3,0.7,0.5,1.1,0.8C86.6,49.4,86.4,49.6,85.9,49.9z"/>
		<path style="fill:#D1D1D1;" d="M86.3,89.5c-0.2,1-0.2,1-1.1,0.9C85.3,89.9,85.7,89.7,86.3,89.5z"/>
		<path style="fill:#46372D;" d="M75.1,43c-0.5,0-1,0.2-1.4-0.4c0.5,0,0.9,0,1.4,0C75.1,42.7,75.1,42.8,75.1,43z"/>
		<path style="fill:#46372D;" d="M71.6,42.3c0.1,0,0.3,0,0.4,0.1s0.2,0.2,0.4,0.3c-0.5,0.3-0.8,0.3-1.1-0.1
			C71.4,42.5,71.5,42.4,71.6,42.3z"/>
		<path style="fill:#D7EDF5;" d="M55.9,99.7c1.2,0.3,1.6,1.2,0.8,2.1c-1.7,1.9-3.3,3.7-5,5.5c-0.3,0.3-0.7,0.6-1.1,0.9
			c-0.4,0.3-0.5,0.7-0.4,1.2c0.3,1.6,0.3,3.2-0.5,4.7c-1.2,2.2-2.3,4.5-3.5,6.7c-0.6,1.2-1.7,1.3-2.5,0.1c0.3-0.5,0.8-0.9,1-1.5
			c0.4-1.4,1-2.6,1.9-3.8c0.9-1.1,1.6-2.3,1.5-3.7c0-1,0.1-1.9-0.2-2.8c-0.3-1.3,0.4-1.9,1.2-2.6c0.7-0.6,1.4-1.1,2.1-1.6
			C53.1,103.4,54.5,101.6,55.9,99.7z"/>
		<path style="fill:#D8EEF6;" d="M67.9,102.1c1.4,0,1.8,0.2,2.1,1.1c0.1,0.2,0,0.5,0,0.7c0,2.5,0.5,5,1,7.5c0.3,1.4,0.2,2.5-1.1,3.4
			c-1.3,1-2.4,2.1-3.4,3.4c-0.8,1.1-1.4,2.4-1.8,3.7c-0.3,1-0.9,1.3-1.7,1.2c-0.4-0.1-0.6-0.3-0.6-0.7c0.9-0.8,1.3-1.8,1.2-3.1
			c0-0.2,0.1-0.5,0.2-0.6c1.2-1.6,2.4-3.4,3.8-4.9c0.9-1,1.3-2,1-3.3C67.9,107.7,67.8,104.9,67.9,102.1z"/>
		<path style="fill:#D8EEF6;" d="M58.3,106.1c0.3,0,0.5-0.1,0.8-0.1c1.1,0.1,1.7,1,1.3,2s-0.8,1.9-1.3,2.8c-0.5,1.1-1,2.2-1.5,3.2
			c-0.4,0.8-0.4,1.7-0.2,2.5c0.3,1.1,0.1,2.2-0.2,3.3c-0.2,0.6-0.4,1.2-0.7,1.8c-0.6,1.3-1.5,1.5-2.6,0.6c-0.1-0.1-0.3-0.2-0.4-0.2
			c0.8-0.7,0.9-1.6,1.1-2.5c0.1-0.4,0.3-0.8,0.4-1.2c0.1-0.5,0.3-1.1,0.2-1.6c-0.4-1.5-0.1-2.8,0.5-4.2c0.7-1.8,1.4-3.7,2.5-5.4
			C58.4,106.8,58.5,106.5,58.3,106.1z"/>
		<path style="fill:#D7EDF5;" d="M88.5,105.3c1.4-1,1.8-0.9,2.8,0.5c0.7,1,1.5,2,2.2,3c0.5,0.6,1.1,0.9,1.8,1.1
			c0.5,0.2,1.1,0.4,1.5,0.7c0.3,0.3,0.5,0.9,0.6,1.3c0,0.9-0.1,1.7-0.1,2.6c0,1.2,0.1,2.4,1.1,3.3c0.5,0.4,1,0.8,0.9,1.6
			c-0.1,0.9-0.4,1.3-1.3,1.2c-0.4,0-0.8-0.2-1.2-0.3c0.1-0.3,0.3-0.7,0.4-1.1c-1.5-0.9-2-2.4-2-3.9c-0.1-1.3,0.1-2.5,0.2-3.8
			c0-0.7-0.1-0.9-0.8-0.9c-0.9-0.1-1.7-0.3-2.6-0.5c-0.7-0.1-1.3-0.5-1.7-1.1C89.5,108,88.7,106.8,88.5,105.3z"/>
		<path style="fill:#D9EFF8;" d="M80.7,108.8c0.3-0.2,0.6-0.3,0.9-0.5c0.9-0.5,1.7-0.1,2,0.8c0.3,1.1,0.5,2.2,0.7,3.4
			c0.2,1.2,0.4,2.3,0.5,3.5c0,0.1,0.1,0.2,0.1,0.2c-0.2,0.9,0.1,1.6,0.6,2.4c0.7,0.9,0,1.9-1.2,1.9c-0.8,0-1.6-0.2-2.5,0
			c-0.5,0.1-0.9-0.1-1.2-0.5c-0.1-0.2-0.3-0.3-0.5-0.4c-0.1-0.9,0.2-1.7,0.8-2.4c1-1,1.2-2.3,0.9-3.6
			C81.5,112,81.1,110.4,80.7,108.8z"/>
		<path style="fill:#101112;" d="M55.9,99.7c-1.4,1.8-2.8,3.7-4.7,5.1c-0.7,0.5-1.4,1.1-2.1,1.6c-0.8,0.7-1.5,1.3-1.2,2.6
			c0.2,0.9,0.1,1.9,0.2,2.8c0.1,1.5-0.7,2.6-1.5,3.7c-0.9,1.1-1.5,2.4-1.9,3.8c-0.2,0.5-0.7,1-1,1.5c-0.6-0.1-1-0.3-1.1-0.8
			c0.8-1.5,1.5-2.9,2.2-4.3c0.5-0.9,1.1-1.7,1.4-2.7c0.3-0.8,0.3-1.8,0.3-2.7c0-0.8-0.3-1.6-0.3-2.3c0-0.5,0.3-1,0.6-1.4
			s0.8-0.7,1.3-0.9c1.6-0.9,3-2,4.2-3.4c0.7-0.8,1.3-1.8,1.9-2.7c0.4-0.6,0.5-0.7,1.4-0.9C55.6,99.1,55.8,99.4,55.9,99.7z"/>
		<path style="fill:#0F1011;" d="M67.9,102.1c-0.1,2.8,0,5.7,0.7,8.4c0.3,1.3-0.1,2.3-1,3.3c-1.4,1.5-2.5,3.2-3.8,4.9
			c-0.1,0.2-0.2,0.4-0.2,0.6c0.1,1.2-0.3,2.2-1.2,3.1c-1.1-0.1-1.3-0.4-1-1.4c0-0.1,0.1-0.1,0.1-0.2c-0.1-2.1,1.5-3.3,2.5-4.8
			c0.9-1.3,1.8-2.6,2.7-3.8c0.5-0.7,0.4-1.4,0.3-2.1c-0.3-1.3-0.5-2.6-0.4-3.9c0.1-0.8-0.2-1.7-0.2-2.5c0-0.5,0.1-1,0.3-1.4
			c0.1-0.2,0.4-0.4,0.7-0.5C67.5,101.7,67.7,101.9,67.9,102.1z"/>
		<path style="fill:#0C0C0C;" d="M88.5,105.3c0.3,1.5,1,2.7,1.9,3.9c0.4,0.6,1,1,1.7,1.1c0.9,0.2,1.7,0.4,2.6,0.5
			c0.6,0.1,0.8,0.3,0.8,0.9c-0.1,1.3-0.2,2.5-0.2,3.8c0.1,1.6,0.6,3,2,3.9c-0.1,0.4-0.3,0.7-0.4,1.1c-1,0.3-1.7,0-2.3-1
			c-1-1.8-1.5-3.5-1.2-5.6c0.3-1.7,0.3-1.8-1.4-2c-2.1-0.4-3.2-1.8-4-3.5c-0.4-0.8-0.5-1.8-0.9-2.6c-0.1-0.2,0.2-0.7,0.4-0.8
			C87.9,104.6,88.2,105,88.5,105.3z"/>
		<path style="fill:#0F1011;" d="M58.3,106.1c0.2,0.4,0.1,0.8-0.1,1.2c-1.2,1.6-1.8,3.5-2.5,5.4c-0.6,1.4-0.9,2.7-0.5,4.2
			c0.1,0.5-0.1,1-0.2,1.6c-0.1,0.4-0.3,0.8-0.4,1.2c-0.2,0.9-0.4,1.9-1.1,2.5c-0.2,0-0.4,0-0.6-0.1c-0.8-0.3-0.8-0.4-0.6-1.2
			c0.2-0.7,0.5-1.4,0.8-2.2c0.3-0.8,0.4-1.7,0.1-2.6c-0.2-0.7-0.1-1.3,0.2-1.9c0.5-1,0.6-2.2,1.5-2.9c0.1-0.1,0.1-0.4,0.2-0.6
			c0.3-0.8,0.7-1.6,1-2.4c0.2-0.6,0.5-1.1,0.8-1.6C57.2,105.9,57.5,105.8,58.3,106.1z"/>
		<path style="fill:#0F1011;" d="M80.7,108.8c0.4,1.6,0.8,3.2,1.2,4.7c0.3,1.4,0.1,2.6-0.9,3.6c-0.6,0.7-0.9,1.5-0.8,2.4
			c0,0.1,0,0.3-0.1,0.4c-0.1,0.3-0.1,0.8-0.7,0.8c-0.5,0-1-0.3-1-0.8c0-1-0.3-2.1,0.6-2.9c0.3-0.3,0.4-0.6,0.7-0.9
			c0.6-0.7,0.8-1.4,0.6-2.3c-0.2-0.6,0-1.2,0-1.8c-0.4-0.8-0.8-1.5-1.2-2.3c-0.4-0.7,0.5-1.1,1.3-1.1
			C80.4,108.7,80.6,108.8,80.7,108.8z"/>
		<path style="fill:#D8EEF6;" d="M103.7,111.6c0.8-0.9,1.2-0.9,2.1-0.2c0.7,0.6,1.3,1.2,1.9,1.8c1.6,1.4,3.3,2.8,5,4.2
			c0.5,0.4,0.6,0.9,0.4,1.4c-0.2,0.6-0.6,0.9-1.2,0.8c-0.1-0.3-0.2-0.6-0.4-0.8c-0.6-0.5-1.4-1-2-1.5
			C107.5,115.5,105.4,113.7,103.7,111.6z"/>
		<path style="fill:#101112;" d="M103.7,111.6c1.7,2.1,3.8,3.9,5.8,5.8c0.6,0.6,1.3,1,2,1.5c0.2,0.2,0.3,0.5,0.4,0.8
			c-0.2,0.3-0.4,0.6-0.7,0.9c-0.7,0-1.3-0.3-1.7-0.9c-0.4-0.6-1-1.1-1.6-1.6c-1.2-1.2-2.3-2.4-3.5-3.6c-0.5-0.5-1-0.8-1.4-1.3
			c-0.3-0.3-0.8-0.6-0.5-1.2C102.7,111.4,103.2,111.6,103.7,111.6z"/>
		<path style="fill:#171717;" d="M88.7,151.8c-1.1,0.5-0.4,1.2-0.4,1.8c-1,0.6-1.4,0.5-1.9-0.2c1.1-0.9,0.7-2.1,0.8-3.3
			c-0.3-0.2-0.7-0.4-1.1-0.6c0.8-0.8,1.7-0.6,2.5-0.6s1.5,0.5,2.2,0.8c0.5,1.1-0.6,1.3-0.9,2c0.3,0.4,0.6,1,1.1,1.6
			c-0.3,0.2-0.6,0.3-1,0.6C89.5,153.3,89.1,152.6,88.7,151.8z M88.2,151.2c0.8,0.1,1.4,0.1,1.8-0.6c-0.5-0.6-1.1-0.5-1.8-0.4
			C88.2,150.5,88.2,150.8,88.2,151.2z"/>
		<path style="fill:#141414;" d="M72.9,162.4c1.2-1.6,0.4-3.1,0.4-4.7c0.2,0,0.5-0.2,0.8-0.2c0.7,0.1,1.4,0.3,2.1,0.4
			c1.2,0.3,1.3,0.6,0.5,1.6c0,0.1,0,0.2,0.1,0.2c0.9,0.9,0.7,1.9-0.5,2.4c-0.8,0.3-1.6,0.5-2.4,0.6
			C73.5,162.8,73.2,162.6,72.9,162.4z M74.5,161.7c0.7-0.1,1.3-0.1,1.8-0.6c-0.5-0.8-0.7-0.9-1.8-0.5
			C74.5,160.9,74.5,161.2,74.5,161.7z M74.4,159.2c0.7,0.1,1.3,0.2,1.9-0.4c-0.6-0.2-1.1-0.3-1.7-0.5
			C74.5,158.7,74.4,158.9,74.4,159.2z"/>
		<path style="fill:#141414;" d="M110.4,136.4c-0.7,0.4-1.2,0.2-1.6-0.3s-0.8-1-1.4-1.7c0,0.6,0,0.9-0.1,1.3c0,0.2,0,0.4-0.1,0.5
			c-0.3,0.5-1.4,0.5-2.1-0.1c0.3-0.2,0.7-0.4,1-0.6c0-0.8,0-1.6,0-2.4c0-0.2,0.2-0.6,0.3-0.6c0.2,0,0.6,0.1,0.8,0.2
			c0.6,0.6,1.2,1.3,1.9,2.1c0-0.8,0.2-1.5-0.6-2c0.6-0.8,1.1-0.8,2.1-0.2c-0.5,0.7-0.6,1.4-0.4,2.2
			C110.4,135.4,110.4,135.9,110.4,136.4z"/>
		<path style="fill:#171717;" d="M79.6,158.3c-0.2-0.1-0.4-0.3-0.6-0.5c0-0.7,1.1-0.9,2.3-0.4c-1,0.8-0.7,1.8-0.6,2.8
			c0.1,0.7,1.3,1.4,1.9,1.1c0.1-0.1,0.3-0.2,0.3-0.3c0.1-0.5,0.2-1,0.1-1.5c-0.1-0.4-0.4-0.8-0.6-1.3c0.8-0.9,1.1-1,2.3-0.1
			c-0.8,0.4-0.8,1-0.7,1.8c0.2,1.8-0.5,2.4-2.4,2.3c-1.4-0.1-1.9-0.6-2-2.1C79.7,159.5,79.7,158.9,79.6,158.3z"/>
		<path style="fill:#171717;" d="M94.5,160.5c0.1,0.7,0.5,0.7,0.9,0.7c0.2,0,0.4-0.1,0.5-0.2c0.7-0.2,1.1,0,1.1,0.4
			c0,0.3-0.4,0.9-0.9,0.9c-1.1,0-2.1-0.2-3.2-0.3c-0.1,0-0.1-0.1-0.2-0.2c0.2-0.2,0.4-0.4,0.7-0.6c0-0.8,0-1.6,0-2.5
			c-0.4-0.2-0.7-0.3-1-0.4c0-0.2,0-0.3,0.1-0.4c0.4-0.5,1-0.4,1.5-0.4c0.7,0,1.4,0.1,2.2,0.2c0.1,0.1,0.2,0.3,0.3,0.5
			c0.2,0.3,0.3,0.7-0.1,0.9c-0.3,0.3-0.8,0.3-1-0.1c-0.3-0.4-0.6-0.4-1.1-0.3c0,0.3,0,0.6,0.1,1c0.4,0,0.8,0,1.2,0
			c0.3,0,0.7,0.1,0.6,0.7C95.7,160.3,95.1,160.4,94.5,160.5z"/>
		<path style="fill:#141414;" d="M67.3,161.2c0.6,1.3,0.6,1.4-0.9,1.4c-0.4,0-0.8,0.2-1-0.4c0.8-0.4,1.2-1.1,1.3-1.9
			c0.1-0.8,0.3-1.6,0.5-2.5c0.2,0,0.5-0.1,0.9-0.2c0.6-0.1,0.9,0.1,1.1,0.7c0.4,1.4,0.8,2.8,1.2,4.2c-0.6,0.5-0.9,0.6-1.9,0.1
			c0.2-0.4,1-0.7,0.4-1.3C68.4,160.8,67.8,160.8,67.3,161.2z M68.7,160c-0.2-0.6-0.2-1.1-0.7-1.4c-0.2,0.5-0.4,0.9-0.6,1.4
			C67.8,160,68.2,160,68.7,160z"/>
		<path style="fill:#1D1D1D;" d="M81.5,153.1c0.4,0,0.7,0,1,0.1c0.1-0.2,0.1-0.4,0.1-0.6c0-0.4,0.3-0.6,0.6-0.4
			c0.2,0.1,0.4,0.3,0.5,0.5c0.1,0.3,0,0.7-0.1,1c-1.2,0.4-2.7,0.4-3.9,0.1c0.8-1.7,1.1-2.9-0.4-4c0.6-0.4,3-0.6,3.8-0.3
			c0,0.3,0.1,0.6,0.1,0.9c-0.3,0.1-0.6,0.2-0.8,0.3c-1.1-0.2-1.1-0.2-1.1,0.2c0.3,0,0.6,0.1,0.9,0.1c0.2,0.9-0.7,0.5-1.1,1
			C81.3,152.3,81.4,152.7,81.5,153.1z"/>
		<path style="fill:#1B1B1B;" d="M78.9,132.9c0.2,0.5,0.2,0.7,0.3,0.9c0.4,0.1,1.1-0.5,1.1,0.5c-0.4,0.1-0.8,0.3-1.1,0.4
			c0.1,1.6,0.1,1.6,1.2,1.2c0-0.2,0-0.5,0.1-0.8c0.1-0.2,0.2-0.4,0.4-0.4c0.2,0,0.5,0.2,0.5,0.3c0.4,0.8,0,1.6-0.9,1.7
			c-0.8,0.2-2.2,0-3.1-0.5c1-0.3,0.7-1.1,0.7-1.8c-0.1-0.7,0.2-1.4-0.5-1.8c0-0.1,0.1-0.2,0.1-0.3c1.1-0.5,2.2-0.4,3.3-0.2
			c0.6,0.1,0.6,0.7,0.4,1.2c-0.6,0.3-0.7-0.4-1.1-0.5C80,132.9,79.5,132.9,78.9,132.9z"/>
		<path style="fill:#191919;" d="M51.9,133.9c-0.3-0.2-0.7-0.4-1-0.6c0.6-0.7,1.3-0.5,1.9-0.5c0.4,0,0.8,0.1,1.2,0.2
			c1.4,0.1,2,2.6,1.2,3.5c-0.9,1-2.7,1.3-3.9,0.7c0-0.1,0-0.2,0-0.2c1-0.4,0.8-1.2,0.8-2C52.1,134.6,52,134.2,51.9,133.9z
			 M52.9,133.7c0,0.9,0,1.8,0,2.6c1.2,0.1,1.5-0.1,1.6-0.9C54.6,134.4,54.1,133.8,52.9,133.7z"/>
		<path style="fill:#1D1D1D;" d="M60.6,136.7c0.3-0.4,0-1.1,0.7-1c0.6,0,0.7,0.9,0.5,1.4s-0.7,0.6-1.2,0.5c-0.5,0-1.1,0-1.6,0
			c-0.4,0-1.3,0.2-1.3-0.2c1.2-0.9,0.9-1.5,0.8-2.4c0-0.5-0.1-0.9-0.2-1.4c-0.2-0.1-0.4-0.2-0.7-0.3c-0.1,0-0.1-0.1-0.2-0.3
			c0.4-0.1,0.8-0.2,1.1-0.2c0.6,0,1.2,0,1.7,0c1,0,1,0,1.3,1.2c-0.4,0.4-0.7,0.4-1.1,0c-0.1-0.7-1.1-0.4-1.1,0.3
			c0.4,0.2,1.4-0.1,1.4,0.6c0,0.6-0.9,0.5-1.3,0.7c0,0.3,0,0.7,0,1.1C60,136.6,60.3,136.7,60.6,136.7z"/>
		<path style="fill:#171717;" d="M98.5,148.7c0,0.5,0.1,0.9,0.1,1.3c0,0.2-0.3,0.4-0.5,0.6c-0.1,0-0.4-0.2-0.5-0.3
			c-0.2-0.6-0.6-0.4-1-0.2c0.1,0.6,0.1,1.2,0.2,1.8c0,0.3,0.2,0.5,0.4,0.8c0.1,0.2,0.3,0.5,0.3,0.6c-0.1,0.2-0.4,0.4-0.6,0.4
			c-0.8,0-1.5,0.1-2.2-0.4c0-0.6,0.7-0.5,1-0.8c0-0.9,0-1.7,0-2.7c-0.4,0.1-0.9-0.3-1,0.4c-0.1,0.4-0.3,0.6-0.6,0.5
			c-0.2,0-0.4-0.3-0.4-0.5c0-0.3,0.1-0.6,0.3-0.7c0.4-0.2,0.9-0.4,1.4-0.5C96.2,148.8,97.3,148.8,98.5,148.7z"/>
		<path style="fill:#171717;" d="M69.2,141.6c0.3-0.2,0.6-0.5,0.9-0.5c1-0.1,2-0.2,3,0.4c0.5,0.3,0.7,0.7,0.4,1.1
			c-0.4,0.7-0.3,1.3-0.1,2c0.1,0.4,0.1,0.7-0.3,0.8s-0.6-0.2-0.7-0.6c-0.1-0.3-0.2-0.6-0.3-1c-0.3,0.1-0.6,0.2-1,0.4
			c0.2,0.4,0.3,0.8,0.5,1.1c-0.5,0.7-1.2,0.4-1.9,0.3c0.2-0.5,0.5-0.9,0.5-1.3c0.1-0.4,0-0.8-0.1-1.3C70,142.1,70,142.1,69.2,141.6z
			 M70.9,143.1c0.8,0.1,1.3-0.1,1.7-0.8c-0.4-0.4-0.8-0.8-1.6-0.5C71,142.2,70.9,142.6,70.9,143.1z"/>
		<path style="fill:#191919;" d="M74.3,134.9c0.2,0.7,0.5,1.4,0.8,2.3c-0.5,0.1-1,0.2-1.1-0.1c-0.2-1.6-0.4-1.8-1.3-1.8
			c-0.3,1.2,0.5,0.9,0.3,1.7c-0.7,0-1.4,0-2.1,0c0.1-0.5,0.1-0.5,0.7-0.7c0.1-1.1,0.2-2.2-0.6-3.2c1.1-0.7,2.8-0.6,3.6,0.4
			C75,133.9,74.9,134.2,74.3,134.9z M72.4,134.2c0.6,0.2,1,0.3,1.5-0.2c-0.4-0.3-0.8-0.5-1.3-0.8C72.5,133.6,72.5,133.9,72.4,134.2z
			"/>
		<path style="fill:#1B1B1B;" d="M87.7,142.7c-0.1,0.2-0.1,0.4-0.2,0.4c-0.3,0.1-0.6,0.2-0.9,0.3c0,0.3,0,0.5,0,0.8
			c1.4,0.4,1.5,0.4,2.1-0.8c0.9,0,0.6,0.7,1,1.3c-0.4,0.2-0.8,0.5-1.2,0.5c-1.2,0.1-2.5,0.1-3.7,0.1c-0.1-0.7,0.7-0.4,0.8-0.8
			c-0.1-1,0.2-2.1-0.7-3.1c0.9-0.5,1.7-0.5,2.6-0.4c1,0.2,1,0.2,1.2,1.3c-0.2,0.1-0.5,0.2-0.7,0.3C87.9,142.5,87.8,142.6,87.7,142.7
			z M86.2,142.5c0.7-0.1,1-0.1,1.4-0.1c-0.2-0.5-0.4-1-1-0.8C86.5,141.7,86.4,142,86.2,142.5z"/>
		<path style="fill:#1B1B1B;" d="M95.1,141.7c0,0.3,0.1,0.6,0.1,0.8c0.4,0,0.8,0,1.3,0c0.1,0.5,0.4,1-0.2,1.4c-0.1,0,0,0.2,0,0.4
			c-0.1,0.2-0.2,0.6-0.3,0.6c-0.4,0.1-0.9,0.2-1.3,0.2c-0.2,0-0.5-0.1-0.8-0.3c0.8-1,0.6-2,0.4-3c-0.3-0.1-0.5-0.2-0.8-0.3
			c0-0.1,0-0.1,0-0.2c0.4-0.1,0.7-0.3,1.1-0.3c0.8-0.1,1.7-0.1,2.5,0c0.2,0,0.6,0.2,0.6,0.3c0,0.3-0.1,0.7-0.2,0.9
			c0,0.1-0.5,0.1-0.6,0C96.4,141.5,95.8,141.8,95.1,141.7z M96,144.1c-0.1-0.6-0.3-0.9-0.8-0.7c-0.1,0-0.1,0.3-0.1,0.4
			C95.3,143.9,95.6,144,96,144.1z"/>
		<path style="fill:#191919;" d="M68.1,149.8c1.6,0,2.1,0.6,2.1,2.2c0,0.3-0.1,0.6-0.1,0.9c-0.1,0.7-0.5,1.1-1.1,1.1
			c-0.5,0-1,0-1.5-0.1s-0.8-0.3-0.9-0.8c-0.1-0.4-0.2-0.9-0.3-1.3C66.1,150.4,66.8,149.8,68.1,149.8z M67.5,150.7
			c-0.5,0.8-0.1,1.5,0.1,2.2c0.1,0.2,0.6,0.3,0.9,0.3c0.2,0,0.4-0.3,0.5-0.5c0.4-1.2,0-1.8-1.2-2C67.8,150.7,67.7,150.7,67.5,150.7z
			"/>
		<path style="fill:#141414;" d="M72.2,149.7c0.6-0.1,1.3-0.2,2.2-0.4c-0.2,0.4-0.3,0.6-0.4,0.7c0.3,0.7,0.7,1.3,1,2
			c0.4-0.7,1-1.2,0.3-2c1.3-0.6,1.3-0.6,1.9-0.1c-0.8,1.1-1.3,2.2-1.5,3.5c0,0.3-0.5,0.5-0.8,0.7c-0.1,0-0.5-0.3-0.6-0.5
			c-0.2-0.4-0.3-0.9-0.5-1.3c-0.4-0.9-0.7-1.9-1.8-2.3C72.1,149.9,72.1,149.8,72.2,149.7z"/>
		<path style="fill:#1B1B1B;" d="M64.4,145.2c0.2-0.4,0.4-0.6,0.5-0.9c-0.4-0.5-1.3,0.2-1.5-0.6c0.5-0.4,1.5-0.6,2-0.3
			c0.1,0.1,0.2,0.2,0.3,0.3c0.2,0.6,0,1.1-0.4,1.6c-0.3,0.4-0.8,0.7-1.3,0.5c-2.1-0.6-2.6-2.1-1.7-3.8c0.4-0.8,1.9-1.3,2.7-1
			c0.1,0,0.2,0.1,0.3,0.2c0.1,0.1,0.2,0.4,0.2,0.5c-0.1,0.1-0.4,0.3-0.5,0.2c-0.7-0.3-1.3-0.3-1.8,0.3s-0.4,1.3-0.2,2
			S63.8,145,64.4,145.2z"/>
		<path style="fill:#191919;" d="M106.2,149c-0.3,0.2-0.5,0.4-0.8,0.5c-0.9,0.4-1.5,1-1.3,2.1c0,0.2,0,0.4,0,0.6
			c0.1,1.2-0.7,1.6-1.9,1c0.2-0.5,0.9-0.7,0.7-1.4c-0.1-0.4-0.1-0.7-0.5-1c-0.7-0.5-1.5-1.1-2.2-1.6c0.8-0.6,0.9-0.6,1.8,0.1
			c0.4,0.3,0.8,0.5,1.2,0.7c0.2-0.2,0.5-0.4,0.7-0.6C104.7,148.6,104.9,148.6,106.2,149z"/>
		<path style="fill:#191919;" d="M62,153.8c-0.9,0.5-1.1,0.5-2.3,0.1c0.5-0.9,0.4-1.9,0.6-2.8c0.1-0.7,0-1.2-1-1.4
			c0.9-0.7,1.8-0.7,2.7-0.5c0.8,0.2,1,0.9,1.2,1.5c0.1,0.2-0.2,0.6-0.5,0.8c-0.4,0.3-1,0.4-1.5,0.7C61.1,152.9,61.6,153.3,62,153.8z
			 M61,150.1c0.1,0.5,0.2,0.8,0.2,1.2c0.4-0.2,0.7-0.3,0.9-0.4C61.8,150.2,61.8,150.2,61,150.1z"/>
		<path style="fill:#171717;" d="M87.1,161c0.3-0.5,0.6-0.7,1.1-0.3c0.1,0.1,0.2,0.2,0.3,0.2c0.3,0,0.6,0.1,0.8,0
			c0.4-0.2,0.2-0.6,0-0.9c-0.2-0.3-0.6-0.5-0.9-0.7s-0.7-0.4-1-0.6c0.6-1.5,1.7-1.9,3-1c-0.3,0.9-1.1,0.2-1.7,0.6
			c0.3,0.2,0.6,0.4,0.9,0.6c1,0.7,1.3,1.7,0.7,2.4c-0.7,0.8-2,0.9-2.8,0.1C87.3,161.3,87.2,161.2,87.1,161z"/>
		<path style="fill:#191919;" d="M104.2,133.8c0,0.3-0.1,0.6-0.1,0.9c-0.3,1.7-1.4,1.7-2.5,1.3c-0.2-0.1-0.4-0.2-0.5-0.4
			c-0.5-0.8-0.5-1.7-0.2-2.6c0.2-0.6,1.4-1,2.1-0.9C103.8,132.4,104.1,132.8,104.2,133.8z M103.3,133.3c-0.5-0.2-0.7-0.3-1-0.3
			c-0.2,0-0.5,0.1-0.6,0.2c-0.1,0.5-0.2,1.1-0.1,1.6s0.5,0.8,1.3,0.7C103,134.8,103.2,134.1,103.3,133.3z"/>
		<path style="fill:#1B1B1B;" d="M64.8,133.5c-0.4-0.1-0.7-0.2-1-0.4c0.1-0.2,0.2-0.3,0.2-0.3c0.9,0,1.8,0,2.7,0.1
			c0.3,0,0.6,0.3,0.7,0.5c0.2,0.3,0.5,0.8,0.4,1.1c-0.1,0.4-0.6,0.6-1,0.8c-0.3,0.2-0.7,0.1-1.1,0.1c0,1.7,0,1.7-1,1.6
			C64.8,135.9,64.8,134.7,64.8,133.5z M65.7,134.5c0.4,0,0.8,0,1.2,0c-0.1-0.8-0.6-1.2-1.1-0.9C65.8,133.9,65.8,134.2,65.7,134.5z"
			/>
		<path style="fill:#171717;" d="M93.3,132.6c-0.3,0.7-1,0-1.5,0.5c0.3,0.3,0.6,0.7,1,1c0.6,0.6,0.8,1.1,0.3,1.7
			c-0.6,0.8-1.2,0.9-2,0.5c-0.3-0.2-0.6-0.5-0.9-0.7c0.7-0.9,1.3,0.1,2,0c-0.1-0.2,0-0.5-0.2-0.7c-0.3-0.4-0.7-0.7-1.1-1.1
			c-0.5-0.6-0.4-1.1,0.3-1.5C92.1,131.8,92.8,131.9,93.3,132.6z"/>
		<path style="fill:#1D1D1D;" d="M98.2,131.9c-0.9,1.3-0.4,2.5-0.2,3.8c0.2,0.8,0,1-0.8,0.8c-0.3-0.1-0.6-0.1-1.1-0.3
			c0.7-0.6,0.9-1.2,0.7-2c-0.1-0.7,0.2-1.5-0.7-1.8C96.6,131.3,97.4,131.9,98.2,131.9z"/>
		<path style="fill:#1B1B1B;" d="M77.7,141.7c0.9-0.6,1.6-0.5,2.3-0.4c0.6,0.7-0.4,0.8-0.4,1.3s0.1,1,0.1,1.6c0.2,0,0.4,0,0.6,0.1
			s0.3,0.4,0.3,0.6c0,0.1-0.3,0.4-0.4,0.4c-0.5,0-1,0-1.5-0.1c0.1-1,0.1-2,0.1-2.9C78.4,142.1,78.1,141.9,77.7,141.7z"/>
		<path style="fill:#1D1D1D;" d="M86,133.4c0.3,0.3,0.5,0.5,0.7,0.8s0.4,0.6,0.6,1c0.2,0.5-0.1,1-0.6,1c-0.6,0-1.2-0.2-1.8-0.3
			c-0.1,0-0.2-0.3-0.3-0.5c0.2-0.1,0.4-0.2,0.7-0.3c0.2,0,0.3,0.2,0.5,0.2c0.2,0.1,0.4,0.1,0.7,0c-0.3-0.3-0.6-0.6-0.9-0.9
			c-0.3-0.3-0.9-0.6-0.6-1.2c0.3-0.6,0.9-0.7,1.5-0.7c0.1,0,0.3,0.1,0.6,0.2C86.7,133,86.4,133.2,86,133.4z"/>
		<path style="fill:#1D1D1D;" d="M59.6,143.6c-0.3,0.1-0.6,0.3-0.8,0.3c-1.1,0.1-2.2,0.2-3.3,0.3c-0.3,0-0.6,0-0.7-0.4
			c-0.1-0.5,0.3-0.6,0.6-0.7c0.5,0,1,0,1.5,0c0.6,0,1.2,0,1.7-0.2C59.1,142.9,59.3,143.1,59.6,143.6z"/>
		<path style="fill:#1D1D1D;" d="M101.7,142.1c1,0.1,1.8,0,2.7,0.2c0.7,0.1,1.3,0.2,2,0c0.2-0.1,0.7,0.2,0.7,0.3
			c0.1,0.3-0.2,0.5-0.6,0.5c-1,0-2,0.1-3.1,0.1C102.8,143.1,102.1,143.2,101.7,142.1z"/>
		<path style="fill:#D1D1D1;" d="M87.7,142.7c0.1-0.1,0.2-0.2,0.2-0.3C87.9,142.5,87.8,142.6,87.7,142.7z"/>
		<path style="fill:#FEFAD6;" d="M89.6,94.7C89.6,94.7,89.5,94.6,89.6,94.7C89.5,94.6,89.6,94.7,89.6,94.7L89.6,94.7z"/>
		<path style="fill:#171717;" d="M71.7,30.9c1.2,0.8,2.2,0.1,3.2-0.2c0.4,0.4,0.3,0.8,0,1c-0.8,0.7-1.7,0.9-2.8,0.4
			C71.6,31.9,71.6,31.9,71.7,30.9z"/>
		<path style="fill:#1D1D1D;" d="M72.7,27.5c0.5,0.8-0.1,1.3,0,1.7c0.1,0.3,0.3,0.7,0.2,0.8c-0.5,0.6-0.9,0-1.4-0.1
			C71.7,29,72,28.2,72.7,27.5z"/>
		<path style="fill:#171717;" d="M75.2,26.4c0.1,1.1-0.2,1.5-0.9,1.5c-0.2,0-0.6-0.3-0.6-0.5s0.1-0.6,0.3-0.7
			C74.3,26.5,74.8,26.5,75.2,26.4z"/>
		<path style="fill:#1D1D1D;" d="M71,26.2c0.5,0.1,1.1,0.1,1,0.9c-0.1,0.4-0.5,0.7-0.8,0.6C70.7,27.5,70.6,27.1,71,26.2z"/>
		<path style="fill:#141414;" d="M73.4,51.7c-2.3,0.2-4.5-0.2-6.9-0.2c0.4-0.6,0.9-0.8,1.5-0.8c1.2,0.1,2.4,0.2,3.6,0.3
			c0.3,0,0.7-0.1,1,0c0.3,0,0.5,0.2,0.8,0.2C73.4,51.4,73.4,51.5,73.4,51.7z"/>
		<path style="fill:#1D1D1D;" d="M76.7,51.6c0.7-0.3,1.4-0.3,2.1-0.4c0.4,0,0.8-0.1,1.2-0.3c0.9-0.5,0.9-0.6,1.3,0.5
			C80.4,52,77.8,52.1,76.7,51.6z"/>
		<path style="fill:#46372D;" d="M73.4,51.7c0-0.1,0-0.3,0-0.4c1,0,1.9-0.1,3-0.2c-0.2,0.2-0.3,0.5-0.4,0.5
			C75.2,51.6,74.3,51.7,73.4,51.7z"/>
		<path style="fill:#46372D;" d="M77.2,47.5c-0.5-0.1-1-0.2-1.6-0.2C76.4,46.8,76.6,46.9,77.2,47.5z"/>
		<path style="fill:#1D1D1D;" d="M74.8,46.9c-0.3,0.6-0.6,0.3-1.1,0C74.2,46.9,74.5,46.9,74.8,46.9z"/>
		<g>
			<path style="fill:#FFFFFF;" d="M88.2,151.2c0-0.4,0-0.7,0-1c0.7-0.1,1.3-0.1,1.8,0.4C89.6,151.3,88.9,151.2,88.2,151.2z"/>
		</g>
		<g>
			<path style="fill:#FFFFFF;" d="M74.5,161.7c0-0.4,0-0.8,0-1.1c1-0.4,1.2-0.3,1.8,0.5C75.9,161.6,75.3,161.6,74.5,161.7z"/>
		</g>
		<g>
			<path style="fill:#FFFFFF;" d="M74.4,159.2c0.1-0.3,0.1-0.6,0.2-0.9c0.6,0.2,1.1,0.3,1.7,0.5C75.6,159.5,75.1,159.3,74.4,159.2z"
				/>
		</g>
		<g>
			<path style="fill:#FFFFFF;" d="M68.7,160c-0.5,0-0.8-0.1-1.3-0.1c0.2-0.5,0.4-0.9,0.6-1.4C68.5,158.9,68.4,159.5,68.7,160z"/>
		</g>
		<g>
			<path style="fill:#FFFFFF;" d="M52.9,133.7c1.2,0.1,1.7,0.7,1.6,1.7c-0.1,0.7-0.4,0.9-1.6,0.9C52.9,135.5,52.9,134.6,52.9,133.7z
				"/>
		</g>
		<g>
			<path style="fill:#FFFFFF;" d="M70.9,143.1c0.1-0.5,0.1-0.9,0.1-1.3c0.7-0.3,1.1,0.1,1.6,0.5C72.2,143,71.7,143.2,70.9,143.1z"/>
		</g>
		<g>
			<path style="fill:#FFFFFF;" d="M72.4,134.2c0.1-0.4,0.1-0.6,0.2-1c0.5,0.3,0.9,0.5,1.3,0.8C73.4,134.5,73,134.4,72.4,134.2z"/>
		</g>
		<g>
			<path style="fill:#FFFFFF;" d="M86.2,142.5c0.2-0.4,0.3-0.8,0.4-0.9c0.6-0.2,0.8,0.2,1,0.8C87.2,142.4,86.9,142.4,86.2,142.5z"/>
		</g>
		<g>
			<path style="fill:#FFFFFF;" d="M96,144.1c-0.4-0.2-0.6-0.2-0.9-0.4c0,0,0-0.3,0.1-0.4C95.7,143.3,95.9,143.5,96,144.1z"/>
		</g>
		<g>
			<path style="fill:#FFFFFF;" d="M67.5,150.7c0.2,0,0.3,0,0.3,0c1.2,0.2,1.6,0.8,1.2,2c-0.1,0.2-0.3,0.5-0.5,0.5
				c-0.3,0-0.9-0.1-0.9-0.3C67.5,152.3,67,151.5,67.5,150.7z"/>
		</g>
		<g>
			<path style="fill:#FFFFFF;" d="M61,150.1c0.9,0.1,0.9,0.1,1.2,0.9c-0.3,0.1-0.5,0.2-0.9,0.4C61.1,150.9,61.1,150.6,61,150.1z"/>
		</g>
		<g>
			<path style="fill:#FFFFFF;" d="M103.3,133.3c-0.1,0.8-0.3,1.5-0.4,2.1c-0.8,0.2-1.2-0.2-1.3-0.7c-0.1-0.5,0-1,0.1-1.6
				c0-0.1,0.4-0.3,0.6-0.2C102.6,133,102.8,133.2,103.3,133.3z"/>
		</g>
		<g>
			<path style="fill:#FFFFFF;" d="M65.7,134.5c0-0.4,0.1-0.6,0.1-0.9c0.5-0.3,1,0.1,1.1,0.9C66.5,134.5,66.2,134.5,65.7,134.5z"/>
		</g>
		<path style="fill:#050505;" d="M113,41c1.1,0.1,1.9,0.2,2.8,0.3c1.3,0.1,2.6,0.2,3.9,0.3c0.6,0,1.2,0.1,1.8,0.1
			c1.7,0.1,3.3,0.3,5,0.3c1.4,0,2.9-0.1,4.3-0.2c1,0,2-0.1,3.1-0.1c0.3,0,0.6,0.2,0.9,0.2c0.6,0.1,1.3,0.3,2-0.2c0-1.2,0-2.4,0-3.6
			c0-0.6-0.3-0.9-0.8-0.9c-0.9-0.2-1.8-0.4-2.7-0.4c-2.3,0-4.6,0.2-6.9,0.3c-0.8,0-1.5-0.1-2.3-0.1c-1.3-0.1-2.7-0.2-4-0.4
			c-1.9-0.2-3.8-0.4-5.7-0.7c-1.1-0.1-1.5,0.2-1.5,1.3C113,38.5,113,39.6,113,41z"/>
	</g>
</g>
</svg>
