<?xml version="1.0" encoding="utf-8"?>
<!-- Generator: Adobe Illustrator 24.0.0, SVG Export Plug-In . SVG Version: 6.00 Build 0)  -->
<svg version="1.1" id="Layer_1" xmlns="http://www.w3.org/2000/svg" xmlns:xlink="http://www.w3.org/1999/xlink" x="0px" y="0px"
	 viewBox="0 0 358 210" style="enable-background:new 0 0 358 210;" xml:space="preserve">
<style type="text/css">
	.st0{fill:#FFFFFF;}
	.st1{fill:#D9EFF8;}
	.st2{fill:#FEFAD6;}
	.st3{fill:#0C0C0C;}
	.st4{fill:#050505;}
	.st5{fill:#060606;}
	.st6{fill:#0F1011;}
	.st7{fill:#111313;}
	.st8{fill:#101112;}
	.st9{fill:#141414;}
	.st10{fill:#46372D;}
	.st11{fill:#FDFDFD;}
	.st12{fill:#E0D2B5;}
	.st13{fill:#0F0F0E;}
	.st14{fill:#F1F6F0;}
	.st15{fill:#EDEDED;}
	.st16{fill:#C0CBE0;}
	.st17{fill:#EEBB9A;}
	.st18{fill:#E6F3F8;}
	.st19{fill:#F7F7F7;}
	.st20{fill:#F6F3D6;}
	.st21{fill:#DBCDB1;}
	.st22{fill:#D1D1D1;}
	.st23{fill:#D7EDF5;}
	.st24{fill:#D8EEF6;}
	.st25{fill:#171717;}
	.st26{fill:#1D1D1D;}
	.st27{fill:#1B1B1B;}
	.st28{fill:#191919;}
</style>
<path class="st0" d="M49.4,182.3c1.3-1.9,3.1-3.1,4.8-4.4c1-0.8,1.9-1.7,2.5-2.8c0.6-1.1,1.2-2.3,1.8-3.3c0.6-0.9,1.3-1.6,1.9-2.4
	c0.7-0.8,1.5-1.6,2.2-2.4c0.4-0.5,0.8-0.8,1.4-1c0.5-0.1,1-0.3,1.5-0.6c1.3-0.6,2.5-1.1,4-1.3c1.7-0.2,3.3-0.1,5,0.3
	c0.4,0.1,0.9,0.3,1.2,0.5c1.6,1.2,3.3,2.1,4.8,3.4c0.7,0.7,1.5,1.3,2.1,2.1c0.1,0.2,0.3,0.3,0.5,0.5c0.7,0.7,1.6,1.1,2.4,1.5
	c2.1,1,3.7,2.8,5.5,4.4c2.3,1.9,4.4,4,6.6,6"/>
<g id="panell_11_pic">
	<g>
		<path class="st1" d="M118.5,180.9c0.8,0,1.6-0.2,2.5-0.3c2.1,0,4.1,0.5,6.1,0.3c1.4-0.1,2.9,0.1,4.3,0.1c3.1-0.1,6.3,0.4,9.4-0.2
			c0.1,0,0.2,0.1,0.2,0.1c1.9,0.1,3.9,0.3,5.8,0.1c2.7-0.2,5.4-0.1,8.1,0.1c3.1,0.2,6.2,0.2,9.3,0.2c2.1,0,4.1-0.2,6.2-0.3
			c2.2-0.1,4.4-0.3,6.5-0.4c0.7-0.1,1.4-0.3,2.1-0.3c1.3,0,2.6,0.1,3.9,0.1c0.7,0,1.5,0,2.2,0.1c2.1,0.3,4.1-0.1,6.2,0
			c3,0.2,6.1,0,9.1,0c0.9,0,1.8,0.1,2.8,0c1.7-0.1,3.4-0.2,5.1,0.1c0.2,0,0.4,0,0.6,0c1.1,0,2.3,0,3.4-0.1c0.7,0,1.3-0.2,2-0.2
			c1.5,0,3,0.2,4.5,0.2c2.3,0,4.6-0.2,6.9-0.3c0.9,0,1.7-0.1,2.6-0.2c1.1,0,2.3-0.1,3.4-0.1c0.2,0,0.5,0,0.7,0
			c1.5,0.1,2.9,0.2,4.4,0.2c2-0.1,4-0.4,6-0.2c0.7,0.1,1.4-0.1,2.1-0.1c1.2,0.1,2.4,0.3,3.7,0.4c2.3,0.1,4.5,0.1,6.8,0.1
			c2.1,0,4.2-0.2,6.3-0.3c2.3-0.1,4.6-0.3,6.9-0.5c0.2,0,0.5-0.1,0.7-0.1c1.1-0.2,2.2-0.6,3.3,0.1c0.2,0.1,0.4,0.1,0.6,0.1
			c1.6-0.1,3.2-0.1,4.8,0c0.7,0.1,1.3-0.1,2-0.2c0.3,0,0.6,0,0.9,0c0.6,0,1.2,0.1,1.8,0.1c2.9,0,5.8,0,8.7,0c1.3,0,2.7-0.1,4-0.2
			c1,0,1.9-0.2,2.9,0c1.5,0.4,3,0.1,4.5,0.1c0.9,0,1.8-0.2,2.7-0.1c2.1,0.2,4.3,0.2,6.4,0c0.9-0.1,1.7-0.2,2.6-0.1
			c3.7,0.2,7.4,0.4,11.1,0.5c0.6,0,1.3-0.1,1.9-0.1c2,0,4,0,6-0.1c1.9-0.1,3.7-0.2,5.6-0.3c0.5,0,1.1-0.3,1.6-0.3
			c2.4,0.2,4.9,0.5,7.3,0.5c0.3,0,0.6,0.1,1,0c2.2-0.1,4.3-0.3,6.5-0.4c0.6,2.2-0.5,4.3-2.8,4.9c-2.1,0.5-3.4,1.9-4.6,3.5
			c-0.8,1.2-1.4,2.5-2.7,3.2c-0.2,0-0.6,0.1-0.7-0.1c-0.6-0.7-1.2-0.3-1.8,0.1c-1.1,0.7-2.2,0.7-3.3,0.2c-0.4-0.2-0.8-0.4-0.9-0.4
			c-1.1,0.4-1.9,1-2.8,1.1s-1.9-0.4-2.8-0.6c0,0.2-0.1,0.3,0,0.4c0.3,1.2,1.7,2,3,1.6c0.7-0.2,1.4-0.5,2.1-0.9
			c0.4-0.2,0.8-0.3,1.2-0.1c1.2,0.7,2.5,0.6,3.8,0.1c0.4-0.1,0.8-0.1,1.1-0.2c-1.5,1.3-3.2,2-5.1,2.5c-1.6,0.5-3.3,0.8-5,1.1
			c-0.2,0-0.4,0.1-0.6,0.1c-1.9,0.1-3.9,0.2-5.8,0.2c-3.5,0-7,0-10.4,0c-4.1,0-8.2,0-12.3,0.3c-3.9,0.3-7.7,0.1-11.6,0.2
			c-7.8,0.1-15.6,0.2-23.3,0.3c-0.8,0-1.6,0.2-2.5,0.2c-1,0-2,0-3.1,0c-1.2,0-2.3,0-3.5,0c-1.1,0-2.1,0-3.2,0c-1.2,0-2.4,0-3.6,0
			c-1,0-2.1,0-3.1,0c-2.7,0-5.4-0.1-8.1,0.1c-2.8,0.2-5.5,0.1-8.3,0.2c-3.3,0.1-6.6,0-9.8,0c-1.4,0-2.9,0.1-4.3,0.1
			c-2.1,0-4.3-0.1-6.4-0.1c-0.3,0-0.6,0-0.8,0c-2.6,0-5.1-0.1-7.7,0c-7.3,0.4-14.6,0.1-21.9,0.2c-2.6,0.1-5.2,0.2-7.7,0.5
			c-1.3,0.1-2.5,0.5-3.8,0.5c-0.5,0-1,0.3-1.5,0.4c-1.2,0.3-2.5,0.5-3.7,0.8c-1,0.2-2,0.4-3,0.8c-1.6,0.7-3.3,0.7-5,1.2
			c-1.1,0.3-2.3,0.3-3.4,0.3c-3,0-6,0-9,0c-1.3,0-2.7-0.4-4-0.2c-1.7,0.3-3.2-0.5-4.8-0.3c-0.3,0-0.6-0.1-0.9-0.2
			c-1.2-0.3-2.5-0.4-3.7-0.3c-0.5,0.1-1.1-0.2-1.6-0.2c-1.4,0.1-2.7-0.2-4.1-0.1c-1.2,0.1-2.4-0.2-3.6-0.2c-1.5,0-3.1,0-4.6,0
			c-1.3,0-2.5,0-3.8,0.1c-2,0-3.9,0.3-5.7,1.1c-1.8,0.7-3.7,1.2-5.6,1.8c-1.6,0.5-3.2,0.9-4.7,1.6c-1.8,0.9-3.7,1.1-5.6,1.5
			s-3.8,0.7-5.8,0.9c-1.9,0.1-3.7,0-5.6,0c-0.4,0-0.8-0.1-1.2-0.1c-2-0.2-4-0.3-6.1-0.5c-0.6-0.1-1.2-0.4-1.8-0.7
			c-2.5-1-5-2.1-7.5-3.1c-0.3-0.1-0.7-0.2-1-0.2c-2.1,0-4.3-0.2-6.4,0c-3,0.3-5.9,0.1-8.9,0.2c-1,0-1.8-0.3-2.6-1
			c-1.1-0.9-2.3-1.7-3.8-1.7s-3-0.2-4.6,0c-1.2,0.1-2.3-0.1-3.5-0.1c-0.2,0-0.5,0-0.7,0s-0.3,0.1-0.5,0.1c-1.2-0.1-2.4-0.1-3.5,0
			c-0.5,0-1,0-1.5,0c-1.3,0.1-2.6,0-3.9-0.1c-0.1,0-0.3-0.1-0.3-0.1c-1.3,0.5-2.5-0.2-3.8,0c-1.8,0.2-3.1-0.7-4.1-2
			c-0.5-0.7-1-0.9-1.8-0.9c-2.4,0.1-4.9,0.1-7.3,0.3c-2.2,0.1-4.8-1.6-5.1-4.5c-0.1-0.7,0.2-1.5,0.3-2.2c0.1-0.4,0.3-0.7,0.4-1.1
			c1.1,0.3,2.2,0,3.3-0.3c0.4-0.1,0.8,0,1.2,0.1c1.5,0.5,3,1.1,4.6,0.2c0.1-0.1,0.3,0,0.5,0c1,0.1,2,0.2,3,0.2s2.1-0.4,3,0.5
			c0.2,0.2,0.8,0.1,1.1-0.1c0.4-0.1,0.7-0.4,1.1-0.7c-0.4-1-1.1-0.8-1.8-0.7c-0.3-0.3-0.7-0.6-1-0.9c-0.4,0.1-0.8,0.3-1.2,0.4
			c-0.9,0.1-1.9,0.2-2.8,0.3c-0.2,0-0.5-0.1-0.6-0.3c-0.8-0.9-1.1-1-1.7-0.2s-1.3,0.8-2.1,0.7c-0.5-0.1-0.9-0.2-1.1-0.2
			c-0.5-0.5-0.8-0.9-1.1-1.1c-0.2-0.1-0.8,0-0.8,0.1c-0.4,0.9-1.1,0.7-1.8,0.7c0.1-0.8,0.2-1.6,0.3-2.3c0-0.2,0.2-0.5,0.1-0.7
			c-0.4-1.2,0.2-2,1.1-2.6c0.2-0.1,0.2-0.3,0.4-0.5c1,0,2-0.1,3.1-0.1c0.8,0,1.6-0.2,2.4-0.2c2,0,4,0.2,5.9,0.1
			c2.7-0.2,5.3-0.1,8,0.1c3,0.2,6.1,0.3,9.2,0.2c3.1,0,6.2-0.3,9.3-0.5c0.6,0,1.1,0,1.7-0.1c1.5-0.2,3-0.4,4.5-0.7
			c1.1-0.2,7.9-0.3,8.5,0.5L118.5,180.9z M255.9,185.2c-0.2-0.2-0.5-0.6-1.1-0.3c0.4,0.3,0.7,0.6,1,0.8c0.8,1.1,1.7,1.4,2.7,0.8
			c1.2-0.7,2.3-0.7,3.5-0.2c1,0.4,2,0.7,3,0.3c0.5-0.2,1.1-0.1,1.6,0.2c1.4,0.8,2.8,0.6,4.2-0.2c0.4-0.2,0.7-0.3,1,0
			c0.8,0.5,1.7,0.3,2.6,0.2c0.4,0,0.7-0.4,1.1-0.7c-0.2-0.4-0.4-0.6-0.6-0.9c-0.3,0.1-0.6,0.2-0.9,0.2c-0.7,0.2-1.3,0.1-1.9-0.3
			c-1-0.7-1-0.7-1.9,0.2c-0.8,0.9-2.6,1-3.5,0.1c-0.4-0.4-0.8-0.6-1.3-0.2c-0.1,0.1-0.4,0.1-0.5,0.2c-1.2,0.4-2.3,0-3.3-0.5
			c-0.5-0.2-1-0.4-1.3-0.1c-0.7,0.7-1.7,0.5-2.5,1c-0.2,0.1-0.5,0-0.8-0.1C256.6,185.4,256.2,185.3,255.9,185.2z M166.9,185.2
			c-0.3-0.2-0.6-0.4-0.8-0.6c0,0.1-0.1,0.1-0.1,0.2c0.2,0.2,0.5,0.4,0.7,0.6c0.1,0.1,0.2,0.2,0.3,0.3c1.2,1.3,1.6,1.3,3.2,0.6
			c0.6-0.3,1.3-0.5,1.9-0.4c0.4,0.1,0.8,0.2,1.1,0.4c1,0.4,2,0.7,3.1,0.2c0.5-0.2,1-0.1,1.5,0.2c1.3,0.8,2.7,0.6,4-0.1
			c0.5-0.3,0.8-0.3,1.4-0.1c1.2,0.4,2.4,0.4,3.5-0.6c-0.2-0.3-0.4-0.6-0.6-0.8c-0.2,0-0.4,0-0.5,0.1c-0.9,0.4-1.7,0.3-2.5-0.3
			c-0.6-0.5-1-0.5-1.5,0.3c-0.5,0.7-1.1,0.8-1.7,0.8c-0.7,0-1.4,0.1-1.9-0.7c-0.3-0.4-0.7-0.5-1.2-0.2c-0.1,0.1-0.3,0.1-0.5,0.2
			c-1.2,0.4-2.3,0-3.4-0.4c-0.4-0.1-1.1-0.3-1.2-0.2c-0.5,0.8-1.5,0.5-2.1,0.9c-0.5,0.3-1,0.2-1.5,0
			C167.5,185.3,167.2,185.3,166.9,185.2z M71.9,194.1c-0.2-0.8-0.7-1-1.4-1c-0.3,0-0.6,0-0.8,0c-0.8,0.1-1.5,0-2-0.7
			c-0.3-0.4-1.1-0.6-1.5-0.2c-0.9,0.8-1.7,0.6-2.6,0.2s-0.9-0.4-1.5,0.5c-0.1,0.2-0.4,0.5-0.6,0.5c-1.2,0.2-2.4,0.1-3.4-0.5
			c-0.8-0.5-1.4-0.3-1.9,0.2c-0.6,0.6-1.2,0.7-1.9,0.8c-0.6,0.1-1.2,0-1.5-0.6c-0.2-0.3-0.5-0.5-0.7-0.7c-0.9,0.3-1.5,0.7-2.3,0.9
			c-0.9,0.3-1.3-0.7-2-1c-0.6,0.9-0.6,1.2,0.1,1.9c0.9,0.8,2,0.7,3,0.4c0.5-0.1,0.9-0.2,1.4,0.1c1.4,0.6,2.7,0.8,4.1-0.1
			c0.6-0.4,1.2-0.5,1.9-0.2c0.5,0.2,1,0.4,1.5,0.4c0.8,0,1.7,0.1,2.3-0.2c0.7-0.4,1.4-0.5,2.2-0.4c0.5,0,1,0.2,1.4,0.1
			c0.8-0.3,1.5,0,2.3,0.1c0.5,0.1,1,0.1,1.5,0.1c0.4,0,0.9-0.1,1.3,0C71.3,194.9,71.6,194.6,71.9,194.1z M32.6,193.6
			c-0.3,0-0.4,0-0.4,0c-1.2,0.5-2.4,0.7-3.6-0.2c-0.3-0.2-0.7-0.2-1.1,0.1c-1,0.9-2.3,0.9-3.3,0c-0.7-0.6-0.9-0.6-1.7-0.1
			c-1.5,1.1-3,1.5-4.8,0.5c-0.3-0.2-0.7-0.3-1-0.4c0,0.1-0.1,0.2-0.1,0.3c0.5,0.9,1.2,1.7,2.4,1.8c1.1,0.1,2.2,0.1,3.1-0.6
			c0.6-0.4,1.1-0.5,1.7-0.1c0.2,0.1,0.5,0.2,0.8,0.3c0.8,0.4,1.7,0.5,2.6,0.1c0.8-0.4,1.5-0.3,2.3-0.2c0.7,0.1,1.5,0.1,2.2,0.1
			c0.4,0,0.8,0,1.1,0.3c0.5,0.4,1,0.4,1.6,0.3c0.4-0.1,0.8-0.2,0.7-0.6c-0.1-0.2-0.5-0.6-0.7-0.6C33.4,194.7,32.8,194.4,32.6,193.6z
			 M137.1,187.2c0,0.7,0.1,1,0.6,1.2c1.4,0.7,2.8,0.9,4.4,0.5c0.3-0.1,0.6-0.2,0.9-0.1c1.3,0.5,2.7,0.4,4,0.2
			c0.7-0.1,1.3-0.2,1.9,0.2c0.4,0.3,1,0.2,1.5,0.3c1.4,0.3,2.9,0,4.3-0.2c0.3,0,0.5-0.2,0.7-0.3c-0.2-1-0.2-1-1.2-1.4
			c-0.7,1-1.8,0.8-2.8,0.9c-0.8,0-1.6,0-2.1-0.9c-0.2-0.3-0.8-0.5-1-0.4c-1.1,0.7-2.2,0.5-3.3,0.5c-0.4,0-0.8-0.2-1.3-0.3
			c-0.5-0.2-1-0.4-1.6-0.6c-0.2,0.9-0.7,0.9-1.3,0.9c-0.9,0-1.8,0-2.7-0.4C137.9,187.3,137.6,187.3,137.1,187.2z M226.1,187.2
			c0,0.6,0,1,0.5,1.2c1.4,0.7,2.9,1,4.5,0.5c0.3-0.1,0.6-0.2,0.9-0.1c1.1,0.4,2.3,0.4,3.4,0.2c0.9-0.1,1.8-0.1,2.8,0.2
			c1.9,0.7,3.9,0.4,5.9-0.1c0.1,0,0.2-0.2,0.5-0.4c-0.3-0.4-0.5-0.7-0.8-1c-0.2-0.1-0.6-0.1-0.7,0c-0.8,0.9-1.9,0.6-2.9,0.7
			c-0.7,0-1.3-0.1-1.8-0.8c-0.2-0.3-0.9-0.5-1.1-0.3c-1.2,0.6-2.5,0.4-3.7,0.5c-0.3,0-0.5-0.2-0.8-0.2c-0.5-0.2-1-0.4-1.6-0.6
			c-0.2,0.9-0.8,0.9-1.4,1c-0.9,0-1.7-0.1-2.6-0.4C226.8,187.3,226.4,187.3,226.1,187.2z M123.9,190c0,0,0.2-0.2,0.3-0.3
			c0.4-0.4,0.3-0.7,0-1.1c-0.2-0.3-0.5-0.5-1-0.3c-1.3,0.5-2.6,0.2-3.8-0.2c-0.7-0.3-1.3-0.7-1.8,0.3c0,0.1-0.2,0.1-0.3,0.2
			c-1.4,0.3-2.7,0.4-3.9-0.7c-0.1-0.1-0.3-0.2-0.4-0.3c-0.5-0.3-1-0.5-1.2,0.3c-0.1,0.2-0.3,0.3-0.4,0.4c-1.1,0.4-2.3,0.6-3.5,0.1
			c-0.3-0.2-0.8-0.1-1.3-0.1c0,0.9,0.4,1.3,1.1,1.5c0.8,0.3,1.6,0.4,2.6,0c1.4-0.6,2.8-0.9,4.3,0.1c0.7,0.4,1.5,0.4,2.3,0.1
			c1.2-0.4,2.4-0.7,3.6-0.1c0.3,0.1,0.6,0,0.9,0.1C122.2,189.9,122.9,189.9,123.9,190z M317,185.5c0,0.6,0,1,0.5,1.2
			c1.4,0.7,2.9,1,4.5,0.5c0.3-0.1,0.6-0.2,0.9-0.1c1.1,0.4,2.3,0.4,3.4,0.2c0.9-0.1,1.8-0.1,2.8,0.2c1.9,0.7,3.9,0.4,5.9-0.1
			c0.1,0,0.2-0.2,0.5-0.4c-0.3-0.4-0.5-0.7-0.8-1c-0.2-0.1-0.6-0.1-0.7,0c-0.8,0.9-1.9,0.6-2.9,0.7c-0.7,0-1.3-0.1-1.8-0.8
			c-0.2-0.3-0.9-0.5-1.1-0.3c-0.9,0.6-1.9,0.4-2.8,0.5c-0.7,0.1-1.4,0-2.1-0.5c-0.3-0.2-0.8-0.2-1.3-0.4c-0.2,0.8-0.8,0.9-1.4,0.9
			c-0.9,0-1.7-0.1-2.6-0.4C317.7,185.6,317.4,185.6,317,185.5z M303.7,188.3c0,0,0.1-0.1,0.2-0.2c0.4-0.3,0.5-0.7,0.2-1.2
			c-0.3-0.4-0.6-0.5-1.2-0.3c-1.1,0.4-2.3,0.2-3.4-0.2c-0.8-0.3-1.6-1-2.2,0.3h-0.1c-1.2,0.2-2.5,0.6-3.6-0.4
			c-0.2-0.2-0.4-0.4-0.7-0.5c-0.7-0.4-0.8-0.4-1.3,0.3c-0.1,0.1-0.3,0.3-0.4,0.3c-1.1,0.3-2.3,0.6-3.5,0c-0.3-0.2-0.8-0.1-1.2-0.1
			c0.1,1,0.5,1.4,1.2,1.6c0.8,0.2,1.5,0.3,2.3,0c1.4-0.5,2.8-0.9,4.3,0c0.7,0.5,1.7,0.4,2.5,0.1c1.1-0.4,2.2-0.6,3.4-0.1
			c0.3,0.1,0.6,0.1,0.9,0.1C302,188.2,302.8,188.3,303.7,188.3z M212.9,190c0,0,0.1-0.2,0.2-0.4c0.3-0.3,0.2-0.7,0-1
			c-0.2-0.2-0.7-0.5-0.9-0.4c-1.6,0.6-3,0.2-4.5-0.4c-0.4-0.2-0.8-0.2-1,0.2c-0.2,0.4-0.5,0.4-0.9,0.6c-1.4,0.4-2.5,0.1-3.5-0.8
			c-0.1-0.1-0.3-0.2-0.4-0.3c-0.5-0.3-0.9-0.4-1.2,0.3c-0.1,0.2-0.2,0.4-0.4,0.4c-1.1,0.4-2.3,0.6-3.5,0.1c-0.4-0.2-0.9-0.3-1.3,0
			c0.1,0.8,0.5,1.2,1.3,1.4c0.8,0.2,1.5,0.3,2.3,0c1.4-0.6,2.8-0.9,4.3,0c0.7,0.5,1.6,0.4,2.4,0.1c1.1-0.4,2.3-0.7,3.5-0.1
			c0.2,0.1,0.5,0.1,0.7,0.1C210.9,189.9,211.8,189.9,212.9,190z M96.4,194.1c-0.1,1.1,0,1.3,0.8,1.6c1,0.4,2.1,0.5,3.2,0.3
			c0.8-0.2,1.5-0.1,2.3,0.1s1.8,0.4,2.6-0.2c0.2-0.1,0.5,0,0.8,0c1.7,0.7,3.4,0.2,5-0.4c0.3-0.1,0.5-0.4,0.8-0.6
			c-0.5-0.4-0.8-0.7-1.1-0.9c-1.7,0.6-3.2,1-4.8,0c-0.5-0.3-1-0.4-1.4,0.1c-0.5,0.5-1,0.6-1.6,0.4c-0.4-0.1-0.9-0.2-1.2-0.4
			c-0.5-0.2-0.9-0.3-1.4,0c-0.9,0.5-1.9,0.6-2.9,0.1C97.2,194.2,96.8,194.2,96.4,194.1z M178.6,192.1c-0.1,1,0,1.3,0.8,1.6
			c1.1,0.4,2.2,0.5,3.3,0.3c0.7-0.2,1.4-0.1,2.1,0.1c0.9,0.2,1.8,0.5,2.8-0.1c0.2-0.1,0.5-0.1,0.8,0c1.7,0.7,3.4,0.2,5-0.4
			c0.3-0.1,0.5-0.4,0.8-0.6c-0.5-0.4-0.8-0.7-1.1-0.8c-1.7,0.5-3.3,1-4.9-0.1c-0.4-0.3-0.9-0.3-1.3,0.2c-0.5,0.6-1,0.6-1.6,0.4
			c-0.4-0.1-0.9-0.2-1.2-0.4c-0.5-0.2-0.9-0.3-1.4,0c-0.9,0.5-1.9,0.6-2.9,0.1C179.4,192.2,179,192.2,178.6,192.1z M276.3,192.4
			c-0.2,1-0.1,1.2,0.8,1.5c1,0.4,2.1,0.5,3.2,0.3c0.8-0.1,1.5-0.1,2.3,0.1s1.8,0.4,2.6-0.2c0.2-0.1,0.5-0.1,0.8,0
			c1.8,0.7,3.4,0.2,5.1-0.4c0.3-0.1,0.4-0.4,0.7-0.6c-0.5-0.4-0.8-0.6-1.1-0.9c-1.6,0.8-3.3,0.8-4.8,0c-0.5-0.3-0.9-0.3-1.3,0.1
			c-0.5,0.6-1.1,0.6-1.7,0.4c-0.4-0.1-0.8-0.2-1.1-0.4c-0.5-0.2-0.9-0.3-1.4,0c-0.9,0.5-1.9,0.6-2.9,0.1
			C277.1,192.5,276.7,192.5,276.3,192.4z M242.3,192.4c0,0.2-0.1,0.3,0,0.4c0.3,1.2,1.8,2,3,1.6c0.8-0.2,1.5-0.6,2.2-0.9
			c0.3-0.1,0.7-0.2,1-0.1c1.4,0.7,2.7,0.6,4,0.1c0.3-0.1,0.7-0.2,1-0.1c1.3,0.5,2.6,0.2,3.9,0.2c0.5,0,1-0.2,1.6-0.4
			c-0.7-1.3-0.9-1.3-2-1s-2.2,0.3-3.1-0.2c-0.7-0.4-1.1-0.3-1.6,0.1c-1.1,0.8-2.3,0.8-3.5,0.2c-0.4-0.2-0.7-0.3-0.8-0.4
			c-1.1,0.4-1.9,1-2.8,1.1C244.2,193.1,243.2,192.7,242.3,192.4z M132.4,192.5c-0.1,0.1-0.2,0.1-0.3,0.1c-1.5,1.1-2.7,1-4-0.3
			c-0.3-0.3-0.6-0.5-0.9-0.2c-1,0.8-2.2,0.7-3.3,0.9c-1,0.3-2.1,0.5-3.1-0.1c-0.3-0.1-0.6-0.1-1-0.1c0.7,1.4,0.7,1.4,2.4,1.9
			c1.3-0.4,2.5-0.7,3.7-1.1c0.7-0.2,1.3-0.2,1.9,0.3c1.1,0.7,2.4,0.8,3.7,0.3c0.2-0.1,0.4-0.2,0.7-0.2c2.4,1.1,3.7,1,4.3-0.4
			c-0.5-0.1-1.1-0.3-1.6-0.3c-0.7,0-1.4,0.2-1.8-0.6C132.9,192.6,132.6,192.5,132.4,192.5z M153.3,192.4c0.2,1.6,1.6,2.5,3.1,2
			c0.7-0.2,1.4-0.5,2.1-0.9c0.4-0.2,0.7-0.3,1.1-0.1c1.3,0.7,2.6,0.6,3.9,0.1c0.5-0.2,0.9-0.1,1.4-0.1c1.4,0.1,2.8,0.1,4.2,0.1
			c0.3,0,0.6-0.2,1-0.3c-0.5-1.2-0.9-1.4-1.8-1c-1.1,0.4-2.3,0.3-3.2-0.1c-0.7-0.3-1.1-0.3-1.7,0.1c-1.1,0.7-2.2,0.7-3.4,0.2
			c-0.4-0.2-0.8-0.4-1.2-0.5c0,0.1,0,0.2,0,0.3c-0.9,0.3-1.7,0.9-2.6,1C155.3,193.1,154.3,192.7,153.3,192.4z M225.5,193.7
			c-0.6-0.1-1-0.3-1.5-0.3c-0.5-0.1-1,0-1.5,0c0-0.1,0.1-0.1,0.1-0.2c-0.4-0.3-0.8-0.5-1.2-0.8c-0.8,0.7-1.6,0.9-2.5,0.9
			c-1.1,0-1.5-0.9-2.4-1.5c-1,1-2.5,0.8-3.7,1.3c-1.4,0.5-2.7-0.1-4.2-0.3c0.3,0.5,0.5,0.9,0.7,1.2c0.5,0.8,1.4,0.8,2.1,0.7
			c1-0.1,1.9-0.6,2.8-0.8c0.9-0.2,1.7-0.5,2.6,0.1c1.1,0.8,2.4,0.8,3.7,0.3c0.4-0.1,0.7-0.3,1.1,0c0.8,0.5,1.6,0.5,2.5,0.5
			C224.8,194.8,225.2,194.4,225.5,193.7z M307.6,190.2c-2.6,1.2-5.2,1.7-8.1,0.8c0.4,0.6,0.5,0.9,0.8,1.3c0.5,0.8,1.4,0.8,2.1,0.8
			c0.9-0.1,1.8-0.5,2.7-0.8c0.9-0.3,1.8-0.6,2.8,0.1c1.1,0.8,2.4,0.7,3.7,0.2c0.4-0.2,0.8-0.2,1.1,0.1c0.7,0.5,1.6,0.4,2.4,0.4
			s1.2-0.3,1.4-1.1c-0.6-0.1-1.1-0.3-1.7-0.3c-0.7,0-1.4,0.2-1.8-0.6c-0.1-0.2-0.4-0.2-0.7-0.2c-0.7,0.6-1.5,0.9-2.4,0.9
			C308.7,191.7,308.2,190.9,307.6,190.2z M30.9,188c-0.4,0.4-0.5,0.7,0,1c1.5,0.8,3,1.1,4.5,0.3c0.4-0.2,0.7-0.2,1.1-0.1
			c1.1,0.1,2.2,0.4,3.3,0.2c1-0.1,2.1-0.1,3.1,0s2.1,0,3.1-0.1c0.3,0,0.5,0,0.8,0c0.1-0.1,0.1-0.3,0.2-0.4c0.3-0.4,0.2-0.7-0.2-0.9
			c-0.3-0.2-0.8-0.5-1.2-0.2c-1.1,1-2.3,0.7-3.5,0.2c-0.4-0.2-1-0.3-1.3-0.2c-1.7,0.9-3.3,0.6-4.9-0.2c-0.5-0.2-0.8-0.3-1.1,0.2
			c-0.4,0.6-0.9,0.8-1.6,0.7C32.5,188.4,31.7,188.2,30.9,188z"/>
		<path class="st2" d="M140.1,180.5c0.1-1-0.4-1.5-1.4-1.8c-1.9-0.7-3.1-1.9-3.2-4c0-0.1,0-0.2-0.1-0.4c-0.6-2.2-1.2-4.4-1.9-6.5
			c-0.6-1.8-1.4-3.6-2.1-5.5c-0.3-0.9-0.6-1.7-0.8-2.6c-0.5-1.5-1-2.9-1.4-4.4c-0.5-2-1-4-1.4-6c-0.3-1.3-0.6-2.5-0.8-3.8
			c-0.2-1.1-0.3-2.2-0.3-3.3c-0.1-1.7,0-3.4,0-5c0-2.1,0.1-4.1,0.3-6.2c0.1-1.2,0.5-2.3,0.9-3.4c0.3-0.8,0.6-1.6,1-2.4
			c1-2.1,2.3-4.1,3.9-5.8c0.7-0.8,1-2,1.4-3c0.7-2,1.4-4.1,2-6.1c0.4-1.1,0.7-2.3,1.2-3.4c0.5-1.2,1-2.4,1.6-3.6
			c0.5-1,0.9-2.1,1.4-3.1c0.5-1.1,1.1-2.1,1.6-3.2c0.4-0.7,0.7-1.4,1.2-2.1c0.7-1,1.4-2.1,2.2-3c1.6-1.8,3.2-3.5,5-5.2
			c1.1-1,2.5-1.1,4-0.9c1.6-1.8,3.2-3.6,4.1-6c1.1-2.9,0.9-5.9,0.4-8.8c-0.1-0.7-0.7-1.3-1.1-1.9c-1.2-2-2.8-3.9-3.5-6.2
			c-0.1-0.5-0.4-1-0.6-1.4c-1.2-2-1.6-4.1-1.7-6.4c0-0.6-0.2-1.2-0.2-1.8c0.1-2.6,0.2-5.1,1.7-7.4c1.5-2.4,3.4-4.5,5.1-6.8
			c1.7-2.2,3-4.5,4-7.1c0.2-0.6,0.3-1.2,0.4-1.9c0.2-2,0.3-4,0.5-6.1c0.1-0.9,0.3-1.9,0.5-2.8c0.2-1,0.6-2.1,0.8-3.1
			c0.5-2.3,2-3.7,4.2-4.2c1.7-0.4,3.5-0.7,5.3-1c1.2-0.2,2.4-0.3,3.6-0.6c1.7-0.3,3.3-0.1,5,0c1.6,0.1,3.1,0.5,4.5,0.9
			c1.6,0.4,3.3,0.8,4.5,2.1c0.2,0.2,0.6,0.3,0.9,0.5c0.4,0.2,0.8,0.5,1,0.8c0.7,0.7,1.4,1.5,1.9,2.3c0.8,1.4,1.8,2.8,2.1,4.5
			c0.2,1.1,0.7,2.1,1.1,3.1c0.2,0.7,0.4,1.4,0.8,2c0.5,1,1.2,2,1.8,2.9c1.2,1.8,2.2,3.7,3,5.7c0.4,1,0.8,2,1.3,3
			c1.5,3,2.5,6.1,3,9.4c0.2,1.4,0.4,2.8,0.5,4.1c0,3-1.1,5.5-3.2,7.6c-1.2,1.2-2.5,2.4-3.7,3.5c-0.6,0.6-1,1.2-1,2.2
			c-0.1,1.9-0.4,3.7-0.6,5.5c-0.1,0.8-0.2,1.7-0.2,2.5c-0.1,2.1-0.2,4.1-0.2,6.2c0,0.5,0.2,0.9,0.2,1.4c0,1-0.2,2-0.3,3
			c1.1,2.2,2.3,4.4,3.4,6.5c0.9,1.6,1.8,3.2,2.7,4.8c0.3,0.5,0.6,0.9,0.9,1.4c1,1.6,2.5,2.2,4.1,2.8c2,0.8,4,1.1,6.1,1.6
			c1.4,0.4,2.9,0.6,4.3,1.4c1.1,0.6,2.3,0.9,3.4,1.4c0.7,0.3,1.4,0.7,2.1,1c1.8,0.9,3.7,1.7,5.5,2.6s3.7,1.9,5.5,2.9
			c1.1,0.6,2.2,1.5,3.3,2c1.2,0.6,2.2,1.4,3.1,2.3c1.3,1.3,2.6,2.6,3.5,4.3c0.7,1.2,1.1,2.5,1.6,3.7c0.4,1.1,0.6,2.3,0.7,3.5
			c0.2,1.6,0.3,3.2,0.2,4.8c-0.1,1.6-0.3,3.2-0.6,4.7c-0.4,2.1-0.8,4.2-1.4,6.3c-0.3,1.3-0.9,2.6-1.3,3.9c-0.3,1-0.7,2-1.1,3
			c-0.5,1.3-1,2.7-1.7,3.9c-1.2,2.1-2,4.4-2.6,6.7c-0.5,2.2-1.2,4.3-1.8,6.4c-1,3.3-2.5,6.4-4.1,9.5c-0.4,0.8-1,1.6-1.6,2.4
			c-0.4,0-0.8,0-1.2,0c-1.6-0.1-3.2-0.3-4.8-0.4c-1.4,0-2.8,0.1-4.2,0.2c-0.3,0-0.7,0-0.8,0.2c-0.4,0.5-0.9,0.4-1.4,0.4
			c-0.6,0-1.1,0.1-1.7,0.1c-0.4,0-0.7,0-1.1,0c0.2-0.3,0.4-0.5,0.7-0.6c1.9-0.8,3.8-1.5,5.5-2.7c1.1-0.8,2.1-1.6,2.6-2.9
			c0.2-0.6,0.5-1.2,0.9-1.6c0.7-0.7,1-1.6,1.3-2.5c0.1-0.3,0.2-0.7,0.3-1c1.4-2.7,1.8-5.7,2.3-8.6c0.3-1.7,0.9-3.3,1.7-4.8
			c0.8-1.4,1.8-2.7,2.5-4.2c0.6-1.2,1.1-2.5,1.6-3.8c0.5-1.4,0.9-2.8,1.4-4.2c0.3-0.8,0.5-1.5,0.4-2.3c-0.1-0.7-0.1-1.4-0.1-2.1
			c0-1.9-0.1-3.8-0.6-5.7c-0.6-2.2-1.5-4.2-2.7-6.1c-0.3-0.5-0.7-0.9-1.1-1.2c-2-1.3-3.7-2.9-5.8-4c-1-0.5-2-1.1-3.2-1.4
			c-0.3-0.1-0.5-0.2-0.8-0.3c-1.1-0.5-1.9-1.3-2.7-2.1c-2-2-4.7-3.1-7.1-4.4c-3-1.7-6.2-3.2-9.3-4.8c-0.4-0.2-0.8-0.8-1-1.2
			c-0.8-2-1.5-4-2.4-5.9c-0.8-1.7-1.9-3.1-3.2-4.4c-0.6-0.6-1.3-1.2-2-1.6c-0.9-0.6-2-1-3-1.5c-0.2-0.1-0.3-0.3-0.4-0.5
			c-0.3-0.7-0.7-1.4-0.9-2.2c-0.2-1.1-0.8-1.9-1.6-2.6c-0.6-0.6-0.7-1.3-0.9-2c-0.1-0.2,0-0.5,0-0.7c0-0.5,0-0.9,0-1.4
			c-0.2-1-0.5-2-0.6-3c-0.3-3.5-0.5-6.9-0.7-10.4c-0.1-0.9-0.3-1.8-0.4-2.7c0-0.1,0-0.2,0-0.3c0-0.7,0-1.3-0.1-2
			c-0.1-1.2-0.3-2.4-0.1-3.6c0.2-0.8,0-1.3-0.3-1.9c0-0.1,0-0.2,0-0.4c0.5-0.2,1.1-0.5,1.7-0.7c1.2-0.5,2.5-0.7,3.3-1.9
			c0.1-0.1,0.3-0.2,0.4-0.2c0.7,0,1.1-0.5,1.6-0.9c0.7-0.6,1.4-1,2.1-1.5c0.3-0.3,0.7-0.6,0.9-0.9c0.5-0.5,0.8-1.2,1.4-1.6
			c1.5-1.2,1.7-3.2,0.5-4.6c-0.8-1-1.6-2-2.5-2.8s-1.4-2-2.6-2.6c-0.7-0.4-1.4-0.8-1.8-1.4c-0.7-1-1.6-1.4-2.5-1.9
			c-0.1-0.1-0.3,0-0.3-0.1c-0.2-0.3-0.5-0.7-0.4-0.9c0.2-0.6,0-1.1-0.3-1.6c-0.7-1.1-1.7-2-3.1-2.2c-0.9-0.1-1.9-0.2-2.9-0.3
			c0.2-1,0.4-1.9,0.6-2.8c0.4-0.2,0.8-0.4,1.1-0.6c0.2-0.1,0.4-0.3,0.4-0.5c0.1-1.1,0.4-2.2-0.7-3c0-0.3,0-0.6,0-0.9
			c0-0.8-0.1-1.6,0.6-2.2c0.1-0.1,0.1-0.6-0.1-0.7c-0.3-0.3-0.7-0.5-1-0.7c-0.1-0.2-0.2-0.3-0.3-0.5c-0.7-1.4-1.8-2-3.4-1.7
			c-0.2,0.1-0.5-0.1-0.8-0.2c-0.7-0.3-1.3-0.7-2-1c-0.9-0.4-1.8-0.1-2.6,0.4c-1.3,0.8-1.9,2.1-2.9,3c-0.9,0.8-1.1,1.8-1.3,2.9
			c-0.1,0.4-0.1,0.8,0,1.2s-0.1,0.6-0.4,0.9c-0.8,0.8-0.6,2,0.3,2.7c0.2,0.2,0.5,0.3,0.7,0.4c0.7,0.2,0.9,0.5,1,1.3
			c0.1,1.3,0.4,2.6,1.4,3.6c-0.1,0.2-0.2,0.4-0.3,0.6c-0.3-0.3-0.7-0.3-0.8,0.2c-0.1,0.6-0.5,0.7-1,0.9c-0.7,0.3-1.3,0.8-1.9,1.2
			c-0.3,0.2-0.6,0.5-0.9,0.6c-1.7,0.3-2.8,1.6-4.2,2.4c-0.8,0.5-1.4,1.1-2.2,1.6c-2.3,1.3-4.4,3-6.4,4.7c-1.2,1-1.3,1.4-0.9,2.9
			c0.1,0.4,0.4,0.8,0.6,1.2c1,1.9,2.2,3.7,3.9,5c0.6,0.5,1.2,1.1,1.9,1.7c0.2,0.2,0.4,0.3,0.6,0.3c0.4,0.1,0.8,0.2,1.2,0.4
			c1.4,0.5,2.8,1.1,4.3,1.7c0,0.2,0.1,0.7,0.1,1.1c-0.1,1.6-0.1,3.2-0.2,4.7c-0.1,2.3-0.3,4.7-0.4,7c-0.1,2.7-0.2,5.4,0,8.1
			c0.2,2.7-0.7,3.2-2.6,3.8c-0.7,0.2-1.5,0.5-2.2,0.9c-0.9,0.4-1.6,1-2.1,1.8c-0.1,0.2-0.2,0.6-0.2,0.9c0,0.3,0.2,0.6,0.3,0.9
			c-0.2,0.1-0.4,0.2-0.6,0.4c-0.3-0.2-0.5-0.3-0.7-0.4c-0.6,0.3-1,0.7-1.5,0.9c-1.6,0.5-2.5,1.6-3.2,3c-0.8,1.4-1.5,2.9-2.2,4.3
			c-0.4,0.8-0.9,1.5-1.2,2.3s-0.7,1.4-1.5,1.7c-0.7,0.2-1.3,0.6-1.9,0.9c-0.2,0.1-0.5,0.2-0.7,0.5c-1.2,1.5-2.1,3.1-2.6,5
			c-0.3,1.2-0.7,2.3-1.2,3.4c-0.6,1.3-1.5,2.2-2.4,3.2c-0.9,1.1-2.2,2-2.5,3.5c0,0.1-0.1,0.1-0.1,0.2c-0.6,1.2-1.2,2.3-1.8,3.5
			c-0.1,0.2-0.2,0.4-0.2,0.6c0.3,0.8-0.2,1.5-0.2,2.2c-0.1,0.6,0,1.2,0,1.9c0.5,0,0.9,0.1,1.3,0.1c0,0.2-0.1,0.4-0.1,0.6
			c-0.5-0.2-0.7,0.1-0.7,0.5c0,0.5,0,0.9,0,1.4c0,0.4,0.1,0.9,0,1.3c-0.1,0.8-0.2,1.6-0.3,2.3c-0.1,0.5,0.1,0.9,0.1,1.5
			c-0.1,1.3,0,2.6,0.1,3.9c0.1,1.2,0.3,2.3,0.2,3.5c-0.1,0.8,0,1.6,0.1,2.5c0,0.4,0.1,0.8,0.1,1.1c0,0.3-0.1,0.6-0.1,0.8
			c0.1,1,0.3,2,0.5,2.9c0.2,1,0.4,2.1,1.2,2.8c1,0.7,1.8,1.6,2.4,2.6c0.1,0.2,0.1,0.5,0.2,0.6c0.8,1.2,1.6,2.4,2.4,3.5
			c1.7,2.3,3.3,4.6,5.4,6.5c0.7,0.7,1.3,1.5,2,2.2c0.4,0.4,0.8,0.7,1.3,1.1l0,0c0.1,0.1,0.1,0.2,0.2,0.3l0,0
			c0.1,0.2,0.2,0.3,0.3,0.5c0.8,1.4,1.6,2.8,2.5,4.1c1.1,1.7,1.8,3.6,3.4,5c0,0,0,0.1,0.1,0.3c-0.6,0.1-1.1,0.1-1.6,0.2
			c-0.6,0.1-1.1,0-1.6,0.2c-1.7,0.6-3.4,0.5-5.2,0.6c-1.4,0.1-2.8,0-4.1,0.2c-1.7,0.3-3.4-0.2-5.1-0.1
			C141.9,180.7,141,180.6,140.1,180.5z"/>
		<g>
			<path class="st3" d="M326.2,179c-1.8-1.8-4-3-6.2-4.4c-1.5-0.9-2.8-2-3.8-3.4c-1-1.3-1.9-2.7-2.9-3.9c-0.9-1-1.9-2-2.9-2.9
				c-1.1-1-2.2-1.9-3.3-2.9c-0.6-0.5-1.2-1-2-1.2c-0.7-0.2-1.4-0.4-2-0.7c-1.8-0.7-3.5-1.4-5.5-1.6c-2.2-0.3-4.5-0.2-6.7,0.2
				c-0.5,0.1-1.1,0.3-1.6,0.6c-1.9,1.3-4.1,2.3-5.9,3.9c-0.9,0.8-1.8,1.4-2.5,2.4c-0.2,0.2-0.4,0.4-0.6,0.6c-0.8,0.8-1.9,1.2-3,1.7
				c-2.6,1.2-4.6,3.2-6.8,5c-2.7,2.2-5.3,4.6-8,6.8l2.5,0.3c2.6-2.3,5.3-4.5,8-6.8c1.2-1,2.4-2.1,3.8-2.9c1.1-0.7,2.3-1.6,3.8-1.5
				c0.2,0,0.5-0.3,0.6-0.5c0.8-1.5,2-2.8,3.4-3.8c0.7-0.6,1.5-1.1,2.2-1.7c1.3-1.1,2.8-1.6,4.4-2.1c0.7-0.2,1.3-0.6,2-0.7
				c2.1-0.3,4.1-0.1,6.1,0.7c0.8,0.3,1.7,0.5,2.5,0.7c2.2,0.5,4,1.8,5.6,3.2c1.2,1,2.3,2.2,3.5,3.3c0.4,0.4,0.7,0.8,1,1.2
				c0.8,1.1,1.6,2.3,2.4,3.4c0.8,1.2,1.8,2.2,3,2.9c1.5,0.9,3.9,2.8,5.4,3.8l0.9,0.2"/>
			<path class="st3" d="M352.1,178.4c-0.1,0-0.3,0.1-0.5,0.1c-2.9,0.1-5.7,0.3-8.6,0.3c-1.3,0-2.7-0.2-4-0.2c-1.7,0-3.5,0.2-5.2,0.3
				c-1.4,0.1-2.9,0.1-4.3,0.3c-1.1,0.2-2.3-0.2-3.4-0.2c0.3,0.3,0.6,0.6,0.9,0.9l-3.5-0.9c-0.1,0-0.2,0-0.3,0c-1,0-2,0.1-3,0.1
				c-1.6,0-3.3-0.2-4.9-0.2c-1.1,0-2.4-0.3-3.4,0c-1.7,0.5-3.4-0.1-5.2,0.2c-1.6,0.3-3.3,0-4.9,0c-2.7,0-5.4,0.2-8.1-0.1
				c-2.3-0.3-4.7,0-7,0.1c-0.9,0-1.7,0.4-2.6,0.5c-1.9,0.2-3.9,0.3-5.8,0.4c-1.1,0.1-2.3,0.2-3.4,0.1c-1.7-0.1-3.4-0.2-5.2-0.2
				c-3-0.1-6,0.2-9-0.4c-0.1,0-0.2,0-0.4,0c-2.9,0.1-5.8,0.3-8.6,0.4c-0.1,0-0.2,0-0.2,0c-0.8,0-1.7-0.1-2.5-0.1
				c-0.7,0-1.5,0.1-2.2,0.1c-1.8,0-3.7-0.2-5.5-0.1c-2.2,0.1-4.5,0.4-6.7-0.1c-0.4,0-0.8,0-1.2,0c-1.6-0.1-3.2-0.3-4.8-0.4
				c-1.4,0-2.8,0.1-4.2,0.2c-0.3,0-0.7,0-0.8,0.2c-0.4,0.5-0.9,0.4-1.4,0.4c-0.6,0-1.1,0.1-1.7,0.1c-0.4,0-0.7,0-1.1,0
				c0.2-0.3,0.4-0.5,0.7-0.6c1.9-0.8,3.8-1.5,5.5-2.7c1.1-0.8,2.1-1.6,2.6-2.9c0.2-0.6,0.5-1.2,0.9-1.6c0.7-0.7,1-1.6,1.3-2.5
				c0.1-0.3,0.2-0.7,0.3-1c1.4-2.7,1.8-5.7,2.3-8.6c0.3-1.7,0.9-3.3,1.7-4.8c0.8-1.4,1.8-2.7,2.5-4.2c0.6-1.2,1.1-2.5,1.6-3.8
				c0.5-1.4,0.9-2.8,1.4-4.2c0.3-0.8,0.5-1.5,0.4-2.3c-0.1-0.7-0.1-1.4-0.1-2.1c0-1.9-0.1-3.8-0.6-5.7c-0.6-2.2-1.5-4.2-2.7-6.1
				c-0.3-0.5-0.7-0.9-1.1-1.2c-2-1.3-3.7-2.9-5.8-4c-1-0.5-2-1.1-3.2-1.4c-0.3-0.1-0.5-0.2-0.8-0.3c-1.1-0.5-1.9-1.3-2.7-2.1
				c-2-2-4.7-3.1-7.1-4.4c-3-1.7-6.2-3.2-9.3-4.8c-0.4-0.2-0.8-0.8-1-1.2c-0.8-2-1.5-4-2.4-5.9c-0.8-1.7-1.9-3.1-3.2-4.4
				c-0.6-0.6-1.3-1.2-2-1.6c-0.9-0.6-2-1-3-1.5c-0.2-0.1-0.3-0.3-0.4-0.5c-0.3-0.7-0.7-1.4-0.9-2.2c-0.2-1.1-0.8-1.9-1.6-2.6
				c-0.6-0.6-0.7-1.3-0.9-2c-0.1-0.2,0-0.5,0-0.7c0-0.5,0-0.9,0-1.4c-0.2-1-0.5-2-0.6-3c-0.3-3.5-0.5-6.9-0.7-10.4
				c-0.1-0.9-0.3-1.8-0.4-2.7c0-0.1,0-0.2,0-0.3c0-0.7,0-1.3-0.1-2c-0.1-1.2-0.3-2.4-0.1-3.6c0.2-0.8,0-1.3-0.3-1.9
				c0-0.1,0-0.2,0-0.4c0.5-0.2,1.1-0.5,1.7-0.7c1.2-0.5,2.5-0.7,3.3-1.9c0.1-0.1,0.3-0.2,0.4-0.2c0.7,0,1.1-0.5,1.6-0.9
				c0.7-0.6,1.4-1,2.1-1.5c0.3-0.3,0.7-0.6,0.9-0.9c0.5-0.5,0.8-1.2,1.4-1.6c1.5-1.2,1.7-3.2,0.5-4.6c-0.8-1-1.6-2-2.5-2.8
				s-1.4-2-2.6-2.6c-0.7-0.4-1.4-0.8-1.8-1.4c-0.7-1-1.6-1.4-2.5-1.9c-0.1-0.1-0.3,0-0.3-0.1c-0.2-0.3-0.5-0.7-0.4-0.9
				c0.2-0.6,0-1.1-0.3-1.6c-0.7-1.1-1.7-2-3.1-2.2c-0.9-0.1-1.9-0.2-2.9-0.3c0.2-1,0.4-1.9,0.6-2.8c0.4-0.2,0.8-0.4,1.1-0.6
				c0.2-0.1,0.4-0.3,0.4-0.5c0.1-1.1,0.4-2.2-0.7-3c-0.3-0.2-0.5-0.3-0.8-0.5c0.3-0.9,0-1.9,0.6-2.7c0.2-0.3-0.2-0.9-0.3-1.3
				c-0.1-0.2-0.2-0.3-0.3-0.5c-0.7-1.4-1.8-2-3.4-1.7c-0.2,0.1-0.5-0.1-0.8-0.2c-0.7-0.3-1.3-0.7-2-1c-0.9-0.4-1.8-0.1-2.6,0.4
				c-1.3,0.8-1.9,2.1-2.9,3c-0.9,0.8-1.1,1.8-1.3,2.9c-0.1,0.4-0.1,0.8,0,1.2s-0.1,0.6-0.4,0.9c-0.8,0.8-0.6,2,0.3,2.7
				c0.2,0.2,0.5,0.3,0.7,0.4c0.7,0.2,0.9,0.5,1,1.3c0.1,1.3,0.4,2.6,1.4,3.6c0.9,0.4,1.7,1,2.7,0.5c0.1-0.1,0.3-0.1,0.5-0.3
				c-0.2-0.5-0.4-0.9-0.9-1c-0.4-0.1-0.7-0.3-1.1-0.5c-0.5-0.3-0.9-0.5-0.9-1.2c0-0.6-0.4-1.3-0.6-1.9c-0.1-0.4-0.3-0.9-0.4-1.4
				c-0.7-0.2-1.6-0.4-1.6-1.5c0.2,0,0.3,0,0.4,0c0.3-0.1,0.8-0.1,0.9-0.3c0.2-0.3,0-0.7-0.3-1c-0.5-0.4-0.4-0.7,0.1-1
				c0.1-0.1,0.3-0.2,0.4-0.2c0.1-0.1,0.3-0.1,0.5-0.2c0.7,0.8,1.6,0.4,2.4,0.1c0.2-0.1,0.6-0.4,0.6-0.6c-0.1-0.8,0.5-1,1-1.3
				c0.8-0.4,1.2-1,1.2-2c0.3,0.1,0.5,0.1,0.9,0.2c0.2,1.2,0.3,2.3,0.5,3.5c0.3,1.5,1.4,2.4,2.9,2.4c0.7,0,0.9,0.2,1.1,0.8
				c0.2,0.7,0,1.3-0.6,1.5c-0.2,0.1-0.4,0.1-0.6,0.1c-1,0.4-0.9,0.4-0.9,1.5c0,1.4-0.2,2.8-0.3,4.2c0,0.5,0,1.1,0,1.7
				c-0.7,0.7-1.7,0.8-2.7,1c-0.2,0.1-0.5,0-0.7,0c-1.1-0.3-2.2-0.6-3.1-1.1c-0.6-0.3-1.1-1-1.6-1.5c-0.3-0.3-0.7-0.3-0.8,0.2
				c-0.1,0.6-0.5,0.7-1,0.9c-0.7,0.3-1.3,0.8-1.9,1.2c-0.3,0.2-0.6,0.5-0.9,0.6c-1.7,0.3-2.8,1.6-4.2,2.4c-0.8,0.5-1.4,1.1-2.2,1.6
				c-2.3,1.3-4.4,3-6.4,4.7c-1.2,1-1.3,1.4-0.9,2.9c0.1,0.4,0.4,0.8,0.6,1.2c1,1.9,2.2,3.7,3.9,5c0.6,0.5,1.2,1.1,1.9,1.7
				c0.2,0.2,0.4,0.3,0.6,0.3c0.4,0.1,0.8,0.2,1.2,0.4c1.4,0.5,2.8,1.1,4.3,1.7c0,0.2,0.1,0.7,0.1,1.1c-0.1,1.6-0.1,3.2-0.2,4.7
				c-0.1,2.3-0.3,4.7-0.4,7c-0.1,2.7-0.2,5.4,0,8.1c0.2,2.7-0.7,3.2-2.6,3.8c-0.7,0.2-1.5,0.5-2.2,0.9c-0.9,0.4-1.6,1-2.1,1.8
				c-0.1,0.2-0.2,0.6-0.2,0.9c0,0.3,0.2,0.6,0.3,0.9c0.6,0.2,0.8,0.4,0.4,1c0.3,0.1,0.5,0.2,0.7,0.4c0.8,1.1,1.8,1,3,0.9
				c2.9-0.4,5.8-0.6,8.8-1c0.5-0.1,1-0.3,1.5-0.4c0.2-0.1,0.5-0.2,0.7-0.1c1.3,0.4,2-0.5,2-2c0-0.4,0-0.8-0.2-1
				c-0.4-0.6-0.3-1.1-0.1-1.7c0-1.2-0.1-2.4,0-3.7c0.1-1.9,0.2-3.7,0.3-5.6c0-0.1,0-0.2,0.1-0.3c-0.3-1.1-0.2-2.1,0-3.2
				c0.1-0.4-0.1-0.8-0.1-1.2c0-0.2,0-0.5,0.1-0.9c0.4,0.8,1,4.1,1,5.3c0.1,1,0.2,1.9,0.3,2.9c0.2,2,0.5,4,0.7,6c0,0.2,0,0.3,0,0.5
				c0.3,1.9,1.2,3.4,2.6,4.7c1,0.9,1.8,2,2.8,2.9c0.5,0.5,1.2,0.9,1.9,1.2c0.9,0.4,1.8,0.8,2.7,1.1c1,0.3,2,0.1,2.8-0.6
				c0.3-0.3,0.4-0.9,0.7-1.5c0.2,0.2,0.6,0.5,0.7,0.8c0.3,0.9,1.1,1.3,1.8,1.8c0.3,0.2,0.7,0.4,1.1,0.5c2.2,1.1,3.6,2.8,4.4,5.1
				c0.6,1.8,1.3,3.5,2,5.4c-0.5,0-0.9,0-1.2,0c-0.4,0-0.7,0-1,0.2c-0.2,0.1-0.4,0.5-0.4,0.7c0,0.2,0.3,0.4,0.5,0.5
				c0.6,0.2,1.3,0.3,1.9,0.5c1.2,0.4,2.3,0.8,3.4,1.4c3.1,1.6,6.2,3.3,9.3,4.9c1.4,0.8,2.8,1.5,4.1,2.4c1.1,0.8,2.3,1.6,2.8,3
				c0.1,0.2,0.4,0.3,0.7,0.3c1.7,0.2,3.3,0.8,4.8,1.7c0.8,0.5,1.6,0.9,2.4,1.4c1.5,0.8,2.5,2,3.6,3.3c0.4,0.6,1,1,1.4,1.6
				c1.1,1.8,1.6,3.8,1.6,5.9c0,0.9,0.2,1.7,0.3,2.6c0.3,2.2-0.2,4.4-0.9,6.4c-0.5,1.5-1.1,3-1.7,4.5c-0.2,0.5-0.4,0.9-0.7,1.4
				c-0.7,1.2-1.5,2.3-2.3,3.5s-1.3,2.5-1.6,3.8c-0.3,1.7-0.5,3.5-0.9,5.2c-0.3,1.3-0.8,2.6-1.2,3.9c-0.5,1.4-0.9,2.9-1.9,4.2
				c-0.3,0.4-0.5,1-0.8,1.5c-0.2,0.4-0.5,0.7-0.7,1c-1,1.6-2.6,2.4-4.3,3.1c-1,0.4-2,0.7-3,1.1c-0.5,0.2-1,0.5-1.5,0.8
				c-0.4,0.2-0.8,0.5-1.3,0.5c-1.6,0.1-3.2,0.2-4.8,0.3c-0.9,0-1.9,0-2.8,0.3c-0.6,0.2-1.4,0.2-2,0.1c-1.7-0.3-3.5-0.1-5.2,0
				c-1.1,0.1-2.3,0.3-3.4-0.1c-0.1,0-0.3,0-0.5,0c-1.4,0.4-2.9-0.1-4.4,0.1c-1.4,0.2-2.8-0.1-4.2-0.1c-1,0-2,0-3,0
				c-0.8,0-1.7-0.1-2.5-0.1c-0.6,0-1.2,0.2-1.7,0.2c-1.2,0.1-2.4,0.3-3.5,0.1c-1.3-0.2-2.5,0-3.8,0.1c-2.5,0.1-5.1,0-7.6,0
				c-1,0-2.1-0.2-3.1-0.3c-0.4-0.1-0.9-0.2-1.2-0.5c-0.9-0.9-1.9-1.7-2.7-2.7c-1.2-1.5-2.2-3.1-3.2-4.8c-0.8-1.3-1.5-2.7-2.3-4
				c-0.7-1.1-1.4-2.2-2.2-3.2c-0.9-1.2-1.8-2.4-2.7-3.5c-1.2-1.4-2.6-2.6-3.8-3.9c-0.3-0.3-0.5-0.8-0.8-1.1
				c-0.5-0.6-1.1-1.2-1.7-1.8c-0.8-0.8-1.7-1.6-2.3-2.6c-0.5-0.7-0.7-1.7-0.9-2.5c-0.4-1.7-0.6-3.4-0.6-5.2c0-1.5-0.3-2.9-0.4-4.4
				c-0.1-1.7,0-3.4,0-5.1c0-1.9,0-3.9,0-5.8c-0.5-0.2-0.7,0.1-0.7,0.5c0,0.5,0,0.9,0,1.4c0,0.4,0.1,0.9,0,1.3
				c-0.1,0.8-0.2,1.6-0.3,2.3c-0.1,0.5,0.1,0.9,0.1,1.5c-0.1,1.3,0,2.6,0.1,3.9c0.1,1.2,0.3,2.3,0.2,3.5c-0.1,0.8,0,1.6,0.1,2.5
				c0,0.4,0.1,0.8,0.1,1.1c0,0.3-0.1,0.6-0.1,0.8c0.1,1,0.3,2,0.5,2.9c0.2,1,0.4,2.1,1.2,2.8c1,0.7,1.8,1.6,2.4,2.6
				c0.2,0.1,0.4,0.1,0.5,0.2c0.6,0.7,1.1,1.4,1.7,2c0,0.1,0.1,0.2,0.1,0.2c1.3,0.9,2,2.3,3.1,3.4c0.5,0.5,0.6,1.1,1,1.5
				c0.9,1,1.8,2,2.6,3c0.8,1.1,1.5,2.3,2.2,3.5l0,0c0.1,0.1,0.1,0.2,0.2,0.3l0,0c0.1,0.2,0.2,0.3,0.3,0.5c0.8,1.4,1.6,2.8,2.5,4.1
				c1.1,1.7,1.8,3.6,3.4,5c0,0,0,0.1,0.1,0.3c-0.6,0.1-1.1,0.1-1.6,0.2c-0.6,0.1-1.1,0-1.6,0.2c-1.7,0.6-3.4,0.5-5.2,0.6
				c-1.4,0.1-2.8,0-4.1,0.2c-1.7,0.3-3.4-0.2-5.1-0.1c-0.9,0.1-1.8-0.1-2.7-0.1c-0.2,0-0.3,0.1-0.5,0.1c-2.1,0-4.3-0.1-6.4-0.1
				c-0.4,0-0.8-0.2-1.3-0.2c-2.9,0.1-5.8,0.3-8.7,0.4c-0.1,0-0.2,0-0.2,0c-0.7-0.1-1.4-0.1-2.1-0.1c-0.4,0-0.8,0.1-1.2,0.1
				c-1,0-1.9,0-2.9,0c-0.1,0-0.2,0-0.3,0c-1.3,0-2.5,0-3.8,0.1c-1.4,0-2.9,0.1-4.3,0.1c-2.3,0-4.5,0.1-6.8,0c-1.8,0-3.6,0.1-5.4,0.2
				c-1.7-1.6-3.4-3.2-5.2-4.7c-1.8-1.5-3.5-3.3-5.5-4.4c-0.8-0.4-1.7-0.8-2.4-1.5c-0.2-0.2-0.4-0.3-0.5-0.5
				c-0.6-0.8-1.3-1.4-2.1-2.1c-1.5-1.4-3.2-2.3-4.8-3.4c-0.4-0.3-0.8-0.4-1.2-0.5c-1.7-0.4-3.4-0.5-5-0.3c-1.4,0.2-2.7,0.7-4,1.3
				c-0.5,0.2-1,0.4-1.5,0.6c-0.6,0.2-1,0.5-1.4,1c-0.7,0.8-1.5,1.6-2.2,2.4s-1.4,1.5-1.9,2.4c-0.7,1-1.2,2.2-1.8,3.3
				c-0.7,1.2-1.5,2.1-2.5,2.8c-1.4,1.1-2.8,2.1-4,3.4c-0.4,0-0.9,0-1.3,0c-1.3,0-2.7,0.3-4,0.2c-1.7-0.1-3.5,0.1-5.3,0.1
				c-0.6,0-1.3-0.1-1.9-0.1c-1.3-0.1-2.5-0.4-3.8-0.4c-0.8,0-1.6,0.2-2.5,0.2c-0.3,0-0.7,0.1-1,0.1c-0.7,0.1-1.4,0.2-2.1,0.3
				c-0.5,0.1-1,0.2-1.5,0.3c-0.4,0-0.8,0-1.2,0c-1.5,0.1-2.9,0.3-4.4,0.4c-1.2,0.1-2.4,0.1-3.6,0.1c-2.1,0-4.1-0.1-6.2-0.3
				c-2.6-0.2-5.2,0.2-7.7-0.4l2.9,0.8c1.2,0.1,2.4,0.3,3.7,0.4c2.3,0.1,4.5,0.1,6.8,0.1c2.1,0,4.2-0.2,6.3-0.3
				c2.3-0.1,4.6-0.3,6.9-0.5c0.2,0,0.5-0.1,0.7-0.1c1.1-0.2,2.2-0.6,3.3,0.1c0.2,0.1,0.4,0.1,0.6,0.1c1.6-0.1,3.2-0.1,4.8,0
				c0.7,0.1,1.3-0.1,2-0.2c0.3,0,0.6,0,0.9,0c0.6,0,1.2,0.1,1.8,0.1c2.9,0,5.8,0,8.7,0c1.3,0,2.7-0.1,4-0.2c1,0,1.9-0.2,2.9,0
				c1.5,0.4,3,0.1,4.5,0.1c0.9,0,1.8-0.2,2.7-0.1c2.1,0.2,4.3,0.2,6.4,0c0.9-0.1,1.7-0.2,2.6-0.1c3.7,0.2,7.4,0.4,11.1,0.5
				c0.6,0,1.3-0.1,1.9-0.1c2,0,4,0,6-0.1h0.1c0.1,0.1,0.2,0.2,0.3,0.3l1.8-0.2c-0.1-0.1-0.1-0.1-0.2-0.2c1.2-0.1,2.4-0.1,3.5-0.2
				c0.5,0,1.1-0.3,1.6-0.3c2.4,0.2,4.9,0.5,7.3,0.5c0.3,0,0.6,0.1,1,0c1.8-0.1,3.6-0.2,5.4-0.3v0.1c0.3,0.1,0.6,0.1,0.9,0.2
				c1,0,2-0.1,3.1-0.1c0.8,0,1.6-0.2,2.4-0.2c2,0,4,0.2,5.9,0.1c2.7-0.2,5.3-0.1,8,0.1c3,0.2,6.1,0.3,9.2,0.2c3.1,0,6.2-0.3,9.3-0.5
				c0.6,0,1.1,0,1.7-0.1c1.5-0.2,3-0.4,4.5-0.7c1.1-0.2,1.9,0.3,2.5,1c1.2,1.4,2.7,2.3,4.5,2.6c2.5,0.5,4.9,1,7.5,1
				c2.2-0.1,4.5,0.2,6.7,0.1c1.5-0.1,2.8,0.4,4,1.2c1,0.6,1.9,1.3,2.9,1.9c2.6,1.5,5.2,3.1,8.1,4.1c2,0.7,3.6,0.2,5.2-1
				c1.8-1.4,3.3-3.2,5.3-4.4c0.5-0.3,0.9-0.9,1.4-1.2c1.2-0.9,2.5-1.8,3.8-2.7c1.7-1.2,3.4-2.1,5.7-2c3.3,0.1,6.5-0.3,9.8-0.4
				c0.8,0,1.6-0.2,2.5-0.3c2.1,0,4.1,0.5,6.1,0.3c1.4-0.1,2.9,0.1,4.3,0.1c3.1-0.1,6.3,0.4,9.4-0.2c0.1,0,0.2,0.1,0.2,0.1
				c1.9,0.1,3.9,0.3,5.8,0.1c2.7-0.2,5.4-0.1,8.1,0.1c3.1,0.2,6.2,0.2,9.3,0.2c2.1,0,4.1-0.2,6.2-0.3c2.2-0.1,4.4-0.3,6.5-0.4
				c0.7-0.1,1.4-0.3,2.1-0.3c1.3,0,2.6,0.1,3.9,0.1c0.7,0,1.5,0,2.2,0.1c2.1,0.3,4.1-0.1,6.2,0c3,0.2,6.1,0,9.1,0
				c0.9,0,1.8,0.1,2.8,0c1.7-0.1,3.4-0.2,5.1,0.1c0.2,0,0.4,0,0.6,0c1.1,0,2.3,0,3.4-0.1c0.7,0,1.3-0.2,2-0.2c1.5,0,3,0.2,4.5,0.2
				c2.3,0,4.6-0.2,6.9-0.3c0.9,0,1.7-0.1,2.6-0.2c1.1,0,2.3-0.1,3.4-0.1c0.2,0,0.5,0,0.7,0c1.5,0.1,2.9,0.2,4.4,0.2
				c2-0.1,4-0.4,6-0.2c0.7,0.1,1.4-0.1,2.1-0.1L352.1,178.4z M196.9,46.2c0.2,0.1,0.4,0.2,0.5,0.4c1,1.1,1.9,2.2,2.8,3.4
				c0.6,0.7,0.5,0.7,0,1.6c-0.6,1-1.3,1.9-2.1,2.7c-1.1,1.1-2.3,1.9-3.8,2.7c-0.6-1.1-1.2-2-1.8-3.1c1.6-1,2.7-2.6,4.7-3
				c0.2-1-0.2-1.6-1-1.4c-1.2,0.4-1.8-0.3-2.4-1.1C194.8,47.7,195.8,47,196.9,46.2z M192.5,50.5c0.4,0.3,0.7,0.5,1.1,0.8
				c-0.3,0.2-0.5,0.4-1,0.8C192.6,51.4,192.6,51,192.5,50.5z M192.7,42c1,0.9,2,1.8,3.2,2.7c-0.9,0.7-1.7,1.4-2.6,2
				c-0.5,0.4-0.9,0.2-1.4-0.1c-0.4-0.3-0.7-0.6-1.2-0.8c-1-0.4-1.5-1.4-2.1-2.2c-0.1-0.2-0.2-0.5-0.2-0.7c0.3-1,0.6-2,0.9-2.9
				C190.8,40.3,191.8,41.1,192.7,42z M190.7,53.5c-0.4-2.2-0.8-4.1-1.3-6.3c1.1,0.5,1.7,1.1,1.7,2.2c0,1,0.1,2,0.1,3
				C191.3,52.8,191.3,52.8,190.7,53.5z M189.9,37.6c-1.1-0.2-1.9-1-2.8-1.6C188.5,35.7,189.2,36.6,189.9,37.6z M186.4,38.4
				c0.6,0.3,1.1,0.6,1.7,0.9c-0.2,0.7-0.5,1.3-0.6,1.9c-0.2,0.5-0.3,1.1-0.4,1.6c-0.1,0.4,0,0.7-0.4,1.1c-0.5,0.5-0.3,0.8,0.3,1.2
				c0.5,0.4,1,0.7,0.8,1.4c-1.4-0.4-3.1-1.6-3.3-3.8C184.4,41,185,39.5,186.4,38.4z M172,48.5c1.6,0.2,3.2,0.5,4.8,0.7
				c0.1-0.2,0.2-0.3,0.2-0.5c-1.2-0.2-2.3-0.5-3.4-0.7c-0.5-1.3-0.8-2.5-0.6-3.9c1.5,0.3,2.9,0.7,4.4,0.3c0.1-0.1,0.2-0.2,0.3-0.3
				c-0.5,0-1-0.1-1.6-0.1c-0.5,0-1,0-1.4-0.4c-0.3-0.3-0.9-0.3-1.4-0.5c0-0.8,0.3-1.6,0.7-2.4c0.2-0.4,0.5-0.8,0.8-1.2
				c0.4-0.6,0.4-0.6,0.3-1.3c0.1,0,0.3-0.1,0.3,0c1.1,0.9,2.3,1.5,3.7,1.9c0.2,0,0.4,0.1,0.6,0.2c0.7,0.4,1.4,0.4,2.2,0.1
				c0.3-0.1,0.7-0.1,1.1-0.2c0,1.3,0,2.4,0,3.6c-0.4,0.6-1.1,0.4-1.7,0.5c0,0.1,0,0.3,0,0.4c0.4,0,0.7,0,1.1,0.1
				c0.6,0.1,1.1,0.2,1.5,0.8c0.9,1.2,1.9,2.2,3.5,2.5c0.3,0.1,0.6,0.3,0.9,0.4c0.1,1.1,0.3,2.2,0.4,3.3c0,0.4-0.2,0.8-0.4,1.4
				c0.1,0.2,0.2,0.6,0.4,1c0.6,0.6,1.3,0.1,1.9,0.2c0.2,0.2,0.5,0.4,0.7,0.7c0.4,0.6,0.7,1.2,1,1.9c0.1,0.3,0.2,0.6,0.4,0.9
				c-1.6,0.6-2.8,2-4.8,1.6c0.4-0.3,0.8-0.5,1.2-0.8c-0.1-0.1-0.1-0.3-0.2-0.4c-0.5,0-0.9-0.1-1.5-0.1c0.3-0.3,0.6-0.5,0.8-0.6
				c-0.2-0.9-1-0.3-1.5-0.7c0.7-0.5,1.4-0.9,2.2-0.7c0.7,0.2,1-0.2,1.4-0.7c-0.6-1-1.4-0.4-2.1-0.3c-0.7,0.3-1.4,0.6-2.1,0.9
				c-1,0.5-1,0.6-0.7,1.7c0,0.1,0,0.3,0,0.4c0,0.2-0.1,0.4,0,0.6c0,0.3,1.5,1.8,1.8,1.9c0.4,0.1,0.8,0.3,1.1,0.6
				c-5.1,0.9-10.2,1-15.2-0.1c1.2-0.7,1.2-0.7,1.2-2.1c1.7-0.4,3.5,0.1,5.1-0.8c0-0.1,0-0.2,0-0.3c-1.7,0.1-3.4,0.1-5.1,0.2
				c0-0.1,0-0.3,0.1-0.5c0.2-0.9-0.1-1.4-0.9-1.8c-1-0.4-1-0.4-1-1.4c0-1.6-0.1-3.2-0.1-4.9C172,49.4,172,48.9,172,48.5z
				 M170.2,42.5c0.1-0.7,0.3-1.4,1.4-1.4c0,0.2,0.2,0.6,0.1,0.7c-1,1-0.9,2.2-1,3.5c0,0.2-0.1,0.4-0.1,0.8
				C169.6,44.8,170.1,43.6,170.2,42.5z M169.1,48.5c0.5,0.6,1,1.1,1.7,1.9c-0.1,0.8-0.1,1.7-0.2,2.6c-0.1,1.1-1.1,1.3-1.9,1.6
				c-0.5,0.2-1.3-0.3-1.6-0.9c-0.5-0.9-0.9-1.7-1.4-2.6c0.5-0.6,0.8-1.1,1.6-0.9c0.3,0.1,0.7-0.2,1-0.3
				C168.4,49.3,168.4,48.7,169.1,48.5z M168.3,42.7c0,0.4,0.1,0.7,0.1,0.9c-0.1,1-0.2,2,0.2,2.9c0.3,0.8-0.1,1.4-0.9,1.8
				c-1.4-0.8-1.9-2-2.2-3.4C166.4,44.2,167.3,43.5,168.3,42.7z M164.9,57c-1.4-0.4-2.3-1.4-3.2-2.3c-1.2-1.2-1.7-2.8-2.6-4.2
				c-0.3-0.5-0.1-1,0.3-1.3c0.7-0.6,1.3-1.1,2-1.6s1.4-1,2-1.5c0.7,1.1,1.5,2.3,2.3,3.6c-0.4,0.1-0.8,0.2-1.2,0.2
				c-1.1,0.1-1.3,0.2-1.2,1.5c0.9,0.1,1.3,0.8,1.6,1.6s0.8,1.6,1.2,2.4C165.8,55.9,165.4,56.4,164.9,57z M168.6,59
				c-0.5-0.1-1.1-0.3-1.6-0.5c-0.3-0.1-0.6-0.4-0.8-0.5c0.7-1.6,1.9-1.9,4.1-2.8c0,0.7,0,1.4,0,2.1c0.7,0,1.3,0.1,2,0.1
				c0.1,0.9-0.9,0.4-1,1.1c0.3,0.1,0.6,0.3,1.2,0.5c-0.4,0.2-0.6,0.4-0.8,0.4C170.5,59.4,169.5,59.2,168.6,59z M183.7,87
				c-0.9-5.5-1.7-10.9-2.6-16.3c-0.9-0.6-1.7-0.6-2.8-0.1c-0.4,4.7-0.7,9.5-1.1,14.5c-2-0.1-3.9,0.3-5.9-0.1
				c0.4-7.4,0.8-14.8,1.2-22.2c0.2,0,0.4,0,0.6,0.1c1.5,0.8,3.1,0.9,4.7,1c2.9,0.1,5.7,0.2,8.6,0.2c0.5,0,0.9,0,1.6,0
				c0.6,7.3,1.2,14.5,1.7,21.9C187.8,86.4,185.8,86.6,183.7,87z M191.9,94.2c0.1-0.6,0.5-0.8,1.1-1
				C192.8,94.3,192.8,94.3,191.9,94.2z M88.9,181c-3.2-0.3-6.4-0.2-9.6-0.3c-1,0-2-0.1-3-0.1c-2.2-0.1-4.5,0.5-6.7,0
				c-0.3-0.1-0.7,0.1-1,0.1s-0.5,0-0.8,0c-0.6,0-1.1-0.1-1.7-0.1c-1.2,0-2.4,0-3.5,0s-2.2-0.2-3.3-0.2c-1.4,0-2.7,0.3-4.1,0
				c-0.2,0-0.5,0.1-0.7,0.1c-0.3,0-0.6,0.1-0.9,0.1s-0.7,0-1,0c1-0.8,2.6-2.3,3.6-3.1c0.8-0.6,1.5-1.4,2-2.4s1-1.9,1.5-2.9
				c0.2-0.4,0.4-0.7,0.7-1c0.8-0.9,1.5-1.9,2.3-2.7c1.1-1.2,2.3-2.2,3.9-2.6c0.6-0.2,1.3-0.3,1.8-0.5c1.4-0.6,2.9-0.8,4.5-0.5
				c0.5,0.1,1,0.4,1.6,0.6c1.2,0.4,2.4,0.9,3.5,1.8c0.6,0.5,1.2,1,1.8,1.5c1.1,0.9,2.1,2,2.9,3.3c0.1,0.2,0.3,0.4,0.5,0.4
				c1.1,0,2.1,0.7,3,1.3c1.1,0.7,2.1,1.7,3.1,2.6c1.7,1.5,3.4,3,5.1,4.6C92.4,181.1,90.7,181.1,88.9,181z M212.8,182
				c-1,0.1-1.6,0.8-2.3,1.4c-2.1,1.7-4.2,3.4-6.3,5.1c-1.1,0.9-2.2,1.7-3.3,2.6c-1,0.7-2,1-3.2,0.3c-1.1-0.7-2.4-1-3.6-1.6
				c-1.8-1-3.6-2.2-5.4-3.3c-1-0.6-2.1-1.2-3.1-1.8c-0.9-0.5-1.8-0.7-2.9-0.7c-3.6,0-7.3,0-10.9,0c-1.8,0-3.4-0.4-4.9-1.3
				c-0.5-0.3-0.9-0.6-1.3-1c-0.2-0.1-0.2-0.4-0.4-0.6c0.2-0.1,0.3-0.2,0.4-0.2c1.6,0.4,3.2,0.3,4.9,0.1c0.7-0.1,1.5,0.2,2.2,0.2
				c3.1,0,6.1,0,9.2-0.1c2.1,0,4.3-0.2,6.4-0.2c0.5,0,1.1,0.3,1.6,0.3c1.8,0,3.6-0.2,5.4-0.2c0.8,0,1.6,0.1,2.4,0.1
				c2.2,0.2,4.4-0.1,6.5-0.2c1-0.1,2,0.2,3,0.2c1.6,0.1,3.2,0.1,4.8,0.1c0.2,0,0.5,0,0.7,0.1c0.1,0,0.3,0.2,0.3,0.3
				C213.1,181.7,212.9,182,212.8,182z"/>
		</g>
		<path class="st4" d="M146,23.9c-1.3-0.2-2.5-0.3-3.6-0.5c-2.2-0.3-4.5-0.5-6.7-0.8c-1.1-0.1-2.1-0.4-3.2-0.5
			c-2-0.2-4.1-0.4-6.2-0.7c-0.2,0-0.5,0-0.7-0.1c-1.9-0.7-4-0.8-6-1.1c-1.2-0.2-1.3-0.2-1.3-1.5c0-0.8,0.1-1.7,0.1-2.5
			c0.1-0.9,0.3-1.1,1.2-1c2.3,0.1,4.4,0.7,6.6,1.1c1.2,0.2,2.4,0.2,3.6,0.3c1.4,0.1,2.7,0.3,4.1,0.5c1.1,0.2,2.1,0.6,3.2,0.6
			c1.9-0.1,3.7,0.6,5.5,0.8c0.5,0.1,1,0,1.6-0.1c0.5,0,0.9,0.1,1.3,0.4c0.6,0.5,0.9,1,0.8,1.8c-0.1,0.7,0,1.4-0.1,2
			C146.2,23,146.1,23.4,146,23.9z"/>
		<path class="st5" d="M118.3,62.4c2.7-0.9,5.2-1.3,7.8-1.2c0.6,0,1.3-0.1,1.9-0.3c2.9-0.9,5.9-0.9,8.8-1.5c1.7-0.4,3.4-0.8,5.1-1.3
			c0.7-0.2,1.3,0,1.9,0.1c0.2,0,0.4,0.3,0.4,0.5c0,1.5,0.2,3-0.1,4.5c-1.3,0.2-2.5,0.4-3.7,0.6c-0.7,0.1-1.3,0.4-2,0.5
			c-1.4,0.2-2.7,0.3-4.1,0.5c-0.8,0.1-1.6,0.3-2.5,0.4c-1.6,0.3-3.2,0.6-4.8,0.9c-1.3,0.2-2.6,0.2-3.9,0.3c-1.1,0.1-2.2,0.3-3.1,1
			c-0.8,0.6-1.6,0.2-1.6-0.8C118.3,65.2,118.3,63.8,118.3,62.4z"/>
		<path class="st4" d="M143.7,42.2c-1.1,0.1-2,0.2-2.9,0.3c-1.3,0.1-2.7,0.2-4,0.3c-0.6,0-1.3,0.1-1.9,0.1c-1.7,0.1-3.5,0.3-5.2,0.4
			c-1.5,0-3-0.1-4.5-0.2c-1.1,0-2.1-0.1-3.2-0.1c-0.3,0-0.6,0.2-0.9,0.2c-0.7,0.1-1.3,0.3-2.1-0.2c0-1.2,0-2.5,0-3.7
			c0-0.6,0.4-0.9,0.9-1c0.9-0.2,1.9-0.4,2.8-0.4c2.4,0,4.8,0.2,7.2,0.3c0.8,0,1.6-0.1,2.4-0.1c1.4-0.1,2.8-0.2,4.2-0.4
			c2-0.2,3.9-0.5,5.9-0.7c1.1-0.1,1.5,0.2,1.6,1.3C143.7,39.5,143.7,40.8,143.7,42.2z"/>
		<path class="st4" d="M221.7,43.7c1.1,0,2,0,2.9-0.1c1.4-0.1,2.7-0.1,4.1-0.2c0.6,0,1.3-0.1,1.9-0.1c1.7-0.1,3.5-0.1,5.2-0.3
			c1.5-0.2,3.1,0.5,4.5,0.3c1.1-0.2,2.1-0.3,3.2-0.5c0.3,0,0.6,0.1,0.9,0.1c0.7,0.1,1.3,0.1,2.1-0.4c-0.1-1.2-0.3-2.5-0.4-3.7
			c-0.1-0.6-0.5-0.8-1-0.9c-0.9-0.1-1.9-0.2-2.8-0.1c-2.4,0.3-4.8-0.2-7.1,0.2c-0.8,0.1-1.6,0.1-2.4,0.2c-1.4,0-2.8,0.1-4.2,0.1
			c-2,0-4,0-5.9,0c-1.1,0-1.5,0.4-1.4,1.5C221.3,41,221.5,42.2,221.7,43.7z"/>
		<path class="st4" d="M220.9,60.7c0-0.6,0-1.3,0-1.9c0-0.5,0.3-0.8,0.9-0.7c1.8,0.1,3.5,0.1,5.3,0.3c1.5,0.2,3.1,0.3,4.6,0.4
			c0.9,0,1.7,0,2.6,0.1c2,0.2,3.9,0.4,5.9,0.6c0.4,0,0.8,0.1,1.2,0.1c1.1-0.1,2.2-0.1,3.3-0.2c0.7-0.1,1.4,0.4,1.4,1.1
			c0,1.1,0.1,2.2,0,3.4c-0.1,1-0.4,1.2-1.4,1.1c-0.7-0.1-1.3-0.2-2-0.2c-1.3-0.1-2.6-0.2-3.9-0.3c-1.6-0.1-3.2-0.4-4.8-0.5
			c-0.7-0.1-1.4,0-2-0.1c-2.6-0.2-5.2-0.4-7.9-0.6c-0.7,0-1.4,0-2.1,0c-0.6,0-0.9-0.3-0.8-0.9c0-0.5,0-1,0-1.6
			C220.9,60.7,220.9,60.7,220.9,60.7z"/>
		<path class="st5" d="M220.2,23.9c0-1.9,0-3.5,0-5c1-0.2,1.8-0.5,2.7-0.6c2.1-0.2,4.3-0.3,6.4-0.6c1.5-0.2,3.1-0.6,4.6-0.9
			c1.1-0.2,2.2-0.4,3.3-0.6c1.4-0.3,2.8-0.8,4.2-1.2c0.8-0.2,1.6,0,2.3,0.3c0.2,0.1,0.4,0.4,0.4,0.7c0,1.1,0,2.2,0,3.2
			c0,0.6-0.4,0.8-0.9,0.9c-2.3,0.3-4.6,0.7-6.9,1.1c-1.6,0.3-3.2,0.6-4.8,0.9c-1.3,0.2-2.6,0.5-3.9,0.5c-1.7,0-3.3,0.4-4.9,0.8
			C221.9,23.6,221.2,23.7,220.2,23.9z"/>
		<path class="st6" d="M5.1,188.1c0.7-0.1,1.5,0.2,1.8-0.7c0.1-0.1,0.6-0.3,0.8-0.1c0.4,0.2,0.6,0.6,1.1,1.1c0.2,0,0.7,0.1,1.1,0.2
			c0.8,0.1,1.5,0.1,2.1-0.7c0.6-0.8,1-0.7,1.7,0.2c0.1,0.2,0.4,0.3,0.6,0.3c0.9-0.1,1.9-0.1,2.8-0.3c0.4-0.1,0.7-0.2,1.2-0.4
			c0.3,0.3,0.6,0.6,1,0.9c0.7-0.2,1.4-0.3,1.8,0.7c-0.4,0.2-0.7,0.5-1.1,0.7c-0.4,0.1-0.9,0.2-1.1,0.1c-0.9-0.9-2-0.5-3-0.5
			s-2-0.1-3-0.2c-0.2,0-0.3,0-0.5,0c-1.6,0.9-3.1,0.3-4.6-0.2c-0.4-0.1-0.8-0.2-1.2-0.1c-1.1,0.3-2.1,0.6-3.3,0.3
			c-0.6-0.3-1.1-0.8-1.5-1.4c0.5-0.4,0.9-0.2,1.3,0C3.9,188.3,4.5,188.4,5.1,188.1z"/>
		<path class="st7" d="M344.4,191.7c-0.4,0.1-0.8,0.1-1.1,0.2c-1.3,0.5-2.5,0.6-3.8-0.1c-0.4-0.2-0.8-0.2-1.2,0.1
			c-0.7,0.4-1.4,0.7-2.1,0.9c-1.3,0.4-2.7-0.4-3-1.6c0-0.1,0-0.2,0-0.4c1,0.2,1.9,0.7,2.8,0.6s1.7-0.6,2.8-1.1
			c0.1,0.1,0.5,0.2,0.9,0.4c1.1,0.5,2.2,0.5,3.3-0.2c0.6-0.4,1.1-0.8,1.8-0.1c0.1,0.1,0.5,0.1,0.7,0.1
			C345.4,191.2,344.9,191.5,344.4,191.7z"/>
		<path class="st6" d="M71.9,194.1c-0.3,0.5-0.6,0.7-1.2,0.5c-0.4-0.2-0.9,0-1.3,0c-0.5,0-1,0-1.5-0.1c-0.8-0.1-1.5-0.4-2.3-0.1
			c-0.4,0.1-0.9,0-1.4-0.1c-0.8-0.1-1.4,0-2.2,0.4c-0.6,0.3-1.5,0.3-2.3,0.2c-0.5,0-1-0.2-1.5-0.4c-0.7-0.3-1.3-0.2-1.9,0.2
			c-1.3,1-2.7,0.8-4.1,0.1c-0.5-0.2-0.9-0.2-1.4-0.1c-1.1,0.3-2.1,0.5-3-0.4c-0.7-0.6-0.8-1-0.1-1.9c0.7,0.3,1.1,1.2,2,1
			c0.7-0.2,1.4-0.5,2.3-0.9c0.2,0.2,0.5,0.4,0.7,0.7c0.4,0.6,1,0.7,1.5,0.6c0.7-0.1,1.4-0.3,1.9-0.8s1.1-0.7,1.9-0.2
			c1,0.6,2.2,0.7,3.4,0.5c0.2,0,0.4-0.3,0.6-0.5c0.6-0.9,0.7-0.9,1.5-0.5c0.9,0.5,1.8,0.7,2.6-0.2c0.4-0.3,1.2-0.2,1.5,0.2
			c0.5,0.7,1.2,0.8,2,0.7c0.3,0,0.6,0,0.8,0C71.3,193.1,71.7,193.4,71.9,194.1z"/>
		<path class="st7" d="M166.9,185.2c0.3,0.1,0.6,0.2,0.9,0.3c0.5,0.2,1,0.3,1.5,0c0.7-0.4,1.6-0.1,2.1-0.9c0.1-0.2,0.8,0,1.2,0.2
			c1.1,0.4,2.2,0.8,3.4,0.4c0.2-0.1,0.4-0.1,0.5-0.2c0.5-0.3,0.9-0.2,1.2,0.2c0.5,0.7,1.2,0.7,1.9,0.7s1.3-0.1,1.7-0.8
			c0.5-0.7,0.9-0.8,1.5-0.3c0.8,0.6,1.6,0.7,2.5,0.3c0.1-0.1,0.3,0,0.5-0.1c0.2,0.2,0.4,0.5,0.6,0.8c-1.1,1-2.3,1-3.5,0.6
			c-0.6-0.2-0.9-0.2-1.4,0.1c-1.3,0.7-2.6,0.8-4,0.1c-0.5-0.3-1-0.4-1.5-0.2c-1.1,0.4-2.1,0.1-3.1-0.2c-0.4-0.1-0.7-0.3-1.1-0.4
			c-0.7-0.1-1.3,0.1-1.9,0.4c-1.6,0.8-2,0.7-3.2-0.6c-0.1-0.1-0.2-0.2-0.3-0.3C166.7,185.4,166.8,185.3,166.9,185.2z"/>
		<path class="st7" d="M255.9,185.2c0.3,0.1,0.7,0.2,1,0.3c0.3,0.1,0.6,0.2,0.8,0.1c0.8-0.4,1.8-0.2,2.5-1c0.3-0.4,0.9-0.1,1.3,0.1
			c1.1,0.4,2.2,0.9,3.3,0.5c0.2-0.1,0.4-0.1,0.5-0.2c0.5-0.4,0.9-0.2,1.3,0.2c0.9,0.9,2.6,0.8,3.5-0.1c0.8-0.9,0.8-0.9,1.9-0.2
			c0.6,0.4,1.2,0.5,1.9,0.3c0.3-0.1,0.6-0.2,0.9-0.2c0.2,0.3,0.4,0.5,0.6,0.9c-0.4,0.2-0.7,0.6-1.1,0.7c-0.8,0.1-1.7,0.4-2.6-0.2
			c-0.3-0.2-0.6-0.2-1,0c-1.3,0.9-2.7,1-4.2,0.2c-0.5-0.3-1.1-0.4-1.6-0.2c-1.1,0.4-2.1,0.1-3-0.3c-1.2-0.5-2.3-0.5-3.5,0.2
			c-1.1,0.7-1.9,0.3-2.7-0.8C255.9,185.5,255.9,185.4,255.9,185.2z"/>
		<path class="st7" d="M32.6,193.6c0.2,0.8,0.8,1,1.6,1c0.3,0,0.7,0.3,0.7,0.6c0.1,0.4-0.3,0.5-0.7,0.6c-0.6,0.1-1.1,0.2-1.6-0.3
			c-0.3-0.3-0.7-0.3-1.1-0.3c-0.7,0.1-1.5,0-2.2-0.1c-0.8-0.1-1.5-0.1-2.3,0.2c-0.8,0.4-1.7,0.2-2.6-0.1c-0.3-0.1-0.5-0.2-0.8-0.3
			c-0.6-0.4-1.1-0.3-1.7,0.1c-0.9,0.7-2,0.7-3.1,0.6c-1.2-0.1-1.9-0.9-2.4-1.8c0-0.1,0.1-0.2,0.1-0.3c0.3,0.1,0.7,0.2,1,0.4
			c1.7,1,3.3,0.5,4.8-0.5c0.8-0.6,1-0.6,1.7,0.1c1,0.9,2.3,0.9,3.3,0c0.4-0.3,0.8-0.4,1.1-0.1c1.2,0.9,2.4,0.7,3.6,0.2
			C32.2,193.6,32.3,193.6,32.6,193.6z"/>
		<path class="st6" d="M137.1,187.2c0.4,0.1,0.8,0.1,1,0.3c0.9,0.4,1.8,0.5,2.7,0.4c0.6,0,1.1-0.1,1.3-0.9c0.6,0.2,1.1,0.4,1.6,0.6
			c0.4,0.1,0.8,0.3,1.3,0.3c1.1-0.1,2.3,0.2,3.3-0.5c0.2-0.1,0.9,0.1,1,0.4c0.5,0.8,1.3,0.9,2.1,0.9c1,0,2.1,0.1,2.8-0.9
			c1,0.3,1,0.3,1.2,1.4c-0.2,0.1-0.5,0.3-0.7,0.3c-1.4,0.2-2.8,0.5-4.3,0.2c-0.5-0.1-1.1,0-1.5-0.3c-0.7-0.5-1.3-0.3-1.9-0.2
			c-1.3,0.2-2.7,0.3-4-0.2c-0.3-0.1-0.6,0-0.9,0.1c-1.5,0.5-2.9,0.2-4.4-0.5C137.2,188.1,137.1,187.8,137.1,187.2z"/>
		<path class="st6" d="M226.1,187.2c0.4,0.1,0.7,0.1,1,0.3c0.8,0.3,1.7,0.5,2.6,0.4c0.6,0,1.2-0.1,1.4-1c0.6,0.2,1.1,0.4,1.6,0.6
			c0.3,0.1,0.5,0.3,0.8,0.2c1.3,0,2.5,0.2,3.7-0.5c0.3-0.1,0.9,0.1,1.1,0.3c0.4,0.7,1.1,0.8,1.8,0.8c1,0,2.1,0.2,2.9-0.7
			c0.1-0.1,0.6-0.1,0.7,0c0.3,0.3,0.5,0.6,0.8,1c-0.2,0.2-0.3,0.4-0.5,0.4c-1.9,0.5-3.9,0.8-5.9,0.1c-0.9-0.3-1.8-0.4-2.8-0.2
			c-1.1,0.2-2.3,0.2-3.4-0.2c-0.3-0.1-0.6,0-0.9,0.1c-1.6,0.5-3,0.2-4.5-0.5C226.1,188.1,226,187.8,226.1,187.2z"/>
		<path class="st8" d="M123.9,190c-1-0.1-1.7-0.1-2.5-0.2c-0.3,0-0.7,0.1-0.9-0.1c-1.2-0.6-2.4-0.3-3.6,0.1
			c-0.8,0.3-1.7,0.4-2.3-0.1c-1.5-1-2.9-0.7-4.3-0.1c-0.9,0.4-1.7,0.3-2.6,0c-0.7-0.2-1.1-0.6-1.1-1.5c0.5,0,0.9,0,1.3,0.1
			c1.2,0.6,2.3,0.3,3.5-0.1c0.2-0.1,0.4-0.2,0.4-0.4c0.3-0.8,0.7-0.6,1.2-0.3c0.1,0.1,0.3,0.2,0.4,0.3c1.1,1.1,2.5,1,3.9,0.7
			c0.1,0,0.3-0.1,0.3-0.2c0.4-1,1.1-0.6,1.8-0.3c1.2,0.5,2.5,0.7,3.8,0.2c0.5-0.2,0.8,0,1,0.3c0.3,0.3,0.3,0.7,0,1.1
			C124,189.8,123.9,190,123.9,190z"/>
		<path class="st6" d="M317,185.5c0.4,0.1,0.7,0.1,1,0.3c0.8,0.3,1.7,0.4,2.6,0.4c0.6,0,1.2-0.1,1.4-0.9c0.5,0.1,1,0.1,1.3,0.4
			c0.6,0.5,1.3,0.5,2.1,0.5c0.9-0.1,1.9,0.1,2.8-0.5c0.2-0.1,0.9,0.1,1.1,0.3c0.4,0.7,1.1,0.8,1.8,0.8c1,0,2.1,0.2,2.9-0.7
			c0.1-0.1,0.6-0.1,0.7,0c0.3,0.3,0.5,0.6,0.8,1c-0.2,0.2-0.3,0.4-0.5,0.4c-1.9,0.5-3.9,0.8-5.9,0.1c-1-0.3-1.8-0.4-2.8-0.2
			c-1.1,0.2-2.3,0.2-3.4-0.2c-0.3-0.1-0.6,0-0.9,0.1c-1.6,0.5-3,0.2-4.5-0.5C317,186.4,317,186.1,317,185.5z"/>
		<path class="st6" d="M303.7,188.3c-1-0.1-1.8-0.1-2.5-0.2c-0.3,0-0.7,0-0.9-0.1c-1.2-0.5-2.3-0.3-3.4,0.1
			c-0.9,0.3-1.8,0.4-2.5-0.1c-1.5-1-2.9-0.6-4.3,0c-0.8,0.3-1.5,0.2-2.3,0c-0.7-0.2-1.2-0.6-1.2-1.6c0.4,0,0.9-0.1,1.2,0.1
			c1.2,0.6,2.3,0.3,3.5,0c0.2,0,0.3-0.2,0.4-0.3c0.5-0.7,0.6-0.7,1.3-0.3c0.2,0.1,0.5,0.3,0.7,0.5c1.1,1,2.4,0.6,3.6,0.4h0.1
			c0.6-1.3,1.4-0.6,2.2-0.3c1.1,0.3,2.3,0.6,3.4,0.2c0.6-0.2,0.9-0.1,1.2,0.3c0.3,0.4,0.2,0.8-0.2,1.2
			C303.8,188.2,303.7,188.3,303.7,188.3z"/>
		<path class="st6" d="M212.9,190c-1.1-0.1-2-0.1-2.9-0.2c-0.2,0-0.5,0-0.7-0.1c-1.2-0.5-2.3-0.3-3.5,0.1c-0.8,0.3-1.7,0.4-2.4-0.1
			c-1.5-1-2.9-0.6-4.3,0c-0.8,0.3-1.5,0.3-2.3,0c-0.7-0.2-1.2-0.6-1.3-1.4c0.4-0.3,0.9-0.3,1.3,0c1.2,0.6,2.3,0.3,3.5-0.1
			c0.2,0,0.3-0.2,0.4-0.4c0.3-0.7,0.7-0.6,1.2-0.3c0.1,0.1,0.3,0.1,0.4,0.3c1,0.9,2.2,1.2,3.5,0.8c0.4-0.1,0.7-0.2,0.9-0.6
			s0.6-0.4,1-0.2c1.4,0.6,2.9,1,4.5,0.4c0.2-0.1,0.7,0.2,0.9,0.4c0.2,0.2,0.3,0.6,0,1C213,189.8,212.9,190,212.9,190z"/>
		<path class="st6" d="M96.4,194.1c0.4,0.1,0.8,0.1,1.1,0.2c1,0.5,2,0.4,2.9-0.1c0.5-0.3,0.9-0.3,1.4,0c0.4,0.2,0.8,0.3,1.2,0.4
			c0.6,0.2,1.2,0.2,1.6-0.4c0.4-0.5,0.9-0.4,1.4-0.1c1.5,1,3.1,0.6,4.8,0c0.3,0.2,0.6,0.5,1.1,0.9c-0.3,0.3-0.5,0.5-0.8,0.6
			c-1.6,0.5-3.3,1.1-5,0.4c-0.2-0.1-0.6-0.2-0.8,0c-0.9,0.6-1.8,0.4-2.6,0.2c-0.8-0.2-1.5-0.3-2.3-0.1c-1.1,0.2-2.1,0.1-3.2-0.3
			C96.4,195.3,96.3,195.1,96.4,194.1z"/>
		<path class="st6" d="M178.6,192.1c0.4,0.1,0.8,0.1,1.1,0.2c1,0.5,2,0.4,2.9-0.1c0.5-0.3,0.9-0.3,1.4,0c0.4,0.2,0.8,0.3,1.2,0.4
			c0.6,0.2,1.2,0.2,1.6-0.4c0.4-0.4,0.8-0.5,1.3-0.2c1.6,1.1,3.1,0.6,4.9,0.1c0.2,0.2,0.6,0.5,1.1,0.8c-0.3,0.3-0.6,0.5-0.8,0.6
			c-1.6,0.5-3.3,1.1-5,0.4c-0.2-0.1-0.6-0.2-0.8,0c-0.9,0.6-1.9,0.4-2.8,0.1c-0.7-0.2-1.4-0.3-2.1-0.1c-1.1,0.2-2.2,0.1-3.3-0.3
			C178.6,193.4,178.5,193.2,178.6,192.1z"/>
		<path class="st6" d="M276.3,192.4c0.4,0.1,0.8,0.1,1.1,0.2c1,0.5,2,0.4,2.9-0.1c0.5-0.3,0.9-0.3,1.4,0c0.4,0.2,0.8,0.3,1.1,0.4
			c0.6,0.2,1.2,0.2,1.7-0.4c0.4-0.4,0.8-0.4,1.3-0.1c1.5,0.8,3.2,0.9,4.8,0c0.3,0.2,0.7,0.5,1.1,0.9c-0.3,0.2-0.5,0.5-0.7,0.6
			c-1.7,0.6-3.3,1.1-5.1,0.4c-0.2-0.1-0.6-0.1-0.8,0c-0.9,0.6-1.8,0.4-2.6,0.2c-0.8-0.2-1.5-0.3-2.3-0.1c-1.1,0.2-2.1,0.1-3.2-0.3
			C276.2,193.6,276.1,193.4,276.3,192.4z"/>
		<path class="st8" d="M242.3,192.4c1,0.2,1.9,0.7,2.8,0.6s1.7-0.6,2.8-1.1c0.1,0,0.5,0.2,0.8,0.4c1.2,0.6,2.4,0.6,3.5-0.2
			c0.5-0.4,0.9-0.5,1.6-0.1c0.9,0.5,2.1,0.5,3.1,0.2c1.2-0.3,1.4-0.3,2,1c-0.5,0.1-1.1,0.4-1.6,0.4c-1.3,0-2.6,0.2-3.9-0.2
			c-0.3-0.1-0.7,0-1,0.1c-1.4,0.5-2.7,0.7-4-0.1c-0.2-0.1-0.7,0-1,0.1c-0.7,0.3-1.4,0.7-2.2,0.9c-1.3,0.4-2.7-0.4-3-1.6
			C242.2,192.7,242.3,192.6,242.3,192.4z"/>
		<path class="st8" d="M132.4,192.5c0.2,0.1,0.5,0.1,0.6,0.2c0.4,0.8,1.1,0.6,1.8,0.6c0.5,0,1.1,0.2,1.6,0.3
			c-0.5,1.5-1.9,1.6-4.3,0.4c-0.2,0.1-0.4,0.1-0.7,0.2c-1.3,0.5-2.5,0.4-3.7-0.3c-0.6-0.4-1.2-0.4-1.9-0.3c-1.2,0.3-2.4,0.7-3.7,1.1
			c-1.7-0.6-1.7-0.6-2.4-1.9c0.4,0,0.8,0,1,0.1c1,0.5,2.1,0.3,3.1,0.1c1.1-0.3,2.3-0.2,3.3-0.9c0.4-0.3,0.7,0,0.9,0.2
			c1.3,1.3,2.4,1.4,4,0.3C132.2,192.6,132.3,192.5,132.4,192.5z"/>
		<path class="st6" d="M153.3,192.4c1,0.2,1.9,0.7,2.8,0.6c0.9-0.1,1.7-0.6,2.6-1c0-0.1,0-0.2,0-0.3c0.4,0.2,0.8,0.3,1.2,0.5
			c1.2,0.6,2.3,0.5,3.4-0.2c0.6-0.4,1-0.4,1.7-0.1c1,0.4,2.1,0.6,3.2,0.1c1-0.4,1.4-0.2,1.8,1c-0.3,0.1-0.6,0.3-1,0.3
			c-1.4,0-2.8,0-4.2-0.1c-0.5,0-0.9-0.1-1.4,0.1c-1.3,0.6-2.6,0.7-3.9-0.1c-0.4-0.2-0.7-0.2-1.1,0.1c-0.7,0.4-1.4,0.7-2.1,0.9
			C155,194.9,153.6,194,153.3,192.4z"/>
		<path class="st8" d="M225.5,193.7c-0.3,0.8-0.6,1.1-1.4,1.1c-0.9,0-1.8,0.1-2.5-0.5c-0.4-0.3-0.7-0.1-1.1,0
			c-1.3,0.5-2.5,0.5-3.7-0.3c-0.9-0.6-1.7-0.4-2.6-0.1c-0.9,0.2-1.9,0.8-2.8,0.8c-0.7,0.1-1.6,0-2.1-0.7c-0.2-0.3-0.4-0.7-0.7-1.2
			c1.5,0.1,2.8,0.7,4.2,0.3c1.3-0.4,2.7-0.2,3.7-1.3c0.8,0.6,1.3,1.5,2.4,1.5c0.9,0,1.7-0.2,2.5-0.9c0.4,0.3,0.8,0.5,1.2,0.8
			c0,0.1-0.1,0.1-0.1,0.2c0.5,0,1,0,1.5,0C224.4,193.4,224.9,193.6,225.5,193.7z"/>
		<path class="st8" d="M307.6,190.2c0.6,0.6,1.1,1.4,2.2,1.4c0.9,0,1.7-0.3,2.4-0.9c0.3,0.1,0.6,0.1,0.7,0.2
			c0.4,0.8,1.1,0.6,1.8,0.6c0.5,0,1.1,0.2,1.7,0.3c-0.2,0.8-0.6,1.1-1.4,1.1s-1.7,0.1-2.4-0.4c-0.4-0.2-0.7-0.2-1.1-0.1
			c-1.2,0.5-2.5,0.6-3.7-0.2c-1-0.7-1.9-0.4-2.8-0.1s-1.8,0.7-2.7,0.8c-0.7,0-1.6,0-2.1-0.8c-0.2-0.3-0.4-0.7-0.8-1.3
			C302.4,192,304.9,191.4,307.6,190.2z"/>
		<path class="st9" d="M30.9,188c0.8,0.2,1.6,0.4,2.4,0.5c0.7,0.1,1.3-0.1,1.6-0.7c0.3-0.5,0.6-0.5,1.1-0.2c1.6,0.8,3.2,1.2,4.9,0.2
			c0.3-0.2,0.9,0,1.3,0.2c1.2,0.6,2.4,0.8,3.5-0.2c0.4-0.4,0.9-0.1,1.2,0.2c0.3,0.2,0.4,0.6,0.2,0.9c-0.1,0.1-0.1,0.3-0.2,0.4
			c-0.3,0-0.5,0-0.8,0c-1,0-2.1,0.1-3.1,0.1c-1-0.1-2-0.1-3.1,0s-2.2-0.1-3.3-0.2c-0.4-0.1-0.7-0.1-1.1,0.1
			c-1.5,0.8-3.1,0.5-4.5-0.3C30.4,188.7,30.5,188.4,30.9,188z"/>
		<path class="st10" d="M255.9,185.2c0,0.2,0,0.3,0,0.5c-0.3-0.2-0.6-0.5-1-0.8C255.4,184.6,255.6,185,255.9,185.2z"/>
		<path class="st10" d="M166.9,185.2c-0.1,0.1-0.2,0.2-0.3,0.3c-0.2-0.2-0.5-0.4-0.7-0.6c0-0.1,0.1-0.1,0.1-0.2
			C166.3,184.8,166.6,185,166.9,185.2z"/>
		<path class="st11" d="M162.7,90.6c0.6,0.2,0.8,0.4,0.4,1c0.3,0.1,0.5,0.2,0.7,0.4c0.8,1.1,1.8,1,3,0.9c2.9-0.4,5.8-0.6,8.8-1
			c0.5-0.1,1-0.3,1.5-0.4c0.2-0.1,0.5-0.2,0.7-0.1c1.3,0.4,2-0.5,2-2c0-0.4,0-0.8-0.2-1c-0.4-0.6-0.3-1.1-0.1-1.7
			c0.8-0.1,1.6-0.2,2.3-0.2c0.3,1.9,1.2,3.4,2.6,4.7c1,0.9,1.8,2,2.8,2.9c0.5,0.5,1.2,0.9,1.9,1.2c0.9,0.4,1.8,0.8,2.7,1.1
			c1,0.3,2,0.1,2.8-0.6c0.3-0.3,0.4-0.9,0.7-1.5c0.2,0.2,0.6,0.5,0.7,0.8c0.3,0.9,1.1,1.3,1.8,1.8c0.3,0.2,0.7,0.4,1.1,0.5
			c2.2,1.1,3.6,2.8,4.4,5.1c0.6,1.8,1.3,3.5,2,5.4c-0.5,0-0.9,0-1.2,0c-0.4,0-0.7,0-1,0.2c-0.2,0.1-0.4,0.5-0.4,0.7s0.3,0.4,0.5,0.5
			c0.6,0.2,1.3,0.3,1.9,0.5c1.2,0.4,2.3,0.8,3.4,1.4c3.1,1.6,6.2,3.3,9.3,4.9c1.4,0.8,2.8,1.5,4.1,2.4c1.1,0.8,2.3,1.6,2.8,3
			c0.1,0.2,0.4,0.3,0.7,0.3c1.7,0.2,3.3,0.8,4.8,1.7c0.8,0.5,1.6,0.9,2.4,1.4c1.5,0.8,2.5,2,3.6,3.3c0.4,0.6,1,1,1.4,1.6
			c1.1,1.8,1.6,3.8,1.6,5.9c0,0.9,0.2,1.7,0.3,2.6c0.3,2.2-0.2,4.4-0.9,6.4c-0.5,1.5-1.1,3-1.7,4.5c-0.2,0.5-0.4,0.9-0.7,1.4
			c-0.7,1.2-1.5,2.3-2.3,3.5s-1.3,2.5-1.6,3.8c-0.3,1.7-0.5,3.5-0.9,5.2c-0.3,1.3-0.8,2.6-1.2,3.9c-0.2,0.1-0.5,0.2-0.7,0.4
			c-1,1-1.9,2.2-2.4,3.5c-0.3,0.9-0.2,1.9-0.3,2.8c-1,1.6-2.6,2.4-4.3,3.1c-1,0.4-2,0.7-3,1.1c-0.5,0.2-1,0.5-1.5,0.8
			c-0.4,0.2-0.8,0.5-1.3,0.5c-1.6,0.1-3.2,0.2-4.8,0.3c-0.9,0-1.9,0-2.8,0.3c-0.6,0.2-1.4,0.2-2,0.1c-1.7-0.3-3.5-0.1-5.2,0
			c-1.1,0.1-2.3,0.3-3.4-0.1c-0.1,0-0.3,0-0.5,0c-1.4,0.4-2.9-0.1-4.4,0.1c-1.4,0.2-2.8-0.1-4.2-0.1c-1,0-2,0-3,0
			c-0.8,0-1.7-0.1-2.5-0.1c-0.6,0-1.2,0.2-1.7,0.2c-1.2,0.1-2.4,0.3-3.5,0.1c-1.3-0.2-2.5,0-3.8,0.1c-2.5,0.1-5.1,0-7.6,0
			c-1,0-2.1-0.2-3.1-0.3c-0.4-0.1-0.9-0.2-1.2-0.5c-0.9-0.9-1.9-1.7-2.7-2.7c-1.2-1.5-2.2-3.1-3.2-4.8c-0.8-1.3-1.5-2.7-2.3-4
			c-0.7-1.1-1.4-2.2-2.2-3.2c-0.9-1.2-1.8-2.4-2.7-3.5c-1.2-1.4-2.6-2.6-3.8-3.9c-0.3-0.3-0.5-0.8-0.8-1.1c-0.5-0.6-1.1-1.2-1.7-1.8
			c-0.8-0.8-1.7-1.6-2.3-2.6c-0.5-0.7-0.7-1.7-0.9-2.5c-0.4-1.7-0.6-3.4-0.6-5.2c0-1.5-0.3-2.9-0.4-4.4c-0.1-1.7,0-3.4,0-5.1
			c0-1.9,0-3.9,0-5.8c0-0.2,0.1-0.4,0.1-0.6c0-0.2-0.7-3-0.7-3.2c0.7-1.4,1.1-0.7,1.7-2.1c0.5-1.1,1-2.6,1.5-3.7
			c0.3-0.6,1.5-0.3,1.4-1c0.4-0.4,0.8-0.8,1.2-1.2c0.5-0.6,1.1-1,1.6-1.7c0.5-0.8,0.7-1.6,1-2.4c0.5-1.2,1-2.4,1.4-3.7
			c0.6-1.9,1.6-3.4,3.4-4.4c0.7-0.4,1.5-0.7,2-1.3c0.7-0.8,1.3-1.8,1.7-2.9c0.8-2.1,1.8-4,3-5.9c0.1-0.2,0.3-0.5,0.6-0.6
			c0.9-0.6,1.8-1.3,2.8-1.8c0.4-0.2,0.6-0.4,0.3-0.8C162.3,90.8,162.5,90.7,162.7,90.6z M194.8,148.2c0.2-0.1,0.5-0.2,0.7-0.3
			c-0.2-1.1-0.2-1.1-1.2-1.3c-0.9-0.2-1.8-0.1-2.7,0.4c1,1.1,0.6,2.2,0.8,3.3c-0.2,0.5-1,0.2-0.9,0.9c1.3,0,2.6-0.1,3.9-0.2
			c0.4,0,0.8-0.3,1.2-0.5c-0.4-0.6-0.1-1.4-1-1.3c-0.6,1.2-0.7,1.3-2.2,0.8c0-0.3,0-0.5,0-0.8c0.3-0.1,0.7-0.1,0.9-0.3
			c0.1-0.1,0.2-0.3,0.3-0.5C194.6,148.4,194.7,148.3,194.8,148.2z M219.6,124.5c0.7,0.1,1.1-0.2,1.3-0.8c0.2-0.6,0-1.1-0.4-1.5
			c-1.7-1.5-3.5-2.9-5.2-4.4c-0.7-0.6-1.3-1.2-2-1.8c-0.9-0.8-1.3-0.8-2.2,0.2c-0.5,0-1-0.2-1.3,0.4s0.2,0.9,0.5,1.2
			c0.5,0.5,1,0.9,1.5,1.4c1.2,1.2,2.5,2.5,3.7,3.7c0.6,0.6,1.2,1.1,1.6,1.7c0.5,0.7,1,0.9,1.8,0.9
			C219.2,125.1,219.4,124.8,219.6,124.5z M187.2,113.3c-0.1-0.1-0.3-0.2-0.4-0.2c-0.7,0-1.7,0.5-1.3,1.2c0.4,0.8,0.8,1.6,1.2,2.4
			c0,0.6-0.1,1.3,0,1.8c0.3,1,0,1.7-0.6,2.4c-0.3,0.3-0.4,0.7-0.7,1c-0.9,0.9-0.6,2-0.6,3c0,0.5,0.5,0.8,1,0.8
			c0.6,0,0.6-0.4,0.7-0.8c0.1-0.1,0.1-0.3,0.1-0.5c0.2,0.1,0.4,0.3,0.5,0.4c0.3,0.4,0.7,0.6,1.2,0.5c0.9-0.2,1.7,0,2.6,0
			c1.2,0,1.9-1.1,1.2-2c-0.6-0.8-0.9-1.5-0.7-2.5c0-0.1-0.1-0.1-0.1-0.2c-0.2-1.2-0.4-2.4-0.6-3.6c-0.2-1.2-0.4-2.3-0.7-3.5
			c-0.2-1-1.1-1.3-2-0.8C187.9,113,187.6,113.1,187.2,113.3z M195.3,109.6c-0.3-0.3-0.5-0.7-1-0.4c-0.2,0.2-0.5,0.7-0.4,0.9
			c0.4,0.9,0.6,1.9,1,2.7c0.8,1.7,2,3.2,4.1,3.6c1.7,0.3,1.7,0.4,1.4,2.1c-0.4,2.1,0.2,4,1.2,5.8c0.6,1,1.3,1.3,2.4,1
			c0.4,0.1,0.8,0.3,1.2,0.3c0.9,0,1.2-0.3,1.3-1.3c0.1-0.8-0.5-1.2-1-1.7c-1.1-0.9-1.2-2.2-1.2-3.5c0-0.9,0.2-1.8,0.2-2.7
			c0-0.5-0.3-1-0.6-1.4c-0.4-0.4-1-0.6-1.6-0.8c-0.7-0.2-1.4-0.5-1.9-1.2c-0.8-1-1.6-2.1-2.3-3.1
			C197.1,108.7,196.8,108.6,195.3,109.6z M158.9,127.1c0.1,0.1,0.3,0.2,0.4,0.3c1.2,0.9,2.1,0.7,2.7-0.7c0.3-0.6,0.5-1.3,0.7-1.9
			c0.3-1.1,0.5-2.2,0.2-3.4c-0.2-0.8-0.2-1.7,0.3-2.6c0.6-1.1,1.1-2.2,1.6-3.4c0.5-1,0.9-1.9,1.3-2.9c0.4-1.1-0.2-2-1.3-2.1
			c-0.3,0-0.6,0-0.8,0.1c-0.9-0.3-1.2-0.1-1.5,0.5s-0.5,1.1-0.8,1.7c-0.4,0.8-0.7,1.7-1.1,2.5c-0.1,0.2-0.1,0.5-0.2,0.7
			c-0.9,0.8-1,2.1-1.5,3.1c-0.3,0.6-0.4,1.3-0.2,1.9c0.3,0.9,0.2,1.8-0.1,2.7c-0.3,0.7-0.5,1.5-0.8,2.2c-0.3,0.8-0.2,0.9,0.6,1.2
			C158.5,127,158.7,127,158.9,127.1z M168.2,127.4c0,0.4,0.2,0.6,0.7,0.7c0.8,0.1,1.5-0.2,1.8-1.2c0.4-1.4,1-2.7,1.9-3.8
			c1-1.3,2.2-2.5,3.5-3.5s1.4-2.1,1.1-3.6c-0.5-2.6-1-5.1-1-7.8c0-0.2,0-0.5,0-0.7c-0.2-1-0.7-1.2-2.1-1.2c-0.2-0.1-0.4-0.4-0.5-0.3
			c-0.3,0.1-0.6,0.3-0.7,0.5c-0.2,0.5-0.3,1-0.3,1.5c0,0.9,0.3,1.7,0.2,2.6c-0.1,1.4,0.1,2.7,0.4,4.1c0.1,0.7,0.2,1.5-0.3,2.2
			c-1,1.3-1.9,2.6-2.8,4c-1.1,1.6-2.7,2.8-2.6,5c0,0.1-0.1,0.1-0.1,0.2C166.8,127,167,127.3,168.2,127.4z M148.7,125.9
			c0.9,1.2,2,1.2,2.6-0.1c1.2-2.3,2.4-4.7,3.6-7c0.8-1.6,0.9-3.2,0.5-4.9c-0.1-0.5,0-0.9,0.4-1.3c0.4-0.3,0.8-0.5,1.1-0.9
			c1.8-1.9,3.5-3.8,5.2-5.7c0.8-0.9,0.4-1.9-0.8-2.1c-0.1-0.3-0.3-0.6-0.4-0.9c-1,0.2-1.1,0.3-1.5,0.9c-0.6,1-1.2,2-2,2.8
			c-1.2,1.4-2.7,2.6-4.3,3.5c-0.5,0.3-1,0.6-1.3,1s-0.6,1-0.6,1.5c0,0.8,0.3,1.6,0.3,2.4c0,0.9-0.1,1.9-0.4,2.8
			c-0.3,1-1,1.9-1.5,2.8c-0.7,1.4-1.5,2.9-2.3,4.4C147.6,125.6,148.1,125.8,148.7,125.9z M195.5,158c0.4,0.8,0.8,1.5,1.3,2.3
			c0.4-0.2,0.8-0.4,1.1-0.6c-0.4-0.7-0.8-1.2-1.1-1.7c0.3-0.8,1.4-1,0.9-2.1c-0.7-0.3-1.5-0.9-2.3-0.9s-1.8-0.2-2.6,0.6
			c0.4,0.2,0.8,0.4,1.1,0.6c-0.1,1.2,0.3,2.5-0.9,3.4c0.6,0.7,1,0.7,2,0.2C195.1,159.3,194.3,158.5,195.5,158z M218.1,142
			c0-0.6,0-1.1-0.1-1.6c-0.2-0.9-0.1-1.6,0.4-2.3c-1-0.7-1.5-0.6-2.1,0.2c0.8,0.5,0.6,1.2,0.6,2.1c-0.7-0.8-1.3-1.5-2-2.1
			c-0.2-0.2-0.6-0.3-0.8-0.2c-0.1,0-0.3,0.4-0.3,0.7c0,0.8,0,1.6,0,2.5c-0.4,0.2-0.7,0.4-1.1,0.6c0.7,0.6,1.8,0.6,2.1,0.1
			c0.1-0.1,0.1-0.4,0.1-0.5c0-0.4,0-0.7,0.1-1.3c0.6,0.8,1.1,1.3,1.5,1.8C216.9,142.3,217.3,142.4,218.1,142z M188,159.3
			c-0.1-0.4-0.2-0.8-0.3-1.1c0.4-0.4,1.3,0,1.1-1c-0.3,0-0.7-0.1-1-0.1c0-0.4,0-0.4,1.2-0.2c0.2-0.1,0.5-0.2,0.8-0.3
			c-0.1-0.4-0.1-0.7-0.1-1c-0.9-0.3-3.3-0.1-4,0.3c1.5,1.1,1.2,2.4,0.4,4.1c1.3,0.3,2.8,0.3,4.1-0.1c0-0.3,0.1-0.7,0.1-1
			c0-0.2-0.3-0.5-0.5-0.6c-0.3-0.1-0.6,0-0.7,0.5c0,0.2-0.1,0.4-0.2,0.6C188.7,159.3,188.4,159.3,188,159.3z M185.3,138.3
			c0.7,0.1,1.1,0,1.6,0.2c0.4,0.1,0.5,0.8,1.1,0.5c0.2-0.5,0.2-1.2-0.4-1.3c-1.2-0.2-2.3-0.3-3.5,0.2c0,0-0.1,0.1-0.1,0.3
			c0.8,0.4,0.5,1.2,0.5,1.9c0.1,0.7,0.4,1.5-0.7,1.8c0.9,0.5,2.3,0.7,3.2,0.5s1.3-1,0.9-1.8c-0.1-0.2-0.4-0.3-0.6-0.3
			c-0.1,0-0.3,0.2-0.4,0.4c-0.1,0.3-0.1,0.5-0.1,0.8c-1.2,0.4-1.2,0.4-1.2-1.3c0.4-0.1,0.8-0.3,1.2-0.4c0-1-0.8-0.4-1.2-0.5
			C185.6,139,185.5,138.8,185.3,138.3z M157.3,139.3c0.1,0.3,0.2,0.7,0.2,1.1c0,0.8,0.1,1.7-0.9,2.1c0,0,0,0.1,0,0.2
			c1.3,0.7,3.2,0.3,4.1-0.7c0.9-1,0.2-3.5-1.2-3.7c-0.4,0-0.9-0.2-1.3-0.2c-0.6,0.1-1.3-0.2-1.9,0.5
			C156.6,139,156.9,139.1,157.3,139.3z M205.7,154.8c-1.2,0.1-2.3,0.1-3.4,0.2c-0.5,0.1-1,0.2-1.5,0.5c-0.2,0.1-0.3,0.5-0.3,0.8
			c0,0.2,0.3,0.4,0.4,0.5c0.4,0.1,0.6-0.1,0.6-0.5c0.1-0.7,0.6-0.4,1.1-0.4c0,1,0,1.9,0,2.8c-0.3,0.3-1,0.2-1,0.8
			c0.7,0.5,1.5,0.4,2.3,0.4c0.2,0,0.5-0.2,0.6-0.4c0.1-0.2-0.2-0.4-0.3-0.7c-0.1-0.3-0.3-0.5-0.4-0.8c-0.1-0.6-0.1-1.2-0.2-1.9
			c0.4-0.2,0.8-0.3,1,0.3c0.1,0.2,0.4,0.4,0.5,0.4c0.2-0.1,0.5-0.4,0.5-0.6C205.8,155.7,205.7,155.3,205.7,154.8z M175.2,147.4
			c0.9,0.6,0.9,0.6,1,1.5c0.1,0.4,0.2,0.9,0.1,1.3c-0.1,0.4-0.3,0.8-0.6,1.3c0.8,0.1,1.4,0.5,2-0.3c-0.2-0.4-0.3-0.7-0.5-1.2
			c0.4-0.1,0.7-0.3,1-0.4c0.1,0.4,0.2,0.7,0.3,1c0.1,0.4,0.2,0.7,0.7,0.6c0.4-0.1,0.4-0.5,0.3-0.9c-0.2-0.7-0.4-1.3,0.1-2
			c0.3-0.4,0.1-0.9-0.4-1.2c-1-0.6-2.1-0.5-3.1-0.4C175.8,146.8,175.6,147.2,175.2,147.4z M180.5,140.4c0.7-0.7,0.7-1,0.3-1.4
			c-0.9-1-2.6-1.2-3.8-0.4c0.9,1,0.7,2.2,0.6,3.3c-0.5,0.3-0.5,0.3-0.7,0.8c0.7,0,1.4,0,2.1,0c-0.1-0.7-0.3-1.2-0.4-1.8
			c1-0.1,1.3,0.5,1.2,2.1c0.4-0.1,0.9-0.1,1.3-0.2C181,141.9,180.8,141.2,180.5,140.4z M202.2,147.5c0.7,0.1,1.4-0.2,1.8,0.5
			c0.1,0.1,0.6,0.1,0.6,0c0.2-0.3,0.3-0.7,0.3-1c0-0.1-0.4-0.3-0.7-0.3c-0.9,0-1.7,0-2.6,0c-0.4,0-0.8,0.2-1.2,0.3
			c0,0.1,0,0.1,0,0.2c0.3,0.1,0.5,0.2,0.8,0.3c0.2,1.1,0.3,2.1-0.5,3.1c0.3,0.1,0.6,0.3,0.8,0.3c0.5,0,1-0.1,1.4-0.2
			c0.2-0.1,0.3-0.4,0.3-0.6c0-0.1,0-0.3,0-0.4c0.6-0.4,0.3-0.9,0.3-1.4c-0.5,0-0.9,0-1.3,0C202.3,148.1,202.2,147.9,202.2,147.5z
			 M174.1,155.9c-1.3,0-2,0.7-1.9,2c0,0.5,0.2,0.9,0.3,1.4s0.4,0.8,0.9,0.8c0.5,0.1,1,0.1,1.5,0.1c0.7,0,1.1-0.4,1.2-1.1
			c0-0.3,0.1-0.6,0.1-0.9C176.3,156.5,175.7,155.9,174.1,155.9z M178.3,155.9c0,0.1,0,0.2-0.1,0.3c1.1,0.4,1.5,1.4,1.8,2.4
			c0.2,0.4,0.3,0.9,0.5,1.3c0.1,0.2,0.5,0.6,0.6,0.6c0.3-0.1,0.8-0.4,0.8-0.7c0.2-1.3,0.7-2.6,1.5-3.7c-0.7-0.5-0.7-0.5-2,0.1
			c0.7,0.8,0,1.4-0.4,2.1c-0.4-0.7-0.7-1.4-1.1-2.1c0.1-0.2,0.2-0.3,0.4-0.8C179.7,155.6,179,155.7,178.3,155.9z M170.3,151.1
			c-0.7-0.3-1.3-0.3-1.5-1s-0.2-1.4,0.2-2.1c0.5-0.6,1.1-0.6,1.8-0.3c0.1,0.1,0.4-0.1,0.6-0.2c0.1-0.1-0.1-0.3-0.2-0.5
			c-0.1-0.1-0.2-0.1-0.3-0.2c-0.9-0.3-2.4,0.2-2.8,1c-1,1.9-0.4,3.4,1.8,4c0.5,0.1,1-0.1,1.3-0.6c0.4-0.5,0.7-1,0.4-1.7
			c-0.1-0.1-0.2-0.3-0.3-0.4c-0.5-0.3-1.5-0.1-2.1,0.3c0.2,0.9,1.1,0.1,1.5,0.7C170.7,150.5,170.5,150.8,170.3,151.1z M213.7,155.1
			c-1.3-0.5-1.6-0.4-2.2,0.4c-0.2,0.3-0.5,0.4-0.8,0.7c-0.5-0.3-0.9-0.5-1.3-0.8c-0.8-0.7-1-0.7-1.8-0.1c0.7,0.6,1.5,1.1,2.3,1.7
			c0.4,0.3,0.4,0.6,0.5,1c0.2,0.7-0.6,1-0.7,1.5c1.3,0.6,2,0.2,2-1c0-0.2,0-0.4,0-0.6c-0.2-1.1,0.4-1.8,1.3-2.2
			C213.2,155.6,213.4,155.4,213.7,155.1z M167.8,160.1c-0.5-0.5-1-1-0.8-1.7c0.5-0.2,1.1-0.4,1.5-0.7c0.3-0.2,0.6-0.6,0.5-0.8
			c-0.2-0.7-0.4-1.4-1.3-1.6c-0.9-0.2-1.8-0.2-2.8,0.5c1,0.2,1.1,0.7,1.1,1.4c-0.1,1,0,2-0.6,2.9
			C166.7,160.6,166.9,160.6,167.8,160.1z M211.6,139.3c-0.1-1.1-0.4-1.5-1.4-1.8c-0.7-0.2-2,0.3-2.2,0.9c-0.3,0.9-0.2,1.9,0.3,2.8
			c0.1,0.2,0.3,0.3,0.5,0.4c1.2,0.4,2.3,0.4,2.6-1.4C211.5,140,211.6,139.6,211.6,139.3z M170.7,139c0,1.3,0,2.5,0,3.7
			c1,0.1,1,0.1,1-1.7c0.4,0,0.8,0,1.1-0.2c0.4-0.2,0.9-0.5,1-0.9c0.1-0.3-0.2-0.8-0.4-1.1c-0.2-0.2-0.5-0.5-0.8-0.5
			c-0.9-0.1-1.9-0.1-2.8-0.1c-0.1,0-0.1,0.2-0.2,0.3C170,138.7,170.3,138.8,170.7,139z M200.4,138.1c-0.6-0.7-1.3-0.8-2.2-0.3
			c-0.7,0.4-0.8,1-0.3,1.6c0.3,0.4,0.8,0.7,1.1,1.1c0.1,0.2,0.1,0.4,0.2,0.7c-0.8,0.1-1.4-0.8-2.1,0c0.3,0.3,0.6,0.5,1,0.7
			c0.8,0.5,1.4,0.3,2.1-0.5c0.4-0.6,0.3-1.1-0.3-1.7c-0.4-0.3-0.7-0.7-1-1.1C199.3,138,200.1,138.8,200.4,138.1z M205.4,137.3
			c-0.8,0-1.7-0.7-2.1,0.5c1,0.4,0.6,1.2,0.7,1.9c0.1,0.8-0.1,1.4-0.7,2c0.5,0.1,0.8,0.2,1.2,0.3c0.8,0.2,1,0,0.8-0.9
			C204.9,139.9,204.5,138.6,205.4,137.3z M184.1,147.5c0.4,0.3,0.7,0.4,1.2,0.7c0,0.9-0.1,2-0.1,3c0.5,0,1,0.1,1.6,0.1
			c0.2,0,0.4-0.3,0.5-0.4c0-0.2-0.1-0.5-0.3-0.7c-0.1-0.1-0.4-0.1-0.6-0.2c0-0.6-0.1-1.1-0.1-1.6s1-0.6,0.4-1.4
			C185.8,146.9,185,146.9,184.1,147.5z M192.8,138.9c0.4-0.3,0.7-0.5,1.1-0.7c-0.3-0.1-0.5-0.2-0.6-0.2c-0.6,0-1.2,0.1-1.5,0.7
			s0.3,0.9,0.7,1.3c0.3,0.3,0.6,0.6,0.9,1c-0.3,0.1-0.6,0.1-0.8,0s-0.4-0.3-0.5-0.2c-0.2,0-0.5,0.2-0.7,0.3c0.1,0.2,0.2,0.5,0.3,0.6
			c0.6,0.2,1.2,0.3,1.8,0.3c0.5,0,0.8-0.6,0.6-1.1c-0.1-0.4-0.4-0.7-0.6-1C193.3,139.4,193.1,139.2,192.8,138.9z M165.3,149.5
			c-0.3-0.5-0.5-0.8-1.1-0.6c-0.5,0.2-1.2,0.1-1.8,0.2c-0.5,0-1,0-1.5,0c-0.4,0-0.7,0.2-0.6,0.7c0.1,0.4,0.4,0.4,0.7,0.4
			c1.1-0.1,2.3-0.2,3.4-0.3C164.7,149.8,164.9,149.7,165.3,149.5z M209.1,147.9c0.4,1.1,1.2,1,1.8,1c1.1,0,2.1-0.1,3.2-0.1
			c0.4,0,0.7-0.1,0.6-0.5c0-0.2-0.5-0.4-0.7-0.4c-0.7,0.3-1.4,0.1-2.1,0C211,148,210.1,148,209.1,147.9z"/>
		<path class="st12" d="M176.1,36c0.9,0.4,1.7,1,2.7,0.5c0.1-0.1,0.3-0.1,0.5-0.3c-0.2-0.5-0.4-0.9-0.9-1c-0.4-0.1-0.7-0.3-1.1-0.5
			c-0.5-0.3-0.9-0.5-0.9-1.2c0-0.6-0.4-1.3-0.6-1.9c-0.1-0.4-0.3-0.9-0.4-1.4c-0.7-0.2-1.6-0.4-1.6-1.5c0.2,0,0.3,0,0.4,0
			c0.3-0.1,0.8-0.1,0.9-0.3c0.2-0.3,0-0.7-0.3-1c-0.5-0.4-0.4-0.7,0.1-1c0.1-0.1,0.3-0.2,0.4-0.2c0.1-0.1,0.3-0.1,0.5-0.2
			c0.7,0.8,1.6,0.4,2.4,0.1c0.2-0.1,0.6-0.4,0.6-0.6c-0.1-0.8,0.5-1,1-1.3c0.8-0.4,1.2-1,1.2-2c0.3,0.1,0.5,0.1,0.9,0.2
			c0.2,1.2,0.3,2.3,0.5,3.5c0.3,1.5,1.4,2.4,2.9,2.4c0.7,0,0.9,0.2,1.1,0.8c0.2,0.7,0,1.3-0.6,1.5c-0.2,0.1-0.4,0.1-0.6,0.1
			c-1,0.4-0.9,0.4-0.9,1.5c0,1.4-0.2,2.8-0.3,4.2c0,0.5,0,1.1,0,1.7c-0.7,0.7-1.7,0.8-2.7,1c-0.2,0.1-0.5,0-0.7,0
			c-1.1-0.3-2.2-0.6-3.1-1.1c-0.6-0.3-1.1-1-1.6-1.5C175.9,36.4,176,36.2,176.1,36z M177.8,32.3c-0.1,1-0.1,1,0.4,1.3
			c1,0.5,2,0.4,2.9-0.4c0.3-0.3,0.5-0.6,0-1.1C180.1,32.4,179.1,33.2,177.8,32.3z M178.9,28.7c-0.7,0.8-1,1.6-1.2,2.6
			c0.5,0.2,1,0.7,1.5,0.1c0.1-0.1-0.2-0.6-0.2-0.9C178.8,30,179.4,29.6,178.9,28.7z M181.5,27.7c-0.5,0.1-0.9,0.1-1.2,0.3
			c-0.2,0.1-0.4,0.5-0.3,0.8c0,0.2,0.4,0.5,0.6,0.5C181.3,29.3,181.6,28.8,181.5,27.7z M177.1,27.4c-0.4,1-0.3,1.4,0.1,1.5
			c0.4,0.1,0.8-0.2,0.9-0.6C178.3,27.5,177.7,27.5,177.1,27.4z"/>
		<path class="st13" d="M162.1,91c0.3,0.4,0.1,0.6-0.3,0.8c-1,0.5-1.9,1.2-2.8,1.8c-0.2,0.2-0.4,0.4-0.6,0.6c-1.2,1.9-2.2,3.9-3,5.9
			c-0.4,1-1,2-1.7,2.9c-0.5,0.6-1.3,0.9-2,1.3c-1.8,1-2.8,2.5-3.4,4.4c-0.4,1.3-0.9,2.4-1.4,3.7c-0.3,0.8-0.5,1.6-1,2.4
			c-0.4,0.7-1.1,1.2-1.6,1.7c-0.4,0.4-0.8,0.8-1.2,1.2c-1.3,1.3-2.2,3-2.9,4.7c-0.2,0.6-0.3,1.2-0.6,1.8c-0.6,1-0.6,1.9-0.3,3
			c0,0.2-0.1,0.4-0.1,0.5c-0.4,0-0.8-0.1-1.3-0.1c0-0.7,0-1.3,0-1.9c0.1-0.7,0.5-1.4,0.2-2.2c0-0.1,0.1-0.4,0.2-0.6
			c0.6-1.2,1.2-2.3,1.8-3.5c0-0.1,0.1-0.1,0.1-0.2c0.3-1.6,1.6-2.4,2.5-3.5c0.8-1,1.8-1.9,2.4-3.2c0.5-1.1,0.9-2.3,1.2-3.4
			c0.5-1.9,1.4-3.5,2.6-5c0.2-0.2,0.4-0.3,0.7-0.5c0.6-0.3,1.3-0.7,1.9-0.9c0.9-0.3,1.2-0.9,1.5-1.7s0.8-1.5,1.2-2.3
			c0.7-1.4,1.4-2.9,2.2-4.3c0.7-1.3,1.6-2.5,3.2-3c0.5-0.1,1-0.5,1.5-0.9C161.5,90.6,161.8,90.8,162.1,91z"/>
		<path class="st14" d="M142.7,155.4c0.2,0.1,0.4,0.1,0.5,0.2c0.6,0.7,1.1,1.4,1.7,2c0,0.1,0.1,0.2,0.1,0.2c1.3,0.9,2,2.3,3.1,3.4
			c0.5,0.5,0.6,1.1,1,1.5c0.9,1,1.8,2,2.6,3c0.8,1.1,1.5,2.3,2.2,3.5c-0.4-0.4-0.9-0.7-1.3-1.1c-0.7-0.7-1.3-1.5-2-2.2
			c-2.1-1.9-3.7-4.2-5.4-6.5c-0.9-1.1-1.6-2.3-2.4-3.5C142.9,155.9,142.8,155.6,142.7,155.4z"/>
		<path class="st15" d="M186.9,27.5c-0.3-0.2-0.5-0.3-0.8-0.5c0.3-0.9,0-1.9,0.6-2.7c0.2-0.3-0.2-0.9-0.3-1.3c0.4,0.2,0.7,0.4,1,0.7
			c0.1,0.1,0.2,0.6,0.1,0.7c-0.7,0.6-0.6,1.4-0.6,2.2C186.9,26.9,186.9,27.2,186.9,27.5z"/>
		<path class="st14" d="M44.2,169.6c0.1,0.2,0.2,0.3,0.3,0.5C44.4,169.9,44.3,169.8,44.2,169.6z"/>
		<path class="st14" d="M44,169.3c0.1,0.1,0.1,0.2,0.2,0.3C44.2,169.5,44.1,169.4,44,169.3z"/>
		<path class="st16" d="M177.3,85c-2-0.1-3.9,0.3-5.9-0.1c0.4-7.4,0.8-14.8,1.2-22.2c0.2,0,0.4,0,0.6,0.1c1.5,0.8,3.1,0.9,4.7,1
			c2.9,0.1,5.7,0.2,8.6,0.2c0.5,0,0.9,0,1.6,0c0.6,7.3,1.2,14.5,1.7,21.9c-1.9,0.6-3.9,0.7-6,1.1c-0.9-5.5-1.7-10.9-2.6-16.3
			c-0.9-0.6-1.7-0.6-2.8-0.1C178,75.2,177.6,80,177.3,85z"/>
		<path class="st17" d="M177,48.7c-1.2-0.2-2.3-0.5-3.4-0.7c-0.5-1.3-0.8-2.5-0.6-3.9c1.5,0.3,2.9,0.7,4.4,0.3
			c0.3,0.4,0.6,0.5,1.1,0.1c-0.2-0.1-0.3-0.3-0.4-0.3c-0.1-0.1-0.3-0.1-0.4-0.1c-0.5,0-1-0.1-1.6-0.1c-0.5,0-1,0-1.4-0.4
			c-0.3-0.3-0.9-0.3-1.4-0.5c0-0.8,0.3-1.6,0.7-2.4c0.2-0.4,0.5-0.8,0.8-1.2c0.4-0.6,0.4-0.6,0.3-1.3c0.1,0,0.3-0.1,0.3,0
			c1.1,0.9,2.3,1.5,3.7,1.9c0.2,0,0.4,0.1,0.6,0.2c0.7,0.4,1.4,0.4,2.2,0.1c0.3-0.1,0.7-0.1,1.1-0.2c0,1.3,0,2.4,0,3.6
			c-0.4,0.6-1.1,0.4-1.7,0.5c-0.5,0-1,0-1.4,0c0.4,0.7,0.9,0.4,1.4,0.4c0.4,0,0.7,0,1.1,0.1c0.6,0.1,1.1,0.2,1.5,0.8
			c0.9,1.2,1.9,2.2,3.5,2.5c0.3,0.1,0.6,0.3,0.9,0.4c0.1,1.1,0.3,2.2,0.4,3.3c0,0.4-0.2,0.8-0.4,1.4c0.1,0.2,0.2,0.6,0.4,1
			c-0.2,0.3-0.4,0.6-0.5,0.9c-0.7,0.3-1.4,0.6-2.1,0.9c-1,0.5-1,0.6-0.7,1.7c0,0.1,0,0.3,0,0.4c0,0.2-0.1,0.4,0,0.6
			c0,0.3,1.5,1.8,1.8,1.9c0.4,0.1,0.8,0.3,1.1,0.6c-5.1,0.9-10.2,1-15.2-0.1c1.2-0.7,1.2-0.7,1.2-2.1c1.7-0.4,3.5,0.1,5.1-0.8
			c0-0.1,0-0.2,0-0.3c-1.7,0.1-3.4,0.1-5.1,0.2c0-0.1,0-0.3,0.1-0.5c0.2-0.9-0.1-1.4-0.9-1.8c-1-0.4-1-0.4-1-1.4
			c0-1.6-0.1-3.2-0.1-4.9c0-0.4,0-0.9,0.1-1.3c1.6,0.2,3.2,0.5,4.8,0.7c1-0.1,2-0.2,3.3-0.3C179,48.5,179,48.5,177,48.7z
			 M179.7,53.5c-0.3-0.1-0.6-0.2-0.8-0.3c-0.3,0-0.7,0.1-1.1,0.1c-1.2-0.1-2.5-0.2-3.7-0.3c-0.6,0-1.1,0.1-1.5,0.8
			c2.5,0,4.8,0.4,7.2,0.2c0.9,0,1.9,0,2.8-0.1c0.1,0,0.2-0.3,0.4-0.5C181.7,53.4,180.7,53.4,179.7,53.5z M183,53.8
			c1.2,0.6,3.9,0.4,4.8-0.2c-0.5-1.1-0.5-1-1.4-0.5c-0.3,0.2-0.8,0.3-1.2,0.3C184.5,53.5,183.8,53.5,183,53.8z M183.6,49.5
			c-0.7-0.6-0.8-0.6-1.6-0.2C182.5,49.4,183,49.4,183.6,49.5z M181.1,49c-0.3,0-0.6,0-1.1,0C180.5,49.3,180.7,49.6,181.1,49z"/>
		<path class="st18" d="M165.2,181.1c0.2-0.1,0.3-0.2,0.4-0.2c1.6,0.4,3.2,0.3,4.9,0.1c0.7-0.1,1.5,0.2,2.2,0.2c3.1,0,6.1,0,9.2-0.1
			c2.1,0,4.3-0.2,6.4-0.2c0.5,0,1.1,0.3,1.6,0.3c1.8,0,3.6-0.2,5.4-0.2c0.8,0,1.6,0.1,2.4,0.1c2.2,0.2,4.4-0.1,6.5-0.2
			c1-0.1,2,0.2,3,0.2c1.6,0.1,3.2,0.1,4.8,0.1c0.2,0,0.5,0,0.7,0.1c0.1,0,0.3,0.2,0.3,0.3c0,0.2-0.2,0.4-0.3,0.4
			c-1,0.1-1.6,0.8-2.3,1.4c-2.1,1.7-4.2,3.4-6.3,5.1c-1.1,0.9-2.2,1.7-3.3,2.6c-1,0.7-2,1-3.2,0.3c-1.1-0.7-2.4-1-3.6-1.6
			c-1.8-1-3.6-2.2-5.4-3.3c-1-0.6-2.1-1.2-3.1-1.8c-0.9-0.5-1.8-0.7-2.9-0.7c-3.6,0-7.3,0-10.9,0c-1.8,0-3.4-0.4-4.9-1.3
			c-0.5-0.3-0.9-0.6-1.3-1C165.4,181.6,165.3,181.3,165.2,181.1z"/>
		<path class="st19" d="M194.3,56.9c-0.6-1.1-1.2-2-1.8-3.1c1.6-1,2.7-2.6,4.7-3c0.2-1-0.2-1.6-1-1.4c-1.2,0.4-1.8-0.3-2.4-1.1
			c1-0.7,2-1.4,3.1-2.2c0.2,0.1,0.4,0.2,0.5,0.4c1,1.1,1.9,2.2,2.8,3.4c0.6,0.7,0.5,0.7,0,1.6c-0.6,1-1.3,1.9-2.1,2.7
			C197,55.3,195.8,56.1,194.3,56.9z"/>
		<path class="st19" d="M163.5,46c0.7,1.1,1.5,2.3,2.3,3.6c-0.4,0.1-0.8,0.2-1.2,0.2c-1.1,0.1-1.3,0.2-1.2,1.5
			c0.9,0.1,1.3,0.8,1.6,1.6s0.8,1.6,1.2,2.4c-0.4,0.5-0.9,1.1-1.3,1.6c-1.4-0.4-2.3-1.4-3.2-2.3c-1.2-1.2-1.7-2.8-2.6-4.2
			c-0.3-0.5-0.1-1,0.3-1.3c0.7-0.6,1.3-1.1,2-1.6C162.1,47,162.8,46.5,163.5,46z"/>
		<path class="st19" d="M189.3,40.1c1.5,0.3,2.5,1,3.4,1.9c1,0.9,2,1.8,3.2,2.7c-0.9,0.7-1.7,1.4-2.6,2c-0.5,0.4-0.9,0.2-1.4-0.1
			c-0.4-0.3-0.7-0.6-1.2-0.8c-1-0.4-1.5-1.4-2.1-2.2c-0.1-0.2-0.2-0.5-0.2-0.7C188.7,42,189,41.1,189.3,40.1z"/>
		<path class="st19" d="M165.7,51.1c0.5-0.6,0.8-1.1,1.6-0.9c0.3,0.1,0.7-0.2,1-0.3c0.1-0.6,0.1-1.3,0.8-1.4c0.5,0.6,1,1.1,1.7,1.9
			c-0.1,0.8-0.1,1.7-0.2,2.6c-0.1,1.1-1.1,1.3-1.9,1.6c-0.5,0.2-1.3-0.3-1.6-0.9C166.6,52.9,166.1,52,165.7,51.1z"/>
		<path class="st20" d="M181.6,86.4c-0.8,0.1-1.6,0.2-2.3,0.2c0-1.2-0.1-2.4,0-3.7c0.1-1.9,0.2-3.7,0.3-5.6c0-0.1,0-0.2,0.1-0.3
			c0.3,0,0.7,0,1,0c0.1,1,0.2,1.9,0.3,2.9c0.2,2,0.5,4,0.7,6C181.7,86.1,181.6,86.2,181.6,86.4z"/>
		<path class="st14" d="M186.4,38.4c0.6,0.3,1.1,0.6,1.7,0.9c-0.2,0.7-0.5,1.3-0.6,1.9c-0.2,0.5-0.3,1.1-0.4,1.6
			c-0.1,0.4,0,0.7-0.4,1.1c-0.5,0.5-0.3,0.8,0.3,1.2c0.5,0.4,1,0.7,0.8,1.4c-1.4-0.4-3.1-1.6-3.3-3.8C184.4,41,185,39.5,186.4,38.4z
			"/>
		<path class="st21" d="M171.2,58.6c0.3,0.1,0.6,0.3,1.2,0.5c-0.4,0.2-0.6,0.4-0.8,0.4c-1-0.1-2-0.2-2.9-0.4
			c-0.5-0.1-1.1-0.3-1.6-0.5c-0.3-0.1-0.6-0.4-0.8-0.5c0.7-1.6,1.9-1.9,4.1-2.8c0,0.7,0,1.4,0,2.1c0.7,0,1.3,0.1,2,0.1
			C172.3,58.3,171.3,57.8,171.2,58.6z"/>
		<path class="st21" d="M188.1,55.3c0.2-0.3,0.4-0.6,0.5-0.9c0.6,0.6,1.3,0.1,1.9,0.2c-0.1,1.9,0.2,2.3,1.7,2.6
			c0.1,0.3,0.2,0.6,0.4,0.9c-1.6,0.6-2.8,2-4.8,1.6c0.4-0.3,0.8-0.5,1.2-0.8c-0.1-0.1-0.1-0.3-0.2-0.4c-0.5,0-0.9-0.1-1.5-0.1
			c0.3-0.3,0.6-0.5,0.8-0.6c-0.2-0.9-1-0.3-1.5-0.7c0.7-0.5,1.4-0.9,2.2-0.7c0.7,0.2,1-0.2,1.4-0.7
			C189.6,54.6,188.8,55.2,188.1,55.3z"/>
		<path class="st17" d="M167.6,48.3c-1.4-0.8-1.9-2-2.2-3.4c1-0.7,1.9-1.4,2.9-2.2c0,0.4,0.1,0.7,0.1,0.9c-0.1,1-0.2,2,0.2,2.9
			C168.8,47.3,168.4,47.9,167.6,48.3z"/>
		<path class="st15" d="M190.7,53.5c-0.4-2.2-0.8-4.1-1.3-6.3c1.1,0.5,1.7,1.1,1.7,2.2c0,1,0.1,2,0.1,3
			C191.3,52.8,191.3,52.8,190.7,53.5z"/>
		<path class="st22" d="M170.6,46c-0.9-1.2-0.5-2.4-0.4-3.5c0.1-0.7,0.3-1.4,1.4-1.4c0,0.2,0.2,0.6,0.1,0.7c-1,1-0.9,2.2-1,3.5
			C170.7,45.4,170.7,45.6,170.6,46z"/>
		<path class="st22" d="M180.6,77c-0.3,0-0.7,0-1,0c-0.3-1.1-0.2-2.1,0-3.2c0.1-0.4-0.1-0.8-0.1-1.2c0-0.2,0-0.5,0.1-0.9
			C180,72.5,180.6,75.8,180.6,77z"/>
		<path class="st22" d="M187.1,36c1.4-0.3,2.1,0.6,2.8,1.6C188.8,37.3,188,36.6,187.1,36z"/>
		<path class="st15" d="M192.2,57.1c-1.5-0.2-1.8-0.7-1.7-2.6c0.2,0.2,0.5,0.4,0.7,0.7C191.6,55.9,191.9,56.5,192.2,57.1z"/>
		<path class="st10" d="M177,48.7c2-0.2,2-0.2,3.1,0.3c-1.3,0.1-2.3,0.2-3.3,0.3C176.9,49,177,48.9,177,48.7z"/>
		<path class="st22" d="M192.7,52c0-0.6-0.1-1-0.1-1.6c0.4,0.3,0.7,0.5,1.1,0.8C193.3,51.5,193.1,51.7,192.7,52z"/>
		<path class="st22" d="M193.1,93.3c-0.2,1-0.2,1-1.1,1C192,93.6,192.4,93.4,193.1,93.3z"/>
		<path class="st10" d="M181.4,44.9c-0.5,0-1,0.2-1.4-0.4c0.5,0,1,0,1.4,0C181.4,44.6,181.4,44.7,181.4,44.9z"/>
		<path class="st10" d="M177.7,44.2c0.1,0,0.3,0,0.4,0.1c0.1,0.1,0.2,0.2,0.4,0.3c-0.5,0.3-0.8,0.3-1.1-0.1
			C177.5,44.3,177.6,44.3,177.7,44.2z"/>
		<path class="st23" d="M161.5,103.9c1.2,0.3,1.6,1.2,0.8,2.1c-1.7,1.9-3.5,3.8-5.2,5.7c-0.3,0.3-0.7,0.6-1.1,0.9
			c-0.4,0.3-0.5,0.7-0.4,1.3c0.3,1.7,0.3,3.3-0.5,4.9c-1.2,2.3-2.4,4.6-3.6,7c-0.7,1.3-1.7,1.3-2.6,0.1c0.4-0.5,0.9-1,1-1.5
			c0.4-1.4,1-2.7,1.9-3.9c0.9-1.1,1.7-2.3,1.6-3.9c0-1,0.1-2-0.2-3c-0.3-1.3,0.4-2,1.3-2.7c0.7-0.6,1.4-1.2,2.1-1.7
			C158.5,107.7,160,105.8,161.5,103.9z"/>
		<path class="st24" d="M173.9,106.3c1.4,0,1.9,0.2,2.1,1.2c0.1,0.2,0,0.5,0,0.7c0,2.6,0.5,5.2,1,7.8c0.3,1.4,0.2,2.6-1.1,3.6
			s-2.5,2.2-3.5,3.5c-0.9,1.1-1.5,2.4-1.9,3.8c-0.3,1-0.9,1.4-1.8,1.2c-0.4-0.1-0.6-0.3-0.7-0.7c0.9-0.9,1.3-1.9,1.2-3.2
			c0-0.2,0.1-0.5,0.2-0.7c1.3-1.7,2.5-3.5,3.9-5.1c0.9-1,1.3-2.1,1-3.4C173.9,112.2,173.8,109.2,173.9,106.3z"/>
		<path class="st24" d="M163.9,110.4c0.3,0,0.6-0.1,0.8-0.1c1.2,0.1,1.8,1,1.3,2.1c-0.4,1-0.9,2-1.3,2.9c-0.5,1.1-1,2.3-1.6,3.4
			c-0.4,0.8-0.5,1.7-0.3,2.6c0.3,1.2,0.1,2.3-0.2,3.4c-0.2,0.6-0.4,1.3-0.7,1.9c-0.6,1.4-1.6,1.6-2.7,0.7c-0.1-0.1-0.3-0.2-0.4-0.3
			c0.8-0.7,0.9-1.7,1.2-2.6c0.1-0.4,0.3-0.8,0.4-1.2c0.1-0.5,0.3-1.1,0.2-1.6c-0.4-1.5-0.1-2.9,0.5-4.3c0.8-1.9,1.4-3.9,2.6-5.6
			C164.1,111.3,164.1,110.9,163.9,110.4z"/>
		<path class="st23" d="M195.3,109.6c1.5-1,1.9-1,2.9,0.5c0.8,1.1,1.5,2.1,2.3,3.1c0.5,0.6,1.2,0.9,1.9,1.2c0.6,0.2,1.2,0.4,1.6,0.8
			c0.3,0.3,0.6,0.9,0.6,1.4c0,0.9-0.1,1.8-0.2,2.7c0,1.3,0.1,2.5,1.2,3.5c0.5,0.4,1,0.9,1,1.7c-0.1,0.9-0.4,1.3-1.3,1.3
			c-0.4,0-0.8-0.2-1.2-0.3c0.1-0.4,0.3-0.7,0.4-1.1c-1.5-1-2-2.5-2.1-4.1c-0.1-1.3,0.1-2.6,0.2-3.9c0-0.7-0.2-0.9-0.8-1
			c-0.9-0.1-1.8-0.3-2.7-0.5c-0.7-0.1-1.3-0.5-1.7-1.2C196.4,112.4,195.6,111.2,195.3,109.6z"/>
		<path class="st1" d="M187.2,113.3c0.3-0.2,0.6-0.3,0.9-0.5c0.9-0.5,1.8-0.1,2,0.8c0.3,1.2,0.5,2.3,0.7,3.5s0.4,2.4,0.6,3.6
			c0,0.1,0.1,0.2,0.1,0.2c-0.2,0.9,0.1,1.7,0.7,2.5c0.7,0.9,0,2-1.2,2c-0.9,0-1.7-0.2-2.6,0c-0.5,0.1-0.9-0.1-1.2-0.5
			c-0.1-0.2-0.3-0.3-0.5-0.4c-0.1-1,0.2-1.8,0.8-2.5c1-1.1,1.3-2.4,0.9-3.8C188,116.6,187.6,114.9,187.2,113.3z"/>
		<path class="st8" d="M161.5,103.9c-1.5,1.9-3,3.8-4.9,5.3c-0.7,0.5-1.5,1.1-2.1,1.7c-0.8,0.7-1.6,1.4-1.3,2.7c0.2,0.9,0.1,2,0.2,3
			c0.1,1.5-0.7,2.7-1.6,3.9c-0.9,1.2-1.5,2.5-1.9,3.9c-0.2,0.6-0.7,1-1,1.5c-0.6-0.1-1.1-0.3-1.1-0.8c0.8-1.6,1.5-3,2.3-4.4
			c0.5-0.9,1.1-1.8,1.5-2.8c0.3-0.9,0.4-1.9,0.4-2.8c0-0.8-0.3-1.6-0.3-2.4c0-0.5,0.3-1.1,0.6-1.5s0.9-0.7,1.3-1
			c1.6-0.9,3.1-2.1,4.3-3.5c0.8-0.9,1.3-1.8,2-2.8c0.4-0.6,0.5-0.7,1.5-0.9C161.2,103.2,161.3,103.6,161.5,103.9z"/>
		<path class="st6" d="M173.9,106.3c-0.1,2.9,0,5.9,0.7,8.8c0.3,1.4-0.1,2.4-1,3.4c-1.4,1.6-2.6,3.4-3.9,5.1
			c-0.1,0.2-0.3,0.4-0.2,0.7c0.1,1.3-0.3,2.3-1.2,3.2c-1.2-0.1-1.4-0.4-1-1.4c0-0.1,0.1-0.1,0.1-0.2c-0.1-2.2,1.6-3.4,2.6-5
			c0.9-1.3,1.9-2.7,2.8-4c0.5-0.7,0.4-1.5,0.3-2.2c-0.3-1.4-0.5-2.7-0.4-4.1c0.1-0.9-0.2-1.7-0.2-2.6c0-0.5,0.1-1,0.3-1.5
			c0.1-0.2,0.4-0.4,0.7-0.5C173.5,105.9,173.7,106.2,173.9,106.3z"/>
		<path class="st3" d="M195.3,109.6c0.3,1.5,1.1,2.8,2,4c0.4,0.6,1,1,1.7,1.2c0.9,0.2,1.8,0.4,2.7,0.5c0.7,0.1,0.9,0.3,0.8,1
			c-0.1,1.3-0.3,2.6-0.2,3.9c0.1,1.6,0.6,3.1,2.1,4.1c-0.1,0.4-0.3,0.7-0.4,1.1c-1,0.3-1.8,0-2.4-1c-1-1.8-1.6-3.7-1.2-5.8
			c0.3-1.7,0.3-1.8-1.4-2.1c-2.1-0.4-3.3-1.9-4.1-3.6c-0.4-0.9-0.5-1.9-1-2.7c-0.1-0.2,0.2-0.7,0.4-0.9
			C194.7,108.9,195,109.3,195.3,109.6z"/>
		<path class="st6" d="M163.9,110.4c0.2,0.4,0.1,0.8-0.1,1.2c-1.2,1.7-1.9,3.7-2.6,5.6c-0.6,1.4-0.9,2.8-0.5,4.3
			c0.1,0.5-0.1,1.1-0.2,1.6c-0.1,0.4-0.3,0.8-0.4,1.2c-0.2,0.9-0.4,1.9-1.2,2.6c-0.2,0-0.4,0-0.6-0.1c-0.8-0.3-0.9-0.4-0.6-1.2
			c0.3-0.7,0.5-1.5,0.8-2.2c0.3-0.9,0.4-1.8,0.1-2.7c-0.2-0.7-0.1-1.4,0.2-1.9c0.6-1,0.6-2.2,1.5-3.1c0.1-0.1,0.1-0.4,0.2-0.7
			c0.4-0.8,0.7-1.7,1.1-2.5c0.3-0.6,0.5-1.1,0.8-1.7C162.7,110.3,163.1,110.2,163.9,110.4z"/>
		<path class="st6" d="M187.2,113.3c0.4,1.6,0.8,3.3,1.2,4.9c0.4,1.4,0.1,2.7-0.9,3.8c-0.7,0.7-0.9,1.5-0.8,2.5c0,0.2,0,0.3-0.1,0.5
			c-0.1,0.4-0.2,0.8-0.7,0.8s-1-0.3-1-0.8c0-1-0.3-2.1,0.6-3c0.3-0.3,0.5-0.7,0.7-1c0.6-0.7,0.9-1.4,0.6-2.4c-0.2-0.6,0-1.2,0-1.8
			c-0.4-0.8-0.8-1.6-1.2-2.4c-0.4-0.7,0.6-1.2,1.3-1.2C186.9,113.1,187.1,113.2,187.2,113.3z"/>
		<path class="st24" d="M211.1,116.2c0.9-0.9,1.3-1,2.2-0.2c0.7,0.6,1.3,1.3,2,1.8c1.7,1.5,3.4,2.9,5.2,4.4c0.5,0.4,0.6,0.9,0.4,1.5
			c-0.2,0.6-0.6,0.9-1.3,0.8c-0.1-0.3-0.2-0.6-0.4-0.8c-0.7-0.6-1.4-1-2-1.6C215.1,120.2,212.9,118.4,211.1,116.2z"/>
		<path class="st8" d="M211.1,116.2c1.8,2.2,4,4.1,6.1,6c0.6,0.6,1.4,1,2,1.6c0.2,0.2,0.3,0.5,0.4,0.8c-0.2,0.3-0.5,0.6-0.7,1
			c-0.8,0-1.3-0.3-1.8-0.9s-1.1-1.2-1.6-1.7c-1.2-1.2-2.4-2.5-3.7-3.7c-0.5-0.5-1-0.9-1.5-1.4c-0.3-0.3-0.8-0.6-0.5-1.2
			C210.1,116,210.6,116.2,211.1,116.2z"/>
		<path class="st25" d="M195.5,158c-1.2,0.5-0.4,1.3-0.4,1.9c-1,0.6-1.4,0.5-2-0.2c1.1-0.9,0.7-2.2,0.9-3.4
			c-0.4-0.2-0.7-0.4-1.1-0.6c0.8-0.8,1.8-0.6,2.6-0.6s1.6,0.6,2.3,0.9c0.5,1.1-0.6,1.3-0.9,2.1c0.3,0.4,0.7,1,1.1,1.7
			c-0.3,0.2-0.6,0.3-1.1,0.6C196.4,159.5,195.9,158.8,195.5,158z M195,157.3c0.8,0.1,1.5,0.1,1.9-0.6c-0.5-0.6-1.2-0.5-1.9-0.4
			C195,156.6,195,156.9,195,157.3z"/>
		<path class="st9" d="M218.1,142c-0.8,0.4-1.2,0.3-1.6-0.4c-0.4-0.6-0.9-1-1.5-1.8c0,0.6,0,1-0.1,1.3c0,0.2,0,0.4-0.1,0.5
			c-0.3,0.5-1.5,0.5-2.1-0.1c0.4-0.2,0.7-0.4,1.1-0.6c0-0.8,0-1.6,0-2.5c0-0.2,0.2-0.6,0.3-0.7c0.3,0,0.6,0.1,0.8,0.2
			c0.7,0.6,1.3,1.4,2,2.1c0-0.8,0.2-1.6-0.6-2.1c0.6-0.8,1.2-0.8,2.1-0.2c-0.5,0.7-0.7,1.5-0.4,2.3
			C218.1,140.9,218.1,141.5,218.1,142z"/>
		<path class="st26" d="M188,159.3c0.4,0,0.7,0,1.1,0.1c0.1-0.2,0.1-0.4,0.2-0.6c0-0.4,0.3-0.6,0.7-0.5c0.2,0.1,0.4,0.3,0.5,0.6
			c0.1,0.3,0,0.7-0.1,1c-1.3,0.4-2.8,0.4-4.1,0.1c0.8-1.8,1.1-3-0.4-4.1c0.7-0.4,3.1-0.6,4-0.3c0,0.3,0.1,0.6,0.1,1
			c-0.3,0.1-0.6,0.2-0.8,0.3c-1.2-0.2-1.2-0.2-1.2,0.2c0.3,0,0.7,0.1,1,0.1c0.2,1-0.7,0.5-1.1,1C187.8,158.5,187.9,158.9,188,159.3z
			"/>
		<path class="st27" d="M185.3,138.3c0.2,0.5,0.2,0.7,0.3,0.9c0.4,0.1,1.1-0.5,1.2,0.5c-0.4,0.1-0.8,0.3-1.2,0.4
			c0.1,1.7,0.1,1.7,1.2,1.3c0-0.3,0-0.5,0.1-0.8c0.1-0.2,0.3-0.4,0.4-0.4c0.2,0,0.5,0.2,0.6,0.3c0.4,0.8,0,1.6-0.9,1.8
			c-0.9,0.2-2.3,0-3.2-0.5c1-0.3,0.7-1.1,0.7-1.8c-0.1-0.7,0.2-1.5-0.5-1.9c0.1-0.1,0.1-0.3,0.1-0.3c1.1-0.5,2.3-0.4,3.5-0.2
			c0.6,0.1,0.6,0.7,0.4,1.3c-0.6,0.3-0.8-0.4-1.1-0.5C186.5,138.3,186,138.4,185.3,138.3z"/>
		<path class="st28" d="M157.3,139.3c-0.4-0.2-0.7-0.4-1.1-0.6c0.6-0.8,1.3-0.5,1.9-0.5c0.4,0,0.9,0.2,1.3,0.2
			c1.5,0.1,2.1,2.7,1.2,3.7c-0.9,1-2.8,1.4-4.1,0.7c0-0.1,0-0.2,0-0.2c1-0.4,0.9-1.3,0.9-2.1C157.5,140.1,157.4,139.7,157.3,139.3z
			 M158.4,139.2c0,1,0,1.8,0,2.7c1.2,0.1,1.6-0.1,1.7-0.9C160.1,139.9,159.6,139.3,158.4,139.2z"/>
		<path class="st26" d="M166.3,142.3c0.3-0.4,0-1.1,0.8-1.1c0.6,0,0.7,1,0.5,1.5s-0.7,0.6-1.2,0.6c-0.6,0-1.1,0-1.7,0
			c-0.4,0-1.3,0.3-1.3-0.2c1.3-0.9,0.9-1.6,0.8-2.5c0-0.5-0.1-0.9-0.2-1.5c-0.2-0.1-0.5-0.2-0.7-0.3c-0.1,0-0.1-0.1-0.2-0.3
			c0.4-0.1,0.8-0.2,1.2-0.2c0.6,0,1.2,0,1.8,0c1.1,0,1.1,0,1.4,1.3c-0.4,0.4-0.7,0.4-1.2,0c-0.1-0.8-1.2-0.4-1.2,0.3
			c0.4,0.2,1.4-0.1,1.5,0.6c0,0.6-0.9,0.5-1.4,0.7c0,0.3,0,0.7,0,1.2C165.6,142.2,166,142.2,166.3,142.3z"/>
		<path class="st25" d="M205.7,154.8c0,0.5,0.1,0.9,0.1,1.3c0,0.2-0.3,0.5-0.5,0.6c-0.1,0-0.4-0.2-0.5-0.4c-0.2-0.6-0.6-0.4-1-0.3
			c0.1,0.6,0.1,1.3,0.2,1.9c0,0.3,0.3,0.5,0.4,0.8c0.1,0.2,0.3,0.5,0.3,0.7c-0.1,0.2-0.4,0.4-0.6,0.4c-0.8,0-1.6,0.1-2.3-0.4
			c0-0.7,0.8-0.5,1-0.8c0-0.9,0-1.8,0-2.8c-0.5,0.1-1-0.3-1.1,0.4c-0.1,0.4-0.3,0.6-0.6,0.5c-0.2-0.1-0.5-0.3-0.4-0.5
			c0-0.3,0.1-0.7,0.3-0.8c0.4-0.2,1-0.4,1.5-0.5C203.4,154.9,204.4,154.8,205.7,154.8z"/>
		<path class="st25" d="M175.2,147.4c0.3-0.2,0.6-0.5,0.9-0.6c1.1-0.1,2.1-0.2,3.1,0.4c0.5,0.3,0.7,0.8,0.4,1.2
			c-0.5,0.7-0.3,1.4-0.1,2c0.1,0.4,0.1,0.7-0.3,0.9c-0.5,0.1-0.6-0.2-0.7-0.6c-0.1-0.3-0.2-0.6-0.3-1c-0.3,0.1-0.6,0.2-1,0.4
			c0.2,0.4,0.3,0.8,0.5,1.2c-0.6,0.7-1.2,0.4-2,0.3c0.2-0.5,0.5-0.9,0.6-1.3s0-0.9-0.1-1.3C176.1,147.9,176.1,148,175.2,147.4z
			 M177,149c0.8,0.1,1.3-0.1,1.8-0.8c-0.5-0.4-0.8-0.8-1.6-0.5C177.1,148,177.1,148.5,177,149z"/>
		<path class="st28" d="M180.5,140.4c0.3,0.8,0.5,1.5,0.8,2.4c-0.5,0.1-1,0.2-1.2-0.1c-0.2-1.6-0.4-1.9-1.4-1.8
			c-0.3,1.2,0.5,0.9,0.4,1.8c-0.8,0-1.5,0-2.1,0c0.1-0.5,0.1-0.5,0.7-0.8c0.1-1.2,0.3-2.3-0.6-3.3c1.2-0.8,2.9-0.6,3.8,0.4
			C181.3,139.4,181.2,139.7,180.5,140.4z M178.6,139.7c0.6,0.2,1,0.3,1.5-0.3c-0.5-0.3-0.9-0.5-1.4-0.8
			C178.7,139.1,178.7,139.3,178.6,139.7z"/>
		<path class="st27" d="M194.5,148.5c-0.1,0.2-0.1,0.4-0.3,0.5c-0.3,0.1-0.6,0.2-0.9,0.3c0,0.3,0,0.6,0,0.8c1.5,0.4,1.6,0.4,2.2-0.8
			c0.9,0,0.7,0.8,1,1.3c-0.5,0.2-0.8,0.5-1.2,0.5c-1.3,0.1-2.6,0.1-3.9,0.2c-0.1-0.7,0.7-0.4,0.9-0.9c-0.1-1,0.2-2.2-0.8-3.3
			c0.9-0.5,1.8-0.6,2.7-0.4c1,0.2,1,0.2,1.2,1.3c-0.2,0.1-0.5,0.2-0.7,0.3C194.7,148.3,194.6,148.4,194.5,148.5z M192.9,148.3
			c0.7-0.1,1.1-0.1,1.5-0.1c-0.2-0.6-0.4-1-1-0.8C193.2,147.5,193.2,147.9,192.9,148.3z"/>
		<path class="st27" d="M202.2,147.5c0.1,0.4,0.1,0.6,0.1,0.9c0.4,0,0.8,0,1.3,0c0.1,0.6,0.4,1.1-0.3,1.4c-0.1,0,0,0.3,0,0.4
			c-0.1,0.2-0.2,0.6-0.3,0.6c-0.4,0.1-0.9,0.2-1.4,0.2c-0.3,0-0.5-0.2-0.8-0.3c0.8-1,0.6-2.1,0.5-3.1c-0.3-0.1-0.6-0.2-0.8-0.3
			c0-0.1,0-0.1,0-0.2c0.4-0.1,0.8-0.3,1.2-0.3c0.9-0.1,1.7-0.1,2.6,0c0.2,0,0.6,0.2,0.7,0.3c0,0.3-0.1,0.7-0.3,1
			c0,0.1-0.6,0.1-0.6,0C203.5,147.3,202.9,147.6,202.2,147.5z M203.1,150c-0.1-0.6-0.3-0.9-0.8-0.8c-0.1,0-0.1,0.4-0.1,0.4
			C202.4,149.8,202.7,149.9,203.1,150z"/>
		<path class="st28" d="M174.1,155.9c1.6,0,2.2,0.6,2.2,2.3c0,0.3-0.1,0.6-0.1,0.9c-0.1,0.7-0.5,1.1-1.2,1.1c-0.5,0-1,0-1.5-0.1
			s-0.8-0.3-0.9-0.8c-0.1-0.5-0.3-0.9-0.3-1.4C172.1,156.6,172.7,155.9,174.1,155.9z M173.5,156.9c-0.5,0.8-0.1,1.6,0.2,2.3
			c0.1,0.2,0.6,0.3,0.9,0.3c0.2,0,0.4-0.3,0.5-0.5c0.5-1.2,0-1.9-1.3-2.1C173.8,156.9,173.7,156.9,173.5,156.9z"/>
		<path class="st9" d="M178.3,155.9c0.7-0.1,1.3-0.2,2.3-0.4c-0.2,0.4-0.3,0.6-0.4,0.8c0.3,0.7,0.7,1.3,1.1,2.1
			c0.4-0.7,1-1.3,0.4-2.1c1.4-0.6,1.4-0.6,2-0.1c-0.8,1.1-1.3,2.3-1.5,3.7c0,0.3-0.5,0.6-0.8,0.7c-0.1,0-0.5-0.3-0.6-0.6
			c-0.2-0.4-0.3-0.9-0.5-1.3c-0.4-1-0.7-1.9-1.8-2.4C178.3,156.1,178.3,156,178.3,155.9z"/>
		<path class="st27" d="M170.3,151.1c0.2-0.4,0.4-0.7,0.5-0.9c-0.5-0.5-1.3,0.2-1.5-0.7c0.6-0.4,1.6-0.6,2.1-0.3
			c0.1,0.1,0.2,0.2,0.3,0.4c0.3,0.6-0.1,1.2-0.4,1.7c-0.3,0.5-0.8,0.7-1.3,0.6c-2.2-0.6-2.7-2.1-1.8-4c0.4-0.9,1.9-1.4,2.8-1
			c0.1,0,0.2,0.1,0.3,0.2c0.1,0.2,0.2,0.4,0.2,0.5c-0.1,0.1-0.4,0.3-0.6,0.2c-0.7-0.3-1.3-0.3-1.8,0.3c-0.5,0.6-0.4,1.3-0.2,2.1
			C169,150.8,169.6,150.9,170.3,151.1z"/>
		<path class="st28" d="M213.7,155.1c-0.4,0.2-0.6,0.4-0.8,0.5c-1,0.4-1.6,1-1.3,2.2c0,0.2,0,0.4,0,0.6c0.1,1.2-0.7,1.6-2,1
			c0.2-0.5,0.9-0.7,0.7-1.5c-0.1-0.4-0.1-0.7-0.5-1c-0.8-0.5-1.5-1.1-2.3-1.7c0.8-0.6,1-0.6,1.8,0.1c0.4,0.3,0.8,0.5,1.3,0.8
			c0.3-0.2,0.6-0.4,0.8-0.7C212.1,154.7,212.4,154.6,213.7,155.1z"/>
		<path class="st28" d="M167.8,160.1c-0.9,0.5-1.1,0.5-2.3,0.2c0.5-0.9,0.5-1.9,0.6-2.9c0.1-0.7,0-1.2-1.1-1.4
			c1-0.8,1.9-0.7,2.8-0.5c0.9,0.2,1.1,0.9,1.3,1.6c0.1,0.2-0.3,0.7-0.5,0.8c-0.5,0.3-1,0.5-1.5,0.7
			C166.8,159.2,167.4,159.6,167.8,160.1z M166.7,156.2c0.1,0.5,0.2,0.8,0.3,1.3c0.4-0.2,0.7-0.3,1-0.4
			C167.6,156.3,167.6,156.3,166.7,156.2z"/>
		<path class="st28" d="M211.6,139.3c0,0.3-0.1,0.6-0.1,0.9c-0.3,1.8-1.4,1.8-2.6,1.4c-0.2-0.1-0.4-0.2-0.5-0.4
			c-0.5-0.9-0.6-1.8-0.3-2.8c0.2-0.6,1.4-1.1,2.2-0.9C211.2,137.8,211.6,138.2,211.6,139.3z M210.7,138.8c-0.5-0.2-0.8-0.3-1.1-0.4
			c-0.2,0-0.6,0.1-0.6,0.2c-0.1,0.5-0.2,1.1-0.1,1.6c0.1,0.5,0.6,0.9,1.3,0.7C210.5,140.3,210.6,139.6,210.7,138.8z"/>
		<path class="st27" d="M170.7,139c-0.4-0.2-0.7-0.3-1-0.4c0.1-0.2,0.2-0.3,0.2-0.3c0.9,0,1.9,0,2.8,0.1c0.3,0,0.6,0.3,0.8,0.5
			c0.2,0.3,0.5,0.8,0.4,1.1c-0.1,0.4-0.6,0.7-1,0.9c-0.3,0.2-0.8,0.1-1.1,0.2c0,1.8,0,1.8-1,1.7C170.7,141.5,170.7,140.3,170.7,139z
			 M171.7,140c0.4,0,0.8,0,1.2,0c-0.1-0.8-0.6-1.3-1.1-0.9C171.7,139.4,171.7,139.7,171.7,140z"/>
		<path class="st25" d="M200.4,138.1c-0.3,0.7-1.1,0-1.6,0.5c0.3,0.4,0.6,0.7,1,1.1c0.7,0.7,0.8,1.2,0.3,1.7c-0.6,0.8-1.3,1-2.1,0.5
			c-0.3-0.2-0.6-0.5-1-0.7c0.7-0.9,1.3,0.1,2.1,0c-0.1-0.3,0-0.5-0.2-0.7c-0.3-0.4-0.8-0.7-1.1-1.1c-0.5-0.6-0.4-1.1,0.3-1.6
			C199.1,137.2,199.7,137.3,200.4,138.1z"/>
		<path class="st26" d="M205.4,137.3c-0.9,1.3-0.5,2.6-0.2,3.9c0.2,0.8,0,1-0.8,0.9c-0.3-0.1-0.7-0.1-1.2-0.3c0.7-0.6,0.9-1.3,0.7-2
			c-0.1-0.7,0.2-1.6-0.7-1.9C203.7,136.6,204.6,137.3,205.4,137.3z"/>
		<path class="st27" d="M184.1,147.5c0.9-0.6,1.7-0.5,2.4-0.4c0.6,0.7-0.4,0.9-0.4,1.4s0.1,1,0.1,1.6c0.2,0,0.4,0,0.6,0.2
			c0.2,0.2,0.3,0.4,0.3,0.7c0,0.2-0.3,0.4-0.5,0.4c-0.5,0-1,0-1.6-0.1c0.1-1.1,0.1-2.1,0.1-3C184.8,147.9,184.5,147.7,184.1,147.5z"
			/>
		<path class="st26" d="M192.8,138.9c0.3,0.3,0.6,0.6,0.8,0.8c0.2,0.3,0.5,0.6,0.6,1c0.2,0.5-0.1,1.1-0.6,1.1
			c-0.6,0-1.2-0.2-1.8-0.3c-0.2,0-0.2-0.4-0.3-0.6c0.2-0.1,0.5-0.2,0.7-0.3c0.2,0,0.3,0.2,0.5,0.2c0.2,0.1,0.4,0.1,0.8,0
			c-0.3-0.3-0.6-0.6-0.9-1c-0.3-0.4-0.9-0.6-0.7-1.3c0.3-0.6,0.9-0.7,1.5-0.7c0.1,0,0.3,0.1,0.6,0.2
			C193.4,138.4,193.2,138.6,192.8,138.9z"/>
		<path class="st26" d="M165.3,149.5c-0.3,0.1-0.6,0.3-0.8,0.4c-1.1,0.1-2.3,0.2-3.4,0.3c-0.3,0-0.7,0-0.7-0.4
			c-0.1-0.5,0.3-0.7,0.6-0.7c0.5,0,1,0,1.5,0c0.6,0,1.2,0,1.8-0.2C164.7,148.7,164.9,149,165.3,149.5z"/>
		<path class="st26" d="M209.1,147.9c1.1,0.1,1.9,0,2.8,0.2c0.7,0.1,1.4,0.2,2.1,0c0.2-0.1,0.7,0.2,0.7,0.4c0.1,0.4-0.2,0.5-0.6,0.5
			c-1.1,0-2.1,0.1-3.2,0.1C210.2,148.9,209.5,149.1,209.1,147.9z"/>
		<path class="st22" d="M194.5,148.5c0.1-0.1,0.2-0.2,0.3-0.3C194.7,148.3,194.6,148.4,194.5,148.5z"/>
		<path class="st2" d="M196.5,98.6c0,0-0.1,0-0.1-0.1C196.4,98.6,196.4,98.6,196.5,98.6L196.5,98.6z"/>
		<path class="st25" d="M177.8,32.3c1.3,0.9,2.3,0.1,3.3-0.2c0.5,0.5,0.3,0.8,0,1.1c-0.8,0.8-1.8,0.9-2.9,0.4
			C177.8,33.3,177.8,33.3,177.8,32.3z"/>
		<path class="st26" d="M178.9,28.7c0.5,0.8-0.1,1.3,0,1.8c0.1,0.3,0.4,0.7,0.2,0.9c-0.5,0.6-1,0-1.5-0.1
			C177.9,30.3,178.2,29.5,178.9,28.7z"/>
		<path class="st25" d="M181.5,27.7c0.1,1.2-0.2,1.6-0.9,1.5c-0.2,0-0.6-0.3-0.6-0.5c-0.1-0.2,0.1-0.7,0.3-0.8
			C180.6,27.7,181,27.7,181.5,27.7z"/>
		<path class="st26" d="M177.1,27.4c0.6,0.1,1.2,0.1,1,0.9c-0.1,0.4-0.5,0.7-0.9,0.6S176.8,28.3,177.1,27.4z"/>
		<path class="st9" d="M179.7,53.9c-2.4,0.2-4.7-0.2-7.2-0.2c0.4-0.7,0.9-0.8,1.5-0.8c1.2,0.1,2.5,0.2,3.7,0.3
			c0.4,0,0.7-0.1,1.1-0.1c0.3,0,0.6,0.2,0.8,0.3C179.7,53.6,179.7,53.8,179.7,53.9z"/>
		<path class="st26" d="M183,53.8c0.8-0.3,1.5-0.4,2.2-0.4c0.4,0,0.9-0.1,1.2-0.3c0.9-0.5,0.9-0.6,1.4,0.5
			C186.9,54.2,184.2,54.4,183,53.8z"/>
		<path class="st10" d="M179.7,53.9c0-0.1,0-0.3,0-0.4c1-0.1,2-0.1,3.1-0.2c-0.2,0.2-0.3,0.5-0.4,0.5
			C181.5,53.9,180.6,53.9,179.7,53.9z"/>
		<path class="st10" d="M183.6,49.5c-0.5-0.1-1.1-0.2-1.6-0.2C182.8,48.9,182.9,48.9,183.6,49.5z"/>
		<path class="st26" d="M181.1,49c-0.3,0.6-0.6,0.4-1.1,0C180.5,49,180.8,49,181.1,49z"/>
		<g>
			<path class="st0" d="M195,157.3c0-0.4,0-0.7,0-1.1c0.7-0.1,1.4-0.2,1.9,0.4C196.5,157.5,195.8,157.4,195,157.3z"/>
		</g>
		<g>
			<path class="st0" d="M158.4,139.2c1.2,0.1,1.7,0.7,1.7,1.8c-0.1,0.8-0.5,1-1.7,0.9C158.4,141,158.4,140.2,158.4,139.2z"/>
		</g>
		<g>
			<path class="st0" d="M177,149c0.1-0.5,0.1-0.9,0.1-1.3c0.8-0.3,1.2,0.1,1.6,0.5C178.4,148.8,177.8,149,177,149z"/>
		</g>
		<g>
			<path class="st0" d="M178.6,139.7c0.1-0.4,0.1-0.6,0.2-1.1c0.5,0.3,0.9,0.5,1.4,0.8C179.6,140,179.2,139.9,178.6,139.7z"/>
		</g>
		<g>
			<path class="st0" d="M192.9,148.3c0.2-0.5,0.3-0.9,0.5-0.9c0.6-0.2,0.8,0.2,1,0.8C194,148.2,193.6,148.3,192.9,148.3z"/>
		</g>
		<g>
			<path class="st0" d="M203.1,150c-0.4-0.2-0.7-0.3-0.9-0.4c0,0,0-0.3,0.1-0.4C202.8,149.1,203,149.4,203.1,150z"/>
		</g>
		<g>
			<path class="st0" d="M173.5,156.9c0.2,0,0.3,0,0.4,0c1.3,0.2,1.7,0.8,1.3,2.1c-0.1,0.2-0.3,0.5-0.5,0.5c-0.3,0-0.9-0.1-0.9-0.3
				C173.5,158.5,173,157.7,173.5,156.9z"/>
		</g>
		<g>
			<path class="st0" d="M166.7,156.2c0.9,0.1,0.9,0.1,1.2,0.9c-0.3,0.1-0.6,0.2-1,0.4C166.9,157.1,166.8,156.7,166.7,156.2z"/>
		</g>
		<g>
			<path class="st0" d="M210.7,138.8c-0.1,0.8-0.3,1.5-0.4,2.2c-0.8,0.2-1.2-0.2-1.3-0.7s0-1.1,0.1-1.6c0-0.1,0.4-0.3,0.6-0.2
				C209.9,138.5,210.2,138.6,210.7,138.8z"/>
		</g>
		<g>
			<path class="st0" d="M171.7,140c0-0.4,0.1-0.7,0.1-0.9c0.5-0.3,1,0.1,1.1,0.9C172.5,140,172.1,140,171.7,140z"/>
		</g>
	</g>
</g>
<path class="st9" d="M181.1,170c1.2-1.7,0.5-3.2,0.4-4.8c0.2,0,0.6-0.2,0.9-0.2c0.7,0.1,1.5,0.3,2.2,0.5c1.2,0.3,1.3,0.6,0.5,1.7
	c0,0.1,0,0.2,0.1,0.2c0.9,0.9,0.7,2-0.6,2.4c-0.8,0.3-1.7,0.5-2.5,0.6C181.8,170.5,181.5,170.2,181.1,170z M182.8,169.3
	c0.8-0.1,1.4-0.1,1.8-0.6c-0.6-0.9-0.7-0.9-1.8-0.5C182.8,168.4,182.8,168.8,182.8,169.3z M182.7,166.7c0.7,0.1,1.3,0.2,1.9-0.4
	c-0.6-0.2-1.2-0.3-1.8-0.5C182.8,166.1,182.7,166.4,182.7,166.7z"/>
<path class="st25" d="M188.1,165.8c-0.2-0.1-0.4-0.3-0.6-0.5c0.1-0.8,1.2-1,2.4-0.4c-1.1,0.8-0.7,1.9-0.6,2.9c0.1,0.8,1.3,1.4,2,1.1
	c0.1-0.1,0.3-0.2,0.3-0.3c0.1-0.5,0.2-1,0.1-1.5c-0.1-0.4-0.4-0.9-0.6-1.4c0.8-1,1.1-1,2.4-0.1c-0.8,0.4-0.8,1.1-0.8,1.9
	c0.2,1.9-0.6,2.5-2.4,2.4c-1.5-0.1-2-0.7-2.1-2.2C188.2,167,188.1,166.4,188.1,165.8z"/>
<path class="st25" d="M203.5,168c0.1,0.7,0.5,0.8,0.9,0.7c0.2,0,0.4-0.1,0.6-0.2c0.7-0.2,1.1,0,1.2,0.4c0,0.4-0.4,0.9-0.9,0.9
	c-1.1,0-2.2-0.2-3.3-0.3c-0.1,0-0.1-0.1-0.2-0.3c0.2-0.2,0.4-0.4,0.7-0.6c0-0.8,0-1.7,0-2.6c-0.4-0.2-0.7-0.3-1-0.5
	c0-0.2,0-0.3,0.1-0.4c0.4-0.5,1-0.5,1.5-0.4c0.8,0,1.5,0.1,2.3,0.2c0.1,0.1,0.2,0.3,0.3,0.5c0.2,0.3,0.3,0.7-0.1,1
	c-0.4,0.3-0.8,0.3-1-0.1c-0.3-0.5-0.6-0.4-1.1-0.3c0,0.3,0,0.7,0.1,1.1c0.5,0,0.8,0,1.2,0c0.3,0,0.7,0.1,0.6,0.7
	C204.8,167.8,204.2,167.9,203.5,168z"/>
<path class="st9" d="M175.2,168.7c0.6,1.3,0.6,1.4-0.9,1.4c-0.4,0-0.8,0.2-1.1-0.4c0.8-0.4,1.2-1.1,1.4-2c0.1-0.8,0.3-1.6,0.5-2.6
	c0.2,0,0.5-0.1,0.9-0.2c0.6-0.1,0.9,0.1,1.1,0.7c0.4,1.5,0.8,2.9,1.2,4.4c-0.7,0.5-1,0.6-2,0.1c0.2-0.4,1.1-0.7,0.4-1.3
	C176.4,168.4,175.8,168.4,175.2,168.7z M176.7,167.6c-0.2-0.6-0.2-1.1-0.7-1.5c-0.2,0.5-0.4,0.9-0.6,1.4
	C175.9,167.5,176.2,167.5,176.7,167.6z"/>
<path class="st25" d="M195.9,168.6c0.3-0.6,0.7-0.7,1.2-0.3c0.1,0.1,0.2,0.2,0.3,0.2c0.3,0,0.6,0.1,0.9,0c0.4-0.2,0.3-0.7,0-0.9
	c-0.2-0.3-0.6-0.5-0.9-0.7c-0.3-0.2-0.7-0.4-1.1-0.6c0.6-1.6,1.8-1.9,3.2-1.1c-0.3,0.9-1.2,0.2-1.8,0.6c0.4,0.3,0.6,0.5,0.9,0.6
	c1,0.7,1.3,1.7,0.7,2.5c-0.7,0.9-2.1,0.9-3,0.1C196.1,168.9,196,168.7,195.9,168.6z"/>
<g>
	<path class="st0" d="M182.8,169.3c0-0.5,0-0.8,0-1.1c1.1-0.4,1.3-0.3,1.8,0.5C184.2,169.2,183.6,169.2,182.8,169.3z"/>
</g>
<g>
	<path class="st0" d="M182.7,166.7c0.1-0.4,0.1-0.6,0.2-0.9c0.6,0.2,1.1,0.3,1.8,0.5C184,167,183.4,166.8,182.7,166.7z"/>
</g>
<g>
	<path class="st0" d="M176.7,167.6c-0.5,0-0.9-0.1-1.3-0.1c0.2-0.5,0.4-0.9,0.6-1.4C176.5,166.4,176.5,167,176.7,167.6z"/>
</g>
</svg>
