<?xml version="1.0" encoding="utf-8"?>
<!-- Generator: Adobe Illustrator 24.0.0, SVG Export Plug-In . SVG Version: 6.00 Build 0)  -->
<svg version="1.1" id="Layer_1" xmlns="http://www.w3.org/2000/svg" xmlns:xlink="http://www.w3.org/1999/xlink" x="0px" y="0px"
	 viewBox="0 0 336 248" style="enable-background:new 0 0 336 248;" xml:space="preserve">
<path style="fill:#030303;" d="M317,13.9c1.7,1,3.5,1.9,5,3.1c2.5,2.1,4.9,4.4,7.2,6.7c0.5,0.5,0.8,1.4,0.8,2.1
	c0,17.1,0,34.2-0.1,51.4c-0.1,28.4,0.1,56.8-0.5,85.3c-0.3,13-0.2,26.1-0.4,39.1c-0.1,7.6,0.1,15.1,0.2,22.7c0,4.1,0.1,8.2,0.1,12.2
	c0,1.4-0.2,2.8-0.3,4.3c-0.5,0-1,0-1.5,0c-9.2,0-18.3,0-27.5,0c-16.7,0-33.4,0-50.1,0.1c-12.2,0-24.4,0-36.6,0
	c-12.2,0-24.5-0.2-36.7-0.2c-13.7,0-27.3,0.1-41,0.1c-4.8,0-9.5,0-14.3,0c-5.5,0-11.1,0.2-16.6,0.3c-10.3,0-20.6,0-30.9,0
	c-12.4,0-24.7-0.1-37.1-0.2c-3.1,0-5.6-1.1-8-2.6c-3.4-2.2-6.8-4.5-10.5-6.3c-2.8-1.3-4.9-3.1-6.8-5.2c-0.3-0.4-0.4-0.9-0.4-1.4
	c0-7.1,0-14.3,0-21.4c-0.1-12.6-0.4-25.3-0.5-37.9c-0.1-6.8-0.1-13.6-0.1-20.4c0-25.5,0.1-51.1,0-76.6c0-17.4-0.2-34.7-0.3-52.1
	c0-1,1.5-2.4,2.8-2.5c0.6-0.1,1.3,0,1.9,0c15-0.3,29.9-0.6,44.9-0.9c3.7-0.1,7.3,0,11-0.1c5.1-0.1,10.2-0.4,15.3-0.5
	c4.5-0.1,9,0,13.5-0.1c2.5,0,5-0.3,7.5,0c3.2,0.4,6.2-0.2,9.3-0.3c4.7,0,9.4,0,14.1,0c2.4,0,4.9-0.3,7.3,0c3,0.4,5.9-0.2,8.9-0.2
	c5.8,0.1,11.7,0.2,17.5,0.3c12.4,0,24.7-0.1,37.1-0.1c2.4,0,4.8,0.2,7.2,0.2c1,0,2-0.4,3.1-0.4c3.7-0.1,7.3-0.1,11-0.1
	c2.1,0,4.2,0.4,6.3,0.5c0.5,0,1,0,1.5-0.1c2.2-0.4,4.2-0.1,6.4,0.4c1,0.2,2.2-0.1,3.3-0.2c0.5-0.1,1-0.2,1.5-0.2
	c4.1,0.2,8.3,0.4,12.4,0.6c3.9,0.2,7.8,0.3,11.7,0.4c2.1,0.1,4.2,0,6.4,0c0.4,0,0.8,0,1.2,0c0.3,0,0.6,0,0.9,0c0.3,0,0.6,0,0.9,0
	c1.5,0,3-0.1,4.5-0.1c0.5,0,1,0,1.5,0c2.8,0,5.6,0,8.4,0c0.6,0,1.2,0,1.8,0c2.1,0,4.2,0.1,6.2,0.1c0.5,0,1,0.1,1.5,0.1
	c3,0.1,5.9,0.1,8.9,0.2c1.3,0,2.6,0.1,3.9,0.1c1,0,2,0.1,3,0.1c0.2-0.1,0.4-0.2,0.6-0.3c0.2,0,0.3,0.1,0.5,0.1
	c0.4,0.7,0.8,1.4,1.3,2.2C317,15.3,317,14.6,317,13.9z M314.6,16.6c-0.7,0-1.4-0.1-2.1-0.1c-5.4-0.1-10.9-0.2-16.3-0.3
	c-2,0-4.1-0.2-6.1-0.2c-2.9,0.1-5.9,0.4-8.8,0.4c-3.6,0-7.2-0.3-10.9-0.3c-3.2,0-6.5,0.3-9.7,0.2c-2.8,0-5.7-0.4-8.5-0.6
	c-1.6-0.1-3.1-0.4-4.7-0.4c-4.3,0-8.5,0.2-12.8,0.2c-4.3-0.1-8.7-0.4-13-0.5c-2.6-0.1-5.3,0.1-7.9,0.2c-4.2,0.1-8.4,0.2-12.6,0.2
	c-11.8,0-23.6,0-35.3,0.1c-5.3,0-10.6,0-15.9,0c-3.9,0-7.8,0.2-11.7,0.2c-1.7,0-3.3-0.3-5-0.3c-2.4,0-4.9,0-7.3,0.1
	c-2.4,0-4.8,0.1-7.2,0.2c-4.4,0.1-8.8,0.2-13.2,0.2c-3.7,0-7.3,0-11,0c-3,0-5.9,0.1-8.9,0.2c-2.4,0-4.7-0.2-7.1-0.1
	c-4.2,0.1-8.4,0.3-12.6,0.3c-5.5,0.1-10.9,0-16.4,0.1c-4.3,0.1-8.6,0.2-12.9,0.4c-1,0-2.3-0.2-3,0.2c-1.3,0.9-2.7,0.7-4.1,0.7
	c-4.4-0.2-8.7-0.4-13.1-0.5c-0.5,0-1.2,0.2-1.5,0.5c-0.4,0.6-0.8,1.4-0.8,2.1c0.2,3.1-1.2,6.2-0.5,9.4c0.2,1-0.3,2-0.3,3.1
	c0,2.2,0.1,4.4,0.2,6.5c0,1.7,0.1,3.4,0.1,5.1c0,2.3,0,4.6,0,6.9c0,2-0.4,4.2,0.1,6.1c0.6,2.4,0.2,4.7,0.2,7c0,2.3-0.1,4.6-0.2,6.9
	c-0.1,1.9-0.2,3.8-0.3,5.7c-0.1,1.3-0.3,2.7-0.2,4c0,1.1,0.3,2.2,0.4,3.4c0.1,3,0.1,6,0.2,9.1c0.3,6.5,0.6,12.9,0.9,19.4
	c0.1,3.5,0,6.9,0,10.4c0.1,9.1,0.2,18.2,0.3,27.3c0.1,7.7,0.3,15.3,0.4,23c0,0.4,0.1,0.8,0.2,1.1c0.2,0.9,0.5,1.7,0.5,2.6
	c0,1.5-0.2,2.9-0.2,4.4c0,2.6,0,5.3,0,7.9c-1.1,0.4-1.1,0.4-1.1,1.5c0.2,4.6,0.5,9.3,0.8,13.9c0.1,2.1,0.7,4.1,0.8,6.2
	c0.1,2.3,0,4.6,0,6.9c0,0.8-0.1,1.6-0.1,2.4c0,2.6,0,5.2,0,7.9c3.1,0,5.8,0,8.5,0c0.9,0,1.7-0.5,2.6-0.5c0.7,0,1.5,0.5,2.2,0.5
	c1.5,0,3-0.2,4.5-0.3c4.9,0,9.8,0,14.7,0c2.2,0,4.4,0,6.5,0c1.1,0,2.1-0.4,3.1-0.4c1.6-0.1,3.1-0.1,4.7-0.1c3.4,0,6.8-0.1,10.3,0.1
	c2.4,0.1,4.9-0.6,7.3,0.2c0.4,0.1,0.9-0.1,1.4-0.2c0.3-0.1,0.7-0.3,1-0.2c3.1,0.1,6.3,0.2,9.4,0.3c3.4,0.1,6.8,0.5,10.2,0.2
	c2.4-0.2,4.8-0.1,7.2-0.2c3-0.1,6-0.2,9-0.3c1.4,0,2.8-0.1,4.3,0c3.3,0.1,6.7,0.5,10,0.2c2.3-0.2,4.7,0,7.1-0.1
	c5.9-0.1,11.9-0.2,17.8-0.2c8.8,0,17.6,0.2,26.4,0.3c5,0,10.1,0,15.1-0.1c3.2-0.1,6.4,0.1,9.6,0c4.7-0.1,9.5,0.3,14.2,0.3
	c9.9,0,19.8-0.1,29.7-0.1c4.7,0,9.4,0,14.1-0.1c3.6,0,7.2-0.1,10.8-0.2c2.8-0.1,5.5-0.2,8.3-0.3c5.8-0.1,11.7,0,17.5-0.2
	c2.9-0.1,5.7-0.4,8.5-0.7c1-0.1,1.6-0.6,1.6-1.7c0.1-7,0.2-13.9,0.3-20.9c0.1-3.8,0.1-7.6,0.1-11.3c0.2-13.7,0.4-27.4,0.6-41.1
	c0.1-4.8,0.1-9.5,0.2-14.3c0.2-10.4,0.7-20.8,0.4-31.2c-0.3-9.5,0.7-19-1-28.4c-0.2-0.9,0.2-1.9,0.2-2.8c0-3.7,0.1-7.4-0.1-11.1
	c-0.2-3.3,0.4-6.7-0.4-10c-0.1-0.4,0-1.2,0.1-1.2c1.3-0.3,0.8-1.2,0.8-1.8c-0.4-7.9,0.6-15.8-0.9-23.8
	C314.2,22.7,314.6,19.7,314.6,16.6z M317.1,31c-0.2,0-0.4,0-0.5,0c-0.2,15.4-0.3,30.9-0.5,46.3c0.2,0,0.4,0,0.5,0
	C316.8,61.9,316.9,46.5,317.1,31z M316.6,19.5c-0.1,0-0.3,0-0.4,0c0,3.6,0,7.1,0,10.7c0.1,0,0.3,0,0.4,0
	C316.6,26.6,316.6,23.1,316.6,19.5z"/>
<path style="fill:#4C4A48;" d="M311.6,13.9c-1.3,0-2.6-0.1-3.9-0.1C309,13.8,310.3,13.9,311.6,13.9z"/>
<path style="fill:#4C4A48;" d="M317,13.9c0,0.7,0,1.3,0,2c-0.4-0.8-0.8-1.5-1.3-2.2C316.1,13.8,316.6,13.9,317,13.9z"/>
<path style="fill:#4C4A48;" d="M291.1,13.4c-0.6,0-1.2,0-1.8,0C289.9,13.4,290.5,13.4,291.1,13.4z"/>
<path style="fill:#4C4A48;" d="M281,13.4c-0.5,0-1,0-1.5,0C280,13.4,280.5,13.4,281,13.4z"/>
<path style="fill:#4C4A48;" d="M298.8,13.6c-0.5,0-1-0.1-1.5-0.1C297.8,13.6,298.3,13.6,298.8,13.6z"/>
<path style="fill:#4C4A48;" d="M273.3,13.6c-0.4,0-0.8,0-1.2,0C272.5,13.5,272.9,13.6,273.3,13.6z"/>
<path style="fill:#4C4A48;" d="M275,13.5c-0.3,0-0.6,0-0.9,0C274.4,13.5,274.7,13.5,275,13.5z"/>
<path style="fill:#4C4A48;" d="M315.2,13.7c-0.2,0.1-0.4,0.2-0.6,0.3C314.8,13.9,315,13.8,315.2,13.7z"/>
<path style="fill:#F3F8F2;" d="M314.6,16.6c0,3.1-0.5,6.1,0.1,9c1.5,7.9,0.4,15.8,0.9,23.8c0,0.6,0.5,1.5-0.8,1.8
	c-0.2,0-0.2,0.8-0.1,1.2c0.8,3.3,0.2,6.7,0.4,10c0.2,3.7,0.1,7.4,0.1,11.1c0,0.9-0.4,1.9-0.2,2.8c1.7,9.4,0.7,18.9,1,28.4
	c0.3,10.4-0.3,20.8-0.4,31.2c-0.1,4.8-0.2,9.5-0.2,14.3c-0.2,13.7-0.4,27.4-0.6,41.1c-0.1,3.8-0.1,7.6-0.1,11.3
	c-0.1,7-0.3,13.9-0.3,20.9c0,1-0.5,1.6-1.6,1.7c-2.8,0.3-5.7,0.6-8.5,0.7c-5.8,0.2-11.7,0.1-17.5,0.2c-2.8,0-5.5,0.2-8.3,0.3
	c-3.6,0.1-7.2,0.2-10.8,0.2c-4.7,0-9.4,0.1-14.1,0.1c-9.9,0-19.8,0.1-29.7,0.1c-4.7,0-9.5-0.4-14.2-0.3c-3.2,0.1-6.4,0-9.6,0
	c-5,0.1-10.1,0.2-15.1,0.1c-8.8-0.1-17.6-0.3-26.4-0.3c-5.9,0-11.9,0.1-17.8,0.2c-2.4,0-4.7-0.1-7.1,0.1c-3.4,0.3-6.7-0.1-10-0.2
	c-1.4,0-2.8,0-4.3,0c-3,0.1-6,0.2-9,0.3c-2.4,0.1-4.8,0-7.2,0.2c-3.4,0.3-6.8-0.1-10.2-0.2c-3.1-0.1-6.3-0.2-9.4-0.3
	c-0.3,0-0.6,0.2-1,0.2c-0.5,0.1-1,0.3-1.4,0.2c-2.4-0.8-4.9-0.1-7.3-0.2c-3.4-0.1-6.8-0.1-10.3-0.1c-1.6,0-3.1,0-4.7,0.1
	c-1.1,0.1-2.1,0.4-3.1,0.4c-2.2,0.1-4.4,0-6.5,0c-4.9,0-9.8,0-14.7,0c-1.5,0-3,0.3-4.5,0.3c-0.7,0-1.5-0.5-2.2-0.5
	c-0.9,0-1.7,0.5-2.6,0.5c-2.7,0.1-5.4,0-8.5,0c0-2.7,0-5.3,0-7.9c0-0.8,0-1.6,0.1-2.4c0-2.3,0.2-4.6,0-6.9c-0.1-2.1-0.7-4.1-0.8-6.2
	c-0.3-4.6-0.5-9.3-0.8-13.9c-0.1-1.1,0-1.1,1.1-1.5c0-2.6,0-5.2,0-7.9c0-1.5,0.2-2.9,0.2-4.4c0-0.9-0.4-1.7-0.5-2.6
	c-0.1-0.4-0.2-0.8-0.2-1.1c-0.1-7.7-0.3-15.3-0.4-23c-0.1-9.1-0.2-18.2-0.3-27.3c0-3.5,0.1-6.9,0-10.4c-0.2-6.5-0.6-12.9-0.9-19.4
	c-0.1-3-0.1-6-0.2-9.1c0-1.1-0.3-2.2-0.4-3.4c0-1.3,0.2-2.7,0.2-4c0.1-1.9,0.2-3.8,0.3-5.7c0.1-2.3,0.1-4.6,0.2-6.9
	c0-2.3,0.4-4.6-0.2-7c-0.5-2-0.1-4.1-0.1-6.1c0-2.3,0-4.6,0-6.9c0-1.7-0.1-3.4-0.1-5.1c-0.1-2.2-0.2-4.4-0.2-6.5
	c0-1,0.5-2.1,0.3-3.1c-0.7-3.2,0.7-6.2,0.5-9.4c0-0.7,0.3-1.4,0.8-2.1c0.2-0.3,1-0.5,1.5-0.5c4.4,0.1,8.7,0.4,13.1,0.5
	c1.4,0,2.8,0.2,4.1-0.7c0.7-0.5,2-0.2,3-0.2c4.3-0.1,8.6-0.3,12.9-0.4c5.5-0.1,10.9,0,16.4-0.1c4.2-0.1,8.4-0.3,12.6-0.3
	c2.4,0,4.7,0.2,7.1,0.1c3,0,5.9-0.1,8.9-0.2c3.7,0,7.3,0,11,0c4.4,0,8.8-0.1,13.2-0.2c2.4,0,4.8-0.1,7.2-0.2c2.4,0,4.9-0.1,7.3-0.1
	c1.7,0,3.3,0.3,5,0.3c3.9,0,7.8-0.2,11.7-0.2c5.3,0,10.6,0,15.9,0c11.8,0,23.6,0,35.3-0.1c4.2,0,8.4-0.1,12.6-0.2
	c2.6-0.1,5.3-0.2,7.9-0.2c4.3,0.1,8.7,0.5,13,0.5c4.3,0.1,8.5-0.2,12.8-0.2c1.6,0,3.1,0.3,4.7,0.4c2.8,0.2,5.7,0.5,8.5,0.6
	c3.2,0.1,6.5-0.2,9.7-0.2c3.6,0,7.2,0.3,10.9,0.3c2.9,0,5.9-0.3,8.8-0.4c2,0,4.1,0.1,6.1,0.2c5.4,0.1,10.9,0.2,16.3,0.3
	C313.2,16.5,314,16.6,314.6,16.6z"/>
<path style="fill:#111111;" d="M317.1,31c-0.2,15.4-0.3,30.9-0.5,46.3c-0.2,0-0.4,0-0.5,0c0.2-15.4,0.3-30.9,0.5-46.3
	C316.7,31,316.9,31,317.1,31z"/>
<ellipse style="fill:#111111;" cx="316.4" cy="24.8" rx="0.3" ry="7.6"/>
</svg>
